G04 #@! TF.FileFunction,Legend,Top*
%FSLAX46Y46*%
G04 Gerber Fmt 4.6, Leading zero omitted, Abs format (unit mm)*
G04 Created by KiCad (PCBNEW 4.0.5) date Wed May 31 09:29:27 2017*
%MOMM*%
%LPD*%
G01*
G04 APERTURE LIST*
%ADD10C,0.100000*%
%ADD11C,0.300000*%
%ADD12C,0.200000*%
%ADD13C,0.150000*%
G04 APERTURE END LIST*
D10*
D11*
X145092857Y-148100000D02*
X145807143Y-148100000D01*
X144950000Y-148528571D02*
X145450000Y-147028571D01*
X145950000Y-148528571D01*
X146450000Y-147028571D02*
X146450000Y-148242857D01*
X146521428Y-148385714D01*
X146592857Y-148457143D01*
X146735714Y-148528571D01*
X147021428Y-148528571D01*
X147164286Y-148457143D01*
X147235714Y-148385714D01*
X147307143Y-148242857D01*
X147307143Y-147028571D01*
X147878572Y-147028571D02*
X148878572Y-148528571D01*
X148878572Y-147028571D02*
X147878572Y-148528571D01*
X150521428Y-146957143D02*
X149235714Y-148885714D01*
X151021429Y-148528571D02*
X151021429Y-147028571D01*
X151878572Y-148528571D01*
X151878572Y-147028571D01*
X152592858Y-148528571D02*
X152592858Y-147028571D01*
X153092858Y-148100000D01*
X153592858Y-147028571D01*
X153592858Y-148528571D01*
X154307144Y-147742857D02*
X154807144Y-147742857D01*
X155021430Y-148528571D02*
X154307144Y-148528571D01*
X154307144Y-147028571D01*
X155021430Y-147028571D01*
X155592858Y-148100000D02*
X156307144Y-148100000D01*
X155450001Y-148528571D02*
X155950001Y-147028571D01*
X156450001Y-148528571D01*
X161964286Y-148578571D02*
X161964286Y-147078571D01*
X162535714Y-147078571D01*
X162678572Y-147150000D01*
X162750000Y-147221429D01*
X162821429Y-147364286D01*
X162821429Y-147578571D01*
X162750000Y-147721429D01*
X162678572Y-147792857D01*
X162535714Y-147864286D01*
X161964286Y-147864286D01*
X163464286Y-148578571D02*
X163464286Y-147078571D01*
X165321429Y-148578571D02*
X165321429Y-147078571D01*
X165678572Y-147078571D01*
X165892857Y-147150000D01*
X166035715Y-147292857D01*
X166107143Y-147435714D01*
X166178572Y-147721429D01*
X166178572Y-147935714D01*
X166107143Y-148221429D01*
X166035715Y-148364286D01*
X165892857Y-148507143D01*
X165678572Y-148578571D01*
X165321429Y-148578571D01*
X166821429Y-147792857D02*
X167321429Y-147792857D01*
X167535715Y-148578571D02*
X166821429Y-148578571D01*
X166821429Y-147078571D01*
X167535715Y-147078571D01*
X168678572Y-147792857D02*
X168892858Y-147864286D01*
X168964286Y-147935714D01*
X169035715Y-148078571D01*
X169035715Y-148292857D01*
X168964286Y-148435714D01*
X168892858Y-148507143D01*
X168750000Y-148578571D01*
X168178572Y-148578571D01*
X168178572Y-147078571D01*
X168678572Y-147078571D01*
X168821429Y-147150000D01*
X168892858Y-147221429D01*
X168964286Y-147364286D01*
X168964286Y-147507143D01*
X168892858Y-147650000D01*
X168821429Y-147721429D01*
X168678572Y-147792857D01*
X168178572Y-147792857D01*
X169678572Y-147078571D02*
X169678572Y-148292857D01*
X169750000Y-148435714D01*
X169821429Y-148507143D01*
X169964286Y-148578571D01*
X170250000Y-148578571D01*
X170392858Y-148507143D01*
X170464286Y-148435714D01*
X170535715Y-148292857D01*
X170535715Y-147078571D01*
X172035715Y-147150000D02*
X171892858Y-147078571D01*
X171678572Y-147078571D01*
X171464287Y-147150000D01*
X171321429Y-147292857D01*
X171250001Y-147435714D01*
X171178572Y-147721429D01*
X171178572Y-147935714D01*
X171250001Y-148221429D01*
X171321429Y-148364286D01*
X171464287Y-148507143D01*
X171678572Y-148578571D01*
X171821429Y-148578571D01*
X172035715Y-148507143D01*
X172107144Y-148435714D01*
X172107144Y-147935714D01*
X171821429Y-147935714D01*
X217078571Y-151064286D02*
X217078571Y-150207143D01*
X218578571Y-150635714D02*
X217078571Y-150635714D01*
X218578571Y-149707143D02*
X217078571Y-149707143D01*
X217792857Y-149707143D02*
X217792857Y-148850000D01*
X218578571Y-148850000D02*
X217078571Y-148850000D01*
X218578571Y-148135714D02*
X217078571Y-148135714D01*
X218507143Y-147492857D02*
X218578571Y-147278571D01*
X218578571Y-146921428D01*
X218507143Y-146778571D01*
X218435714Y-146707142D01*
X218292857Y-146635714D01*
X218150000Y-146635714D01*
X218007143Y-146707142D01*
X217935714Y-146778571D01*
X217864286Y-146921428D01*
X217792857Y-147207142D01*
X217721429Y-147350000D01*
X217650000Y-147421428D01*
X217507143Y-147492857D01*
X217364286Y-147492857D01*
X217221429Y-147421428D01*
X217150000Y-147350000D01*
X217078571Y-147207142D01*
X217078571Y-146850000D01*
X217150000Y-146635714D01*
X218507143Y-144921429D02*
X218578571Y-144707143D01*
X218578571Y-144350000D01*
X218507143Y-144207143D01*
X218435714Y-144135714D01*
X218292857Y-144064286D01*
X218150000Y-144064286D01*
X218007143Y-144135714D01*
X217935714Y-144207143D01*
X217864286Y-144350000D01*
X217792857Y-144635714D01*
X217721429Y-144778572D01*
X217650000Y-144850000D01*
X217507143Y-144921429D01*
X217364286Y-144921429D01*
X217221429Y-144850000D01*
X217150000Y-144778572D01*
X217078571Y-144635714D01*
X217078571Y-144278572D01*
X217150000Y-144064286D01*
X218578571Y-143421429D02*
X217078571Y-143421429D01*
X218578571Y-142707143D02*
X217078571Y-142707143D01*
X217078571Y-142350000D01*
X217150000Y-142135715D01*
X217292857Y-141992857D01*
X217435714Y-141921429D01*
X217721429Y-141850000D01*
X217935714Y-141850000D01*
X218221429Y-141921429D01*
X218364286Y-141992857D01*
X218507143Y-142135715D01*
X218578571Y-142350000D01*
X218578571Y-142707143D01*
X217792857Y-141207143D02*
X217792857Y-140707143D01*
X218578571Y-140492857D02*
X218578571Y-141207143D01*
X217078571Y-141207143D01*
X217078571Y-140492857D01*
X217078571Y-138707143D02*
X218292857Y-138707143D01*
X218435714Y-138635715D01*
X218507143Y-138564286D01*
X218578571Y-138421429D01*
X218578571Y-138135715D01*
X218507143Y-137992857D01*
X218435714Y-137921429D01*
X218292857Y-137850000D01*
X217078571Y-137850000D01*
X218578571Y-137135714D02*
X217078571Y-137135714D01*
X217078571Y-136564286D01*
X217150000Y-136421428D01*
X217221429Y-136350000D01*
X217364286Y-136278571D01*
X217578571Y-136278571D01*
X217721429Y-136350000D01*
X217792857Y-136421428D01*
X217864286Y-136564286D01*
X217864286Y-137135714D01*
X94621429Y-103664286D02*
X94621429Y-102950000D01*
X96121429Y-102950000D01*
X94621429Y-104164286D02*
X96121429Y-104164286D01*
X94621429Y-104878572D02*
X96121429Y-104878572D01*
X96121429Y-105235715D01*
X96050000Y-105450000D01*
X95907143Y-105592858D01*
X95764286Y-105664286D01*
X95478571Y-105735715D01*
X95264286Y-105735715D01*
X94978571Y-105664286D01*
X94835714Y-105592858D01*
X94692857Y-105450000D01*
X94621429Y-105235715D01*
X94621429Y-104878572D01*
X95050000Y-106307143D02*
X95050000Y-107021429D01*
X94621429Y-106164286D02*
X96121429Y-106664286D01*
X94621429Y-107164286D01*
X94621429Y-108521429D02*
X95335714Y-108021429D01*
X94621429Y-107664286D02*
X96121429Y-107664286D01*
X96121429Y-108235714D01*
X96050000Y-108378572D01*
X95978571Y-108450000D01*
X95835714Y-108521429D01*
X95621429Y-108521429D01*
X95478571Y-108450000D01*
X95407143Y-108378572D01*
X95335714Y-108235714D01*
X95335714Y-107664286D01*
X101214287Y-103378571D02*
X100500001Y-103378571D01*
X100428572Y-104092857D01*
X100500001Y-104021429D01*
X100642858Y-103950000D01*
X101000001Y-103950000D01*
X101142858Y-104021429D01*
X101214287Y-104092857D01*
X101285715Y-104235714D01*
X101285715Y-104592857D01*
X101214287Y-104735714D01*
X101142858Y-104807143D01*
X101000001Y-104878571D01*
X100642858Y-104878571D01*
X100500001Y-104807143D01*
X100428572Y-104735714D01*
X101714286Y-103378571D02*
X102214286Y-104878571D01*
X102714286Y-103378571D01*
X100514286Y-107407143D02*
X100728572Y-107478571D01*
X101085715Y-107478571D01*
X101228572Y-107407143D01*
X101300001Y-107335714D01*
X101371429Y-107192857D01*
X101371429Y-107050000D01*
X101300001Y-106907143D01*
X101228572Y-106835714D01*
X101085715Y-106764286D01*
X100800001Y-106692857D01*
X100657143Y-106621429D01*
X100585715Y-106550000D01*
X100514286Y-106407143D01*
X100514286Y-106264286D01*
X100585715Y-106121429D01*
X100657143Y-106050000D01*
X100800001Y-105978571D01*
X101157143Y-105978571D01*
X101371429Y-106050000D01*
X102871429Y-107335714D02*
X102800000Y-107407143D01*
X102585714Y-107478571D01*
X102442857Y-107478571D01*
X102228572Y-107407143D01*
X102085714Y-107264286D01*
X102014286Y-107121429D01*
X101942857Y-106835714D01*
X101942857Y-106621429D01*
X102014286Y-106335714D01*
X102085714Y-106192857D01*
X102228572Y-106050000D01*
X102442857Y-105978571D01*
X102585714Y-105978571D01*
X102800000Y-106050000D01*
X102871429Y-106121429D01*
X104228572Y-107478571D02*
X103514286Y-107478571D01*
X103514286Y-105978571D01*
X100578572Y-110007143D02*
X100792858Y-110078571D01*
X101150001Y-110078571D01*
X101292858Y-110007143D01*
X101364287Y-109935714D01*
X101435715Y-109792857D01*
X101435715Y-109650000D01*
X101364287Y-109507143D01*
X101292858Y-109435714D01*
X101150001Y-109364286D01*
X100864287Y-109292857D01*
X100721429Y-109221429D01*
X100650001Y-109150000D01*
X100578572Y-109007143D01*
X100578572Y-108864286D01*
X100650001Y-108721429D01*
X100721429Y-108650000D01*
X100864287Y-108578571D01*
X101221429Y-108578571D01*
X101435715Y-108650000D01*
X102078572Y-110078571D02*
X102078572Y-108578571D01*
X102435715Y-108578571D01*
X102650000Y-108650000D01*
X102792858Y-108792857D01*
X102864286Y-108935714D01*
X102935715Y-109221429D01*
X102935715Y-109435714D01*
X102864286Y-109721429D01*
X102792858Y-109864286D01*
X102650000Y-110007143D01*
X102435715Y-110078571D01*
X102078572Y-110078571D01*
X103507143Y-109650000D02*
X104221429Y-109650000D01*
X103364286Y-110078571D02*
X103864286Y-108578571D01*
X104364286Y-110078571D01*
X92757143Y-111250000D02*
X92614286Y-111178571D01*
X92400000Y-111178571D01*
X92185715Y-111250000D01*
X92042857Y-111392857D01*
X91971429Y-111535714D01*
X91900000Y-111821429D01*
X91900000Y-112035714D01*
X91971429Y-112321429D01*
X92042857Y-112464286D01*
X92185715Y-112607143D01*
X92400000Y-112678571D01*
X92542857Y-112678571D01*
X92757143Y-112607143D01*
X92828572Y-112535714D01*
X92828572Y-112035714D01*
X92542857Y-112035714D01*
X93471429Y-112678571D02*
X93471429Y-111178571D01*
X94328572Y-112678571D01*
X94328572Y-111178571D01*
X95042858Y-112678571D02*
X95042858Y-111178571D01*
X95400001Y-111178571D01*
X95614286Y-111250000D01*
X95757144Y-111392857D01*
X95828572Y-111535714D01*
X95900001Y-111821429D01*
X95900001Y-112035714D01*
X95828572Y-112321429D01*
X95757144Y-112464286D01*
X95614286Y-112607143D01*
X95400001Y-112678571D01*
X95042858Y-112678571D01*
X217157143Y-105725000D02*
X217014286Y-105653571D01*
X216800000Y-105653571D01*
X216585715Y-105725000D01*
X216442857Y-105867857D01*
X216371429Y-106010714D01*
X216300000Y-106296429D01*
X216300000Y-106510714D01*
X216371429Y-106796429D01*
X216442857Y-106939286D01*
X216585715Y-107082143D01*
X216800000Y-107153571D01*
X216942857Y-107153571D01*
X217157143Y-107082143D01*
X217228572Y-107010714D01*
X217228572Y-106510714D01*
X216942857Y-106510714D01*
X217871429Y-107153571D02*
X217871429Y-105653571D01*
X218728572Y-107153571D01*
X218728572Y-105653571D01*
X219442858Y-107153571D02*
X219442858Y-105653571D01*
X219800001Y-105653571D01*
X220014286Y-105725000D01*
X220157144Y-105867857D01*
X220228572Y-106010714D01*
X220300001Y-106296429D01*
X220300001Y-106510714D01*
X220228572Y-106796429D01*
X220157144Y-106939286D01*
X220014286Y-107082143D01*
X219800001Y-107153571D01*
X219442858Y-107153571D01*
X218050001Y-109703571D02*
X217550001Y-108989286D01*
X217192858Y-109703571D02*
X217192858Y-108203571D01*
X217764286Y-108203571D01*
X217907144Y-108275000D01*
X217978572Y-108346429D01*
X218050001Y-108489286D01*
X218050001Y-108703571D01*
X217978572Y-108846429D01*
X217907144Y-108917857D01*
X217764286Y-108989286D01*
X217192858Y-108989286D01*
X218550001Y-108203571D02*
X219550001Y-109703571D01*
X219550001Y-108203571D02*
X218550001Y-109703571D01*
X217157143Y-110753571D02*
X218014286Y-110753571D01*
X217585715Y-112253571D02*
X217585715Y-110753571D01*
X218371429Y-110753571D02*
X219371429Y-112253571D01*
X219371429Y-110753571D02*
X218371429Y-112253571D01*
X218014287Y-113303571D02*
X217300001Y-113303571D01*
X217228572Y-114017857D01*
X217300001Y-113946429D01*
X217442858Y-113875000D01*
X217800001Y-113875000D01*
X217942858Y-113946429D01*
X218014287Y-114017857D01*
X218085715Y-114160714D01*
X218085715Y-114517857D01*
X218014287Y-114660714D01*
X217942858Y-114732143D01*
X217800001Y-114803571D01*
X217442858Y-114803571D01*
X217300001Y-114732143D01*
X217228572Y-114660714D01*
X218514286Y-113303571D02*
X219014286Y-114803571D01*
X219514286Y-113303571D01*
X211128571Y-114600000D02*
X209628571Y-114600000D01*
X209628571Y-114028572D01*
X209700000Y-113885714D01*
X209771429Y-113814286D01*
X209914286Y-113742857D01*
X210128571Y-113742857D01*
X210271429Y-113814286D01*
X210342857Y-113885714D01*
X210414286Y-114028572D01*
X210414286Y-114600000D01*
X209628571Y-113242857D02*
X211128571Y-112242857D01*
X209628571Y-112242857D02*
X211128571Y-113242857D01*
X210342857Y-111171429D02*
X210342857Y-111671429D01*
X211128571Y-111671429D02*
X209628571Y-111671429D01*
X209628571Y-110957143D01*
X211128571Y-109671429D02*
X211128571Y-110385715D01*
X209628571Y-110385715D01*
X209628571Y-108885715D02*
X209628571Y-108600001D01*
X209700000Y-108457143D01*
X209842857Y-108314286D01*
X210128571Y-108242858D01*
X210628571Y-108242858D01*
X210914286Y-108314286D01*
X211057143Y-108457143D01*
X211128571Y-108600001D01*
X211128571Y-108885715D01*
X211057143Y-109028572D01*
X210914286Y-109171429D01*
X210628571Y-109242858D01*
X210128571Y-109242858D01*
X209842857Y-109171429D01*
X209700000Y-109028572D01*
X209628571Y-108885715D01*
X209628571Y-107742857D02*
X211128571Y-107385714D01*
X210057143Y-107100000D01*
X211128571Y-106814286D01*
X209628571Y-106457143D01*
X214678571Y-60335714D02*
X213964286Y-60835714D01*
X214678571Y-61192857D02*
X213178571Y-61192857D01*
X213178571Y-60621429D01*
X213250000Y-60478571D01*
X213321429Y-60407143D01*
X213464286Y-60335714D01*
X213678571Y-60335714D01*
X213821429Y-60407143D01*
X213892857Y-60478571D01*
X213964286Y-60621429D01*
X213964286Y-61192857D01*
X214535714Y-58835714D02*
X214607143Y-58907143D01*
X214678571Y-59121429D01*
X214678571Y-59264286D01*
X214607143Y-59478571D01*
X214464286Y-59621429D01*
X214321429Y-59692857D01*
X214035714Y-59764286D01*
X213821429Y-59764286D01*
X213535714Y-59692857D01*
X213392857Y-59621429D01*
X213250000Y-59478571D01*
X213178571Y-59264286D01*
X213178571Y-59121429D01*
X213250000Y-58907143D01*
X213321429Y-58835714D01*
X214678571Y-57050000D02*
X213178571Y-57050000D01*
X213178571Y-56478572D01*
X213250000Y-56335714D01*
X213321429Y-56264286D01*
X213464286Y-56192857D01*
X213678571Y-56192857D01*
X213821429Y-56264286D01*
X213892857Y-56335714D01*
X213964286Y-56478572D01*
X213964286Y-57050000D01*
X213178571Y-55692857D02*
X214678571Y-55335714D01*
X213607143Y-55050000D01*
X214678571Y-54764286D01*
X213178571Y-54407143D01*
X214678571Y-53835714D02*
X213178571Y-53835714D01*
X214250000Y-53335714D01*
X213178571Y-52835714D01*
X214678571Y-52835714D01*
X214678571Y-50978571D02*
X213178571Y-50978571D01*
X214678571Y-50264285D02*
X213178571Y-50264285D01*
X214678571Y-49407142D01*
X213178571Y-49407142D01*
X217203571Y-89050000D02*
X215703571Y-89050000D01*
X216775000Y-88550000D01*
X215703571Y-88050000D01*
X217203571Y-88050000D01*
X215846429Y-87407143D02*
X215775000Y-87335714D01*
X215703571Y-87192857D01*
X215703571Y-86835714D01*
X215775000Y-86692857D01*
X215846429Y-86621428D01*
X215989286Y-86550000D01*
X216132143Y-86550000D01*
X216346429Y-86621428D01*
X217203571Y-87478571D01*
X217203571Y-86550000D01*
X217203571Y-84764286D02*
X215703571Y-84764286D01*
X215703571Y-84192858D01*
X215775000Y-84050000D01*
X215846429Y-83978572D01*
X215989286Y-83907143D01*
X216203571Y-83907143D01*
X216346429Y-83978572D01*
X216417857Y-84050000D01*
X216489286Y-84192858D01*
X216489286Y-84764286D01*
X215703571Y-83407143D02*
X217203571Y-83050000D01*
X216132143Y-82764286D01*
X217203571Y-82478572D01*
X215703571Y-82121429D01*
X217203571Y-81550000D02*
X215703571Y-81550000D01*
X216775000Y-81050000D01*
X215703571Y-80550000D01*
X217203571Y-80550000D01*
X220325000Y-87157143D02*
X220253571Y-87228571D01*
X220039286Y-87371428D01*
X219896429Y-87442857D01*
X219682143Y-87514286D01*
X219325000Y-87585714D01*
X219039286Y-87585714D01*
X218682143Y-87514286D01*
X218467857Y-87442857D01*
X218325000Y-87371428D01*
X218110714Y-87228571D01*
X218039286Y-87157143D01*
X219682143Y-86657143D02*
X219753571Y-86442857D01*
X219753571Y-86085714D01*
X219682143Y-85942857D01*
X219610714Y-85871428D01*
X219467857Y-85800000D01*
X219325000Y-85800000D01*
X219182143Y-85871428D01*
X219110714Y-85942857D01*
X219039286Y-86085714D01*
X218967857Y-86371428D01*
X218896429Y-86514286D01*
X218825000Y-86585714D01*
X218682143Y-86657143D01*
X218539286Y-86657143D01*
X218396429Y-86585714D01*
X218325000Y-86514286D01*
X218253571Y-86371428D01*
X218253571Y-86014286D01*
X218325000Y-85800000D01*
X218253571Y-85371429D02*
X218253571Y-84514286D01*
X219753571Y-84942857D02*
X218253571Y-84942857D01*
X219753571Y-84014286D02*
X218253571Y-84014286D01*
X219325000Y-83514286D01*
X218253571Y-83014286D01*
X219753571Y-83014286D01*
X220325000Y-82442857D02*
X220253571Y-82371429D01*
X220039286Y-82228572D01*
X219896429Y-82157143D01*
X219682143Y-82085714D01*
X219325000Y-82014286D01*
X219039286Y-82014286D01*
X218682143Y-82085714D01*
X218467857Y-82157143D01*
X218325000Y-82228572D01*
X218110714Y-82371429D01*
X218039286Y-82442857D01*
X217003571Y-134650000D02*
X215503571Y-134650000D01*
X216575000Y-134150000D01*
X215503571Y-133650000D01*
X217003571Y-133650000D01*
X215503571Y-133078571D02*
X215503571Y-132150000D01*
X216075000Y-132650000D01*
X216075000Y-132435714D01*
X216146429Y-132292857D01*
X216217857Y-132221428D01*
X216360714Y-132150000D01*
X216717857Y-132150000D01*
X216860714Y-132221428D01*
X216932143Y-132292857D01*
X217003571Y-132435714D01*
X217003571Y-132864286D01*
X216932143Y-133007143D01*
X216860714Y-133078571D01*
X217003571Y-130364286D02*
X215503571Y-130364286D01*
X215503571Y-129792858D01*
X215575000Y-129650000D01*
X215646429Y-129578572D01*
X215789286Y-129507143D01*
X216003571Y-129507143D01*
X216146429Y-129578572D01*
X216217857Y-129650000D01*
X216289286Y-129792858D01*
X216289286Y-130364286D01*
X215503571Y-129007143D02*
X217003571Y-128650000D01*
X215932143Y-128364286D01*
X217003571Y-128078572D01*
X215503571Y-127721429D01*
X217003571Y-127150000D02*
X215503571Y-127150000D01*
X216575000Y-126650000D01*
X215503571Y-126150000D01*
X217003571Y-126150000D01*
X220125000Y-132757143D02*
X220053571Y-132828571D01*
X219839286Y-132971428D01*
X219696429Y-133042857D01*
X219482143Y-133114286D01*
X219125000Y-133185714D01*
X218839286Y-133185714D01*
X218482143Y-133114286D01*
X218267857Y-133042857D01*
X218125000Y-132971428D01*
X217910714Y-132828571D01*
X217839286Y-132757143D01*
X219482143Y-132257143D02*
X219553571Y-132042857D01*
X219553571Y-131685714D01*
X219482143Y-131542857D01*
X219410714Y-131471428D01*
X219267857Y-131400000D01*
X219125000Y-131400000D01*
X218982143Y-131471428D01*
X218910714Y-131542857D01*
X218839286Y-131685714D01*
X218767857Y-131971428D01*
X218696429Y-132114286D01*
X218625000Y-132185714D01*
X218482143Y-132257143D01*
X218339286Y-132257143D01*
X218196429Y-132185714D01*
X218125000Y-132114286D01*
X218053571Y-131971428D01*
X218053571Y-131614286D01*
X218125000Y-131400000D01*
X218053571Y-130971429D02*
X218053571Y-130114286D01*
X219553571Y-130542857D02*
X218053571Y-130542857D01*
X219553571Y-129614286D02*
X218053571Y-129614286D01*
X219125000Y-129114286D01*
X218053571Y-128614286D01*
X219553571Y-128614286D01*
X220125000Y-128042857D02*
X220053571Y-127971429D01*
X219839286Y-127828572D01*
X219696429Y-127757143D01*
X219482143Y-127685714D01*
X219125000Y-127614286D01*
X218839286Y-127614286D01*
X218482143Y-127685714D01*
X218267857Y-127757143D01*
X218125000Y-127828572D01*
X217910714Y-127971429D01*
X217839286Y-128042857D01*
X94421429Y-116535715D02*
X95921429Y-116535715D01*
X94850000Y-117035715D01*
X95921429Y-117535715D01*
X94421429Y-117535715D01*
X95421429Y-118892858D02*
X94421429Y-118892858D01*
X95992857Y-118535715D02*
X94921429Y-118178572D01*
X94921429Y-119107144D01*
X94421429Y-120821429D02*
X95921429Y-120821429D01*
X95921429Y-121392857D01*
X95850000Y-121535715D01*
X95778571Y-121607143D01*
X95635714Y-121678572D01*
X95421429Y-121678572D01*
X95278571Y-121607143D01*
X95207143Y-121535715D01*
X95135714Y-121392857D01*
X95135714Y-120821429D01*
X95921429Y-122178572D02*
X94421429Y-122535715D01*
X95492857Y-122821429D01*
X94421429Y-123107143D01*
X95921429Y-123464286D01*
X94421429Y-124035715D02*
X95921429Y-124035715D01*
X94850000Y-124535715D01*
X95921429Y-125035715D01*
X94421429Y-125035715D01*
X93850000Y-127321429D02*
X93921429Y-127250001D01*
X94135714Y-127107144D01*
X94278571Y-127035715D01*
X94492857Y-126964286D01*
X94850000Y-126892858D01*
X95135714Y-126892858D01*
X95492857Y-126964286D01*
X95707143Y-127035715D01*
X95850000Y-127107144D01*
X96064286Y-127250001D01*
X96135714Y-127321429D01*
X94492857Y-127821429D02*
X94421429Y-128035715D01*
X94421429Y-128392858D01*
X94492857Y-128535715D01*
X94564286Y-128607144D01*
X94707143Y-128678572D01*
X94850000Y-128678572D01*
X94992857Y-128607144D01*
X95064286Y-128535715D01*
X95135714Y-128392858D01*
X95207143Y-128107144D01*
X95278571Y-127964286D01*
X95350000Y-127892858D01*
X95492857Y-127821429D01*
X95635714Y-127821429D01*
X95778571Y-127892858D01*
X95850000Y-127964286D01*
X95921429Y-128107144D01*
X95921429Y-128464286D01*
X95850000Y-128678572D01*
X95921429Y-129107143D02*
X95921429Y-129964286D01*
X94421429Y-129535715D02*
X95921429Y-129535715D01*
X94421429Y-130464286D02*
X95921429Y-130464286D01*
X94850000Y-130964286D01*
X95921429Y-131464286D01*
X94421429Y-131464286D01*
X93850000Y-132035715D02*
X93921429Y-132107143D01*
X94135714Y-132250000D01*
X94278571Y-132321429D01*
X94492857Y-132392858D01*
X94850000Y-132464286D01*
X95135714Y-132464286D01*
X95492857Y-132392858D01*
X95707143Y-132321429D01*
X95850000Y-132250000D01*
X96064286Y-132107143D01*
X96135714Y-132035715D01*
X99021429Y-85035715D02*
X100521429Y-85035715D01*
X99450000Y-85535715D01*
X100521429Y-86035715D01*
X99021429Y-86035715D01*
X99021429Y-87535715D02*
X99021429Y-86678572D01*
X99021429Y-87107144D02*
X100521429Y-87107144D01*
X100307143Y-86964287D01*
X100164286Y-86821429D01*
X100092857Y-86678572D01*
X99021429Y-89321429D02*
X100521429Y-89321429D01*
X100521429Y-89892857D01*
X100450000Y-90035715D01*
X100378571Y-90107143D01*
X100235714Y-90178572D01*
X100021429Y-90178572D01*
X99878571Y-90107143D01*
X99807143Y-90035715D01*
X99735714Y-89892857D01*
X99735714Y-89321429D01*
X100521429Y-90678572D02*
X99021429Y-91035715D01*
X100092857Y-91321429D01*
X99021429Y-91607143D01*
X100521429Y-91964286D01*
X99021429Y-92535715D02*
X100521429Y-92535715D01*
X99450000Y-93035715D01*
X100521429Y-93535715D01*
X99021429Y-93535715D01*
X98450000Y-95821429D02*
X98521429Y-95750001D01*
X98735714Y-95607144D01*
X98878571Y-95535715D01*
X99092857Y-95464286D01*
X99450000Y-95392858D01*
X99735714Y-95392858D01*
X100092857Y-95464286D01*
X100307143Y-95535715D01*
X100450000Y-95607144D01*
X100664286Y-95750001D01*
X100735714Y-95821429D01*
X99092857Y-96321429D02*
X99021429Y-96535715D01*
X99021429Y-96892858D01*
X99092857Y-97035715D01*
X99164286Y-97107144D01*
X99307143Y-97178572D01*
X99450000Y-97178572D01*
X99592857Y-97107144D01*
X99664286Y-97035715D01*
X99735714Y-96892858D01*
X99807143Y-96607144D01*
X99878571Y-96464286D01*
X99950000Y-96392858D01*
X100092857Y-96321429D01*
X100235714Y-96321429D01*
X100378571Y-96392858D01*
X100450000Y-96464286D01*
X100521429Y-96607144D01*
X100521429Y-96964286D01*
X100450000Y-97178572D01*
X100521429Y-97607143D02*
X100521429Y-98464286D01*
X99021429Y-98035715D02*
X100521429Y-98035715D01*
X99021429Y-98964286D02*
X100521429Y-98964286D01*
X99450000Y-99464286D01*
X100521429Y-99964286D01*
X99021429Y-99964286D01*
X98450000Y-100535715D02*
X98521429Y-100607143D01*
X98735714Y-100750000D01*
X98878571Y-100821429D01*
X99092857Y-100892858D01*
X99450000Y-100964286D01*
X99735714Y-100964286D01*
X100092857Y-100892858D01*
X100307143Y-100821429D01*
X100450000Y-100750000D01*
X100664286Y-100607143D01*
X100735714Y-100535715D01*
X154542858Y-117578571D02*
X154900001Y-118578571D01*
X155257143Y-117578571D02*
X154900001Y-118578571D01*
X154757143Y-118935714D01*
X154685715Y-119007143D01*
X154542858Y-119078571D01*
X164307143Y-128378571D02*
X165092857Y-127378571D01*
X164307143Y-127378571D02*
X165092857Y-128378571D01*
X199500000Y-129285714D02*
X199500000Y-128571428D01*
X199928571Y-129428571D02*
X198428571Y-128928571D01*
X199928571Y-128428571D01*
X199928571Y-127928571D02*
X198428571Y-127928571D01*
X198428571Y-127357143D01*
X198500000Y-127214285D01*
X198571429Y-127142857D01*
X198714286Y-127071428D01*
X198928571Y-127071428D01*
X199071429Y-127142857D01*
X199142857Y-127214285D01*
X199214286Y-127357143D01*
X199214286Y-127928571D01*
X199928571Y-125285714D02*
X198428571Y-125285714D01*
X198428571Y-124714286D01*
X198500000Y-124571428D01*
X198571429Y-124500000D01*
X198714286Y-124428571D01*
X198928571Y-124428571D01*
X199071429Y-124500000D01*
X199142857Y-124571428D01*
X199214286Y-124714286D01*
X199214286Y-125285714D01*
X198428571Y-123928571D02*
X199928571Y-123571428D01*
X198857143Y-123285714D01*
X199928571Y-123000000D01*
X198428571Y-122642857D01*
X199928571Y-121214285D02*
X199214286Y-121714285D01*
X199928571Y-122071428D02*
X198428571Y-122071428D01*
X198428571Y-121500000D01*
X198500000Y-121357142D01*
X198571429Y-121285714D01*
X198714286Y-121214285D01*
X198928571Y-121214285D01*
X199071429Y-121285714D01*
X199142857Y-121357142D01*
X199214286Y-121500000D01*
X199214286Y-122071428D01*
X77285714Y-57678571D02*
X77571428Y-57678571D01*
X77714286Y-57750000D01*
X77857143Y-57892857D01*
X77928571Y-58178571D01*
X77928571Y-58678571D01*
X77857143Y-58964286D01*
X77714286Y-59107143D01*
X77571428Y-59178571D01*
X77285714Y-59178571D01*
X77142857Y-59107143D01*
X77000000Y-58964286D01*
X76928571Y-58678571D01*
X76928571Y-58178571D01*
X77000000Y-57892857D01*
X77142857Y-57750000D01*
X77285714Y-57678571D01*
X78571429Y-59178571D02*
X78571429Y-57678571D01*
X78928572Y-57678571D01*
X79142857Y-57750000D01*
X79285715Y-57892857D01*
X79357143Y-58035714D01*
X79428572Y-58321429D01*
X79428572Y-58535714D01*
X79357143Y-58821429D01*
X79285715Y-58964286D01*
X79142857Y-59107143D01*
X78928572Y-59178571D01*
X78571429Y-59178571D01*
X80928572Y-59178571D02*
X80428572Y-58464286D01*
X80071429Y-59178571D02*
X80071429Y-57678571D01*
X80642857Y-57678571D01*
X80785715Y-57750000D01*
X80857143Y-57821429D01*
X80928572Y-57964286D01*
X80928572Y-58178571D01*
X80857143Y-58321429D01*
X80785715Y-58392857D01*
X80642857Y-58464286D01*
X80071429Y-58464286D01*
X81857143Y-57678571D02*
X82142857Y-57678571D01*
X82285715Y-57750000D01*
X82428572Y-57892857D01*
X82500000Y-58178571D01*
X82500000Y-58678571D01*
X82428572Y-58964286D01*
X82285715Y-59107143D01*
X82142857Y-59178571D01*
X81857143Y-59178571D01*
X81714286Y-59107143D01*
X81571429Y-58964286D01*
X81500000Y-58678571D01*
X81500000Y-58178571D01*
X81571429Y-57892857D01*
X81714286Y-57750000D01*
X81857143Y-57678571D01*
X83142858Y-59178571D02*
X83142858Y-57678571D01*
X83857144Y-59178571D02*
X83857144Y-57678571D01*
X84214287Y-57678571D01*
X84428572Y-57750000D01*
X84571430Y-57892857D01*
X84642858Y-58035714D01*
X84714287Y-58321429D01*
X84714287Y-58535714D01*
X84642858Y-58821429D01*
X84571430Y-58964286D01*
X84428572Y-59107143D01*
X84214287Y-59178571D01*
X83857144Y-59178571D01*
X86500001Y-59178571D02*
X86500001Y-57678571D01*
X87071429Y-57678571D01*
X87214287Y-57750000D01*
X87285715Y-57821429D01*
X87357144Y-57964286D01*
X87357144Y-58178571D01*
X87285715Y-58321429D01*
X87214287Y-58392857D01*
X87071429Y-58464286D01*
X86500001Y-58464286D01*
X87857144Y-57678571D02*
X88214287Y-59178571D01*
X88500001Y-58107143D01*
X88785715Y-59178571D01*
X89142858Y-57678571D01*
X90571430Y-59178571D02*
X90071430Y-58464286D01*
X89714287Y-59178571D02*
X89714287Y-57678571D01*
X90285715Y-57678571D01*
X90428573Y-57750000D01*
X90500001Y-57821429D01*
X90571430Y-57964286D01*
X90571430Y-58178571D01*
X90500001Y-58321429D01*
X90428573Y-58392857D01*
X90285715Y-58464286D01*
X89714287Y-58464286D01*
D12*
X164757738Y-119857737D02*
G75*
G03X164757738Y-119857737I-1457738J0D01*
G01*
X157400000Y-118600000D02*
X155650000Y-119850000D01*
X157450000Y-121150000D02*
X155700000Y-119900000D01*
X155800000Y-119900000D02*
X163300000Y-119900000D01*
X162050000Y-125900000D02*
X163300000Y-127400000D01*
X164550000Y-125900000D02*
X163300000Y-127400000D01*
X163300000Y-127400000D02*
X163300000Y-119900000D01*
D11*
X153178571Y-42071429D02*
X152892857Y-42071429D01*
X152749999Y-42000000D01*
X152607142Y-41857143D01*
X152535714Y-41571429D01*
X152535714Y-41071429D01*
X152607142Y-40785714D01*
X152749999Y-40642857D01*
X152892857Y-40571429D01*
X153178571Y-40571429D01*
X153321428Y-40642857D01*
X153464285Y-40785714D01*
X153535714Y-41071429D01*
X153535714Y-41571429D01*
X153464285Y-41857143D01*
X153321428Y-42000000D01*
X153178571Y-42071429D01*
X151392856Y-41357143D02*
X151892856Y-41357143D01*
X151892856Y-40571429D02*
X151892856Y-42071429D01*
X151178570Y-42071429D01*
X150107142Y-41357143D02*
X150607142Y-41357143D01*
X150607142Y-40571429D02*
X150607142Y-42071429D01*
X149892856Y-42071429D01*
X152678572Y-57571429D02*
X152392858Y-57571429D01*
X152250000Y-57500000D01*
X152107143Y-57357143D01*
X152035715Y-57071429D01*
X152035715Y-56571429D01*
X152107143Y-56285714D01*
X152250000Y-56142857D01*
X152392858Y-56071429D01*
X152678572Y-56071429D01*
X152821429Y-56142857D01*
X152964286Y-56285714D01*
X153035715Y-56571429D01*
X153035715Y-57071429D01*
X152964286Y-57357143D01*
X152821429Y-57500000D01*
X152678572Y-57571429D01*
X151392857Y-56071429D02*
X151392857Y-57571429D01*
X150535714Y-56071429D01*
X150535714Y-57571429D01*
X97657143Y-151578571D02*
X97657143Y-150078571D01*
X98157143Y-151150000D01*
X98657143Y-150078571D01*
X98657143Y-151578571D01*
X100014286Y-150578571D02*
X100014286Y-151578571D01*
X99657143Y-150007143D02*
X99300000Y-151078571D01*
X100228572Y-151078571D01*
X101942857Y-151578571D02*
X101942857Y-150078571D01*
X102514285Y-150078571D01*
X102657143Y-150150000D01*
X102728571Y-150221429D01*
X102800000Y-150364286D01*
X102800000Y-150578571D01*
X102728571Y-150721429D01*
X102657143Y-150792857D01*
X102514285Y-150864286D01*
X101942857Y-150864286D01*
X103300000Y-150078571D02*
X103657143Y-151578571D01*
X103942857Y-150507143D01*
X104228571Y-151578571D01*
X104585714Y-150078571D01*
X106014286Y-151578571D02*
X105514286Y-150864286D01*
X105157143Y-151578571D02*
X105157143Y-150078571D01*
X105728571Y-150078571D01*
X105871429Y-150150000D01*
X105942857Y-150221429D01*
X106014286Y-150364286D01*
X106014286Y-150578571D01*
X105942857Y-150721429D01*
X105871429Y-150792857D01*
X105728571Y-150864286D01*
X105157143Y-150864286D01*
X204157143Y-151978571D02*
X204157143Y-150478571D01*
X204657143Y-151550000D01*
X205157143Y-150478571D01*
X205157143Y-151978571D01*
X205728572Y-150478571D02*
X206657143Y-150478571D01*
X206157143Y-151050000D01*
X206371429Y-151050000D01*
X206514286Y-151121429D01*
X206585715Y-151192857D01*
X206657143Y-151335714D01*
X206657143Y-151692857D01*
X206585715Y-151835714D01*
X206514286Y-151907143D01*
X206371429Y-151978571D01*
X205942857Y-151978571D01*
X205800000Y-151907143D01*
X205728572Y-151835714D01*
X208442857Y-151978571D02*
X208442857Y-150478571D01*
X209014285Y-150478571D01*
X209157143Y-150550000D01*
X209228571Y-150621429D01*
X209300000Y-150764286D01*
X209300000Y-150978571D01*
X209228571Y-151121429D01*
X209157143Y-151192857D01*
X209014285Y-151264286D01*
X208442857Y-151264286D01*
X209800000Y-150478571D02*
X210157143Y-151978571D01*
X210442857Y-150907143D01*
X210728571Y-151978571D01*
X211085714Y-150478571D01*
X212514286Y-151978571D02*
X212014286Y-151264286D01*
X211657143Y-151978571D02*
X211657143Y-150478571D01*
X212228571Y-150478571D01*
X212371429Y-150550000D01*
X212442857Y-150621429D01*
X212514286Y-150764286D01*
X212514286Y-150978571D01*
X212442857Y-151121429D01*
X212371429Y-151192857D01*
X212228571Y-151264286D01*
X211657143Y-151264286D01*
X204457143Y-86578571D02*
X204457143Y-85078571D01*
X204957143Y-86150000D01*
X205457143Y-85078571D01*
X205457143Y-86578571D01*
X206100000Y-85221429D02*
X206171429Y-85150000D01*
X206314286Y-85078571D01*
X206671429Y-85078571D01*
X206814286Y-85150000D01*
X206885715Y-85221429D01*
X206957143Y-85364286D01*
X206957143Y-85507143D01*
X206885715Y-85721429D01*
X206028572Y-86578571D01*
X206957143Y-86578571D01*
X208742857Y-86578571D02*
X208742857Y-85078571D01*
X209314285Y-85078571D01*
X209457143Y-85150000D01*
X209528571Y-85221429D01*
X209600000Y-85364286D01*
X209600000Y-85578571D01*
X209528571Y-85721429D01*
X209457143Y-85792857D01*
X209314285Y-85864286D01*
X208742857Y-85864286D01*
X210100000Y-85078571D02*
X210457143Y-86578571D01*
X210742857Y-85507143D01*
X211028571Y-86578571D01*
X211385714Y-85078571D01*
X212814286Y-86578571D02*
X212314286Y-85864286D01*
X211957143Y-86578571D02*
X211957143Y-85078571D01*
X212528571Y-85078571D01*
X212671429Y-85150000D01*
X212742857Y-85221429D01*
X212814286Y-85364286D01*
X212814286Y-85578571D01*
X212742857Y-85721429D01*
X212671429Y-85792857D01*
X212528571Y-85864286D01*
X211957143Y-85864286D01*
X98357143Y-68778571D02*
X98357143Y-67278571D01*
X98857143Y-68350000D01*
X99357143Y-67278571D01*
X99357143Y-68778571D01*
X100857143Y-68778571D02*
X100000000Y-68778571D01*
X100428572Y-68778571D02*
X100428572Y-67278571D01*
X100285715Y-67492857D01*
X100142857Y-67635714D01*
X100000000Y-67707143D01*
X102642857Y-68778571D02*
X102642857Y-67278571D01*
X103214285Y-67278571D01*
X103357143Y-67350000D01*
X103428571Y-67421429D01*
X103500000Y-67564286D01*
X103500000Y-67778571D01*
X103428571Y-67921429D01*
X103357143Y-67992857D01*
X103214285Y-68064286D01*
X102642857Y-68064286D01*
X104000000Y-67278571D02*
X104357143Y-68778571D01*
X104642857Y-67707143D01*
X104928571Y-68778571D01*
X105285714Y-67278571D01*
X106714286Y-68778571D02*
X106214286Y-68064286D01*
X105857143Y-68778571D02*
X105857143Y-67278571D01*
X106428571Y-67278571D01*
X106571429Y-67350000D01*
X106642857Y-67421429D01*
X106714286Y-67564286D01*
X106714286Y-67778571D01*
X106642857Y-67921429D01*
X106571429Y-67992857D01*
X106428571Y-68064286D01*
X105857143Y-68064286D01*
X193042857Y-54678571D02*
X193042857Y-53178571D01*
X193542857Y-54250000D01*
X194042857Y-53178571D01*
X194042857Y-54678571D01*
X195400000Y-54678571D02*
X195400000Y-53892857D01*
X195328571Y-53750000D01*
X195185714Y-53678571D01*
X194900000Y-53678571D01*
X194757143Y-53750000D01*
X195400000Y-54607143D02*
X195257143Y-54678571D01*
X194900000Y-54678571D01*
X194757143Y-54607143D01*
X194685714Y-54464286D01*
X194685714Y-54321429D01*
X194757143Y-54178571D01*
X194900000Y-54107143D01*
X195257143Y-54107143D01*
X195400000Y-54035714D01*
X196114286Y-54678571D02*
X196114286Y-53678571D01*
X196114286Y-53178571D02*
X196042857Y-53250000D01*
X196114286Y-53321429D01*
X196185714Y-53250000D01*
X196114286Y-53178571D01*
X196114286Y-53321429D01*
X196828572Y-53678571D02*
X196828572Y-54678571D01*
X196828572Y-53821429D02*
X196900000Y-53750000D01*
X197042858Y-53678571D01*
X197257143Y-53678571D01*
X197400000Y-53750000D01*
X197471429Y-53892857D01*
X197471429Y-54678571D01*
X199328572Y-54678571D02*
X199328572Y-53178571D01*
X199900000Y-53178571D01*
X200042858Y-53250000D01*
X200114286Y-53321429D01*
X200185715Y-53464286D01*
X200185715Y-53678571D01*
X200114286Y-53821429D01*
X200042858Y-53892857D01*
X199900000Y-53964286D01*
X199328572Y-53964286D01*
X200685715Y-53178571D02*
X201042858Y-54678571D01*
X201328572Y-53607143D01*
X201614286Y-54678571D01*
X201971429Y-53178571D01*
X203400001Y-54678571D02*
X202900001Y-53964286D01*
X202542858Y-54678571D02*
X202542858Y-53178571D01*
X203114286Y-53178571D01*
X203257144Y-53250000D01*
X203328572Y-53321429D01*
X203400001Y-53464286D01*
X203400001Y-53678571D01*
X203328572Y-53821429D01*
X203257144Y-53892857D01*
X203114286Y-53964286D01*
X202542858Y-53964286D01*
X205185715Y-54678571D02*
X205185715Y-53178571D01*
X205900001Y-54678571D02*
X205900001Y-53178571D01*
X206757144Y-54678571D01*
X206757144Y-53178571D01*
X133800001Y-132796429D02*
X133657144Y-132725000D01*
X133514287Y-132582143D01*
X133300001Y-132367857D01*
X133157144Y-132296429D01*
X133014287Y-132296429D01*
X133085715Y-132653571D02*
X132942858Y-132582143D01*
X132800001Y-132439286D01*
X132728572Y-132153571D01*
X132728572Y-131653571D01*
X132800001Y-131367857D01*
X132942858Y-131225000D01*
X133085715Y-131153571D01*
X133371429Y-131153571D01*
X133514287Y-131225000D01*
X133657144Y-131367857D01*
X133728572Y-131653571D01*
X133728572Y-132153571D01*
X133657144Y-132439286D01*
X133514287Y-132582143D01*
X133371429Y-132653571D01*
X133085715Y-132653571D01*
X135014287Y-131653571D02*
X135014287Y-132653571D01*
X134371430Y-131653571D02*
X134371430Y-132439286D01*
X134442858Y-132582143D01*
X134585716Y-132653571D01*
X134800001Y-132653571D01*
X134942858Y-132582143D01*
X135014287Y-132510714D01*
X136371430Y-132653571D02*
X136371430Y-131867857D01*
X136300001Y-131725000D01*
X136157144Y-131653571D01*
X135871430Y-131653571D01*
X135728573Y-131725000D01*
X136371430Y-132582143D02*
X136228573Y-132653571D01*
X135871430Y-132653571D01*
X135728573Y-132582143D01*
X135657144Y-132439286D01*
X135657144Y-132296429D01*
X135728573Y-132153571D01*
X135871430Y-132082143D01*
X136228573Y-132082143D01*
X136371430Y-132010714D01*
X137728573Y-132653571D02*
X137728573Y-131153571D01*
X137728573Y-132582143D02*
X137585716Y-132653571D01*
X137300002Y-132653571D01*
X137157144Y-132582143D01*
X137085716Y-132510714D01*
X137014287Y-132367857D01*
X137014287Y-131939286D01*
X137085716Y-131796429D01*
X137157144Y-131725000D01*
X137300002Y-131653571D01*
X137585716Y-131653571D01*
X137728573Y-131725000D01*
X139085716Y-132582143D02*
X138942859Y-132653571D01*
X138657145Y-132653571D01*
X138514287Y-132582143D01*
X138442859Y-132510714D01*
X138371430Y-132367857D01*
X138371430Y-131939286D01*
X138442859Y-131796429D01*
X138514287Y-131725000D01*
X138657145Y-131653571D01*
X138942859Y-131653571D01*
X139085716Y-131725000D01*
X139942859Y-132653571D02*
X139800001Y-132582143D01*
X139728573Y-132510714D01*
X139657144Y-132367857D01*
X139657144Y-131939286D01*
X139728573Y-131796429D01*
X139800001Y-131725000D01*
X139942859Y-131653571D01*
X140157144Y-131653571D01*
X140300001Y-131725000D01*
X140371430Y-131796429D01*
X140442859Y-131939286D01*
X140442859Y-132367857D01*
X140371430Y-132510714D01*
X140300001Y-132582143D01*
X140157144Y-132653571D01*
X139942859Y-132653571D01*
X141085716Y-131653571D02*
X141085716Y-133153571D01*
X141085716Y-131725000D02*
X141228573Y-131653571D01*
X141514287Y-131653571D01*
X141657144Y-131725000D01*
X141728573Y-131796429D01*
X141800002Y-131939286D01*
X141800002Y-132367857D01*
X141728573Y-132510714D01*
X141657144Y-132582143D01*
X141514287Y-132653571D01*
X141228573Y-132653571D01*
X141085716Y-132582143D01*
X142228573Y-131653571D02*
X142800002Y-131653571D01*
X142442859Y-131153571D02*
X142442859Y-132439286D01*
X142514287Y-132582143D01*
X142657145Y-132653571D01*
X142800002Y-132653571D01*
X143871430Y-132582143D02*
X143728573Y-132653571D01*
X143442859Y-132653571D01*
X143300002Y-132582143D01*
X143228573Y-132439286D01*
X143228573Y-131867857D01*
X143300002Y-131725000D01*
X143442859Y-131653571D01*
X143728573Y-131653571D01*
X143871430Y-131725000D01*
X143942859Y-131867857D01*
X143942859Y-132010714D01*
X143228573Y-132153571D01*
X144585716Y-132653571D02*
X144585716Y-131653571D01*
X144585716Y-131939286D02*
X144657144Y-131796429D01*
X144728573Y-131725000D01*
X144871430Y-131653571D01*
X145014287Y-131653571D01*
X146657144Y-132653571D02*
X146657144Y-131153571D01*
X147228572Y-131153571D01*
X147371430Y-131225000D01*
X147442858Y-131296429D01*
X147514287Y-131439286D01*
X147514287Y-131653571D01*
X147442858Y-131796429D01*
X147371430Y-131867857D01*
X147228572Y-131939286D01*
X146657144Y-131939286D01*
X148157144Y-132653571D02*
X148157144Y-131153571D01*
X148514287Y-131153571D01*
X148728572Y-131225000D01*
X148871430Y-131367857D01*
X148942858Y-131510714D01*
X149014287Y-131796429D01*
X149014287Y-132010714D01*
X148942858Y-132296429D01*
X148871430Y-132439286D01*
X148728572Y-132582143D01*
X148514287Y-132653571D01*
X148157144Y-132653571D01*
X150157144Y-131867857D02*
X150371430Y-131939286D01*
X150442858Y-132010714D01*
X150514287Y-132153571D01*
X150514287Y-132367857D01*
X150442858Y-132510714D01*
X150371430Y-132582143D01*
X150228572Y-132653571D01*
X149657144Y-132653571D01*
X149657144Y-131153571D01*
X150157144Y-131153571D01*
X150300001Y-131225000D01*
X150371430Y-131296429D01*
X150442858Y-131439286D01*
X150442858Y-131582143D01*
X150371430Y-131725000D01*
X150300001Y-131796429D01*
X150157144Y-131867857D01*
X149657144Y-131867857D01*
X153157144Y-132653571D02*
X152657144Y-131939286D01*
X152300001Y-132653571D02*
X152300001Y-131153571D01*
X152871429Y-131153571D01*
X153014287Y-131225000D01*
X153085715Y-131296429D01*
X153157144Y-131439286D01*
X153157144Y-131653571D01*
X153085715Y-131796429D01*
X153014287Y-131867857D01*
X152871429Y-131939286D01*
X152300001Y-131939286D01*
X154371429Y-132582143D02*
X154228572Y-132653571D01*
X153942858Y-132653571D01*
X153800001Y-132582143D01*
X153728572Y-132439286D01*
X153728572Y-131867857D01*
X153800001Y-131725000D01*
X153942858Y-131653571D01*
X154228572Y-131653571D01*
X154371429Y-131725000D01*
X154442858Y-131867857D01*
X154442858Y-132010714D01*
X153728572Y-132153571D01*
X154942858Y-131653571D02*
X155300001Y-132653571D01*
X155657143Y-131653571D01*
X158157143Y-132653571D02*
X157300000Y-132653571D01*
X157728572Y-132653571D02*
X157728572Y-131153571D01*
X157585715Y-131367857D01*
X157442857Y-131510714D01*
X157300000Y-131582143D01*
X158800000Y-132510714D02*
X158871428Y-132582143D01*
X158800000Y-132653571D01*
X158728571Y-132582143D01*
X158800000Y-132510714D01*
X158800000Y-132653571D01*
X159371429Y-131153571D02*
X160300000Y-131153571D01*
X159800000Y-131725000D01*
X160014286Y-131725000D01*
X160157143Y-131796429D01*
X160228572Y-131867857D01*
X160300000Y-132010714D01*
X160300000Y-132367857D01*
X160228572Y-132510714D01*
X160157143Y-132582143D01*
X160014286Y-132653571D01*
X159585714Y-132653571D01*
X159442857Y-132582143D01*
X159371429Y-132510714D01*
X162514285Y-133225000D02*
X162442857Y-133153571D01*
X162300000Y-132939286D01*
X162228571Y-132796429D01*
X162157142Y-132582143D01*
X162085714Y-132225000D01*
X162085714Y-131939286D01*
X162157142Y-131582143D01*
X162228571Y-131367857D01*
X162300000Y-131225000D01*
X162442857Y-131010714D01*
X162514285Y-130939286D01*
X163585714Y-131867857D02*
X163085714Y-131867857D01*
X163085714Y-132653571D02*
X163085714Y-131153571D01*
X163800000Y-131153571D01*
X164585714Y-132653571D02*
X164442856Y-132582143D01*
X164371428Y-132439286D01*
X164371428Y-131153571D01*
X165157142Y-132653571D02*
X165157142Y-131653571D01*
X165157142Y-131153571D02*
X165085713Y-131225000D01*
X165157142Y-131296429D01*
X165228570Y-131225000D01*
X165157142Y-131153571D01*
X165157142Y-131296429D01*
X166514285Y-131653571D02*
X166514285Y-132867857D01*
X166442856Y-133010714D01*
X166371428Y-133082143D01*
X166228571Y-133153571D01*
X166014285Y-133153571D01*
X165871428Y-133082143D01*
X166514285Y-132582143D02*
X166371428Y-132653571D01*
X166085714Y-132653571D01*
X165942856Y-132582143D01*
X165871428Y-132510714D01*
X165799999Y-132367857D01*
X165799999Y-131939286D01*
X165871428Y-131796429D01*
X165942856Y-131725000D01*
X166085714Y-131653571D01*
X166371428Y-131653571D01*
X166514285Y-131725000D01*
X167228571Y-132653571D02*
X167228571Y-131153571D01*
X167871428Y-132653571D02*
X167871428Y-131867857D01*
X167799999Y-131725000D01*
X167657142Y-131653571D01*
X167442857Y-131653571D01*
X167299999Y-131725000D01*
X167228571Y-131796429D01*
X168371428Y-131653571D02*
X168942857Y-131653571D01*
X168585714Y-131153571D02*
X168585714Y-132439286D01*
X168657142Y-132582143D01*
X168800000Y-132653571D01*
X168942857Y-132653571D01*
X171442857Y-132653571D02*
X170942857Y-131939286D01*
X170585714Y-132653571D02*
X170585714Y-131153571D01*
X171157142Y-131153571D01*
X171300000Y-131225000D01*
X171371428Y-131296429D01*
X171442857Y-131439286D01*
X171442857Y-131653571D01*
X171371428Y-131796429D01*
X171300000Y-131867857D01*
X171157142Y-131939286D01*
X170585714Y-131939286D01*
X172657142Y-132582143D02*
X172514285Y-132653571D01*
X172228571Y-132653571D01*
X172085714Y-132582143D01*
X172014285Y-132439286D01*
X172014285Y-131867857D01*
X172085714Y-131725000D01*
X172228571Y-131653571D01*
X172514285Y-131653571D01*
X172657142Y-131725000D01*
X172728571Y-131867857D01*
X172728571Y-132010714D01*
X172014285Y-132153571D01*
X173228571Y-131653571D02*
X173585714Y-132653571D01*
X173942856Y-131653571D01*
X174371428Y-133225000D02*
X174442856Y-133153571D01*
X174585713Y-132939286D01*
X174657142Y-132796429D01*
X174728571Y-132582143D01*
X174799999Y-132225000D01*
X174799999Y-131939286D01*
X174728571Y-131582143D01*
X174657142Y-131367857D01*
X174585713Y-131225000D01*
X174442856Y-131010714D01*
X174371428Y-130939286D01*
X135228573Y-135775000D02*
X135157145Y-135703571D01*
X135014288Y-135489286D01*
X134942859Y-135346429D01*
X134871430Y-135132143D01*
X134800002Y-134775000D01*
X134800002Y-134489286D01*
X134871430Y-134132143D01*
X134942859Y-133917857D01*
X135014288Y-133775000D01*
X135157145Y-133560714D01*
X135228573Y-133489286D01*
X136442859Y-135132143D02*
X136300002Y-135203571D01*
X136014288Y-135203571D01*
X135871430Y-135132143D01*
X135800002Y-135060714D01*
X135728573Y-134917857D01*
X135728573Y-134489286D01*
X135800002Y-134346429D01*
X135871430Y-134275000D01*
X136014288Y-134203571D01*
X136300002Y-134203571D01*
X136442859Y-134275000D01*
X136942859Y-135775000D02*
X137014287Y-135703571D01*
X137157144Y-135489286D01*
X137228573Y-135346429D01*
X137300002Y-135132143D01*
X137371430Y-134775000D01*
X137371430Y-134489286D01*
X137300002Y-134132143D01*
X137228573Y-133917857D01*
X137157144Y-133775000D01*
X137014287Y-133560714D01*
X136942859Y-133489286D01*
X139157144Y-133846429D02*
X139228573Y-133775000D01*
X139371430Y-133703571D01*
X139728573Y-133703571D01*
X139871430Y-133775000D01*
X139942859Y-133846429D01*
X140014287Y-133989286D01*
X140014287Y-134132143D01*
X139942859Y-134346429D01*
X139085716Y-135203571D01*
X140014287Y-135203571D01*
X140942858Y-133703571D02*
X141085715Y-133703571D01*
X141228572Y-133775000D01*
X141300001Y-133846429D01*
X141371430Y-133989286D01*
X141442858Y-134275000D01*
X141442858Y-134632143D01*
X141371430Y-134917857D01*
X141300001Y-135060714D01*
X141228572Y-135132143D01*
X141085715Y-135203571D01*
X140942858Y-135203571D01*
X140800001Y-135132143D01*
X140728572Y-135060714D01*
X140657144Y-134917857D01*
X140585715Y-134632143D01*
X140585715Y-134275000D01*
X140657144Y-133989286D01*
X140728572Y-133846429D01*
X140800001Y-133775000D01*
X140942858Y-133703571D01*
X142871429Y-135203571D02*
X142014286Y-135203571D01*
X142442858Y-135203571D02*
X142442858Y-133703571D01*
X142300001Y-133917857D01*
X142157143Y-134060714D01*
X142014286Y-134132143D01*
X144157143Y-133703571D02*
X143871429Y-133703571D01*
X143728572Y-133775000D01*
X143657143Y-133846429D01*
X143514286Y-134060714D01*
X143442857Y-134346429D01*
X143442857Y-134917857D01*
X143514286Y-135060714D01*
X143585714Y-135132143D01*
X143728572Y-135203571D01*
X144014286Y-135203571D01*
X144157143Y-135132143D01*
X144228572Y-135060714D01*
X144300000Y-134917857D01*
X144300000Y-134560714D01*
X144228572Y-134417857D01*
X144157143Y-134346429D01*
X144014286Y-134275000D01*
X143728572Y-134275000D01*
X143585714Y-134346429D01*
X143514286Y-134417857D01*
X143442857Y-134560714D01*
X144942857Y-134632143D02*
X146085714Y-134632143D01*
X146728571Y-133846429D02*
X146800000Y-133775000D01*
X146942857Y-133703571D01*
X147300000Y-133703571D01*
X147442857Y-133775000D01*
X147514286Y-133846429D01*
X147585714Y-133989286D01*
X147585714Y-134132143D01*
X147514286Y-134346429D01*
X146657143Y-135203571D01*
X147585714Y-135203571D01*
X148514285Y-133703571D02*
X148657142Y-133703571D01*
X148799999Y-133775000D01*
X148871428Y-133846429D01*
X148942857Y-133989286D01*
X149014285Y-134275000D01*
X149014285Y-134632143D01*
X148942857Y-134917857D01*
X148871428Y-135060714D01*
X148799999Y-135132143D01*
X148657142Y-135203571D01*
X148514285Y-135203571D01*
X148371428Y-135132143D01*
X148299999Y-135060714D01*
X148228571Y-134917857D01*
X148157142Y-134632143D01*
X148157142Y-134275000D01*
X148228571Y-133989286D01*
X148299999Y-133846429D01*
X148371428Y-133775000D01*
X148514285Y-133703571D01*
X150442856Y-135203571D02*
X149585713Y-135203571D01*
X150014285Y-135203571D02*
X150014285Y-133703571D01*
X149871428Y-133917857D01*
X149728570Y-134060714D01*
X149585713Y-134132143D01*
X150942856Y-133703571D02*
X151942856Y-133703571D01*
X151299999Y-135203571D01*
X153585712Y-134775000D02*
X154299998Y-134775000D01*
X153442855Y-135203571D02*
X153942855Y-133703571D01*
X154442855Y-135203571D01*
X154942855Y-135203571D02*
X154942855Y-133703571D01*
X154942855Y-134275000D02*
X155085712Y-134203571D01*
X155371426Y-134203571D01*
X155514283Y-134275000D01*
X155585712Y-134346429D01*
X155657141Y-134489286D01*
X155657141Y-134917857D01*
X155585712Y-135060714D01*
X155514283Y-135132143D01*
X155371426Y-135203571D01*
X155085712Y-135203571D01*
X154942855Y-135132143D01*
X156299998Y-135203571D02*
X156299998Y-133703571D01*
X156942855Y-135203571D02*
X156942855Y-134417857D01*
X156871426Y-134275000D01*
X156728569Y-134203571D01*
X156514284Y-134203571D01*
X156371426Y-134275000D01*
X156299998Y-134346429D01*
X157657141Y-135203571D02*
X157657141Y-134203571D01*
X157657141Y-133703571D02*
X157585712Y-133775000D01*
X157657141Y-133846429D01*
X157728569Y-133775000D01*
X157657141Y-133703571D01*
X157657141Y-133846429D01*
X158371427Y-135203571D02*
X158371427Y-134203571D01*
X158371427Y-134346429D02*
X158442855Y-134275000D01*
X158585713Y-134203571D01*
X158799998Y-134203571D01*
X158942855Y-134275000D01*
X159014284Y-134417857D01*
X159014284Y-135203571D01*
X159014284Y-134417857D02*
X159085713Y-134275000D01*
X159228570Y-134203571D01*
X159442855Y-134203571D01*
X159585713Y-134275000D01*
X159657141Y-134417857D01*
X159657141Y-135203571D01*
X161014284Y-135203571D02*
X161014284Y-134417857D01*
X160942855Y-134275000D01*
X160799998Y-134203571D01*
X160514284Y-134203571D01*
X160371427Y-134275000D01*
X161014284Y-135132143D02*
X160871427Y-135203571D01*
X160514284Y-135203571D01*
X160371427Y-135132143D01*
X160299998Y-134989286D01*
X160299998Y-134846429D01*
X160371427Y-134703571D01*
X160514284Y-134632143D01*
X160871427Y-134632143D01*
X161014284Y-134560714D01*
X161728570Y-134203571D02*
X161728570Y-135203571D01*
X161728570Y-134346429D02*
X161799998Y-134275000D01*
X161942856Y-134203571D01*
X162157141Y-134203571D01*
X162299998Y-134275000D01*
X162371427Y-134417857D01*
X162371427Y-135203571D01*
X162942856Y-134203571D02*
X163299999Y-135203571D01*
X163657141Y-134203571D02*
X163299999Y-135203571D01*
X163157141Y-135560714D01*
X163085713Y-135632143D01*
X162942856Y-135703571D01*
X164871427Y-134203571D02*
X164871427Y-135203571D01*
X164228570Y-134203571D02*
X164228570Y-134989286D01*
X164299998Y-135132143D01*
X164442856Y-135203571D01*
X164657141Y-135203571D01*
X164799998Y-135132143D01*
X164871427Y-135060714D01*
X167514284Y-133775000D02*
X167371427Y-133703571D01*
X167157141Y-133703571D01*
X166942856Y-133775000D01*
X166799998Y-133917857D01*
X166728570Y-134060714D01*
X166657141Y-134346429D01*
X166657141Y-134560714D01*
X166728570Y-134846429D01*
X166799998Y-134989286D01*
X166942856Y-135132143D01*
X167157141Y-135203571D01*
X167299998Y-135203571D01*
X167514284Y-135132143D01*
X167585713Y-135060714D01*
X167585713Y-134560714D01*
X167299998Y-134560714D01*
X168228570Y-135203571D02*
X168228570Y-133703571D01*
X168871427Y-135203571D02*
X168871427Y-134417857D01*
X168799998Y-134275000D01*
X168657141Y-134203571D01*
X168442856Y-134203571D01*
X168299998Y-134275000D01*
X168228570Y-134346429D01*
X169799999Y-135203571D02*
X169657141Y-135132143D01*
X169585713Y-135060714D01*
X169514284Y-134917857D01*
X169514284Y-134489286D01*
X169585713Y-134346429D01*
X169657141Y-134275000D01*
X169799999Y-134203571D01*
X170014284Y-134203571D01*
X170157141Y-134275000D01*
X170228570Y-134346429D01*
X170299999Y-134489286D01*
X170299999Y-134917857D01*
X170228570Y-135060714D01*
X170157141Y-135132143D01*
X170014284Y-135203571D01*
X169799999Y-135203571D01*
X170871427Y-135132143D02*
X171014284Y-135203571D01*
X171299999Y-135203571D01*
X171442856Y-135132143D01*
X171514284Y-134989286D01*
X171514284Y-134917857D01*
X171442856Y-134775000D01*
X171299999Y-134703571D01*
X171085713Y-134703571D01*
X170942856Y-134632143D01*
X170871427Y-134489286D01*
X170871427Y-134417857D01*
X170942856Y-134275000D01*
X171085713Y-134203571D01*
X171299999Y-134203571D01*
X171442856Y-134275000D01*
X172157142Y-135203571D02*
X172157142Y-133703571D01*
X172799999Y-135203571D02*
X172799999Y-134417857D01*
X172728570Y-134275000D01*
X172585713Y-134203571D01*
X172371428Y-134203571D01*
X172228570Y-134275000D01*
X172157142Y-134346429D01*
X148442858Y-137753571D02*
X147942858Y-137039286D01*
X147585715Y-137753571D02*
X147585715Y-136253571D01*
X148157143Y-136253571D01*
X148300001Y-136325000D01*
X148371429Y-136396429D01*
X148442858Y-136539286D01*
X148442858Y-136753571D01*
X148371429Y-136896429D01*
X148300001Y-136967857D01*
X148157143Y-137039286D01*
X147585715Y-137039286D01*
X149728572Y-137753571D02*
X149728572Y-136967857D01*
X149657143Y-136825000D01*
X149514286Y-136753571D01*
X149228572Y-136753571D01*
X149085715Y-136825000D01*
X149728572Y-137682143D02*
X149585715Y-137753571D01*
X149228572Y-137753571D01*
X149085715Y-137682143D01*
X149014286Y-137539286D01*
X149014286Y-137396429D01*
X149085715Y-137253571D01*
X149228572Y-137182143D01*
X149585715Y-137182143D01*
X149728572Y-137110714D01*
X150228572Y-136753571D02*
X150800001Y-136753571D01*
X150442858Y-136253571D02*
X150442858Y-137539286D01*
X150514286Y-137682143D01*
X150657144Y-137753571D01*
X150800001Y-137753571D01*
X151300001Y-137753571D02*
X151300001Y-136753571D01*
X151300001Y-136253571D02*
X151228572Y-136325000D01*
X151300001Y-136396429D01*
X151371429Y-136325000D01*
X151300001Y-136253571D01*
X151300001Y-136396429D01*
X152014287Y-136753571D02*
X152014287Y-137753571D01*
X152014287Y-136896429D02*
X152085715Y-136825000D01*
X152228573Y-136753571D01*
X152442858Y-136753571D01*
X152585715Y-136825000D01*
X152657144Y-136967857D01*
X152657144Y-137753571D01*
X154014287Y-136753571D02*
X154014287Y-137967857D01*
X153942858Y-138110714D01*
X153871430Y-138182143D01*
X153728573Y-138253571D01*
X153514287Y-138253571D01*
X153371430Y-138182143D01*
X154014287Y-137682143D02*
X153871430Y-137753571D01*
X153585716Y-137753571D01*
X153442858Y-137682143D01*
X153371430Y-137610714D01*
X153300001Y-137467857D01*
X153300001Y-137039286D01*
X153371430Y-136896429D01*
X153442858Y-136825000D01*
X153585716Y-136753571D01*
X153871430Y-136753571D01*
X154014287Y-136825000D01*
X154728573Y-137610714D02*
X154800001Y-137682143D01*
X154728573Y-137753571D01*
X154657144Y-137682143D01*
X154728573Y-137610714D01*
X154728573Y-137753571D01*
X154728573Y-136825000D02*
X154800001Y-136896429D01*
X154728573Y-136967857D01*
X154657144Y-136896429D01*
X154728573Y-136825000D01*
X154728573Y-136967857D01*
X157228573Y-136753571D02*
X157228573Y-137753571D01*
X156871430Y-136182143D02*
X156514287Y-137253571D01*
X157442859Y-137253571D01*
X158300001Y-136253571D02*
X158442858Y-136253571D01*
X158585715Y-136325000D01*
X158657144Y-136396429D01*
X158728573Y-136539286D01*
X158800001Y-136825000D01*
X158800001Y-137182143D01*
X158728573Y-137467857D01*
X158657144Y-137610714D01*
X158585715Y-137682143D01*
X158442858Y-137753571D01*
X158300001Y-137753571D01*
X158157144Y-137682143D01*
X158085715Y-137610714D01*
X158014287Y-137467857D01*
X157942858Y-137182143D01*
X157942858Y-136825000D01*
X158014287Y-136539286D01*
X158085715Y-136396429D01*
X158157144Y-136325000D01*
X158300001Y-136253571D01*
X159371429Y-137325000D02*
X160085715Y-137325000D01*
X159228572Y-137753571D02*
X159728572Y-136253571D01*
X160228572Y-137753571D01*
X143657144Y-140303571D02*
X142942858Y-140303571D01*
X142942858Y-138803571D01*
X144157144Y-140303571D02*
X144157144Y-139303571D01*
X144157144Y-138803571D02*
X144085715Y-138875000D01*
X144157144Y-138946429D01*
X144228572Y-138875000D01*
X144157144Y-138803571D01*
X144157144Y-138946429D01*
X145514287Y-140232143D02*
X145371430Y-140303571D01*
X145085716Y-140303571D01*
X144942858Y-140232143D01*
X144871430Y-140160714D01*
X144800001Y-140017857D01*
X144800001Y-139589286D01*
X144871430Y-139446429D01*
X144942858Y-139375000D01*
X145085716Y-139303571D01*
X145371430Y-139303571D01*
X145514287Y-139375000D01*
X146728572Y-140232143D02*
X146585715Y-140303571D01*
X146300001Y-140303571D01*
X146157144Y-140232143D01*
X146085715Y-140089286D01*
X146085715Y-139517857D01*
X146157144Y-139375000D01*
X146300001Y-139303571D01*
X146585715Y-139303571D01*
X146728572Y-139375000D01*
X146800001Y-139517857D01*
X146800001Y-139660714D01*
X146085715Y-139803571D01*
X147442858Y-139303571D02*
X147442858Y-140303571D01*
X147442858Y-139446429D02*
X147514286Y-139375000D01*
X147657144Y-139303571D01*
X147871429Y-139303571D01*
X148014286Y-139375000D01*
X148085715Y-139517857D01*
X148085715Y-140303571D01*
X148728572Y-140232143D02*
X148871429Y-140303571D01*
X149157144Y-140303571D01*
X149300001Y-140232143D01*
X149371429Y-140089286D01*
X149371429Y-140017857D01*
X149300001Y-139875000D01*
X149157144Y-139803571D01*
X148942858Y-139803571D01*
X148800001Y-139732143D01*
X148728572Y-139589286D01*
X148728572Y-139517857D01*
X148800001Y-139375000D01*
X148942858Y-139303571D01*
X149157144Y-139303571D01*
X149300001Y-139375000D01*
X150585715Y-140232143D02*
X150442858Y-140303571D01*
X150157144Y-140303571D01*
X150014287Y-140232143D01*
X149942858Y-140089286D01*
X149942858Y-139517857D01*
X150014287Y-139375000D01*
X150157144Y-139303571D01*
X150442858Y-139303571D01*
X150585715Y-139375000D01*
X150657144Y-139517857D01*
X150657144Y-139660714D01*
X149942858Y-139803571D01*
X151300001Y-140160714D02*
X151371429Y-140232143D01*
X151300001Y-140303571D01*
X151228572Y-140232143D01*
X151300001Y-140160714D01*
X151300001Y-140303571D01*
X151300001Y-139375000D02*
X151371429Y-139446429D01*
X151300001Y-139517857D01*
X151228572Y-139446429D01*
X151300001Y-139375000D01*
X151300001Y-139517857D01*
X154014287Y-140160714D02*
X153942858Y-140232143D01*
X153728572Y-140303571D01*
X153585715Y-140303571D01*
X153371430Y-140232143D01*
X153228572Y-140089286D01*
X153157144Y-139946429D01*
X153085715Y-139660714D01*
X153085715Y-139446429D01*
X153157144Y-139160714D01*
X153228572Y-139017857D01*
X153371430Y-138875000D01*
X153585715Y-138803571D01*
X153728572Y-138803571D01*
X153942858Y-138875000D01*
X154014287Y-138946429D01*
X155514287Y-140160714D02*
X155442858Y-140232143D01*
X155228572Y-140303571D01*
X155085715Y-140303571D01*
X154871430Y-140232143D01*
X154728572Y-140089286D01*
X154657144Y-139946429D01*
X154585715Y-139660714D01*
X154585715Y-139446429D01*
X154657144Y-139160714D01*
X154728572Y-139017857D01*
X154871430Y-138875000D01*
X155085715Y-138803571D01*
X155228572Y-138803571D01*
X155442858Y-138875000D01*
X155514287Y-138946429D01*
X156157144Y-139732143D02*
X157300001Y-139732143D01*
X158514287Y-139517857D02*
X158728573Y-139589286D01*
X158800001Y-139660714D01*
X158871430Y-139803571D01*
X158871430Y-140017857D01*
X158800001Y-140160714D01*
X158728573Y-140232143D01*
X158585715Y-140303571D01*
X158014287Y-140303571D01*
X158014287Y-138803571D01*
X158514287Y-138803571D01*
X158657144Y-138875000D01*
X158728573Y-138946429D01*
X158800001Y-139089286D01*
X158800001Y-139232143D01*
X158728573Y-139375000D01*
X158657144Y-139446429D01*
X158514287Y-139517857D01*
X158014287Y-139517857D01*
X159800001Y-139589286D02*
X159800001Y-140303571D01*
X159300001Y-138803571D02*
X159800001Y-139589286D01*
X160300001Y-138803571D01*
X160800001Y-139732143D02*
X161942858Y-139732143D01*
X162585715Y-140232143D02*
X162800001Y-140303571D01*
X163157144Y-140303571D01*
X163300001Y-140232143D01*
X163371430Y-140160714D01*
X163442858Y-140017857D01*
X163442858Y-139875000D01*
X163371430Y-139732143D01*
X163300001Y-139660714D01*
X163157144Y-139589286D01*
X162871430Y-139517857D01*
X162728572Y-139446429D01*
X162657144Y-139375000D01*
X162585715Y-139232143D01*
X162585715Y-139089286D01*
X162657144Y-138946429D01*
X162728572Y-138875000D01*
X162871430Y-138803571D01*
X163228572Y-138803571D01*
X163442858Y-138875000D01*
X164014286Y-139875000D02*
X164728572Y-139875000D01*
X163871429Y-140303571D02*
X164371429Y-138803571D01*
X164871429Y-140303571D01*
D13*
X143075000Y-40601000D02*
X143075000Y-46899000D01*
X143215000Y-40607000D02*
X143215000Y-46893000D01*
X143355000Y-40620000D02*
X143355000Y-43304000D01*
X143355000Y-44196000D02*
X143355000Y-46880000D01*
X143495000Y-40639000D02*
X143495000Y-43094000D01*
X143495000Y-44406000D02*
X143495000Y-46861000D01*
X143635000Y-40665000D02*
X143635000Y-42961000D01*
X143635000Y-44539000D02*
X143635000Y-46835000D01*
X143775000Y-40697000D02*
X143775000Y-42870000D01*
X143775000Y-44630000D02*
X143775000Y-46803000D01*
X143915000Y-40736000D02*
X143915000Y-42808000D01*
X143915000Y-44692000D02*
X143915000Y-46764000D01*
X144055000Y-40782000D02*
X144055000Y-42769000D01*
X144055000Y-44731000D02*
X144055000Y-46718000D01*
X144195000Y-40835000D02*
X144195000Y-42752000D01*
X144195000Y-44748000D02*
X144195000Y-46665000D01*
X144335000Y-40897000D02*
X144335000Y-42754000D01*
X144335000Y-44746000D02*
X144335000Y-46603000D01*
X144475000Y-40967000D02*
X144475000Y-42776000D01*
X144475000Y-44724000D02*
X144475000Y-46533000D01*
X144615000Y-41046000D02*
X144615000Y-42819000D01*
X144615000Y-44681000D02*
X144615000Y-46454000D01*
X144755000Y-41134000D02*
X144755000Y-42887000D01*
X144755000Y-44613000D02*
X144755000Y-46366000D01*
X144895000Y-41234000D02*
X144895000Y-42986000D01*
X144895000Y-44514000D02*
X144895000Y-46266000D01*
X145035000Y-41346000D02*
X145035000Y-43131000D01*
X145035000Y-44369000D02*
X145035000Y-46154000D01*
X145175000Y-41471000D02*
X145175000Y-43370000D01*
X145175000Y-44130000D02*
X145175000Y-46029000D01*
X145315000Y-41614000D02*
X145315000Y-45886000D01*
X145455000Y-41776000D02*
X145455000Y-45724000D01*
X145595000Y-41964000D02*
X145595000Y-45536000D01*
X145735000Y-42187000D02*
X145735000Y-45313000D01*
X145875000Y-42463000D02*
X145875000Y-45037000D01*
X146015000Y-42838000D02*
X146015000Y-44662000D01*
X145250000Y-43750000D02*
G75*
G03X145250000Y-43750000I-1000000J0D01*
G01*
X146187500Y-43750000D02*
G75*
G03X146187500Y-43750000I-3187500J0D01*
G01*
X132151000Y-49875000D02*
X138449000Y-49875000D01*
X132157000Y-49735000D02*
X138443000Y-49735000D01*
X132170000Y-49595000D02*
X134854000Y-49595000D01*
X135746000Y-49595000D02*
X138430000Y-49595000D01*
X132189000Y-49455000D02*
X134644000Y-49455000D01*
X135956000Y-49455000D02*
X138411000Y-49455000D01*
X132215000Y-49315000D02*
X134511000Y-49315000D01*
X136089000Y-49315000D02*
X138385000Y-49315000D01*
X132247000Y-49175000D02*
X134420000Y-49175000D01*
X136180000Y-49175000D02*
X138353000Y-49175000D01*
X132286000Y-49035000D02*
X134358000Y-49035000D01*
X136242000Y-49035000D02*
X138314000Y-49035000D01*
X132332000Y-48895000D02*
X134319000Y-48895000D01*
X136281000Y-48895000D02*
X138268000Y-48895000D01*
X132385000Y-48755000D02*
X134302000Y-48755000D01*
X136298000Y-48755000D02*
X138215000Y-48755000D01*
X132447000Y-48615000D02*
X134304000Y-48615000D01*
X136296000Y-48615000D02*
X138153000Y-48615000D01*
X132517000Y-48475000D02*
X134326000Y-48475000D01*
X136274000Y-48475000D02*
X138083000Y-48475000D01*
X132596000Y-48335000D02*
X134369000Y-48335000D01*
X136231000Y-48335000D02*
X138004000Y-48335000D01*
X132684000Y-48195000D02*
X134437000Y-48195000D01*
X136163000Y-48195000D02*
X137916000Y-48195000D01*
X132784000Y-48055000D02*
X134536000Y-48055000D01*
X136064000Y-48055000D02*
X137816000Y-48055000D01*
X132896000Y-47915000D02*
X134681000Y-47915000D01*
X135919000Y-47915000D02*
X137704000Y-47915000D01*
X133021000Y-47775000D02*
X134920000Y-47775000D01*
X135680000Y-47775000D02*
X137579000Y-47775000D01*
X133164000Y-47635000D02*
X137436000Y-47635000D01*
X133326000Y-47495000D02*
X137274000Y-47495000D01*
X133514000Y-47355000D02*
X137086000Y-47355000D01*
X133737000Y-47215000D02*
X136863000Y-47215000D01*
X134013000Y-47075000D02*
X136587000Y-47075000D01*
X134388000Y-46935000D02*
X136212000Y-46935000D01*
X136300000Y-48700000D02*
G75*
G03X136300000Y-48700000I-1000000J0D01*
G01*
X138487500Y-49950000D02*
G75*
G03X138487500Y-49950000I-3187500J0D01*
G01*
X119151000Y-49875000D02*
X125449000Y-49875000D01*
X119157000Y-49735000D02*
X125443000Y-49735000D01*
X119170000Y-49595000D02*
X121854000Y-49595000D01*
X122746000Y-49595000D02*
X125430000Y-49595000D01*
X119189000Y-49455000D02*
X121644000Y-49455000D01*
X122956000Y-49455000D02*
X125411000Y-49455000D01*
X119215000Y-49315000D02*
X121511000Y-49315000D01*
X123089000Y-49315000D02*
X125385000Y-49315000D01*
X119247000Y-49175000D02*
X121420000Y-49175000D01*
X123180000Y-49175000D02*
X125353000Y-49175000D01*
X119286000Y-49035000D02*
X121358000Y-49035000D01*
X123242000Y-49035000D02*
X125314000Y-49035000D01*
X119332000Y-48895000D02*
X121319000Y-48895000D01*
X123281000Y-48895000D02*
X125268000Y-48895000D01*
X119385000Y-48755000D02*
X121302000Y-48755000D01*
X123298000Y-48755000D02*
X125215000Y-48755000D01*
X119447000Y-48615000D02*
X121304000Y-48615000D01*
X123296000Y-48615000D02*
X125153000Y-48615000D01*
X119517000Y-48475000D02*
X121326000Y-48475000D01*
X123274000Y-48475000D02*
X125083000Y-48475000D01*
X119596000Y-48335000D02*
X121369000Y-48335000D01*
X123231000Y-48335000D02*
X125004000Y-48335000D01*
X119684000Y-48195000D02*
X121437000Y-48195000D01*
X123163000Y-48195000D02*
X124916000Y-48195000D01*
X119784000Y-48055000D02*
X121536000Y-48055000D01*
X123064000Y-48055000D02*
X124816000Y-48055000D01*
X119896000Y-47915000D02*
X121681000Y-47915000D01*
X122919000Y-47915000D02*
X124704000Y-47915000D01*
X120021000Y-47775000D02*
X121920000Y-47775000D01*
X122680000Y-47775000D02*
X124579000Y-47775000D01*
X120164000Y-47635000D02*
X124436000Y-47635000D01*
X120326000Y-47495000D02*
X124274000Y-47495000D01*
X120514000Y-47355000D02*
X124086000Y-47355000D01*
X120737000Y-47215000D02*
X123863000Y-47215000D01*
X121013000Y-47075000D02*
X123587000Y-47075000D01*
X121388000Y-46935000D02*
X123212000Y-46935000D01*
X123300000Y-48700000D02*
G75*
G03X123300000Y-48700000I-1000000J0D01*
G01*
X125487500Y-49950000D02*
G75*
G03X125487500Y-49950000I-3187500J0D01*
G01*
X125651000Y-46775000D02*
X131949000Y-46775000D01*
X125657000Y-46635000D02*
X131943000Y-46635000D01*
X125670000Y-46495000D02*
X128354000Y-46495000D01*
X129246000Y-46495000D02*
X131930000Y-46495000D01*
X125689000Y-46355000D02*
X128144000Y-46355000D01*
X129456000Y-46355000D02*
X131911000Y-46355000D01*
X125715000Y-46215000D02*
X128011000Y-46215000D01*
X129589000Y-46215000D02*
X131885000Y-46215000D01*
X125747000Y-46075000D02*
X127920000Y-46075000D01*
X129680000Y-46075000D02*
X131853000Y-46075000D01*
X125786000Y-45935000D02*
X127858000Y-45935000D01*
X129742000Y-45935000D02*
X131814000Y-45935000D01*
X125832000Y-45795000D02*
X127819000Y-45795000D01*
X129781000Y-45795000D02*
X131768000Y-45795000D01*
X125885000Y-45655000D02*
X127802000Y-45655000D01*
X129798000Y-45655000D02*
X131715000Y-45655000D01*
X125947000Y-45515000D02*
X127804000Y-45515000D01*
X129796000Y-45515000D02*
X131653000Y-45515000D01*
X126017000Y-45375000D02*
X127826000Y-45375000D01*
X129774000Y-45375000D02*
X131583000Y-45375000D01*
X126096000Y-45235000D02*
X127869000Y-45235000D01*
X129731000Y-45235000D02*
X131504000Y-45235000D01*
X126184000Y-45095000D02*
X127937000Y-45095000D01*
X129663000Y-45095000D02*
X131416000Y-45095000D01*
X126284000Y-44955000D02*
X128036000Y-44955000D01*
X129564000Y-44955000D02*
X131316000Y-44955000D01*
X126396000Y-44815000D02*
X128181000Y-44815000D01*
X129419000Y-44815000D02*
X131204000Y-44815000D01*
X126521000Y-44675000D02*
X128420000Y-44675000D01*
X129180000Y-44675000D02*
X131079000Y-44675000D01*
X126664000Y-44535000D02*
X130936000Y-44535000D01*
X126826000Y-44395000D02*
X130774000Y-44395000D01*
X127014000Y-44255000D02*
X130586000Y-44255000D01*
X127237000Y-44115000D02*
X130363000Y-44115000D01*
X127513000Y-43975000D02*
X130087000Y-43975000D01*
X127888000Y-43835000D02*
X129712000Y-43835000D01*
X129800000Y-45600000D02*
G75*
G03X129800000Y-45600000I-1000000J0D01*
G01*
X131987500Y-46850000D02*
G75*
G03X131987500Y-46850000I-3187500J0D01*
G01*
X92850000Y-43100000D02*
X92850000Y-42100000D01*
X91150000Y-42100000D02*
X91150000Y-43100000D01*
X81949000Y-52025000D02*
X75651000Y-52025000D01*
X81943000Y-52165000D02*
X75657000Y-52165000D01*
X81930000Y-52305000D02*
X79246000Y-52305000D01*
X78354000Y-52305000D02*
X75670000Y-52305000D01*
X81911000Y-52445000D02*
X79456000Y-52445000D01*
X78144000Y-52445000D02*
X75689000Y-52445000D01*
X81885000Y-52585000D02*
X79589000Y-52585000D01*
X78011000Y-52585000D02*
X75715000Y-52585000D01*
X81853000Y-52725000D02*
X79680000Y-52725000D01*
X77920000Y-52725000D02*
X75747000Y-52725000D01*
X81814000Y-52865000D02*
X79742000Y-52865000D01*
X77858000Y-52865000D02*
X75786000Y-52865000D01*
X81768000Y-53005000D02*
X79781000Y-53005000D01*
X77819000Y-53005000D02*
X75832000Y-53005000D01*
X81715000Y-53145000D02*
X79798000Y-53145000D01*
X77802000Y-53145000D02*
X75885000Y-53145000D01*
X81653000Y-53285000D02*
X79796000Y-53285000D01*
X77804000Y-53285000D02*
X75947000Y-53285000D01*
X81583000Y-53425000D02*
X79774000Y-53425000D01*
X77826000Y-53425000D02*
X76017000Y-53425000D01*
X81504000Y-53565000D02*
X79731000Y-53565000D01*
X77869000Y-53565000D02*
X76096000Y-53565000D01*
X81416000Y-53705000D02*
X79663000Y-53705000D01*
X77937000Y-53705000D02*
X76184000Y-53705000D01*
X81316000Y-53845000D02*
X79564000Y-53845000D01*
X78036000Y-53845000D02*
X76284000Y-53845000D01*
X81204000Y-53985000D02*
X79419000Y-53985000D01*
X78181000Y-53985000D02*
X76396000Y-53985000D01*
X81079000Y-54125000D02*
X79180000Y-54125000D01*
X78420000Y-54125000D02*
X76521000Y-54125000D01*
X80936000Y-54265000D02*
X76664000Y-54265000D01*
X80774000Y-54405000D02*
X76826000Y-54405000D01*
X80586000Y-54545000D02*
X77014000Y-54545000D01*
X80363000Y-54685000D02*
X77237000Y-54685000D01*
X80087000Y-54825000D02*
X77513000Y-54825000D01*
X79712000Y-54965000D02*
X77888000Y-54965000D01*
X79800000Y-53200000D02*
G75*
G03X79800000Y-53200000I-1000000J0D01*
G01*
X81987500Y-51950000D02*
G75*
G03X81987500Y-51950000I-3187500J0D01*
G01*
X202000000Y-122000000D02*
X202000000Y-123550000D01*
X203300000Y-122000000D02*
X202000000Y-122000000D01*
X207491000Y-123423000D02*
X213333000Y-123423000D01*
X213333000Y-123423000D02*
X213333000Y-123677000D01*
X213333000Y-123677000D02*
X207491000Y-123677000D01*
X207491000Y-123677000D02*
X207491000Y-123550000D01*
X207491000Y-123550000D02*
X213333000Y-123550000D01*
X204824000Y-123296000D02*
X204443000Y-123296000D01*
X204824000Y-123804000D02*
X204443000Y-123804000D01*
X204824000Y-125836000D02*
X204443000Y-125836000D01*
X204824000Y-126344000D02*
X204443000Y-126344000D01*
X204824000Y-122280000D02*
X207364000Y-122280000D01*
X204824000Y-124820000D02*
X207364000Y-124820000D01*
X204824000Y-124820000D02*
X204824000Y-127360000D01*
X204824000Y-127360000D02*
X207364000Y-127360000D01*
X207364000Y-125836000D02*
X213460000Y-125836000D01*
X213460000Y-125836000D02*
X213460000Y-126344000D01*
X213460000Y-126344000D02*
X207364000Y-126344000D01*
X207364000Y-127360000D02*
X207364000Y-124820000D01*
X207364000Y-124820000D02*
X207364000Y-122280000D01*
X213460000Y-123804000D02*
X207364000Y-123804000D01*
X213460000Y-123296000D02*
X213460000Y-123804000D01*
X207364000Y-123296000D02*
X213460000Y-123296000D01*
X204824000Y-124820000D02*
X207364000Y-124820000D01*
X204824000Y-122280000D02*
X204824000Y-124820000D01*
X89850000Y-67140000D02*
X89850000Y-65590000D01*
X88550000Y-67140000D02*
X89850000Y-67140000D01*
X84359000Y-65717000D02*
X78517000Y-65717000D01*
X78517000Y-65717000D02*
X78517000Y-65463000D01*
X78517000Y-65463000D02*
X84359000Y-65463000D01*
X84359000Y-65463000D02*
X84359000Y-65590000D01*
X84359000Y-65590000D02*
X78517000Y-65590000D01*
X87026000Y-65844000D02*
X87407000Y-65844000D01*
X87026000Y-65336000D02*
X87407000Y-65336000D01*
X87026000Y-63304000D02*
X87407000Y-63304000D01*
X87026000Y-62796000D02*
X87407000Y-62796000D01*
X87026000Y-66860000D02*
X84486000Y-66860000D01*
X87026000Y-64320000D02*
X84486000Y-64320000D01*
X87026000Y-64320000D02*
X87026000Y-61780000D01*
X87026000Y-61780000D02*
X84486000Y-61780000D01*
X84486000Y-63304000D02*
X78390000Y-63304000D01*
X78390000Y-63304000D02*
X78390000Y-62796000D01*
X78390000Y-62796000D02*
X84486000Y-62796000D01*
X84486000Y-61780000D02*
X84486000Y-64320000D01*
X84486000Y-64320000D02*
X84486000Y-66860000D01*
X78390000Y-65336000D02*
X84486000Y-65336000D01*
X78390000Y-65844000D02*
X78390000Y-65336000D01*
X84486000Y-65844000D02*
X78390000Y-65844000D01*
X87026000Y-64320000D02*
X84486000Y-64320000D01*
X87026000Y-66860000D02*
X87026000Y-64320000D01*
X92675000Y-48200000D02*
X92675000Y-49200000D01*
X91325000Y-49200000D02*
X91325000Y-48200000D01*
X162750000Y-52250000D02*
X162750000Y-39500000D01*
X162750000Y-65500000D02*
X162750000Y-52250000D01*
X183750000Y-65500000D02*
X162750000Y-65500000D01*
X183750000Y-39500000D02*
X183750000Y-65500000D01*
X162750000Y-39500000D02*
X183750000Y-39500000D01*
X94150009Y-59419992D02*
X94150009Y-41150001D01*
X114449999Y-59419992D02*
X94150009Y-59419992D01*
X114449999Y-57389993D02*
X114449999Y-59419992D01*
X114449999Y-41150001D02*
X94150009Y-41150001D01*
X114449999Y-41150001D02*
X114449999Y-57389993D01*
X95030000Y-91930000D02*
X95030000Y-97010000D01*
X95030000Y-97010000D02*
X97570000Y-97010000D01*
X97570000Y-97010000D02*
X97570000Y-91930000D01*
X97850000Y-89110000D02*
X97850000Y-90660000D01*
X97570000Y-91930000D02*
X95030000Y-91930000D01*
X94750000Y-90660000D02*
X94750000Y-89110000D01*
X94750000Y-89110000D02*
X97850000Y-89110000D01*
X90630000Y-121830000D02*
X90630000Y-126910000D01*
X90630000Y-126910000D02*
X93170000Y-126910000D01*
X93170000Y-126910000D02*
X93170000Y-121830000D01*
X93450000Y-119010000D02*
X93450000Y-120560000D01*
X93170000Y-121830000D02*
X90630000Y-121830000D01*
X90350000Y-120560000D02*
X90350000Y-119010000D01*
X90350000Y-119010000D02*
X93450000Y-119010000D01*
X215030000Y-92930000D02*
X215030000Y-98010000D01*
X215030000Y-98010000D02*
X217570000Y-98010000D01*
X217570000Y-98010000D02*
X217570000Y-92930000D01*
X217850000Y-90110000D02*
X217850000Y-91660000D01*
X217570000Y-92930000D02*
X215030000Y-92930000D01*
X214750000Y-91660000D02*
X214750000Y-90110000D01*
X214750000Y-90110000D02*
X217850000Y-90110000D01*
X217730000Y-121990000D02*
X217730000Y-127070000D01*
X217730000Y-127070000D02*
X220270000Y-127070000D01*
X220270000Y-127070000D02*
X220270000Y-121990000D01*
X220550000Y-119170000D02*
X220550000Y-120720000D01*
X220270000Y-121990000D02*
X217730000Y-121990000D01*
X217450000Y-120720000D02*
X217450000Y-119170000D01*
X217450000Y-119170000D02*
X220550000Y-119170000D01*
X181610000Y-138730000D02*
X181610000Y-77770000D01*
X176530000Y-77770000D02*
X176530000Y-141270000D01*
X176530000Y-77770000D02*
X181610000Y-77770000D01*
X176530000Y-141270000D02*
X179070000Y-141270000D01*
X180340000Y-141550000D02*
X181890000Y-141550000D01*
X179070000Y-141270000D02*
X179070000Y-138730000D01*
X179070000Y-138730000D02*
X181610000Y-138730000D01*
X181890000Y-141550000D02*
X181890000Y-140000000D01*
X130810000Y-138730000D02*
X130810000Y-77770000D01*
X125730000Y-77770000D02*
X125730000Y-141270000D01*
X125730000Y-77770000D02*
X130810000Y-77770000D01*
X125730000Y-141270000D02*
X128270000Y-141270000D01*
X129540000Y-141550000D02*
X131090000Y-141550000D01*
X128270000Y-141270000D02*
X128270000Y-138730000D01*
X128270000Y-138730000D02*
X130810000Y-138730000D01*
X131090000Y-141550000D02*
X131090000Y-140000000D01*
X218670000Y-46490000D02*
X218670000Y-61730000D01*
X218670000Y-61730000D02*
X216130000Y-61730000D01*
X216130000Y-61730000D02*
X216130000Y-46490000D01*
X218950000Y-43670000D02*
X218950000Y-45220000D01*
X218670000Y-46490000D02*
X216130000Y-46490000D01*
X215850000Y-45220000D02*
X215850000Y-43670000D01*
X215850000Y-43670000D02*
X218950000Y-43670000D01*
X140660000Y-55130000D02*
X145740000Y-55130000D01*
X145740000Y-55130000D02*
X145740000Y-57670000D01*
X145740000Y-57670000D02*
X140660000Y-57670000D01*
X140660000Y-57670000D02*
X140660000Y-55130000D01*
X140660000Y-56400000D02*
X139390000Y-56400000D01*
X145740000Y-56400000D02*
X147010000Y-56400000D01*
X118250000Y-50100000D02*
X118250000Y-49100000D01*
X116550000Y-49100000D02*
X116550000Y-50100000D01*
X80551000Y-42475000D02*
X86849000Y-42475000D01*
X80557000Y-42335000D02*
X86843000Y-42335000D01*
X80570000Y-42195000D02*
X83254000Y-42195000D01*
X84146000Y-42195000D02*
X86830000Y-42195000D01*
X80589000Y-42055000D02*
X83044000Y-42055000D01*
X84356000Y-42055000D02*
X86811000Y-42055000D01*
X80615000Y-41915000D02*
X82911000Y-41915000D01*
X84489000Y-41915000D02*
X86785000Y-41915000D01*
X80647000Y-41775000D02*
X82820000Y-41775000D01*
X84580000Y-41775000D02*
X86753000Y-41775000D01*
X80686000Y-41635000D02*
X82758000Y-41635000D01*
X84642000Y-41635000D02*
X86714000Y-41635000D01*
X80732000Y-41495000D02*
X82719000Y-41495000D01*
X84681000Y-41495000D02*
X86668000Y-41495000D01*
X80785000Y-41355000D02*
X82702000Y-41355000D01*
X84698000Y-41355000D02*
X86615000Y-41355000D01*
X80847000Y-41215000D02*
X82704000Y-41215000D01*
X84696000Y-41215000D02*
X86553000Y-41215000D01*
X80917000Y-41075000D02*
X82726000Y-41075000D01*
X84674000Y-41075000D02*
X86483000Y-41075000D01*
X80996000Y-40935000D02*
X82769000Y-40935000D01*
X84631000Y-40935000D02*
X86404000Y-40935000D01*
X81084000Y-40795000D02*
X82837000Y-40795000D01*
X84563000Y-40795000D02*
X86316000Y-40795000D01*
X81184000Y-40655000D02*
X82936000Y-40655000D01*
X84464000Y-40655000D02*
X86216000Y-40655000D01*
X81296000Y-40515000D02*
X83081000Y-40515000D01*
X84319000Y-40515000D02*
X86104000Y-40515000D01*
X81421000Y-40375000D02*
X83320000Y-40375000D01*
X84080000Y-40375000D02*
X85979000Y-40375000D01*
X81564000Y-40235000D02*
X85836000Y-40235000D01*
X81726000Y-40095000D02*
X85674000Y-40095000D01*
X81914000Y-39955000D02*
X85486000Y-39955000D01*
X82137000Y-39815000D02*
X85263000Y-39815000D01*
X82413000Y-39675000D02*
X84987000Y-39675000D01*
X82788000Y-39535000D02*
X84612000Y-39535000D01*
X84700000Y-41300000D02*
G75*
G03X84700000Y-41300000I-1000000J0D01*
G01*
X86887500Y-42550000D02*
G75*
G03X86887500Y-42550000I-3187500J0D01*
G01*
X188175000Y-51250000D02*
X188175000Y-51750000D01*
X189225000Y-51750000D02*
X189225000Y-51250000D01*
X173810000Y-129330000D02*
X173810000Y-78530000D01*
X168730000Y-81070000D02*
X168730000Y-129330000D01*
X173810000Y-129330000D02*
X168730000Y-129330000D01*
X173810000Y-78530000D02*
X171270000Y-78530000D01*
X170000000Y-78250000D02*
X168450000Y-78250000D01*
X171270000Y-78530000D02*
X171270000Y-81070000D01*
X171270000Y-81070000D02*
X168730000Y-81070000D01*
X168450000Y-78250000D02*
X168450000Y-79800000D01*
X164790000Y-145720000D02*
X172410000Y-145720000D01*
X164790000Y-143180000D02*
X172410000Y-143180000D01*
X161970000Y-142900000D02*
X163520000Y-142900000D01*
X172410000Y-145720000D02*
X172410000Y-143180000D01*
X164790000Y-143180000D02*
X164790000Y-145720000D01*
X163520000Y-146000000D02*
X161970000Y-146000000D01*
X161970000Y-146000000D02*
X161970000Y-142900000D01*
X99670000Y-110410000D02*
X99670000Y-102790000D01*
X97130000Y-110410000D02*
X97130000Y-102790000D01*
X96850000Y-113230000D02*
X96850000Y-111680000D01*
X99670000Y-102790000D02*
X97130000Y-102790000D01*
X97130000Y-110410000D02*
X99670000Y-110410000D01*
X99950000Y-111680000D02*
X99950000Y-113230000D01*
X99950000Y-113230000D02*
X96850000Y-113230000D01*
X212330000Y-107990000D02*
X212330000Y-115610000D01*
X214870000Y-107990000D02*
X214870000Y-115610000D01*
X215150000Y-105170000D02*
X215150000Y-106720000D01*
X212330000Y-115610000D02*
X214870000Y-115610000D01*
X214870000Y-107990000D02*
X212330000Y-107990000D01*
X212050000Y-106720000D02*
X212050000Y-105170000D01*
X212050000Y-105170000D02*
X215150000Y-105170000D01*
X148270000Y-145770000D02*
X155890000Y-145770000D01*
X148270000Y-143230000D02*
X155890000Y-143230000D01*
X145450000Y-142950000D02*
X147000000Y-142950000D01*
X155890000Y-145770000D02*
X155890000Y-143230000D01*
X148270000Y-143230000D02*
X148270000Y-145770000D01*
X147000000Y-146050000D02*
X145450000Y-146050000D01*
X145450000Y-146050000D02*
X145450000Y-142950000D01*
X139183334Y-40307143D02*
X139135715Y-40354762D01*
X138992858Y-40402381D01*
X138897620Y-40402381D01*
X138754762Y-40354762D01*
X138659524Y-40259524D01*
X138611905Y-40164286D01*
X138564286Y-39973810D01*
X138564286Y-39830952D01*
X138611905Y-39640476D01*
X138659524Y-39545238D01*
X138754762Y-39450000D01*
X138897620Y-39402381D01*
X138992858Y-39402381D01*
X139135715Y-39450000D01*
X139183334Y-39497619D01*
X139754762Y-39830952D02*
X139659524Y-39783333D01*
X139611905Y-39735714D01*
X139564286Y-39640476D01*
X139564286Y-39592857D01*
X139611905Y-39497619D01*
X139659524Y-39450000D01*
X139754762Y-39402381D01*
X139945239Y-39402381D01*
X140040477Y-39450000D01*
X140088096Y-39497619D01*
X140135715Y-39592857D01*
X140135715Y-39640476D01*
X140088096Y-39735714D01*
X140040477Y-39783333D01*
X139945239Y-39830952D01*
X139754762Y-39830952D01*
X139659524Y-39878571D01*
X139611905Y-39926190D01*
X139564286Y-40021429D01*
X139564286Y-40211905D01*
X139611905Y-40307143D01*
X139659524Y-40354762D01*
X139754762Y-40402381D01*
X139945239Y-40402381D01*
X140040477Y-40354762D01*
X140088096Y-40307143D01*
X140135715Y-40211905D01*
X140135715Y-40021429D01*
X140088096Y-39926190D01*
X140040477Y-39878571D01*
X139945239Y-39830952D01*
X131257143Y-50116666D02*
X131304762Y-50164285D01*
X131352381Y-50307142D01*
X131352381Y-50402380D01*
X131304762Y-50545238D01*
X131209524Y-50640476D01*
X131114286Y-50688095D01*
X130923810Y-50735714D01*
X130780952Y-50735714D01*
X130590476Y-50688095D01*
X130495238Y-50640476D01*
X130400000Y-50545238D01*
X130352381Y-50402380D01*
X130352381Y-50307142D01*
X130400000Y-50164285D01*
X130447619Y-50116666D01*
X130352381Y-49783333D02*
X130352381Y-49164285D01*
X130733333Y-49497619D01*
X130733333Y-49354761D01*
X130780952Y-49259523D01*
X130828571Y-49211904D01*
X130923810Y-49164285D01*
X131161905Y-49164285D01*
X131257143Y-49211904D01*
X131304762Y-49259523D01*
X131352381Y-49354761D01*
X131352381Y-49640476D01*
X131304762Y-49735714D01*
X131257143Y-49783333D01*
X122907143Y-44866666D02*
X122954762Y-44914285D01*
X123002381Y-45057142D01*
X123002381Y-45152380D01*
X122954762Y-45295238D01*
X122859524Y-45390476D01*
X122764286Y-45438095D01*
X122573810Y-45485714D01*
X122430952Y-45485714D01*
X122240476Y-45438095D01*
X122145238Y-45390476D01*
X122050000Y-45295238D01*
X122002381Y-45152380D01*
X122002381Y-45057142D01*
X122050000Y-44914285D01*
X122097619Y-44866666D01*
X123002381Y-43914285D02*
X123002381Y-44485714D01*
X123002381Y-44200000D02*
X122002381Y-44200000D01*
X122145238Y-44295238D01*
X122240476Y-44390476D01*
X122288095Y-44485714D01*
X124757143Y-47016666D02*
X124804762Y-47064285D01*
X124852381Y-47207142D01*
X124852381Y-47302380D01*
X124804762Y-47445238D01*
X124709524Y-47540476D01*
X124614286Y-47588095D01*
X124423810Y-47635714D01*
X124280952Y-47635714D01*
X124090476Y-47588095D01*
X123995238Y-47540476D01*
X123900000Y-47445238D01*
X123852381Y-47302380D01*
X123852381Y-47207142D01*
X123900000Y-47064285D01*
X123947619Y-47016666D01*
X123947619Y-46635714D02*
X123900000Y-46588095D01*
X123852381Y-46492857D01*
X123852381Y-46254761D01*
X123900000Y-46159523D01*
X123947619Y-46111904D01*
X124042857Y-46064285D01*
X124138095Y-46064285D01*
X124280952Y-46111904D01*
X124852381Y-46683333D01*
X124852381Y-46064285D01*
X89957143Y-42766666D02*
X90004762Y-42814285D01*
X90052381Y-42957142D01*
X90052381Y-43052380D01*
X90004762Y-43195238D01*
X89909524Y-43290476D01*
X89814286Y-43338095D01*
X89623810Y-43385714D01*
X89480952Y-43385714D01*
X89290476Y-43338095D01*
X89195238Y-43290476D01*
X89100000Y-43195238D01*
X89052381Y-43052380D01*
X89052381Y-42957142D01*
X89100000Y-42814285D01*
X89147619Y-42766666D01*
X89052381Y-41861904D02*
X89052381Y-42338095D01*
X89528571Y-42385714D01*
X89480952Y-42338095D01*
X89433333Y-42242857D01*
X89433333Y-42004761D01*
X89480952Y-41909523D01*
X89528571Y-41861904D01*
X89623810Y-41814285D01*
X89861905Y-41814285D01*
X89957143Y-41861904D01*
X90004762Y-41909523D01*
X90052381Y-42004761D01*
X90052381Y-42242857D01*
X90004762Y-42338095D01*
X89957143Y-42385714D01*
X83557143Y-52116666D02*
X83604762Y-52164285D01*
X83652381Y-52307142D01*
X83652381Y-52402380D01*
X83604762Y-52545238D01*
X83509524Y-52640476D01*
X83414286Y-52688095D01*
X83223810Y-52735714D01*
X83080952Y-52735714D01*
X82890476Y-52688095D01*
X82795238Y-52640476D01*
X82700000Y-52545238D01*
X82652381Y-52402380D01*
X82652381Y-52307142D01*
X82700000Y-52164285D01*
X82747619Y-52116666D01*
X82652381Y-51783333D02*
X82652381Y-51116666D01*
X83652381Y-51545238D01*
X207961905Y-41752381D02*
X207961905Y-40752381D01*
X208342858Y-40752381D01*
X208438096Y-40800000D01*
X208485715Y-40847619D01*
X208533334Y-40942857D01*
X208533334Y-41085714D01*
X208485715Y-41180952D01*
X208438096Y-41228571D01*
X208342858Y-41276190D01*
X207961905Y-41276190D01*
X209485715Y-41752381D02*
X208914286Y-41752381D01*
X209200000Y-41752381D02*
X209200000Y-40752381D01*
X209104762Y-40895238D01*
X209009524Y-40990476D01*
X208914286Y-41038095D01*
X109502381Y-137538095D02*
X108502381Y-137538095D01*
X108502381Y-137157142D01*
X108550000Y-137061904D01*
X108597619Y-137014285D01*
X108692857Y-136966666D01*
X108835714Y-136966666D01*
X108930952Y-137014285D01*
X108978571Y-137061904D01*
X109026190Y-137157142D01*
X109026190Y-137538095D01*
X108597619Y-136585714D02*
X108550000Y-136538095D01*
X108502381Y-136442857D01*
X108502381Y-136204761D01*
X108550000Y-136109523D01*
X108597619Y-136061904D01*
X108692857Y-136014285D01*
X108788095Y-136014285D01*
X108930952Y-136061904D01*
X109502381Y-136633333D01*
X109502381Y-136014285D01*
X201002381Y-83538095D02*
X200002381Y-83538095D01*
X200002381Y-83157142D01*
X200050000Y-83061904D01*
X200097619Y-83014285D01*
X200192857Y-82966666D01*
X200335714Y-82966666D01*
X200430952Y-83014285D01*
X200478571Y-83061904D01*
X200526190Y-83157142D01*
X200526190Y-83538095D01*
X200002381Y-82633333D02*
X200002381Y-82014285D01*
X200383333Y-82347619D01*
X200383333Y-82204761D01*
X200430952Y-82109523D01*
X200478571Y-82061904D01*
X200573810Y-82014285D01*
X200811905Y-82014285D01*
X200907143Y-82061904D01*
X200954762Y-82109523D01*
X201002381Y-82204761D01*
X201002381Y-82490476D01*
X200954762Y-82585714D01*
X200907143Y-82633333D01*
X202561905Y-118902381D02*
X202561905Y-117902381D01*
X202942858Y-117902381D01*
X203038096Y-117950000D01*
X203085715Y-117997619D01*
X203133334Y-118092857D01*
X203133334Y-118235714D01*
X203085715Y-118330952D01*
X203038096Y-118378571D01*
X202942858Y-118426190D01*
X202561905Y-118426190D01*
X204038096Y-117902381D02*
X203561905Y-117902381D01*
X203514286Y-118378571D01*
X203561905Y-118330952D01*
X203657143Y-118283333D01*
X203895239Y-118283333D01*
X203990477Y-118330952D01*
X204038096Y-118378571D01*
X204085715Y-118473810D01*
X204085715Y-118711905D01*
X204038096Y-118807143D01*
X203990477Y-118854762D01*
X203895239Y-118902381D01*
X203657143Y-118902381D01*
X203561905Y-118854762D01*
X203514286Y-118807143D01*
X202502381Y-138038095D02*
X201502381Y-138038095D01*
X201502381Y-137657142D01*
X201550000Y-137561904D01*
X201597619Y-137514285D01*
X201692857Y-137466666D01*
X201835714Y-137466666D01*
X201930952Y-137514285D01*
X201978571Y-137561904D01*
X202026190Y-137657142D01*
X202026190Y-138038095D01*
X201502381Y-136609523D02*
X201502381Y-136800000D01*
X201550000Y-136895238D01*
X201597619Y-136942857D01*
X201740476Y-137038095D01*
X201930952Y-137085714D01*
X202311905Y-137085714D01*
X202407143Y-137038095D01*
X202454762Y-136990476D01*
X202502381Y-136895238D01*
X202502381Y-136704761D01*
X202454762Y-136609523D01*
X202407143Y-136561904D01*
X202311905Y-136514285D01*
X202073810Y-136514285D01*
X201978571Y-136561904D01*
X201930952Y-136609523D01*
X201883333Y-136704761D01*
X201883333Y-136895238D01*
X201930952Y-136990476D01*
X201978571Y-137038095D01*
X202073810Y-137085714D01*
X110752381Y-72238095D02*
X109752381Y-72238095D01*
X109752381Y-71857142D01*
X109800000Y-71761904D01*
X109847619Y-71714285D01*
X109942857Y-71666666D01*
X110085714Y-71666666D01*
X110180952Y-71714285D01*
X110228571Y-71761904D01*
X110276190Y-71857142D01*
X110276190Y-72238095D01*
X109752381Y-71333333D02*
X109752381Y-70666666D01*
X110752381Y-71095238D01*
X92252381Y-64788095D02*
X91252381Y-64788095D01*
X91252381Y-64407142D01*
X91300000Y-64311904D01*
X91347619Y-64264285D01*
X91442857Y-64216666D01*
X91585714Y-64216666D01*
X91680952Y-64264285D01*
X91728571Y-64311904D01*
X91776190Y-64407142D01*
X91776190Y-64788095D01*
X91680952Y-63645238D02*
X91633333Y-63740476D01*
X91585714Y-63788095D01*
X91490476Y-63835714D01*
X91442857Y-63835714D01*
X91347619Y-63788095D01*
X91300000Y-63740476D01*
X91252381Y-63645238D01*
X91252381Y-63454761D01*
X91300000Y-63359523D01*
X91347619Y-63311904D01*
X91442857Y-63264285D01*
X91490476Y-63264285D01*
X91585714Y-63311904D01*
X91633333Y-63359523D01*
X91680952Y-63454761D01*
X91680952Y-63645238D01*
X91728571Y-63740476D01*
X91776190Y-63788095D01*
X91871429Y-63835714D01*
X92061905Y-63835714D01*
X92157143Y-63788095D01*
X92204762Y-63740476D01*
X92252381Y-63645238D01*
X92252381Y-63454761D01*
X92204762Y-63359523D01*
X92157143Y-63311904D01*
X92061905Y-63264285D01*
X91871429Y-63264285D01*
X91776190Y-63311904D01*
X91728571Y-63359523D01*
X91680952Y-63454761D01*
X90552381Y-48866666D02*
X90076190Y-49200000D01*
X90552381Y-49438095D02*
X89552381Y-49438095D01*
X89552381Y-49057142D01*
X89600000Y-48961904D01*
X89647619Y-48914285D01*
X89742857Y-48866666D01*
X89885714Y-48866666D01*
X89980952Y-48914285D01*
X90028571Y-48961904D01*
X90076190Y-49057142D01*
X90076190Y-49438095D01*
X89647619Y-48485714D02*
X89600000Y-48438095D01*
X89552381Y-48342857D01*
X89552381Y-48104761D01*
X89600000Y-48009523D01*
X89647619Y-47961904D01*
X89742857Y-47914285D01*
X89838095Y-47914285D01*
X89980952Y-47961904D01*
X90552381Y-48533333D01*
X90552381Y-47914285D01*
X185078572Y-41052381D02*
X184745238Y-40576190D01*
X184507143Y-41052381D02*
X184507143Y-40052381D01*
X184888096Y-40052381D01*
X184983334Y-40100000D01*
X185030953Y-40147619D01*
X185078572Y-40242857D01*
X185078572Y-40385714D01*
X185030953Y-40480952D01*
X184983334Y-40528571D01*
X184888096Y-40576190D01*
X184507143Y-40576190D01*
X185983334Y-41052381D02*
X185507143Y-41052381D01*
X185507143Y-40052381D01*
X186840477Y-41052381D02*
X186269048Y-41052381D01*
X186554762Y-41052381D02*
X186554762Y-40052381D01*
X186459524Y-40195238D01*
X186364286Y-40290476D01*
X186269048Y-40338095D01*
X155454762Y-53733332D02*
X155502381Y-53590475D01*
X155502381Y-53352379D01*
X155454762Y-53257141D01*
X155407143Y-53209522D01*
X155311905Y-53161903D01*
X155216667Y-53161903D01*
X155121429Y-53209522D01*
X155073810Y-53257141D01*
X155026190Y-53352379D01*
X154978571Y-53542856D01*
X154930952Y-53638094D01*
X154883333Y-53685713D01*
X154788095Y-53733332D01*
X154692857Y-53733332D01*
X154597619Y-53685713D01*
X154550000Y-53638094D01*
X154502381Y-53542856D01*
X154502381Y-53304760D01*
X154550000Y-53161903D01*
X154502381Y-52828570D02*
X155502381Y-52590475D01*
X154788095Y-52399998D01*
X155502381Y-52209522D01*
X154502381Y-51971427D01*
X155502381Y-51066665D02*
X155502381Y-51638094D01*
X155502381Y-51352380D02*
X154502381Y-51352380D01*
X154645238Y-51447618D01*
X154740476Y-51542856D01*
X154788095Y-51638094D01*
X94908095Y-60382381D02*
X94908095Y-61191905D01*
X94955714Y-61287143D01*
X95003333Y-61334762D01*
X95098571Y-61382381D01*
X95289048Y-61382381D01*
X95384286Y-61334762D01*
X95431905Y-61287143D01*
X95479524Y-61191905D01*
X95479524Y-60382381D01*
X96479524Y-61382381D02*
X95908095Y-61382381D01*
X96193809Y-61382381D02*
X96193809Y-60382381D01*
X96098571Y-60525238D01*
X96003333Y-60620476D01*
X95908095Y-60668095D01*
X112934286Y-82752381D02*
X113505715Y-82752381D01*
X113220000Y-83752381D02*
X113220000Y-82752381D01*
X113839048Y-83752381D02*
X113839048Y-82752381D01*
X113839048Y-83228571D02*
X114410477Y-83228571D01*
X114410477Y-83752381D02*
X114410477Y-82752381D01*
X115410477Y-83752381D02*
X114839048Y-83752381D01*
X115124762Y-83752381D02*
X115124762Y-82752381D01*
X115029524Y-82895238D01*
X114934286Y-82990476D01*
X114839048Y-83038095D01*
X112934286Y-92752381D02*
X113505715Y-92752381D01*
X113220000Y-93752381D02*
X113220000Y-92752381D01*
X113839048Y-93752381D02*
X113839048Y-92752381D01*
X113839048Y-93228571D02*
X114410477Y-93228571D01*
X114410477Y-93752381D02*
X114410477Y-92752381D01*
X114791429Y-92752381D02*
X115410477Y-92752381D01*
X115077143Y-93133333D01*
X115220001Y-93133333D01*
X115315239Y-93180952D01*
X115362858Y-93228571D01*
X115410477Y-93323810D01*
X115410477Y-93561905D01*
X115362858Y-93657143D01*
X115315239Y-93704762D01*
X115220001Y-93752381D01*
X114934286Y-93752381D01*
X114839048Y-93704762D01*
X114791429Y-93657143D01*
X112934286Y-122752381D02*
X113505715Y-122752381D01*
X113220000Y-123752381D02*
X113220000Y-122752381D01*
X113839048Y-123752381D02*
X113839048Y-122752381D01*
X113839048Y-123228571D02*
X114410477Y-123228571D01*
X114410477Y-123752381D02*
X114410477Y-122752381D01*
X115362858Y-122752381D02*
X114886667Y-122752381D01*
X114839048Y-123228571D01*
X114886667Y-123180952D01*
X114981905Y-123133333D01*
X115220001Y-123133333D01*
X115315239Y-123180952D01*
X115362858Y-123228571D01*
X115410477Y-123323810D01*
X115410477Y-123561905D01*
X115362858Y-123657143D01*
X115315239Y-123704762D01*
X115220001Y-123752381D01*
X114981905Y-123752381D01*
X114886667Y-123704762D01*
X114839048Y-123657143D01*
X112934286Y-132752381D02*
X113505715Y-132752381D01*
X113220000Y-133752381D02*
X113220000Y-132752381D01*
X113839048Y-133752381D02*
X113839048Y-132752381D01*
X113839048Y-133228571D02*
X114410477Y-133228571D01*
X114410477Y-133752381D02*
X114410477Y-132752381D01*
X114791429Y-132752381D02*
X115458096Y-132752381D01*
X115029524Y-133752381D01*
X112934286Y-142752381D02*
X113505715Y-142752381D01*
X113220000Y-143752381D02*
X113220000Y-142752381D01*
X113839048Y-143752381D02*
X113839048Y-142752381D01*
X113839048Y-143228571D02*
X114410477Y-143228571D01*
X114410477Y-143752381D02*
X114410477Y-142752381D01*
X115029524Y-143180952D02*
X114934286Y-143133333D01*
X114886667Y-143085714D01*
X114839048Y-142990476D01*
X114839048Y-142942857D01*
X114886667Y-142847619D01*
X114934286Y-142800000D01*
X115029524Y-142752381D01*
X115220001Y-142752381D01*
X115315239Y-142800000D01*
X115362858Y-142847619D01*
X115410477Y-142942857D01*
X115410477Y-142990476D01*
X115362858Y-143085714D01*
X115315239Y-143133333D01*
X115220001Y-143180952D01*
X115029524Y-143180952D01*
X114934286Y-143228571D01*
X114886667Y-143276190D01*
X114839048Y-143371429D01*
X114839048Y-143561905D01*
X114886667Y-143657143D01*
X114934286Y-143704762D01*
X115029524Y-143752381D01*
X115220001Y-143752381D01*
X115315239Y-143704762D01*
X115362858Y-143657143D01*
X115410477Y-143561905D01*
X115410477Y-143371429D01*
X115362858Y-143276190D01*
X115315239Y-143228571D01*
X115220001Y-143180952D01*
X191894286Y-142752381D02*
X192465715Y-142752381D01*
X192180000Y-143752381D02*
X192180000Y-142752381D01*
X192799048Y-143752381D02*
X192799048Y-142752381D01*
X192799048Y-143228571D02*
X193370477Y-143228571D01*
X193370477Y-143752381D02*
X193370477Y-142752381D01*
X193894286Y-143752381D02*
X194084762Y-143752381D01*
X194180001Y-143704762D01*
X194227620Y-143657143D01*
X194322858Y-143514286D01*
X194370477Y-143323810D01*
X194370477Y-142942857D01*
X194322858Y-142847619D01*
X194275239Y-142800000D01*
X194180001Y-142752381D01*
X193989524Y-142752381D01*
X193894286Y-142800000D01*
X193846667Y-142847619D01*
X193799048Y-142942857D01*
X193799048Y-143180952D01*
X193846667Y-143276190D01*
X193894286Y-143323810D01*
X193989524Y-143371429D01*
X194180001Y-143371429D01*
X194275239Y-143323810D01*
X194322858Y-143276190D01*
X194370477Y-143180952D01*
X191418095Y-122752381D02*
X191989524Y-122752381D01*
X191703809Y-123752381D02*
X191703809Y-122752381D01*
X192322857Y-123752381D02*
X192322857Y-122752381D01*
X192322857Y-123228571D02*
X192894286Y-123228571D01*
X192894286Y-123752381D02*
X192894286Y-122752381D01*
X193894286Y-123752381D02*
X193322857Y-123752381D01*
X193608571Y-123752381D02*
X193608571Y-122752381D01*
X193513333Y-122895238D01*
X193418095Y-122990476D01*
X193322857Y-123038095D01*
X194846667Y-123752381D02*
X194275238Y-123752381D01*
X194560952Y-123752381D02*
X194560952Y-122752381D01*
X194465714Y-122895238D01*
X194370476Y-122990476D01*
X194275238Y-123038095D01*
X191418095Y-92752381D02*
X191989524Y-92752381D01*
X191703809Y-93752381D02*
X191703809Y-92752381D01*
X192322857Y-93752381D02*
X192322857Y-92752381D01*
X192322857Y-93228571D02*
X192894286Y-93228571D01*
X192894286Y-93752381D02*
X192894286Y-92752381D01*
X193894286Y-93752381D02*
X193322857Y-93752381D01*
X193608571Y-93752381D02*
X193608571Y-92752381D01*
X193513333Y-92895238D01*
X193418095Y-92990476D01*
X193322857Y-93038095D01*
X194227619Y-92752381D02*
X194846667Y-92752381D01*
X194513333Y-93133333D01*
X194656191Y-93133333D01*
X194751429Y-93180952D01*
X194799048Y-93228571D01*
X194846667Y-93323810D01*
X194846667Y-93561905D01*
X194799048Y-93657143D01*
X194751429Y-93704762D01*
X194656191Y-93752381D01*
X194370476Y-93752381D01*
X194275238Y-93704762D01*
X194227619Y-93657143D01*
X191418095Y-132752381D02*
X191989524Y-132752381D01*
X191703809Y-133752381D02*
X191703809Y-132752381D01*
X192322857Y-133752381D02*
X192322857Y-132752381D01*
X192322857Y-133228571D02*
X192894286Y-133228571D01*
X192894286Y-133752381D02*
X192894286Y-132752381D01*
X193894286Y-133752381D02*
X193322857Y-133752381D01*
X193608571Y-133752381D02*
X193608571Y-132752381D01*
X193513333Y-132895238D01*
X193418095Y-132990476D01*
X193322857Y-133038095D01*
X194799048Y-132752381D02*
X194322857Y-132752381D01*
X194275238Y-133228571D01*
X194322857Y-133180952D01*
X194418095Y-133133333D01*
X194656191Y-133133333D01*
X194751429Y-133180952D01*
X194799048Y-133228571D01*
X194846667Y-133323810D01*
X194846667Y-133561905D01*
X194799048Y-133657143D01*
X194751429Y-133704762D01*
X194656191Y-133752381D01*
X194418095Y-133752381D01*
X194322857Y-133704762D01*
X194275238Y-133657143D01*
X191418095Y-82752381D02*
X191989524Y-82752381D01*
X191703809Y-83752381D02*
X191703809Y-82752381D01*
X192322857Y-83752381D02*
X192322857Y-82752381D01*
X192322857Y-83228571D02*
X192894286Y-83228571D01*
X192894286Y-83752381D02*
X192894286Y-82752381D01*
X193894286Y-83752381D02*
X193322857Y-83752381D01*
X193608571Y-83752381D02*
X193608571Y-82752381D01*
X193513333Y-82895238D01*
X193418095Y-82990476D01*
X193322857Y-83038095D01*
X194751429Y-82752381D02*
X194560952Y-82752381D01*
X194465714Y-82800000D01*
X194418095Y-82847619D01*
X194322857Y-82990476D01*
X194275238Y-83180952D01*
X194275238Y-83561905D01*
X194322857Y-83657143D01*
X194370476Y-83704762D01*
X194465714Y-83752381D01*
X194656191Y-83752381D01*
X194751429Y-83704762D01*
X194799048Y-83657143D01*
X194846667Y-83561905D01*
X194846667Y-83323810D01*
X194799048Y-83228571D01*
X194751429Y-83180952D01*
X194656191Y-83133333D01*
X194465714Y-83133333D01*
X194370476Y-83180952D01*
X194322857Y-83228571D01*
X194275238Y-83323810D01*
X95561905Y-88252381D02*
X95561905Y-87252381D01*
X95942858Y-87252381D01*
X96038096Y-87300000D01*
X96085715Y-87347619D01*
X96133334Y-87442857D01*
X96133334Y-87585714D01*
X96085715Y-87680952D01*
X96038096Y-87728571D01*
X95942858Y-87776190D01*
X95561905Y-87776190D01*
X96609524Y-88252381D02*
X96800000Y-88252381D01*
X96895239Y-88204762D01*
X96942858Y-88157143D01*
X97038096Y-88014286D01*
X97085715Y-87823810D01*
X97085715Y-87442857D01*
X97038096Y-87347619D01*
X96990477Y-87300000D01*
X96895239Y-87252381D01*
X96704762Y-87252381D01*
X96609524Y-87300000D01*
X96561905Y-87347619D01*
X96514286Y-87442857D01*
X96514286Y-87680952D01*
X96561905Y-87776190D01*
X96609524Y-87823810D01*
X96704762Y-87871429D01*
X96895239Y-87871429D01*
X96990477Y-87823810D01*
X97038096Y-87776190D01*
X97085715Y-87680952D01*
X90685714Y-128952381D02*
X90685714Y-127952381D01*
X91066667Y-127952381D01*
X91161905Y-128000000D01*
X91209524Y-128047619D01*
X91257143Y-128142857D01*
X91257143Y-128285714D01*
X91209524Y-128380952D01*
X91161905Y-128428571D01*
X91066667Y-128476190D01*
X90685714Y-128476190D01*
X92209524Y-128952381D02*
X91638095Y-128952381D01*
X91923809Y-128952381D02*
X91923809Y-127952381D01*
X91828571Y-128095238D01*
X91733333Y-128190476D01*
X91638095Y-128238095D01*
X92828571Y-127952381D02*
X92923810Y-127952381D01*
X93019048Y-128000000D01*
X93066667Y-128047619D01*
X93114286Y-128142857D01*
X93161905Y-128333333D01*
X93161905Y-128571429D01*
X93114286Y-128761905D01*
X93066667Y-128857143D01*
X93019048Y-128904762D01*
X92923810Y-128952381D01*
X92828571Y-128952381D01*
X92733333Y-128904762D01*
X92685714Y-128857143D01*
X92638095Y-128761905D01*
X92590476Y-128571429D01*
X92590476Y-128333333D01*
X92638095Y-128142857D01*
X92685714Y-128047619D01*
X92733333Y-128000000D01*
X92828571Y-127952381D01*
X213952381Y-95314286D02*
X212952381Y-95314286D01*
X212952381Y-94933333D01*
X213000000Y-94838095D01*
X213047619Y-94790476D01*
X213142857Y-94742857D01*
X213285714Y-94742857D01*
X213380952Y-94790476D01*
X213428571Y-94838095D01*
X213476190Y-94933333D01*
X213476190Y-95314286D01*
X213952381Y-93790476D02*
X213952381Y-94361905D01*
X213952381Y-94076191D02*
X212952381Y-94076191D01*
X213095238Y-94171429D01*
X213190476Y-94266667D01*
X213238095Y-94361905D01*
X213952381Y-92838095D02*
X213952381Y-93409524D01*
X213952381Y-93123810D02*
X212952381Y-93123810D01*
X213095238Y-93219048D01*
X213190476Y-93314286D01*
X213238095Y-93409524D01*
X216752381Y-121914286D02*
X215752381Y-121914286D01*
X215752381Y-121533333D01*
X215800000Y-121438095D01*
X215847619Y-121390476D01*
X215942857Y-121342857D01*
X216085714Y-121342857D01*
X216180952Y-121390476D01*
X216228571Y-121438095D01*
X216276190Y-121533333D01*
X216276190Y-121914286D01*
X216752381Y-120390476D02*
X216752381Y-120961905D01*
X216752381Y-120676191D02*
X215752381Y-120676191D01*
X215895238Y-120771429D01*
X215990476Y-120866667D01*
X216038095Y-120961905D01*
X215847619Y-120009524D02*
X215800000Y-119961905D01*
X215752381Y-119866667D01*
X215752381Y-119628571D01*
X215800000Y-119533333D01*
X215847619Y-119485714D01*
X215942857Y-119438095D01*
X216038095Y-119438095D01*
X216180952Y-119485714D01*
X216752381Y-120057143D01*
X216752381Y-119438095D01*
X177785714Y-144552381D02*
X177785714Y-143552381D01*
X178166667Y-143552381D01*
X178261905Y-143600000D01*
X178309524Y-143647619D01*
X178357143Y-143742857D01*
X178357143Y-143885714D01*
X178309524Y-143980952D01*
X178261905Y-144028571D01*
X178166667Y-144076190D01*
X177785714Y-144076190D01*
X179309524Y-144552381D02*
X178738095Y-144552381D01*
X179023809Y-144552381D02*
X179023809Y-143552381D01*
X178928571Y-143695238D01*
X178833333Y-143790476D01*
X178738095Y-143838095D01*
X179642857Y-143552381D02*
X180261905Y-143552381D01*
X179928571Y-143933333D01*
X180071429Y-143933333D01*
X180166667Y-143980952D01*
X180214286Y-144028571D01*
X180261905Y-144123810D01*
X180261905Y-144361905D01*
X180214286Y-144457143D01*
X180166667Y-144504762D01*
X180071429Y-144552381D01*
X179785714Y-144552381D01*
X179690476Y-144504762D01*
X179642857Y-144457143D01*
X127085714Y-144252381D02*
X127085714Y-143252381D01*
X127466667Y-143252381D01*
X127561905Y-143300000D01*
X127609524Y-143347619D01*
X127657143Y-143442857D01*
X127657143Y-143585714D01*
X127609524Y-143680952D01*
X127561905Y-143728571D01*
X127466667Y-143776190D01*
X127085714Y-143776190D01*
X128609524Y-144252381D02*
X128038095Y-144252381D01*
X128323809Y-144252381D02*
X128323809Y-143252381D01*
X128228571Y-143395238D01*
X128133333Y-143490476D01*
X128038095Y-143538095D01*
X129466667Y-143585714D02*
X129466667Y-144252381D01*
X129228571Y-143204762D02*
X128990476Y-143919048D01*
X129609524Y-143919048D01*
X216661905Y-42752381D02*
X216661905Y-41752381D01*
X217042858Y-41752381D01*
X217138096Y-41800000D01*
X217185715Y-41847619D01*
X217233334Y-41942857D01*
X217233334Y-42085714D01*
X217185715Y-42180952D01*
X217138096Y-42228571D01*
X217042858Y-42276190D01*
X216661905Y-42276190D01*
X218090477Y-42085714D02*
X218090477Y-42752381D01*
X217852381Y-41704762D02*
X217614286Y-42419048D01*
X218233334Y-42419048D01*
X143282254Y-53352261D02*
X142948920Y-52876070D01*
X142710825Y-53352261D02*
X142710825Y-52352261D01*
X143091778Y-52352261D01*
X143187016Y-52399880D01*
X143234635Y-52447499D01*
X143282254Y-52542737D01*
X143282254Y-52685594D01*
X143234635Y-52780832D01*
X143187016Y-52828451D01*
X143091778Y-52876070D01*
X142710825Y-52876070D01*
X143615587Y-52352261D02*
X144234635Y-52352261D01*
X143901301Y-52733213D01*
X144044159Y-52733213D01*
X144139397Y-52780832D01*
X144187016Y-52828451D01*
X144234635Y-52923690D01*
X144234635Y-53161785D01*
X144187016Y-53257023D01*
X144139397Y-53304642D01*
X144044159Y-53352261D01*
X143758444Y-53352261D01*
X143663206Y-53304642D01*
X143615587Y-53257023D01*
X119857143Y-49766666D02*
X119904762Y-49814285D01*
X119952381Y-49957142D01*
X119952381Y-50052380D01*
X119904762Y-50195238D01*
X119809524Y-50290476D01*
X119714286Y-50338095D01*
X119523810Y-50385714D01*
X119380952Y-50385714D01*
X119190476Y-50338095D01*
X119095238Y-50290476D01*
X119000000Y-50195238D01*
X118952381Y-50052380D01*
X118952381Y-49957142D01*
X119000000Y-49814285D01*
X119047619Y-49766666D01*
X119285714Y-48909523D02*
X119952381Y-48909523D01*
X118904762Y-49147619D02*
X119619048Y-49385714D01*
X119619048Y-48766666D01*
X79657143Y-42716666D02*
X79704762Y-42764285D01*
X79752381Y-42907142D01*
X79752381Y-43002380D01*
X79704762Y-43145238D01*
X79609524Y-43240476D01*
X79514286Y-43288095D01*
X79323810Y-43335714D01*
X79180952Y-43335714D01*
X78990476Y-43288095D01*
X78895238Y-43240476D01*
X78800000Y-43145238D01*
X78752381Y-43002380D01*
X78752381Y-42907142D01*
X78800000Y-42764285D01*
X78847619Y-42716666D01*
X78752381Y-41859523D02*
X78752381Y-42050000D01*
X78800000Y-42145238D01*
X78847619Y-42192857D01*
X78990476Y-42288095D01*
X79180952Y-42335714D01*
X79561905Y-42335714D01*
X79657143Y-42288095D01*
X79704762Y-42240476D01*
X79752381Y-42145238D01*
X79752381Y-41954761D01*
X79704762Y-41859523D01*
X79657143Y-41811904D01*
X79561905Y-41764285D01*
X79323810Y-41764285D01*
X79228571Y-41811904D01*
X79180952Y-41859523D01*
X79133333Y-41954761D01*
X79133333Y-42145238D01*
X79180952Y-42240476D01*
X79228571Y-42288095D01*
X79323810Y-42335714D01*
X187352381Y-51666666D02*
X186876190Y-52000000D01*
X187352381Y-52238095D02*
X186352381Y-52238095D01*
X186352381Y-51857142D01*
X186400000Y-51761904D01*
X186447619Y-51714285D01*
X186542857Y-51666666D01*
X186685714Y-51666666D01*
X186780952Y-51714285D01*
X186828571Y-51761904D01*
X186876190Y-51857142D01*
X186876190Y-52238095D01*
X187352381Y-50714285D02*
X187352381Y-51285714D01*
X187352381Y-51000000D02*
X186352381Y-51000000D01*
X186495238Y-51095238D01*
X186590476Y-51190476D01*
X186638095Y-51285714D01*
X168785714Y-77192381D02*
X168785714Y-76192381D01*
X169166667Y-76192381D01*
X169261905Y-76240000D01*
X169309524Y-76287619D01*
X169357143Y-76382857D01*
X169357143Y-76525714D01*
X169309524Y-76620952D01*
X169261905Y-76668571D01*
X169166667Y-76716190D01*
X168785714Y-76716190D01*
X170309524Y-77192381D02*
X169738095Y-77192381D01*
X170023809Y-77192381D02*
X170023809Y-76192381D01*
X169928571Y-76335238D01*
X169833333Y-76430476D01*
X169738095Y-76478095D01*
X171214286Y-76192381D02*
X170738095Y-76192381D01*
X170690476Y-76668571D01*
X170738095Y-76620952D01*
X170833333Y-76573333D01*
X171071429Y-76573333D01*
X171166667Y-76620952D01*
X171214286Y-76668571D01*
X171261905Y-76763810D01*
X171261905Y-77001905D01*
X171214286Y-77097143D01*
X171166667Y-77144762D01*
X171071429Y-77192381D01*
X170833333Y-77192381D01*
X170738095Y-77144762D01*
X170690476Y-77097143D01*
X158285714Y-144952381D02*
X158285714Y-143952381D01*
X158666667Y-143952381D01*
X158761905Y-144000000D01*
X158809524Y-144047619D01*
X158857143Y-144142857D01*
X158857143Y-144285714D01*
X158809524Y-144380952D01*
X158761905Y-144428571D01*
X158666667Y-144476190D01*
X158285714Y-144476190D01*
X159809524Y-144952381D02*
X159238095Y-144952381D01*
X159523809Y-144952381D02*
X159523809Y-143952381D01*
X159428571Y-144095238D01*
X159333333Y-144190476D01*
X159238095Y-144238095D01*
X160666667Y-143952381D02*
X160476190Y-143952381D01*
X160380952Y-144000000D01*
X160333333Y-144047619D01*
X160238095Y-144190476D01*
X160190476Y-144380952D01*
X160190476Y-144761905D01*
X160238095Y-144857143D01*
X160285714Y-144904762D01*
X160380952Y-144952381D01*
X160571429Y-144952381D01*
X160666667Y-144904762D01*
X160714286Y-144857143D01*
X160761905Y-144761905D01*
X160761905Y-144523810D01*
X160714286Y-144428571D01*
X160666667Y-144380952D01*
X160571429Y-144333333D01*
X160380952Y-144333333D01*
X160285714Y-144380952D01*
X160238095Y-144428571D01*
X160190476Y-144523810D01*
X97185714Y-115152381D02*
X97185714Y-114152381D01*
X97566667Y-114152381D01*
X97661905Y-114200000D01*
X97709524Y-114247619D01*
X97757143Y-114342857D01*
X97757143Y-114485714D01*
X97709524Y-114580952D01*
X97661905Y-114628571D01*
X97566667Y-114676190D01*
X97185714Y-114676190D01*
X98709524Y-115152381D02*
X98138095Y-115152381D01*
X98423809Y-115152381D02*
X98423809Y-114152381D01*
X98328571Y-114295238D01*
X98233333Y-114390476D01*
X98138095Y-114438095D01*
X99042857Y-114152381D02*
X99709524Y-114152381D01*
X99280952Y-115152381D01*
X212385714Y-104252381D02*
X212385714Y-103252381D01*
X212766667Y-103252381D01*
X212861905Y-103300000D01*
X212909524Y-103347619D01*
X212957143Y-103442857D01*
X212957143Y-103585714D01*
X212909524Y-103680952D01*
X212861905Y-103728571D01*
X212766667Y-103776190D01*
X212385714Y-103776190D01*
X213909524Y-104252381D02*
X213338095Y-104252381D01*
X213623809Y-104252381D02*
X213623809Y-103252381D01*
X213528571Y-103395238D01*
X213433333Y-103490476D01*
X213338095Y-103538095D01*
X214480952Y-103680952D02*
X214385714Y-103633333D01*
X214338095Y-103585714D01*
X214290476Y-103490476D01*
X214290476Y-103442857D01*
X214338095Y-103347619D01*
X214385714Y-103300000D01*
X214480952Y-103252381D01*
X214671429Y-103252381D01*
X214766667Y-103300000D01*
X214814286Y-103347619D01*
X214861905Y-103442857D01*
X214861905Y-103490476D01*
X214814286Y-103585714D01*
X214766667Y-103633333D01*
X214671429Y-103680952D01*
X214480952Y-103680952D01*
X214385714Y-103728571D01*
X214338095Y-103776190D01*
X214290476Y-103871429D01*
X214290476Y-104061905D01*
X214338095Y-104157143D01*
X214385714Y-104204762D01*
X214480952Y-104252381D01*
X214671429Y-104252381D01*
X214766667Y-104204762D01*
X214814286Y-104157143D01*
X214861905Y-104061905D01*
X214861905Y-103871429D01*
X214814286Y-103776190D01*
X214766667Y-103728571D01*
X214671429Y-103680952D01*
X142035714Y-145002381D02*
X142035714Y-144002381D01*
X142416667Y-144002381D01*
X142511905Y-144050000D01*
X142559524Y-144097619D01*
X142607143Y-144192857D01*
X142607143Y-144335714D01*
X142559524Y-144430952D01*
X142511905Y-144478571D01*
X142416667Y-144526190D01*
X142035714Y-144526190D01*
X143559524Y-145002381D02*
X142988095Y-145002381D01*
X143273809Y-145002381D02*
X143273809Y-144002381D01*
X143178571Y-144145238D01*
X143083333Y-144240476D01*
X142988095Y-144288095D01*
X144035714Y-145002381D02*
X144226190Y-145002381D01*
X144321429Y-144954762D01*
X144369048Y-144907143D01*
X144464286Y-144764286D01*
X144511905Y-144573810D01*
X144511905Y-144192857D01*
X144464286Y-144097619D01*
X144416667Y-144050000D01*
X144321429Y-144002381D01*
X144130952Y-144002381D01*
X144035714Y-144050000D01*
X143988095Y-144097619D01*
X143940476Y-144192857D01*
X143940476Y-144430952D01*
X143988095Y-144526190D01*
X144035714Y-144573810D01*
X144130952Y-144621429D01*
X144321429Y-144621429D01*
X144416667Y-144573810D01*
X144464286Y-144526190D01*
X144511905Y-144430952D01*
M02*
