G04 #@! TF.FileFunction,Soldermask,Top*
%FSLAX46Y46*%
G04 Gerber Fmt 4.6, Leading zero omitted, Abs format (unit mm)*
G04 Created by KiCad (PCBNEW 4.0.5) date Fri May 26 17:08:42 2017*
%MOMM*%
%LPD*%
G01*
G04 APERTURE LIST*
%ADD10C,0.100000*%
%ADD11C,1.700000*%
%ADD12R,1.700000X1.700000*%
%ADD13R,1.650000X1.900000*%
%ADD14R,5.900000X10.400000*%
%ADD15R,10.400000X5.900000*%
%ADD16R,2.432000X2.432000*%
%ADD17O,2.432000X2.432000*%
%ADD18R,1.300000X1.600000*%
%ADD19R,3.400000X10.400000*%
%ADD20R,10.400000X3.400000*%
%ADD21C,3.200000*%
%ADD22C,2.560000*%
%ADD23C,2.360000*%
%ADD24C,4.400000*%
%ADD25R,2.432000X2.127200*%
%ADD26O,2.432000X2.127200*%
%ADD27R,2.127200X2.127200*%
%ADD28O,2.127200X2.127200*%
%ADD29C,2.398980*%
%ADD30R,1.000000X0.800000*%
G04 APERTURE END LIST*
D10*
D11*
X144250000Y-43750000D03*
D12*
X141750000Y-43750000D03*
D11*
X135300000Y-48700000D03*
D12*
X135300000Y-51200000D03*
D11*
X122300000Y-48700000D03*
D12*
X122300000Y-51200000D03*
D11*
X128800000Y-45600000D03*
D12*
X128800000Y-48100000D03*
D13*
X92000000Y-41350000D03*
X92000000Y-43850000D03*
D11*
X78800000Y-53200000D03*
D12*
X78800000Y-50700000D03*
D14*
X203800000Y-46050000D03*
X196800000Y-46050000D03*
D15*
X102300000Y-145800000D03*
X102300000Y-138800000D03*
X208550000Y-80800000D03*
X208550000Y-73800000D03*
D16*
X203300000Y-123550000D03*
D17*
X203300000Y-126090000D03*
D15*
X208550000Y-145800000D03*
X208550000Y-138800000D03*
X102300000Y-80800000D03*
X102300000Y-73800000D03*
D16*
X88550000Y-65590000D03*
D17*
X88550000Y-63050000D03*
D18*
X92000000Y-49800000D03*
X92000000Y-47600000D03*
D19*
X165200000Y-55500000D03*
X181300000Y-55500000D03*
D20*
X173250000Y-63000000D03*
D19*
X173250000Y-45700000D03*
D21*
X151800000Y-52749999D03*
X151800000Y-48649999D03*
X151800000Y-44550000D03*
D22*
X112420000Y-43180000D03*
X99720000Y-43180000D03*
X96550000Y-43180000D03*
X112420000Y-55880000D03*
X112420000Y-50800000D03*
D23*
X96550000Y-45720000D03*
X96550000Y-48260000D03*
X96550000Y-50800000D03*
X96550000Y-53340000D03*
D22*
X96550000Y-55880000D03*
D24*
X115720000Y-79800000D03*
X115720000Y-89800000D03*
X115720000Y-119800000D03*
X115720000Y-129800000D03*
X115720000Y-139800000D03*
X194680000Y-139800000D03*
X194680000Y-119800000D03*
X194680000Y-89800000D03*
X194680000Y-129800000D03*
X194680000Y-79800000D03*
D25*
X96300000Y-90660000D03*
D26*
X96300000Y-93200000D03*
X96300000Y-95740000D03*
D25*
X91900000Y-120560000D03*
D26*
X91900000Y-123100000D03*
X91900000Y-125640000D03*
D25*
X218900000Y-91660000D03*
D26*
X218900000Y-94200000D03*
X218900000Y-96740000D03*
D25*
X219000000Y-120720000D03*
D26*
X219000000Y-123260000D03*
X219000000Y-125800000D03*
D27*
X180340000Y-140000000D03*
D28*
X177800000Y-140000000D03*
X180340000Y-137460000D03*
X177800000Y-137460000D03*
X180340000Y-134920000D03*
X177800000Y-134920000D03*
X180340000Y-132380000D03*
X177800000Y-132380000D03*
X180340000Y-129840000D03*
X177800000Y-129840000D03*
X180340000Y-127300000D03*
X177800000Y-127300000D03*
X180340000Y-124760000D03*
X177800000Y-124760000D03*
X180340000Y-122220000D03*
X177800000Y-122220000D03*
X180340000Y-119680000D03*
X177800000Y-119680000D03*
X180340000Y-117140000D03*
X177800000Y-117140000D03*
X180340000Y-114600000D03*
X177800000Y-114600000D03*
X180340000Y-112060000D03*
X177800000Y-112060000D03*
X180340000Y-109520000D03*
X177800000Y-109520000D03*
X180340000Y-106980000D03*
X177800000Y-106980000D03*
X180340000Y-104440000D03*
X177800000Y-104440000D03*
X180340000Y-101900000D03*
X177800000Y-101900000D03*
X180340000Y-99360000D03*
X177800000Y-99360000D03*
X180340000Y-96820000D03*
X177800000Y-96820000D03*
X180340000Y-94280000D03*
X177800000Y-94280000D03*
X180340000Y-91740000D03*
X177800000Y-91740000D03*
X180340000Y-89200000D03*
X177800000Y-89200000D03*
X180340000Y-86660000D03*
X177800000Y-86660000D03*
X180340000Y-84120000D03*
X177800000Y-84120000D03*
X180340000Y-81580000D03*
X177800000Y-81580000D03*
X180340000Y-79040000D03*
X177800000Y-79040000D03*
D27*
X129540000Y-140000000D03*
D28*
X127000000Y-140000000D03*
X129540000Y-137460000D03*
X127000000Y-137460000D03*
X129540000Y-134920000D03*
X127000000Y-134920000D03*
X129540000Y-132380000D03*
X127000000Y-132380000D03*
X129540000Y-129840000D03*
X127000000Y-129840000D03*
X129540000Y-127300000D03*
X127000000Y-127300000D03*
X129540000Y-124760000D03*
X127000000Y-124760000D03*
X129540000Y-122220000D03*
X127000000Y-122220000D03*
X129540000Y-119680000D03*
X127000000Y-119680000D03*
X129540000Y-117140000D03*
X127000000Y-117140000D03*
X129540000Y-114600000D03*
X127000000Y-114600000D03*
X129540000Y-112060000D03*
X127000000Y-112060000D03*
X129540000Y-109520000D03*
X127000000Y-109520000D03*
X129540000Y-106980000D03*
X127000000Y-106980000D03*
X129540000Y-104440000D03*
X127000000Y-104440000D03*
X129540000Y-101900000D03*
X127000000Y-101900000D03*
X129540000Y-99360000D03*
X127000000Y-99360000D03*
X129540000Y-96820000D03*
X127000000Y-96820000D03*
X129540000Y-94280000D03*
X127000000Y-94280000D03*
X129540000Y-91740000D03*
X127000000Y-91740000D03*
X129540000Y-89200000D03*
X127000000Y-89200000D03*
X129540000Y-86660000D03*
X127000000Y-86660000D03*
X129540000Y-84120000D03*
X127000000Y-84120000D03*
X129540000Y-81580000D03*
X127000000Y-81580000D03*
X129540000Y-79040000D03*
X127000000Y-79040000D03*
D25*
X217400000Y-45220000D03*
D26*
X217400000Y-47760000D03*
X217400000Y-50300000D03*
X217400000Y-52840000D03*
X217400000Y-55380000D03*
X217400000Y-57920000D03*
X217400000Y-60460000D03*
D29*
X138120000Y-56400000D03*
X148280000Y-56400000D03*
D13*
X117400000Y-48350000D03*
X117400000Y-50850000D03*
D11*
X83700000Y-41300000D03*
D12*
X83700000Y-43800000D03*
D30*
X188700000Y-51950000D03*
X188700000Y-51050000D03*
M02*
