G04 #@! TF.FileFunction,Legend,Top*
%FSLAX46Y46*%
G04 Gerber Fmt 4.6, Leading zero omitted, Abs format (unit mm)*
G04 Created by KiCad (PCBNEW 4.0.5) date Fri May 26 17:08:42 2017*
%MOMM*%
%LPD*%
G01*
G04 APERTURE LIST*
%ADD10C,0.100000*%
%ADD11C,0.300000*%
%ADD12C,0.200000*%
%ADD13C,0.150000*%
G04 APERTURE END LIST*
D10*
D11*
X210350000Y-101503571D02*
X210350000Y-100003571D01*
X210850000Y-101075000D01*
X211350000Y-100003571D01*
X211350000Y-101503571D01*
X211992857Y-100146429D02*
X212064286Y-100075000D01*
X212207143Y-100003571D01*
X212564286Y-100003571D01*
X212707143Y-100075000D01*
X212778572Y-100146429D01*
X212850000Y-100289286D01*
X212850000Y-100432143D01*
X212778572Y-100646429D01*
X211921429Y-101503571D01*
X212850000Y-101503571D01*
X214635714Y-101503571D02*
X214635714Y-100003571D01*
X215207142Y-100003571D01*
X215350000Y-100075000D01*
X215421428Y-100146429D01*
X215492857Y-100289286D01*
X215492857Y-100503571D01*
X215421428Y-100646429D01*
X215350000Y-100717857D01*
X215207142Y-100789286D01*
X214635714Y-100789286D01*
X215992857Y-100003571D02*
X216350000Y-101503571D01*
X216635714Y-100432143D01*
X216921428Y-101503571D01*
X217278571Y-100003571D01*
X217850000Y-101503571D02*
X217850000Y-100003571D01*
X218350000Y-101075000D01*
X218850000Y-100003571D01*
X218850000Y-101503571D01*
X212242857Y-104625000D02*
X212171429Y-104553571D01*
X212028572Y-104339286D01*
X211957143Y-104196429D01*
X211885714Y-103982143D01*
X211814286Y-103625000D01*
X211814286Y-103339286D01*
X211885714Y-102982143D01*
X211957143Y-102767857D01*
X212028572Y-102625000D01*
X212171429Y-102410714D01*
X212242857Y-102339286D01*
X212742857Y-103982143D02*
X212957143Y-104053571D01*
X213314286Y-104053571D01*
X213457143Y-103982143D01*
X213528572Y-103910714D01*
X213600000Y-103767857D01*
X213600000Y-103625000D01*
X213528572Y-103482143D01*
X213457143Y-103410714D01*
X213314286Y-103339286D01*
X213028572Y-103267857D01*
X212885714Y-103196429D01*
X212814286Y-103125000D01*
X212742857Y-102982143D01*
X212742857Y-102839286D01*
X212814286Y-102696429D01*
X212885714Y-102625000D01*
X213028572Y-102553571D01*
X213385714Y-102553571D01*
X213600000Y-102625000D01*
X214028571Y-102553571D02*
X214885714Y-102553571D01*
X214457143Y-104053571D02*
X214457143Y-102553571D01*
X215385714Y-104053571D02*
X215385714Y-102553571D01*
X215885714Y-103625000D01*
X216385714Y-102553571D01*
X216385714Y-104053571D01*
X216957143Y-104625000D02*
X217028571Y-104553571D01*
X217171428Y-104339286D01*
X217242857Y-104196429D01*
X217314286Y-103982143D01*
X217385714Y-103625000D01*
X217385714Y-103339286D01*
X217314286Y-102982143D01*
X217242857Y-102767857D01*
X217171428Y-102625000D01*
X217028571Y-102410714D01*
X216957143Y-102339286D01*
X209750000Y-115703571D02*
X209750000Y-114203571D01*
X210250000Y-115275000D01*
X210750000Y-114203571D01*
X210750000Y-115703571D01*
X211321429Y-114203571D02*
X212250000Y-114203571D01*
X211750000Y-114775000D01*
X211964286Y-114775000D01*
X212107143Y-114846429D01*
X212178572Y-114917857D01*
X212250000Y-115060714D01*
X212250000Y-115417857D01*
X212178572Y-115560714D01*
X212107143Y-115632143D01*
X211964286Y-115703571D01*
X211535714Y-115703571D01*
X211392857Y-115632143D01*
X211321429Y-115560714D01*
X214035714Y-115703571D02*
X214035714Y-114203571D01*
X214607142Y-114203571D01*
X214750000Y-114275000D01*
X214821428Y-114346429D01*
X214892857Y-114489286D01*
X214892857Y-114703571D01*
X214821428Y-114846429D01*
X214750000Y-114917857D01*
X214607142Y-114989286D01*
X214035714Y-114989286D01*
X215392857Y-114203571D02*
X215750000Y-115703571D01*
X216035714Y-114632143D01*
X216321428Y-115703571D01*
X216678571Y-114203571D01*
X217250000Y-115703571D02*
X217250000Y-114203571D01*
X217750000Y-115275000D01*
X218250000Y-114203571D01*
X218250000Y-115703571D01*
X211642857Y-118825000D02*
X211571429Y-118753571D01*
X211428572Y-118539286D01*
X211357143Y-118396429D01*
X211285714Y-118182143D01*
X211214286Y-117825000D01*
X211214286Y-117539286D01*
X211285714Y-117182143D01*
X211357143Y-116967857D01*
X211428572Y-116825000D01*
X211571429Y-116610714D01*
X211642857Y-116539286D01*
X212142857Y-118182143D02*
X212357143Y-118253571D01*
X212714286Y-118253571D01*
X212857143Y-118182143D01*
X212928572Y-118110714D01*
X213000000Y-117967857D01*
X213000000Y-117825000D01*
X212928572Y-117682143D01*
X212857143Y-117610714D01*
X212714286Y-117539286D01*
X212428572Y-117467857D01*
X212285714Y-117396429D01*
X212214286Y-117325000D01*
X212142857Y-117182143D01*
X212142857Y-117039286D01*
X212214286Y-116896429D01*
X212285714Y-116825000D01*
X212428572Y-116753571D01*
X212785714Y-116753571D01*
X213000000Y-116825000D01*
X213428571Y-116753571D02*
X214285714Y-116753571D01*
X213857143Y-118253571D02*
X213857143Y-116753571D01*
X214785714Y-118253571D02*
X214785714Y-116753571D01*
X215285714Y-117825000D01*
X215785714Y-116753571D01*
X215785714Y-118253571D01*
X216357143Y-118825000D02*
X216428571Y-118753571D01*
X216571428Y-118539286D01*
X216642857Y-118396429D01*
X216714286Y-118182143D01*
X216785714Y-117825000D01*
X216785714Y-117539286D01*
X216714286Y-117182143D01*
X216642857Y-116967857D01*
X216571428Y-116825000D01*
X216428571Y-116610714D01*
X216357143Y-116539286D01*
X95035715Y-120878571D02*
X95035715Y-119378571D01*
X95535715Y-120450000D01*
X96035715Y-119378571D01*
X96035715Y-120878571D01*
X97392858Y-119878571D02*
X97392858Y-120878571D01*
X97035715Y-119307143D02*
X96678572Y-120378571D01*
X97607144Y-120378571D01*
X99321429Y-120878571D02*
X99321429Y-119378571D01*
X99892857Y-119378571D01*
X100035715Y-119450000D01*
X100107143Y-119521429D01*
X100178572Y-119664286D01*
X100178572Y-119878571D01*
X100107143Y-120021429D01*
X100035715Y-120092857D01*
X99892857Y-120164286D01*
X99321429Y-120164286D01*
X100678572Y-119378571D02*
X101035715Y-120878571D01*
X101321429Y-119807143D01*
X101607143Y-120878571D01*
X101964286Y-119378571D01*
X102535715Y-120878571D02*
X102535715Y-119378571D01*
X103035715Y-120450000D01*
X103535715Y-119378571D01*
X103535715Y-120878571D01*
X105821429Y-121450000D02*
X105750001Y-121378571D01*
X105607144Y-121164286D01*
X105535715Y-121021429D01*
X105464286Y-120807143D01*
X105392858Y-120450000D01*
X105392858Y-120164286D01*
X105464286Y-119807143D01*
X105535715Y-119592857D01*
X105607144Y-119450000D01*
X105750001Y-119235714D01*
X105821429Y-119164286D01*
X106321429Y-120807143D02*
X106535715Y-120878571D01*
X106892858Y-120878571D01*
X107035715Y-120807143D01*
X107107144Y-120735714D01*
X107178572Y-120592857D01*
X107178572Y-120450000D01*
X107107144Y-120307143D01*
X107035715Y-120235714D01*
X106892858Y-120164286D01*
X106607144Y-120092857D01*
X106464286Y-120021429D01*
X106392858Y-119950000D01*
X106321429Y-119807143D01*
X106321429Y-119664286D01*
X106392858Y-119521429D01*
X106464286Y-119450000D01*
X106607144Y-119378571D01*
X106964286Y-119378571D01*
X107178572Y-119450000D01*
X107607143Y-119378571D02*
X108464286Y-119378571D01*
X108035715Y-120878571D02*
X108035715Y-119378571D01*
X108964286Y-120878571D02*
X108964286Y-119378571D01*
X109464286Y-120450000D01*
X109964286Y-119378571D01*
X109964286Y-120878571D01*
X110535715Y-121450000D02*
X110607143Y-121378571D01*
X110750000Y-121164286D01*
X110821429Y-121021429D01*
X110892858Y-120807143D01*
X110964286Y-120450000D01*
X110964286Y-120164286D01*
X110892858Y-119807143D01*
X110821429Y-119592857D01*
X110750000Y-119450000D01*
X110607143Y-119235714D01*
X110535715Y-119164286D01*
X95535715Y-100078571D02*
X95535715Y-98578571D01*
X96035715Y-99650000D01*
X96535715Y-98578571D01*
X96535715Y-100078571D01*
X98035715Y-100078571D02*
X97178572Y-100078571D01*
X97607144Y-100078571D02*
X97607144Y-98578571D01*
X97464287Y-98792857D01*
X97321429Y-98935714D01*
X97178572Y-99007143D01*
X99821429Y-100078571D02*
X99821429Y-98578571D01*
X100392857Y-98578571D01*
X100535715Y-98650000D01*
X100607143Y-98721429D01*
X100678572Y-98864286D01*
X100678572Y-99078571D01*
X100607143Y-99221429D01*
X100535715Y-99292857D01*
X100392857Y-99364286D01*
X99821429Y-99364286D01*
X101178572Y-98578571D02*
X101535715Y-100078571D01*
X101821429Y-99007143D01*
X102107143Y-100078571D01*
X102464286Y-98578571D01*
X103035715Y-100078571D02*
X103035715Y-98578571D01*
X103535715Y-99650000D01*
X104035715Y-98578571D01*
X104035715Y-100078571D01*
X106321429Y-100650000D02*
X106250001Y-100578571D01*
X106107144Y-100364286D01*
X106035715Y-100221429D01*
X105964286Y-100007143D01*
X105892858Y-99650000D01*
X105892858Y-99364286D01*
X105964286Y-99007143D01*
X106035715Y-98792857D01*
X106107144Y-98650000D01*
X106250001Y-98435714D01*
X106321429Y-98364286D01*
X106821429Y-100007143D02*
X107035715Y-100078571D01*
X107392858Y-100078571D01*
X107535715Y-100007143D01*
X107607144Y-99935714D01*
X107678572Y-99792857D01*
X107678572Y-99650000D01*
X107607144Y-99507143D01*
X107535715Y-99435714D01*
X107392858Y-99364286D01*
X107107144Y-99292857D01*
X106964286Y-99221429D01*
X106892858Y-99150000D01*
X106821429Y-99007143D01*
X106821429Y-98864286D01*
X106892858Y-98721429D01*
X106964286Y-98650000D01*
X107107144Y-98578571D01*
X107464286Y-98578571D01*
X107678572Y-98650000D01*
X108107143Y-98578571D02*
X108964286Y-98578571D01*
X108535715Y-100078571D02*
X108535715Y-98578571D01*
X109464286Y-100078571D02*
X109464286Y-98578571D01*
X109964286Y-99650000D01*
X110464286Y-98578571D01*
X110464286Y-100078571D01*
X111035715Y-100650000D02*
X111107143Y-100578571D01*
X111250000Y-100364286D01*
X111321429Y-100221429D01*
X111392858Y-100007143D01*
X111464286Y-99650000D01*
X111464286Y-99364286D01*
X111392858Y-99007143D01*
X111321429Y-98792857D01*
X111250000Y-98650000D01*
X111107143Y-98435714D01*
X111035715Y-98364286D01*
X160342858Y-117578571D02*
X160700001Y-118578571D01*
X161057143Y-117578571D02*
X160700001Y-118578571D01*
X160557143Y-118935714D01*
X160485715Y-119007143D01*
X160342858Y-119078571D01*
X170507143Y-128178571D02*
X171292857Y-127178571D01*
X170507143Y-127178571D02*
X171292857Y-128178571D01*
X199500000Y-129285714D02*
X199500000Y-128571428D01*
X199928571Y-129428571D02*
X198428571Y-128928571D01*
X199928571Y-128428571D01*
X199928571Y-127928571D02*
X198428571Y-127928571D01*
X198428571Y-127357143D01*
X198500000Y-127214285D01*
X198571429Y-127142857D01*
X198714286Y-127071428D01*
X198928571Y-127071428D01*
X199071429Y-127142857D01*
X199142857Y-127214285D01*
X199214286Y-127357143D01*
X199214286Y-127928571D01*
X199928571Y-125285714D02*
X198428571Y-125285714D01*
X198428571Y-124714286D01*
X198500000Y-124571428D01*
X198571429Y-124500000D01*
X198714286Y-124428571D01*
X198928571Y-124428571D01*
X199071429Y-124500000D01*
X199142857Y-124571428D01*
X199214286Y-124714286D01*
X199214286Y-125285714D01*
X198428571Y-123928571D02*
X199928571Y-123571428D01*
X198857143Y-123285714D01*
X199928571Y-123000000D01*
X198428571Y-122642857D01*
X199928571Y-121214285D02*
X199214286Y-121714285D01*
X199928571Y-122071428D02*
X198428571Y-122071428D01*
X198428571Y-121500000D01*
X198500000Y-121357142D01*
X198571429Y-121285714D01*
X198714286Y-121214285D01*
X198928571Y-121214285D01*
X199071429Y-121285714D01*
X199142857Y-121357142D01*
X199214286Y-121500000D01*
X199214286Y-122071428D01*
X77285714Y-57678571D02*
X77571428Y-57678571D01*
X77714286Y-57750000D01*
X77857143Y-57892857D01*
X77928571Y-58178571D01*
X77928571Y-58678571D01*
X77857143Y-58964286D01*
X77714286Y-59107143D01*
X77571428Y-59178571D01*
X77285714Y-59178571D01*
X77142857Y-59107143D01*
X77000000Y-58964286D01*
X76928571Y-58678571D01*
X76928571Y-58178571D01*
X77000000Y-57892857D01*
X77142857Y-57750000D01*
X77285714Y-57678571D01*
X78571429Y-59178571D02*
X78571429Y-57678571D01*
X78928572Y-57678571D01*
X79142857Y-57750000D01*
X79285715Y-57892857D01*
X79357143Y-58035714D01*
X79428572Y-58321429D01*
X79428572Y-58535714D01*
X79357143Y-58821429D01*
X79285715Y-58964286D01*
X79142857Y-59107143D01*
X78928572Y-59178571D01*
X78571429Y-59178571D01*
X80928572Y-59178571D02*
X80428572Y-58464286D01*
X80071429Y-59178571D02*
X80071429Y-57678571D01*
X80642857Y-57678571D01*
X80785715Y-57750000D01*
X80857143Y-57821429D01*
X80928572Y-57964286D01*
X80928572Y-58178571D01*
X80857143Y-58321429D01*
X80785715Y-58392857D01*
X80642857Y-58464286D01*
X80071429Y-58464286D01*
X81857143Y-57678571D02*
X82142857Y-57678571D01*
X82285715Y-57750000D01*
X82428572Y-57892857D01*
X82500000Y-58178571D01*
X82500000Y-58678571D01*
X82428572Y-58964286D01*
X82285715Y-59107143D01*
X82142857Y-59178571D01*
X81857143Y-59178571D01*
X81714286Y-59107143D01*
X81571429Y-58964286D01*
X81500000Y-58678571D01*
X81500000Y-58178571D01*
X81571429Y-57892857D01*
X81714286Y-57750000D01*
X81857143Y-57678571D01*
X83142858Y-59178571D02*
X83142858Y-57678571D01*
X83857144Y-59178571D02*
X83857144Y-57678571D01*
X84214287Y-57678571D01*
X84428572Y-57750000D01*
X84571430Y-57892857D01*
X84642858Y-58035714D01*
X84714287Y-58321429D01*
X84714287Y-58535714D01*
X84642858Y-58821429D01*
X84571430Y-58964286D01*
X84428572Y-59107143D01*
X84214287Y-59178571D01*
X83857144Y-59178571D01*
X86500001Y-59178571D02*
X86500001Y-57678571D01*
X87071429Y-57678571D01*
X87214287Y-57750000D01*
X87285715Y-57821429D01*
X87357144Y-57964286D01*
X87357144Y-58178571D01*
X87285715Y-58321429D01*
X87214287Y-58392857D01*
X87071429Y-58464286D01*
X86500001Y-58464286D01*
X87857144Y-57678571D02*
X88214287Y-59178571D01*
X88500001Y-58107143D01*
X88785715Y-59178571D01*
X89142858Y-57678571D01*
X90571430Y-59178571D02*
X90071430Y-58464286D01*
X89714287Y-59178571D02*
X89714287Y-57678571D01*
X90285715Y-57678571D01*
X90428573Y-57750000D01*
X90500001Y-57821429D01*
X90571430Y-57964286D01*
X90571430Y-58178571D01*
X90500001Y-58321429D01*
X90428573Y-58392857D01*
X90285715Y-58464286D01*
X89714287Y-58464286D01*
D12*
X170557738Y-119857737D02*
G75*
G03X170557738Y-119857737I-1457738J0D01*
G01*
X163200000Y-118600000D02*
X161450000Y-119850000D01*
X163250000Y-121150000D02*
X161500000Y-119900000D01*
X161600000Y-119900000D02*
X169100000Y-119900000D01*
X167850000Y-125900000D02*
X169100000Y-127400000D01*
X170350000Y-125900000D02*
X169100000Y-127400000D01*
X169100000Y-127400000D02*
X169100000Y-119900000D01*
D11*
X153178571Y-42071429D02*
X152892857Y-42071429D01*
X152749999Y-42000000D01*
X152607142Y-41857143D01*
X152535714Y-41571429D01*
X152535714Y-41071429D01*
X152607142Y-40785714D01*
X152749999Y-40642857D01*
X152892857Y-40571429D01*
X153178571Y-40571429D01*
X153321428Y-40642857D01*
X153464285Y-40785714D01*
X153535714Y-41071429D01*
X153535714Y-41571429D01*
X153464285Y-41857143D01*
X153321428Y-42000000D01*
X153178571Y-42071429D01*
X151392856Y-41357143D02*
X151892856Y-41357143D01*
X151892856Y-40571429D02*
X151892856Y-42071429D01*
X151178570Y-42071429D01*
X150107142Y-41357143D02*
X150607142Y-41357143D01*
X150607142Y-40571429D02*
X150607142Y-42071429D01*
X149892856Y-42071429D01*
X152678572Y-57571429D02*
X152392858Y-57571429D01*
X152250000Y-57500000D01*
X152107143Y-57357143D01*
X152035715Y-57071429D01*
X152035715Y-56571429D01*
X152107143Y-56285714D01*
X152250000Y-56142857D01*
X152392858Y-56071429D01*
X152678572Y-56071429D01*
X152821429Y-56142857D01*
X152964286Y-56285714D01*
X153035715Y-56571429D01*
X153035715Y-57071429D01*
X152964286Y-57357143D01*
X152821429Y-57500000D01*
X152678572Y-57571429D01*
X151392857Y-56071429D02*
X151392857Y-57571429D01*
X150535714Y-56071429D01*
X150535714Y-57571429D01*
X97607143Y-132928571D02*
X97607143Y-131428571D01*
X98107143Y-132500000D01*
X98607143Y-131428571D01*
X98607143Y-132928571D01*
X99964286Y-131928571D02*
X99964286Y-132928571D01*
X99607143Y-131357143D02*
X99250000Y-132428571D01*
X100178572Y-132428571D01*
X101892857Y-132928571D02*
X101892857Y-131428571D01*
X102464285Y-131428571D01*
X102607143Y-131500000D01*
X102678571Y-131571429D01*
X102750000Y-131714286D01*
X102750000Y-131928571D01*
X102678571Y-132071429D01*
X102607143Y-132142857D01*
X102464285Y-132214286D01*
X101892857Y-132214286D01*
X103250000Y-131428571D02*
X103607143Y-132928571D01*
X103892857Y-131857143D01*
X104178571Y-132928571D01*
X104535714Y-131428571D01*
X105964286Y-132928571D02*
X105464286Y-132214286D01*
X105107143Y-132928571D02*
X105107143Y-131428571D01*
X105678571Y-131428571D01*
X105821429Y-131500000D01*
X105892857Y-131571429D01*
X105964286Y-131714286D01*
X105964286Y-131928571D01*
X105892857Y-132071429D01*
X105821429Y-132142857D01*
X105678571Y-132214286D01*
X105107143Y-132214286D01*
X204357143Y-132928571D02*
X204357143Y-131428571D01*
X204857143Y-132500000D01*
X205357143Y-131428571D01*
X205357143Y-132928571D01*
X205928572Y-131428571D02*
X206857143Y-131428571D01*
X206357143Y-132000000D01*
X206571429Y-132000000D01*
X206714286Y-132071429D01*
X206785715Y-132142857D01*
X206857143Y-132285714D01*
X206857143Y-132642857D01*
X206785715Y-132785714D01*
X206714286Y-132857143D01*
X206571429Y-132928571D01*
X206142857Y-132928571D01*
X206000000Y-132857143D01*
X205928572Y-132785714D01*
X208642857Y-132928571D02*
X208642857Y-131428571D01*
X209214285Y-131428571D01*
X209357143Y-131500000D01*
X209428571Y-131571429D01*
X209500000Y-131714286D01*
X209500000Y-131928571D01*
X209428571Y-132071429D01*
X209357143Y-132142857D01*
X209214285Y-132214286D01*
X208642857Y-132214286D01*
X210000000Y-131428571D02*
X210357143Y-132928571D01*
X210642857Y-131857143D01*
X210928571Y-132928571D01*
X211285714Y-131428571D01*
X212714286Y-132928571D02*
X212214286Y-132214286D01*
X211857143Y-132928571D02*
X211857143Y-131428571D01*
X212428571Y-131428571D01*
X212571429Y-131500000D01*
X212642857Y-131571429D01*
X212714286Y-131714286D01*
X212714286Y-131928571D01*
X212642857Y-132071429D01*
X212571429Y-132142857D01*
X212428571Y-132214286D01*
X211857143Y-132214286D01*
X204357143Y-88178571D02*
X204357143Y-86678571D01*
X204857143Y-87750000D01*
X205357143Y-86678571D01*
X205357143Y-88178571D01*
X206000000Y-86821429D02*
X206071429Y-86750000D01*
X206214286Y-86678571D01*
X206571429Y-86678571D01*
X206714286Y-86750000D01*
X206785715Y-86821429D01*
X206857143Y-86964286D01*
X206857143Y-87107143D01*
X206785715Y-87321429D01*
X205928572Y-88178571D01*
X206857143Y-88178571D01*
X208642857Y-88178571D02*
X208642857Y-86678571D01*
X209214285Y-86678571D01*
X209357143Y-86750000D01*
X209428571Y-86821429D01*
X209500000Y-86964286D01*
X209500000Y-87178571D01*
X209428571Y-87321429D01*
X209357143Y-87392857D01*
X209214285Y-87464286D01*
X208642857Y-87464286D01*
X210000000Y-86678571D02*
X210357143Y-88178571D01*
X210642857Y-87107143D01*
X210928571Y-88178571D01*
X211285714Y-86678571D01*
X212714286Y-88178571D02*
X212214286Y-87464286D01*
X211857143Y-88178571D02*
X211857143Y-86678571D01*
X212428571Y-86678571D01*
X212571429Y-86750000D01*
X212642857Y-86821429D01*
X212714286Y-86964286D01*
X212714286Y-87178571D01*
X212642857Y-87321429D01*
X212571429Y-87392857D01*
X212428571Y-87464286D01*
X211857143Y-87464286D01*
X97607143Y-88178571D02*
X97607143Y-86678571D01*
X98107143Y-87750000D01*
X98607143Y-86678571D01*
X98607143Y-88178571D01*
X100107143Y-88178571D02*
X99250000Y-88178571D01*
X99678572Y-88178571D02*
X99678572Y-86678571D01*
X99535715Y-86892857D01*
X99392857Y-87035714D01*
X99250000Y-87107143D01*
X101892857Y-88178571D02*
X101892857Y-86678571D01*
X102464285Y-86678571D01*
X102607143Y-86750000D01*
X102678571Y-86821429D01*
X102750000Y-86964286D01*
X102750000Y-87178571D01*
X102678571Y-87321429D01*
X102607143Y-87392857D01*
X102464285Y-87464286D01*
X101892857Y-87464286D01*
X103250000Y-86678571D02*
X103607143Y-88178571D01*
X103892857Y-87107143D01*
X104178571Y-88178571D01*
X104535714Y-86678571D01*
X105964286Y-88178571D02*
X105464286Y-87464286D01*
X105107143Y-88178571D02*
X105107143Y-86678571D01*
X105678571Y-86678571D01*
X105821429Y-86750000D01*
X105892857Y-86821429D01*
X105964286Y-86964286D01*
X105964286Y-87178571D01*
X105892857Y-87321429D01*
X105821429Y-87392857D01*
X105678571Y-87464286D01*
X105107143Y-87464286D01*
X194242857Y-57128571D02*
X194242857Y-55628571D01*
X194742857Y-56700000D01*
X195242857Y-55628571D01*
X195242857Y-57128571D01*
X196600000Y-57128571D02*
X196600000Y-56342857D01*
X196528571Y-56200000D01*
X196385714Y-56128571D01*
X196100000Y-56128571D01*
X195957143Y-56200000D01*
X196600000Y-57057143D02*
X196457143Y-57128571D01*
X196100000Y-57128571D01*
X195957143Y-57057143D01*
X195885714Y-56914286D01*
X195885714Y-56771429D01*
X195957143Y-56628571D01*
X196100000Y-56557143D01*
X196457143Y-56557143D01*
X196600000Y-56485714D01*
X197314286Y-57128571D02*
X197314286Y-56128571D01*
X197314286Y-55628571D02*
X197242857Y-55700000D01*
X197314286Y-55771429D01*
X197385714Y-55700000D01*
X197314286Y-55628571D01*
X197314286Y-55771429D01*
X198028572Y-56128571D02*
X198028572Y-57128571D01*
X198028572Y-56271429D02*
X198100000Y-56200000D01*
X198242858Y-56128571D01*
X198457143Y-56128571D01*
X198600000Y-56200000D01*
X198671429Y-56342857D01*
X198671429Y-57128571D01*
X200528572Y-57128571D02*
X200528572Y-55628571D01*
X201100000Y-55628571D01*
X201242858Y-55700000D01*
X201314286Y-55771429D01*
X201385715Y-55914286D01*
X201385715Y-56128571D01*
X201314286Y-56271429D01*
X201242858Y-56342857D01*
X201100000Y-56414286D01*
X200528572Y-56414286D01*
X201885715Y-55628571D02*
X202242858Y-57128571D01*
X202528572Y-56057143D01*
X202814286Y-57128571D01*
X203171429Y-55628571D01*
X204600001Y-57128571D02*
X204100001Y-56414286D01*
X203742858Y-57128571D02*
X203742858Y-55628571D01*
X204314286Y-55628571D01*
X204457144Y-55700000D01*
X204528572Y-55771429D01*
X204600001Y-55914286D01*
X204600001Y-56128571D01*
X204528572Y-56271429D01*
X204457144Y-56342857D01*
X204314286Y-56414286D01*
X203742858Y-56414286D01*
X206385715Y-57128571D02*
X206385715Y-55628571D01*
X207100001Y-57128571D02*
X207100001Y-55628571D01*
X207957144Y-57128571D01*
X207957144Y-55628571D01*
X133800001Y-133546429D02*
X133657144Y-133475000D01*
X133514287Y-133332143D01*
X133300001Y-133117857D01*
X133157144Y-133046429D01*
X133014287Y-133046429D01*
X133085715Y-133403571D02*
X132942858Y-133332143D01*
X132800001Y-133189286D01*
X132728572Y-132903571D01*
X132728572Y-132403571D01*
X132800001Y-132117857D01*
X132942858Y-131975000D01*
X133085715Y-131903571D01*
X133371429Y-131903571D01*
X133514287Y-131975000D01*
X133657144Y-132117857D01*
X133728572Y-132403571D01*
X133728572Y-132903571D01*
X133657144Y-133189286D01*
X133514287Y-133332143D01*
X133371429Y-133403571D01*
X133085715Y-133403571D01*
X135014287Y-132403571D02*
X135014287Y-133403571D01*
X134371430Y-132403571D02*
X134371430Y-133189286D01*
X134442858Y-133332143D01*
X134585716Y-133403571D01*
X134800001Y-133403571D01*
X134942858Y-133332143D01*
X135014287Y-133260714D01*
X136371430Y-133403571D02*
X136371430Y-132617857D01*
X136300001Y-132475000D01*
X136157144Y-132403571D01*
X135871430Y-132403571D01*
X135728573Y-132475000D01*
X136371430Y-133332143D02*
X136228573Y-133403571D01*
X135871430Y-133403571D01*
X135728573Y-133332143D01*
X135657144Y-133189286D01*
X135657144Y-133046429D01*
X135728573Y-132903571D01*
X135871430Y-132832143D01*
X136228573Y-132832143D01*
X136371430Y-132760714D01*
X137728573Y-133403571D02*
X137728573Y-131903571D01*
X137728573Y-133332143D02*
X137585716Y-133403571D01*
X137300002Y-133403571D01*
X137157144Y-133332143D01*
X137085716Y-133260714D01*
X137014287Y-133117857D01*
X137014287Y-132689286D01*
X137085716Y-132546429D01*
X137157144Y-132475000D01*
X137300002Y-132403571D01*
X137585716Y-132403571D01*
X137728573Y-132475000D01*
X139085716Y-133332143D02*
X138942859Y-133403571D01*
X138657145Y-133403571D01*
X138514287Y-133332143D01*
X138442859Y-133260714D01*
X138371430Y-133117857D01*
X138371430Y-132689286D01*
X138442859Y-132546429D01*
X138514287Y-132475000D01*
X138657145Y-132403571D01*
X138942859Y-132403571D01*
X139085716Y-132475000D01*
X139942859Y-133403571D02*
X139800001Y-133332143D01*
X139728573Y-133260714D01*
X139657144Y-133117857D01*
X139657144Y-132689286D01*
X139728573Y-132546429D01*
X139800001Y-132475000D01*
X139942859Y-132403571D01*
X140157144Y-132403571D01*
X140300001Y-132475000D01*
X140371430Y-132546429D01*
X140442859Y-132689286D01*
X140442859Y-133117857D01*
X140371430Y-133260714D01*
X140300001Y-133332143D01*
X140157144Y-133403571D01*
X139942859Y-133403571D01*
X141085716Y-132403571D02*
X141085716Y-133903571D01*
X141085716Y-132475000D02*
X141228573Y-132403571D01*
X141514287Y-132403571D01*
X141657144Y-132475000D01*
X141728573Y-132546429D01*
X141800002Y-132689286D01*
X141800002Y-133117857D01*
X141728573Y-133260714D01*
X141657144Y-133332143D01*
X141514287Y-133403571D01*
X141228573Y-133403571D01*
X141085716Y-133332143D01*
X142228573Y-132403571D02*
X142800002Y-132403571D01*
X142442859Y-131903571D02*
X142442859Y-133189286D01*
X142514287Y-133332143D01*
X142657145Y-133403571D01*
X142800002Y-133403571D01*
X143871430Y-133332143D02*
X143728573Y-133403571D01*
X143442859Y-133403571D01*
X143300002Y-133332143D01*
X143228573Y-133189286D01*
X143228573Y-132617857D01*
X143300002Y-132475000D01*
X143442859Y-132403571D01*
X143728573Y-132403571D01*
X143871430Y-132475000D01*
X143942859Y-132617857D01*
X143942859Y-132760714D01*
X143228573Y-132903571D01*
X144585716Y-133403571D02*
X144585716Y-132403571D01*
X144585716Y-132689286D02*
X144657144Y-132546429D01*
X144728573Y-132475000D01*
X144871430Y-132403571D01*
X145014287Y-132403571D01*
X146657144Y-133403571D02*
X146657144Y-131903571D01*
X147228572Y-131903571D01*
X147371430Y-131975000D01*
X147442858Y-132046429D01*
X147514287Y-132189286D01*
X147514287Y-132403571D01*
X147442858Y-132546429D01*
X147371430Y-132617857D01*
X147228572Y-132689286D01*
X146657144Y-132689286D01*
X148157144Y-133403571D02*
X148157144Y-131903571D01*
X148514287Y-131903571D01*
X148728572Y-131975000D01*
X148871430Y-132117857D01*
X148942858Y-132260714D01*
X149014287Y-132546429D01*
X149014287Y-132760714D01*
X148942858Y-133046429D01*
X148871430Y-133189286D01*
X148728572Y-133332143D01*
X148514287Y-133403571D01*
X148157144Y-133403571D01*
X150157144Y-132617857D02*
X150371430Y-132689286D01*
X150442858Y-132760714D01*
X150514287Y-132903571D01*
X150514287Y-133117857D01*
X150442858Y-133260714D01*
X150371430Y-133332143D01*
X150228572Y-133403571D01*
X149657144Y-133403571D01*
X149657144Y-131903571D01*
X150157144Y-131903571D01*
X150300001Y-131975000D01*
X150371430Y-132046429D01*
X150442858Y-132189286D01*
X150442858Y-132332143D01*
X150371430Y-132475000D01*
X150300001Y-132546429D01*
X150157144Y-132617857D01*
X149657144Y-132617857D01*
X153157144Y-133403571D02*
X152657144Y-132689286D01*
X152300001Y-133403571D02*
X152300001Y-131903571D01*
X152871429Y-131903571D01*
X153014287Y-131975000D01*
X153085715Y-132046429D01*
X153157144Y-132189286D01*
X153157144Y-132403571D01*
X153085715Y-132546429D01*
X153014287Y-132617857D01*
X152871429Y-132689286D01*
X152300001Y-132689286D01*
X154371429Y-133332143D02*
X154228572Y-133403571D01*
X153942858Y-133403571D01*
X153800001Y-133332143D01*
X153728572Y-133189286D01*
X153728572Y-132617857D01*
X153800001Y-132475000D01*
X153942858Y-132403571D01*
X154228572Y-132403571D01*
X154371429Y-132475000D01*
X154442858Y-132617857D01*
X154442858Y-132760714D01*
X153728572Y-132903571D01*
X154942858Y-132403571D02*
X155300001Y-133403571D01*
X155657143Y-132403571D01*
X158157143Y-133403571D02*
X157300000Y-133403571D01*
X157728572Y-133403571D02*
X157728572Y-131903571D01*
X157585715Y-132117857D01*
X157442857Y-132260714D01*
X157300000Y-132332143D01*
X158800000Y-133260714D02*
X158871428Y-133332143D01*
X158800000Y-133403571D01*
X158728571Y-133332143D01*
X158800000Y-133260714D01*
X158800000Y-133403571D01*
X159371429Y-131903571D02*
X160300000Y-131903571D01*
X159800000Y-132475000D01*
X160014286Y-132475000D01*
X160157143Y-132546429D01*
X160228572Y-132617857D01*
X160300000Y-132760714D01*
X160300000Y-133117857D01*
X160228572Y-133260714D01*
X160157143Y-133332143D01*
X160014286Y-133403571D01*
X159585714Y-133403571D01*
X159442857Y-133332143D01*
X159371429Y-133260714D01*
X162514285Y-133975000D02*
X162442857Y-133903571D01*
X162300000Y-133689286D01*
X162228571Y-133546429D01*
X162157142Y-133332143D01*
X162085714Y-132975000D01*
X162085714Y-132689286D01*
X162157142Y-132332143D01*
X162228571Y-132117857D01*
X162300000Y-131975000D01*
X162442857Y-131760714D01*
X162514285Y-131689286D01*
X163585714Y-132617857D02*
X163085714Y-132617857D01*
X163085714Y-133403571D02*
X163085714Y-131903571D01*
X163800000Y-131903571D01*
X164585714Y-133403571D02*
X164442856Y-133332143D01*
X164371428Y-133189286D01*
X164371428Y-131903571D01*
X165157142Y-133403571D02*
X165157142Y-132403571D01*
X165157142Y-131903571D02*
X165085713Y-131975000D01*
X165157142Y-132046429D01*
X165228570Y-131975000D01*
X165157142Y-131903571D01*
X165157142Y-132046429D01*
X166514285Y-132403571D02*
X166514285Y-133617857D01*
X166442856Y-133760714D01*
X166371428Y-133832143D01*
X166228571Y-133903571D01*
X166014285Y-133903571D01*
X165871428Y-133832143D01*
X166514285Y-133332143D02*
X166371428Y-133403571D01*
X166085714Y-133403571D01*
X165942856Y-133332143D01*
X165871428Y-133260714D01*
X165799999Y-133117857D01*
X165799999Y-132689286D01*
X165871428Y-132546429D01*
X165942856Y-132475000D01*
X166085714Y-132403571D01*
X166371428Y-132403571D01*
X166514285Y-132475000D01*
X167228571Y-133403571D02*
X167228571Y-131903571D01*
X167871428Y-133403571D02*
X167871428Y-132617857D01*
X167799999Y-132475000D01*
X167657142Y-132403571D01*
X167442857Y-132403571D01*
X167299999Y-132475000D01*
X167228571Y-132546429D01*
X168371428Y-132403571D02*
X168942857Y-132403571D01*
X168585714Y-131903571D02*
X168585714Y-133189286D01*
X168657142Y-133332143D01*
X168800000Y-133403571D01*
X168942857Y-133403571D01*
X171442857Y-133403571D02*
X170942857Y-132689286D01*
X170585714Y-133403571D02*
X170585714Y-131903571D01*
X171157142Y-131903571D01*
X171300000Y-131975000D01*
X171371428Y-132046429D01*
X171442857Y-132189286D01*
X171442857Y-132403571D01*
X171371428Y-132546429D01*
X171300000Y-132617857D01*
X171157142Y-132689286D01*
X170585714Y-132689286D01*
X172657142Y-133332143D02*
X172514285Y-133403571D01*
X172228571Y-133403571D01*
X172085714Y-133332143D01*
X172014285Y-133189286D01*
X172014285Y-132617857D01*
X172085714Y-132475000D01*
X172228571Y-132403571D01*
X172514285Y-132403571D01*
X172657142Y-132475000D01*
X172728571Y-132617857D01*
X172728571Y-132760714D01*
X172014285Y-132903571D01*
X173228571Y-132403571D02*
X173585714Y-133403571D01*
X173942856Y-132403571D01*
X174371428Y-133975000D02*
X174442856Y-133903571D01*
X174585713Y-133689286D01*
X174657142Y-133546429D01*
X174728571Y-133332143D01*
X174799999Y-132975000D01*
X174799999Y-132689286D01*
X174728571Y-132332143D01*
X174657142Y-132117857D01*
X174585713Y-131975000D01*
X174442856Y-131760714D01*
X174371428Y-131689286D01*
X135228573Y-136525000D02*
X135157145Y-136453571D01*
X135014288Y-136239286D01*
X134942859Y-136096429D01*
X134871430Y-135882143D01*
X134800002Y-135525000D01*
X134800002Y-135239286D01*
X134871430Y-134882143D01*
X134942859Y-134667857D01*
X135014288Y-134525000D01*
X135157145Y-134310714D01*
X135228573Y-134239286D01*
X136442859Y-135882143D02*
X136300002Y-135953571D01*
X136014288Y-135953571D01*
X135871430Y-135882143D01*
X135800002Y-135810714D01*
X135728573Y-135667857D01*
X135728573Y-135239286D01*
X135800002Y-135096429D01*
X135871430Y-135025000D01*
X136014288Y-134953571D01*
X136300002Y-134953571D01*
X136442859Y-135025000D01*
X136942859Y-136525000D02*
X137014287Y-136453571D01*
X137157144Y-136239286D01*
X137228573Y-136096429D01*
X137300002Y-135882143D01*
X137371430Y-135525000D01*
X137371430Y-135239286D01*
X137300002Y-134882143D01*
X137228573Y-134667857D01*
X137157144Y-134525000D01*
X137014287Y-134310714D01*
X136942859Y-134239286D01*
X139157144Y-134596429D02*
X139228573Y-134525000D01*
X139371430Y-134453571D01*
X139728573Y-134453571D01*
X139871430Y-134525000D01*
X139942859Y-134596429D01*
X140014287Y-134739286D01*
X140014287Y-134882143D01*
X139942859Y-135096429D01*
X139085716Y-135953571D01*
X140014287Y-135953571D01*
X140942858Y-134453571D02*
X141085715Y-134453571D01*
X141228572Y-134525000D01*
X141300001Y-134596429D01*
X141371430Y-134739286D01*
X141442858Y-135025000D01*
X141442858Y-135382143D01*
X141371430Y-135667857D01*
X141300001Y-135810714D01*
X141228572Y-135882143D01*
X141085715Y-135953571D01*
X140942858Y-135953571D01*
X140800001Y-135882143D01*
X140728572Y-135810714D01*
X140657144Y-135667857D01*
X140585715Y-135382143D01*
X140585715Y-135025000D01*
X140657144Y-134739286D01*
X140728572Y-134596429D01*
X140800001Y-134525000D01*
X140942858Y-134453571D01*
X142871429Y-135953571D02*
X142014286Y-135953571D01*
X142442858Y-135953571D02*
X142442858Y-134453571D01*
X142300001Y-134667857D01*
X142157143Y-134810714D01*
X142014286Y-134882143D01*
X144157143Y-134453571D02*
X143871429Y-134453571D01*
X143728572Y-134525000D01*
X143657143Y-134596429D01*
X143514286Y-134810714D01*
X143442857Y-135096429D01*
X143442857Y-135667857D01*
X143514286Y-135810714D01*
X143585714Y-135882143D01*
X143728572Y-135953571D01*
X144014286Y-135953571D01*
X144157143Y-135882143D01*
X144228572Y-135810714D01*
X144300000Y-135667857D01*
X144300000Y-135310714D01*
X144228572Y-135167857D01*
X144157143Y-135096429D01*
X144014286Y-135025000D01*
X143728572Y-135025000D01*
X143585714Y-135096429D01*
X143514286Y-135167857D01*
X143442857Y-135310714D01*
X144942857Y-135382143D02*
X146085714Y-135382143D01*
X146728571Y-134596429D02*
X146800000Y-134525000D01*
X146942857Y-134453571D01*
X147300000Y-134453571D01*
X147442857Y-134525000D01*
X147514286Y-134596429D01*
X147585714Y-134739286D01*
X147585714Y-134882143D01*
X147514286Y-135096429D01*
X146657143Y-135953571D01*
X147585714Y-135953571D01*
X148514285Y-134453571D02*
X148657142Y-134453571D01*
X148799999Y-134525000D01*
X148871428Y-134596429D01*
X148942857Y-134739286D01*
X149014285Y-135025000D01*
X149014285Y-135382143D01*
X148942857Y-135667857D01*
X148871428Y-135810714D01*
X148799999Y-135882143D01*
X148657142Y-135953571D01*
X148514285Y-135953571D01*
X148371428Y-135882143D01*
X148299999Y-135810714D01*
X148228571Y-135667857D01*
X148157142Y-135382143D01*
X148157142Y-135025000D01*
X148228571Y-134739286D01*
X148299999Y-134596429D01*
X148371428Y-134525000D01*
X148514285Y-134453571D01*
X150442856Y-135953571D02*
X149585713Y-135953571D01*
X150014285Y-135953571D02*
X150014285Y-134453571D01*
X149871428Y-134667857D01*
X149728570Y-134810714D01*
X149585713Y-134882143D01*
X150942856Y-134453571D02*
X151942856Y-134453571D01*
X151299999Y-135953571D01*
X153585712Y-135525000D02*
X154299998Y-135525000D01*
X153442855Y-135953571D02*
X153942855Y-134453571D01*
X154442855Y-135953571D01*
X154942855Y-135953571D02*
X154942855Y-134453571D01*
X154942855Y-135025000D02*
X155085712Y-134953571D01*
X155371426Y-134953571D01*
X155514283Y-135025000D01*
X155585712Y-135096429D01*
X155657141Y-135239286D01*
X155657141Y-135667857D01*
X155585712Y-135810714D01*
X155514283Y-135882143D01*
X155371426Y-135953571D01*
X155085712Y-135953571D01*
X154942855Y-135882143D01*
X156299998Y-135953571D02*
X156299998Y-134453571D01*
X156942855Y-135953571D02*
X156942855Y-135167857D01*
X156871426Y-135025000D01*
X156728569Y-134953571D01*
X156514284Y-134953571D01*
X156371426Y-135025000D01*
X156299998Y-135096429D01*
X157657141Y-135953571D02*
X157657141Y-134953571D01*
X157657141Y-134453571D02*
X157585712Y-134525000D01*
X157657141Y-134596429D01*
X157728569Y-134525000D01*
X157657141Y-134453571D01*
X157657141Y-134596429D01*
X158371427Y-135953571D02*
X158371427Y-134953571D01*
X158371427Y-135096429D02*
X158442855Y-135025000D01*
X158585713Y-134953571D01*
X158799998Y-134953571D01*
X158942855Y-135025000D01*
X159014284Y-135167857D01*
X159014284Y-135953571D01*
X159014284Y-135167857D02*
X159085713Y-135025000D01*
X159228570Y-134953571D01*
X159442855Y-134953571D01*
X159585713Y-135025000D01*
X159657141Y-135167857D01*
X159657141Y-135953571D01*
X161014284Y-135953571D02*
X161014284Y-135167857D01*
X160942855Y-135025000D01*
X160799998Y-134953571D01*
X160514284Y-134953571D01*
X160371427Y-135025000D01*
X161014284Y-135882143D02*
X160871427Y-135953571D01*
X160514284Y-135953571D01*
X160371427Y-135882143D01*
X160299998Y-135739286D01*
X160299998Y-135596429D01*
X160371427Y-135453571D01*
X160514284Y-135382143D01*
X160871427Y-135382143D01*
X161014284Y-135310714D01*
X161728570Y-134953571D02*
X161728570Y-135953571D01*
X161728570Y-135096429D02*
X161799998Y-135025000D01*
X161942856Y-134953571D01*
X162157141Y-134953571D01*
X162299998Y-135025000D01*
X162371427Y-135167857D01*
X162371427Y-135953571D01*
X162942856Y-134953571D02*
X163299999Y-135953571D01*
X163657141Y-134953571D02*
X163299999Y-135953571D01*
X163157141Y-136310714D01*
X163085713Y-136382143D01*
X162942856Y-136453571D01*
X164871427Y-134953571D02*
X164871427Y-135953571D01*
X164228570Y-134953571D02*
X164228570Y-135739286D01*
X164299998Y-135882143D01*
X164442856Y-135953571D01*
X164657141Y-135953571D01*
X164799998Y-135882143D01*
X164871427Y-135810714D01*
X167514284Y-134525000D02*
X167371427Y-134453571D01*
X167157141Y-134453571D01*
X166942856Y-134525000D01*
X166799998Y-134667857D01*
X166728570Y-134810714D01*
X166657141Y-135096429D01*
X166657141Y-135310714D01*
X166728570Y-135596429D01*
X166799998Y-135739286D01*
X166942856Y-135882143D01*
X167157141Y-135953571D01*
X167299998Y-135953571D01*
X167514284Y-135882143D01*
X167585713Y-135810714D01*
X167585713Y-135310714D01*
X167299998Y-135310714D01*
X168228570Y-135953571D02*
X168228570Y-134453571D01*
X168871427Y-135953571D02*
X168871427Y-135167857D01*
X168799998Y-135025000D01*
X168657141Y-134953571D01*
X168442856Y-134953571D01*
X168299998Y-135025000D01*
X168228570Y-135096429D01*
X169799999Y-135953571D02*
X169657141Y-135882143D01*
X169585713Y-135810714D01*
X169514284Y-135667857D01*
X169514284Y-135239286D01*
X169585713Y-135096429D01*
X169657141Y-135025000D01*
X169799999Y-134953571D01*
X170014284Y-134953571D01*
X170157141Y-135025000D01*
X170228570Y-135096429D01*
X170299999Y-135239286D01*
X170299999Y-135667857D01*
X170228570Y-135810714D01*
X170157141Y-135882143D01*
X170014284Y-135953571D01*
X169799999Y-135953571D01*
X170871427Y-135882143D02*
X171014284Y-135953571D01*
X171299999Y-135953571D01*
X171442856Y-135882143D01*
X171514284Y-135739286D01*
X171514284Y-135667857D01*
X171442856Y-135525000D01*
X171299999Y-135453571D01*
X171085713Y-135453571D01*
X170942856Y-135382143D01*
X170871427Y-135239286D01*
X170871427Y-135167857D01*
X170942856Y-135025000D01*
X171085713Y-134953571D01*
X171299999Y-134953571D01*
X171442856Y-135025000D01*
X172157142Y-135953571D02*
X172157142Y-134453571D01*
X172799999Y-135953571D02*
X172799999Y-135167857D01*
X172728570Y-135025000D01*
X172585713Y-134953571D01*
X172371428Y-134953571D01*
X172228570Y-135025000D01*
X172157142Y-135096429D01*
X148442858Y-138503571D02*
X147942858Y-137789286D01*
X147585715Y-138503571D02*
X147585715Y-137003571D01*
X148157143Y-137003571D01*
X148300001Y-137075000D01*
X148371429Y-137146429D01*
X148442858Y-137289286D01*
X148442858Y-137503571D01*
X148371429Y-137646429D01*
X148300001Y-137717857D01*
X148157143Y-137789286D01*
X147585715Y-137789286D01*
X149728572Y-138503571D02*
X149728572Y-137717857D01*
X149657143Y-137575000D01*
X149514286Y-137503571D01*
X149228572Y-137503571D01*
X149085715Y-137575000D01*
X149728572Y-138432143D02*
X149585715Y-138503571D01*
X149228572Y-138503571D01*
X149085715Y-138432143D01*
X149014286Y-138289286D01*
X149014286Y-138146429D01*
X149085715Y-138003571D01*
X149228572Y-137932143D01*
X149585715Y-137932143D01*
X149728572Y-137860714D01*
X150228572Y-137503571D02*
X150800001Y-137503571D01*
X150442858Y-137003571D02*
X150442858Y-138289286D01*
X150514286Y-138432143D01*
X150657144Y-138503571D01*
X150800001Y-138503571D01*
X151300001Y-138503571D02*
X151300001Y-137503571D01*
X151300001Y-137003571D02*
X151228572Y-137075000D01*
X151300001Y-137146429D01*
X151371429Y-137075000D01*
X151300001Y-137003571D01*
X151300001Y-137146429D01*
X152014287Y-137503571D02*
X152014287Y-138503571D01*
X152014287Y-137646429D02*
X152085715Y-137575000D01*
X152228573Y-137503571D01*
X152442858Y-137503571D01*
X152585715Y-137575000D01*
X152657144Y-137717857D01*
X152657144Y-138503571D01*
X154014287Y-137503571D02*
X154014287Y-138717857D01*
X153942858Y-138860714D01*
X153871430Y-138932143D01*
X153728573Y-139003571D01*
X153514287Y-139003571D01*
X153371430Y-138932143D01*
X154014287Y-138432143D02*
X153871430Y-138503571D01*
X153585716Y-138503571D01*
X153442858Y-138432143D01*
X153371430Y-138360714D01*
X153300001Y-138217857D01*
X153300001Y-137789286D01*
X153371430Y-137646429D01*
X153442858Y-137575000D01*
X153585716Y-137503571D01*
X153871430Y-137503571D01*
X154014287Y-137575000D01*
X154728573Y-138360714D02*
X154800001Y-138432143D01*
X154728573Y-138503571D01*
X154657144Y-138432143D01*
X154728573Y-138360714D01*
X154728573Y-138503571D01*
X154728573Y-137575000D02*
X154800001Y-137646429D01*
X154728573Y-137717857D01*
X154657144Y-137646429D01*
X154728573Y-137575000D01*
X154728573Y-137717857D01*
X157228573Y-137503571D02*
X157228573Y-138503571D01*
X156871430Y-136932143D02*
X156514287Y-138003571D01*
X157442859Y-138003571D01*
X158300001Y-137003571D02*
X158442858Y-137003571D01*
X158585715Y-137075000D01*
X158657144Y-137146429D01*
X158728573Y-137289286D01*
X158800001Y-137575000D01*
X158800001Y-137932143D01*
X158728573Y-138217857D01*
X158657144Y-138360714D01*
X158585715Y-138432143D01*
X158442858Y-138503571D01*
X158300001Y-138503571D01*
X158157144Y-138432143D01*
X158085715Y-138360714D01*
X158014287Y-138217857D01*
X157942858Y-137932143D01*
X157942858Y-137575000D01*
X158014287Y-137289286D01*
X158085715Y-137146429D01*
X158157144Y-137075000D01*
X158300001Y-137003571D01*
X159371429Y-138075000D02*
X160085715Y-138075000D01*
X159228572Y-138503571D02*
X159728572Y-137003571D01*
X160228572Y-138503571D01*
X143657144Y-141053571D02*
X142942858Y-141053571D01*
X142942858Y-139553571D01*
X144157144Y-141053571D02*
X144157144Y-140053571D01*
X144157144Y-139553571D02*
X144085715Y-139625000D01*
X144157144Y-139696429D01*
X144228572Y-139625000D01*
X144157144Y-139553571D01*
X144157144Y-139696429D01*
X145514287Y-140982143D02*
X145371430Y-141053571D01*
X145085716Y-141053571D01*
X144942858Y-140982143D01*
X144871430Y-140910714D01*
X144800001Y-140767857D01*
X144800001Y-140339286D01*
X144871430Y-140196429D01*
X144942858Y-140125000D01*
X145085716Y-140053571D01*
X145371430Y-140053571D01*
X145514287Y-140125000D01*
X146728572Y-140982143D02*
X146585715Y-141053571D01*
X146300001Y-141053571D01*
X146157144Y-140982143D01*
X146085715Y-140839286D01*
X146085715Y-140267857D01*
X146157144Y-140125000D01*
X146300001Y-140053571D01*
X146585715Y-140053571D01*
X146728572Y-140125000D01*
X146800001Y-140267857D01*
X146800001Y-140410714D01*
X146085715Y-140553571D01*
X147442858Y-140053571D02*
X147442858Y-141053571D01*
X147442858Y-140196429D02*
X147514286Y-140125000D01*
X147657144Y-140053571D01*
X147871429Y-140053571D01*
X148014286Y-140125000D01*
X148085715Y-140267857D01*
X148085715Y-141053571D01*
X148728572Y-140982143D02*
X148871429Y-141053571D01*
X149157144Y-141053571D01*
X149300001Y-140982143D01*
X149371429Y-140839286D01*
X149371429Y-140767857D01*
X149300001Y-140625000D01*
X149157144Y-140553571D01*
X148942858Y-140553571D01*
X148800001Y-140482143D01*
X148728572Y-140339286D01*
X148728572Y-140267857D01*
X148800001Y-140125000D01*
X148942858Y-140053571D01*
X149157144Y-140053571D01*
X149300001Y-140125000D01*
X150585715Y-140982143D02*
X150442858Y-141053571D01*
X150157144Y-141053571D01*
X150014287Y-140982143D01*
X149942858Y-140839286D01*
X149942858Y-140267857D01*
X150014287Y-140125000D01*
X150157144Y-140053571D01*
X150442858Y-140053571D01*
X150585715Y-140125000D01*
X150657144Y-140267857D01*
X150657144Y-140410714D01*
X149942858Y-140553571D01*
X151300001Y-140910714D02*
X151371429Y-140982143D01*
X151300001Y-141053571D01*
X151228572Y-140982143D01*
X151300001Y-140910714D01*
X151300001Y-141053571D01*
X151300001Y-140125000D02*
X151371429Y-140196429D01*
X151300001Y-140267857D01*
X151228572Y-140196429D01*
X151300001Y-140125000D01*
X151300001Y-140267857D01*
X154014287Y-140910714D02*
X153942858Y-140982143D01*
X153728572Y-141053571D01*
X153585715Y-141053571D01*
X153371430Y-140982143D01*
X153228572Y-140839286D01*
X153157144Y-140696429D01*
X153085715Y-140410714D01*
X153085715Y-140196429D01*
X153157144Y-139910714D01*
X153228572Y-139767857D01*
X153371430Y-139625000D01*
X153585715Y-139553571D01*
X153728572Y-139553571D01*
X153942858Y-139625000D01*
X154014287Y-139696429D01*
X155514287Y-140910714D02*
X155442858Y-140982143D01*
X155228572Y-141053571D01*
X155085715Y-141053571D01*
X154871430Y-140982143D01*
X154728572Y-140839286D01*
X154657144Y-140696429D01*
X154585715Y-140410714D01*
X154585715Y-140196429D01*
X154657144Y-139910714D01*
X154728572Y-139767857D01*
X154871430Y-139625000D01*
X155085715Y-139553571D01*
X155228572Y-139553571D01*
X155442858Y-139625000D01*
X155514287Y-139696429D01*
X156157144Y-140482143D02*
X157300001Y-140482143D01*
X158514287Y-140267857D02*
X158728573Y-140339286D01*
X158800001Y-140410714D01*
X158871430Y-140553571D01*
X158871430Y-140767857D01*
X158800001Y-140910714D01*
X158728573Y-140982143D01*
X158585715Y-141053571D01*
X158014287Y-141053571D01*
X158014287Y-139553571D01*
X158514287Y-139553571D01*
X158657144Y-139625000D01*
X158728573Y-139696429D01*
X158800001Y-139839286D01*
X158800001Y-139982143D01*
X158728573Y-140125000D01*
X158657144Y-140196429D01*
X158514287Y-140267857D01*
X158014287Y-140267857D01*
X159800001Y-140339286D02*
X159800001Y-141053571D01*
X159300001Y-139553571D02*
X159800001Y-140339286D01*
X160300001Y-139553571D01*
X160800001Y-140482143D02*
X161942858Y-140482143D01*
X162585715Y-140982143D02*
X162800001Y-141053571D01*
X163157144Y-141053571D01*
X163300001Y-140982143D01*
X163371430Y-140910714D01*
X163442858Y-140767857D01*
X163442858Y-140625000D01*
X163371430Y-140482143D01*
X163300001Y-140410714D01*
X163157144Y-140339286D01*
X162871430Y-140267857D01*
X162728572Y-140196429D01*
X162657144Y-140125000D01*
X162585715Y-139982143D01*
X162585715Y-139839286D01*
X162657144Y-139696429D01*
X162728572Y-139625000D01*
X162871430Y-139553571D01*
X163228572Y-139553571D01*
X163442858Y-139625000D01*
X164014286Y-140625000D02*
X164728572Y-140625000D01*
X163871429Y-141053571D02*
X164371429Y-139553571D01*
X164871429Y-141053571D01*
X146335714Y-144653571D02*
X147192857Y-144653571D01*
X146764286Y-146153571D02*
X146764286Y-144653571D01*
X147692857Y-146153571D02*
X147692857Y-144653571D01*
X147692857Y-145367857D02*
X148550000Y-145367857D01*
X148550000Y-146153571D02*
X148550000Y-144653571D01*
X149264286Y-146153571D02*
X149264286Y-144653571D01*
X149907143Y-146082143D02*
X150121429Y-146153571D01*
X150478572Y-146153571D01*
X150621429Y-146082143D01*
X150692858Y-146010714D01*
X150764286Y-145867857D01*
X150764286Y-145725000D01*
X150692858Y-145582143D01*
X150621429Y-145510714D01*
X150478572Y-145439286D01*
X150192858Y-145367857D01*
X150050000Y-145296429D01*
X149978572Y-145225000D01*
X149907143Y-145082143D01*
X149907143Y-144939286D01*
X149978572Y-144796429D01*
X150050000Y-144725000D01*
X150192858Y-144653571D01*
X150550000Y-144653571D01*
X150764286Y-144725000D01*
X152478571Y-146082143D02*
X152692857Y-146153571D01*
X153050000Y-146153571D01*
X153192857Y-146082143D01*
X153264286Y-146010714D01*
X153335714Y-145867857D01*
X153335714Y-145725000D01*
X153264286Y-145582143D01*
X153192857Y-145510714D01*
X153050000Y-145439286D01*
X152764286Y-145367857D01*
X152621428Y-145296429D01*
X152550000Y-145225000D01*
X152478571Y-145082143D01*
X152478571Y-144939286D01*
X152550000Y-144796429D01*
X152621428Y-144725000D01*
X152764286Y-144653571D01*
X153121428Y-144653571D01*
X153335714Y-144725000D01*
X153978571Y-146153571D02*
X153978571Y-144653571D01*
X154692857Y-146153571D02*
X154692857Y-144653571D01*
X155050000Y-144653571D01*
X155264285Y-144725000D01*
X155407143Y-144867857D01*
X155478571Y-145010714D01*
X155550000Y-145296429D01*
X155550000Y-145510714D01*
X155478571Y-145796429D01*
X155407143Y-145939286D01*
X155264285Y-146082143D01*
X155050000Y-146153571D01*
X154692857Y-146153571D01*
X156192857Y-145367857D02*
X156692857Y-145367857D01*
X156907143Y-146153571D02*
X156192857Y-146153571D01*
X156192857Y-144653571D01*
X156907143Y-144653571D01*
X158692857Y-144653571D02*
X158692857Y-145867857D01*
X158764285Y-146010714D01*
X158835714Y-146082143D01*
X158978571Y-146153571D01*
X159264285Y-146153571D01*
X159407143Y-146082143D01*
X159478571Y-146010714D01*
X159550000Y-145867857D01*
X159550000Y-144653571D01*
X160264286Y-146153571D02*
X160264286Y-144653571D01*
X160835714Y-144653571D01*
X160978572Y-144725000D01*
X161050000Y-144796429D01*
X161121429Y-144939286D01*
X161121429Y-145153571D01*
X161050000Y-145296429D01*
X160978572Y-145367857D01*
X160835714Y-145439286D01*
X160264286Y-145439286D01*
D13*
X143075000Y-40601000D02*
X143075000Y-46899000D01*
X143215000Y-40607000D02*
X143215000Y-46893000D01*
X143355000Y-40620000D02*
X143355000Y-43304000D01*
X143355000Y-44196000D02*
X143355000Y-46880000D01*
X143495000Y-40639000D02*
X143495000Y-43094000D01*
X143495000Y-44406000D02*
X143495000Y-46861000D01*
X143635000Y-40665000D02*
X143635000Y-42961000D01*
X143635000Y-44539000D02*
X143635000Y-46835000D01*
X143775000Y-40697000D02*
X143775000Y-42870000D01*
X143775000Y-44630000D02*
X143775000Y-46803000D01*
X143915000Y-40736000D02*
X143915000Y-42808000D01*
X143915000Y-44692000D02*
X143915000Y-46764000D01*
X144055000Y-40782000D02*
X144055000Y-42769000D01*
X144055000Y-44731000D02*
X144055000Y-46718000D01*
X144195000Y-40835000D02*
X144195000Y-42752000D01*
X144195000Y-44748000D02*
X144195000Y-46665000D01*
X144335000Y-40897000D02*
X144335000Y-42754000D01*
X144335000Y-44746000D02*
X144335000Y-46603000D01*
X144475000Y-40967000D02*
X144475000Y-42776000D01*
X144475000Y-44724000D02*
X144475000Y-46533000D01*
X144615000Y-41046000D02*
X144615000Y-42819000D01*
X144615000Y-44681000D02*
X144615000Y-46454000D01*
X144755000Y-41134000D02*
X144755000Y-42887000D01*
X144755000Y-44613000D02*
X144755000Y-46366000D01*
X144895000Y-41234000D02*
X144895000Y-42986000D01*
X144895000Y-44514000D02*
X144895000Y-46266000D01*
X145035000Y-41346000D02*
X145035000Y-43131000D01*
X145035000Y-44369000D02*
X145035000Y-46154000D01*
X145175000Y-41471000D02*
X145175000Y-43370000D01*
X145175000Y-44130000D02*
X145175000Y-46029000D01*
X145315000Y-41614000D02*
X145315000Y-45886000D01*
X145455000Y-41776000D02*
X145455000Y-45724000D01*
X145595000Y-41964000D02*
X145595000Y-45536000D01*
X145735000Y-42187000D02*
X145735000Y-45313000D01*
X145875000Y-42463000D02*
X145875000Y-45037000D01*
X146015000Y-42838000D02*
X146015000Y-44662000D01*
X145250000Y-43750000D02*
G75*
G03X145250000Y-43750000I-1000000J0D01*
G01*
X146187500Y-43750000D02*
G75*
G03X146187500Y-43750000I-3187500J0D01*
G01*
X132151000Y-49875000D02*
X138449000Y-49875000D01*
X132157000Y-49735000D02*
X138443000Y-49735000D01*
X132170000Y-49595000D02*
X134854000Y-49595000D01*
X135746000Y-49595000D02*
X138430000Y-49595000D01*
X132189000Y-49455000D02*
X134644000Y-49455000D01*
X135956000Y-49455000D02*
X138411000Y-49455000D01*
X132215000Y-49315000D02*
X134511000Y-49315000D01*
X136089000Y-49315000D02*
X138385000Y-49315000D01*
X132247000Y-49175000D02*
X134420000Y-49175000D01*
X136180000Y-49175000D02*
X138353000Y-49175000D01*
X132286000Y-49035000D02*
X134358000Y-49035000D01*
X136242000Y-49035000D02*
X138314000Y-49035000D01*
X132332000Y-48895000D02*
X134319000Y-48895000D01*
X136281000Y-48895000D02*
X138268000Y-48895000D01*
X132385000Y-48755000D02*
X134302000Y-48755000D01*
X136298000Y-48755000D02*
X138215000Y-48755000D01*
X132447000Y-48615000D02*
X134304000Y-48615000D01*
X136296000Y-48615000D02*
X138153000Y-48615000D01*
X132517000Y-48475000D02*
X134326000Y-48475000D01*
X136274000Y-48475000D02*
X138083000Y-48475000D01*
X132596000Y-48335000D02*
X134369000Y-48335000D01*
X136231000Y-48335000D02*
X138004000Y-48335000D01*
X132684000Y-48195000D02*
X134437000Y-48195000D01*
X136163000Y-48195000D02*
X137916000Y-48195000D01*
X132784000Y-48055000D02*
X134536000Y-48055000D01*
X136064000Y-48055000D02*
X137816000Y-48055000D01*
X132896000Y-47915000D02*
X134681000Y-47915000D01*
X135919000Y-47915000D02*
X137704000Y-47915000D01*
X133021000Y-47775000D02*
X134920000Y-47775000D01*
X135680000Y-47775000D02*
X137579000Y-47775000D01*
X133164000Y-47635000D02*
X137436000Y-47635000D01*
X133326000Y-47495000D02*
X137274000Y-47495000D01*
X133514000Y-47355000D02*
X137086000Y-47355000D01*
X133737000Y-47215000D02*
X136863000Y-47215000D01*
X134013000Y-47075000D02*
X136587000Y-47075000D01*
X134388000Y-46935000D02*
X136212000Y-46935000D01*
X136300000Y-48700000D02*
G75*
G03X136300000Y-48700000I-1000000J0D01*
G01*
X138487500Y-49950000D02*
G75*
G03X138487500Y-49950000I-3187500J0D01*
G01*
X119151000Y-49875000D02*
X125449000Y-49875000D01*
X119157000Y-49735000D02*
X125443000Y-49735000D01*
X119170000Y-49595000D02*
X121854000Y-49595000D01*
X122746000Y-49595000D02*
X125430000Y-49595000D01*
X119189000Y-49455000D02*
X121644000Y-49455000D01*
X122956000Y-49455000D02*
X125411000Y-49455000D01*
X119215000Y-49315000D02*
X121511000Y-49315000D01*
X123089000Y-49315000D02*
X125385000Y-49315000D01*
X119247000Y-49175000D02*
X121420000Y-49175000D01*
X123180000Y-49175000D02*
X125353000Y-49175000D01*
X119286000Y-49035000D02*
X121358000Y-49035000D01*
X123242000Y-49035000D02*
X125314000Y-49035000D01*
X119332000Y-48895000D02*
X121319000Y-48895000D01*
X123281000Y-48895000D02*
X125268000Y-48895000D01*
X119385000Y-48755000D02*
X121302000Y-48755000D01*
X123298000Y-48755000D02*
X125215000Y-48755000D01*
X119447000Y-48615000D02*
X121304000Y-48615000D01*
X123296000Y-48615000D02*
X125153000Y-48615000D01*
X119517000Y-48475000D02*
X121326000Y-48475000D01*
X123274000Y-48475000D02*
X125083000Y-48475000D01*
X119596000Y-48335000D02*
X121369000Y-48335000D01*
X123231000Y-48335000D02*
X125004000Y-48335000D01*
X119684000Y-48195000D02*
X121437000Y-48195000D01*
X123163000Y-48195000D02*
X124916000Y-48195000D01*
X119784000Y-48055000D02*
X121536000Y-48055000D01*
X123064000Y-48055000D02*
X124816000Y-48055000D01*
X119896000Y-47915000D02*
X121681000Y-47915000D01*
X122919000Y-47915000D02*
X124704000Y-47915000D01*
X120021000Y-47775000D02*
X121920000Y-47775000D01*
X122680000Y-47775000D02*
X124579000Y-47775000D01*
X120164000Y-47635000D02*
X124436000Y-47635000D01*
X120326000Y-47495000D02*
X124274000Y-47495000D01*
X120514000Y-47355000D02*
X124086000Y-47355000D01*
X120737000Y-47215000D02*
X123863000Y-47215000D01*
X121013000Y-47075000D02*
X123587000Y-47075000D01*
X121388000Y-46935000D02*
X123212000Y-46935000D01*
X123300000Y-48700000D02*
G75*
G03X123300000Y-48700000I-1000000J0D01*
G01*
X125487500Y-49950000D02*
G75*
G03X125487500Y-49950000I-3187500J0D01*
G01*
X125651000Y-46775000D02*
X131949000Y-46775000D01*
X125657000Y-46635000D02*
X131943000Y-46635000D01*
X125670000Y-46495000D02*
X128354000Y-46495000D01*
X129246000Y-46495000D02*
X131930000Y-46495000D01*
X125689000Y-46355000D02*
X128144000Y-46355000D01*
X129456000Y-46355000D02*
X131911000Y-46355000D01*
X125715000Y-46215000D02*
X128011000Y-46215000D01*
X129589000Y-46215000D02*
X131885000Y-46215000D01*
X125747000Y-46075000D02*
X127920000Y-46075000D01*
X129680000Y-46075000D02*
X131853000Y-46075000D01*
X125786000Y-45935000D02*
X127858000Y-45935000D01*
X129742000Y-45935000D02*
X131814000Y-45935000D01*
X125832000Y-45795000D02*
X127819000Y-45795000D01*
X129781000Y-45795000D02*
X131768000Y-45795000D01*
X125885000Y-45655000D02*
X127802000Y-45655000D01*
X129798000Y-45655000D02*
X131715000Y-45655000D01*
X125947000Y-45515000D02*
X127804000Y-45515000D01*
X129796000Y-45515000D02*
X131653000Y-45515000D01*
X126017000Y-45375000D02*
X127826000Y-45375000D01*
X129774000Y-45375000D02*
X131583000Y-45375000D01*
X126096000Y-45235000D02*
X127869000Y-45235000D01*
X129731000Y-45235000D02*
X131504000Y-45235000D01*
X126184000Y-45095000D02*
X127937000Y-45095000D01*
X129663000Y-45095000D02*
X131416000Y-45095000D01*
X126284000Y-44955000D02*
X128036000Y-44955000D01*
X129564000Y-44955000D02*
X131316000Y-44955000D01*
X126396000Y-44815000D02*
X128181000Y-44815000D01*
X129419000Y-44815000D02*
X131204000Y-44815000D01*
X126521000Y-44675000D02*
X128420000Y-44675000D01*
X129180000Y-44675000D02*
X131079000Y-44675000D01*
X126664000Y-44535000D02*
X130936000Y-44535000D01*
X126826000Y-44395000D02*
X130774000Y-44395000D01*
X127014000Y-44255000D02*
X130586000Y-44255000D01*
X127237000Y-44115000D02*
X130363000Y-44115000D01*
X127513000Y-43975000D02*
X130087000Y-43975000D01*
X127888000Y-43835000D02*
X129712000Y-43835000D01*
X129800000Y-45600000D02*
G75*
G03X129800000Y-45600000I-1000000J0D01*
G01*
X131987500Y-46850000D02*
G75*
G03X131987500Y-46850000I-3187500J0D01*
G01*
X92850000Y-43100000D02*
X92850000Y-42100000D01*
X91150000Y-42100000D02*
X91150000Y-43100000D01*
X81949000Y-52025000D02*
X75651000Y-52025000D01*
X81943000Y-52165000D02*
X75657000Y-52165000D01*
X81930000Y-52305000D02*
X79246000Y-52305000D01*
X78354000Y-52305000D02*
X75670000Y-52305000D01*
X81911000Y-52445000D02*
X79456000Y-52445000D01*
X78144000Y-52445000D02*
X75689000Y-52445000D01*
X81885000Y-52585000D02*
X79589000Y-52585000D01*
X78011000Y-52585000D02*
X75715000Y-52585000D01*
X81853000Y-52725000D02*
X79680000Y-52725000D01*
X77920000Y-52725000D02*
X75747000Y-52725000D01*
X81814000Y-52865000D02*
X79742000Y-52865000D01*
X77858000Y-52865000D02*
X75786000Y-52865000D01*
X81768000Y-53005000D02*
X79781000Y-53005000D01*
X77819000Y-53005000D02*
X75832000Y-53005000D01*
X81715000Y-53145000D02*
X79798000Y-53145000D01*
X77802000Y-53145000D02*
X75885000Y-53145000D01*
X81653000Y-53285000D02*
X79796000Y-53285000D01*
X77804000Y-53285000D02*
X75947000Y-53285000D01*
X81583000Y-53425000D02*
X79774000Y-53425000D01*
X77826000Y-53425000D02*
X76017000Y-53425000D01*
X81504000Y-53565000D02*
X79731000Y-53565000D01*
X77869000Y-53565000D02*
X76096000Y-53565000D01*
X81416000Y-53705000D02*
X79663000Y-53705000D01*
X77937000Y-53705000D02*
X76184000Y-53705000D01*
X81316000Y-53845000D02*
X79564000Y-53845000D01*
X78036000Y-53845000D02*
X76284000Y-53845000D01*
X81204000Y-53985000D02*
X79419000Y-53985000D01*
X78181000Y-53985000D02*
X76396000Y-53985000D01*
X81079000Y-54125000D02*
X79180000Y-54125000D01*
X78420000Y-54125000D02*
X76521000Y-54125000D01*
X80936000Y-54265000D02*
X76664000Y-54265000D01*
X80774000Y-54405000D02*
X76826000Y-54405000D01*
X80586000Y-54545000D02*
X77014000Y-54545000D01*
X80363000Y-54685000D02*
X77237000Y-54685000D01*
X80087000Y-54825000D02*
X77513000Y-54825000D01*
X79712000Y-54965000D02*
X77888000Y-54965000D01*
X79800000Y-53200000D02*
G75*
G03X79800000Y-53200000I-1000000J0D01*
G01*
X81987500Y-51950000D02*
G75*
G03X81987500Y-51950000I-3187500J0D01*
G01*
X202000000Y-122000000D02*
X202000000Y-123550000D01*
X203300000Y-122000000D02*
X202000000Y-122000000D01*
X207491000Y-123423000D02*
X213333000Y-123423000D01*
X213333000Y-123423000D02*
X213333000Y-123677000D01*
X213333000Y-123677000D02*
X207491000Y-123677000D01*
X207491000Y-123677000D02*
X207491000Y-123550000D01*
X207491000Y-123550000D02*
X213333000Y-123550000D01*
X204824000Y-123296000D02*
X204443000Y-123296000D01*
X204824000Y-123804000D02*
X204443000Y-123804000D01*
X204824000Y-125836000D02*
X204443000Y-125836000D01*
X204824000Y-126344000D02*
X204443000Y-126344000D01*
X204824000Y-122280000D02*
X207364000Y-122280000D01*
X204824000Y-124820000D02*
X207364000Y-124820000D01*
X204824000Y-124820000D02*
X204824000Y-127360000D01*
X204824000Y-127360000D02*
X207364000Y-127360000D01*
X207364000Y-125836000D02*
X213460000Y-125836000D01*
X213460000Y-125836000D02*
X213460000Y-126344000D01*
X213460000Y-126344000D02*
X207364000Y-126344000D01*
X207364000Y-127360000D02*
X207364000Y-124820000D01*
X207364000Y-124820000D02*
X207364000Y-122280000D01*
X213460000Y-123804000D02*
X207364000Y-123804000D01*
X213460000Y-123296000D02*
X213460000Y-123804000D01*
X207364000Y-123296000D02*
X213460000Y-123296000D01*
X204824000Y-124820000D02*
X207364000Y-124820000D01*
X204824000Y-122280000D02*
X204824000Y-124820000D01*
X89850000Y-67140000D02*
X89850000Y-65590000D01*
X88550000Y-67140000D02*
X89850000Y-67140000D01*
X84359000Y-65717000D02*
X78517000Y-65717000D01*
X78517000Y-65717000D02*
X78517000Y-65463000D01*
X78517000Y-65463000D02*
X84359000Y-65463000D01*
X84359000Y-65463000D02*
X84359000Y-65590000D01*
X84359000Y-65590000D02*
X78517000Y-65590000D01*
X87026000Y-65844000D02*
X87407000Y-65844000D01*
X87026000Y-65336000D02*
X87407000Y-65336000D01*
X87026000Y-63304000D02*
X87407000Y-63304000D01*
X87026000Y-62796000D02*
X87407000Y-62796000D01*
X87026000Y-66860000D02*
X84486000Y-66860000D01*
X87026000Y-64320000D02*
X84486000Y-64320000D01*
X87026000Y-64320000D02*
X87026000Y-61780000D01*
X87026000Y-61780000D02*
X84486000Y-61780000D01*
X84486000Y-63304000D02*
X78390000Y-63304000D01*
X78390000Y-63304000D02*
X78390000Y-62796000D01*
X78390000Y-62796000D02*
X84486000Y-62796000D01*
X84486000Y-61780000D02*
X84486000Y-64320000D01*
X84486000Y-64320000D02*
X84486000Y-66860000D01*
X78390000Y-65336000D02*
X84486000Y-65336000D01*
X78390000Y-65844000D02*
X78390000Y-65336000D01*
X84486000Y-65844000D02*
X78390000Y-65844000D01*
X87026000Y-64320000D02*
X84486000Y-64320000D01*
X87026000Y-66860000D02*
X87026000Y-64320000D01*
X92675000Y-48200000D02*
X92675000Y-49200000D01*
X91325000Y-49200000D02*
X91325000Y-48200000D01*
X162750000Y-52250000D02*
X162750000Y-39500000D01*
X162750000Y-65500000D02*
X162750000Y-52250000D01*
X183750000Y-65500000D02*
X162750000Y-65500000D01*
X183750000Y-39500000D02*
X183750000Y-65500000D01*
X162750000Y-39500000D02*
X183750000Y-39500000D01*
X94150009Y-59419992D02*
X94150009Y-41150001D01*
X114449999Y-59419992D02*
X94150009Y-59419992D01*
X114449999Y-57389993D02*
X114449999Y-59419992D01*
X114449999Y-41150001D02*
X94150009Y-41150001D01*
X114449999Y-41150001D02*
X114449999Y-57389993D01*
X95030000Y-91930000D02*
X95030000Y-97010000D01*
X95030000Y-97010000D02*
X97570000Y-97010000D01*
X97570000Y-97010000D02*
X97570000Y-91930000D01*
X97850000Y-89110000D02*
X97850000Y-90660000D01*
X97570000Y-91930000D02*
X95030000Y-91930000D01*
X94750000Y-90660000D02*
X94750000Y-89110000D01*
X94750000Y-89110000D02*
X97850000Y-89110000D01*
X90630000Y-121830000D02*
X90630000Y-126910000D01*
X90630000Y-126910000D02*
X93170000Y-126910000D01*
X93170000Y-126910000D02*
X93170000Y-121830000D01*
X93450000Y-119010000D02*
X93450000Y-120560000D01*
X93170000Y-121830000D02*
X90630000Y-121830000D01*
X90350000Y-120560000D02*
X90350000Y-119010000D01*
X90350000Y-119010000D02*
X93450000Y-119010000D01*
X217630000Y-92930000D02*
X217630000Y-98010000D01*
X217630000Y-98010000D02*
X220170000Y-98010000D01*
X220170000Y-98010000D02*
X220170000Y-92930000D01*
X220450000Y-90110000D02*
X220450000Y-91660000D01*
X220170000Y-92930000D02*
X217630000Y-92930000D01*
X217350000Y-91660000D02*
X217350000Y-90110000D01*
X217350000Y-90110000D02*
X220450000Y-90110000D01*
X217730000Y-121990000D02*
X217730000Y-127070000D01*
X217730000Y-127070000D02*
X220270000Y-127070000D01*
X220270000Y-127070000D02*
X220270000Y-121990000D01*
X220550000Y-119170000D02*
X220550000Y-120720000D01*
X220270000Y-121990000D02*
X217730000Y-121990000D01*
X217450000Y-120720000D02*
X217450000Y-119170000D01*
X217450000Y-119170000D02*
X220550000Y-119170000D01*
X181610000Y-138730000D02*
X181610000Y-77770000D01*
X176530000Y-77770000D02*
X176530000Y-141270000D01*
X176530000Y-77770000D02*
X181610000Y-77770000D01*
X176530000Y-141270000D02*
X179070000Y-141270000D01*
X180340000Y-141550000D02*
X181890000Y-141550000D01*
X179070000Y-141270000D02*
X179070000Y-138730000D01*
X179070000Y-138730000D02*
X181610000Y-138730000D01*
X181890000Y-141550000D02*
X181890000Y-140000000D01*
X130810000Y-138730000D02*
X130810000Y-77770000D01*
X125730000Y-77770000D02*
X125730000Y-141270000D01*
X125730000Y-77770000D02*
X130810000Y-77770000D01*
X125730000Y-141270000D02*
X128270000Y-141270000D01*
X129540000Y-141550000D02*
X131090000Y-141550000D01*
X128270000Y-141270000D02*
X128270000Y-138730000D01*
X128270000Y-138730000D02*
X130810000Y-138730000D01*
X131090000Y-141550000D02*
X131090000Y-140000000D01*
X218670000Y-46490000D02*
X218670000Y-61730000D01*
X218670000Y-61730000D02*
X216130000Y-61730000D01*
X216130000Y-61730000D02*
X216130000Y-46490000D01*
X218950000Y-43670000D02*
X218950000Y-45220000D01*
X218670000Y-46490000D02*
X216130000Y-46490000D01*
X215850000Y-45220000D02*
X215850000Y-43670000D01*
X215850000Y-43670000D02*
X218950000Y-43670000D01*
X140660000Y-55130000D02*
X145740000Y-55130000D01*
X145740000Y-55130000D02*
X145740000Y-57670000D01*
X145740000Y-57670000D02*
X140660000Y-57670000D01*
X140660000Y-57670000D02*
X140660000Y-55130000D01*
X140660000Y-56400000D02*
X139390000Y-56400000D01*
X145740000Y-56400000D02*
X147010000Y-56400000D01*
X118250000Y-50100000D02*
X118250000Y-49100000D01*
X116550000Y-49100000D02*
X116550000Y-50100000D01*
X80551000Y-42475000D02*
X86849000Y-42475000D01*
X80557000Y-42335000D02*
X86843000Y-42335000D01*
X80570000Y-42195000D02*
X83254000Y-42195000D01*
X84146000Y-42195000D02*
X86830000Y-42195000D01*
X80589000Y-42055000D02*
X83044000Y-42055000D01*
X84356000Y-42055000D02*
X86811000Y-42055000D01*
X80615000Y-41915000D02*
X82911000Y-41915000D01*
X84489000Y-41915000D02*
X86785000Y-41915000D01*
X80647000Y-41775000D02*
X82820000Y-41775000D01*
X84580000Y-41775000D02*
X86753000Y-41775000D01*
X80686000Y-41635000D02*
X82758000Y-41635000D01*
X84642000Y-41635000D02*
X86714000Y-41635000D01*
X80732000Y-41495000D02*
X82719000Y-41495000D01*
X84681000Y-41495000D02*
X86668000Y-41495000D01*
X80785000Y-41355000D02*
X82702000Y-41355000D01*
X84698000Y-41355000D02*
X86615000Y-41355000D01*
X80847000Y-41215000D02*
X82704000Y-41215000D01*
X84696000Y-41215000D02*
X86553000Y-41215000D01*
X80917000Y-41075000D02*
X82726000Y-41075000D01*
X84674000Y-41075000D02*
X86483000Y-41075000D01*
X80996000Y-40935000D02*
X82769000Y-40935000D01*
X84631000Y-40935000D02*
X86404000Y-40935000D01*
X81084000Y-40795000D02*
X82837000Y-40795000D01*
X84563000Y-40795000D02*
X86316000Y-40795000D01*
X81184000Y-40655000D02*
X82936000Y-40655000D01*
X84464000Y-40655000D02*
X86216000Y-40655000D01*
X81296000Y-40515000D02*
X83081000Y-40515000D01*
X84319000Y-40515000D02*
X86104000Y-40515000D01*
X81421000Y-40375000D02*
X83320000Y-40375000D01*
X84080000Y-40375000D02*
X85979000Y-40375000D01*
X81564000Y-40235000D02*
X85836000Y-40235000D01*
X81726000Y-40095000D02*
X85674000Y-40095000D01*
X81914000Y-39955000D02*
X85486000Y-39955000D01*
X82137000Y-39815000D02*
X85263000Y-39815000D01*
X82413000Y-39675000D02*
X84987000Y-39675000D01*
X82788000Y-39535000D02*
X84612000Y-39535000D01*
X84700000Y-41300000D02*
G75*
G03X84700000Y-41300000I-1000000J0D01*
G01*
X86887500Y-42550000D02*
G75*
G03X86887500Y-42550000I-3187500J0D01*
G01*
X188175000Y-51250000D02*
X188175000Y-51750000D01*
X189225000Y-51750000D02*
X189225000Y-51250000D01*
X139183334Y-40307143D02*
X139135715Y-40354762D01*
X138992858Y-40402381D01*
X138897620Y-40402381D01*
X138754762Y-40354762D01*
X138659524Y-40259524D01*
X138611905Y-40164286D01*
X138564286Y-39973810D01*
X138564286Y-39830952D01*
X138611905Y-39640476D01*
X138659524Y-39545238D01*
X138754762Y-39450000D01*
X138897620Y-39402381D01*
X138992858Y-39402381D01*
X139135715Y-39450000D01*
X139183334Y-39497619D01*
X139754762Y-39830952D02*
X139659524Y-39783333D01*
X139611905Y-39735714D01*
X139564286Y-39640476D01*
X139564286Y-39592857D01*
X139611905Y-39497619D01*
X139659524Y-39450000D01*
X139754762Y-39402381D01*
X139945239Y-39402381D01*
X140040477Y-39450000D01*
X140088096Y-39497619D01*
X140135715Y-39592857D01*
X140135715Y-39640476D01*
X140088096Y-39735714D01*
X140040477Y-39783333D01*
X139945239Y-39830952D01*
X139754762Y-39830952D01*
X139659524Y-39878571D01*
X139611905Y-39926190D01*
X139564286Y-40021429D01*
X139564286Y-40211905D01*
X139611905Y-40307143D01*
X139659524Y-40354762D01*
X139754762Y-40402381D01*
X139945239Y-40402381D01*
X140040477Y-40354762D01*
X140088096Y-40307143D01*
X140135715Y-40211905D01*
X140135715Y-40021429D01*
X140088096Y-39926190D01*
X140040477Y-39878571D01*
X139945239Y-39830952D01*
X131257143Y-50116666D02*
X131304762Y-50164285D01*
X131352381Y-50307142D01*
X131352381Y-50402380D01*
X131304762Y-50545238D01*
X131209524Y-50640476D01*
X131114286Y-50688095D01*
X130923810Y-50735714D01*
X130780952Y-50735714D01*
X130590476Y-50688095D01*
X130495238Y-50640476D01*
X130400000Y-50545238D01*
X130352381Y-50402380D01*
X130352381Y-50307142D01*
X130400000Y-50164285D01*
X130447619Y-50116666D01*
X130352381Y-49783333D02*
X130352381Y-49164285D01*
X130733333Y-49497619D01*
X130733333Y-49354761D01*
X130780952Y-49259523D01*
X130828571Y-49211904D01*
X130923810Y-49164285D01*
X131161905Y-49164285D01*
X131257143Y-49211904D01*
X131304762Y-49259523D01*
X131352381Y-49354761D01*
X131352381Y-49640476D01*
X131304762Y-49735714D01*
X131257143Y-49783333D01*
X122907143Y-44866666D02*
X122954762Y-44914285D01*
X123002381Y-45057142D01*
X123002381Y-45152380D01*
X122954762Y-45295238D01*
X122859524Y-45390476D01*
X122764286Y-45438095D01*
X122573810Y-45485714D01*
X122430952Y-45485714D01*
X122240476Y-45438095D01*
X122145238Y-45390476D01*
X122050000Y-45295238D01*
X122002381Y-45152380D01*
X122002381Y-45057142D01*
X122050000Y-44914285D01*
X122097619Y-44866666D01*
X123002381Y-43914285D02*
X123002381Y-44485714D01*
X123002381Y-44200000D02*
X122002381Y-44200000D01*
X122145238Y-44295238D01*
X122240476Y-44390476D01*
X122288095Y-44485714D01*
X124757143Y-47016666D02*
X124804762Y-47064285D01*
X124852381Y-47207142D01*
X124852381Y-47302380D01*
X124804762Y-47445238D01*
X124709524Y-47540476D01*
X124614286Y-47588095D01*
X124423810Y-47635714D01*
X124280952Y-47635714D01*
X124090476Y-47588095D01*
X123995238Y-47540476D01*
X123900000Y-47445238D01*
X123852381Y-47302380D01*
X123852381Y-47207142D01*
X123900000Y-47064285D01*
X123947619Y-47016666D01*
X123947619Y-46635714D02*
X123900000Y-46588095D01*
X123852381Y-46492857D01*
X123852381Y-46254761D01*
X123900000Y-46159523D01*
X123947619Y-46111904D01*
X124042857Y-46064285D01*
X124138095Y-46064285D01*
X124280952Y-46111904D01*
X124852381Y-46683333D01*
X124852381Y-46064285D01*
X89957143Y-42766666D02*
X90004762Y-42814285D01*
X90052381Y-42957142D01*
X90052381Y-43052380D01*
X90004762Y-43195238D01*
X89909524Y-43290476D01*
X89814286Y-43338095D01*
X89623810Y-43385714D01*
X89480952Y-43385714D01*
X89290476Y-43338095D01*
X89195238Y-43290476D01*
X89100000Y-43195238D01*
X89052381Y-43052380D01*
X89052381Y-42957142D01*
X89100000Y-42814285D01*
X89147619Y-42766666D01*
X89052381Y-41861904D02*
X89052381Y-42338095D01*
X89528571Y-42385714D01*
X89480952Y-42338095D01*
X89433333Y-42242857D01*
X89433333Y-42004761D01*
X89480952Y-41909523D01*
X89528571Y-41861904D01*
X89623810Y-41814285D01*
X89861905Y-41814285D01*
X89957143Y-41861904D01*
X90004762Y-41909523D01*
X90052381Y-42004761D01*
X90052381Y-42242857D01*
X90004762Y-42338095D01*
X89957143Y-42385714D01*
X83557143Y-52116666D02*
X83604762Y-52164285D01*
X83652381Y-52307142D01*
X83652381Y-52402380D01*
X83604762Y-52545238D01*
X83509524Y-52640476D01*
X83414286Y-52688095D01*
X83223810Y-52735714D01*
X83080952Y-52735714D01*
X82890476Y-52688095D01*
X82795238Y-52640476D01*
X82700000Y-52545238D01*
X82652381Y-52402380D01*
X82652381Y-52307142D01*
X82700000Y-52164285D01*
X82747619Y-52116666D01*
X82652381Y-51783333D02*
X82652381Y-51116666D01*
X83652381Y-51545238D01*
X194561905Y-53002381D02*
X194561905Y-52002381D01*
X194942858Y-52002381D01*
X195038096Y-52050000D01*
X195085715Y-52097619D01*
X195133334Y-52192857D01*
X195133334Y-52335714D01*
X195085715Y-52430952D01*
X195038096Y-52478571D01*
X194942858Y-52526190D01*
X194561905Y-52526190D01*
X196085715Y-53002381D02*
X195514286Y-53002381D01*
X195800000Y-53002381D02*
X195800000Y-52002381D01*
X195704762Y-52145238D01*
X195609524Y-52240476D01*
X195514286Y-52288095D01*
X109502381Y-137538095D02*
X108502381Y-137538095D01*
X108502381Y-137157142D01*
X108550000Y-137061904D01*
X108597619Y-137014285D01*
X108692857Y-136966666D01*
X108835714Y-136966666D01*
X108930952Y-137014285D01*
X108978571Y-137061904D01*
X109026190Y-137157142D01*
X109026190Y-137538095D01*
X108597619Y-136585714D02*
X108550000Y-136538095D01*
X108502381Y-136442857D01*
X108502381Y-136204761D01*
X108550000Y-136109523D01*
X108597619Y-136061904D01*
X108692857Y-136014285D01*
X108788095Y-136014285D01*
X108930952Y-136061904D01*
X109502381Y-136633333D01*
X109502381Y-136014285D01*
X201002381Y-83538095D02*
X200002381Y-83538095D01*
X200002381Y-83157142D01*
X200050000Y-83061904D01*
X200097619Y-83014285D01*
X200192857Y-82966666D01*
X200335714Y-82966666D01*
X200430952Y-83014285D01*
X200478571Y-83061904D01*
X200526190Y-83157142D01*
X200526190Y-83538095D01*
X200002381Y-82633333D02*
X200002381Y-82014285D01*
X200383333Y-82347619D01*
X200383333Y-82204761D01*
X200430952Y-82109523D01*
X200478571Y-82061904D01*
X200573810Y-82014285D01*
X200811905Y-82014285D01*
X200907143Y-82061904D01*
X200954762Y-82109523D01*
X201002381Y-82204761D01*
X201002381Y-82490476D01*
X200954762Y-82585714D01*
X200907143Y-82633333D01*
X202561905Y-118902381D02*
X202561905Y-117902381D01*
X202942858Y-117902381D01*
X203038096Y-117950000D01*
X203085715Y-117997619D01*
X203133334Y-118092857D01*
X203133334Y-118235714D01*
X203085715Y-118330952D01*
X203038096Y-118378571D01*
X202942858Y-118426190D01*
X202561905Y-118426190D01*
X204038096Y-117902381D02*
X203561905Y-117902381D01*
X203514286Y-118378571D01*
X203561905Y-118330952D01*
X203657143Y-118283333D01*
X203895239Y-118283333D01*
X203990477Y-118330952D01*
X204038096Y-118378571D01*
X204085715Y-118473810D01*
X204085715Y-118711905D01*
X204038096Y-118807143D01*
X203990477Y-118854762D01*
X203895239Y-118902381D01*
X203657143Y-118902381D01*
X203561905Y-118854762D01*
X203514286Y-118807143D01*
X202502381Y-138038095D02*
X201502381Y-138038095D01*
X201502381Y-137657142D01*
X201550000Y-137561904D01*
X201597619Y-137514285D01*
X201692857Y-137466666D01*
X201835714Y-137466666D01*
X201930952Y-137514285D01*
X201978571Y-137561904D01*
X202026190Y-137657142D01*
X202026190Y-138038095D01*
X201502381Y-136609523D02*
X201502381Y-136800000D01*
X201550000Y-136895238D01*
X201597619Y-136942857D01*
X201740476Y-137038095D01*
X201930952Y-137085714D01*
X202311905Y-137085714D01*
X202407143Y-137038095D01*
X202454762Y-136990476D01*
X202502381Y-136895238D01*
X202502381Y-136704761D01*
X202454762Y-136609523D01*
X202407143Y-136561904D01*
X202311905Y-136514285D01*
X202073810Y-136514285D01*
X201978571Y-136561904D01*
X201930952Y-136609523D01*
X201883333Y-136704761D01*
X201883333Y-136895238D01*
X201930952Y-136990476D01*
X201978571Y-137038095D01*
X202073810Y-137085714D01*
X110752381Y-72288095D02*
X109752381Y-72288095D01*
X109752381Y-71907142D01*
X109800000Y-71811904D01*
X109847619Y-71764285D01*
X109942857Y-71716666D01*
X110085714Y-71716666D01*
X110180952Y-71764285D01*
X110228571Y-71811904D01*
X110276190Y-71907142D01*
X110276190Y-72288095D01*
X109752381Y-71383333D02*
X109752381Y-70716666D01*
X110752381Y-71145238D01*
X92252381Y-64788095D02*
X91252381Y-64788095D01*
X91252381Y-64407142D01*
X91300000Y-64311904D01*
X91347619Y-64264285D01*
X91442857Y-64216666D01*
X91585714Y-64216666D01*
X91680952Y-64264285D01*
X91728571Y-64311904D01*
X91776190Y-64407142D01*
X91776190Y-64788095D01*
X91680952Y-63645238D02*
X91633333Y-63740476D01*
X91585714Y-63788095D01*
X91490476Y-63835714D01*
X91442857Y-63835714D01*
X91347619Y-63788095D01*
X91300000Y-63740476D01*
X91252381Y-63645238D01*
X91252381Y-63454761D01*
X91300000Y-63359523D01*
X91347619Y-63311904D01*
X91442857Y-63264285D01*
X91490476Y-63264285D01*
X91585714Y-63311904D01*
X91633333Y-63359523D01*
X91680952Y-63454761D01*
X91680952Y-63645238D01*
X91728571Y-63740476D01*
X91776190Y-63788095D01*
X91871429Y-63835714D01*
X92061905Y-63835714D01*
X92157143Y-63788095D01*
X92204762Y-63740476D01*
X92252381Y-63645238D01*
X92252381Y-63454761D01*
X92204762Y-63359523D01*
X92157143Y-63311904D01*
X92061905Y-63264285D01*
X91871429Y-63264285D01*
X91776190Y-63311904D01*
X91728571Y-63359523D01*
X91680952Y-63454761D01*
X90552381Y-48866666D02*
X90076190Y-49200000D01*
X90552381Y-49438095D02*
X89552381Y-49438095D01*
X89552381Y-49057142D01*
X89600000Y-48961904D01*
X89647619Y-48914285D01*
X89742857Y-48866666D01*
X89885714Y-48866666D01*
X89980952Y-48914285D01*
X90028571Y-48961904D01*
X90076190Y-49057142D01*
X90076190Y-49438095D01*
X89647619Y-48485714D02*
X89600000Y-48438095D01*
X89552381Y-48342857D01*
X89552381Y-48104761D01*
X89600000Y-48009523D01*
X89647619Y-47961904D01*
X89742857Y-47914285D01*
X89838095Y-47914285D01*
X89980952Y-47961904D01*
X90552381Y-48533333D01*
X90552381Y-47914285D01*
X185078572Y-41052381D02*
X184745238Y-40576190D01*
X184507143Y-41052381D02*
X184507143Y-40052381D01*
X184888096Y-40052381D01*
X184983334Y-40100000D01*
X185030953Y-40147619D01*
X185078572Y-40242857D01*
X185078572Y-40385714D01*
X185030953Y-40480952D01*
X184983334Y-40528571D01*
X184888096Y-40576190D01*
X184507143Y-40576190D01*
X185983334Y-41052381D02*
X185507143Y-41052381D01*
X185507143Y-40052381D01*
X186840477Y-41052381D02*
X186269048Y-41052381D01*
X186554762Y-41052381D02*
X186554762Y-40052381D01*
X186459524Y-40195238D01*
X186364286Y-40290476D01*
X186269048Y-40338095D01*
X155454762Y-53733332D02*
X155502381Y-53590475D01*
X155502381Y-53352379D01*
X155454762Y-53257141D01*
X155407143Y-53209522D01*
X155311905Y-53161903D01*
X155216667Y-53161903D01*
X155121429Y-53209522D01*
X155073810Y-53257141D01*
X155026190Y-53352379D01*
X154978571Y-53542856D01*
X154930952Y-53638094D01*
X154883333Y-53685713D01*
X154788095Y-53733332D01*
X154692857Y-53733332D01*
X154597619Y-53685713D01*
X154550000Y-53638094D01*
X154502381Y-53542856D01*
X154502381Y-53304760D01*
X154550000Y-53161903D01*
X154502381Y-52828570D02*
X155502381Y-52590475D01*
X154788095Y-52399998D01*
X155502381Y-52209522D01*
X154502381Y-51971427D01*
X155502381Y-51066665D02*
X155502381Y-51638094D01*
X155502381Y-51352380D02*
X154502381Y-51352380D01*
X154645238Y-51447618D01*
X154740476Y-51542856D01*
X154788095Y-51638094D01*
X94908095Y-60382381D02*
X94908095Y-61191905D01*
X94955714Y-61287143D01*
X95003333Y-61334762D01*
X95098571Y-61382381D01*
X95289048Y-61382381D01*
X95384286Y-61334762D01*
X95431905Y-61287143D01*
X95479524Y-61191905D01*
X95479524Y-60382381D01*
X96479524Y-61382381D02*
X95908095Y-61382381D01*
X96193809Y-61382381D02*
X96193809Y-60382381D01*
X96098571Y-60525238D01*
X96003333Y-60620476D01*
X95908095Y-60668095D01*
X112934286Y-82752381D02*
X113505715Y-82752381D01*
X113220000Y-83752381D02*
X113220000Y-82752381D01*
X113839048Y-83752381D02*
X113839048Y-82752381D01*
X113839048Y-83228571D02*
X114410477Y-83228571D01*
X114410477Y-83752381D02*
X114410477Y-82752381D01*
X115410477Y-83752381D02*
X114839048Y-83752381D01*
X115124762Y-83752381D02*
X115124762Y-82752381D01*
X115029524Y-82895238D01*
X114934286Y-82990476D01*
X114839048Y-83038095D01*
X112934286Y-92752381D02*
X113505715Y-92752381D01*
X113220000Y-93752381D02*
X113220000Y-92752381D01*
X113839048Y-93752381D02*
X113839048Y-92752381D01*
X113839048Y-93228571D02*
X114410477Y-93228571D01*
X114410477Y-93752381D02*
X114410477Y-92752381D01*
X114791429Y-92752381D02*
X115410477Y-92752381D01*
X115077143Y-93133333D01*
X115220001Y-93133333D01*
X115315239Y-93180952D01*
X115362858Y-93228571D01*
X115410477Y-93323810D01*
X115410477Y-93561905D01*
X115362858Y-93657143D01*
X115315239Y-93704762D01*
X115220001Y-93752381D01*
X114934286Y-93752381D01*
X114839048Y-93704762D01*
X114791429Y-93657143D01*
X112934286Y-122752381D02*
X113505715Y-122752381D01*
X113220000Y-123752381D02*
X113220000Y-122752381D01*
X113839048Y-123752381D02*
X113839048Y-122752381D01*
X113839048Y-123228571D02*
X114410477Y-123228571D01*
X114410477Y-123752381D02*
X114410477Y-122752381D01*
X115362858Y-122752381D02*
X114886667Y-122752381D01*
X114839048Y-123228571D01*
X114886667Y-123180952D01*
X114981905Y-123133333D01*
X115220001Y-123133333D01*
X115315239Y-123180952D01*
X115362858Y-123228571D01*
X115410477Y-123323810D01*
X115410477Y-123561905D01*
X115362858Y-123657143D01*
X115315239Y-123704762D01*
X115220001Y-123752381D01*
X114981905Y-123752381D01*
X114886667Y-123704762D01*
X114839048Y-123657143D01*
X112934286Y-132752381D02*
X113505715Y-132752381D01*
X113220000Y-133752381D02*
X113220000Y-132752381D01*
X113839048Y-133752381D02*
X113839048Y-132752381D01*
X113839048Y-133228571D02*
X114410477Y-133228571D01*
X114410477Y-133752381D02*
X114410477Y-132752381D01*
X114791429Y-132752381D02*
X115458096Y-132752381D01*
X115029524Y-133752381D01*
X112934286Y-142752381D02*
X113505715Y-142752381D01*
X113220000Y-143752381D02*
X113220000Y-142752381D01*
X113839048Y-143752381D02*
X113839048Y-142752381D01*
X113839048Y-143228571D02*
X114410477Y-143228571D01*
X114410477Y-143752381D02*
X114410477Y-142752381D01*
X115029524Y-143180952D02*
X114934286Y-143133333D01*
X114886667Y-143085714D01*
X114839048Y-142990476D01*
X114839048Y-142942857D01*
X114886667Y-142847619D01*
X114934286Y-142800000D01*
X115029524Y-142752381D01*
X115220001Y-142752381D01*
X115315239Y-142800000D01*
X115362858Y-142847619D01*
X115410477Y-142942857D01*
X115410477Y-142990476D01*
X115362858Y-143085714D01*
X115315239Y-143133333D01*
X115220001Y-143180952D01*
X115029524Y-143180952D01*
X114934286Y-143228571D01*
X114886667Y-143276190D01*
X114839048Y-143371429D01*
X114839048Y-143561905D01*
X114886667Y-143657143D01*
X114934286Y-143704762D01*
X115029524Y-143752381D01*
X115220001Y-143752381D01*
X115315239Y-143704762D01*
X115362858Y-143657143D01*
X115410477Y-143561905D01*
X115410477Y-143371429D01*
X115362858Y-143276190D01*
X115315239Y-143228571D01*
X115220001Y-143180952D01*
X191894286Y-142752381D02*
X192465715Y-142752381D01*
X192180000Y-143752381D02*
X192180000Y-142752381D01*
X192799048Y-143752381D02*
X192799048Y-142752381D01*
X192799048Y-143228571D02*
X193370477Y-143228571D01*
X193370477Y-143752381D02*
X193370477Y-142752381D01*
X193894286Y-143752381D02*
X194084762Y-143752381D01*
X194180001Y-143704762D01*
X194227620Y-143657143D01*
X194322858Y-143514286D01*
X194370477Y-143323810D01*
X194370477Y-142942857D01*
X194322858Y-142847619D01*
X194275239Y-142800000D01*
X194180001Y-142752381D01*
X193989524Y-142752381D01*
X193894286Y-142800000D01*
X193846667Y-142847619D01*
X193799048Y-142942857D01*
X193799048Y-143180952D01*
X193846667Y-143276190D01*
X193894286Y-143323810D01*
X193989524Y-143371429D01*
X194180001Y-143371429D01*
X194275239Y-143323810D01*
X194322858Y-143276190D01*
X194370477Y-143180952D01*
X191418095Y-122752381D02*
X191989524Y-122752381D01*
X191703809Y-123752381D02*
X191703809Y-122752381D01*
X192322857Y-123752381D02*
X192322857Y-122752381D01*
X192322857Y-123228571D02*
X192894286Y-123228571D01*
X192894286Y-123752381D02*
X192894286Y-122752381D01*
X193894286Y-123752381D02*
X193322857Y-123752381D01*
X193608571Y-123752381D02*
X193608571Y-122752381D01*
X193513333Y-122895238D01*
X193418095Y-122990476D01*
X193322857Y-123038095D01*
X194846667Y-123752381D02*
X194275238Y-123752381D01*
X194560952Y-123752381D02*
X194560952Y-122752381D01*
X194465714Y-122895238D01*
X194370476Y-122990476D01*
X194275238Y-123038095D01*
X191418095Y-92752381D02*
X191989524Y-92752381D01*
X191703809Y-93752381D02*
X191703809Y-92752381D01*
X192322857Y-93752381D02*
X192322857Y-92752381D01*
X192322857Y-93228571D02*
X192894286Y-93228571D01*
X192894286Y-93752381D02*
X192894286Y-92752381D01*
X193894286Y-93752381D02*
X193322857Y-93752381D01*
X193608571Y-93752381D02*
X193608571Y-92752381D01*
X193513333Y-92895238D01*
X193418095Y-92990476D01*
X193322857Y-93038095D01*
X194227619Y-92752381D02*
X194846667Y-92752381D01*
X194513333Y-93133333D01*
X194656191Y-93133333D01*
X194751429Y-93180952D01*
X194799048Y-93228571D01*
X194846667Y-93323810D01*
X194846667Y-93561905D01*
X194799048Y-93657143D01*
X194751429Y-93704762D01*
X194656191Y-93752381D01*
X194370476Y-93752381D01*
X194275238Y-93704762D01*
X194227619Y-93657143D01*
X191418095Y-132752381D02*
X191989524Y-132752381D01*
X191703809Y-133752381D02*
X191703809Y-132752381D01*
X192322857Y-133752381D02*
X192322857Y-132752381D01*
X192322857Y-133228571D02*
X192894286Y-133228571D01*
X192894286Y-133752381D02*
X192894286Y-132752381D01*
X193894286Y-133752381D02*
X193322857Y-133752381D01*
X193608571Y-133752381D02*
X193608571Y-132752381D01*
X193513333Y-132895238D01*
X193418095Y-132990476D01*
X193322857Y-133038095D01*
X194799048Y-132752381D02*
X194322857Y-132752381D01*
X194275238Y-133228571D01*
X194322857Y-133180952D01*
X194418095Y-133133333D01*
X194656191Y-133133333D01*
X194751429Y-133180952D01*
X194799048Y-133228571D01*
X194846667Y-133323810D01*
X194846667Y-133561905D01*
X194799048Y-133657143D01*
X194751429Y-133704762D01*
X194656191Y-133752381D01*
X194418095Y-133752381D01*
X194322857Y-133704762D01*
X194275238Y-133657143D01*
X191418095Y-82752381D02*
X191989524Y-82752381D01*
X191703809Y-83752381D02*
X191703809Y-82752381D01*
X192322857Y-83752381D02*
X192322857Y-82752381D01*
X192322857Y-83228571D02*
X192894286Y-83228571D01*
X192894286Y-83752381D02*
X192894286Y-82752381D01*
X193894286Y-83752381D02*
X193322857Y-83752381D01*
X193608571Y-83752381D02*
X193608571Y-82752381D01*
X193513333Y-82895238D01*
X193418095Y-82990476D01*
X193322857Y-83038095D01*
X194751429Y-82752381D02*
X194560952Y-82752381D01*
X194465714Y-82800000D01*
X194418095Y-82847619D01*
X194322857Y-82990476D01*
X194275238Y-83180952D01*
X194275238Y-83561905D01*
X194322857Y-83657143D01*
X194370476Y-83704762D01*
X194465714Y-83752381D01*
X194656191Y-83752381D01*
X194751429Y-83704762D01*
X194799048Y-83657143D01*
X194846667Y-83561905D01*
X194846667Y-83323810D01*
X194799048Y-83228571D01*
X194751429Y-83180952D01*
X194656191Y-83133333D01*
X194465714Y-83133333D01*
X194370476Y-83180952D01*
X194322857Y-83228571D01*
X194275238Y-83323810D01*
X95561905Y-86012381D02*
X95561905Y-85012381D01*
X95942858Y-85012381D01*
X96038096Y-85060000D01*
X96085715Y-85107619D01*
X96133334Y-85202857D01*
X96133334Y-85345714D01*
X96085715Y-85440952D01*
X96038096Y-85488571D01*
X95942858Y-85536190D01*
X95561905Y-85536190D01*
X96609524Y-86012381D02*
X96800000Y-86012381D01*
X96895239Y-85964762D01*
X96942858Y-85917143D01*
X97038096Y-85774286D01*
X97085715Y-85583810D01*
X97085715Y-85202857D01*
X97038096Y-85107619D01*
X96990477Y-85060000D01*
X96895239Y-85012381D01*
X96704762Y-85012381D01*
X96609524Y-85060000D01*
X96561905Y-85107619D01*
X96514286Y-85202857D01*
X96514286Y-85440952D01*
X96561905Y-85536190D01*
X96609524Y-85583810D01*
X96704762Y-85631429D01*
X96895239Y-85631429D01*
X96990477Y-85583810D01*
X97038096Y-85536190D01*
X97085715Y-85440952D01*
X90685714Y-115912381D02*
X90685714Y-114912381D01*
X91066667Y-114912381D01*
X91161905Y-114960000D01*
X91209524Y-115007619D01*
X91257143Y-115102857D01*
X91257143Y-115245714D01*
X91209524Y-115340952D01*
X91161905Y-115388571D01*
X91066667Y-115436190D01*
X90685714Y-115436190D01*
X92209524Y-115912381D02*
X91638095Y-115912381D01*
X91923809Y-115912381D02*
X91923809Y-114912381D01*
X91828571Y-115055238D01*
X91733333Y-115150476D01*
X91638095Y-115198095D01*
X92828571Y-114912381D02*
X92923810Y-114912381D01*
X93019048Y-114960000D01*
X93066667Y-115007619D01*
X93114286Y-115102857D01*
X93161905Y-115293333D01*
X93161905Y-115531429D01*
X93114286Y-115721905D01*
X93066667Y-115817143D01*
X93019048Y-115864762D01*
X92923810Y-115912381D01*
X92828571Y-115912381D01*
X92733333Y-115864762D01*
X92685714Y-115817143D01*
X92638095Y-115721905D01*
X92590476Y-115531429D01*
X92590476Y-115293333D01*
X92638095Y-115102857D01*
X92685714Y-115007619D01*
X92733333Y-114960000D01*
X92828571Y-114912381D01*
X215152381Y-95214286D02*
X214152381Y-95214286D01*
X214152381Y-94833333D01*
X214200000Y-94738095D01*
X214247619Y-94690476D01*
X214342857Y-94642857D01*
X214485714Y-94642857D01*
X214580952Y-94690476D01*
X214628571Y-94738095D01*
X214676190Y-94833333D01*
X214676190Y-95214286D01*
X215152381Y-93690476D02*
X215152381Y-94261905D01*
X215152381Y-93976191D02*
X214152381Y-93976191D01*
X214295238Y-94071429D01*
X214390476Y-94166667D01*
X214438095Y-94261905D01*
X215152381Y-92738095D02*
X215152381Y-93309524D01*
X215152381Y-93023810D02*
X214152381Y-93023810D01*
X214295238Y-93119048D01*
X214390476Y-93214286D01*
X214438095Y-93309524D01*
X219452381Y-130914286D02*
X218452381Y-130914286D01*
X218452381Y-130533333D01*
X218500000Y-130438095D01*
X218547619Y-130390476D01*
X218642857Y-130342857D01*
X218785714Y-130342857D01*
X218880952Y-130390476D01*
X218928571Y-130438095D01*
X218976190Y-130533333D01*
X218976190Y-130914286D01*
X219452381Y-129390476D02*
X219452381Y-129961905D01*
X219452381Y-129676191D02*
X218452381Y-129676191D01*
X218595238Y-129771429D01*
X218690476Y-129866667D01*
X218738095Y-129961905D01*
X218547619Y-129009524D02*
X218500000Y-128961905D01*
X218452381Y-128866667D01*
X218452381Y-128628571D01*
X218500000Y-128533333D01*
X218547619Y-128485714D01*
X218642857Y-128438095D01*
X218738095Y-128438095D01*
X218880952Y-128485714D01*
X219452381Y-129057143D01*
X219452381Y-128438095D01*
X177785714Y-144552381D02*
X177785714Y-143552381D01*
X178166667Y-143552381D01*
X178261905Y-143600000D01*
X178309524Y-143647619D01*
X178357143Y-143742857D01*
X178357143Y-143885714D01*
X178309524Y-143980952D01*
X178261905Y-144028571D01*
X178166667Y-144076190D01*
X177785714Y-144076190D01*
X179309524Y-144552381D02*
X178738095Y-144552381D01*
X179023809Y-144552381D02*
X179023809Y-143552381D01*
X178928571Y-143695238D01*
X178833333Y-143790476D01*
X178738095Y-143838095D01*
X179642857Y-143552381D02*
X180261905Y-143552381D01*
X179928571Y-143933333D01*
X180071429Y-143933333D01*
X180166667Y-143980952D01*
X180214286Y-144028571D01*
X180261905Y-144123810D01*
X180261905Y-144361905D01*
X180214286Y-144457143D01*
X180166667Y-144504762D01*
X180071429Y-144552381D01*
X179785714Y-144552381D01*
X179690476Y-144504762D01*
X179642857Y-144457143D01*
X127085714Y-144252381D02*
X127085714Y-143252381D01*
X127466667Y-143252381D01*
X127561905Y-143300000D01*
X127609524Y-143347619D01*
X127657143Y-143442857D01*
X127657143Y-143585714D01*
X127609524Y-143680952D01*
X127561905Y-143728571D01*
X127466667Y-143776190D01*
X127085714Y-143776190D01*
X128609524Y-144252381D02*
X128038095Y-144252381D01*
X128323809Y-144252381D02*
X128323809Y-143252381D01*
X128228571Y-143395238D01*
X128133333Y-143490476D01*
X128038095Y-143538095D01*
X129466667Y-143585714D02*
X129466667Y-144252381D01*
X129228571Y-143204762D02*
X128990476Y-143919048D01*
X129609524Y-143919048D01*
X212861905Y-45652381D02*
X212861905Y-44652381D01*
X213242858Y-44652381D01*
X213338096Y-44700000D01*
X213385715Y-44747619D01*
X213433334Y-44842857D01*
X213433334Y-44985714D01*
X213385715Y-45080952D01*
X213338096Y-45128571D01*
X213242858Y-45176190D01*
X212861905Y-45176190D01*
X214290477Y-44985714D02*
X214290477Y-45652381D01*
X214052381Y-44604762D02*
X213814286Y-45319048D01*
X214433334Y-45319048D01*
X143282254Y-53352261D02*
X142948920Y-52876070D01*
X142710825Y-53352261D02*
X142710825Y-52352261D01*
X143091778Y-52352261D01*
X143187016Y-52399880D01*
X143234635Y-52447499D01*
X143282254Y-52542737D01*
X143282254Y-52685594D01*
X143234635Y-52780832D01*
X143187016Y-52828451D01*
X143091778Y-52876070D01*
X142710825Y-52876070D01*
X143615587Y-52352261D02*
X144234635Y-52352261D01*
X143901301Y-52733213D01*
X144044159Y-52733213D01*
X144139397Y-52780832D01*
X144187016Y-52828451D01*
X144234635Y-52923690D01*
X144234635Y-53161785D01*
X144187016Y-53257023D01*
X144139397Y-53304642D01*
X144044159Y-53352261D01*
X143758444Y-53352261D01*
X143663206Y-53304642D01*
X143615587Y-53257023D01*
X119857143Y-49766666D02*
X119904762Y-49814285D01*
X119952381Y-49957142D01*
X119952381Y-50052380D01*
X119904762Y-50195238D01*
X119809524Y-50290476D01*
X119714286Y-50338095D01*
X119523810Y-50385714D01*
X119380952Y-50385714D01*
X119190476Y-50338095D01*
X119095238Y-50290476D01*
X119000000Y-50195238D01*
X118952381Y-50052380D01*
X118952381Y-49957142D01*
X119000000Y-49814285D01*
X119047619Y-49766666D01*
X119285714Y-48909523D02*
X119952381Y-48909523D01*
X118904762Y-49147619D02*
X119619048Y-49385714D01*
X119619048Y-48766666D01*
X79657143Y-42716666D02*
X79704762Y-42764285D01*
X79752381Y-42907142D01*
X79752381Y-43002380D01*
X79704762Y-43145238D01*
X79609524Y-43240476D01*
X79514286Y-43288095D01*
X79323810Y-43335714D01*
X79180952Y-43335714D01*
X78990476Y-43288095D01*
X78895238Y-43240476D01*
X78800000Y-43145238D01*
X78752381Y-43002380D01*
X78752381Y-42907142D01*
X78800000Y-42764285D01*
X78847619Y-42716666D01*
X78752381Y-41859523D02*
X78752381Y-42050000D01*
X78800000Y-42145238D01*
X78847619Y-42192857D01*
X78990476Y-42288095D01*
X79180952Y-42335714D01*
X79561905Y-42335714D01*
X79657143Y-42288095D01*
X79704762Y-42240476D01*
X79752381Y-42145238D01*
X79752381Y-41954761D01*
X79704762Y-41859523D01*
X79657143Y-41811904D01*
X79561905Y-41764285D01*
X79323810Y-41764285D01*
X79228571Y-41811904D01*
X79180952Y-41859523D01*
X79133333Y-41954761D01*
X79133333Y-42145238D01*
X79180952Y-42240476D01*
X79228571Y-42288095D01*
X79323810Y-42335714D01*
X187352381Y-51666666D02*
X186876190Y-52000000D01*
X187352381Y-52238095D02*
X186352381Y-52238095D01*
X186352381Y-51857142D01*
X186400000Y-51761904D01*
X186447619Y-51714285D01*
X186542857Y-51666666D01*
X186685714Y-51666666D01*
X186780952Y-51714285D01*
X186828571Y-51761904D01*
X186876190Y-51857142D01*
X186876190Y-52238095D01*
X187352381Y-50714285D02*
X187352381Y-51285714D01*
X187352381Y-51000000D02*
X186352381Y-51000000D01*
X186495238Y-51095238D01*
X186590476Y-51190476D01*
X186638095Y-51285714D01*
M02*
