G04 #@! TF.FileFunction,Copper,L2,Bot,Signal*
%FSLAX46Y46*%
G04 Gerber Fmt 4.6, Leading zero omitted, Abs format (unit mm)*
G04 Created by KiCad (PCBNEW 4.0.5) date Wed May 31 10:26:28 2017*
%MOMM*%
%LPD*%
G01*
G04 APERTURE LIST*
%ADD10C,0.100000*%
%ADD11C,1.300000*%
%ADD12R,1.300000X1.300000*%
%ADD13R,2.032000X2.032000*%
%ADD14O,2.032000X2.032000*%
%ADD15R,3.000000X10.000000*%
%ADD16R,10.000000X3.000000*%
%ADD17C,2.800000*%
%ADD18C,4.000000*%
%ADD19R,2.032000X1.727200*%
%ADD20O,2.032000X1.727200*%
%ADD21R,1.727200X1.727200*%
%ADD22O,1.727200X1.727200*%
%ADD23C,1.998980*%
%ADD24R,1.727200X2.032000*%
%ADD25O,1.727200X2.032000*%
%ADD26C,0.600000*%
%ADD27C,0.250000*%
%ADD28C,0.224000*%
G04 APERTURE END LIST*
D10*
D11*
X144250000Y-43750000D03*
D12*
X141750000Y-43750000D03*
D11*
X135300000Y-48700000D03*
D12*
X135300000Y-51200000D03*
D11*
X122300000Y-48700000D03*
D12*
X122300000Y-51200000D03*
D11*
X128800000Y-45600000D03*
D12*
X128800000Y-48100000D03*
D11*
X78800000Y-53200000D03*
D12*
X78800000Y-50700000D03*
D13*
X203300000Y-123550000D03*
D14*
X203300000Y-126090000D03*
D13*
X88550000Y-65590000D03*
D14*
X88550000Y-63050000D03*
D15*
X165200000Y-55500000D03*
X181300000Y-55500000D03*
D16*
X173250000Y-63000000D03*
D15*
X173250000Y-45700000D03*
D17*
X151800000Y-52749999D03*
X151800000Y-48649999D03*
X151800000Y-44550000D03*
D18*
X115720000Y-79800000D03*
X115720000Y-89800000D03*
X115720000Y-119800000D03*
X115720000Y-129800000D03*
X115720000Y-139800000D03*
X194680000Y-139800000D03*
X194680000Y-119800000D03*
X194680000Y-89800000D03*
X194680000Y-129800000D03*
X194680000Y-79800000D03*
D19*
X96300000Y-90660000D03*
D20*
X96300000Y-93200000D03*
X96300000Y-95740000D03*
D19*
X91900000Y-120560000D03*
D20*
X91900000Y-123100000D03*
X91900000Y-125640000D03*
D19*
X216300000Y-91660000D03*
D20*
X216300000Y-94200000D03*
X216300000Y-96740000D03*
D19*
X219000000Y-120720000D03*
D20*
X219000000Y-123260000D03*
X219000000Y-125800000D03*
D21*
X180340000Y-140000000D03*
D22*
X177800000Y-140000000D03*
X180340000Y-137460000D03*
X177800000Y-137460000D03*
X180340000Y-134920000D03*
X177800000Y-134920000D03*
X180340000Y-132380000D03*
X177800000Y-132380000D03*
X180340000Y-129840000D03*
X177800000Y-129840000D03*
X180340000Y-127300000D03*
X177800000Y-127300000D03*
X180340000Y-124760000D03*
X177800000Y-124760000D03*
X180340000Y-122220000D03*
X177800000Y-122220000D03*
X180340000Y-119680000D03*
X177800000Y-119680000D03*
X180340000Y-117140000D03*
X177800000Y-117140000D03*
X180340000Y-114600000D03*
X177800000Y-114600000D03*
X180340000Y-112060000D03*
X177800000Y-112060000D03*
X180340000Y-109520000D03*
X177800000Y-109520000D03*
X180340000Y-106980000D03*
X177800000Y-106980000D03*
X180340000Y-104440000D03*
X177800000Y-104440000D03*
X180340000Y-101900000D03*
X177800000Y-101900000D03*
X180340000Y-99360000D03*
X177800000Y-99360000D03*
X180340000Y-96820000D03*
X177800000Y-96820000D03*
X180340000Y-94280000D03*
X177800000Y-94280000D03*
X180340000Y-91740000D03*
X177800000Y-91740000D03*
X180340000Y-89200000D03*
X177800000Y-89200000D03*
X180340000Y-86660000D03*
X177800000Y-86660000D03*
X180340000Y-84120000D03*
X177800000Y-84120000D03*
X180340000Y-81580000D03*
X177800000Y-81580000D03*
X180340000Y-79040000D03*
X177800000Y-79040000D03*
D21*
X129540000Y-140000000D03*
D22*
X127000000Y-140000000D03*
X129540000Y-137460000D03*
X127000000Y-137460000D03*
X129540000Y-134920000D03*
X127000000Y-134920000D03*
X129540000Y-132380000D03*
X127000000Y-132380000D03*
X129540000Y-129840000D03*
X127000000Y-129840000D03*
X129540000Y-127300000D03*
X127000000Y-127300000D03*
X129540000Y-124760000D03*
X127000000Y-124760000D03*
X129540000Y-122220000D03*
X127000000Y-122220000D03*
X129540000Y-119680000D03*
X127000000Y-119680000D03*
X129540000Y-117140000D03*
X127000000Y-117140000D03*
X129540000Y-114600000D03*
X127000000Y-114600000D03*
X129540000Y-112060000D03*
X127000000Y-112060000D03*
X129540000Y-109520000D03*
X127000000Y-109520000D03*
X129540000Y-106980000D03*
X127000000Y-106980000D03*
X129540000Y-104440000D03*
X127000000Y-104440000D03*
X129540000Y-101900000D03*
X127000000Y-101900000D03*
X129540000Y-99360000D03*
X127000000Y-99360000D03*
X129540000Y-96820000D03*
X127000000Y-96820000D03*
X129540000Y-94280000D03*
X127000000Y-94280000D03*
X129540000Y-91740000D03*
X127000000Y-91740000D03*
X129540000Y-89200000D03*
X127000000Y-89200000D03*
X129540000Y-86660000D03*
X127000000Y-86660000D03*
X129540000Y-84120000D03*
X127000000Y-84120000D03*
X129540000Y-81580000D03*
X127000000Y-81580000D03*
X129540000Y-79040000D03*
X127000000Y-79040000D03*
D19*
X217400000Y-45220000D03*
D20*
X217400000Y-47760000D03*
X217400000Y-50300000D03*
X217400000Y-52840000D03*
X217400000Y-55380000D03*
X217400000Y-57920000D03*
X217400000Y-60460000D03*
D23*
X138120000Y-56400000D03*
X148280000Y-56400000D03*
D11*
X83700000Y-41300000D03*
D12*
X83700000Y-43800000D03*
D21*
X170000000Y-79800000D03*
D22*
X172540000Y-79800000D03*
X170000000Y-82340000D03*
X172540000Y-82340000D03*
X170000000Y-84880000D03*
X172540000Y-84880000D03*
X170000000Y-87420000D03*
X172540000Y-87420000D03*
X170000000Y-89960000D03*
X172540000Y-89960000D03*
X170000000Y-92500000D03*
X172540000Y-92500000D03*
X170000000Y-95040000D03*
X172540000Y-95040000D03*
X170000000Y-97580000D03*
X172540000Y-97580000D03*
X170000000Y-100120000D03*
X172540000Y-100120000D03*
X170000000Y-102660000D03*
X172540000Y-102660000D03*
X170000000Y-105200000D03*
X172540000Y-105200000D03*
X170000000Y-107740000D03*
X172540000Y-107740000D03*
X170000000Y-110280000D03*
X172540000Y-110280000D03*
X170000000Y-112820000D03*
X172540000Y-112820000D03*
X170000000Y-115360000D03*
X172540000Y-115360000D03*
X170000000Y-117900000D03*
X172540000Y-117900000D03*
X170000000Y-120440000D03*
X172540000Y-120440000D03*
X170000000Y-122980000D03*
X172540000Y-122980000D03*
X170000000Y-125520000D03*
X172540000Y-125520000D03*
X170000000Y-128060000D03*
X172540000Y-128060000D03*
D24*
X163520000Y-144450000D03*
D25*
X166060000Y-144450000D03*
X168600000Y-144450000D03*
X171140000Y-144450000D03*
D19*
X98400000Y-111680000D03*
D20*
X98400000Y-109140000D03*
X98400000Y-106600000D03*
X98400000Y-104060000D03*
D19*
X213600000Y-106720000D03*
D20*
X213600000Y-109260000D03*
X213600000Y-111800000D03*
X213600000Y-114340000D03*
D24*
X147000000Y-144500000D03*
D25*
X149540000Y-144500000D03*
X152080000Y-144500000D03*
X154620000Y-144500000D03*
D26*
X130400000Y-41800000D03*
X127900000Y-41800000D03*
X124900000Y-41800000D03*
X122300000Y-41800000D03*
X83700000Y-66050000D03*
X79950000Y-66050000D03*
X79950000Y-63050000D03*
X83750000Y-63050000D03*
X90200000Y-46600000D03*
X141268601Y-108168601D03*
X124300000Y-107000000D03*
X141200000Y-110800000D03*
X124100000Y-110800000D03*
X207100000Y-113900000D03*
X206500000Y-106300000D03*
X141800000Y-92900000D03*
X141900000Y-104400000D03*
X140900000Y-137400000D03*
X175600000Y-114800000D03*
X174800000Y-114000000D03*
D27*
X127900000Y-41800000D02*
X130400000Y-41800000D01*
X122724264Y-41800000D02*
X124900000Y-41800000D01*
X122300000Y-41800000D02*
X122724264Y-41800000D01*
X122300000Y-48700000D02*
X122300000Y-41800000D01*
X79950000Y-66050000D02*
X83700000Y-66050000D01*
X83850000Y-66050000D02*
X83700000Y-66050000D01*
X79950000Y-63050000D02*
X79950000Y-66050000D01*
X83750000Y-63050000D02*
X79950000Y-63050000D01*
X88550000Y-63050000D02*
X83750000Y-63050000D01*
X90200000Y-46600000D02*
X88550000Y-48250000D01*
X88550000Y-48250000D02*
X88550000Y-63050000D01*
X169800000Y-106400000D02*
X170200000Y-106400000D01*
X170200000Y-106400000D02*
X174800000Y-106400000D01*
X167150000Y-108000000D02*
X168750000Y-106400000D01*
X168750000Y-106400000D02*
X170200000Y-106400000D01*
X141861466Y-108000000D02*
X167150000Y-108000000D01*
X141268601Y-108168601D02*
X141692865Y-108168601D01*
X141692865Y-108168601D02*
X141861466Y-108000000D01*
X175200000Y-106000000D02*
X175200000Y-102800000D01*
X175200000Y-102800000D02*
X176100000Y-101900000D01*
X174800000Y-106400000D02*
X175200000Y-106000000D01*
X176100000Y-101900000D02*
X177800000Y-101900000D01*
X123500000Y-106200000D02*
X124300000Y-107000000D01*
X123500000Y-105000000D02*
X123500000Y-106200000D01*
X96300000Y-95740000D02*
X114240000Y-95740000D01*
X114240000Y-95740000D02*
X123500000Y-105000000D01*
X141200000Y-110800000D02*
X167200000Y-110800000D01*
X167200000Y-110800000D02*
X167900000Y-111500000D01*
X167900000Y-111500000D02*
X173200000Y-111500000D01*
X173200000Y-111500000D02*
X173900000Y-110800000D01*
X173900000Y-110800000D02*
X179060000Y-110800000D01*
X179060000Y-110800000D02*
X180340000Y-109520000D01*
X108006000Y-110800000D02*
X124100000Y-110800000D01*
X93166000Y-125640000D02*
X108006000Y-110800000D01*
X91900000Y-125640000D02*
X93166000Y-125640000D01*
X180340000Y-104440000D02*
X214060000Y-104440000D01*
X214060000Y-104440000D02*
X216300000Y-102200000D01*
X216300000Y-102200000D02*
X216300000Y-96740000D01*
X207100000Y-123900000D02*
X209000000Y-125800000D01*
X209000000Y-125800000D02*
X219000000Y-125800000D01*
X207100000Y-113900000D02*
X207100000Y-123900000D01*
X206000000Y-105800000D02*
X206500000Y-106300000D01*
X182741314Y-105800000D02*
X206000000Y-105800000D01*
X180340000Y-106980000D02*
X181561314Y-106980000D01*
X181561314Y-106980000D02*
X182741314Y-105800000D01*
X180340000Y-81580000D02*
X184720000Y-81580000D01*
X217247600Y-47760000D02*
X217400000Y-47760000D01*
X184720000Y-81580000D02*
X186300000Y-80000000D01*
X186300000Y-80000000D02*
X186300000Y-61800000D01*
X215707600Y-49300000D02*
X217247600Y-47760000D01*
X186300000Y-61800000D02*
X191800000Y-56300000D01*
X191800000Y-56300000D02*
X207000000Y-56300000D01*
X207000000Y-56300000D02*
X214000000Y-49300000D01*
X214000000Y-49300000D02*
X215707600Y-49300000D01*
X177800000Y-86660000D02*
X179151399Y-85308601D01*
X179151399Y-85308601D02*
X182891399Y-85308601D01*
X182891399Y-85308601D02*
X187300000Y-80900000D01*
X214000000Y-50300000D02*
X217400000Y-50300000D01*
X187300000Y-80900000D02*
X187300000Y-62200000D01*
X187300000Y-62200000D02*
X192500000Y-57000000D01*
X192500000Y-57000000D02*
X207300000Y-57000000D01*
X207300000Y-57000000D02*
X214000000Y-50300000D01*
X193100000Y-57700000D02*
X207900000Y-57700000D01*
X181900000Y-92500000D02*
X181900000Y-88400000D01*
X146400000Y-93000000D02*
X151400000Y-88000000D01*
X141800000Y-92900000D02*
X141900000Y-93000000D01*
X141900000Y-93000000D02*
X146400000Y-93000000D01*
X168900000Y-93700000D02*
X175500000Y-93700000D01*
X164600000Y-88000000D02*
X168300000Y-91700000D01*
X151400000Y-88000000D02*
X164600000Y-88000000D01*
X168300000Y-91700000D02*
X168300000Y-93100000D01*
X181400000Y-93000000D02*
X181900000Y-92500000D01*
X168300000Y-93100000D02*
X168900000Y-93700000D01*
X181900000Y-88400000D02*
X188100000Y-82200000D01*
X175500000Y-93700000D02*
X176200000Y-93000000D01*
X176200000Y-93000000D02*
X181400000Y-93000000D01*
X188100000Y-82200000D02*
X188100000Y-62700000D01*
X188100000Y-62700000D02*
X193100000Y-57700000D01*
X207900000Y-57700000D02*
X212760000Y-52840000D01*
X212760000Y-52840000D02*
X217400000Y-52840000D01*
X141900000Y-104400000D02*
X141900000Y-96700000D01*
X141900000Y-96700000D02*
X144400000Y-94200000D01*
X175850000Y-96350000D02*
X176600000Y-95600000D01*
X144400000Y-94200000D02*
X146400000Y-94200000D01*
X151700000Y-88900000D02*
X164200000Y-88900000D01*
X146400000Y-94200000D02*
X151700000Y-88900000D01*
X164200000Y-88900000D02*
X167500000Y-92200000D01*
X182700000Y-94600000D02*
X182700000Y-89800000D01*
X167500000Y-92200000D02*
X167500000Y-95300000D01*
X176600000Y-95600000D02*
X181700000Y-95600000D01*
X182700000Y-89800000D02*
X188800000Y-83700000D01*
X167500000Y-95300000D02*
X168550000Y-96350000D01*
X168550000Y-96350000D02*
X175850000Y-96350000D01*
X181700000Y-95600000D02*
X182700000Y-94600000D01*
X188800000Y-83700000D02*
X188800000Y-63300000D01*
X188800000Y-63300000D02*
X193600000Y-58500000D01*
X208100000Y-58500000D02*
X211220000Y-55380000D01*
X193600000Y-58500000D02*
X208100000Y-58500000D01*
X211220000Y-55380000D02*
X217400000Y-55380000D01*
X184400000Y-91300000D02*
X189900000Y-85800000D01*
X182100000Y-98100000D02*
X184400000Y-95800000D01*
X184400000Y-95800000D02*
X184400000Y-91300000D01*
X177300870Y-98100000D02*
X182100000Y-98100000D01*
X168400000Y-98800000D02*
X176600870Y-98800000D01*
X176600870Y-98800000D02*
X177300870Y-98100000D01*
X166700000Y-97100000D02*
X168400000Y-98800000D01*
X163600000Y-89800000D02*
X166700000Y-92900000D01*
X166700000Y-92900000D02*
X166700000Y-97100000D01*
X141200000Y-137100000D02*
X140900000Y-137400000D01*
X141200000Y-112500000D02*
X141200000Y-137100000D01*
X140000000Y-111300000D02*
X141200000Y-112500000D01*
X140000000Y-107300000D02*
X140000000Y-111300000D01*
X141000000Y-106300000D02*
X140000000Y-107300000D01*
X142800000Y-106300000D02*
X141000000Y-106300000D01*
X146900000Y-102200000D02*
X142800000Y-106300000D01*
X146900000Y-95300000D02*
X146900000Y-102200000D01*
X152400000Y-89800000D02*
X163600000Y-89800000D01*
X208500000Y-59200000D02*
X209780000Y-57920000D01*
X146900000Y-95300000D02*
X152400000Y-89800000D01*
X189900000Y-85800000D02*
X189900000Y-63500000D01*
X189900000Y-63500000D02*
X194200000Y-59200000D01*
X194200000Y-59200000D02*
X208500000Y-59200000D01*
X209780000Y-57920000D02*
X210900000Y-57920000D01*
X210900000Y-57920000D02*
X217400000Y-57920000D01*
X184740000Y-109260000D02*
X213600000Y-109260000D01*
X183500000Y-125900000D02*
X182100000Y-127300000D01*
X182100000Y-127300000D02*
X180340000Y-127300000D01*
X183500000Y-110500000D02*
X183500000Y-125900000D01*
X184740000Y-109260000D02*
X183500000Y-110500000D01*
X185400000Y-111800000D02*
X213600000Y-111800000D01*
X178988601Y-127988601D02*
X178988601Y-125948601D01*
X185400000Y-111800000D02*
X184500000Y-112700000D01*
X178988601Y-125948601D02*
X177800000Y-124760000D01*
X184500000Y-112700000D02*
X184500000Y-126700000D01*
X184500000Y-126700000D02*
X182600000Y-128600000D01*
X182600000Y-128600000D02*
X179600000Y-128600000D01*
X179600000Y-128600000D02*
X178988601Y-127988601D01*
X98400000Y-106600000D02*
X99666000Y-106600000D01*
X125500000Y-110200000D02*
X126100000Y-110800000D01*
X99666000Y-106600000D02*
X101966000Y-108900000D01*
X101966000Y-108900000D02*
X124700000Y-108900000D01*
X124700000Y-108900000D02*
X125500000Y-109700000D01*
X127800000Y-110800000D02*
X128300000Y-111300000D01*
X125500000Y-109700000D02*
X125500000Y-110200000D01*
X126100000Y-110800000D02*
X127800000Y-110800000D01*
X128300000Y-111300000D02*
X128300000Y-113360000D01*
X128300000Y-113360000D02*
X128800000Y-113860000D01*
X128800000Y-113860000D02*
X129540000Y-114600000D01*
X125800000Y-114600000D02*
X127000000Y-114600000D01*
X125000000Y-113800000D02*
X125800000Y-114600000D01*
X125000000Y-110200000D02*
X125000000Y-113800000D01*
X124600000Y-109800000D02*
X125000000Y-110200000D01*
X100326000Y-109800000D02*
X124600000Y-109800000D01*
X98400000Y-109140000D02*
X99666000Y-109140000D01*
X99666000Y-109140000D02*
X100326000Y-109800000D01*
X168600000Y-144450000D02*
X168600000Y-143184000D01*
X168600000Y-143184000D02*
X168984000Y-142800000D01*
X173400000Y-142800000D02*
X175200000Y-141000000D01*
X168984000Y-142800000D02*
X173400000Y-142800000D01*
X175200000Y-141000000D02*
X175200000Y-115200000D01*
X175200000Y-115200000D02*
X175600000Y-114800000D01*
X173000000Y-141800000D02*
X173150000Y-141650000D01*
X173150000Y-141650000D02*
X174600000Y-140200000D01*
X172600000Y-142200000D02*
X173150000Y-141650000D01*
X167044000Y-142200000D02*
X172600000Y-142200000D01*
X166060000Y-144450000D02*
X166060000Y-143184000D01*
X166060000Y-143184000D02*
X167044000Y-142200000D01*
X174600000Y-114200000D02*
X174800000Y-114000000D01*
X174600000Y-140200000D02*
X174600000Y-114200000D01*
D28*
G36*
X137488000Y-54908846D02*
X137203831Y-55026262D01*
X136747863Y-55481435D01*
X136500791Y-56076450D01*
X136500229Y-56720723D01*
X136746262Y-57316169D01*
X137201435Y-57772137D01*
X137488000Y-57891129D01*
X137488000Y-64800000D01*
X137496824Y-64843574D01*
X137521906Y-64880282D01*
X137559293Y-64904340D01*
X137600000Y-64912000D01*
X167778356Y-64912000D01*
X167796873Y-64940777D01*
X168004060Y-65082342D01*
X168250000Y-65132146D01*
X178250000Y-65132146D01*
X178479758Y-65088914D01*
X178690777Y-64953127D01*
X178718878Y-64912000D01*
X182688000Y-64912000D01*
X182688000Y-80088000D01*
X181354996Y-80088000D01*
X181618221Y-79793161D01*
X181776394Y-79411272D01*
X181660990Y-79182000D01*
X180482000Y-79182000D01*
X180482000Y-79202000D01*
X180198000Y-79202000D01*
X180198000Y-79182000D01*
X177942000Y-79182000D01*
X177942000Y-79202000D01*
X177658000Y-79202000D01*
X177658000Y-79182000D01*
X176479010Y-79182000D01*
X176363606Y-79411272D01*
X176521779Y-79793161D01*
X176785004Y-80088000D01*
X176400000Y-80088000D01*
X176356426Y-80096824D01*
X176319718Y-80121906D01*
X176295660Y-80159293D01*
X176288000Y-80200000D01*
X176288000Y-81576657D01*
X176287335Y-81580000D01*
X176288000Y-81583343D01*
X176288000Y-84116657D01*
X176287335Y-84120000D01*
X176288000Y-84123343D01*
X176288000Y-85988000D01*
X173501429Y-85988000D01*
X173818221Y-85633161D01*
X173976394Y-85251272D01*
X173860990Y-85022000D01*
X172682000Y-85022000D01*
X172682000Y-85042000D01*
X172398000Y-85042000D01*
X172398000Y-85022000D01*
X172378000Y-85022000D01*
X172378000Y-84738000D01*
X172398000Y-84738000D01*
X172398000Y-84718000D01*
X172682000Y-84718000D01*
X172682000Y-84738000D01*
X173860990Y-84738000D01*
X173976394Y-84508728D01*
X173818221Y-84126839D01*
X173492502Y-83762000D01*
X175600000Y-83762000D01*
X175643574Y-83753176D01*
X175680282Y-83728094D01*
X175704340Y-83690707D01*
X175712000Y-83650000D01*
X175712000Y-78668728D01*
X176363606Y-78668728D01*
X176479010Y-78898000D01*
X177658000Y-78898000D01*
X177658000Y-77718200D01*
X177942000Y-77718200D01*
X177942000Y-78898000D01*
X180198000Y-78898000D01*
X180198000Y-77718200D01*
X180482000Y-77718200D01*
X180482000Y-78898000D01*
X181660990Y-78898000D01*
X181776394Y-78668728D01*
X181618221Y-78286839D01*
X181232700Y-77855016D01*
X180711274Y-77603596D01*
X180482000Y-77718200D01*
X180198000Y-77718200D01*
X179968726Y-77603596D01*
X179447300Y-77855016D01*
X179070000Y-78277631D01*
X178692700Y-77855016D01*
X178171274Y-77603596D01*
X177942000Y-77718200D01*
X177658000Y-77718200D01*
X177428726Y-77603596D01*
X176907300Y-77855016D01*
X176521779Y-78286839D01*
X176363606Y-78668728D01*
X175712000Y-78668728D01*
X175712000Y-75600000D01*
X175703176Y-75556426D01*
X175678094Y-75519718D01*
X175640707Y-75495660D01*
X175600000Y-75488000D01*
X173261514Y-75488000D01*
X173379631Y-75203544D01*
X173380367Y-74360156D01*
X173058296Y-73580685D01*
X172462451Y-72983800D01*
X171683544Y-72660369D01*
X170840156Y-72659633D01*
X170060685Y-72981704D01*
X169463800Y-73577549D01*
X169140369Y-74356456D01*
X169139633Y-75199844D01*
X169258697Y-75488000D01*
X132000000Y-75488000D01*
X131956426Y-75496824D01*
X131919718Y-75521906D01*
X131895660Y-75559293D01*
X131888000Y-75600000D01*
X131888000Y-80188000D01*
X130465718Y-80188000D01*
X130818221Y-79793161D01*
X130976394Y-79411272D01*
X130860990Y-79182000D01*
X129682000Y-79182000D01*
X129682000Y-79202000D01*
X129398000Y-79202000D01*
X129398000Y-79182000D01*
X127142000Y-79182000D01*
X127142000Y-79202000D01*
X126858000Y-79202000D01*
X126858000Y-79182000D01*
X125679010Y-79182000D01*
X125563606Y-79411272D01*
X125721779Y-79793161D01*
X126074282Y-80188000D01*
X124912000Y-80188000D01*
X124912000Y-78668728D01*
X125563606Y-78668728D01*
X125679010Y-78898000D01*
X126858000Y-78898000D01*
X126858000Y-77718200D01*
X127142000Y-77718200D01*
X127142000Y-78898000D01*
X129398000Y-78898000D01*
X129398000Y-77718200D01*
X129682000Y-77718200D01*
X129682000Y-78898000D01*
X130860990Y-78898000D01*
X130976394Y-78668728D01*
X130818221Y-78286839D01*
X130432700Y-77855016D01*
X129911274Y-77603596D01*
X129682000Y-77718200D01*
X129398000Y-77718200D01*
X129168726Y-77603596D01*
X128647300Y-77855016D01*
X128270000Y-78277631D01*
X127892700Y-77855016D01*
X127371274Y-77603596D01*
X127142000Y-77718200D01*
X126858000Y-77718200D01*
X126628726Y-77603596D01*
X126107300Y-77855016D01*
X125721779Y-78286839D01*
X125563606Y-78668728D01*
X124912000Y-78668728D01*
X124912000Y-54000000D01*
X124903176Y-53956426D01*
X124878094Y-53919718D01*
X124840707Y-53895660D01*
X124800000Y-53888000D01*
X116112000Y-53888000D01*
X116112000Y-50550000D01*
X121017854Y-50550000D01*
X121017854Y-51850000D01*
X121061086Y-52079758D01*
X121196873Y-52290777D01*
X121404060Y-52432342D01*
X121650000Y-52482146D01*
X122950000Y-52482146D01*
X123179758Y-52438914D01*
X123390777Y-52303127D01*
X123532342Y-52095940D01*
X123582146Y-51850000D01*
X123582146Y-50550000D01*
X134017854Y-50550000D01*
X134017854Y-51850000D01*
X134061086Y-52079758D01*
X134196873Y-52290777D01*
X134404060Y-52432342D01*
X134650000Y-52482146D01*
X135950000Y-52482146D01*
X136179758Y-52438914D01*
X136390777Y-52303127D01*
X136532342Y-52095940D01*
X136582146Y-51850000D01*
X136582146Y-50550000D01*
X136538914Y-50320242D01*
X136403127Y-50109223D01*
X136195940Y-49967658D01*
X135950000Y-49917854D01*
X135716815Y-49917854D01*
X135941641Y-49824728D01*
X135999330Y-49600148D01*
X135300000Y-48900818D01*
X134600670Y-49600148D01*
X134658359Y-49824728D01*
X134937427Y-49917854D01*
X134650000Y-49917854D01*
X134420242Y-49961086D01*
X134209223Y-50096873D01*
X134067658Y-50304060D01*
X134017854Y-50550000D01*
X123582146Y-50550000D01*
X123538914Y-50320242D01*
X123403127Y-50109223D01*
X123195940Y-49967658D01*
X122950000Y-49917854D01*
X122716815Y-49917854D01*
X122941641Y-49824728D01*
X122999330Y-49600148D01*
X122300000Y-48900818D01*
X121600670Y-49600148D01*
X121658359Y-49824728D01*
X121937427Y-49917854D01*
X121650000Y-49917854D01*
X121420242Y-49961086D01*
X121209223Y-50096873D01*
X121067658Y-50304060D01*
X121017854Y-50550000D01*
X116112000Y-50550000D01*
X116112000Y-48537616D01*
X121015342Y-48537616D01*
X121050989Y-49041595D01*
X121175272Y-49341641D01*
X121399852Y-49399330D01*
X122099182Y-48700000D01*
X122500818Y-48700000D01*
X123200148Y-49399330D01*
X123424728Y-49341641D01*
X123584658Y-48862384D01*
X123549011Y-48358405D01*
X123424728Y-48058359D01*
X123200148Y-48000670D01*
X122500818Y-48700000D01*
X122099182Y-48700000D01*
X121399852Y-48000670D01*
X121175272Y-48058359D01*
X121015342Y-48537616D01*
X116112000Y-48537616D01*
X116112000Y-47799852D01*
X121600670Y-47799852D01*
X122300000Y-48499182D01*
X122999330Y-47799852D01*
X122941641Y-47575272D01*
X122566243Y-47450000D01*
X127517854Y-47450000D01*
X127517854Y-48750000D01*
X127561086Y-48979758D01*
X127696873Y-49190777D01*
X127904060Y-49332342D01*
X128150000Y-49382146D01*
X129450000Y-49382146D01*
X129679758Y-49338914D01*
X129890777Y-49203127D01*
X130032342Y-48995940D01*
X130082146Y-48750000D01*
X130082146Y-48537616D01*
X134015342Y-48537616D01*
X134050989Y-49041595D01*
X134175272Y-49341641D01*
X134399852Y-49399330D01*
X135099182Y-48700000D01*
X135500818Y-48700000D01*
X136200148Y-49399330D01*
X136424728Y-49341641D01*
X136584658Y-48862384D01*
X136549011Y-48358405D01*
X136424728Y-48058359D01*
X136200148Y-48000670D01*
X135500818Y-48700000D01*
X135099182Y-48700000D01*
X134399852Y-48000670D01*
X134175272Y-48058359D01*
X134015342Y-48537616D01*
X130082146Y-48537616D01*
X130082146Y-47799852D01*
X134600670Y-47799852D01*
X135300000Y-48499182D01*
X135999330Y-47799852D01*
X135941641Y-47575272D01*
X135462384Y-47415342D01*
X134958405Y-47450989D01*
X134658359Y-47575272D01*
X134600670Y-47799852D01*
X130082146Y-47799852D01*
X130082146Y-47450000D01*
X130038914Y-47220242D01*
X129903127Y-47009223D01*
X129695940Y-46867658D01*
X129450000Y-46817854D01*
X129216815Y-46817854D01*
X129441641Y-46724728D01*
X129499330Y-46500148D01*
X128800000Y-45800818D01*
X128100670Y-46500148D01*
X128158359Y-46724728D01*
X128437427Y-46817854D01*
X128150000Y-46817854D01*
X127920242Y-46861086D01*
X127709223Y-46996873D01*
X127567658Y-47204060D01*
X127517854Y-47450000D01*
X122566243Y-47450000D01*
X122462384Y-47415342D01*
X121958405Y-47450989D01*
X121658359Y-47575272D01*
X121600670Y-47799852D01*
X116112000Y-47799852D01*
X116112000Y-45437616D01*
X127515342Y-45437616D01*
X127550989Y-45941595D01*
X127675272Y-46241641D01*
X127899852Y-46299330D01*
X128599182Y-45600000D01*
X129000818Y-45600000D01*
X129700148Y-46299330D01*
X129924728Y-46241641D01*
X130084658Y-45762384D01*
X130049011Y-45258405D01*
X129924728Y-44958359D01*
X129700148Y-44900670D01*
X129000818Y-45600000D01*
X128599182Y-45600000D01*
X127899852Y-44900670D01*
X127675272Y-44958359D01*
X127515342Y-45437616D01*
X116112000Y-45437616D01*
X116112000Y-44699852D01*
X128100670Y-44699852D01*
X128800000Y-45399182D01*
X129499330Y-44699852D01*
X129441641Y-44475272D01*
X128962384Y-44315342D01*
X128458405Y-44350989D01*
X128158359Y-44475272D01*
X128100670Y-44699852D01*
X116112000Y-44699852D01*
X116112000Y-39812000D01*
X137488000Y-39812000D01*
X137488000Y-54908846D01*
X137488000Y-54908846D01*
G37*
X137488000Y-54908846D02*
X137203831Y-55026262D01*
X136747863Y-55481435D01*
X136500791Y-56076450D01*
X136500229Y-56720723D01*
X136746262Y-57316169D01*
X137201435Y-57772137D01*
X137488000Y-57891129D01*
X137488000Y-64800000D01*
X137496824Y-64843574D01*
X137521906Y-64880282D01*
X137559293Y-64904340D01*
X137600000Y-64912000D01*
X167778356Y-64912000D01*
X167796873Y-64940777D01*
X168004060Y-65082342D01*
X168250000Y-65132146D01*
X178250000Y-65132146D01*
X178479758Y-65088914D01*
X178690777Y-64953127D01*
X178718878Y-64912000D01*
X182688000Y-64912000D01*
X182688000Y-80088000D01*
X181354996Y-80088000D01*
X181618221Y-79793161D01*
X181776394Y-79411272D01*
X181660990Y-79182000D01*
X180482000Y-79182000D01*
X180482000Y-79202000D01*
X180198000Y-79202000D01*
X180198000Y-79182000D01*
X177942000Y-79182000D01*
X177942000Y-79202000D01*
X177658000Y-79202000D01*
X177658000Y-79182000D01*
X176479010Y-79182000D01*
X176363606Y-79411272D01*
X176521779Y-79793161D01*
X176785004Y-80088000D01*
X176400000Y-80088000D01*
X176356426Y-80096824D01*
X176319718Y-80121906D01*
X176295660Y-80159293D01*
X176288000Y-80200000D01*
X176288000Y-81576657D01*
X176287335Y-81580000D01*
X176288000Y-81583343D01*
X176288000Y-84116657D01*
X176287335Y-84120000D01*
X176288000Y-84123343D01*
X176288000Y-85988000D01*
X173501429Y-85988000D01*
X173818221Y-85633161D01*
X173976394Y-85251272D01*
X173860990Y-85022000D01*
X172682000Y-85022000D01*
X172682000Y-85042000D01*
X172398000Y-85042000D01*
X172398000Y-85022000D01*
X172378000Y-85022000D01*
X172378000Y-84738000D01*
X172398000Y-84738000D01*
X172398000Y-84718000D01*
X172682000Y-84718000D01*
X172682000Y-84738000D01*
X173860990Y-84738000D01*
X173976394Y-84508728D01*
X173818221Y-84126839D01*
X173492502Y-83762000D01*
X175600000Y-83762000D01*
X175643574Y-83753176D01*
X175680282Y-83728094D01*
X175704340Y-83690707D01*
X175712000Y-83650000D01*
X175712000Y-78668728D01*
X176363606Y-78668728D01*
X176479010Y-78898000D01*
X177658000Y-78898000D01*
X177658000Y-77718200D01*
X177942000Y-77718200D01*
X177942000Y-78898000D01*
X180198000Y-78898000D01*
X180198000Y-77718200D01*
X180482000Y-77718200D01*
X180482000Y-78898000D01*
X181660990Y-78898000D01*
X181776394Y-78668728D01*
X181618221Y-78286839D01*
X181232700Y-77855016D01*
X180711274Y-77603596D01*
X180482000Y-77718200D01*
X180198000Y-77718200D01*
X179968726Y-77603596D01*
X179447300Y-77855016D01*
X179070000Y-78277631D01*
X178692700Y-77855016D01*
X178171274Y-77603596D01*
X177942000Y-77718200D01*
X177658000Y-77718200D01*
X177428726Y-77603596D01*
X176907300Y-77855016D01*
X176521779Y-78286839D01*
X176363606Y-78668728D01*
X175712000Y-78668728D01*
X175712000Y-75600000D01*
X175703176Y-75556426D01*
X175678094Y-75519718D01*
X175640707Y-75495660D01*
X175600000Y-75488000D01*
X173261514Y-75488000D01*
X173379631Y-75203544D01*
X173380367Y-74360156D01*
X173058296Y-73580685D01*
X172462451Y-72983800D01*
X171683544Y-72660369D01*
X170840156Y-72659633D01*
X170060685Y-72981704D01*
X169463800Y-73577549D01*
X169140369Y-74356456D01*
X169139633Y-75199844D01*
X169258697Y-75488000D01*
X132000000Y-75488000D01*
X131956426Y-75496824D01*
X131919718Y-75521906D01*
X131895660Y-75559293D01*
X131888000Y-75600000D01*
X131888000Y-80188000D01*
X130465718Y-80188000D01*
X130818221Y-79793161D01*
X130976394Y-79411272D01*
X130860990Y-79182000D01*
X129682000Y-79182000D01*
X129682000Y-79202000D01*
X129398000Y-79202000D01*
X129398000Y-79182000D01*
X127142000Y-79182000D01*
X127142000Y-79202000D01*
X126858000Y-79202000D01*
X126858000Y-79182000D01*
X125679010Y-79182000D01*
X125563606Y-79411272D01*
X125721779Y-79793161D01*
X126074282Y-80188000D01*
X124912000Y-80188000D01*
X124912000Y-78668728D01*
X125563606Y-78668728D01*
X125679010Y-78898000D01*
X126858000Y-78898000D01*
X126858000Y-77718200D01*
X127142000Y-77718200D01*
X127142000Y-78898000D01*
X129398000Y-78898000D01*
X129398000Y-77718200D01*
X129682000Y-77718200D01*
X129682000Y-78898000D01*
X130860990Y-78898000D01*
X130976394Y-78668728D01*
X130818221Y-78286839D01*
X130432700Y-77855016D01*
X129911274Y-77603596D01*
X129682000Y-77718200D01*
X129398000Y-77718200D01*
X129168726Y-77603596D01*
X128647300Y-77855016D01*
X128270000Y-78277631D01*
X127892700Y-77855016D01*
X127371274Y-77603596D01*
X127142000Y-77718200D01*
X126858000Y-77718200D01*
X126628726Y-77603596D01*
X126107300Y-77855016D01*
X125721779Y-78286839D01*
X125563606Y-78668728D01*
X124912000Y-78668728D01*
X124912000Y-54000000D01*
X124903176Y-53956426D01*
X124878094Y-53919718D01*
X124840707Y-53895660D01*
X124800000Y-53888000D01*
X116112000Y-53888000D01*
X116112000Y-50550000D01*
X121017854Y-50550000D01*
X121017854Y-51850000D01*
X121061086Y-52079758D01*
X121196873Y-52290777D01*
X121404060Y-52432342D01*
X121650000Y-52482146D01*
X122950000Y-52482146D01*
X123179758Y-52438914D01*
X123390777Y-52303127D01*
X123532342Y-52095940D01*
X123582146Y-51850000D01*
X123582146Y-50550000D01*
X134017854Y-50550000D01*
X134017854Y-51850000D01*
X134061086Y-52079758D01*
X134196873Y-52290777D01*
X134404060Y-52432342D01*
X134650000Y-52482146D01*
X135950000Y-52482146D01*
X136179758Y-52438914D01*
X136390777Y-52303127D01*
X136532342Y-52095940D01*
X136582146Y-51850000D01*
X136582146Y-50550000D01*
X136538914Y-50320242D01*
X136403127Y-50109223D01*
X136195940Y-49967658D01*
X135950000Y-49917854D01*
X135716815Y-49917854D01*
X135941641Y-49824728D01*
X135999330Y-49600148D01*
X135300000Y-48900818D01*
X134600670Y-49600148D01*
X134658359Y-49824728D01*
X134937427Y-49917854D01*
X134650000Y-49917854D01*
X134420242Y-49961086D01*
X134209223Y-50096873D01*
X134067658Y-50304060D01*
X134017854Y-50550000D01*
X123582146Y-50550000D01*
X123538914Y-50320242D01*
X123403127Y-50109223D01*
X123195940Y-49967658D01*
X122950000Y-49917854D01*
X122716815Y-49917854D01*
X122941641Y-49824728D01*
X122999330Y-49600148D01*
X122300000Y-48900818D01*
X121600670Y-49600148D01*
X121658359Y-49824728D01*
X121937427Y-49917854D01*
X121650000Y-49917854D01*
X121420242Y-49961086D01*
X121209223Y-50096873D01*
X121067658Y-50304060D01*
X121017854Y-50550000D01*
X116112000Y-50550000D01*
X116112000Y-48537616D01*
X121015342Y-48537616D01*
X121050989Y-49041595D01*
X121175272Y-49341641D01*
X121399852Y-49399330D01*
X122099182Y-48700000D01*
X122500818Y-48700000D01*
X123200148Y-49399330D01*
X123424728Y-49341641D01*
X123584658Y-48862384D01*
X123549011Y-48358405D01*
X123424728Y-48058359D01*
X123200148Y-48000670D01*
X122500818Y-48700000D01*
X122099182Y-48700000D01*
X121399852Y-48000670D01*
X121175272Y-48058359D01*
X121015342Y-48537616D01*
X116112000Y-48537616D01*
X116112000Y-47799852D01*
X121600670Y-47799852D01*
X122300000Y-48499182D01*
X122999330Y-47799852D01*
X122941641Y-47575272D01*
X122566243Y-47450000D01*
X127517854Y-47450000D01*
X127517854Y-48750000D01*
X127561086Y-48979758D01*
X127696873Y-49190777D01*
X127904060Y-49332342D01*
X128150000Y-49382146D01*
X129450000Y-49382146D01*
X129679758Y-49338914D01*
X129890777Y-49203127D01*
X130032342Y-48995940D01*
X130082146Y-48750000D01*
X130082146Y-48537616D01*
X134015342Y-48537616D01*
X134050989Y-49041595D01*
X134175272Y-49341641D01*
X134399852Y-49399330D01*
X135099182Y-48700000D01*
X135500818Y-48700000D01*
X136200148Y-49399330D01*
X136424728Y-49341641D01*
X136584658Y-48862384D01*
X136549011Y-48358405D01*
X136424728Y-48058359D01*
X136200148Y-48000670D01*
X135500818Y-48700000D01*
X135099182Y-48700000D01*
X134399852Y-48000670D01*
X134175272Y-48058359D01*
X134015342Y-48537616D01*
X130082146Y-48537616D01*
X130082146Y-47799852D01*
X134600670Y-47799852D01*
X135300000Y-48499182D01*
X135999330Y-47799852D01*
X135941641Y-47575272D01*
X135462384Y-47415342D01*
X134958405Y-47450989D01*
X134658359Y-47575272D01*
X134600670Y-47799852D01*
X130082146Y-47799852D01*
X130082146Y-47450000D01*
X130038914Y-47220242D01*
X129903127Y-47009223D01*
X129695940Y-46867658D01*
X129450000Y-46817854D01*
X129216815Y-46817854D01*
X129441641Y-46724728D01*
X129499330Y-46500148D01*
X128800000Y-45800818D01*
X128100670Y-46500148D01*
X128158359Y-46724728D01*
X128437427Y-46817854D01*
X128150000Y-46817854D01*
X127920242Y-46861086D01*
X127709223Y-46996873D01*
X127567658Y-47204060D01*
X127517854Y-47450000D01*
X122566243Y-47450000D01*
X122462384Y-47415342D01*
X121958405Y-47450989D01*
X121658359Y-47575272D01*
X121600670Y-47799852D01*
X116112000Y-47799852D01*
X116112000Y-45437616D01*
X127515342Y-45437616D01*
X127550989Y-45941595D01*
X127675272Y-46241641D01*
X127899852Y-46299330D01*
X128599182Y-45600000D01*
X129000818Y-45600000D01*
X129700148Y-46299330D01*
X129924728Y-46241641D01*
X130084658Y-45762384D01*
X130049011Y-45258405D01*
X129924728Y-44958359D01*
X129700148Y-44900670D01*
X129000818Y-45600000D01*
X128599182Y-45600000D01*
X127899852Y-44900670D01*
X127675272Y-44958359D01*
X127515342Y-45437616D01*
X116112000Y-45437616D01*
X116112000Y-44699852D01*
X128100670Y-44699852D01*
X128800000Y-45399182D01*
X129499330Y-44699852D01*
X129441641Y-44475272D01*
X128962384Y-44315342D01*
X128458405Y-44350989D01*
X128158359Y-44475272D01*
X128100670Y-44699852D01*
X116112000Y-44699852D01*
X116112000Y-39812000D01*
X137488000Y-39812000D01*
X137488000Y-54908846D01*
G36*
X221388000Y-152638000D02*
X89695000Y-152638000D01*
X89695000Y-109287878D01*
X93791439Y-105191439D01*
X93942096Y-104965965D01*
X93990007Y-104725099D01*
X93995000Y-104700000D01*
X93995000Y-103688728D01*
X96811206Y-103688728D01*
X96926610Y-103918000D01*
X98258000Y-103918000D01*
X98258000Y-102730903D01*
X98542000Y-102730903D01*
X98542000Y-103918000D01*
X99873390Y-103918000D01*
X99988794Y-103688728D01*
X99746946Y-103179256D01*
X99318971Y-102789166D01*
X98774292Y-102592548D01*
X98542000Y-102730903D01*
X98258000Y-102730903D01*
X98025708Y-102592548D01*
X97481029Y-102789166D01*
X97053054Y-103179256D01*
X96811206Y-103688728D01*
X93995000Y-103688728D01*
X93995000Y-69000000D01*
X93942096Y-68734035D01*
X93791439Y-68508561D01*
X93565965Y-68357904D01*
X93300000Y-68305000D01*
X76862000Y-68305000D01*
X76862000Y-64574000D01*
X86901854Y-64574000D01*
X86901854Y-66606000D01*
X86945086Y-66835758D01*
X87080873Y-67046777D01*
X87288060Y-67188342D01*
X87534000Y-67238146D01*
X89566000Y-67238146D01*
X89795758Y-67194914D01*
X90006777Y-67059127D01*
X90148342Y-66851940D01*
X90198146Y-66606000D01*
X90198146Y-64574000D01*
X90154914Y-64344242D01*
X90019127Y-64133223D01*
X89843101Y-64012949D01*
X89952031Y-63893113D01*
X90137546Y-63445213D01*
X90024177Y-63192000D01*
X88692000Y-63192000D01*
X88692000Y-63212000D01*
X88408000Y-63212000D01*
X88408000Y-63192000D01*
X87075823Y-63192000D01*
X86962454Y-63445213D01*
X87147969Y-63893113D01*
X87258391Y-64014590D01*
X87093223Y-64120873D01*
X86951658Y-64328060D01*
X86901854Y-64574000D01*
X76862000Y-64574000D01*
X76862000Y-62654787D01*
X86962454Y-62654787D01*
X87075823Y-62908000D01*
X88408000Y-62908000D01*
X88408000Y-61575164D01*
X88692000Y-61575164D01*
X88692000Y-62908000D01*
X90024177Y-62908000D01*
X90137546Y-62654787D01*
X89952031Y-62206887D01*
X89522662Y-61734531D01*
X88945214Y-61462444D01*
X88692000Y-61575164D01*
X88408000Y-61575164D01*
X88154786Y-61462444D01*
X87577338Y-61734531D01*
X87147969Y-62206887D01*
X86962454Y-62654787D01*
X76862000Y-62654787D01*
X76862000Y-60862000D01*
X120888000Y-60862000D01*
X120888000Y-73154088D01*
X120463800Y-73577549D01*
X120140369Y-74356456D01*
X120139633Y-75199844D01*
X120320675Y-75638000D01*
X107750000Y-75638000D01*
X107706426Y-75646824D01*
X107669718Y-75671906D01*
X107645660Y-75709293D01*
X107638000Y-75750000D01*
X107638000Y-94995000D01*
X97736684Y-94995000D01*
X97533515Y-94690936D01*
X97202860Y-94470000D01*
X97533515Y-94249064D01*
X97855119Y-93767749D01*
X97968051Y-93200000D01*
X97855119Y-92632251D01*
X97533515Y-92150936D01*
X97491338Y-92122754D01*
X97545758Y-92112514D01*
X97756777Y-91976727D01*
X97898342Y-91769540D01*
X97948146Y-91523600D01*
X97948146Y-89796400D01*
X97904914Y-89566642D01*
X97769127Y-89355623D01*
X97561940Y-89214058D01*
X97316000Y-89164254D01*
X95284000Y-89164254D01*
X95054242Y-89207486D01*
X94843223Y-89343273D01*
X94701658Y-89550460D01*
X94651854Y-89796400D01*
X94651854Y-91523600D01*
X94695086Y-91753358D01*
X94830873Y-91964377D01*
X95038060Y-92105942D01*
X95111551Y-92120824D01*
X95066485Y-92150936D01*
X94744881Y-92632251D01*
X94631949Y-93200000D01*
X94744881Y-93767749D01*
X95066485Y-94249064D01*
X95397140Y-94470000D01*
X95066485Y-94690936D01*
X94744881Y-95172251D01*
X94631949Y-95740000D01*
X94744881Y-96307749D01*
X95066485Y-96789064D01*
X95547800Y-97110668D01*
X96115549Y-97223600D01*
X96484451Y-97223600D01*
X97052200Y-97110668D01*
X97533515Y-96789064D01*
X97736684Y-96485000D01*
X107638000Y-96485000D01*
X107638000Y-108155000D01*
X102274589Y-108155000D01*
X100192795Y-106073205D01*
X99951099Y-105911710D01*
X99862846Y-105894155D01*
X99633515Y-105550936D01*
X99309322Y-105334317D01*
X99318971Y-105330834D01*
X99746946Y-104940744D01*
X99988794Y-104431272D01*
X99873390Y-104202000D01*
X98542000Y-104202000D01*
X98542000Y-104222000D01*
X98258000Y-104222000D01*
X98258000Y-104202000D01*
X96926610Y-104202000D01*
X96811206Y-104431272D01*
X97053054Y-104940744D01*
X97481029Y-105330834D01*
X97490678Y-105334317D01*
X97166485Y-105550936D01*
X96844881Y-106032251D01*
X96731949Y-106600000D01*
X96844881Y-107167749D01*
X97166485Y-107649064D01*
X97497140Y-107870000D01*
X97166485Y-108090936D01*
X96844881Y-108572251D01*
X96731949Y-109140000D01*
X96844881Y-109707749D01*
X97166485Y-110189064D01*
X97208662Y-110217246D01*
X97154242Y-110227486D01*
X96943223Y-110363273D01*
X96801658Y-110570460D01*
X96751854Y-110816400D01*
X96751854Y-112543600D01*
X96795086Y-112773358D01*
X96930873Y-112984377D01*
X97138060Y-113125942D01*
X97384000Y-113175746D01*
X99416000Y-113175746D01*
X99645758Y-113132514D01*
X99856777Y-112996727D01*
X99998342Y-112789540D01*
X100048146Y-112543600D01*
X100048146Y-110816400D01*
X100004914Y-110586642D01*
X99869127Y-110375623D01*
X99661940Y-110234058D01*
X99588449Y-110219176D01*
X99633515Y-110189064D01*
X99644714Y-110172304D01*
X99799205Y-110326795D01*
X100040901Y-110488290D01*
X100326000Y-110545001D01*
X100326005Y-110545000D01*
X107207411Y-110545000D01*
X93144714Y-124607696D01*
X93133515Y-124590936D01*
X92802860Y-124370000D01*
X93133515Y-124149064D01*
X93455119Y-123667749D01*
X93568051Y-123100000D01*
X93455119Y-122532251D01*
X93133515Y-122050936D01*
X93091338Y-122022754D01*
X93145758Y-122012514D01*
X93356777Y-121876727D01*
X93498342Y-121669540D01*
X93548146Y-121423600D01*
X93548146Y-119696400D01*
X93504914Y-119466642D01*
X93369127Y-119255623D01*
X93161940Y-119114058D01*
X92916000Y-119064254D01*
X90884000Y-119064254D01*
X90654242Y-119107486D01*
X90443223Y-119243273D01*
X90301658Y-119450460D01*
X90251854Y-119696400D01*
X90251854Y-121423600D01*
X90295086Y-121653358D01*
X90430873Y-121864377D01*
X90638060Y-122005942D01*
X90711551Y-122020824D01*
X90666485Y-122050936D01*
X90344881Y-122532251D01*
X90231949Y-123100000D01*
X90344881Y-123667749D01*
X90666485Y-124149064D01*
X90997140Y-124370000D01*
X90666485Y-124590936D01*
X90344881Y-125072251D01*
X90231949Y-125640000D01*
X90344881Y-126207749D01*
X90666485Y-126689064D01*
X91147800Y-127010668D01*
X91715549Y-127123600D01*
X92084451Y-127123600D01*
X92652200Y-127010668D01*
X93133515Y-126689064D01*
X93362846Y-126345845D01*
X93451099Y-126328290D01*
X93692795Y-126166795D01*
X107638000Y-112221589D01*
X107638000Y-138750000D01*
X107646824Y-138793574D01*
X107671906Y-138830282D01*
X107709293Y-138854340D01*
X107750000Y-138862000D01*
X113272597Y-138862000D01*
X113100456Y-139276563D01*
X113099546Y-140318864D01*
X113497577Y-141282172D01*
X114233951Y-142019833D01*
X115196563Y-142419544D01*
X116238864Y-142420454D01*
X117202172Y-142022423D01*
X117939833Y-141286049D01*
X118319681Y-140371272D01*
X125563606Y-140371272D01*
X125721779Y-140753161D01*
X126107300Y-141184984D01*
X126628726Y-141436404D01*
X126858000Y-141321800D01*
X126858000Y-140142000D01*
X127142000Y-140142000D01*
X127142000Y-141321800D01*
X127371274Y-141436404D01*
X127892700Y-141184984D01*
X128060559Y-140996965D01*
X128150789Y-141214802D01*
X128325198Y-141389210D01*
X128553074Y-141483600D01*
X129243000Y-141483600D01*
X129398000Y-141328600D01*
X129398000Y-140142000D01*
X129682000Y-140142000D01*
X129682000Y-141328600D01*
X129837000Y-141483600D01*
X130526926Y-141483600D01*
X130754802Y-141389210D01*
X130929211Y-141214802D01*
X131023600Y-140986925D01*
X131023600Y-140297000D01*
X130868600Y-140142000D01*
X129682000Y-140142000D01*
X129398000Y-140142000D01*
X127142000Y-140142000D01*
X126858000Y-140142000D01*
X125679010Y-140142000D01*
X125563606Y-140371272D01*
X118319681Y-140371272D01*
X118339544Y-140323437D01*
X118340454Y-139281136D01*
X118167270Y-138862000D01*
X126065354Y-138862000D01*
X125721779Y-139246839D01*
X125563606Y-139628728D01*
X125679010Y-139858000D01*
X126858000Y-139858000D01*
X126858000Y-139838000D01*
X127142000Y-139838000D01*
X127142000Y-139858000D01*
X129398000Y-139858000D01*
X129398000Y-139838000D01*
X129682000Y-139838000D01*
X129682000Y-139858000D01*
X130868600Y-139858000D01*
X131023600Y-139703000D01*
X131023600Y-139013075D01*
X130961023Y-138862000D01*
X131000000Y-138862000D01*
X131043574Y-138853176D01*
X131080282Y-138828094D01*
X131104340Y-138790707D01*
X131112000Y-138750000D01*
X131112000Y-81862000D01*
X134750000Y-81862000D01*
X134793574Y-81853176D01*
X134830282Y-81828094D01*
X134854340Y-81790707D01*
X134862000Y-81750000D01*
X134862000Y-76612000D01*
X170143765Y-76612000D01*
X170836456Y-76899631D01*
X171679844Y-76900367D01*
X172377745Y-76612000D01*
X174888000Y-76612000D01*
X174888000Y-82888000D01*
X173903196Y-82888000D01*
X173976394Y-82711272D01*
X173860990Y-82482000D01*
X172682000Y-82482000D01*
X172682000Y-82502000D01*
X172398000Y-82502000D01*
X172398000Y-82482000D01*
X172378000Y-82482000D01*
X172378000Y-82198000D01*
X172398000Y-82198000D01*
X172398000Y-79942000D01*
X172682000Y-79942000D01*
X172682000Y-82198000D01*
X173860990Y-82198000D01*
X173976394Y-81968728D01*
X173818221Y-81586839D01*
X173432700Y-81155016D01*
X173256383Y-81070000D01*
X173432700Y-80984984D01*
X173818221Y-80553161D01*
X173976394Y-80171272D01*
X173860990Y-79942000D01*
X172682000Y-79942000D01*
X172398000Y-79942000D01*
X172378000Y-79942000D01*
X172378000Y-79658000D01*
X172398000Y-79658000D01*
X172398000Y-78478200D01*
X172682000Y-78478200D01*
X172682000Y-79658000D01*
X173860990Y-79658000D01*
X173976394Y-79428728D01*
X173818221Y-79046839D01*
X173432700Y-78615016D01*
X172911274Y-78363596D01*
X172682000Y-78478200D01*
X172398000Y-78478200D01*
X172168726Y-78363596D01*
X171647300Y-78615016D01*
X171472182Y-78811166D01*
X171452514Y-78706642D01*
X171316727Y-78495623D01*
X171109540Y-78354058D01*
X170863600Y-78304254D01*
X169136400Y-78304254D01*
X168906642Y-78347486D01*
X168695623Y-78483273D01*
X168554058Y-78690460D01*
X168504254Y-78936400D01*
X168504254Y-80663600D01*
X168547486Y-80893358D01*
X168683273Y-81104377D01*
X168890460Y-81245942D01*
X168966242Y-81261288D01*
X168921871Y-81290936D01*
X168600267Y-81772251D01*
X168487335Y-82340000D01*
X168596339Y-82888000D01*
X140500000Y-82888000D01*
X140456426Y-82896824D01*
X140419718Y-82921906D01*
X140395660Y-82959293D01*
X140388000Y-83000000D01*
X140388000Y-105858411D01*
X139473205Y-106773205D01*
X139311710Y-107014901D01*
X139254999Y-107300000D01*
X139255000Y-107300005D01*
X139255000Y-111299995D01*
X139254999Y-111300000D01*
X139311710Y-111585099D01*
X139473205Y-111826795D01*
X140388000Y-112741589D01*
X140388000Y-136616113D01*
X140379543Y-136619607D01*
X140120517Y-136878181D01*
X139980160Y-137216198D01*
X139979841Y-137582196D01*
X140119607Y-137920457D01*
X140378181Y-138179483D01*
X140388000Y-138183560D01*
X140388000Y-142750000D01*
X140396824Y-142793574D01*
X140421906Y-142830282D01*
X140459293Y-142854340D01*
X140500000Y-142862000D01*
X146082479Y-142862000D01*
X145906642Y-142895086D01*
X145695623Y-143030873D01*
X145554058Y-143238060D01*
X145504254Y-143484000D01*
X145504254Y-145516000D01*
X145547486Y-145745758D01*
X145683273Y-145956777D01*
X145890460Y-146098342D01*
X146136400Y-146148146D01*
X147863600Y-146148146D01*
X148093358Y-146104914D01*
X148304377Y-145969127D01*
X148445942Y-145761940D01*
X148460824Y-145688449D01*
X148490936Y-145733515D01*
X148972251Y-146055119D01*
X149540000Y-146168051D01*
X150107749Y-146055119D01*
X150589064Y-145733515D01*
X150810000Y-145402860D01*
X151030936Y-145733515D01*
X151512251Y-146055119D01*
X152080000Y-146168051D01*
X152647749Y-146055119D01*
X153129064Y-145733515D01*
X153345683Y-145409322D01*
X153349166Y-145418971D01*
X153739256Y-145846946D01*
X154248728Y-146088794D01*
X154478000Y-145973390D01*
X154478000Y-144642000D01*
X154762000Y-144642000D01*
X154762000Y-145973390D01*
X154991272Y-146088794D01*
X155500744Y-145846946D01*
X155890834Y-145418971D01*
X156087452Y-144874292D01*
X155949097Y-144642000D01*
X154762000Y-144642000D01*
X154478000Y-144642000D01*
X154458000Y-144642000D01*
X154458000Y-144358000D01*
X154478000Y-144358000D01*
X154478000Y-143026610D01*
X154762000Y-143026610D01*
X154762000Y-144358000D01*
X155949097Y-144358000D01*
X156087452Y-144125708D01*
X155890834Y-143581029D01*
X155500744Y-143153054D01*
X154991272Y-142911206D01*
X154762000Y-143026610D01*
X154478000Y-143026610D01*
X154248728Y-142911206D01*
X153739256Y-143153054D01*
X153349166Y-143581029D01*
X153345683Y-143590678D01*
X153129064Y-143266485D01*
X152647749Y-142944881D01*
X152231077Y-142862000D01*
X162400357Y-142862000D01*
X162215623Y-142980873D01*
X162074058Y-143188060D01*
X162024254Y-143434000D01*
X162024254Y-145466000D01*
X162067486Y-145695758D01*
X162203273Y-145906777D01*
X162410460Y-146048342D01*
X162656400Y-146098146D01*
X164383600Y-146098146D01*
X164613358Y-146054914D01*
X164824377Y-145919127D01*
X164965942Y-145711940D01*
X164980824Y-145638449D01*
X165010936Y-145683515D01*
X165492251Y-146005119D01*
X166060000Y-146118051D01*
X166627749Y-146005119D01*
X167109064Y-145683515D01*
X167330000Y-145352860D01*
X167550936Y-145683515D01*
X168032251Y-146005119D01*
X168600000Y-146118051D01*
X169167749Y-146005119D01*
X169649064Y-145683515D01*
X169865683Y-145359322D01*
X169869166Y-145368971D01*
X170259256Y-145796946D01*
X170768728Y-146038794D01*
X170998000Y-145923390D01*
X170998000Y-144592000D01*
X171282000Y-144592000D01*
X171282000Y-145923390D01*
X171511272Y-146038794D01*
X172020744Y-145796946D01*
X172410834Y-145368971D01*
X172607452Y-144824292D01*
X172469097Y-144592000D01*
X171282000Y-144592000D01*
X170998000Y-144592000D01*
X170978000Y-144592000D01*
X170978000Y-144308000D01*
X170998000Y-144308000D01*
X170998000Y-144288000D01*
X171282000Y-144288000D01*
X171282000Y-144308000D01*
X172469097Y-144308000D01*
X172607452Y-144075708D01*
X172415877Y-143545000D01*
X173399995Y-143545000D01*
X173400000Y-143545001D01*
X173685099Y-143488290D01*
X173926795Y-143326795D01*
X174391590Y-142862000D01*
X208250000Y-142862000D01*
X208293574Y-142853176D01*
X208330282Y-142828094D01*
X208354340Y-142790707D01*
X208362000Y-142750000D01*
X208362000Y-126215589D01*
X208473203Y-126326792D01*
X208473205Y-126326795D01*
X208605066Y-126414901D01*
X208714901Y-126488290D01*
X209000000Y-126545001D01*
X209000005Y-126545000D01*
X217563316Y-126545000D01*
X217766485Y-126849064D01*
X218247800Y-127170668D01*
X218815549Y-127283600D01*
X219184451Y-127283600D01*
X219752200Y-127170668D01*
X220233515Y-126849064D01*
X220555119Y-126367749D01*
X220668051Y-125800000D01*
X220555119Y-125232251D01*
X220233515Y-124750936D01*
X219902860Y-124530000D01*
X220233515Y-124309064D01*
X220555119Y-123827749D01*
X220668051Y-123260000D01*
X220555119Y-122692251D01*
X220233515Y-122210936D01*
X220191338Y-122182754D01*
X220245758Y-122172514D01*
X220456777Y-122036727D01*
X220598342Y-121829540D01*
X220648146Y-121583600D01*
X220648146Y-119856400D01*
X220604914Y-119626642D01*
X220469127Y-119415623D01*
X220261940Y-119274058D01*
X220016000Y-119224254D01*
X217984000Y-119224254D01*
X217754242Y-119267486D01*
X217543223Y-119403273D01*
X217401658Y-119610460D01*
X217351854Y-119856400D01*
X217351854Y-121583600D01*
X217395086Y-121813358D01*
X217530873Y-122024377D01*
X217738060Y-122165942D01*
X217811551Y-122180824D01*
X217766485Y-122210936D01*
X217444881Y-122692251D01*
X217331949Y-123260000D01*
X217444881Y-123827749D01*
X217766485Y-124309064D01*
X218097140Y-124530000D01*
X217766485Y-124750936D01*
X217563316Y-125055000D01*
X209308589Y-125055000D01*
X208362000Y-124108410D01*
X208362000Y-114711272D01*
X212011206Y-114711272D01*
X212253054Y-115220744D01*
X212681029Y-115610834D01*
X213225708Y-115807452D01*
X213458000Y-115669097D01*
X213458000Y-114482000D01*
X213742000Y-114482000D01*
X213742000Y-115669097D01*
X213974292Y-115807452D01*
X214518971Y-115610834D01*
X214946946Y-115220744D01*
X215188794Y-114711272D01*
X215073390Y-114482000D01*
X213742000Y-114482000D01*
X213458000Y-114482000D01*
X212126610Y-114482000D01*
X212011206Y-114711272D01*
X208362000Y-114711272D01*
X208362000Y-112545000D01*
X212163316Y-112545000D01*
X212366485Y-112849064D01*
X212690678Y-113065683D01*
X212681029Y-113069166D01*
X212253054Y-113459256D01*
X212011206Y-113968728D01*
X212126610Y-114198000D01*
X213458000Y-114198000D01*
X213458000Y-114178000D01*
X213742000Y-114178000D01*
X213742000Y-114198000D01*
X215073390Y-114198000D01*
X215188794Y-113968728D01*
X214946946Y-113459256D01*
X214518971Y-113069166D01*
X214509322Y-113065683D01*
X214833515Y-112849064D01*
X215155119Y-112367749D01*
X215268051Y-111800000D01*
X215155119Y-111232251D01*
X214833515Y-110750936D01*
X214502860Y-110530000D01*
X214833515Y-110309064D01*
X215155119Y-109827749D01*
X215268051Y-109260000D01*
X215155119Y-108692251D01*
X214833515Y-108210936D01*
X214791338Y-108182754D01*
X214845758Y-108172514D01*
X215056777Y-108036727D01*
X215198342Y-107829540D01*
X215248146Y-107583600D01*
X215248146Y-105856400D01*
X215204914Y-105626642D01*
X215069127Y-105415623D01*
X214861940Y-105274058D01*
X214616000Y-105224254D01*
X212584000Y-105224254D01*
X212354242Y-105267486D01*
X212143223Y-105403273D01*
X212001658Y-105610460D01*
X211951854Y-105856400D01*
X211951854Y-107583600D01*
X211995086Y-107813358D01*
X212130873Y-108024377D01*
X212338060Y-108165942D01*
X212411551Y-108180824D01*
X212366485Y-108210936D01*
X212163316Y-108515000D01*
X208362000Y-108515000D01*
X208362000Y-105185000D01*
X214059995Y-105185000D01*
X214060000Y-105185001D01*
X214345099Y-105128290D01*
X214586795Y-104966795D01*
X216826792Y-102726797D01*
X216826795Y-102726795D01*
X216988290Y-102485099D01*
X217045000Y-102200000D01*
X217045000Y-98112100D01*
X217052200Y-98110668D01*
X217533515Y-97789064D01*
X217855119Y-97307749D01*
X217968051Y-96740000D01*
X217855119Y-96172251D01*
X217533515Y-95690936D01*
X217202860Y-95470000D01*
X217533515Y-95249064D01*
X217855119Y-94767749D01*
X217968051Y-94200000D01*
X217855119Y-93632251D01*
X217533515Y-93150936D01*
X217491338Y-93122754D01*
X217545758Y-93112514D01*
X217756777Y-92976727D01*
X217898342Y-92769540D01*
X217948146Y-92523600D01*
X217948146Y-90796400D01*
X217904914Y-90566642D01*
X217769127Y-90355623D01*
X217561940Y-90214058D01*
X217316000Y-90164254D01*
X215284000Y-90164254D01*
X215054242Y-90207486D01*
X214843223Y-90343273D01*
X214701658Y-90550460D01*
X214651854Y-90796400D01*
X214651854Y-92523600D01*
X214695086Y-92753358D01*
X214830873Y-92964377D01*
X215038060Y-93105942D01*
X215111551Y-93120824D01*
X215066485Y-93150936D01*
X214744881Y-93632251D01*
X214631949Y-94200000D01*
X214744881Y-94767749D01*
X215066485Y-95249064D01*
X215397140Y-95470000D01*
X215066485Y-95690936D01*
X214744881Y-96172251D01*
X214631949Y-96740000D01*
X214744881Y-97307749D01*
X215066485Y-97789064D01*
X215547800Y-98110668D01*
X215555000Y-98112100D01*
X215555000Y-101891411D01*
X213751410Y-103695000D01*
X208362000Y-103695000D01*
X208362000Y-60831272D01*
X215811206Y-60831272D01*
X216053054Y-61340744D01*
X216481029Y-61730834D01*
X217025708Y-61927452D01*
X217258000Y-61789097D01*
X217258000Y-60602000D01*
X217542000Y-60602000D01*
X217542000Y-61789097D01*
X217774292Y-61927452D01*
X218318971Y-61730834D01*
X218746946Y-61340744D01*
X218988794Y-60831272D01*
X218873390Y-60602000D01*
X217542000Y-60602000D01*
X217258000Y-60602000D01*
X215926610Y-60602000D01*
X215811206Y-60831272D01*
X208362000Y-60831272D01*
X208362000Y-59945000D01*
X208499995Y-59945000D01*
X208500000Y-59945001D01*
X208785099Y-59888290D01*
X209026795Y-59726795D01*
X210088589Y-58665000D01*
X215963316Y-58665000D01*
X216166485Y-58969064D01*
X216490678Y-59185683D01*
X216481029Y-59189166D01*
X216053054Y-59579256D01*
X215811206Y-60088728D01*
X215926610Y-60318000D01*
X217258000Y-60318000D01*
X217258000Y-60298000D01*
X217542000Y-60298000D01*
X217542000Y-60318000D01*
X218873390Y-60318000D01*
X218988794Y-60088728D01*
X218746946Y-59579256D01*
X218318971Y-59189166D01*
X218309322Y-59185683D01*
X218633515Y-58969064D01*
X218955119Y-58487749D01*
X219068051Y-57920000D01*
X218955119Y-57352251D01*
X218633515Y-56870936D01*
X218302860Y-56650000D01*
X218633515Y-56429064D01*
X218955119Y-55947749D01*
X219068051Y-55380000D01*
X218955119Y-54812251D01*
X218633515Y-54330936D01*
X218302860Y-54110000D01*
X218633515Y-53889064D01*
X218955119Y-53407749D01*
X219068051Y-52840000D01*
X218955119Y-52272251D01*
X218633515Y-51790936D01*
X218302860Y-51570000D01*
X218633515Y-51349064D01*
X218955119Y-50867749D01*
X219068051Y-50300000D01*
X218955119Y-49732251D01*
X218633515Y-49250936D01*
X218302860Y-49030000D01*
X218633515Y-48809064D01*
X218955119Y-48327749D01*
X219068051Y-47760000D01*
X218955119Y-47192251D01*
X218633515Y-46710936D01*
X218591338Y-46682754D01*
X218645758Y-46672514D01*
X218856777Y-46536727D01*
X218998342Y-46329540D01*
X219048146Y-46083600D01*
X219048146Y-44356400D01*
X219004914Y-44126642D01*
X218869127Y-43915623D01*
X218661940Y-43774058D01*
X218416000Y-43724254D01*
X216384000Y-43724254D01*
X216154242Y-43767486D01*
X215943223Y-43903273D01*
X215801658Y-44110460D01*
X215751854Y-44356400D01*
X215751854Y-46083600D01*
X215795086Y-46313358D01*
X215930873Y-46524377D01*
X216138060Y-46665942D01*
X216211551Y-46680824D01*
X216166485Y-46710936D01*
X215844881Y-47192251D01*
X215731949Y-47760000D01*
X215808610Y-48145401D01*
X215399010Y-48555000D01*
X214000005Y-48555000D01*
X214000000Y-48554999D01*
X213714901Y-48611710D01*
X213473205Y-48773205D01*
X208362000Y-53884410D01*
X208362000Y-42362000D01*
X221388000Y-42362000D01*
X221388000Y-152638000D01*
X221388000Y-152638000D01*
G37*
X221388000Y-152638000D02*
X89695000Y-152638000D01*
X89695000Y-109287878D01*
X93791439Y-105191439D01*
X93942096Y-104965965D01*
X93990007Y-104725099D01*
X93995000Y-104700000D01*
X93995000Y-103688728D01*
X96811206Y-103688728D01*
X96926610Y-103918000D01*
X98258000Y-103918000D01*
X98258000Y-102730903D01*
X98542000Y-102730903D01*
X98542000Y-103918000D01*
X99873390Y-103918000D01*
X99988794Y-103688728D01*
X99746946Y-103179256D01*
X99318971Y-102789166D01*
X98774292Y-102592548D01*
X98542000Y-102730903D01*
X98258000Y-102730903D01*
X98025708Y-102592548D01*
X97481029Y-102789166D01*
X97053054Y-103179256D01*
X96811206Y-103688728D01*
X93995000Y-103688728D01*
X93995000Y-69000000D01*
X93942096Y-68734035D01*
X93791439Y-68508561D01*
X93565965Y-68357904D01*
X93300000Y-68305000D01*
X76862000Y-68305000D01*
X76862000Y-64574000D01*
X86901854Y-64574000D01*
X86901854Y-66606000D01*
X86945086Y-66835758D01*
X87080873Y-67046777D01*
X87288060Y-67188342D01*
X87534000Y-67238146D01*
X89566000Y-67238146D01*
X89795758Y-67194914D01*
X90006777Y-67059127D01*
X90148342Y-66851940D01*
X90198146Y-66606000D01*
X90198146Y-64574000D01*
X90154914Y-64344242D01*
X90019127Y-64133223D01*
X89843101Y-64012949D01*
X89952031Y-63893113D01*
X90137546Y-63445213D01*
X90024177Y-63192000D01*
X88692000Y-63192000D01*
X88692000Y-63212000D01*
X88408000Y-63212000D01*
X88408000Y-63192000D01*
X87075823Y-63192000D01*
X86962454Y-63445213D01*
X87147969Y-63893113D01*
X87258391Y-64014590D01*
X87093223Y-64120873D01*
X86951658Y-64328060D01*
X86901854Y-64574000D01*
X76862000Y-64574000D01*
X76862000Y-62654787D01*
X86962454Y-62654787D01*
X87075823Y-62908000D01*
X88408000Y-62908000D01*
X88408000Y-61575164D01*
X88692000Y-61575164D01*
X88692000Y-62908000D01*
X90024177Y-62908000D01*
X90137546Y-62654787D01*
X89952031Y-62206887D01*
X89522662Y-61734531D01*
X88945214Y-61462444D01*
X88692000Y-61575164D01*
X88408000Y-61575164D01*
X88154786Y-61462444D01*
X87577338Y-61734531D01*
X87147969Y-62206887D01*
X86962454Y-62654787D01*
X76862000Y-62654787D01*
X76862000Y-60862000D01*
X120888000Y-60862000D01*
X120888000Y-73154088D01*
X120463800Y-73577549D01*
X120140369Y-74356456D01*
X120139633Y-75199844D01*
X120320675Y-75638000D01*
X107750000Y-75638000D01*
X107706426Y-75646824D01*
X107669718Y-75671906D01*
X107645660Y-75709293D01*
X107638000Y-75750000D01*
X107638000Y-94995000D01*
X97736684Y-94995000D01*
X97533515Y-94690936D01*
X97202860Y-94470000D01*
X97533515Y-94249064D01*
X97855119Y-93767749D01*
X97968051Y-93200000D01*
X97855119Y-92632251D01*
X97533515Y-92150936D01*
X97491338Y-92122754D01*
X97545758Y-92112514D01*
X97756777Y-91976727D01*
X97898342Y-91769540D01*
X97948146Y-91523600D01*
X97948146Y-89796400D01*
X97904914Y-89566642D01*
X97769127Y-89355623D01*
X97561940Y-89214058D01*
X97316000Y-89164254D01*
X95284000Y-89164254D01*
X95054242Y-89207486D01*
X94843223Y-89343273D01*
X94701658Y-89550460D01*
X94651854Y-89796400D01*
X94651854Y-91523600D01*
X94695086Y-91753358D01*
X94830873Y-91964377D01*
X95038060Y-92105942D01*
X95111551Y-92120824D01*
X95066485Y-92150936D01*
X94744881Y-92632251D01*
X94631949Y-93200000D01*
X94744881Y-93767749D01*
X95066485Y-94249064D01*
X95397140Y-94470000D01*
X95066485Y-94690936D01*
X94744881Y-95172251D01*
X94631949Y-95740000D01*
X94744881Y-96307749D01*
X95066485Y-96789064D01*
X95547800Y-97110668D01*
X96115549Y-97223600D01*
X96484451Y-97223600D01*
X97052200Y-97110668D01*
X97533515Y-96789064D01*
X97736684Y-96485000D01*
X107638000Y-96485000D01*
X107638000Y-108155000D01*
X102274589Y-108155000D01*
X100192795Y-106073205D01*
X99951099Y-105911710D01*
X99862846Y-105894155D01*
X99633515Y-105550936D01*
X99309322Y-105334317D01*
X99318971Y-105330834D01*
X99746946Y-104940744D01*
X99988794Y-104431272D01*
X99873390Y-104202000D01*
X98542000Y-104202000D01*
X98542000Y-104222000D01*
X98258000Y-104222000D01*
X98258000Y-104202000D01*
X96926610Y-104202000D01*
X96811206Y-104431272D01*
X97053054Y-104940744D01*
X97481029Y-105330834D01*
X97490678Y-105334317D01*
X97166485Y-105550936D01*
X96844881Y-106032251D01*
X96731949Y-106600000D01*
X96844881Y-107167749D01*
X97166485Y-107649064D01*
X97497140Y-107870000D01*
X97166485Y-108090936D01*
X96844881Y-108572251D01*
X96731949Y-109140000D01*
X96844881Y-109707749D01*
X97166485Y-110189064D01*
X97208662Y-110217246D01*
X97154242Y-110227486D01*
X96943223Y-110363273D01*
X96801658Y-110570460D01*
X96751854Y-110816400D01*
X96751854Y-112543600D01*
X96795086Y-112773358D01*
X96930873Y-112984377D01*
X97138060Y-113125942D01*
X97384000Y-113175746D01*
X99416000Y-113175746D01*
X99645758Y-113132514D01*
X99856777Y-112996727D01*
X99998342Y-112789540D01*
X100048146Y-112543600D01*
X100048146Y-110816400D01*
X100004914Y-110586642D01*
X99869127Y-110375623D01*
X99661940Y-110234058D01*
X99588449Y-110219176D01*
X99633515Y-110189064D01*
X99644714Y-110172304D01*
X99799205Y-110326795D01*
X100040901Y-110488290D01*
X100326000Y-110545001D01*
X100326005Y-110545000D01*
X107207411Y-110545000D01*
X93144714Y-124607696D01*
X93133515Y-124590936D01*
X92802860Y-124370000D01*
X93133515Y-124149064D01*
X93455119Y-123667749D01*
X93568051Y-123100000D01*
X93455119Y-122532251D01*
X93133515Y-122050936D01*
X93091338Y-122022754D01*
X93145758Y-122012514D01*
X93356777Y-121876727D01*
X93498342Y-121669540D01*
X93548146Y-121423600D01*
X93548146Y-119696400D01*
X93504914Y-119466642D01*
X93369127Y-119255623D01*
X93161940Y-119114058D01*
X92916000Y-119064254D01*
X90884000Y-119064254D01*
X90654242Y-119107486D01*
X90443223Y-119243273D01*
X90301658Y-119450460D01*
X90251854Y-119696400D01*
X90251854Y-121423600D01*
X90295086Y-121653358D01*
X90430873Y-121864377D01*
X90638060Y-122005942D01*
X90711551Y-122020824D01*
X90666485Y-122050936D01*
X90344881Y-122532251D01*
X90231949Y-123100000D01*
X90344881Y-123667749D01*
X90666485Y-124149064D01*
X90997140Y-124370000D01*
X90666485Y-124590936D01*
X90344881Y-125072251D01*
X90231949Y-125640000D01*
X90344881Y-126207749D01*
X90666485Y-126689064D01*
X91147800Y-127010668D01*
X91715549Y-127123600D01*
X92084451Y-127123600D01*
X92652200Y-127010668D01*
X93133515Y-126689064D01*
X93362846Y-126345845D01*
X93451099Y-126328290D01*
X93692795Y-126166795D01*
X107638000Y-112221589D01*
X107638000Y-138750000D01*
X107646824Y-138793574D01*
X107671906Y-138830282D01*
X107709293Y-138854340D01*
X107750000Y-138862000D01*
X113272597Y-138862000D01*
X113100456Y-139276563D01*
X113099546Y-140318864D01*
X113497577Y-141282172D01*
X114233951Y-142019833D01*
X115196563Y-142419544D01*
X116238864Y-142420454D01*
X117202172Y-142022423D01*
X117939833Y-141286049D01*
X118319681Y-140371272D01*
X125563606Y-140371272D01*
X125721779Y-140753161D01*
X126107300Y-141184984D01*
X126628726Y-141436404D01*
X126858000Y-141321800D01*
X126858000Y-140142000D01*
X127142000Y-140142000D01*
X127142000Y-141321800D01*
X127371274Y-141436404D01*
X127892700Y-141184984D01*
X128060559Y-140996965D01*
X128150789Y-141214802D01*
X128325198Y-141389210D01*
X128553074Y-141483600D01*
X129243000Y-141483600D01*
X129398000Y-141328600D01*
X129398000Y-140142000D01*
X129682000Y-140142000D01*
X129682000Y-141328600D01*
X129837000Y-141483600D01*
X130526926Y-141483600D01*
X130754802Y-141389210D01*
X130929211Y-141214802D01*
X131023600Y-140986925D01*
X131023600Y-140297000D01*
X130868600Y-140142000D01*
X129682000Y-140142000D01*
X129398000Y-140142000D01*
X127142000Y-140142000D01*
X126858000Y-140142000D01*
X125679010Y-140142000D01*
X125563606Y-140371272D01*
X118319681Y-140371272D01*
X118339544Y-140323437D01*
X118340454Y-139281136D01*
X118167270Y-138862000D01*
X126065354Y-138862000D01*
X125721779Y-139246839D01*
X125563606Y-139628728D01*
X125679010Y-139858000D01*
X126858000Y-139858000D01*
X126858000Y-139838000D01*
X127142000Y-139838000D01*
X127142000Y-139858000D01*
X129398000Y-139858000D01*
X129398000Y-139838000D01*
X129682000Y-139838000D01*
X129682000Y-139858000D01*
X130868600Y-139858000D01*
X131023600Y-139703000D01*
X131023600Y-139013075D01*
X130961023Y-138862000D01*
X131000000Y-138862000D01*
X131043574Y-138853176D01*
X131080282Y-138828094D01*
X131104340Y-138790707D01*
X131112000Y-138750000D01*
X131112000Y-81862000D01*
X134750000Y-81862000D01*
X134793574Y-81853176D01*
X134830282Y-81828094D01*
X134854340Y-81790707D01*
X134862000Y-81750000D01*
X134862000Y-76612000D01*
X170143765Y-76612000D01*
X170836456Y-76899631D01*
X171679844Y-76900367D01*
X172377745Y-76612000D01*
X174888000Y-76612000D01*
X174888000Y-82888000D01*
X173903196Y-82888000D01*
X173976394Y-82711272D01*
X173860990Y-82482000D01*
X172682000Y-82482000D01*
X172682000Y-82502000D01*
X172398000Y-82502000D01*
X172398000Y-82482000D01*
X172378000Y-82482000D01*
X172378000Y-82198000D01*
X172398000Y-82198000D01*
X172398000Y-79942000D01*
X172682000Y-79942000D01*
X172682000Y-82198000D01*
X173860990Y-82198000D01*
X173976394Y-81968728D01*
X173818221Y-81586839D01*
X173432700Y-81155016D01*
X173256383Y-81070000D01*
X173432700Y-80984984D01*
X173818221Y-80553161D01*
X173976394Y-80171272D01*
X173860990Y-79942000D01*
X172682000Y-79942000D01*
X172398000Y-79942000D01*
X172378000Y-79942000D01*
X172378000Y-79658000D01*
X172398000Y-79658000D01*
X172398000Y-78478200D01*
X172682000Y-78478200D01*
X172682000Y-79658000D01*
X173860990Y-79658000D01*
X173976394Y-79428728D01*
X173818221Y-79046839D01*
X173432700Y-78615016D01*
X172911274Y-78363596D01*
X172682000Y-78478200D01*
X172398000Y-78478200D01*
X172168726Y-78363596D01*
X171647300Y-78615016D01*
X171472182Y-78811166D01*
X171452514Y-78706642D01*
X171316727Y-78495623D01*
X171109540Y-78354058D01*
X170863600Y-78304254D01*
X169136400Y-78304254D01*
X168906642Y-78347486D01*
X168695623Y-78483273D01*
X168554058Y-78690460D01*
X168504254Y-78936400D01*
X168504254Y-80663600D01*
X168547486Y-80893358D01*
X168683273Y-81104377D01*
X168890460Y-81245942D01*
X168966242Y-81261288D01*
X168921871Y-81290936D01*
X168600267Y-81772251D01*
X168487335Y-82340000D01*
X168596339Y-82888000D01*
X140500000Y-82888000D01*
X140456426Y-82896824D01*
X140419718Y-82921906D01*
X140395660Y-82959293D01*
X140388000Y-83000000D01*
X140388000Y-105858411D01*
X139473205Y-106773205D01*
X139311710Y-107014901D01*
X139254999Y-107300000D01*
X139255000Y-107300005D01*
X139255000Y-111299995D01*
X139254999Y-111300000D01*
X139311710Y-111585099D01*
X139473205Y-111826795D01*
X140388000Y-112741589D01*
X140388000Y-136616113D01*
X140379543Y-136619607D01*
X140120517Y-136878181D01*
X139980160Y-137216198D01*
X139979841Y-137582196D01*
X140119607Y-137920457D01*
X140378181Y-138179483D01*
X140388000Y-138183560D01*
X140388000Y-142750000D01*
X140396824Y-142793574D01*
X140421906Y-142830282D01*
X140459293Y-142854340D01*
X140500000Y-142862000D01*
X146082479Y-142862000D01*
X145906642Y-142895086D01*
X145695623Y-143030873D01*
X145554058Y-143238060D01*
X145504254Y-143484000D01*
X145504254Y-145516000D01*
X145547486Y-145745758D01*
X145683273Y-145956777D01*
X145890460Y-146098342D01*
X146136400Y-146148146D01*
X147863600Y-146148146D01*
X148093358Y-146104914D01*
X148304377Y-145969127D01*
X148445942Y-145761940D01*
X148460824Y-145688449D01*
X148490936Y-145733515D01*
X148972251Y-146055119D01*
X149540000Y-146168051D01*
X150107749Y-146055119D01*
X150589064Y-145733515D01*
X150810000Y-145402860D01*
X151030936Y-145733515D01*
X151512251Y-146055119D01*
X152080000Y-146168051D01*
X152647749Y-146055119D01*
X153129064Y-145733515D01*
X153345683Y-145409322D01*
X153349166Y-145418971D01*
X153739256Y-145846946D01*
X154248728Y-146088794D01*
X154478000Y-145973390D01*
X154478000Y-144642000D01*
X154762000Y-144642000D01*
X154762000Y-145973390D01*
X154991272Y-146088794D01*
X155500744Y-145846946D01*
X155890834Y-145418971D01*
X156087452Y-144874292D01*
X155949097Y-144642000D01*
X154762000Y-144642000D01*
X154478000Y-144642000D01*
X154458000Y-144642000D01*
X154458000Y-144358000D01*
X154478000Y-144358000D01*
X154478000Y-143026610D01*
X154762000Y-143026610D01*
X154762000Y-144358000D01*
X155949097Y-144358000D01*
X156087452Y-144125708D01*
X155890834Y-143581029D01*
X155500744Y-143153054D01*
X154991272Y-142911206D01*
X154762000Y-143026610D01*
X154478000Y-143026610D01*
X154248728Y-142911206D01*
X153739256Y-143153054D01*
X153349166Y-143581029D01*
X153345683Y-143590678D01*
X153129064Y-143266485D01*
X152647749Y-142944881D01*
X152231077Y-142862000D01*
X162400357Y-142862000D01*
X162215623Y-142980873D01*
X162074058Y-143188060D01*
X162024254Y-143434000D01*
X162024254Y-145466000D01*
X162067486Y-145695758D01*
X162203273Y-145906777D01*
X162410460Y-146048342D01*
X162656400Y-146098146D01*
X164383600Y-146098146D01*
X164613358Y-146054914D01*
X164824377Y-145919127D01*
X164965942Y-145711940D01*
X164980824Y-145638449D01*
X165010936Y-145683515D01*
X165492251Y-146005119D01*
X166060000Y-146118051D01*
X166627749Y-146005119D01*
X167109064Y-145683515D01*
X167330000Y-145352860D01*
X167550936Y-145683515D01*
X168032251Y-146005119D01*
X168600000Y-146118051D01*
X169167749Y-146005119D01*
X169649064Y-145683515D01*
X169865683Y-145359322D01*
X169869166Y-145368971D01*
X170259256Y-145796946D01*
X170768728Y-146038794D01*
X170998000Y-145923390D01*
X170998000Y-144592000D01*
X171282000Y-144592000D01*
X171282000Y-145923390D01*
X171511272Y-146038794D01*
X172020744Y-145796946D01*
X172410834Y-145368971D01*
X172607452Y-144824292D01*
X172469097Y-144592000D01*
X171282000Y-144592000D01*
X170998000Y-144592000D01*
X170978000Y-144592000D01*
X170978000Y-144308000D01*
X170998000Y-144308000D01*
X170998000Y-144288000D01*
X171282000Y-144288000D01*
X171282000Y-144308000D01*
X172469097Y-144308000D01*
X172607452Y-144075708D01*
X172415877Y-143545000D01*
X173399995Y-143545000D01*
X173400000Y-143545001D01*
X173685099Y-143488290D01*
X173926795Y-143326795D01*
X174391590Y-142862000D01*
X208250000Y-142862000D01*
X208293574Y-142853176D01*
X208330282Y-142828094D01*
X208354340Y-142790707D01*
X208362000Y-142750000D01*
X208362000Y-126215589D01*
X208473203Y-126326792D01*
X208473205Y-126326795D01*
X208605066Y-126414901D01*
X208714901Y-126488290D01*
X209000000Y-126545001D01*
X209000005Y-126545000D01*
X217563316Y-126545000D01*
X217766485Y-126849064D01*
X218247800Y-127170668D01*
X218815549Y-127283600D01*
X219184451Y-127283600D01*
X219752200Y-127170668D01*
X220233515Y-126849064D01*
X220555119Y-126367749D01*
X220668051Y-125800000D01*
X220555119Y-125232251D01*
X220233515Y-124750936D01*
X219902860Y-124530000D01*
X220233515Y-124309064D01*
X220555119Y-123827749D01*
X220668051Y-123260000D01*
X220555119Y-122692251D01*
X220233515Y-122210936D01*
X220191338Y-122182754D01*
X220245758Y-122172514D01*
X220456777Y-122036727D01*
X220598342Y-121829540D01*
X220648146Y-121583600D01*
X220648146Y-119856400D01*
X220604914Y-119626642D01*
X220469127Y-119415623D01*
X220261940Y-119274058D01*
X220016000Y-119224254D01*
X217984000Y-119224254D01*
X217754242Y-119267486D01*
X217543223Y-119403273D01*
X217401658Y-119610460D01*
X217351854Y-119856400D01*
X217351854Y-121583600D01*
X217395086Y-121813358D01*
X217530873Y-122024377D01*
X217738060Y-122165942D01*
X217811551Y-122180824D01*
X217766485Y-122210936D01*
X217444881Y-122692251D01*
X217331949Y-123260000D01*
X217444881Y-123827749D01*
X217766485Y-124309064D01*
X218097140Y-124530000D01*
X217766485Y-124750936D01*
X217563316Y-125055000D01*
X209308589Y-125055000D01*
X208362000Y-124108410D01*
X208362000Y-114711272D01*
X212011206Y-114711272D01*
X212253054Y-115220744D01*
X212681029Y-115610834D01*
X213225708Y-115807452D01*
X213458000Y-115669097D01*
X213458000Y-114482000D01*
X213742000Y-114482000D01*
X213742000Y-115669097D01*
X213974292Y-115807452D01*
X214518971Y-115610834D01*
X214946946Y-115220744D01*
X215188794Y-114711272D01*
X215073390Y-114482000D01*
X213742000Y-114482000D01*
X213458000Y-114482000D01*
X212126610Y-114482000D01*
X212011206Y-114711272D01*
X208362000Y-114711272D01*
X208362000Y-112545000D01*
X212163316Y-112545000D01*
X212366485Y-112849064D01*
X212690678Y-113065683D01*
X212681029Y-113069166D01*
X212253054Y-113459256D01*
X212011206Y-113968728D01*
X212126610Y-114198000D01*
X213458000Y-114198000D01*
X213458000Y-114178000D01*
X213742000Y-114178000D01*
X213742000Y-114198000D01*
X215073390Y-114198000D01*
X215188794Y-113968728D01*
X214946946Y-113459256D01*
X214518971Y-113069166D01*
X214509322Y-113065683D01*
X214833515Y-112849064D01*
X215155119Y-112367749D01*
X215268051Y-111800000D01*
X215155119Y-111232251D01*
X214833515Y-110750936D01*
X214502860Y-110530000D01*
X214833515Y-110309064D01*
X215155119Y-109827749D01*
X215268051Y-109260000D01*
X215155119Y-108692251D01*
X214833515Y-108210936D01*
X214791338Y-108182754D01*
X214845758Y-108172514D01*
X215056777Y-108036727D01*
X215198342Y-107829540D01*
X215248146Y-107583600D01*
X215248146Y-105856400D01*
X215204914Y-105626642D01*
X215069127Y-105415623D01*
X214861940Y-105274058D01*
X214616000Y-105224254D01*
X212584000Y-105224254D01*
X212354242Y-105267486D01*
X212143223Y-105403273D01*
X212001658Y-105610460D01*
X211951854Y-105856400D01*
X211951854Y-107583600D01*
X211995086Y-107813358D01*
X212130873Y-108024377D01*
X212338060Y-108165942D01*
X212411551Y-108180824D01*
X212366485Y-108210936D01*
X212163316Y-108515000D01*
X208362000Y-108515000D01*
X208362000Y-105185000D01*
X214059995Y-105185000D01*
X214060000Y-105185001D01*
X214345099Y-105128290D01*
X214586795Y-104966795D01*
X216826792Y-102726797D01*
X216826795Y-102726795D01*
X216988290Y-102485099D01*
X217045000Y-102200000D01*
X217045000Y-98112100D01*
X217052200Y-98110668D01*
X217533515Y-97789064D01*
X217855119Y-97307749D01*
X217968051Y-96740000D01*
X217855119Y-96172251D01*
X217533515Y-95690936D01*
X217202860Y-95470000D01*
X217533515Y-95249064D01*
X217855119Y-94767749D01*
X217968051Y-94200000D01*
X217855119Y-93632251D01*
X217533515Y-93150936D01*
X217491338Y-93122754D01*
X217545758Y-93112514D01*
X217756777Y-92976727D01*
X217898342Y-92769540D01*
X217948146Y-92523600D01*
X217948146Y-90796400D01*
X217904914Y-90566642D01*
X217769127Y-90355623D01*
X217561940Y-90214058D01*
X217316000Y-90164254D01*
X215284000Y-90164254D01*
X215054242Y-90207486D01*
X214843223Y-90343273D01*
X214701658Y-90550460D01*
X214651854Y-90796400D01*
X214651854Y-92523600D01*
X214695086Y-92753358D01*
X214830873Y-92964377D01*
X215038060Y-93105942D01*
X215111551Y-93120824D01*
X215066485Y-93150936D01*
X214744881Y-93632251D01*
X214631949Y-94200000D01*
X214744881Y-94767749D01*
X215066485Y-95249064D01*
X215397140Y-95470000D01*
X215066485Y-95690936D01*
X214744881Y-96172251D01*
X214631949Y-96740000D01*
X214744881Y-97307749D01*
X215066485Y-97789064D01*
X215547800Y-98110668D01*
X215555000Y-98112100D01*
X215555000Y-101891411D01*
X213751410Y-103695000D01*
X208362000Y-103695000D01*
X208362000Y-60831272D01*
X215811206Y-60831272D01*
X216053054Y-61340744D01*
X216481029Y-61730834D01*
X217025708Y-61927452D01*
X217258000Y-61789097D01*
X217258000Y-60602000D01*
X217542000Y-60602000D01*
X217542000Y-61789097D01*
X217774292Y-61927452D01*
X218318971Y-61730834D01*
X218746946Y-61340744D01*
X218988794Y-60831272D01*
X218873390Y-60602000D01*
X217542000Y-60602000D01*
X217258000Y-60602000D01*
X215926610Y-60602000D01*
X215811206Y-60831272D01*
X208362000Y-60831272D01*
X208362000Y-59945000D01*
X208499995Y-59945000D01*
X208500000Y-59945001D01*
X208785099Y-59888290D01*
X209026795Y-59726795D01*
X210088589Y-58665000D01*
X215963316Y-58665000D01*
X216166485Y-58969064D01*
X216490678Y-59185683D01*
X216481029Y-59189166D01*
X216053054Y-59579256D01*
X215811206Y-60088728D01*
X215926610Y-60318000D01*
X217258000Y-60318000D01*
X217258000Y-60298000D01*
X217542000Y-60298000D01*
X217542000Y-60318000D01*
X218873390Y-60318000D01*
X218988794Y-60088728D01*
X218746946Y-59579256D01*
X218318971Y-59189166D01*
X218309322Y-59185683D01*
X218633515Y-58969064D01*
X218955119Y-58487749D01*
X219068051Y-57920000D01*
X218955119Y-57352251D01*
X218633515Y-56870936D01*
X218302860Y-56650000D01*
X218633515Y-56429064D01*
X218955119Y-55947749D01*
X219068051Y-55380000D01*
X218955119Y-54812251D01*
X218633515Y-54330936D01*
X218302860Y-54110000D01*
X218633515Y-53889064D01*
X218955119Y-53407749D01*
X219068051Y-52840000D01*
X218955119Y-52272251D01*
X218633515Y-51790936D01*
X218302860Y-51570000D01*
X218633515Y-51349064D01*
X218955119Y-50867749D01*
X219068051Y-50300000D01*
X218955119Y-49732251D01*
X218633515Y-49250936D01*
X218302860Y-49030000D01*
X218633515Y-48809064D01*
X218955119Y-48327749D01*
X219068051Y-47760000D01*
X218955119Y-47192251D01*
X218633515Y-46710936D01*
X218591338Y-46682754D01*
X218645758Y-46672514D01*
X218856777Y-46536727D01*
X218998342Y-46329540D01*
X219048146Y-46083600D01*
X219048146Y-44356400D01*
X219004914Y-44126642D01*
X218869127Y-43915623D01*
X218661940Y-43774058D01*
X218416000Y-43724254D01*
X216384000Y-43724254D01*
X216154242Y-43767486D01*
X215943223Y-43903273D01*
X215801658Y-44110460D01*
X215751854Y-44356400D01*
X215751854Y-46083600D01*
X215795086Y-46313358D01*
X215930873Y-46524377D01*
X216138060Y-46665942D01*
X216211551Y-46680824D01*
X216166485Y-46710936D01*
X215844881Y-47192251D01*
X215731949Y-47760000D01*
X215808610Y-48145401D01*
X215399010Y-48555000D01*
X214000005Y-48555000D01*
X214000000Y-48554999D01*
X213714901Y-48611710D01*
X213473205Y-48773205D01*
X208362000Y-53884410D01*
X208362000Y-42362000D01*
X221388000Y-42362000D01*
X221388000Y-152638000D01*
M02*
