M48
;DRILL file {KiCad 4.0.5} date Wed May 31 09:29:29 2017
;FORMAT={-:-/ absolute / inch / decimal}
FMAT,2
INCH,TZ
T1C0.016
T2C0.031
T3C0.039
T4C0.039
T5C0.040
T6C0.079
T7C0.134
%
G90
G05
M72
T1
X3.1476Y-2.4823
X3.1476Y-2.6004
X3.2953Y-2.6004
X3.2972Y-2.4823
X3.5512Y-1.8346
X4.815Y-1.6457
X4.8858Y-4.3622
X4.8937Y-4.2126
X4.9173Y-1.6457
X5.0354Y-1.6457
X5.1339Y-1.6457
X5.5472Y-5.4094
X5.5591Y-4.3622
X5.5618Y-4.2586
X5.5827Y-3.6575
X5.5866Y-4.1102
X6.8819Y-4.4882
X6.9134Y-4.5197
X8.1299Y-4.185
X8.1535Y-4.4843
T2
X3.1024Y-1.9961
X3.1024Y-2.0945
X3.2953Y-1.626
X3.2953Y-1.7244
X4.815Y-1.9173
X4.815Y-2.0157
X5.0709Y-1.7953
X5.0709Y-1.8937
X5.3268Y-1.9173
X5.3268Y-2.0157
X5.5807Y-1.7224
X5.6791Y-1.7224
T4
X5.4378Y-2.2205
X5.8378Y-2.2205
T5
X3.4862Y-2.4823
X3.4862Y-2.5823
X3.6181Y-4.7465
X3.6181Y-4.8465
X3.6181Y-4.9465
X3.7913Y-3.5693
X3.7913Y-3.6693
X3.7913Y-3.7693
X3.874Y-4.0969
X3.874Y-4.1969
X3.874Y-4.2969
X3.874Y-4.3969
X5.Y-3.1118
X5.Y-3.2118
X5.Y-3.3118
X5.Y-3.4118
X5.Y-3.5118
X5.Y-3.6118
X5.Y-3.7118
X5.Y-3.8118
X5.Y-3.9118
X5.Y-4.0118
X5.Y-4.1118
X5.Y-4.2118
X5.Y-4.3118
X5.Y-4.4118
X5.Y-4.5118
X5.Y-4.6118
X5.Y-4.7118
X5.Y-4.8118
X5.Y-4.9118
X5.Y-5.0118
X5.Y-5.1118
X5.Y-5.2118
X5.Y-5.3118
X5.Y-5.4118
X5.Y-5.5118
X5.1Y-3.1118
X5.1Y-3.2118
X5.1Y-3.3118
X5.1Y-3.4118
X5.1Y-3.5118
X5.1Y-3.6118
X5.1Y-3.7118
X5.1Y-3.8118
X5.1Y-3.9118
X5.1Y-4.0118
X5.1Y-4.1118
X5.1Y-4.2118
X5.1Y-4.3118
X5.1Y-4.4118
X5.1Y-4.5118
X5.1Y-4.6118
X5.1Y-4.7118
X5.1Y-4.8118
X5.1Y-4.9118
X5.1Y-5.0118
X5.1Y-5.1118
X5.1Y-5.2118
X5.1Y-5.3118
X5.1Y-5.4118
X5.1Y-5.5118
X5.7874Y-5.689
X5.8874Y-5.689
X5.9874Y-5.689
X6.0874Y-5.689
X6.4378Y-5.687
X6.5378Y-5.687
X6.6378Y-5.687
X6.6929Y-3.1417
X6.6929Y-3.2417
X6.6929Y-3.3417
X6.6929Y-3.4417
X6.6929Y-3.5417
X6.6929Y-3.6417
X6.6929Y-3.7417
X6.6929Y-3.8417
X6.6929Y-3.9417
X6.6929Y-4.0417
X6.6929Y-4.1417
X6.6929Y-4.2417
X6.6929Y-4.3417
X6.6929Y-4.4417
X6.6929Y-4.5417
X6.6929Y-4.6417
X6.6929Y-4.7417
X6.6929Y-4.8417
X6.6929Y-4.9417
X6.6929Y-5.0417
X6.7378Y-5.687
X6.7929Y-3.1417
X6.7929Y-3.2417
X6.7929Y-3.3417
X6.7929Y-3.4417
X6.7929Y-3.5417
X6.7929Y-3.6417
X6.7929Y-3.7417
X6.7929Y-3.8417
X6.7929Y-3.9417
X6.7929Y-4.0417
X6.7929Y-4.1417
X6.7929Y-4.2417
X6.7929Y-4.3417
X6.7929Y-4.4417
X6.7929Y-4.5417
X6.7929Y-4.6417
X6.7929Y-4.7417
X6.7929Y-4.8417
X6.7929Y-4.9417
X6.7929Y-5.0417
X7.Y-3.1118
X7.Y-3.2118
X7.Y-3.3118
X7.Y-3.4118
X7.Y-3.5118
X7.Y-3.6118
X7.Y-3.7118
X7.Y-3.8118
X7.Y-3.9118
X7.Y-4.0118
X7.Y-4.1118
X7.Y-4.2118
X7.Y-4.3118
X7.Y-4.4118
X7.Y-4.5118
X7.Y-4.6118
X7.Y-4.7118
X7.Y-4.8118
X7.Y-4.9118
X7.Y-5.0118
X7.Y-5.1118
X7.Y-5.2118
X7.Y-5.3118
X7.Y-5.4118
X7.Y-5.5118
X7.1Y-3.1118
X7.1Y-3.2118
X7.1Y-3.3118
X7.1Y-3.4118
X7.1Y-3.5118
X7.1Y-3.6118
X7.1Y-3.7118
X7.1Y-3.8118
X7.1Y-3.9118
X7.1Y-4.0118
X7.1Y-4.1118
X7.1Y-4.2118
X7.1Y-4.3118
X7.1Y-4.4118
X7.1Y-4.5118
X7.1Y-4.6118
X7.1Y-4.7118
X7.1Y-4.8118
X7.1Y-4.9118
X7.1Y-5.0118
X7.1Y-5.1118
X7.1Y-5.2118
X7.1Y-5.3118
X7.1Y-5.4118
X7.1Y-5.5118
X8.0039Y-4.8642
X8.0039Y-4.9642
X8.4094Y-4.2016
X8.4094Y-4.3016
X8.4094Y-4.4016
X8.4094Y-4.5016
X8.5157Y-3.6087
X8.5157Y-3.7087
X8.5157Y-3.8087
X8.5591Y-1.7803
X8.5591Y-1.8803
X8.5591Y-1.9803
X8.5591Y-2.0803
X8.5591Y-2.1803
X8.5591Y-2.2803
X8.5591Y-2.3803
X8.622Y-4.7528
X8.622Y-4.8528
X8.622Y-4.9528
T6
X5.9764Y-1.7539
X5.9764Y-1.9154
X5.9764Y-2.0768
T7
X4.5559Y-3.1417
X4.5559Y-3.5354
X4.5559Y-4.7165
X4.5559Y-5.1102
X4.5559Y-5.5039
X7.6646Y-3.1417
X7.6646Y-3.5354
X7.6646Y-4.7165
X7.6646Y-5.1102
X7.6646Y-5.5039
T3
X6.5039Y-2.0669G85X6.5039Y-2.3031
G05
X6.8209Y-1.6811G85X6.8209Y-1.9173
G05
X6.7028Y-2.4803G85X6.939Y-2.4803
G05
X7.1378Y-2.0669G85X7.1378Y-2.3031
G05
T0
M30
