M48
;DRILL file {KiCad 4.0.5} date Wed Mar 22 03:01:54 2017
;FORMAT={-:-/ absolute / inch / decimal}
FMAT,2
INCH,TZ
T1C0.031
T2C0.039
T3C0.039
T4C0.040
T5C0.079
T6C0.134
%
G90
G05
M72
T1
X3.1024Y-1.9961
X3.1024Y-2.0945
X3.2953Y-1.626
X3.2953Y-1.7244
X4.815Y-1.9173
X4.815Y-2.0157
X5.0709Y-1.7953
X5.0709Y-1.8937
X5.3268Y-1.9173
X5.3268Y-2.0157
X5.5807Y-1.7224
X5.6791Y-1.7224
T3
X5.4378Y-2.2205
X5.8378Y-2.2205
T4
X3.4862Y-2.4823
X3.4862Y-2.5823
X3.6181Y-4.7465
X3.6181Y-4.8465
X3.6181Y-4.9465
X3.7913Y-3.5693
X3.7913Y-3.6693
X3.7913Y-3.7693
X5.Y-3.1118
X5.Y-3.2118
X5.Y-3.3118
X5.Y-3.4118
X5.Y-3.5118
X5.Y-3.6118
X5.Y-3.7118
X5.Y-3.8118
X5.Y-3.9118
X5.Y-4.0118
X5.Y-4.1118
X5.Y-4.2118
X5.Y-4.3118
X5.Y-4.4118
X5.Y-4.5118
X5.Y-4.6118
X5.Y-4.7118
X5.Y-4.8118
X5.Y-4.9118
X5.Y-5.0118
X5.Y-5.1118
X5.Y-5.2118
X5.Y-5.3118
X5.Y-5.4118
X5.Y-5.5118
X5.1Y-3.1118
X5.1Y-3.2118
X5.1Y-3.3118
X5.1Y-3.4118
X5.1Y-3.5118
X5.1Y-3.6118
X5.1Y-3.7118
X5.1Y-3.8118
X5.1Y-3.9118
X5.1Y-4.0118
X5.1Y-4.1118
X5.1Y-4.2118
X5.1Y-4.3118
X5.1Y-4.4118
X5.1Y-4.5118
X5.1Y-4.6118
X5.1Y-4.7118
X5.1Y-4.8118
X5.1Y-4.9118
X5.1Y-5.0118
X5.1Y-5.1118
X5.1Y-5.2118
X5.1Y-5.3118
X5.1Y-5.4118
X5.1Y-5.5118
X7.Y-3.1118
X7.Y-3.2118
X7.Y-3.3118
X7.Y-3.4118
X7.Y-3.5118
X7.Y-3.6118
X7.Y-3.7118
X7.Y-3.8118
X7.Y-3.9118
X7.Y-4.0118
X7.Y-4.1118
X7.Y-4.2118
X7.Y-4.3118
X7.Y-4.4118
X7.Y-4.5118
X7.Y-4.6118
X7.Y-4.7118
X7.Y-4.8118
X7.Y-4.9118
X7.Y-5.0118
X7.Y-5.1118
X7.Y-5.2118
X7.Y-5.3118
X7.Y-5.4118
X7.Y-5.5118
X7.1Y-3.1118
X7.1Y-3.2118
X7.1Y-3.3118
X7.1Y-3.4118
X7.1Y-3.5118
X7.1Y-3.6118
X7.1Y-3.7118
X7.1Y-3.8118
X7.1Y-3.9118
X7.1Y-4.0118
X7.1Y-4.1118
X7.1Y-4.2118
X7.1Y-4.3118
X7.1Y-4.4118
X7.1Y-4.5118
X7.1Y-4.6118
X7.1Y-4.7118
X7.1Y-4.8118
X7.1Y-4.9118
X7.1Y-5.0118
X7.1Y-5.1118
X7.1Y-5.2118
X7.1Y-5.3118
X7.1Y-5.4118
X7.1Y-5.5118
X8.0039Y-4.8642
X8.0039Y-4.9642
X8.5591Y-1.7803
X8.5591Y-1.8803
X8.5591Y-1.9803
X8.5591Y-2.0803
X8.5591Y-2.1803
X8.5591Y-2.2803
X8.5591Y-2.3803
X8.6181Y-3.6087
X8.6181Y-3.7087
X8.6181Y-3.8087
X8.622Y-4.7528
X8.622Y-4.8528
X8.622Y-4.9528
T5
X5.9764Y-1.7539
X5.9764Y-1.9154
X5.9764Y-2.0768
T6
X4.5559Y-3.1417
X4.5559Y-3.5354
X4.5559Y-4.7165
X4.5559Y-5.1102
X4.5559Y-5.5039
X7.6646Y-3.1417
X7.6646Y-3.5354
X7.6646Y-4.7165
X7.6646Y-5.1102
X7.6646Y-5.5039
T2
X6.5039Y-2.0669G85X6.5039Y-2.3031
G05
X6.8209Y-1.6811G85X6.8209Y-1.9173
G05
X6.7028Y-2.4803G85X6.939Y-2.4803
G05
X7.1378Y-2.0669G85X7.1378Y-2.3031
G05
T0
M30
