G04 #@! TF.FileFunction,Soldermask,Top*
%FSLAX46Y46*%
G04 Gerber Fmt 4.6, Leading zero omitted, Abs format (unit mm)*
G04 Created by KiCad (PCBNEW 4.0.2-stable) date Wed 04 May 2016 04:46:57 PM EDT*
%MOMM*%
G01*
G04 APERTURE LIST*
%ADD10C,0.100000*%
%ADD11R,1.000000X0.900000*%
%ADD12R,1.200000X1.150000*%
%ADD13R,1.150000X1.200000*%
%ADD14C,4.210000*%
%ADD15R,1.924000X1.924000*%
%ADD16C,1.924000*%
%ADD17R,1.650000X1.400000*%
%ADD18R,0.800000X1.750000*%
%ADD19O,1.650000X1.350000*%
%ADD20O,1.400000X1.950000*%
%ADD21R,2.150000X0.850000*%
%ADD22R,0.900000X1.300000*%
G04 APERTURE END LIST*
D10*
D11*
X161450000Y-78000000D03*
X162550000Y-78000000D03*
D12*
X154250000Y-92200000D03*
X152750000Y-92200000D03*
X170250000Y-94800000D03*
X168750000Y-94800000D03*
D13*
X168600000Y-98550000D03*
X168600000Y-100050000D03*
D14*
X144000000Y-81903000D03*
X144000000Y-107303000D03*
D15*
X146540000Y-89142000D03*
D16*
X146540000Y-91936000D03*
X146540000Y-94730000D03*
X146540000Y-97397000D03*
X146540000Y-100191000D03*
X144000000Y-98794000D03*
X144000000Y-96000000D03*
X144000000Y-93333000D03*
X144000000Y-90539000D03*
D17*
X161000000Y-81000000D03*
X161000000Y-83000000D03*
D18*
X158300900Y-75562540D03*
X157650900Y-75562540D03*
X157000900Y-75562540D03*
X156350900Y-75562540D03*
X155700900Y-75562540D03*
D19*
X159500900Y-75562540D03*
X154500900Y-75562540D03*
D20*
X160500900Y-72862540D03*
X153500900Y-72862540D03*
D21*
X157400000Y-90775000D03*
X157400000Y-91425000D03*
X157400000Y-92075000D03*
X157400000Y-92725000D03*
X157400000Y-93375000D03*
X157400000Y-94025000D03*
X157400000Y-94675000D03*
X157400000Y-95325000D03*
X157400000Y-95975000D03*
X157400000Y-96625000D03*
X157400000Y-97275000D03*
X157400000Y-97925000D03*
X157400000Y-98575000D03*
X157400000Y-99225000D03*
X164600000Y-99225000D03*
X164600000Y-98575000D03*
X164600000Y-97925000D03*
X164600000Y-97275000D03*
X164600000Y-96625000D03*
X164600000Y-95975000D03*
X164600000Y-95325000D03*
X164600000Y-94675000D03*
X164600000Y-94025000D03*
X164600000Y-93375000D03*
X164600000Y-92725000D03*
X164600000Y-92075000D03*
X164600000Y-91425000D03*
X164600000Y-90775000D03*
D22*
X167950000Y-96800000D03*
X169450000Y-96800000D03*
M02*
