G04 #@! TF.FileFunction,Copper,L2,Bot,Signal*
%FSLAX46Y46*%
G04 Gerber Fmt 4.6, Leading zero omitted, Abs format (unit mm)*
G04 Created by KiCad (PCBNEW 4.0.2-stable) date Wed 04 May 2016 04:46:57 PM EDT*
%MOMM*%
G01*
G04 APERTURE LIST*
%ADD10C,0.100000*%
%ADD11C,3.810000*%
%ADD12R,1.524000X1.524000*%
%ADD13C,1.524000*%
%ADD14O,1.250000X0.950000*%
%ADD15O,1.000000X1.550000*%
%ADD16C,0.600000*%
%ADD17C,0.250000*%
%ADD18C,0.254000*%
G04 APERTURE END LIST*
D10*
D11*
X144000000Y-81903000D03*
X144000000Y-107303000D03*
D12*
X146540000Y-89142000D03*
D13*
X146540000Y-91936000D03*
X146540000Y-94730000D03*
X146540000Y-97397000D03*
X146540000Y-100191000D03*
X144000000Y-98794000D03*
X144000000Y-96000000D03*
X144000000Y-93333000D03*
X144000000Y-90539000D03*
D14*
X159500900Y-75562540D03*
X154500900Y-75562540D03*
D15*
X160500900Y-72862540D03*
X153500900Y-72862540D03*
D16*
X162400000Y-96700000D03*
X151000000Y-92200000D03*
X167000000Y-100100000D03*
X166775000Y-92725000D03*
X166800000Y-94900000D03*
X154725000Y-94675000D03*
X154700000Y-78200000D03*
X164200000Y-78000000D03*
X153100000Y-94700000D03*
D17*
X146000000Y-96100000D02*
X144761999Y-97338001D01*
X144761999Y-97338001D02*
X144761999Y-98032001D01*
X144761999Y-98032001D02*
X144000000Y-98794000D01*
X151275736Y-96100000D02*
X146000000Y-96100000D01*
X153100000Y-94700000D02*
X152675736Y-94700000D01*
X152675736Y-94700000D02*
X151275736Y-96100000D01*
D18*
G36*
X178873000Y-118873000D02*
X131127000Y-118873000D01*
X131127000Y-107806021D01*
X141459560Y-107806021D01*
X141845437Y-108739915D01*
X142559327Y-109455052D01*
X143492546Y-109842559D01*
X144503021Y-109843440D01*
X145436915Y-109457563D01*
X146152052Y-108743673D01*
X146539559Y-107810454D01*
X146540440Y-106799979D01*
X146154563Y-105866085D01*
X145440673Y-105150948D01*
X144507454Y-104763441D01*
X143496979Y-104762560D01*
X142563085Y-105148437D01*
X141847948Y-105862327D01*
X141460441Y-106795546D01*
X141459560Y-107806021D01*
X131127000Y-107806021D01*
X131127000Y-90815661D01*
X142602758Y-90815661D01*
X142814990Y-91329303D01*
X143207630Y-91722629D01*
X143720900Y-91935757D01*
X143723336Y-91935759D01*
X143209697Y-92147990D01*
X142816371Y-92540630D01*
X142603243Y-93053900D01*
X142602758Y-93609661D01*
X142814990Y-94123303D01*
X143207630Y-94516629D01*
X143568815Y-94666606D01*
X143209697Y-94814990D01*
X142816371Y-95207630D01*
X142603243Y-95720900D01*
X142602758Y-96276661D01*
X142814990Y-96790303D01*
X143207630Y-97183629D01*
X143720900Y-97396757D01*
X143723336Y-97396759D01*
X143209697Y-97608990D01*
X142816371Y-98001630D01*
X142603243Y-98514900D01*
X142602758Y-99070661D01*
X142814990Y-99584303D01*
X143207630Y-99977629D01*
X143720900Y-100190757D01*
X144276661Y-100191242D01*
X144790303Y-99979010D01*
X145183629Y-99586370D01*
X145396757Y-99073100D01*
X145397242Y-98517339D01*
X145373149Y-98459029D01*
X145464147Y-98322841D01*
X145468491Y-98301002D01*
X145747630Y-98580629D01*
X146260900Y-98793757D01*
X146263336Y-98793759D01*
X145749697Y-99005990D01*
X145356371Y-99398630D01*
X145143243Y-99911900D01*
X145142758Y-100467661D01*
X145354990Y-100981303D01*
X145747630Y-101374629D01*
X146260900Y-101587757D01*
X146816661Y-101588242D01*
X147330303Y-101376010D01*
X147723629Y-100983370D01*
X147936757Y-100470100D01*
X147937242Y-99914339D01*
X147725010Y-99400697D01*
X147332370Y-99007371D01*
X146819100Y-98794243D01*
X146816664Y-98794241D01*
X147330303Y-98582010D01*
X147723629Y-98189370D01*
X147936757Y-97676100D01*
X147937242Y-97120339D01*
X147829672Y-96860000D01*
X151275736Y-96860000D01*
X151566575Y-96802148D01*
X151813137Y-96637401D01*
X152844307Y-95606231D01*
X152913201Y-95634838D01*
X153285167Y-95635162D01*
X153628943Y-95493117D01*
X153892192Y-95230327D01*
X154034838Y-94886799D01*
X154035162Y-94514833D01*
X153893117Y-94171057D01*
X153630327Y-93907808D01*
X153286799Y-93765162D01*
X152914833Y-93764838D01*
X152571057Y-93906883D01*
X152503578Y-93974245D01*
X152384897Y-93997852D01*
X152138335Y-94162599D01*
X150960934Y-95340000D01*
X147799356Y-95340000D01*
X147936757Y-95009100D01*
X147937242Y-94453339D01*
X147725010Y-93939697D01*
X147332370Y-93546371D01*
X146819100Y-93333243D01*
X146816664Y-93333241D01*
X147330303Y-93121010D01*
X147723629Y-92728370D01*
X147936757Y-92215100D01*
X147937242Y-91659339D01*
X147725010Y-91145697D01*
X147332370Y-90752371D01*
X146819100Y-90539243D01*
X146540647Y-90539000D01*
X146667002Y-90539000D01*
X146667002Y-90380252D01*
X146825750Y-90539000D01*
X147428310Y-90539000D01*
X147661699Y-90442327D01*
X147840327Y-90263698D01*
X147937000Y-90030309D01*
X147937000Y-89427750D01*
X147778250Y-89269000D01*
X146667000Y-89269000D01*
X146667000Y-89289000D01*
X146413000Y-89289000D01*
X146413000Y-89269000D01*
X145301750Y-89269000D01*
X145143000Y-89427750D01*
X145143000Y-89706614D01*
X144792370Y-89355371D01*
X144279100Y-89142243D01*
X143723339Y-89141758D01*
X143209697Y-89353990D01*
X142816371Y-89746630D01*
X142603243Y-90259900D01*
X142602758Y-90815661D01*
X131127000Y-90815661D01*
X131127000Y-88253691D01*
X145143000Y-88253691D01*
X145143000Y-88856250D01*
X145301750Y-89015000D01*
X146413000Y-89015000D01*
X146413000Y-87903750D01*
X146667000Y-87903750D01*
X146667000Y-89015000D01*
X147778250Y-89015000D01*
X147937000Y-88856250D01*
X147937000Y-88253691D01*
X147840327Y-88020302D01*
X147661699Y-87841673D01*
X147428310Y-87745000D01*
X146825750Y-87745000D01*
X146667000Y-87903750D01*
X146413000Y-87903750D01*
X146254250Y-87745000D01*
X145651690Y-87745000D01*
X145418301Y-87841673D01*
X145239673Y-88020302D01*
X145143000Y-88253691D01*
X131127000Y-88253691D01*
X131127000Y-82406021D01*
X141459560Y-82406021D01*
X141845437Y-83339915D01*
X142559327Y-84055052D01*
X143492546Y-84442559D01*
X144503021Y-84443440D01*
X145436915Y-84057563D01*
X146152052Y-83343673D01*
X146539559Y-82410454D01*
X146540440Y-81399979D01*
X146154563Y-80466085D01*
X145440673Y-79750948D01*
X144507454Y-79363441D01*
X143496979Y-79362560D01*
X142563085Y-79748437D01*
X141847948Y-80462327D01*
X141460441Y-81395546D01*
X141459560Y-82406021D01*
X131127000Y-82406021D01*
X131127000Y-75860478D01*
X153281632Y-75860478D01*
X153465348Y-76234361D01*
X153789851Y-76522108D01*
X154199769Y-76663769D01*
X154373900Y-76515103D01*
X154373900Y-75689540D01*
X154627900Y-75689540D01*
X154627900Y-76515103D01*
X154802031Y-76663769D01*
X155211949Y-76522108D01*
X155536452Y-76234361D01*
X155720168Y-75860478D01*
X158281632Y-75860478D01*
X158465348Y-76234361D01*
X158789851Y-76522108D01*
X159199769Y-76663769D01*
X159373900Y-76515103D01*
X159373900Y-75689540D01*
X159627900Y-75689540D01*
X159627900Y-76515103D01*
X159802031Y-76663769D01*
X160211949Y-76522108D01*
X160536452Y-76234361D01*
X160720168Y-75860478D01*
X160593634Y-75689540D01*
X159627900Y-75689540D01*
X159373900Y-75689540D01*
X158408166Y-75689540D01*
X158281632Y-75860478D01*
X155720168Y-75860478D01*
X155593634Y-75689540D01*
X154627900Y-75689540D01*
X154373900Y-75689540D01*
X153408166Y-75689540D01*
X153281632Y-75860478D01*
X131127000Y-75860478D01*
X131127000Y-75264602D01*
X153281632Y-75264602D01*
X153408166Y-75435540D01*
X154373900Y-75435540D01*
X154373900Y-74609977D01*
X154627900Y-74609977D01*
X154627900Y-75435540D01*
X155593634Y-75435540D01*
X155720168Y-75264602D01*
X158281632Y-75264602D01*
X158408166Y-75435540D01*
X159373900Y-75435540D01*
X159373900Y-74609977D01*
X159627900Y-74609977D01*
X159627900Y-75435540D01*
X160593634Y-75435540D01*
X160720168Y-75264602D01*
X160536452Y-74890719D01*
X160211949Y-74602972D01*
X159802031Y-74461311D01*
X159627900Y-74609977D01*
X159373900Y-74609977D01*
X159199769Y-74461311D01*
X158789851Y-74602972D01*
X158465348Y-74890719D01*
X158281632Y-75264602D01*
X155720168Y-75264602D01*
X155536452Y-74890719D01*
X155211949Y-74602972D01*
X154802031Y-74461311D01*
X154627900Y-74609977D01*
X154373900Y-74609977D01*
X154199769Y-74461311D01*
X153789851Y-74602972D01*
X153465348Y-74890719D01*
X153281632Y-75264602D01*
X131127000Y-75264602D01*
X131127000Y-72989540D01*
X152365900Y-72989540D01*
X152365900Y-73264540D01*
X152500898Y-73689218D01*
X152788137Y-74029908D01*
X153199026Y-74231659D01*
X153373900Y-74105494D01*
X153373900Y-72989540D01*
X153627900Y-72989540D01*
X153627900Y-74105494D01*
X153802774Y-74231659D01*
X154213663Y-74029908D01*
X154500902Y-73689218D01*
X154635900Y-73264540D01*
X154635900Y-72989540D01*
X159365900Y-72989540D01*
X159365900Y-73264540D01*
X159500898Y-73689218D01*
X159788137Y-74029908D01*
X160199026Y-74231659D01*
X160373900Y-74105494D01*
X160373900Y-72989540D01*
X160627900Y-72989540D01*
X160627900Y-74105494D01*
X160802774Y-74231659D01*
X161213663Y-74029908D01*
X161500902Y-73689218D01*
X161635900Y-73264540D01*
X161635900Y-72989540D01*
X160627900Y-72989540D01*
X160373900Y-72989540D01*
X159365900Y-72989540D01*
X154635900Y-72989540D01*
X153627900Y-72989540D01*
X153373900Y-72989540D01*
X152365900Y-72989540D01*
X131127000Y-72989540D01*
X131127000Y-72460540D01*
X152365900Y-72460540D01*
X152365900Y-72735540D01*
X153373900Y-72735540D01*
X153373900Y-71619586D01*
X153627900Y-71619586D01*
X153627900Y-72735540D01*
X154635900Y-72735540D01*
X154635900Y-72460540D01*
X159365900Y-72460540D01*
X159365900Y-72735540D01*
X160373900Y-72735540D01*
X160373900Y-71619586D01*
X160627900Y-71619586D01*
X160627900Y-72735540D01*
X161635900Y-72735540D01*
X161635900Y-72460540D01*
X161500902Y-72035862D01*
X161213663Y-71695172D01*
X160802774Y-71493421D01*
X160627900Y-71619586D01*
X160373900Y-71619586D01*
X160199026Y-71493421D01*
X159788137Y-71695172D01*
X159500898Y-72035862D01*
X159365900Y-72460540D01*
X154635900Y-72460540D01*
X154500902Y-72035862D01*
X154213663Y-71695172D01*
X153802774Y-71493421D01*
X153627900Y-71619586D01*
X153373900Y-71619586D01*
X153199026Y-71493421D01*
X152788137Y-71695172D01*
X152500898Y-72035862D01*
X152365900Y-72460540D01*
X131127000Y-72460540D01*
X131127000Y-71127000D01*
X178873000Y-71127000D01*
X178873000Y-118873000D01*
X178873000Y-118873000D01*
G37*
X178873000Y-118873000D02*
X131127000Y-118873000D01*
X131127000Y-107806021D01*
X141459560Y-107806021D01*
X141845437Y-108739915D01*
X142559327Y-109455052D01*
X143492546Y-109842559D01*
X144503021Y-109843440D01*
X145436915Y-109457563D01*
X146152052Y-108743673D01*
X146539559Y-107810454D01*
X146540440Y-106799979D01*
X146154563Y-105866085D01*
X145440673Y-105150948D01*
X144507454Y-104763441D01*
X143496979Y-104762560D01*
X142563085Y-105148437D01*
X141847948Y-105862327D01*
X141460441Y-106795546D01*
X141459560Y-107806021D01*
X131127000Y-107806021D01*
X131127000Y-90815661D01*
X142602758Y-90815661D01*
X142814990Y-91329303D01*
X143207630Y-91722629D01*
X143720900Y-91935757D01*
X143723336Y-91935759D01*
X143209697Y-92147990D01*
X142816371Y-92540630D01*
X142603243Y-93053900D01*
X142602758Y-93609661D01*
X142814990Y-94123303D01*
X143207630Y-94516629D01*
X143568815Y-94666606D01*
X143209697Y-94814990D01*
X142816371Y-95207630D01*
X142603243Y-95720900D01*
X142602758Y-96276661D01*
X142814990Y-96790303D01*
X143207630Y-97183629D01*
X143720900Y-97396757D01*
X143723336Y-97396759D01*
X143209697Y-97608990D01*
X142816371Y-98001630D01*
X142603243Y-98514900D01*
X142602758Y-99070661D01*
X142814990Y-99584303D01*
X143207630Y-99977629D01*
X143720900Y-100190757D01*
X144276661Y-100191242D01*
X144790303Y-99979010D01*
X145183629Y-99586370D01*
X145396757Y-99073100D01*
X145397242Y-98517339D01*
X145373149Y-98459029D01*
X145464147Y-98322841D01*
X145468491Y-98301002D01*
X145747630Y-98580629D01*
X146260900Y-98793757D01*
X146263336Y-98793759D01*
X145749697Y-99005990D01*
X145356371Y-99398630D01*
X145143243Y-99911900D01*
X145142758Y-100467661D01*
X145354990Y-100981303D01*
X145747630Y-101374629D01*
X146260900Y-101587757D01*
X146816661Y-101588242D01*
X147330303Y-101376010D01*
X147723629Y-100983370D01*
X147936757Y-100470100D01*
X147937242Y-99914339D01*
X147725010Y-99400697D01*
X147332370Y-99007371D01*
X146819100Y-98794243D01*
X146816664Y-98794241D01*
X147330303Y-98582010D01*
X147723629Y-98189370D01*
X147936757Y-97676100D01*
X147937242Y-97120339D01*
X147829672Y-96860000D01*
X151275736Y-96860000D01*
X151566575Y-96802148D01*
X151813137Y-96637401D01*
X152844307Y-95606231D01*
X152913201Y-95634838D01*
X153285167Y-95635162D01*
X153628943Y-95493117D01*
X153892192Y-95230327D01*
X154034838Y-94886799D01*
X154035162Y-94514833D01*
X153893117Y-94171057D01*
X153630327Y-93907808D01*
X153286799Y-93765162D01*
X152914833Y-93764838D01*
X152571057Y-93906883D01*
X152503578Y-93974245D01*
X152384897Y-93997852D01*
X152138335Y-94162599D01*
X150960934Y-95340000D01*
X147799356Y-95340000D01*
X147936757Y-95009100D01*
X147937242Y-94453339D01*
X147725010Y-93939697D01*
X147332370Y-93546371D01*
X146819100Y-93333243D01*
X146816664Y-93333241D01*
X147330303Y-93121010D01*
X147723629Y-92728370D01*
X147936757Y-92215100D01*
X147937242Y-91659339D01*
X147725010Y-91145697D01*
X147332370Y-90752371D01*
X146819100Y-90539243D01*
X146540647Y-90539000D01*
X146667002Y-90539000D01*
X146667002Y-90380252D01*
X146825750Y-90539000D01*
X147428310Y-90539000D01*
X147661699Y-90442327D01*
X147840327Y-90263698D01*
X147937000Y-90030309D01*
X147937000Y-89427750D01*
X147778250Y-89269000D01*
X146667000Y-89269000D01*
X146667000Y-89289000D01*
X146413000Y-89289000D01*
X146413000Y-89269000D01*
X145301750Y-89269000D01*
X145143000Y-89427750D01*
X145143000Y-89706614D01*
X144792370Y-89355371D01*
X144279100Y-89142243D01*
X143723339Y-89141758D01*
X143209697Y-89353990D01*
X142816371Y-89746630D01*
X142603243Y-90259900D01*
X142602758Y-90815661D01*
X131127000Y-90815661D01*
X131127000Y-88253691D01*
X145143000Y-88253691D01*
X145143000Y-88856250D01*
X145301750Y-89015000D01*
X146413000Y-89015000D01*
X146413000Y-87903750D01*
X146667000Y-87903750D01*
X146667000Y-89015000D01*
X147778250Y-89015000D01*
X147937000Y-88856250D01*
X147937000Y-88253691D01*
X147840327Y-88020302D01*
X147661699Y-87841673D01*
X147428310Y-87745000D01*
X146825750Y-87745000D01*
X146667000Y-87903750D01*
X146413000Y-87903750D01*
X146254250Y-87745000D01*
X145651690Y-87745000D01*
X145418301Y-87841673D01*
X145239673Y-88020302D01*
X145143000Y-88253691D01*
X131127000Y-88253691D01*
X131127000Y-82406021D01*
X141459560Y-82406021D01*
X141845437Y-83339915D01*
X142559327Y-84055052D01*
X143492546Y-84442559D01*
X144503021Y-84443440D01*
X145436915Y-84057563D01*
X146152052Y-83343673D01*
X146539559Y-82410454D01*
X146540440Y-81399979D01*
X146154563Y-80466085D01*
X145440673Y-79750948D01*
X144507454Y-79363441D01*
X143496979Y-79362560D01*
X142563085Y-79748437D01*
X141847948Y-80462327D01*
X141460441Y-81395546D01*
X141459560Y-82406021D01*
X131127000Y-82406021D01*
X131127000Y-75860478D01*
X153281632Y-75860478D01*
X153465348Y-76234361D01*
X153789851Y-76522108D01*
X154199769Y-76663769D01*
X154373900Y-76515103D01*
X154373900Y-75689540D01*
X154627900Y-75689540D01*
X154627900Y-76515103D01*
X154802031Y-76663769D01*
X155211949Y-76522108D01*
X155536452Y-76234361D01*
X155720168Y-75860478D01*
X158281632Y-75860478D01*
X158465348Y-76234361D01*
X158789851Y-76522108D01*
X159199769Y-76663769D01*
X159373900Y-76515103D01*
X159373900Y-75689540D01*
X159627900Y-75689540D01*
X159627900Y-76515103D01*
X159802031Y-76663769D01*
X160211949Y-76522108D01*
X160536452Y-76234361D01*
X160720168Y-75860478D01*
X160593634Y-75689540D01*
X159627900Y-75689540D01*
X159373900Y-75689540D01*
X158408166Y-75689540D01*
X158281632Y-75860478D01*
X155720168Y-75860478D01*
X155593634Y-75689540D01*
X154627900Y-75689540D01*
X154373900Y-75689540D01*
X153408166Y-75689540D01*
X153281632Y-75860478D01*
X131127000Y-75860478D01*
X131127000Y-75264602D01*
X153281632Y-75264602D01*
X153408166Y-75435540D01*
X154373900Y-75435540D01*
X154373900Y-74609977D01*
X154627900Y-74609977D01*
X154627900Y-75435540D01*
X155593634Y-75435540D01*
X155720168Y-75264602D01*
X158281632Y-75264602D01*
X158408166Y-75435540D01*
X159373900Y-75435540D01*
X159373900Y-74609977D01*
X159627900Y-74609977D01*
X159627900Y-75435540D01*
X160593634Y-75435540D01*
X160720168Y-75264602D01*
X160536452Y-74890719D01*
X160211949Y-74602972D01*
X159802031Y-74461311D01*
X159627900Y-74609977D01*
X159373900Y-74609977D01*
X159199769Y-74461311D01*
X158789851Y-74602972D01*
X158465348Y-74890719D01*
X158281632Y-75264602D01*
X155720168Y-75264602D01*
X155536452Y-74890719D01*
X155211949Y-74602972D01*
X154802031Y-74461311D01*
X154627900Y-74609977D01*
X154373900Y-74609977D01*
X154199769Y-74461311D01*
X153789851Y-74602972D01*
X153465348Y-74890719D01*
X153281632Y-75264602D01*
X131127000Y-75264602D01*
X131127000Y-72989540D01*
X152365900Y-72989540D01*
X152365900Y-73264540D01*
X152500898Y-73689218D01*
X152788137Y-74029908D01*
X153199026Y-74231659D01*
X153373900Y-74105494D01*
X153373900Y-72989540D01*
X153627900Y-72989540D01*
X153627900Y-74105494D01*
X153802774Y-74231659D01*
X154213663Y-74029908D01*
X154500902Y-73689218D01*
X154635900Y-73264540D01*
X154635900Y-72989540D01*
X159365900Y-72989540D01*
X159365900Y-73264540D01*
X159500898Y-73689218D01*
X159788137Y-74029908D01*
X160199026Y-74231659D01*
X160373900Y-74105494D01*
X160373900Y-72989540D01*
X160627900Y-72989540D01*
X160627900Y-74105494D01*
X160802774Y-74231659D01*
X161213663Y-74029908D01*
X161500902Y-73689218D01*
X161635900Y-73264540D01*
X161635900Y-72989540D01*
X160627900Y-72989540D01*
X160373900Y-72989540D01*
X159365900Y-72989540D01*
X154635900Y-72989540D01*
X153627900Y-72989540D01*
X153373900Y-72989540D01*
X152365900Y-72989540D01*
X131127000Y-72989540D01*
X131127000Y-72460540D01*
X152365900Y-72460540D01*
X152365900Y-72735540D01*
X153373900Y-72735540D01*
X153373900Y-71619586D01*
X153627900Y-71619586D01*
X153627900Y-72735540D01*
X154635900Y-72735540D01*
X154635900Y-72460540D01*
X159365900Y-72460540D01*
X159365900Y-72735540D01*
X160373900Y-72735540D01*
X160373900Y-71619586D01*
X160627900Y-71619586D01*
X160627900Y-72735540D01*
X161635900Y-72735540D01*
X161635900Y-72460540D01*
X161500902Y-72035862D01*
X161213663Y-71695172D01*
X160802774Y-71493421D01*
X160627900Y-71619586D01*
X160373900Y-71619586D01*
X160199026Y-71493421D01*
X159788137Y-71695172D01*
X159500898Y-72035862D01*
X159365900Y-72460540D01*
X154635900Y-72460540D01*
X154500902Y-72035862D01*
X154213663Y-71695172D01*
X153802774Y-71493421D01*
X153627900Y-71619586D01*
X153373900Y-71619586D01*
X153199026Y-71493421D01*
X152788137Y-71695172D01*
X152500898Y-72035862D01*
X152365900Y-72460540D01*
X131127000Y-72460540D01*
X131127000Y-71127000D01*
X178873000Y-71127000D01*
X178873000Y-118873000D01*
M02*
