G04 #@! TF.FileFunction,Copper,L1,Top,Signal*
%FSLAX46Y46*%
G04 Gerber Fmt 4.6, Leading zero omitted, Abs format (unit mm)*
G04 Created by KiCad (PCBNEW 4.0.2-stable) date Wed 04 May 2016 04:46:57 PM EDT*
%MOMM*%
G01*
G04 APERTURE LIST*
%ADD10C,0.100000*%
%ADD11R,0.600000X0.500000*%
%ADD12R,0.800000X0.750000*%
%ADD13R,0.750000X0.800000*%
%ADD14C,3.810000*%
%ADD15R,1.524000X1.524000*%
%ADD16C,1.524000*%
%ADD17R,1.250000X1.000000*%
%ADD18R,0.400000X1.350000*%
%ADD19O,1.250000X0.950000*%
%ADD20O,1.000000X1.550000*%
%ADD21R,1.750000X0.450000*%
%ADD22R,0.500000X0.900000*%
%ADD23C,0.600000*%
%ADD24C,0.250000*%
%ADD25C,0.200000*%
%ADD26C,0.254000*%
G04 APERTURE END LIST*
D10*
D11*
X161450000Y-78000000D03*
X162550000Y-78000000D03*
D12*
X154250000Y-92200000D03*
X152750000Y-92200000D03*
X170250000Y-94800000D03*
X168750000Y-94800000D03*
D13*
X168600000Y-98550000D03*
X168600000Y-100050000D03*
D14*
X144000000Y-81903000D03*
X144000000Y-107303000D03*
D15*
X146540000Y-89142000D03*
D16*
X146540000Y-91936000D03*
X146540000Y-94730000D03*
X146540000Y-97397000D03*
X146540000Y-100191000D03*
X144000000Y-98794000D03*
X144000000Y-96000000D03*
X144000000Y-93333000D03*
X144000000Y-90539000D03*
D17*
X161000000Y-81000000D03*
X161000000Y-83000000D03*
D18*
X158300900Y-75562540D03*
X157650900Y-75562540D03*
X157000900Y-75562540D03*
X156350900Y-75562540D03*
X155700900Y-75562540D03*
D19*
X159500900Y-75562540D03*
X154500900Y-75562540D03*
D20*
X160500900Y-72862540D03*
X153500900Y-72862540D03*
D21*
X157400000Y-90775000D03*
X157400000Y-91425000D03*
X157400000Y-92075000D03*
X157400000Y-92725000D03*
X157400000Y-93375000D03*
X157400000Y-94025000D03*
X157400000Y-94675000D03*
X157400000Y-95325000D03*
X157400000Y-95975000D03*
X157400000Y-96625000D03*
X157400000Y-97275000D03*
X157400000Y-97925000D03*
X157400000Y-98575000D03*
X157400000Y-99225000D03*
X164600000Y-99225000D03*
X164600000Y-98575000D03*
X164600000Y-97925000D03*
X164600000Y-97275000D03*
X164600000Y-96625000D03*
X164600000Y-95975000D03*
X164600000Y-95325000D03*
X164600000Y-94675000D03*
X164600000Y-94025000D03*
X164600000Y-93375000D03*
X164600000Y-92725000D03*
X164600000Y-92075000D03*
X164600000Y-91425000D03*
X164600000Y-90775000D03*
D22*
X167950000Y-96800000D03*
X169450000Y-96800000D03*
D23*
X162400000Y-96700000D03*
X151000000Y-92200000D03*
X167000000Y-100100000D03*
X166775000Y-92725000D03*
X166800000Y-94900000D03*
X154725000Y-94675000D03*
X154700000Y-78200000D03*
X164200000Y-78000000D03*
X153100000Y-94700000D03*
D24*
X161000000Y-79600000D02*
X161450000Y-79150000D01*
X161450000Y-79150000D02*
X161450000Y-78000000D01*
X161000000Y-81000000D02*
X161000000Y-79600000D01*
X158300900Y-77100900D02*
X159200000Y-78000000D01*
X159200000Y-78000000D02*
X161450000Y-78000000D01*
X158300900Y-75562540D02*
X158300900Y-77100900D01*
X162575000Y-97275000D02*
X162400000Y-97100000D01*
X162400000Y-97100000D02*
X162400000Y-96700000D01*
X164600000Y-97275000D02*
X162575000Y-97275000D01*
X152750000Y-92200000D02*
X151000000Y-92200000D01*
X167324264Y-94800000D02*
X168750000Y-94800000D01*
X166800000Y-94900000D02*
X167224264Y-94900000D01*
X167224264Y-94900000D02*
X167324264Y-94800000D01*
X167925000Y-100100000D02*
X167000000Y-100100000D01*
X168600000Y-100050000D02*
X167975000Y-100050000D01*
X167975000Y-100050000D02*
X167925000Y-100100000D01*
X164600000Y-92725000D02*
X166775000Y-92725000D01*
X166375000Y-95325000D02*
X166800000Y-94900000D01*
X164600000Y-95325000D02*
X166375000Y-95325000D01*
X157400000Y-94675000D02*
X154725000Y-94675000D01*
X154700000Y-77488440D02*
X154700000Y-78200000D01*
X155700900Y-75562540D02*
X155700900Y-76487540D01*
X155700900Y-76487540D02*
X154700000Y-77488440D01*
X162600000Y-78000000D02*
X164200000Y-78000000D01*
X162550000Y-78000000D02*
X162600000Y-78000000D01*
X166025000Y-97925000D02*
X166650000Y-98550000D01*
X166650000Y-98550000D02*
X168600000Y-98550000D01*
X164600000Y-97925000D02*
X166025000Y-97925000D01*
X157400000Y-90775000D02*
X150525000Y-90775000D01*
X150525000Y-90775000D02*
X148600000Y-92700000D01*
X148600000Y-92700000D02*
X148600000Y-99300000D01*
X148600000Y-99300000D02*
X147709000Y-100191000D01*
X147709000Y-100191000D02*
X146540000Y-100191000D01*
X153800000Y-93800000D02*
X153100000Y-94500000D01*
X153100000Y-94500000D02*
X153100000Y-94700000D01*
X155850000Y-93800000D02*
X153800000Y-93800000D01*
X157400000Y-93375000D02*
X156275000Y-93375000D01*
X156275000Y-93375000D02*
X155850000Y-93800000D01*
D25*
X161200000Y-97917158D02*
X161982842Y-98700000D01*
X161982842Y-98700000D02*
X163162500Y-98700000D01*
X163162500Y-98700000D02*
X163287500Y-98575000D01*
X163287500Y-98575000D02*
X164600000Y-98575000D01*
X161200000Y-87917158D02*
X161200000Y-97917158D01*
X157525900Y-84243058D02*
X161200000Y-87917158D01*
X157525900Y-76700040D02*
X157525900Y-84243058D01*
X157650900Y-75562540D02*
X157650900Y-76575040D01*
X157650900Y-76575040D02*
X157525900Y-76700040D01*
X160800000Y-98082842D02*
X161817158Y-99100000D01*
X163162500Y-99100000D02*
X163287500Y-99225000D01*
X163287500Y-99225000D02*
X164600000Y-99225000D01*
X161817158Y-99100000D02*
X163162500Y-99100000D01*
X160800000Y-88082842D02*
X160800000Y-98082842D01*
X157125900Y-84408742D02*
X160800000Y-88082842D01*
X157000900Y-75562540D02*
X157000900Y-76575040D01*
X157000900Y-76575040D02*
X157125900Y-76700040D01*
X157125900Y-76700040D02*
X157125900Y-84408742D01*
D24*
X167950000Y-96800000D02*
X167450000Y-96800000D01*
X167450000Y-96800000D02*
X167275000Y-96625000D01*
X167275000Y-96625000D02*
X165725000Y-96625000D01*
X165725000Y-96625000D02*
X164600000Y-96625000D01*
D26*
G36*
X178873000Y-118873000D02*
X131127000Y-118873000D01*
X131127000Y-107745024D01*
X141767614Y-107745024D01*
X142106700Y-108565674D01*
X142734023Y-109194094D01*
X143554080Y-109534611D01*
X144442024Y-109535386D01*
X145262674Y-109196300D01*
X145891094Y-108568977D01*
X146231611Y-107748920D01*
X146232386Y-106860976D01*
X145893300Y-106040326D01*
X145265977Y-105411906D01*
X144445920Y-105071389D01*
X143557976Y-105070614D01*
X142737326Y-105409700D01*
X142108906Y-106037023D01*
X141768389Y-106857080D01*
X141767614Y-107745024D01*
X131127000Y-107745024D01*
X131127000Y-100406665D01*
X145450811Y-100406665D01*
X145616252Y-100807063D01*
X145922326Y-101113671D01*
X146322434Y-101279811D01*
X146755665Y-101280189D01*
X147156063Y-101114748D01*
X147462671Y-100808674D01*
X147531465Y-100643000D01*
X147709000Y-100643000D01*
X147881973Y-100608594D01*
X148028612Y-100510612D01*
X148315053Y-100224171D01*
X166372891Y-100224171D01*
X166468145Y-100454703D01*
X166644369Y-100631235D01*
X166874735Y-100726891D01*
X167124171Y-100727109D01*
X167354703Y-100631855D01*
X167434698Y-100552000D01*
X167910786Y-100552000D01*
X167914395Y-100571179D01*
X167986012Y-100682474D01*
X168095286Y-100757138D01*
X168225000Y-100783406D01*
X168975000Y-100783406D01*
X169096179Y-100760605D01*
X169207474Y-100688988D01*
X169282138Y-100579714D01*
X169308406Y-100450000D01*
X169308406Y-99650000D01*
X169285605Y-99528821D01*
X169213988Y-99417526D01*
X169104714Y-99342862D01*
X168975000Y-99316594D01*
X168225000Y-99316594D01*
X168103821Y-99339395D01*
X167992526Y-99411012D01*
X167917862Y-99520286D01*
X167899066Y-99613104D01*
X167802027Y-99632406D01*
X167778689Y-99648000D01*
X167434728Y-99648000D01*
X167355631Y-99568765D01*
X167125265Y-99473109D01*
X166875829Y-99472891D01*
X166645297Y-99568145D01*
X166468765Y-99744369D01*
X166373109Y-99974735D01*
X166372891Y-100224171D01*
X148315053Y-100224171D01*
X148919612Y-99619612D01*
X149017594Y-99472973D01*
X149017610Y-99472891D01*
X149052000Y-99300000D01*
X149052000Y-94824171D01*
X152472891Y-94824171D01*
X152568145Y-95054703D01*
X152744369Y-95231235D01*
X152974735Y-95326891D01*
X153224171Y-95327109D01*
X153454703Y-95231855D01*
X153631235Y-95055631D01*
X153726891Y-94825265D01*
X153727109Y-94575829D01*
X153708480Y-94530744D01*
X153987225Y-94252000D01*
X154261252Y-94252000D01*
X154193765Y-94319369D01*
X154098109Y-94549735D01*
X154097891Y-94799171D01*
X154193145Y-95029703D01*
X154369369Y-95206235D01*
X154599735Y-95301891D01*
X154849171Y-95302109D01*
X155079703Y-95206855D01*
X155159698Y-95127000D01*
X156191594Y-95127000D01*
X156191594Y-95550000D01*
X156211101Y-95653673D01*
X156191594Y-95750000D01*
X156191594Y-96200000D01*
X156211101Y-96303673D01*
X156191594Y-96400000D01*
X156191594Y-96850000D01*
X156211101Y-96953673D01*
X156191594Y-97050000D01*
X156191594Y-97500000D01*
X156211101Y-97603673D01*
X156191594Y-97700000D01*
X156191594Y-98150000D01*
X156211101Y-98253673D01*
X156191594Y-98350000D01*
X156191594Y-98800000D01*
X156211101Y-98903673D01*
X156191594Y-99000000D01*
X156191594Y-99450000D01*
X156214395Y-99571179D01*
X156286012Y-99682474D01*
X156395286Y-99757138D01*
X156525000Y-99783406D01*
X158275000Y-99783406D01*
X158396179Y-99760605D01*
X158507474Y-99688988D01*
X158582138Y-99579714D01*
X158608406Y-99450000D01*
X158608406Y-99000000D01*
X158588899Y-98896327D01*
X158608406Y-98800000D01*
X158608406Y-98350000D01*
X158588899Y-98246327D01*
X158608406Y-98150000D01*
X158608406Y-97700000D01*
X158588899Y-97596327D01*
X158608406Y-97500000D01*
X158608406Y-97050000D01*
X158588899Y-96946327D01*
X158608406Y-96850000D01*
X158608406Y-96400000D01*
X158588899Y-96296327D01*
X158608406Y-96200000D01*
X158608406Y-95750000D01*
X158588899Y-95646327D01*
X158608406Y-95550000D01*
X158608406Y-95100000D01*
X158588899Y-94996327D01*
X158608406Y-94900000D01*
X158608406Y-94450000D01*
X158588899Y-94346327D01*
X158608406Y-94250000D01*
X158608406Y-93800000D01*
X158588899Y-93696327D01*
X158608406Y-93600000D01*
X158608406Y-93499218D01*
X158634698Y-93488327D01*
X158813327Y-93309699D01*
X158910000Y-93076310D01*
X158910000Y-92996250D01*
X158751250Y-92837500D01*
X158378236Y-92837500D01*
X158275000Y-92816594D01*
X156525000Y-92816594D01*
X156413892Y-92837500D01*
X156048750Y-92837500D01*
X155890000Y-92996250D01*
X155890000Y-93076310D01*
X155903024Y-93107752D01*
X155662776Y-93348000D01*
X153800000Y-93348000D01*
X153664260Y-93375000D01*
X153627026Y-93382406D01*
X153480387Y-93480388D01*
X152825960Y-94134816D01*
X152745297Y-94168145D01*
X152568765Y-94344369D01*
X152473109Y-94574735D01*
X152472891Y-94824171D01*
X149052000Y-94824171D01*
X149052000Y-92887224D01*
X150712224Y-91227000D01*
X153634365Y-91227000D01*
X153490302Y-91286673D01*
X153311673Y-91465301D01*
X153287654Y-91523287D01*
X153279714Y-91517862D01*
X153150000Y-91491594D01*
X152350000Y-91491594D01*
X152228821Y-91514395D01*
X152117526Y-91586012D01*
X152042862Y-91695286D01*
X152032187Y-91748000D01*
X151434728Y-91748000D01*
X151355631Y-91668765D01*
X151125265Y-91573109D01*
X150875829Y-91572891D01*
X150645297Y-91668145D01*
X150468765Y-91844369D01*
X150373109Y-92074735D01*
X150372891Y-92324171D01*
X150468145Y-92554703D01*
X150644369Y-92731235D01*
X150874735Y-92826891D01*
X151124171Y-92827109D01*
X151354703Y-92731855D01*
X151434698Y-92652000D01*
X152031082Y-92652000D01*
X152039395Y-92696179D01*
X152111012Y-92807474D01*
X152220286Y-92882138D01*
X152350000Y-92908406D01*
X153150000Y-92908406D01*
X153271179Y-92885605D01*
X153287095Y-92875363D01*
X153311673Y-92934699D01*
X153490302Y-93113327D01*
X153723691Y-93210000D01*
X153964250Y-93210000D01*
X154123000Y-93051250D01*
X154123000Y-92327000D01*
X154377000Y-92327000D01*
X154377000Y-93051250D01*
X154535750Y-93210000D01*
X154776309Y-93210000D01*
X155009698Y-93113327D01*
X155188327Y-92934699D01*
X155285000Y-92701310D01*
X155285000Y-92485750D01*
X155126250Y-92327000D01*
X154377000Y-92327000D01*
X154123000Y-92327000D01*
X154103000Y-92327000D01*
X154103000Y-92073000D01*
X154123000Y-92073000D01*
X154123000Y-92053000D01*
X154377000Y-92053000D01*
X154377000Y-92073000D01*
X155126250Y-92073000D01*
X155285000Y-91914250D01*
X155285000Y-91698690D01*
X155188327Y-91465301D01*
X155009698Y-91286673D01*
X154865635Y-91227000D01*
X156191594Y-91227000D01*
X156191594Y-91650000D01*
X156211101Y-91753673D01*
X156191594Y-91850000D01*
X156191594Y-91950782D01*
X156165302Y-91961673D01*
X155986673Y-92140301D01*
X155890000Y-92373690D01*
X155890000Y-92453750D01*
X156048750Y-92612500D01*
X156421764Y-92612500D01*
X156525000Y-92633406D01*
X158275000Y-92633406D01*
X158386108Y-92612500D01*
X158751250Y-92612500D01*
X158910000Y-92453750D01*
X158910000Y-92373690D01*
X158813327Y-92140301D01*
X158634698Y-91961673D01*
X158608406Y-91950782D01*
X158608406Y-91850000D01*
X158588899Y-91746327D01*
X158608406Y-91650000D01*
X158608406Y-91200000D01*
X158588899Y-91096327D01*
X158608406Y-91000000D01*
X158608406Y-90550000D01*
X158585605Y-90428821D01*
X158513988Y-90317526D01*
X158404714Y-90242862D01*
X158275000Y-90216594D01*
X156525000Y-90216594D01*
X156403821Y-90239395D01*
X156292526Y-90311012D01*
X156284335Y-90323000D01*
X150525000Y-90323000D01*
X150352027Y-90357406D01*
X150205388Y-90455388D01*
X148280388Y-92380388D01*
X148182406Y-92527027D01*
X148148000Y-92700000D01*
X148148000Y-99112776D01*
X147528683Y-99732093D01*
X147463748Y-99574937D01*
X147157674Y-99268329D01*
X146757566Y-99102189D01*
X146324335Y-99101811D01*
X145923937Y-99267252D01*
X145617329Y-99573326D01*
X145451189Y-99973434D01*
X145450811Y-100406665D01*
X131127000Y-100406665D01*
X131127000Y-99009665D01*
X142910811Y-99009665D01*
X143076252Y-99410063D01*
X143382326Y-99716671D01*
X143782434Y-99882811D01*
X144215665Y-99883189D01*
X144616063Y-99717748D01*
X144922671Y-99411674D01*
X145088811Y-99011566D01*
X145089189Y-98578335D01*
X144923748Y-98177937D01*
X144617674Y-97871329D01*
X144217566Y-97705189D01*
X143784335Y-97704811D01*
X143383937Y-97870252D01*
X143077329Y-98176326D01*
X142911189Y-98576434D01*
X142910811Y-99009665D01*
X131127000Y-99009665D01*
X131127000Y-97612665D01*
X145450811Y-97612665D01*
X145616252Y-98013063D01*
X145922326Y-98319671D01*
X146322434Y-98485811D01*
X146755665Y-98486189D01*
X147156063Y-98320748D01*
X147462671Y-98014674D01*
X147628811Y-97614566D01*
X147629189Y-97181335D01*
X147463748Y-96780937D01*
X147157674Y-96474329D01*
X146757566Y-96308189D01*
X146324335Y-96307811D01*
X145923937Y-96473252D01*
X145617329Y-96779326D01*
X145451189Y-97179434D01*
X145450811Y-97612665D01*
X131127000Y-97612665D01*
X131127000Y-96215665D01*
X142910811Y-96215665D01*
X143076252Y-96616063D01*
X143382326Y-96922671D01*
X143782434Y-97088811D01*
X144215665Y-97089189D01*
X144616063Y-96923748D01*
X144922671Y-96617674D01*
X145088811Y-96217566D01*
X145089189Y-95784335D01*
X144923748Y-95383937D01*
X144617674Y-95077329D01*
X144300594Y-94945665D01*
X145450811Y-94945665D01*
X145616252Y-95346063D01*
X145922326Y-95652671D01*
X146322434Y-95818811D01*
X146755665Y-95819189D01*
X147156063Y-95653748D01*
X147462671Y-95347674D01*
X147628811Y-94947566D01*
X147629189Y-94514335D01*
X147463748Y-94113937D01*
X147157674Y-93807329D01*
X146757566Y-93641189D01*
X146324335Y-93640811D01*
X145923937Y-93806252D01*
X145617329Y-94112326D01*
X145451189Y-94512434D01*
X145450811Y-94945665D01*
X144300594Y-94945665D01*
X144217566Y-94911189D01*
X143784335Y-94910811D01*
X143383937Y-95076252D01*
X143077329Y-95382326D01*
X142911189Y-95782434D01*
X142910811Y-96215665D01*
X131127000Y-96215665D01*
X131127000Y-93548665D01*
X142910811Y-93548665D01*
X143076252Y-93949063D01*
X143382326Y-94255671D01*
X143782434Y-94421811D01*
X144215665Y-94422189D01*
X144616063Y-94256748D01*
X144922671Y-93950674D01*
X145088811Y-93550566D01*
X145089189Y-93117335D01*
X144923748Y-92716937D01*
X144617674Y-92410329D01*
X144217566Y-92244189D01*
X143784335Y-92243811D01*
X143383937Y-92409252D01*
X143077329Y-92715326D01*
X142911189Y-93115434D01*
X142910811Y-93548665D01*
X131127000Y-93548665D01*
X131127000Y-92151665D01*
X145450811Y-92151665D01*
X145616252Y-92552063D01*
X145922326Y-92858671D01*
X146322434Y-93024811D01*
X146755665Y-93025189D01*
X147156063Y-92859748D01*
X147462671Y-92553674D01*
X147628811Y-92153566D01*
X147629189Y-91720335D01*
X147463748Y-91319937D01*
X147157674Y-91013329D01*
X146757566Y-90847189D01*
X146324335Y-90846811D01*
X145923937Y-91012252D01*
X145617329Y-91318326D01*
X145451189Y-91718434D01*
X145450811Y-92151665D01*
X131127000Y-92151665D01*
X131127000Y-91519213D01*
X143199392Y-91519213D01*
X143268857Y-91761397D01*
X143792302Y-91948144D01*
X144347368Y-91920362D01*
X144731143Y-91761397D01*
X144800608Y-91519213D01*
X144000000Y-90718605D01*
X143199392Y-91519213D01*
X131127000Y-91519213D01*
X131127000Y-90331302D01*
X142590856Y-90331302D01*
X142618638Y-90886368D01*
X142777603Y-91270143D01*
X143019787Y-91339608D01*
X143820395Y-90539000D01*
X144179605Y-90539000D01*
X144980213Y-91339608D01*
X145222397Y-91270143D01*
X145409144Y-90746698D01*
X145381362Y-90191632D01*
X145222397Y-89807857D01*
X144980213Y-89738392D01*
X144179605Y-90539000D01*
X143820395Y-90539000D01*
X143019787Y-89738392D01*
X142777603Y-89807857D01*
X142590856Y-90331302D01*
X131127000Y-90331302D01*
X131127000Y-89558787D01*
X143199392Y-89558787D01*
X144000000Y-90359395D01*
X144800608Y-89558787D01*
X144731143Y-89316603D01*
X144207698Y-89129856D01*
X143652632Y-89157638D01*
X143268857Y-89316603D01*
X143199392Y-89558787D01*
X131127000Y-89558787D01*
X131127000Y-88380000D01*
X145444594Y-88380000D01*
X145444594Y-89904000D01*
X145467395Y-90025179D01*
X145539012Y-90136474D01*
X145648286Y-90211138D01*
X145778000Y-90237406D01*
X147302000Y-90237406D01*
X147423179Y-90214605D01*
X147534474Y-90142988D01*
X147609138Y-90033714D01*
X147635406Y-89904000D01*
X147635406Y-88380000D01*
X147612605Y-88258821D01*
X147540988Y-88147526D01*
X147431714Y-88072862D01*
X147302000Y-88046594D01*
X145778000Y-88046594D01*
X145656821Y-88069395D01*
X145545526Y-88141012D01*
X145470862Y-88250286D01*
X145444594Y-88380000D01*
X131127000Y-88380000D01*
X131127000Y-82345024D01*
X141767614Y-82345024D01*
X142106700Y-83165674D01*
X142734023Y-83794094D01*
X143554080Y-84134611D01*
X144442024Y-84135386D01*
X145262674Y-83796300D01*
X145891094Y-83168977D01*
X146231611Y-82348920D01*
X146232386Y-81460976D01*
X145893300Y-80640326D01*
X145265977Y-80011906D01*
X144445920Y-79671389D01*
X143557976Y-79670614D01*
X142737326Y-80009700D01*
X142108906Y-80637023D01*
X141768389Y-81457080D01*
X141767614Y-82345024D01*
X131127000Y-82345024D01*
X131127000Y-75562540D01*
X153530249Y-75562540D01*
X153591298Y-75869452D01*
X153765149Y-76129640D01*
X154025337Y-76303491D01*
X154332249Y-76364540D01*
X154669551Y-76364540D01*
X154976463Y-76303491D01*
X155167494Y-76175849D01*
X155167494Y-76237540D01*
X155190295Y-76358719D01*
X155190374Y-76358841D01*
X154380388Y-77168828D01*
X154282406Y-77315467D01*
X154248000Y-77488440D01*
X154248000Y-77765272D01*
X154168765Y-77844369D01*
X154073109Y-78074735D01*
X154072891Y-78324171D01*
X154168145Y-78554703D01*
X154344369Y-78731235D01*
X154574735Y-78826891D01*
X154824171Y-78827109D01*
X155054703Y-78731855D01*
X155231235Y-78555631D01*
X155326891Y-78325265D01*
X155327109Y-78075829D01*
X155231855Y-77845297D01*
X155152000Y-77765302D01*
X155152000Y-77675664D01*
X156020512Y-76807153D01*
X156118494Y-76660513D01*
X156135495Y-76575040D01*
X156136875Y-76568106D01*
X156150900Y-76570946D01*
X156550900Y-76570946D01*
X156573900Y-76566618D01*
X156573900Y-76575035D01*
X156573899Y-76575040D01*
X156606403Y-76738446D01*
X156698900Y-76876878D01*
X156698900Y-84408737D01*
X156698899Y-84408742D01*
X156731403Y-84572148D01*
X156823965Y-84710677D01*
X160373000Y-88259712D01*
X160373000Y-98082837D01*
X160372999Y-98082842D01*
X160405503Y-98246248D01*
X160498065Y-98384777D01*
X161515221Y-99401932D01*
X161515223Y-99401935D01*
X161621539Y-99472973D01*
X161653752Y-99494497D01*
X161817158Y-99527001D01*
X161817163Y-99527000D01*
X162985662Y-99527000D01*
X163124094Y-99619497D01*
X163287500Y-99652001D01*
X163287505Y-99652000D01*
X163466402Y-99652000D01*
X163486012Y-99682474D01*
X163595286Y-99757138D01*
X163725000Y-99783406D01*
X165475000Y-99783406D01*
X165596179Y-99760605D01*
X165707474Y-99688988D01*
X165782138Y-99579714D01*
X165808406Y-99450000D01*
X165808406Y-99000000D01*
X165788899Y-98896327D01*
X165808406Y-98800000D01*
X165808406Y-98377000D01*
X165837776Y-98377000D01*
X166330387Y-98869612D01*
X166477026Y-98967594D01*
X166505724Y-98973302D01*
X166650000Y-99002000D01*
X167901378Y-99002000D01*
X167914395Y-99071179D01*
X167986012Y-99182474D01*
X168095286Y-99257138D01*
X168225000Y-99283406D01*
X168975000Y-99283406D01*
X169096179Y-99260605D01*
X169207474Y-99188988D01*
X169282138Y-99079714D01*
X169308406Y-98950000D01*
X169308406Y-98150000D01*
X169285605Y-98028821D01*
X169213988Y-97917526D01*
X169166305Y-97884945D01*
X169325000Y-97726250D01*
X169325000Y-96927000D01*
X169575000Y-96927000D01*
X169575000Y-97726250D01*
X169733750Y-97885000D01*
X169826309Y-97885000D01*
X170059698Y-97788327D01*
X170238327Y-97609699D01*
X170335000Y-97376310D01*
X170335000Y-97085750D01*
X170176250Y-96927000D01*
X169575000Y-96927000D01*
X169325000Y-96927000D01*
X168723750Y-96927000D01*
X168565000Y-97085750D01*
X168565000Y-97376310D01*
X168661673Y-97609699D01*
X168840302Y-97788327D01*
X168908544Y-97816594D01*
X168225000Y-97816594D01*
X168103821Y-97839395D01*
X167992526Y-97911012D01*
X167917862Y-98020286D01*
X167902124Y-98098000D01*
X166837225Y-98098000D01*
X166344612Y-97605388D01*
X166197973Y-97507406D01*
X166025000Y-97473000D01*
X165808406Y-97473000D01*
X165808406Y-97077000D01*
X167087775Y-97077000D01*
X167130387Y-97119612D01*
X167277027Y-97217594D01*
X167366594Y-97235410D01*
X167366594Y-97250000D01*
X167389395Y-97371179D01*
X167461012Y-97482474D01*
X167570286Y-97557138D01*
X167700000Y-97583406D01*
X168200000Y-97583406D01*
X168321179Y-97560605D01*
X168432474Y-97488988D01*
X168507138Y-97379714D01*
X168533406Y-97250000D01*
X168533406Y-96350000D01*
X168510605Y-96228821D01*
X168507304Y-96223690D01*
X168565000Y-96223690D01*
X168565000Y-96514250D01*
X168723750Y-96673000D01*
X169325000Y-96673000D01*
X169325000Y-95873750D01*
X169166250Y-95715000D01*
X169073691Y-95715000D01*
X168840302Y-95811673D01*
X168661673Y-95990301D01*
X168565000Y-96223690D01*
X168507304Y-96223690D01*
X168438988Y-96117526D01*
X168329714Y-96042862D01*
X168200000Y-96016594D01*
X167700000Y-96016594D01*
X167578821Y-96039395D01*
X167467526Y-96111012D01*
X167407204Y-96199297D01*
X167275000Y-96173000D01*
X166036750Y-96173000D01*
X165951250Y-96087500D01*
X165578236Y-96087500D01*
X165475000Y-96066594D01*
X163725000Y-96066594D01*
X163613892Y-96087500D01*
X163248750Y-96087500D01*
X163090000Y-96246250D01*
X163090000Y-96326310D01*
X163186673Y-96559699D01*
X163365302Y-96738327D01*
X163391594Y-96749218D01*
X163391594Y-96823000D01*
X163026893Y-96823000D01*
X163027109Y-96575829D01*
X162931855Y-96345297D01*
X162755631Y-96168765D01*
X162525265Y-96073109D01*
X162275829Y-96072891D01*
X162045297Y-96168145D01*
X161868765Y-96344369D01*
X161773109Y-96574735D01*
X161772891Y-96824171D01*
X161868145Y-97054703D01*
X161956619Y-97143332D01*
X161982406Y-97272973D01*
X162080388Y-97419612D01*
X162255387Y-97594612D01*
X162395668Y-97688345D01*
X162402027Y-97692594D01*
X162575000Y-97727000D01*
X163391594Y-97727000D01*
X163391594Y-98148000D01*
X163287505Y-98148000D01*
X163287500Y-98147999D01*
X163136994Y-98177937D01*
X163124094Y-98180503D01*
X162985662Y-98273000D01*
X162159711Y-98273000D01*
X161627000Y-97740288D01*
X161627000Y-95623690D01*
X163090000Y-95623690D01*
X163090000Y-95703750D01*
X163248750Y-95862500D01*
X163621764Y-95862500D01*
X163725000Y-95883406D01*
X165475000Y-95883406D01*
X165586108Y-95862500D01*
X165951250Y-95862500D01*
X166036750Y-95777000D01*
X166375000Y-95777000D01*
X166547973Y-95742594D01*
X166694612Y-95644612D01*
X166812213Y-95527011D01*
X166924171Y-95527109D01*
X167154703Y-95431855D01*
X167237294Y-95349408D01*
X167397237Y-95317594D01*
X167495404Y-95252000D01*
X168031082Y-95252000D01*
X168039395Y-95296179D01*
X168111012Y-95407474D01*
X168220286Y-95482138D01*
X168350000Y-95508406D01*
X169150000Y-95508406D01*
X169271179Y-95485605D01*
X169287095Y-95475363D01*
X169311673Y-95534699D01*
X169490302Y-95713327D01*
X169663629Y-95785121D01*
X169575000Y-95873750D01*
X169575000Y-96673000D01*
X170176250Y-96673000D01*
X170335000Y-96514250D01*
X170335000Y-96223690D01*
X170238327Y-95990301D01*
X170059698Y-95811673D01*
X169991023Y-95783227D01*
X170123000Y-95651250D01*
X170123000Y-94927000D01*
X170377000Y-94927000D01*
X170377000Y-95651250D01*
X170535750Y-95810000D01*
X170776309Y-95810000D01*
X171009698Y-95713327D01*
X171188327Y-95534699D01*
X171285000Y-95301310D01*
X171285000Y-95085750D01*
X171126250Y-94927000D01*
X170377000Y-94927000D01*
X170123000Y-94927000D01*
X170103000Y-94927000D01*
X170103000Y-94673000D01*
X170123000Y-94673000D01*
X170123000Y-93948750D01*
X170377000Y-93948750D01*
X170377000Y-94673000D01*
X171126250Y-94673000D01*
X171285000Y-94514250D01*
X171285000Y-94298690D01*
X171188327Y-94065301D01*
X171009698Y-93886673D01*
X170776309Y-93790000D01*
X170535750Y-93790000D01*
X170377000Y-93948750D01*
X170123000Y-93948750D01*
X169964250Y-93790000D01*
X169723691Y-93790000D01*
X169490302Y-93886673D01*
X169311673Y-94065301D01*
X169287654Y-94123287D01*
X169279714Y-94117862D01*
X169150000Y-94091594D01*
X168350000Y-94091594D01*
X168228821Y-94114395D01*
X168117526Y-94186012D01*
X168042862Y-94295286D01*
X168032187Y-94348000D01*
X167324264Y-94348000D01*
X167166273Y-94379426D01*
X167155631Y-94368765D01*
X166925265Y-94273109D01*
X166675829Y-94272891D01*
X166445297Y-94368145D01*
X166268765Y-94544369D01*
X166173109Y-94774735D01*
X166173023Y-94873000D01*
X165808406Y-94873000D01*
X165808406Y-94450000D01*
X165788899Y-94346327D01*
X165808406Y-94250000D01*
X165808406Y-93800000D01*
X165788899Y-93696327D01*
X165808406Y-93600000D01*
X165808406Y-93177000D01*
X166340272Y-93177000D01*
X166419369Y-93256235D01*
X166649735Y-93351891D01*
X166899171Y-93352109D01*
X167129703Y-93256855D01*
X167306235Y-93080631D01*
X167401891Y-92850265D01*
X167402109Y-92600829D01*
X167306855Y-92370297D01*
X167130631Y-92193765D01*
X166900265Y-92098109D01*
X166650829Y-92097891D01*
X166420297Y-92193145D01*
X166340302Y-92273000D01*
X165808406Y-92273000D01*
X165808406Y-91850000D01*
X165788899Y-91746327D01*
X165808406Y-91650000D01*
X165808406Y-91200000D01*
X165788899Y-91096327D01*
X165808406Y-91000000D01*
X165808406Y-90550000D01*
X165785605Y-90428821D01*
X165713988Y-90317526D01*
X165604714Y-90242862D01*
X165475000Y-90216594D01*
X163725000Y-90216594D01*
X163603821Y-90239395D01*
X163492526Y-90311012D01*
X163417862Y-90420286D01*
X163391594Y-90550000D01*
X163391594Y-91000000D01*
X163411101Y-91103673D01*
X163391594Y-91200000D01*
X163391594Y-91650000D01*
X163411101Y-91753673D01*
X163391594Y-91850000D01*
X163391594Y-92300000D01*
X163411101Y-92403673D01*
X163391594Y-92500000D01*
X163391594Y-92950000D01*
X163411101Y-93053673D01*
X163391594Y-93150000D01*
X163391594Y-93600000D01*
X163411101Y-93703673D01*
X163391594Y-93800000D01*
X163391594Y-94250000D01*
X163411101Y-94353673D01*
X163391594Y-94450000D01*
X163391594Y-94900000D01*
X163411101Y-95003673D01*
X163391594Y-95100000D01*
X163391594Y-95200782D01*
X163365302Y-95211673D01*
X163186673Y-95390301D01*
X163090000Y-95623690D01*
X161627000Y-95623690D01*
X161627000Y-87917163D01*
X161627001Y-87917158D01*
X161594497Y-87753752D01*
X161501935Y-87615223D01*
X157952900Y-84066188D01*
X157952900Y-83285750D01*
X159740000Y-83285750D01*
X159740000Y-83626309D01*
X159836673Y-83859698D01*
X160015301Y-84038327D01*
X160248690Y-84135000D01*
X160714250Y-84135000D01*
X160873000Y-83976250D01*
X160873000Y-83127000D01*
X161127000Y-83127000D01*
X161127000Y-83976250D01*
X161285750Y-84135000D01*
X161751310Y-84135000D01*
X161984699Y-84038327D01*
X162163327Y-83859698D01*
X162260000Y-83626309D01*
X162260000Y-83285750D01*
X162101250Y-83127000D01*
X161127000Y-83127000D01*
X160873000Y-83127000D01*
X159898750Y-83127000D01*
X159740000Y-83285750D01*
X157952900Y-83285750D01*
X157952900Y-82373691D01*
X159740000Y-82373691D01*
X159740000Y-82714250D01*
X159898750Y-82873000D01*
X160873000Y-82873000D01*
X160873000Y-82023750D01*
X161127000Y-82023750D01*
X161127000Y-82873000D01*
X162101250Y-82873000D01*
X162260000Y-82714250D01*
X162260000Y-82373691D01*
X162163327Y-82140302D01*
X161984699Y-81961673D01*
X161751310Y-81865000D01*
X161285750Y-81865000D01*
X161127000Y-82023750D01*
X160873000Y-82023750D01*
X160714250Y-81865000D01*
X160248690Y-81865000D01*
X160015301Y-81961673D01*
X159836673Y-82140302D01*
X159740000Y-82373691D01*
X157952900Y-82373691D01*
X157952900Y-77378027D01*
X157981288Y-77420512D01*
X158880387Y-78319612D01*
X158970336Y-78379714D01*
X159027027Y-78417594D01*
X159200000Y-78452000D01*
X160891402Y-78452000D01*
X160911012Y-78482474D01*
X160998000Y-78541911D01*
X160998000Y-78962776D01*
X160680388Y-79280388D01*
X160582406Y-79427027D01*
X160548000Y-79600000D01*
X160548000Y-80166594D01*
X160375000Y-80166594D01*
X160253821Y-80189395D01*
X160142526Y-80261012D01*
X160067862Y-80370286D01*
X160041594Y-80500000D01*
X160041594Y-81500000D01*
X160064395Y-81621179D01*
X160136012Y-81732474D01*
X160245286Y-81807138D01*
X160375000Y-81833406D01*
X161625000Y-81833406D01*
X161746179Y-81810605D01*
X161857474Y-81738988D01*
X161932138Y-81629714D01*
X161958406Y-81500000D01*
X161958406Y-80500000D01*
X161935605Y-80378821D01*
X161863988Y-80267526D01*
X161754714Y-80192862D01*
X161625000Y-80166594D01*
X161452000Y-80166594D01*
X161452000Y-79787224D01*
X161769612Y-79469612D01*
X161867594Y-79322973D01*
X161902000Y-79150000D01*
X161902000Y-78540772D01*
X161982474Y-78488988D01*
X161999330Y-78464319D01*
X162011012Y-78482474D01*
X162120286Y-78557138D01*
X162250000Y-78583406D01*
X162850000Y-78583406D01*
X162971179Y-78560605D01*
X163082474Y-78488988D01*
X163107747Y-78452000D01*
X163765272Y-78452000D01*
X163844369Y-78531235D01*
X164074735Y-78626891D01*
X164324171Y-78627109D01*
X164554703Y-78531855D01*
X164731235Y-78355631D01*
X164826891Y-78125265D01*
X164827109Y-77875829D01*
X164731855Y-77645297D01*
X164555631Y-77468765D01*
X164325265Y-77373109D01*
X164075829Y-77372891D01*
X163845297Y-77468145D01*
X163765302Y-77548000D01*
X163108598Y-77548000D01*
X163088988Y-77517526D01*
X162979714Y-77442862D01*
X162850000Y-77416594D01*
X162250000Y-77416594D01*
X162128821Y-77439395D01*
X162017526Y-77511012D01*
X162000670Y-77535681D01*
X161988988Y-77517526D01*
X161879714Y-77442862D01*
X161750000Y-77416594D01*
X161150000Y-77416594D01*
X161028821Y-77439395D01*
X160917526Y-77511012D01*
X160892253Y-77548000D01*
X159387225Y-77548000D01*
X158752900Y-76913676D01*
X158752900Y-76447951D01*
X158808038Y-76367254D01*
X158834306Y-76237540D01*
X158834306Y-76175849D01*
X159025337Y-76303491D01*
X159332249Y-76364540D01*
X159669551Y-76364540D01*
X159976463Y-76303491D01*
X160236651Y-76129640D01*
X160410502Y-75869452D01*
X160471551Y-75562540D01*
X160410502Y-75255628D01*
X160236651Y-74995440D01*
X159976463Y-74821589D01*
X159669551Y-74760540D01*
X159332249Y-74760540D01*
X159025337Y-74821589D01*
X158834306Y-74949231D01*
X158834306Y-74887540D01*
X158811505Y-74766361D01*
X158739888Y-74655066D01*
X158630614Y-74580402D01*
X158500900Y-74554134D01*
X158100900Y-74554134D01*
X157979721Y-74576935D01*
X157975837Y-74579435D01*
X157850900Y-74554134D01*
X157450900Y-74554134D01*
X157329721Y-74576935D01*
X157325837Y-74579435D01*
X157200900Y-74554134D01*
X156800900Y-74554134D01*
X156679721Y-74576935D01*
X156675837Y-74579435D01*
X156550900Y-74554134D01*
X156150900Y-74554134D01*
X156029721Y-74576935D01*
X156025837Y-74579435D01*
X155900900Y-74554134D01*
X155500900Y-74554134D01*
X155379721Y-74576935D01*
X155268426Y-74648552D01*
X155193762Y-74757826D01*
X155167494Y-74887540D01*
X155167494Y-74949231D01*
X154976463Y-74821589D01*
X154669551Y-74760540D01*
X154332249Y-74760540D01*
X154025337Y-74821589D01*
X153765149Y-74995440D01*
X153591298Y-75255628D01*
X153530249Y-75562540D01*
X131127000Y-75562540D01*
X131127000Y-72565951D01*
X152673900Y-72565951D01*
X152673900Y-73159129D01*
X152736852Y-73475608D01*
X152916123Y-73743906D01*
X153184421Y-73923177D01*
X153500900Y-73986129D01*
X153817379Y-73923177D01*
X154085677Y-73743906D01*
X154264948Y-73475608D01*
X154327900Y-73159129D01*
X154327900Y-72565951D01*
X159673900Y-72565951D01*
X159673900Y-73159129D01*
X159736852Y-73475608D01*
X159916123Y-73743906D01*
X160184421Y-73923177D01*
X160500900Y-73986129D01*
X160817379Y-73923177D01*
X161085677Y-73743906D01*
X161264948Y-73475608D01*
X161327900Y-73159129D01*
X161327900Y-72565951D01*
X161264948Y-72249472D01*
X161085677Y-71981174D01*
X160817379Y-71801903D01*
X160500900Y-71738951D01*
X160184421Y-71801903D01*
X159916123Y-71981174D01*
X159736852Y-72249472D01*
X159673900Y-72565951D01*
X154327900Y-72565951D01*
X154264948Y-72249472D01*
X154085677Y-71981174D01*
X153817379Y-71801903D01*
X153500900Y-71738951D01*
X153184421Y-71801903D01*
X152916123Y-71981174D01*
X152736852Y-72249472D01*
X152673900Y-72565951D01*
X131127000Y-72565951D01*
X131127000Y-71127000D01*
X178873000Y-71127000D01*
X178873000Y-118873000D01*
X178873000Y-118873000D01*
G37*
X178873000Y-118873000D02*
X131127000Y-118873000D01*
X131127000Y-107745024D01*
X141767614Y-107745024D01*
X142106700Y-108565674D01*
X142734023Y-109194094D01*
X143554080Y-109534611D01*
X144442024Y-109535386D01*
X145262674Y-109196300D01*
X145891094Y-108568977D01*
X146231611Y-107748920D01*
X146232386Y-106860976D01*
X145893300Y-106040326D01*
X145265977Y-105411906D01*
X144445920Y-105071389D01*
X143557976Y-105070614D01*
X142737326Y-105409700D01*
X142108906Y-106037023D01*
X141768389Y-106857080D01*
X141767614Y-107745024D01*
X131127000Y-107745024D01*
X131127000Y-100406665D01*
X145450811Y-100406665D01*
X145616252Y-100807063D01*
X145922326Y-101113671D01*
X146322434Y-101279811D01*
X146755665Y-101280189D01*
X147156063Y-101114748D01*
X147462671Y-100808674D01*
X147531465Y-100643000D01*
X147709000Y-100643000D01*
X147881973Y-100608594D01*
X148028612Y-100510612D01*
X148315053Y-100224171D01*
X166372891Y-100224171D01*
X166468145Y-100454703D01*
X166644369Y-100631235D01*
X166874735Y-100726891D01*
X167124171Y-100727109D01*
X167354703Y-100631855D01*
X167434698Y-100552000D01*
X167910786Y-100552000D01*
X167914395Y-100571179D01*
X167986012Y-100682474D01*
X168095286Y-100757138D01*
X168225000Y-100783406D01*
X168975000Y-100783406D01*
X169096179Y-100760605D01*
X169207474Y-100688988D01*
X169282138Y-100579714D01*
X169308406Y-100450000D01*
X169308406Y-99650000D01*
X169285605Y-99528821D01*
X169213988Y-99417526D01*
X169104714Y-99342862D01*
X168975000Y-99316594D01*
X168225000Y-99316594D01*
X168103821Y-99339395D01*
X167992526Y-99411012D01*
X167917862Y-99520286D01*
X167899066Y-99613104D01*
X167802027Y-99632406D01*
X167778689Y-99648000D01*
X167434728Y-99648000D01*
X167355631Y-99568765D01*
X167125265Y-99473109D01*
X166875829Y-99472891D01*
X166645297Y-99568145D01*
X166468765Y-99744369D01*
X166373109Y-99974735D01*
X166372891Y-100224171D01*
X148315053Y-100224171D01*
X148919612Y-99619612D01*
X149017594Y-99472973D01*
X149017610Y-99472891D01*
X149052000Y-99300000D01*
X149052000Y-94824171D01*
X152472891Y-94824171D01*
X152568145Y-95054703D01*
X152744369Y-95231235D01*
X152974735Y-95326891D01*
X153224171Y-95327109D01*
X153454703Y-95231855D01*
X153631235Y-95055631D01*
X153726891Y-94825265D01*
X153727109Y-94575829D01*
X153708480Y-94530744D01*
X153987225Y-94252000D01*
X154261252Y-94252000D01*
X154193765Y-94319369D01*
X154098109Y-94549735D01*
X154097891Y-94799171D01*
X154193145Y-95029703D01*
X154369369Y-95206235D01*
X154599735Y-95301891D01*
X154849171Y-95302109D01*
X155079703Y-95206855D01*
X155159698Y-95127000D01*
X156191594Y-95127000D01*
X156191594Y-95550000D01*
X156211101Y-95653673D01*
X156191594Y-95750000D01*
X156191594Y-96200000D01*
X156211101Y-96303673D01*
X156191594Y-96400000D01*
X156191594Y-96850000D01*
X156211101Y-96953673D01*
X156191594Y-97050000D01*
X156191594Y-97500000D01*
X156211101Y-97603673D01*
X156191594Y-97700000D01*
X156191594Y-98150000D01*
X156211101Y-98253673D01*
X156191594Y-98350000D01*
X156191594Y-98800000D01*
X156211101Y-98903673D01*
X156191594Y-99000000D01*
X156191594Y-99450000D01*
X156214395Y-99571179D01*
X156286012Y-99682474D01*
X156395286Y-99757138D01*
X156525000Y-99783406D01*
X158275000Y-99783406D01*
X158396179Y-99760605D01*
X158507474Y-99688988D01*
X158582138Y-99579714D01*
X158608406Y-99450000D01*
X158608406Y-99000000D01*
X158588899Y-98896327D01*
X158608406Y-98800000D01*
X158608406Y-98350000D01*
X158588899Y-98246327D01*
X158608406Y-98150000D01*
X158608406Y-97700000D01*
X158588899Y-97596327D01*
X158608406Y-97500000D01*
X158608406Y-97050000D01*
X158588899Y-96946327D01*
X158608406Y-96850000D01*
X158608406Y-96400000D01*
X158588899Y-96296327D01*
X158608406Y-96200000D01*
X158608406Y-95750000D01*
X158588899Y-95646327D01*
X158608406Y-95550000D01*
X158608406Y-95100000D01*
X158588899Y-94996327D01*
X158608406Y-94900000D01*
X158608406Y-94450000D01*
X158588899Y-94346327D01*
X158608406Y-94250000D01*
X158608406Y-93800000D01*
X158588899Y-93696327D01*
X158608406Y-93600000D01*
X158608406Y-93499218D01*
X158634698Y-93488327D01*
X158813327Y-93309699D01*
X158910000Y-93076310D01*
X158910000Y-92996250D01*
X158751250Y-92837500D01*
X158378236Y-92837500D01*
X158275000Y-92816594D01*
X156525000Y-92816594D01*
X156413892Y-92837500D01*
X156048750Y-92837500D01*
X155890000Y-92996250D01*
X155890000Y-93076310D01*
X155903024Y-93107752D01*
X155662776Y-93348000D01*
X153800000Y-93348000D01*
X153664260Y-93375000D01*
X153627026Y-93382406D01*
X153480387Y-93480388D01*
X152825960Y-94134816D01*
X152745297Y-94168145D01*
X152568765Y-94344369D01*
X152473109Y-94574735D01*
X152472891Y-94824171D01*
X149052000Y-94824171D01*
X149052000Y-92887224D01*
X150712224Y-91227000D01*
X153634365Y-91227000D01*
X153490302Y-91286673D01*
X153311673Y-91465301D01*
X153287654Y-91523287D01*
X153279714Y-91517862D01*
X153150000Y-91491594D01*
X152350000Y-91491594D01*
X152228821Y-91514395D01*
X152117526Y-91586012D01*
X152042862Y-91695286D01*
X152032187Y-91748000D01*
X151434728Y-91748000D01*
X151355631Y-91668765D01*
X151125265Y-91573109D01*
X150875829Y-91572891D01*
X150645297Y-91668145D01*
X150468765Y-91844369D01*
X150373109Y-92074735D01*
X150372891Y-92324171D01*
X150468145Y-92554703D01*
X150644369Y-92731235D01*
X150874735Y-92826891D01*
X151124171Y-92827109D01*
X151354703Y-92731855D01*
X151434698Y-92652000D01*
X152031082Y-92652000D01*
X152039395Y-92696179D01*
X152111012Y-92807474D01*
X152220286Y-92882138D01*
X152350000Y-92908406D01*
X153150000Y-92908406D01*
X153271179Y-92885605D01*
X153287095Y-92875363D01*
X153311673Y-92934699D01*
X153490302Y-93113327D01*
X153723691Y-93210000D01*
X153964250Y-93210000D01*
X154123000Y-93051250D01*
X154123000Y-92327000D01*
X154377000Y-92327000D01*
X154377000Y-93051250D01*
X154535750Y-93210000D01*
X154776309Y-93210000D01*
X155009698Y-93113327D01*
X155188327Y-92934699D01*
X155285000Y-92701310D01*
X155285000Y-92485750D01*
X155126250Y-92327000D01*
X154377000Y-92327000D01*
X154123000Y-92327000D01*
X154103000Y-92327000D01*
X154103000Y-92073000D01*
X154123000Y-92073000D01*
X154123000Y-92053000D01*
X154377000Y-92053000D01*
X154377000Y-92073000D01*
X155126250Y-92073000D01*
X155285000Y-91914250D01*
X155285000Y-91698690D01*
X155188327Y-91465301D01*
X155009698Y-91286673D01*
X154865635Y-91227000D01*
X156191594Y-91227000D01*
X156191594Y-91650000D01*
X156211101Y-91753673D01*
X156191594Y-91850000D01*
X156191594Y-91950782D01*
X156165302Y-91961673D01*
X155986673Y-92140301D01*
X155890000Y-92373690D01*
X155890000Y-92453750D01*
X156048750Y-92612500D01*
X156421764Y-92612500D01*
X156525000Y-92633406D01*
X158275000Y-92633406D01*
X158386108Y-92612500D01*
X158751250Y-92612500D01*
X158910000Y-92453750D01*
X158910000Y-92373690D01*
X158813327Y-92140301D01*
X158634698Y-91961673D01*
X158608406Y-91950782D01*
X158608406Y-91850000D01*
X158588899Y-91746327D01*
X158608406Y-91650000D01*
X158608406Y-91200000D01*
X158588899Y-91096327D01*
X158608406Y-91000000D01*
X158608406Y-90550000D01*
X158585605Y-90428821D01*
X158513988Y-90317526D01*
X158404714Y-90242862D01*
X158275000Y-90216594D01*
X156525000Y-90216594D01*
X156403821Y-90239395D01*
X156292526Y-90311012D01*
X156284335Y-90323000D01*
X150525000Y-90323000D01*
X150352027Y-90357406D01*
X150205388Y-90455388D01*
X148280388Y-92380388D01*
X148182406Y-92527027D01*
X148148000Y-92700000D01*
X148148000Y-99112776D01*
X147528683Y-99732093D01*
X147463748Y-99574937D01*
X147157674Y-99268329D01*
X146757566Y-99102189D01*
X146324335Y-99101811D01*
X145923937Y-99267252D01*
X145617329Y-99573326D01*
X145451189Y-99973434D01*
X145450811Y-100406665D01*
X131127000Y-100406665D01*
X131127000Y-99009665D01*
X142910811Y-99009665D01*
X143076252Y-99410063D01*
X143382326Y-99716671D01*
X143782434Y-99882811D01*
X144215665Y-99883189D01*
X144616063Y-99717748D01*
X144922671Y-99411674D01*
X145088811Y-99011566D01*
X145089189Y-98578335D01*
X144923748Y-98177937D01*
X144617674Y-97871329D01*
X144217566Y-97705189D01*
X143784335Y-97704811D01*
X143383937Y-97870252D01*
X143077329Y-98176326D01*
X142911189Y-98576434D01*
X142910811Y-99009665D01*
X131127000Y-99009665D01*
X131127000Y-97612665D01*
X145450811Y-97612665D01*
X145616252Y-98013063D01*
X145922326Y-98319671D01*
X146322434Y-98485811D01*
X146755665Y-98486189D01*
X147156063Y-98320748D01*
X147462671Y-98014674D01*
X147628811Y-97614566D01*
X147629189Y-97181335D01*
X147463748Y-96780937D01*
X147157674Y-96474329D01*
X146757566Y-96308189D01*
X146324335Y-96307811D01*
X145923937Y-96473252D01*
X145617329Y-96779326D01*
X145451189Y-97179434D01*
X145450811Y-97612665D01*
X131127000Y-97612665D01*
X131127000Y-96215665D01*
X142910811Y-96215665D01*
X143076252Y-96616063D01*
X143382326Y-96922671D01*
X143782434Y-97088811D01*
X144215665Y-97089189D01*
X144616063Y-96923748D01*
X144922671Y-96617674D01*
X145088811Y-96217566D01*
X145089189Y-95784335D01*
X144923748Y-95383937D01*
X144617674Y-95077329D01*
X144300594Y-94945665D01*
X145450811Y-94945665D01*
X145616252Y-95346063D01*
X145922326Y-95652671D01*
X146322434Y-95818811D01*
X146755665Y-95819189D01*
X147156063Y-95653748D01*
X147462671Y-95347674D01*
X147628811Y-94947566D01*
X147629189Y-94514335D01*
X147463748Y-94113937D01*
X147157674Y-93807329D01*
X146757566Y-93641189D01*
X146324335Y-93640811D01*
X145923937Y-93806252D01*
X145617329Y-94112326D01*
X145451189Y-94512434D01*
X145450811Y-94945665D01*
X144300594Y-94945665D01*
X144217566Y-94911189D01*
X143784335Y-94910811D01*
X143383937Y-95076252D01*
X143077329Y-95382326D01*
X142911189Y-95782434D01*
X142910811Y-96215665D01*
X131127000Y-96215665D01*
X131127000Y-93548665D01*
X142910811Y-93548665D01*
X143076252Y-93949063D01*
X143382326Y-94255671D01*
X143782434Y-94421811D01*
X144215665Y-94422189D01*
X144616063Y-94256748D01*
X144922671Y-93950674D01*
X145088811Y-93550566D01*
X145089189Y-93117335D01*
X144923748Y-92716937D01*
X144617674Y-92410329D01*
X144217566Y-92244189D01*
X143784335Y-92243811D01*
X143383937Y-92409252D01*
X143077329Y-92715326D01*
X142911189Y-93115434D01*
X142910811Y-93548665D01*
X131127000Y-93548665D01*
X131127000Y-92151665D01*
X145450811Y-92151665D01*
X145616252Y-92552063D01*
X145922326Y-92858671D01*
X146322434Y-93024811D01*
X146755665Y-93025189D01*
X147156063Y-92859748D01*
X147462671Y-92553674D01*
X147628811Y-92153566D01*
X147629189Y-91720335D01*
X147463748Y-91319937D01*
X147157674Y-91013329D01*
X146757566Y-90847189D01*
X146324335Y-90846811D01*
X145923937Y-91012252D01*
X145617329Y-91318326D01*
X145451189Y-91718434D01*
X145450811Y-92151665D01*
X131127000Y-92151665D01*
X131127000Y-91519213D01*
X143199392Y-91519213D01*
X143268857Y-91761397D01*
X143792302Y-91948144D01*
X144347368Y-91920362D01*
X144731143Y-91761397D01*
X144800608Y-91519213D01*
X144000000Y-90718605D01*
X143199392Y-91519213D01*
X131127000Y-91519213D01*
X131127000Y-90331302D01*
X142590856Y-90331302D01*
X142618638Y-90886368D01*
X142777603Y-91270143D01*
X143019787Y-91339608D01*
X143820395Y-90539000D01*
X144179605Y-90539000D01*
X144980213Y-91339608D01*
X145222397Y-91270143D01*
X145409144Y-90746698D01*
X145381362Y-90191632D01*
X145222397Y-89807857D01*
X144980213Y-89738392D01*
X144179605Y-90539000D01*
X143820395Y-90539000D01*
X143019787Y-89738392D01*
X142777603Y-89807857D01*
X142590856Y-90331302D01*
X131127000Y-90331302D01*
X131127000Y-89558787D01*
X143199392Y-89558787D01*
X144000000Y-90359395D01*
X144800608Y-89558787D01*
X144731143Y-89316603D01*
X144207698Y-89129856D01*
X143652632Y-89157638D01*
X143268857Y-89316603D01*
X143199392Y-89558787D01*
X131127000Y-89558787D01*
X131127000Y-88380000D01*
X145444594Y-88380000D01*
X145444594Y-89904000D01*
X145467395Y-90025179D01*
X145539012Y-90136474D01*
X145648286Y-90211138D01*
X145778000Y-90237406D01*
X147302000Y-90237406D01*
X147423179Y-90214605D01*
X147534474Y-90142988D01*
X147609138Y-90033714D01*
X147635406Y-89904000D01*
X147635406Y-88380000D01*
X147612605Y-88258821D01*
X147540988Y-88147526D01*
X147431714Y-88072862D01*
X147302000Y-88046594D01*
X145778000Y-88046594D01*
X145656821Y-88069395D01*
X145545526Y-88141012D01*
X145470862Y-88250286D01*
X145444594Y-88380000D01*
X131127000Y-88380000D01*
X131127000Y-82345024D01*
X141767614Y-82345024D01*
X142106700Y-83165674D01*
X142734023Y-83794094D01*
X143554080Y-84134611D01*
X144442024Y-84135386D01*
X145262674Y-83796300D01*
X145891094Y-83168977D01*
X146231611Y-82348920D01*
X146232386Y-81460976D01*
X145893300Y-80640326D01*
X145265977Y-80011906D01*
X144445920Y-79671389D01*
X143557976Y-79670614D01*
X142737326Y-80009700D01*
X142108906Y-80637023D01*
X141768389Y-81457080D01*
X141767614Y-82345024D01*
X131127000Y-82345024D01*
X131127000Y-75562540D01*
X153530249Y-75562540D01*
X153591298Y-75869452D01*
X153765149Y-76129640D01*
X154025337Y-76303491D01*
X154332249Y-76364540D01*
X154669551Y-76364540D01*
X154976463Y-76303491D01*
X155167494Y-76175849D01*
X155167494Y-76237540D01*
X155190295Y-76358719D01*
X155190374Y-76358841D01*
X154380388Y-77168828D01*
X154282406Y-77315467D01*
X154248000Y-77488440D01*
X154248000Y-77765272D01*
X154168765Y-77844369D01*
X154073109Y-78074735D01*
X154072891Y-78324171D01*
X154168145Y-78554703D01*
X154344369Y-78731235D01*
X154574735Y-78826891D01*
X154824171Y-78827109D01*
X155054703Y-78731855D01*
X155231235Y-78555631D01*
X155326891Y-78325265D01*
X155327109Y-78075829D01*
X155231855Y-77845297D01*
X155152000Y-77765302D01*
X155152000Y-77675664D01*
X156020512Y-76807153D01*
X156118494Y-76660513D01*
X156135495Y-76575040D01*
X156136875Y-76568106D01*
X156150900Y-76570946D01*
X156550900Y-76570946D01*
X156573900Y-76566618D01*
X156573900Y-76575035D01*
X156573899Y-76575040D01*
X156606403Y-76738446D01*
X156698900Y-76876878D01*
X156698900Y-84408737D01*
X156698899Y-84408742D01*
X156731403Y-84572148D01*
X156823965Y-84710677D01*
X160373000Y-88259712D01*
X160373000Y-98082837D01*
X160372999Y-98082842D01*
X160405503Y-98246248D01*
X160498065Y-98384777D01*
X161515221Y-99401932D01*
X161515223Y-99401935D01*
X161621539Y-99472973D01*
X161653752Y-99494497D01*
X161817158Y-99527001D01*
X161817163Y-99527000D01*
X162985662Y-99527000D01*
X163124094Y-99619497D01*
X163287500Y-99652001D01*
X163287505Y-99652000D01*
X163466402Y-99652000D01*
X163486012Y-99682474D01*
X163595286Y-99757138D01*
X163725000Y-99783406D01*
X165475000Y-99783406D01*
X165596179Y-99760605D01*
X165707474Y-99688988D01*
X165782138Y-99579714D01*
X165808406Y-99450000D01*
X165808406Y-99000000D01*
X165788899Y-98896327D01*
X165808406Y-98800000D01*
X165808406Y-98377000D01*
X165837776Y-98377000D01*
X166330387Y-98869612D01*
X166477026Y-98967594D01*
X166505724Y-98973302D01*
X166650000Y-99002000D01*
X167901378Y-99002000D01*
X167914395Y-99071179D01*
X167986012Y-99182474D01*
X168095286Y-99257138D01*
X168225000Y-99283406D01*
X168975000Y-99283406D01*
X169096179Y-99260605D01*
X169207474Y-99188988D01*
X169282138Y-99079714D01*
X169308406Y-98950000D01*
X169308406Y-98150000D01*
X169285605Y-98028821D01*
X169213988Y-97917526D01*
X169166305Y-97884945D01*
X169325000Y-97726250D01*
X169325000Y-96927000D01*
X169575000Y-96927000D01*
X169575000Y-97726250D01*
X169733750Y-97885000D01*
X169826309Y-97885000D01*
X170059698Y-97788327D01*
X170238327Y-97609699D01*
X170335000Y-97376310D01*
X170335000Y-97085750D01*
X170176250Y-96927000D01*
X169575000Y-96927000D01*
X169325000Y-96927000D01*
X168723750Y-96927000D01*
X168565000Y-97085750D01*
X168565000Y-97376310D01*
X168661673Y-97609699D01*
X168840302Y-97788327D01*
X168908544Y-97816594D01*
X168225000Y-97816594D01*
X168103821Y-97839395D01*
X167992526Y-97911012D01*
X167917862Y-98020286D01*
X167902124Y-98098000D01*
X166837225Y-98098000D01*
X166344612Y-97605388D01*
X166197973Y-97507406D01*
X166025000Y-97473000D01*
X165808406Y-97473000D01*
X165808406Y-97077000D01*
X167087775Y-97077000D01*
X167130387Y-97119612D01*
X167277027Y-97217594D01*
X167366594Y-97235410D01*
X167366594Y-97250000D01*
X167389395Y-97371179D01*
X167461012Y-97482474D01*
X167570286Y-97557138D01*
X167700000Y-97583406D01*
X168200000Y-97583406D01*
X168321179Y-97560605D01*
X168432474Y-97488988D01*
X168507138Y-97379714D01*
X168533406Y-97250000D01*
X168533406Y-96350000D01*
X168510605Y-96228821D01*
X168507304Y-96223690D01*
X168565000Y-96223690D01*
X168565000Y-96514250D01*
X168723750Y-96673000D01*
X169325000Y-96673000D01*
X169325000Y-95873750D01*
X169166250Y-95715000D01*
X169073691Y-95715000D01*
X168840302Y-95811673D01*
X168661673Y-95990301D01*
X168565000Y-96223690D01*
X168507304Y-96223690D01*
X168438988Y-96117526D01*
X168329714Y-96042862D01*
X168200000Y-96016594D01*
X167700000Y-96016594D01*
X167578821Y-96039395D01*
X167467526Y-96111012D01*
X167407204Y-96199297D01*
X167275000Y-96173000D01*
X166036750Y-96173000D01*
X165951250Y-96087500D01*
X165578236Y-96087500D01*
X165475000Y-96066594D01*
X163725000Y-96066594D01*
X163613892Y-96087500D01*
X163248750Y-96087500D01*
X163090000Y-96246250D01*
X163090000Y-96326310D01*
X163186673Y-96559699D01*
X163365302Y-96738327D01*
X163391594Y-96749218D01*
X163391594Y-96823000D01*
X163026893Y-96823000D01*
X163027109Y-96575829D01*
X162931855Y-96345297D01*
X162755631Y-96168765D01*
X162525265Y-96073109D01*
X162275829Y-96072891D01*
X162045297Y-96168145D01*
X161868765Y-96344369D01*
X161773109Y-96574735D01*
X161772891Y-96824171D01*
X161868145Y-97054703D01*
X161956619Y-97143332D01*
X161982406Y-97272973D01*
X162080388Y-97419612D01*
X162255387Y-97594612D01*
X162395668Y-97688345D01*
X162402027Y-97692594D01*
X162575000Y-97727000D01*
X163391594Y-97727000D01*
X163391594Y-98148000D01*
X163287505Y-98148000D01*
X163287500Y-98147999D01*
X163136994Y-98177937D01*
X163124094Y-98180503D01*
X162985662Y-98273000D01*
X162159711Y-98273000D01*
X161627000Y-97740288D01*
X161627000Y-95623690D01*
X163090000Y-95623690D01*
X163090000Y-95703750D01*
X163248750Y-95862500D01*
X163621764Y-95862500D01*
X163725000Y-95883406D01*
X165475000Y-95883406D01*
X165586108Y-95862500D01*
X165951250Y-95862500D01*
X166036750Y-95777000D01*
X166375000Y-95777000D01*
X166547973Y-95742594D01*
X166694612Y-95644612D01*
X166812213Y-95527011D01*
X166924171Y-95527109D01*
X167154703Y-95431855D01*
X167237294Y-95349408D01*
X167397237Y-95317594D01*
X167495404Y-95252000D01*
X168031082Y-95252000D01*
X168039395Y-95296179D01*
X168111012Y-95407474D01*
X168220286Y-95482138D01*
X168350000Y-95508406D01*
X169150000Y-95508406D01*
X169271179Y-95485605D01*
X169287095Y-95475363D01*
X169311673Y-95534699D01*
X169490302Y-95713327D01*
X169663629Y-95785121D01*
X169575000Y-95873750D01*
X169575000Y-96673000D01*
X170176250Y-96673000D01*
X170335000Y-96514250D01*
X170335000Y-96223690D01*
X170238327Y-95990301D01*
X170059698Y-95811673D01*
X169991023Y-95783227D01*
X170123000Y-95651250D01*
X170123000Y-94927000D01*
X170377000Y-94927000D01*
X170377000Y-95651250D01*
X170535750Y-95810000D01*
X170776309Y-95810000D01*
X171009698Y-95713327D01*
X171188327Y-95534699D01*
X171285000Y-95301310D01*
X171285000Y-95085750D01*
X171126250Y-94927000D01*
X170377000Y-94927000D01*
X170123000Y-94927000D01*
X170103000Y-94927000D01*
X170103000Y-94673000D01*
X170123000Y-94673000D01*
X170123000Y-93948750D01*
X170377000Y-93948750D01*
X170377000Y-94673000D01*
X171126250Y-94673000D01*
X171285000Y-94514250D01*
X171285000Y-94298690D01*
X171188327Y-94065301D01*
X171009698Y-93886673D01*
X170776309Y-93790000D01*
X170535750Y-93790000D01*
X170377000Y-93948750D01*
X170123000Y-93948750D01*
X169964250Y-93790000D01*
X169723691Y-93790000D01*
X169490302Y-93886673D01*
X169311673Y-94065301D01*
X169287654Y-94123287D01*
X169279714Y-94117862D01*
X169150000Y-94091594D01*
X168350000Y-94091594D01*
X168228821Y-94114395D01*
X168117526Y-94186012D01*
X168042862Y-94295286D01*
X168032187Y-94348000D01*
X167324264Y-94348000D01*
X167166273Y-94379426D01*
X167155631Y-94368765D01*
X166925265Y-94273109D01*
X166675829Y-94272891D01*
X166445297Y-94368145D01*
X166268765Y-94544369D01*
X166173109Y-94774735D01*
X166173023Y-94873000D01*
X165808406Y-94873000D01*
X165808406Y-94450000D01*
X165788899Y-94346327D01*
X165808406Y-94250000D01*
X165808406Y-93800000D01*
X165788899Y-93696327D01*
X165808406Y-93600000D01*
X165808406Y-93177000D01*
X166340272Y-93177000D01*
X166419369Y-93256235D01*
X166649735Y-93351891D01*
X166899171Y-93352109D01*
X167129703Y-93256855D01*
X167306235Y-93080631D01*
X167401891Y-92850265D01*
X167402109Y-92600829D01*
X167306855Y-92370297D01*
X167130631Y-92193765D01*
X166900265Y-92098109D01*
X166650829Y-92097891D01*
X166420297Y-92193145D01*
X166340302Y-92273000D01*
X165808406Y-92273000D01*
X165808406Y-91850000D01*
X165788899Y-91746327D01*
X165808406Y-91650000D01*
X165808406Y-91200000D01*
X165788899Y-91096327D01*
X165808406Y-91000000D01*
X165808406Y-90550000D01*
X165785605Y-90428821D01*
X165713988Y-90317526D01*
X165604714Y-90242862D01*
X165475000Y-90216594D01*
X163725000Y-90216594D01*
X163603821Y-90239395D01*
X163492526Y-90311012D01*
X163417862Y-90420286D01*
X163391594Y-90550000D01*
X163391594Y-91000000D01*
X163411101Y-91103673D01*
X163391594Y-91200000D01*
X163391594Y-91650000D01*
X163411101Y-91753673D01*
X163391594Y-91850000D01*
X163391594Y-92300000D01*
X163411101Y-92403673D01*
X163391594Y-92500000D01*
X163391594Y-92950000D01*
X163411101Y-93053673D01*
X163391594Y-93150000D01*
X163391594Y-93600000D01*
X163411101Y-93703673D01*
X163391594Y-93800000D01*
X163391594Y-94250000D01*
X163411101Y-94353673D01*
X163391594Y-94450000D01*
X163391594Y-94900000D01*
X163411101Y-95003673D01*
X163391594Y-95100000D01*
X163391594Y-95200782D01*
X163365302Y-95211673D01*
X163186673Y-95390301D01*
X163090000Y-95623690D01*
X161627000Y-95623690D01*
X161627000Y-87917163D01*
X161627001Y-87917158D01*
X161594497Y-87753752D01*
X161501935Y-87615223D01*
X157952900Y-84066188D01*
X157952900Y-83285750D01*
X159740000Y-83285750D01*
X159740000Y-83626309D01*
X159836673Y-83859698D01*
X160015301Y-84038327D01*
X160248690Y-84135000D01*
X160714250Y-84135000D01*
X160873000Y-83976250D01*
X160873000Y-83127000D01*
X161127000Y-83127000D01*
X161127000Y-83976250D01*
X161285750Y-84135000D01*
X161751310Y-84135000D01*
X161984699Y-84038327D01*
X162163327Y-83859698D01*
X162260000Y-83626309D01*
X162260000Y-83285750D01*
X162101250Y-83127000D01*
X161127000Y-83127000D01*
X160873000Y-83127000D01*
X159898750Y-83127000D01*
X159740000Y-83285750D01*
X157952900Y-83285750D01*
X157952900Y-82373691D01*
X159740000Y-82373691D01*
X159740000Y-82714250D01*
X159898750Y-82873000D01*
X160873000Y-82873000D01*
X160873000Y-82023750D01*
X161127000Y-82023750D01*
X161127000Y-82873000D01*
X162101250Y-82873000D01*
X162260000Y-82714250D01*
X162260000Y-82373691D01*
X162163327Y-82140302D01*
X161984699Y-81961673D01*
X161751310Y-81865000D01*
X161285750Y-81865000D01*
X161127000Y-82023750D01*
X160873000Y-82023750D01*
X160714250Y-81865000D01*
X160248690Y-81865000D01*
X160015301Y-81961673D01*
X159836673Y-82140302D01*
X159740000Y-82373691D01*
X157952900Y-82373691D01*
X157952900Y-77378027D01*
X157981288Y-77420512D01*
X158880387Y-78319612D01*
X158970336Y-78379714D01*
X159027027Y-78417594D01*
X159200000Y-78452000D01*
X160891402Y-78452000D01*
X160911012Y-78482474D01*
X160998000Y-78541911D01*
X160998000Y-78962776D01*
X160680388Y-79280388D01*
X160582406Y-79427027D01*
X160548000Y-79600000D01*
X160548000Y-80166594D01*
X160375000Y-80166594D01*
X160253821Y-80189395D01*
X160142526Y-80261012D01*
X160067862Y-80370286D01*
X160041594Y-80500000D01*
X160041594Y-81500000D01*
X160064395Y-81621179D01*
X160136012Y-81732474D01*
X160245286Y-81807138D01*
X160375000Y-81833406D01*
X161625000Y-81833406D01*
X161746179Y-81810605D01*
X161857474Y-81738988D01*
X161932138Y-81629714D01*
X161958406Y-81500000D01*
X161958406Y-80500000D01*
X161935605Y-80378821D01*
X161863988Y-80267526D01*
X161754714Y-80192862D01*
X161625000Y-80166594D01*
X161452000Y-80166594D01*
X161452000Y-79787224D01*
X161769612Y-79469612D01*
X161867594Y-79322973D01*
X161902000Y-79150000D01*
X161902000Y-78540772D01*
X161982474Y-78488988D01*
X161999330Y-78464319D01*
X162011012Y-78482474D01*
X162120286Y-78557138D01*
X162250000Y-78583406D01*
X162850000Y-78583406D01*
X162971179Y-78560605D01*
X163082474Y-78488988D01*
X163107747Y-78452000D01*
X163765272Y-78452000D01*
X163844369Y-78531235D01*
X164074735Y-78626891D01*
X164324171Y-78627109D01*
X164554703Y-78531855D01*
X164731235Y-78355631D01*
X164826891Y-78125265D01*
X164827109Y-77875829D01*
X164731855Y-77645297D01*
X164555631Y-77468765D01*
X164325265Y-77373109D01*
X164075829Y-77372891D01*
X163845297Y-77468145D01*
X163765302Y-77548000D01*
X163108598Y-77548000D01*
X163088988Y-77517526D01*
X162979714Y-77442862D01*
X162850000Y-77416594D01*
X162250000Y-77416594D01*
X162128821Y-77439395D01*
X162017526Y-77511012D01*
X162000670Y-77535681D01*
X161988988Y-77517526D01*
X161879714Y-77442862D01*
X161750000Y-77416594D01*
X161150000Y-77416594D01*
X161028821Y-77439395D01*
X160917526Y-77511012D01*
X160892253Y-77548000D01*
X159387225Y-77548000D01*
X158752900Y-76913676D01*
X158752900Y-76447951D01*
X158808038Y-76367254D01*
X158834306Y-76237540D01*
X158834306Y-76175849D01*
X159025337Y-76303491D01*
X159332249Y-76364540D01*
X159669551Y-76364540D01*
X159976463Y-76303491D01*
X160236651Y-76129640D01*
X160410502Y-75869452D01*
X160471551Y-75562540D01*
X160410502Y-75255628D01*
X160236651Y-74995440D01*
X159976463Y-74821589D01*
X159669551Y-74760540D01*
X159332249Y-74760540D01*
X159025337Y-74821589D01*
X158834306Y-74949231D01*
X158834306Y-74887540D01*
X158811505Y-74766361D01*
X158739888Y-74655066D01*
X158630614Y-74580402D01*
X158500900Y-74554134D01*
X158100900Y-74554134D01*
X157979721Y-74576935D01*
X157975837Y-74579435D01*
X157850900Y-74554134D01*
X157450900Y-74554134D01*
X157329721Y-74576935D01*
X157325837Y-74579435D01*
X157200900Y-74554134D01*
X156800900Y-74554134D01*
X156679721Y-74576935D01*
X156675837Y-74579435D01*
X156550900Y-74554134D01*
X156150900Y-74554134D01*
X156029721Y-74576935D01*
X156025837Y-74579435D01*
X155900900Y-74554134D01*
X155500900Y-74554134D01*
X155379721Y-74576935D01*
X155268426Y-74648552D01*
X155193762Y-74757826D01*
X155167494Y-74887540D01*
X155167494Y-74949231D01*
X154976463Y-74821589D01*
X154669551Y-74760540D01*
X154332249Y-74760540D01*
X154025337Y-74821589D01*
X153765149Y-74995440D01*
X153591298Y-75255628D01*
X153530249Y-75562540D01*
X131127000Y-75562540D01*
X131127000Y-72565951D01*
X152673900Y-72565951D01*
X152673900Y-73159129D01*
X152736852Y-73475608D01*
X152916123Y-73743906D01*
X153184421Y-73923177D01*
X153500900Y-73986129D01*
X153817379Y-73923177D01*
X154085677Y-73743906D01*
X154264948Y-73475608D01*
X154327900Y-73159129D01*
X154327900Y-72565951D01*
X159673900Y-72565951D01*
X159673900Y-73159129D01*
X159736852Y-73475608D01*
X159916123Y-73743906D01*
X160184421Y-73923177D01*
X160500900Y-73986129D01*
X160817379Y-73923177D01*
X161085677Y-73743906D01*
X161264948Y-73475608D01*
X161327900Y-73159129D01*
X161327900Y-72565951D01*
X161264948Y-72249472D01*
X161085677Y-71981174D01*
X160817379Y-71801903D01*
X160500900Y-71738951D01*
X160184421Y-71801903D01*
X159916123Y-71981174D01*
X159736852Y-72249472D01*
X159673900Y-72565951D01*
X154327900Y-72565951D01*
X154264948Y-72249472D01*
X154085677Y-71981174D01*
X153817379Y-71801903D01*
X153500900Y-71738951D01*
X153184421Y-71801903D01*
X152916123Y-71981174D01*
X152736852Y-72249472D01*
X152673900Y-72565951D01*
X131127000Y-72565951D01*
X131127000Y-71127000D01*
X178873000Y-71127000D01*
X178873000Y-118873000D01*
M02*
