G04 #@! TF.FileFunction,Copper,L1,Top,Signal*
%FSLAX46Y46*%
G04 Gerber Fmt 4.6, Leading zero omitted, Abs format (unit mm)*
G04 Created by KiCad (PCBNEW 4.0.5) date Mon Feb 27 06:48:06 2017*
%MOMM*%
%LPD*%
G01*
G04 APERTURE LIST*
%ADD10C,0.100000*%
%ADD11R,0.500000X0.600000*%
%ADD12R,0.600000X0.500000*%
%ADD13R,0.800000X0.750000*%
%ADD14R,1.250000X1.500000*%
%ADD15R,1.500000X1.250000*%
%ADD16R,1.600000X1.000000*%
%ADD17R,0.550000X0.300000*%
%ADD18R,0.300000X0.550000*%
%ADD19R,1.600000X0.550000*%
%ADD20R,0.550000X1.600000*%
%ADD21R,2.032000X1.727200*%
%ADD22O,2.032000X1.727200*%
%ADD23R,0.400000X1.350000*%
%ADD24O,1.250000X0.950000*%
%ADD25O,1.000000X1.550000*%
%ADD26R,1.727200X1.727200*%
%ADD27O,1.727200X1.727200*%
%ADD28R,1.500000X2.000000*%
%ADD29R,3.800000X2.000000*%
%ADD30R,2.000000X1.500000*%
%ADD31R,2.000000X3.800000*%
%ADD32R,0.400000X0.600000*%
%ADD33R,0.900000X0.500000*%
%ADD34R,0.500000X0.900000*%
%ADD35R,1.700000X0.350000*%
%ADD36R,0.250000X0.450000*%
%ADD37R,0.450000X0.250000*%
%ADD38R,6.100000X6.300000*%
%ADD39R,2.800000X1.500000*%
%ADD40R,0.600000X1.100000*%
%ADD41C,1.524000*%
%ADD42C,1.501140*%
%ADD43C,4.000000*%
%ADD44R,0.797560X0.797560*%
%ADD45R,0.700000X1.000000*%
%ADD46C,0.600000*%
%ADD47C,0.250000*%
%ADD48C,0.160000*%
%ADD49C,0.350000*%
%ADD50C,0.500000*%
%ADD51C,0.300000*%
%ADD52C,0.254000*%
G04 APERTURE END LIST*
D10*
D11*
X118600000Y-60300000D03*
X118600000Y-61400000D03*
D12*
X130600000Y-62000000D03*
X131700000Y-62000000D03*
D11*
X131450000Y-60900000D03*
X131450000Y-59800000D03*
D12*
X125300000Y-51750000D03*
X126400000Y-51750000D03*
D11*
X129800000Y-33900000D03*
X129800000Y-32800000D03*
D13*
X120250000Y-36700000D03*
X118750000Y-36700000D03*
X127550000Y-36700000D03*
X129050000Y-36700000D03*
D12*
X129650000Y-43000000D03*
X130750000Y-43000000D03*
D11*
X116900000Y-42650000D03*
X116900000Y-41550000D03*
D12*
X129850000Y-44700000D03*
X130950000Y-44700000D03*
X129850000Y-46100000D03*
X130950000Y-46100000D03*
D14*
X134350000Y-41850000D03*
X134350000Y-44350000D03*
D11*
X140350000Y-38750000D03*
X140350000Y-37650000D03*
D12*
X137550000Y-64000000D03*
X138650000Y-64000000D03*
X137150000Y-60600000D03*
X138250000Y-60600000D03*
D15*
X133475000Y-70425000D03*
X130975000Y-70425000D03*
D14*
X127700000Y-80600000D03*
X127700000Y-83100000D03*
D16*
X106600000Y-55800000D03*
X106600000Y-58800000D03*
X107350000Y-60850000D03*
X107350000Y-63850000D03*
X106500000Y-68750000D03*
X106500000Y-71750000D03*
X107400000Y-73450000D03*
X107400000Y-76450000D03*
D17*
X135100000Y-38925000D03*
X135100000Y-38275000D03*
D18*
X142175000Y-45700000D03*
X142825000Y-45700000D03*
D19*
X120450000Y-57900000D03*
X120450000Y-58700000D03*
X120450000Y-59500000D03*
X120450000Y-60300000D03*
X120450000Y-61100000D03*
X120450000Y-61900000D03*
X120450000Y-62700000D03*
X120450000Y-63500000D03*
D20*
X121900000Y-64950000D03*
X122700000Y-64950000D03*
X123500000Y-64950000D03*
X124300000Y-64950000D03*
X125100000Y-64950000D03*
X125900000Y-64950000D03*
X126700000Y-64950000D03*
X127500000Y-64950000D03*
D19*
X128950000Y-63500000D03*
X128950000Y-62700000D03*
X128950000Y-61900000D03*
X128950000Y-61100000D03*
X128950000Y-60300000D03*
X128950000Y-59500000D03*
X128950000Y-58700000D03*
X128950000Y-57900000D03*
D20*
X127500000Y-56450000D03*
X126700000Y-56450000D03*
X125900000Y-56450000D03*
X125100000Y-56450000D03*
X124300000Y-56450000D03*
X123500000Y-56450000D03*
X122700000Y-56450000D03*
X121900000Y-56450000D03*
D14*
X132300000Y-38250000D03*
X132300000Y-35750000D03*
D21*
X104000000Y-78740000D03*
D22*
X104000000Y-76200000D03*
X104000000Y-73660000D03*
X104000000Y-71120000D03*
X104000000Y-68580000D03*
X104000000Y-66040000D03*
X104000000Y-63500000D03*
X104000000Y-60960000D03*
X104000000Y-58420000D03*
X104000000Y-55880000D03*
X104000000Y-53340000D03*
X104000000Y-50800000D03*
X104000000Y-48260000D03*
X104000000Y-45720000D03*
X104000000Y-43180000D03*
X104000000Y-40640000D03*
X104000000Y-38100000D03*
X104000000Y-35560000D03*
D21*
X108300000Y-37860000D03*
D22*
X108300000Y-40400000D03*
X108300000Y-42940000D03*
D23*
X125000900Y-32962540D03*
X124350900Y-32962540D03*
X123700900Y-32962540D03*
X123050900Y-32962540D03*
X122400900Y-32962540D03*
D24*
X126200900Y-32962540D03*
X121200900Y-32962540D03*
D25*
X127200900Y-30262540D03*
X120200900Y-30262540D03*
D21*
X113600000Y-37860000D03*
D22*
X113600000Y-40400000D03*
X113600000Y-42940000D03*
D21*
X146900000Y-35560000D03*
D22*
X146900000Y-38100000D03*
X146900000Y-40640000D03*
X146900000Y-43180000D03*
X146900000Y-45720000D03*
X146900000Y-48260000D03*
X146900000Y-50800000D03*
X146900000Y-53340000D03*
X146900000Y-55880000D03*
X146900000Y-58420000D03*
X146900000Y-60960000D03*
X146900000Y-63500000D03*
X146900000Y-66040000D03*
X146900000Y-68580000D03*
X146900000Y-71120000D03*
X146900000Y-73660000D03*
X146900000Y-76200000D03*
X146900000Y-78740000D03*
X146900000Y-81280000D03*
X146900000Y-83820000D03*
X146900000Y-86360000D03*
D21*
X112900000Y-47800000D03*
D22*
X112900000Y-50340000D03*
X112900000Y-52880000D03*
D21*
X116500000Y-47820000D03*
D22*
X116500000Y-50360000D03*
X116500000Y-52900000D03*
D26*
X136940000Y-49600000D03*
D27*
X136940000Y-52140000D03*
X134400000Y-49600000D03*
X134400000Y-52140000D03*
X131860000Y-49600000D03*
X131860000Y-52140000D03*
D28*
X112300000Y-80000000D03*
X110000000Y-80000000D03*
X107700000Y-80000000D03*
D29*
X110000000Y-86300000D03*
D30*
X122400000Y-77600000D03*
X122400000Y-75300000D03*
X122400000Y-73000000D03*
D31*
X116100000Y-75300000D03*
D32*
X126950000Y-68300000D03*
X126050000Y-68300000D03*
D33*
X125300000Y-38150000D03*
X125300000Y-36650000D03*
D34*
X135250000Y-81000000D03*
X136750000Y-81000000D03*
D33*
X122800000Y-38150000D03*
X122800000Y-36650000D03*
D34*
X132750000Y-81000000D03*
X131250000Y-81000000D03*
D33*
X128100000Y-51000000D03*
X128100000Y-52500000D03*
D35*
X121400000Y-41342500D03*
X121400000Y-41977500D03*
X121400000Y-42612500D03*
X121400000Y-43247500D03*
X121400000Y-43882500D03*
X121400000Y-44517500D03*
X121400000Y-45152500D03*
X121400000Y-45787500D03*
X121400000Y-46422500D03*
X121400000Y-47057500D03*
X126800000Y-47057500D03*
X126800000Y-46422500D03*
X126800000Y-45787500D03*
X126800000Y-45152500D03*
X126800000Y-44517500D03*
X126800000Y-43882500D03*
X126800000Y-43247500D03*
X126800000Y-42612500D03*
X126800000Y-41977500D03*
X126800000Y-41342500D03*
D36*
X134150000Y-64675000D03*
X134650000Y-64675000D03*
X135150000Y-64675000D03*
X135650000Y-64675000D03*
D37*
X135825000Y-64000000D03*
X135825000Y-63500000D03*
X135825000Y-63000000D03*
D36*
X135650000Y-62325000D03*
X135150000Y-62325000D03*
X134650000Y-62325000D03*
X134150000Y-62325000D03*
D37*
X133975000Y-63000000D03*
X133975000Y-63500000D03*
X133975000Y-64000000D03*
D38*
X130500000Y-75250000D03*
D39*
X136750000Y-77536000D03*
X136750000Y-72964000D03*
D40*
X112650000Y-72350000D03*
X111700000Y-72350000D03*
X110750000Y-72350000D03*
X110750000Y-75050000D03*
X111700000Y-75050000D03*
X112650000Y-75050000D03*
X121450000Y-84950000D03*
X122400000Y-84950000D03*
X123350000Y-84950000D03*
X123350000Y-82250000D03*
X122400000Y-82250000D03*
X121450000Y-82250000D03*
D41*
X118900000Y-39300000D03*
X133000000Y-59800000D03*
X135200000Y-59800000D03*
X138500000Y-67000000D03*
D42*
X115100000Y-65640940D03*
X115100000Y-60759060D03*
D43*
X102500000Y-30000000D03*
X145000000Y-30000000D03*
X140000000Y-90000000D03*
X102500000Y-90000000D03*
D14*
X136700000Y-36200000D03*
X136700000Y-33700000D03*
D44*
X116899300Y-70850000D03*
X115400700Y-70850000D03*
D32*
X118700000Y-70850000D03*
X119600000Y-70850000D03*
D45*
X136700000Y-40700000D03*
X137650000Y-40700000D03*
X138600000Y-40700000D03*
X138600000Y-38300000D03*
X136700000Y-38300000D03*
D46*
X138250000Y-36200000D03*
X124900000Y-73200000D03*
X127050000Y-63050000D03*
X122750000Y-60300000D03*
X128100000Y-49850000D03*
X137050000Y-65700000D03*
X137600000Y-65100000D03*
X137150000Y-61450000D03*
X134100001Y-60418585D03*
X139550000Y-36800000D03*
X136700000Y-32000000D03*
X115100000Y-69800000D03*
X137650000Y-42050000D03*
X134350000Y-45700000D03*
X122000000Y-34750000D03*
X110950000Y-78350000D03*
X113550000Y-73350000D03*
X113550000Y-74000000D03*
X109650000Y-75350000D03*
X109650000Y-73650000D03*
X109650000Y-74550000D03*
X110000000Y-62800000D03*
X110000000Y-61450000D03*
X110000000Y-62100000D03*
X111059696Y-70795334D03*
X110374990Y-66622506D03*
X111705833Y-70974990D03*
X109600000Y-66950000D03*
X117500000Y-79700000D03*
X125500000Y-78400000D03*
X114600000Y-83100000D03*
X108903284Y-78575011D03*
X101650000Y-85250000D03*
X112799998Y-84350000D03*
X111315469Y-82525022D03*
X102750000Y-83000000D03*
X131250000Y-83500000D03*
X133750000Y-80000000D03*
X130225000Y-83525000D03*
X129150000Y-70775000D03*
X133023710Y-61733872D03*
X130700000Y-59800000D03*
X117650000Y-61400000D03*
X122000000Y-61100000D03*
X137150000Y-62450000D03*
X137141535Y-63261905D03*
X135252803Y-65636702D03*
X116300000Y-57300000D03*
X135700000Y-45700000D03*
X127500000Y-60300000D03*
X123350000Y-86450000D03*
X122400000Y-86500000D03*
X117000000Y-64300000D03*
X139200000Y-60600000D03*
X139600000Y-64000000D03*
X134400000Y-65600000D03*
X119982500Y-44517500D03*
X125300000Y-43900000D03*
X116900000Y-40200000D03*
X132000000Y-46100000D03*
X132000000Y-44700000D03*
X131800000Y-43000000D03*
X130900000Y-32800000D03*
X130200000Y-36700000D03*
X117300000Y-36700000D03*
X130400000Y-61100000D03*
X124100000Y-51750000D03*
X118250000Y-41750000D03*
X139700000Y-74700000D03*
X139700000Y-72950000D03*
X139700000Y-71000000D03*
X106449999Y-79103991D03*
X107950000Y-69250000D03*
X107050000Y-66250000D03*
X106100000Y-80750000D03*
X136750000Y-71000000D03*
X112450000Y-69350000D03*
X111400000Y-69350000D03*
X113250000Y-58000000D03*
X112450000Y-58150000D03*
X113100000Y-58800000D03*
X113250000Y-86775010D03*
X107000000Y-86750000D03*
X124850000Y-82450000D03*
X122800000Y-57900000D03*
X117300000Y-78100000D03*
X110474361Y-58024981D03*
X115702707Y-82125010D03*
X142748101Y-60741381D03*
X130060859Y-56378372D03*
X126700000Y-58100000D03*
X141971565Y-59428435D03*
X129349431Y-56012463D03*
X124900000Y-58500000D03*
X120200000Y-82250000D03*
X121900000Y-62525010D03*
X113049989Y-82050000D03*
X122700000Y-63150000D03*
X107800000Y-47900000D03*
X107850000Y-53300000D03*
X125100000Y-62700000D03*
X114600000Y-81050000D03*
X112400000Y-55600000D03*
X131875010Y-66125010D03*
X132300000Y-62800000D03*
X128500000Y-68700000D03*
X135250000Y-67750000D03*
X130425048Y-66108562D03*
X130500000Y-64300000D03*
X128400000Y-65600000D03*
X134750000Y-67000000D03*
X122850000Y-69950000D03*
X120500000Y-71700000D03*
X128950000Y-64450000D03*
X126800000Y-61900000D03*
X137450000Y-58550000D03*
X127270191Y-48325010D03*
X128300000Y-41300000D03*
X122650000Y-49200000D03*
X110795741Y-55547358D03*
X117113593Y-82125010D03*
X113300000Y-78150000D03*
X111700000Y-76100000D03*
X110450002Y-68450000D03*
X110250000Y-64400000D03*
X126150000Y-76850000D03*
X126300000Y-82450000D03*
X109843652Y-69451587D03*
X109750000Y-65400000D03*
X105750000Y-64850000D03*
X109150000Y-70850000D03*
X106800000Y-83050000D03*
X108550000Y-81800000D03*
X119228760Y-77974990D03*
X109150000Y-69950000D03*
X106410859Y-65592403D03*
X122150000Y-80150000D03*
X113800000Y-79750000D03*
X111350000Y-83700000D03*
D47*
X143000000Y-38100000D02*
X141100000Y-36200000D01*
X141100000Y-36200000D02*
X138250000Y-36200000D01*
X143700000Y-38100000D02*
X143000000Y-38100000D01*
D48*
X136700000Y-36200000D02*
X138250000Y-36200000D01*
X136700000Y-38300000D02*
X136700000Y-36200000D01*
D47*
X124900000Y-71550000D02*
X124900000Y-73200000D01*
X125814793Y-70635207D02*
X124900000Y-71550000D01*
X126900000Y-70635207D02*
X125814793Y-70635207D01*
X126900000Y-70635207D02*
X127839793Y-70635207D01*
X127839793Y-70635207D02*
X130000000Y-68475000D01*
X130000000Y-68475000D02*
X139575000Y-68475000D01*
X139575000Y-68475000D02*
X139900000Y-68150000D01*
X139900000Y-68150000D02*
X139900000Y-66500000D01*
X139900000Y-66500000D02*
X139100000Y-65700000D01*
X139100000Y-65700000D02*
X137050000Y-65700000D01*
X128950000Y-62700000D02*
X130400000Y-62700000D01*
X130400000Y-62700000D02*
X130600000Y-62500000D01*
X130600000Y-62500000D02*
X130600000Y-62000000D01*
X127050000Y-62900000D02*
X127050000Y-63050000D01*
X127250000Y-62700000D02*
X127050000Y-62900000D01*
X128950000Y-62700000D02*
X127250000Y-62700000D01*
X118600000Y-60300000D02*
X120450000Y-60300000D01*
X121500000Y-60300000D02*
X122750000Y-60300000D01*
X120450000Y-60300000D02*
X121500000Y-60300000D01*
X128100000Y-50000000D02*
X128100000Y-49850000D01*
X128100000Y-51000000D02*
X128100000Y-50000000D01*
X126950000Y-68300000D02*
X126950000Y-70585207D01*
X126950000Y-70585207D02*
X126900000Y-70635207D01*
X137600000Y-64550000D02*
X137600000Y-65100000D01*
X137550000Y-64000000D02*
X137550000Y-64500000D01*
X137550000Y-64500000D02*
X137600000Y-64550000D01*
X137150000Y-60600000D02*
X137150000Y-61450000D01*
X144900000Y-38100000D02*
X146900000Y-38100000D01*
X136100000Y-60800000D02*
X136300000Y-60600000D01*
X136300000Y-60600000D02*
X137150000Y-60600000D01*
X136100000Y-61400000D02*
X136100000Y-60800000D01*
X135650000Y-62325000D02*
X135650000Y-61850000D01*
X135650000Y-61850000D02*
X136100000Y-61400000D01*
X135825000Y-64000000D02*
X137550000Y-64000000D01*
X144900000Y-38100000D02*
X143700000Y-38100000D01*
X143700000Y-38100000D02*
X143600000Y-38100000D01*
D48*
X140200000Y-36800000D02*
X139550000Y-36800000D01*
X140350000Y-36950000D02*
X140200000Y-36800000D01*
X140350000Y-37190000D02*
X140350000Y-36950000D01*
X140350000Y-37650000D02*
X140350000Y-37190000D01*
X115400700Y-70850000D02*
X115400700Y-70100700D01*
X136700000Y-32790000D02*
X136700000Y-32000000D01*
X136700000Y-33700000D02*
X136700000Y-32790000D01*
X115400700Y-70100700D02*
X115100000Y-69800000D01*
X137650000Y-40700000D02*
X137650000Y-42050000D01*
X134350000Y-44350000D02*
X134350000Y-45700000D01*
X122400900Y-34349100D02*
X122000000Y-34750000D01*
X122400900Y-32962540D02*
X122400900Y-34349100D01*
D47*
X110750000Y-71105030D02*
X110759697Y-71095333D01*
X110759697Y-71095333D02*
X111059696Y-70795334D01*
X110750000Y-72350000D02*
X110750000Y-71105030D01*
X111700000Y-70980823D02*
X111705833Y-70974990D01*
X111700000Y-72350000D02*
X111700000Y-70980823D01*
X131250000Y-81000000D02*
X131250000Y-83500000D01*
X129275000Y-83525000D02*
X130225000Y-83525000D01*
X129000000Y-83525000D02*
X129275000Y-83525000D01*
X127700000Y-83100000D02*
X128575000Y-83100000D01*
X128575000Y-83100000D02*
X129000000Y-83525000D01*
X129625000Y-70775000D02*
X129150000Y-70775000D01*
X130975000Y-70425000D02*
X129975000Y-70425000D01*
X129975000Y-70425000D02*
X129625000Y-70775000D01*
X132450000Y-61950000D02*
X132666128Y-61733872D01*
X132666128Y-61733872D02*
X133023710Y-61733872D01*
X131800000Y-61950000D02*
X132450000Y-61950000D01*
X131700000Y-62000000D02*
X131750000Y-62000000D01*
X131750000Y-62000000D02*
X131800000Y-61950000D01*
X131450000Y-59800000D02*
X130700000Y-59800000D01*
X118600000Y-61400000D02*
X117650000Y-61400000D01*
X120450000Y-61100000D02*
X122000000Y-61100000D01*
X136600011Y-62999989D02*
X137150000Y-62450000D01*
X136600011Y-63000000D02*
X136600011Y-62999989D01*
X136600000Y-63500000D02*
X136903440Y-63500000D01*
X136903440Y-63500000D02*
X137141535Y-63261905D01*
X135150000Y-65533899D02*
X135252803Y-65636702D01*
X135150000Y-64675000D02*
X135150000Y-65533899D01*
X128950000Y-60300000D02*
X127500000Y-60300000D01*
X123350000Y-84950000D02*
X123350000Y-86450000D01*
X122400000Y-85750000D02*
X122400000Y-86500000D01*
X122400000Y-84950000D02*
X122400000Y-85750000D01*
X135825000Y-63000000D02*
X136600011Y-63000000D01*
X138250000Y-60600000D02*
X139200000Y-60600000D01*
X138650000Y-64000000D02*
X139600000Y-64000000D01*
X135825000Y-63500000D02*
X136600000Y-63500000D01*
X134650000Y-65350000D02*
X134400000Y-65600000D01*
X134650000Y-64675000D02*
X134650000Y-65350000D01*
X121400000Y-44517500D02*
X119982500Y-44517500D01*
X125682500Y-43900000D02*
X125300000Y-43900000D01*
X126800000Y-43882500D02*
X125700000Y-43882500D01*
X125700000Y-43882500D02*
X125682500Y-43900000D01*
X116900000Y-41000000D02*
X116900000Y-40200000D01*
X116900000Y-41550000D02*
X116900000Y-41000000D01*
X130950000Y-46100000D02*
X132000000Y-46100000D01*
X130950000Y-44700000D02*
X132000000Y-44700000D01*
X130750000Y-43000000D02*
X131800000Y-43000000D01*
X129800000Y-32800000D02*
X130900000Y-32800000D01*
X129050000Y-36700000D02*
X130200000Y-36700000D01*
X118750000Y-36700000D02*
X117300000Y-36700000D01*
X130900000Y-61024264D02*
X130900000Y-60950000D01*
X130950000Y-60900000D02*
X131450000Y-60900000D01*
X130900000Y-60950000D02*
X130950000Y-60900000D01*
X130400000Y-61100000D02*
X130824264Y-61100000D01*
X130824264Y-61100000D02*
X130900000Y-61024264D01*
X128950000Y-61100000D02*
X130400000Y-61100000D01*
X124524264Y-51750000D02*
X125300000Y-51750000D01*
X124100000Y-51750000D02*
X124524264Y-51750000D01*
X118900000Y-39300000D02*
X118900000Y-40600000D01*
X118900000Y-40600000D02*
X118900000Y-40900000D01*
X118300000Y-40900000D02*
X118600000Y-40600000D01*
X118600000Y-40600000D02*
X118900000Y-40600000D01*
X118300000Y-41275736D02*
X118300000Y-40900000D01*
X118250000Y-41750000D02*
X118250000Y-41325736D01*
X118250000Y-41325736D02*
X118300000Y-41275736D01*
X118900000Y-40900000D02*
X119342500Y-41342500D01*
X119342500Y-41342500D02*
X121400000Y-41342500D01*
X126500000Y-35400000D02*
X129800000Y-35400000D01*
X129800000Y-33900000D02*
X129800000Y-34450000D01*
X129800000Y-35400000D02*
X130400000Y-35400000D01*
X129800000Y-34450000D02*
X129800000Y-35400000D01*
X130400000Y-35400000D02*
X130750000Y-35750000D01*
X130750000Y-35750000D02*
X132300000Y-35750000D01*
X125913360Y-34813360D02*
X126500000Y-35400000D01*
X125913360Y-34800000D02*
X125913360Y-34813360D01*
X125000900Y-32962540D02*
X125000900Y-33887540D01*
X125000900Y-33887540D02*
X125913360Y-34800000D01*
X120250000Y-36700000D02*
X122750000Y-36700000D01*
X122750000Y-36700000D02*
X122800000Y-36650000D01*
X122800000Y-35600000D02*
X122800000Y-36650000D01*
X123700000Y-34700000D02*
X122800000Y-35600000D01*
X123700000Y-33888440D02*
X123700000Y-34700000D01*
X123700900Y-32962540D02*
X123700900Y-33887540D01*
X123700900Y-33887540D02*
X123700000Y-33888440D01*
X125300000Y-36650000D02*
X127500000Y-36650000D01*
X127500000Y-36650000D02*
X127550000Y-36700000D01*
X125300000Y-35650000D02*
X125300000Y-36650000D01*
X124350000Y-34700000D02*
X125300000Y-35650000D01*
X124350000Y-33888440D02*
X124350000Y-34700000D01*
X124350900Y-32962540D02*
X124350900Y-33887540D01*
X124350900Y-33887540D02*
X124350000Y-33888440D01*
X132300000Y-38250000D02*
X135075000Y-38250000D01*
X135075000Y-38250000D02*
X135100000Y-38275000D01*
D49*
X130200000Y-40500000D02*
X129650000Y-41050000D01*
X129650000Y-41050000D02*
X129650000Y-43000000D01*
X131050000Y-40500000D02*
X130200000Y-40500000D01*
X132300000Y-38250000D02*
X132300000Y-39250000D01*
X132300000Y-39250000D02*
X131050000Y-40500000D01*
D47*
X128900000Y-43000000D02*
X129650000Y-43000000D01*
X128500000Y-43400000D02*
X128900000Y-43000000D01*
X128500000Y-43917500D02*
X128500000Y-43400000D01*
X127900000Y-44517500D02*
X128500000Y-43917500D01*
X126800000Y-44517500D02*
X127900000Y-44517500D01*
X126800000Y-45787500D02*
X126800000Y-45152500D01*
X128400000Y-46100000D02*
X128900000Y-46100000D01*
X128900000Y-46100000D02*
X129850000Y-46100000D01*
X128200000Y-47700000D02*
X128900000Y-47000000D01*
X128900000Y-47000000D02*
X128900000Y-46100000D01*
X123000000Y-47700000D02*
X128200000Y-47700000D01*
X122800000Y-47500000D02*
X123000000Y-47700000D01*
X122800000Y-42912500D02*
X122800000Y-47500000D01*
X121400000Y-42612500D02*
X122500000Y-42612500D01*
X122500000Y-42612500D02*
X122800000Y-42912500D01*
X128147500Y-45152500D02*
X128600000Y-44700000D01*
X128600000Y-44700000D02*
X129850000Y-44700000D01*
X126800000Y-45152500D02*
X128147500Y-45152500D01*
X128087500Y-45787500D02*
X128400000Y-46100000D01*
X126800000Y-45787500D02*
X128087500Y-45787500D01*
X116900000Y-42650000D02*
X121362500Y-42650000D01*
X121362500Y-42650000D02*
X121400000Y-42612500D01*
D48*
X138150000Y-42900000D02*
X138600000Y-42450000D01*
X138600000Y-42450000D02*
X138600000Y-40700000D01*
D47*
X136700000Y-42900000D02*
X136700000Y-41650000D01*
X136700000Y-44850000D02*
X136700000Y-42900000D01*
D48*
X136700000Y-42900000D02*
X138150000Y-42900000D01*
X135650000Y-40400000D02*
X135950000Y-40700000D01*
X135950000Y-40700000D02*
X136700000Y-40700000D01*
X135650000Y-39785000D02*
X135650000Y-40400000D01*
X135100000Y-38925000D02*
X135100000Y-39235000D01*
X135100000Y-39235000D02*
X135650000Y-39785000D01*
D47*
X136700000Y-41650000D02*
X136700000Y-41360000D01*
D48*
X136410000Y-41650000D02*
X136700000Y-41650000D01*
D47*
X137550000Y-45700000D02*
X136700000Y-44850000D01*
X141775000Y-45700000D02*
X137550000Y-45700000D01*
D48*
X134350000Y-41850000D02*
X135135000Y-41850000D01*
X135135000Y-41850000D02*
X135335000Y-41650000D01*
X135335000Y-41650000D02*
X136410000Y-41650000D01*
D47*
X136700000Y-41360000D02*
X136700000Y-40700000D01*
X141775000Y-45700000D02*
X142175000Y-45700000D01*
D48*
X139700000Y-73374264D02*
X139700000Y-74700000D01*
X139700000Y-72950000D02*
X139700000Y-73374264D01*
X139700000Y-71000000D02*
X139700000Y-72950000D01*
X137174264Y-71000000D02*
X139700000Y-71000000D01*
X136750000Y-71000000D02*
X137174264Y-71000000D01*
D47*
X142825000Y-45700000D02*
X146880000Y-45700000D01*
X146880000Y-45700000D02*
X146900000Y-45720000D01*
X136750000Y-71964000D02*
X136750000Y-71000000D01*
X136750000Y-72964000D02*
X136750000Y-71964000D01*
D50*
X124450000Y-76800000D02*
X126000000Y-75250000D01*
X124450000Y-80100000D02*
X124450000Y-76800000D01*
X123350000Y-81200000D02*
X124450000Y-80100000D01*
X123350000Y-82250000D02*
X123350000Y-81200000D01*
X126800000Y-75250000D02*
X126000000Y-75250000D01*
X126000000Y-75250000D02*
X124900000Y-75250000D01*
X124100000Y-73450000D02*
X123650000Y-73000000D01*
X124900000Y-75250000D02*
X124100000Y-74450000D01*
X124100000Y-74450000D02*
X124100000Y-73450000D01*
X123650000Y-73000000D02*
X122400000Y-73000000D01*
X121450000Y-84950000D02*
X121450000Y-83900000D01*
X121450000Y-83900000D02*
X121750000Y-83600000D01*
X121750000Y-83600000D02*
X123050000Y-83600000D01*
X123050000Y-83600000D02*
X123350000Y-83300000D01*
X123350000Y-83300000D02*
X123350000Y-82250000D01*
X127700000Y-80600000D02*
X127700000Y-78050000D01*
X127700000Y-78050000D02*
X130500000Y-75250000D01*
X134750000Y-79200000D02*
X135250000Y-79700000D01*
X135250000Y-79700000D02*
X135250000Y-81000000D01*
X130650000Y-79200000D02*
X134750000Y-79200000D01*
X130500000Y-79050000D02*
X130650000Y-79200000D01*
X130500000Y-75250000D02*
X130500000Y-79050000D01*
X126800000Y-75250000D02*
X130500000Y-75250000D01*
X126250000Y-75250000D02*
X126800000Y-75250000D01*
D47*
X115100000Y-65640940D02*
X115100000Y-63900000D01*
X115100000Y-63900000D02*
X115500000Y-63500000D01*
X115500000Y-63500000D02*
X120450000Y-63500000D01*
X115100000Y-62200000D02*
X115600000Y-62700000D01*
X115600000Y-62700000D02*
X120450000Y-62700000D01*
X115100000Y-60759060D02*
X115100000Y-62200000D01*
D51*
X106600000Y-55800000D02*
X104080000Y-55800000D01*
X104080000Y-55800000D02*
X104000000Y-55880000D01*
X106600000Y-58800000D02*
X104380000Y-58800000D01*
X104380000Y-58800000D02*
X104000000Y-58420000D01*
X107350000Y-60850000D02*
X104110000Y-60850000D01*
X104110000Y-60850000D02*
X104000000Y-60960000D01*
X104000000Y-63500000D02*
X107000000Y-63500000D01*
X107000000Y-63500000D02*
X107350000Y-63850000D01*
X106500000Y-68200000D02*
X106312400Y-68200000D01*
X106312400Y-68200000D02*
X104152400Y-66040000D01*
X104152400Y-66040000D02*
X104000000Y-66040000D01*
X106500000Y-68750000D02*
X106500000Y-68200000D01*
X106500000Y-71750000D02*
X106500000Y-70927600D01*
X106500000Y-70927600D02*
X104152400Y-68580000D01*
X104152400Y-68580000D02*
X104000000Y-68580000D01*
X104170000Y-68750000D02*
X104000000Y-68580000D01*
X107400000Y-73450000D02*
X106300000Y-73450000D01*
X106300000Y-73450000D02*
X105316000Y-72466000D01*
X105316000Y-72466000D02*
X105316000Y-72283600D01*
X105316000Y-72283600D02*
X104152400Y-71120000D01*
X104152400Y-71120000D02*
X104000000Y-71120000D01*
X107400000Y-76450000D02*
X106300000Y-76450000D01*
X106300000Y-76450000D02*
X105950000Y-76100000D01*
X105950000Y-76100000D02*
X105950000Y-75457600D01*
X105950000Y-75457600D02*
X104152400Y-73660000D01*
X104152400Y-73660000D02*
X104000000Y-73660000D01*
D50*
X111400000Y-69350000D02*
X112450000Y-69350000D01*
X112650000Y-69550000D02*
X112450000Y-69350000D01*
X112650000Y-72350000D02*
X112650000Y-69550000D01*
X107700000Y-78600000D02*
X107700000Y-80000000D01*
X109250000Y-77450000D02*
X108850000Y-77450000D01*
X108850000Y-77450000D02*
X107700000Y-78600000D01*
X110750000Y-75950000D02*
X109250000Y-77450000D01*
X110750000Y-75050000D02*
X110750000Y-75950000D01*
X112650000Y-72350000D02*
X112650000Y-70500000D01*
X110900000Y-73600000D02*
X110750000Y-73750000D01*
X110750000Y-73750000D02*
X110750000Y-75050000D01*
X112450000Y-73600000D02*
X110900000Y-73600000D01*
X112650000Y-72350000D02*
X112650000Y-73400000D01*
X112650000Y-73400000D02*
X112450000Y-73600000D01*
X118250000Y-78350000D02*
X118250000Y-75400000D01*
X118250000Y-75400000D02*
X118150000Y-75300000D01*
X118850000Y-78950000D02*
X118250000Y-78350000D01*
X120500000Y-78950000D02*
X118850000Y-78950000D01*
X121100000Y-79550000D02*
X120500000Y-78950000D01*
X121100000Y-80850000D02*
X121100000Y-79550000D01*
X121450000Y-82250000D02*
X121450000Y-81200000D01*
X121450000Y-81200000D02*
X121100000Y-80850000D01*
X121450000Y-82000000D02*
X121450000Y-82250000D01*
X116100000Y-75300000D02*
X116100000Y-76200000D01*
X110000000Y-80000000D02*
X110000000Y-81500000D01*
X110000000Y-81500000D02*
X110000000Y-86300000D01*
X111050000Y-76900000D02*
X110000000Y-77950000D01*
X110000000Y-77950000D02*
X110000000Y-80000000D01*
X112010002Y-76900000D02*
X111050000Y-76900000D01*
X113224990Y-86750000D02*
X113250000Y-86775010D01*
X110000000Y-86750000D02*
X113224990Y-86750000D01*
X110000000Y-86750000D02*
X107000000Y-86750000D01*
X118150000Y-75300000D02*
X116100000Y-75300000D01*
X119500000Y-75300000D02*
X118150000Y-75300000D01*
X110000000Y-84700000D02*
X110000000Y-86750000D01*
X107550000Y-84750000D02*
X106500000Y-84750000D01*
X110000000Y-84700000D02*
X107600000Y-84700000D01*
X107600000Y-84700000D02*
X107550000Y-84750000D01*
X112010002Y-76900000D02*
X112650000Y-76260002D01*
X112650000Y-76260002D02*
X112650000Y-75050000D01*
X114400000Y-75300000D02*
X114150000Y-75050000D01*
X114150000Y-75050000D02*
X112650000Y-75050000D01*
X116100000Y-75300000D02*
X114400000Y-75300000D01*
X122400000Y-75300000D02*
X119500000Y-75300000D01*
X112900000Y-50340000D02*
X114700000Y-50340000D01*
X114700000Y-50340000D02*
X116480000Y-50340000D01*
X114700000Y-45700000D02*
X114700000Y-50340000D01*
X116480000Y-50340000D02*
X116500000Y-50360000D01*
X114400000Y-45400000D02*
X114700000Y-45700000D01*
X111100000Y-45400000D02*
X114400000Y-45400000D01*
X110800000Y-45100000D02*
X111100000Y-45400000D01*
X110800000Y-40400000D02*
X113600000Y-40400000D01*
X109816000Y-40400000D02*
X110800000Y-40400000D01*
X110800000Y-40400000D02*
X110800000Y-45100000D01*
X108300000Y-40400000D02*
X109816000Y-40400000D01*
D47*
X120450000Y-57900000D02*
X120450000Y-57375000D01*
X119675000Y-56600000D02*
X115950000Y-56600000D01*
X111200000Y-56850000D02*
X110150055Y-55800055D01*
X120450000Y-57375000D02*
X119675000Y-56600000D01*
X115950000Y-56600000D02*
X115700000Y-56850000D01*
X115700000Y-56850000D02*
X111200000Y-56850000D01*
X106500000Y-41100000D02*
X106192400Y-40792400D01*
X106192400Y-40792400D02*
X106192400Y-37900000D01*
X110150055Y-55800055D02*
X110150055Y-52750055D01*
X110150055Y-52750055D02*
X107400022Y-50000022D01*
X107400022Y-50000022D02*
X107400022Y-49163612D01*
X107400022Y-49163612D02*
X106500000Y-48263590D01*
X106500000Y-48263590D02*
X106500000Y-41100000D01*
X122800000Y-57900000D02*
X120450000Y-57900000D01*
X106192400Y-37600000D02*
X106192400Y-37900000D01*
X106192400Y-37900000D02*
X106232400Y-37860000D01*
X106232400Y-37860000D02*
X108300000Y-37860000D01*
X106192400Y-37600000D02*
X104152400Y-35560000D01*
X104152400Y-35560000D02*
X104000000Y-35560000D01*
D48*
X116000000Y-78500000D02*
X116400000Y-78100000D01*
X116400000Y-78100000D02*
X116875736Y-78100000D01*
X116000000Y-81403453D02*
X116000000Y-78500000D01*
X115702707Y-82125010D02*
X115702707Y-81700746D01*
X115702707Y-81700746D02*
X116000000Y-81403453D01*
X117300000Y-78100000D02*
X116875736Y-78100000D01*
D47*
X110774360Y-57724982D02*
X110474361Y-58024981D01*
X111124343Y-57374999D02*
X110774360Y-57724982D01*
X113550001Y-57374999D02*
X111124343Y-57374999D01*
X118900000Y-57100000D02*
X117450000Y-57100000D01*
X119300000Y-57500000D02*
X118900000Y-57100000D01*
X119400000Y-58700000D02*
X119300000Y-58600000D01*
X117450000Y-57100000D02*
X116600000Y-57950000D01*
X120450000Y-58700000D02*
X119400000Y-58700000D01*
X116600000Y-57950000D02*
X114125002Y-57950000D01*
X114125002Y-57950000D02*
X113550001Y-57374999D01*
X119300000Y-58600000D02*
X119300000Y-57500000D01*
X141100000Y-59440769D02*
X141909198Y-60249967D01*
X130060859Y-56378372D02*
X138278372Y-56378372D01*
X141909198Y-60249967D02*
X142256687Y-60249967D01*
X138278372Y-56378372D02*
X141100000Y-59200000D01*
X142256687Y-60249967D02*
X142448102Y-60441382D01*
X141100000Y-59200000D02*
X141100000Y-59440769D01*
X142448102Y-60441382D02*
X142748101Y-60741381D01*
X126400000Y-57800000D02*
X126700000Y-58100000D01*
X124400000Y-57800000D02*
X126400000Y-57800000D01*
X122700000Y-59500000D02*
X124400000Y-57800000D01*
X120450000Y-59500000D02*
X122700000Y-59500000D01*
X123000000Y-61900000D02*
X124900000Y-60000000D01*
X124900000Y-60000000D02*
X124900000Y-58500000D01*
X120450000Y-61900000D02*
X123000000Y-61900000D01*
X129349431Y-56012463D02*
X129649430Y-55712464D01*
X138255594Y-55712464D02*
X141671566Y-59128436D01*
X141671566Y-59128436D02*
X141971565Y-59428435D01*
X129649430Y-55712464D02*
X138255594Y-55712464D01*
X121375000Y-64950000D02*
X121900000Y-64950000D01*
X106950011Y-49513600D02*
X106950011Y-50202187D01*
X109700044Y-52952220D02*
X109700044Y-58400035D01*
X109950000Y-58649991D02*
X111825099Y-58649991D01*
X106049989Y-48613578D02*
X106950011Y-49513600D01*
X119608489Y-66716511D02*
X121375000Y-64950000D01*
X114422798Y-66716511D02*
X119608489Y-66716511D01*
X104000000Y-40640000D02*
X104152400Y-40640000D01*
X106950011Y-50202187D02*
X109700044Y-52952220D01*
X105826000Y-42313600D02*
X105826000Y-46726000D01*
X113250055Y-60074947D02*
X113250055Y-65543766D01*
X111825099Y-58649991D02*
X113250055Y-60074947D01*
X106049989Y-46949989D02*
X106049989Y-48613578D01*
X105826000Y-46726000D02*
X106049989Y-46949989D01*
X109700044Y-58400035D02*
X109950000Y-58649991D01*
X113250055Y-65543766D02*
X114422798Y-66716511D01*
X104152400Y-40640000D02*
X105826000Y-42313600D01*
X121900000Y-64950000D02*
X121900000Y-62525010D01*
X101300000Y-39700000D02*
X102240000Y-40640000D01*
X102240000Y-40640000D02*
X104000000Y-40640000D01*
X101300000Y-34100000D02*
X101300000Y-39700000D01*
X102100000Y-33300000D02*
X101300000Y-34100000D01*
X105800000Y-33300000D02*
X102100000Y-33300000D01*
X107800000Y-35300000D02*
X105800000Y-33300000D01*
X109774000Y-35300000D02*
X107800000Y-35300000D01*
X113600000Y-37860000D02*
X112334000Y-37860000D01*
X112334000Y-37860000D02*
X109774000Y-35300000D01*
X105500000Y-47067600D02*
X105500000Y-48700000D01*
X106500000Y-49700000D02*
X106500000Y-50388587D01*
X104000000Y-45720000D02*
X104152400Y-45720000D01*
X109886410Y-59250000D02*
X111750000Y-59250000D01*
X112800044Y-60300044D02*
X112800044Y-65730167D01*
X109250033Y-53138620D02*
X109250033Y-58613623D01*
X111750000Y-59250000D02*
X112800044Y-60300044D01*
X114236399Y-67166522D02*
X121633478Y-67166522D01*
X104152400Y-45720000D02*
X105500000Y-47067600D01*
X106500000Y-50388587D02*
X109250033Y-53138620D01*
X109250033Y-58613623D02*
X109886410Y-59250000D01*
X112800044Y-65730167D02*
X114236399Y-67166522D01*
X121633478Y-67166522D02*
X122700000Y-66100000D01*
X122700000Y-66100000D02*
X122700000Y-66000000D01*
X105500000Y-48700000D02*
X106500000Y-49700000D01*
X122700000Y-66000000D02*
X122700000Y-64950000D01*
X122700000Y-63150000D02*
X122700000Y-64950000D01*
X111534000Y-47900000D02*
X107800000Y-47900000D01*
X112900000Y-47800000D02*
X111634000Y-47800000D01*
X111634000Y-47800000D02*
X111534000Y-47900000D01*
X123500000Y-66000000D02*
X123500000Y-64950000D01*
X114050000Y-67616533D02*
X121883467Y-67616533D01*
X121883467Y-67616533D02*
X123500000Y-66000000D01*
X110572800Y-59849978D02*
X112350033Y-61627211D01*
X112350033Y-65916566D02*
X114050000Y-67616533D01*
X112350033Y-61627211D02*
X112350033Y-65916566D01*
X109849978Y-59849978D02*
X110572800Y-59849978D01*
X108800022Y-58800022D02*
X109849978Y-59849978D01*
X108800022Y-53325020D02*
X108800022Y-58800022D01*
X105266000Y-49790998D02*
X108800022Y-53325020D01*
X105266000Y-49373600D02*
X105266000Y-49790998D01*
X104152400Y-48260000D02*
X105266000Y-49373600D01*
X104000000Y-48260000D02*
X104152400Y-48260000D01*
X108350011Y-55350000D02*
X108350011Y-59000011D01*
X111900022Y-61813611D02*
X111900022Y-66150022D01*
X111900022Y-66150022D02*
X113816544Y-68066544D01*
X108350011Y-59000011D02*
X109649989Y-60299989D01*
X109649989Y-60299989D02*
X110386400Y-60299989D01*
X110386400Y-60299989D02*
X111900022Y-61813611D01*
X113816544Y-68066544D02*
X122233456Y-68066544D01*
X124300000Y-66000000D02*
X124300000Y-64950000D01*
X122233456Y-68066544D02*
X124300000Y-66000000D01*
X108350011Y-55150011D02*
X108350011Y-55350000D01*
X107850000Y-53300000D02*
X108350011Y-53800011D01*
X108350011Y-53800011D02*
X108350011Y-55350000D01*
X104000000Y-50800000D02*
X105266000Y-50800000D01*
X105266000Y-50800000D02*
X107200000Y-52734000D01*
X107200000Y-52734000D02*
X107200000Y-53600000D01*
X107200000Y-53600000D02*
X107900000Y-54300000D01*
X107900000Y-54300000D02*
X107900000Y-59200000D01*
X122583445Y-68516555D02*
X125100000Y-66000000D01*
X107900000Y-59200000D02*
X109450000Y-60750000D01*
X109450000Y-60750000D02*
X110200000Y-60750000D01*
X125100000Y-66000000D02*
X125100000Y-64950000D01*
X110200000Y-60750000D02*
X111450000Y-62000000D01*
X111450000Y-62000000D02*
X111450000Y-66400000D01*
X111450000Y-66400000D02*
X113566555Y-68516555D01*
X113566555Y-68516555D02*
X122583445Y-68516555D01*
X125100000Y-62700000D02*
X125100000Y-64950000D01*
X118500000Y-54200000D02*
X117100000Y-55600000D01*
X117100000Y-55600000D02*
X112400000Y-55600000D01*
X118500000Y-48300000D02*
X118500000Y-54200000D01*
X118000000Y-47800000D02*
X118500000Y-48300000D01*
X116672400Y-47800000D02*
X118000000Y-47800000D01*
X116500000Y-47820000D02*
X116652400Y-47820000D01*
X116652400Y-47820000D02*
X116672400Y-47800000D01*
X126050000Y-68300000D02*
X126050000Y-67750000D01*
X126050000Y-67750000D02*
X125900000Y-67600000D01*
X125900000Y-67600000D02*
X125900000Y-66600000D01*
X125900000Y-64950000D02*
X125900000Y-66600000D01*
X125900000Y-66600000D02*
X126050000Y-66750000D01*
X131250020Y-66750000D02*
X131575011Y-66425009D01*
X126050000Y-66750000D02*
X131250020Y-66750000D01*
X131575011Y-66425009D02*
X131875010Y-66125010D01*
X132300000Y-62800000D02*
X132724264Y-62800000D01*
X132724264Y-62800000D02*
X132924264Y-63000000D01*
X132924264Y-63000000D02*
X133975000Y-63000000D01*
X126700000Y-64950000D02*
X126700000Y-66200000D01*
X126700000Y-66200000D02*
X126725002Y-66225002D01*
X126725002Y-66225002D02*
X129884344Y-66225002D01*
X129884344Y-66225002D02*
X130000784Y-66108562D01*
X130000784Y-66108562D02*
X130425048Y-66108562D01*
X133000000Y-67250000D02*
X133150000Y-67400000D01*
X133150000Y-67400000D02*
X133250000Y-67500000D01*
X129800000Y-67400000D02*
X133150000Y-67400000D01*
X128500000Y-68700000D02*
X129800000Y-67400000D01*
X134500000Y-67750000D02*
X135250000Y-67750000D01*
X134250000Y-67500000D02*
X134500000Y-67750000D01*
X134000000Y-67500000D02*
X134250000Y-67500000D01*
X133750000Y-67500000D02*
X134000000Y-67500000D01*
X133250000Y-67500000D02*
X133750000Y-67500000D01*
X133000000Y-66000000D02*
X133000000Y-67250000D01*
X132500000Y-65500000D02*
X133000000Y-66000000D01*
X131033610Y-65500000D02*
X132500000Y-65500000D01*
X130425048Y-66108562D02*
X131033610Y-65500000D01*
X131600000Y-64300000D02*
X131900000Y-64000000D01*
X131900000Y-64000000D02*
X133975000Y-64000000D01*
X130500000Y-64300000D02*
X131600000Y-64300000D01*
X128400000Y-65075001D02*
X128400000Y-65600000D01*
X128150001Y-65075001D02*
X128400000Y-65075001D01*
X128400000Y-65075001D02*
X129250001Y-65075001D01*
X134250000Y-67000000D02*
X134750000Y-67000000D01*
X134000000Y-67000000D02*
X134250000Y-67000000D01*
X132700000Y-64950000D02*
X133000000Y-64950000D01*
X129375002Y-64950000D02*
X132700000Y-64950000D01*
X129250001Y-65075001D02*
X129375002Y-64950000D01*
X128025000Y-64950000D02*
X128150001Y-65075001D01*
X127500000Y-64950000D02*
X128025000Y-64950000D01*
X133750000Y-67000000D02*
X134000000Y-67000000D01*
X133500000Y-66750000D02*
X133750000Y-67000000D01*
X133500000Y-65500000D02*
X133500000Y-66750000D01*
X133000000Y-65000000D02*
X133500000Y-65500000D01*
X133000000Y-64950000D02*
X133875000Y-64950000D01*
X133000000Y-64950000D02*
X133000000Y-65000000D01*
X133875000Y-64950000D02*
X134150000Y-64675000D01*
D48*
X119600000Y-70850000D02*
X119960000Y-70850000D01*
X119960000Y-70850000D02*
X120260000Y-71150000D01*
X120260000Y-71150000D02*
X120374264Y-71150000D01*
X120374264Y-71150000D02*
X120500000Y-71275736D01*
X120500000Y-71275736D02*
X120500000Y-71700000D01*
D47*
X128950000Y-63500000D02*
X128950000Y-64450000D01*
X128950000Y-63500000D02*
X133975000Y-63500000D01*
X126800000Y-61900000D02*
X128950000Y-61900000D01*
X128950000Y-59500000D02*
X130000000Y-59500000D01*
X130000000Y-59500000D02*
X131249969Y-58250031D01*
X131249969Y-58250031D02*
X136725767Y-58250031D01*
X136725767Y-58250031D02*
X137025736Y-58550000D01*
X137025736Y-58550000D02*
X137450000Y-58550000D01*
X141750000Y-83150000D02*
X142420000Y-83820000D01*
X130900000Y-57800000D02*
X130900020Y-57800020D01*
X128950000Y-58700000D02*
X130000000Y-58700000D01*
X145634000Y-83820000D02*
X146900000Y-83820000D01*
X137590787Y-57800020D02*
X139500000Y-59709233D01*
X130900020Y-57800020D02*
X137590787Y-57800020D01*
X130000000Y-58700000D02*
X130900000Y-57800000D01*
X139500000Y-59709233D02*
X139500000Y-59750000D01*
X139500000Y-59750000D02*
X141750000Y-62000000D01*
X141750000Y-62000000D02*
X141750000Y-83150000D01*
X142420000Y-83820000D02*
X145634000Y-83820000D01*
X145634000Y-81280000D02*
X146900000Y-81280000D01*
X130163590Y-57900000D02*
X130713599Y-57349991D01*
X142200011Y-61813600D02*
X142200011Y-80800011D01*
X140199978Y-59813568D02*
X142200011Y-61813600D01*
X140199978Y-59772800D02*
X140199978Y-59813568D01*
X142680000Y-81280000D02*
X145634000Y-81280000D01*
X132022795Y-57349991D02*
X132022813Y-57350009D01*
X130713599Y-57349991D02*
X132022795Y-57349991D01*
X142200011Y-80800011D02*
X142680000Y-81280000D01*
X132022813Y-57350009D02*
X137777187Y-57350009D01*
X128950000Y-57900000D02*
X130163590Y-57900000D01*
X137777187Y-57350009D02*
X140199978Y-59772800D01*
X142650022Y-61627200D02*
X142650022Y-78150022D01*
X145634000Y-78740000D02*
X146900000Y-78740000D01*
X130577168Y-56850011D02*
X137913600Y-56850011D01*
X140649989Y-59586400D02*
X140649989Y-59627168D01*
X128025000Y-56450000D02*
X128700001Y-57125001D01*
X143240000Y-78740000D02*
X145634000Y-78740000D01*
X130302178Y-57125001D02*
X130577168Y-56850011D01*
X142650022Y-78150022D02*
X143240000Y-78740000D01*
X140649989Y-59627168D02*
X142650022Y-61627200D01*
X137913600Y-56850011D02*
X140649989Y-59586400D01*
X127500000Y-56450000D02*
X128025000Y-56450000D01*
X128700001Y-57125001D02*
X130302178Y-57125001D01*
X145634000Y-76200000D02*
X146900000Y-76200000D01*
X143500000Y-76200000D02*
X145634000Y-76200000D01*
X143373102Y-59904970D02*
X143373102Y-65936130D01*
X126849978Y-55250022D02*
X138575026Y-55250022D01*
X126700000Y-55400000D02*
X126849978Y-55250022D01*
X143373102Y-65936130D02*
X143100033Y-66209199D01*
X126700000Y-56450000D02*
X126700000Y-55400000D01*
X142271566Y-58803434D02*
X143373102Y-59904970D01*
X143100033Y-66209199D02*
X143100033Y-75800033D01*
X138575026Y-55250022D02*
X142128438Y-58803434D01*
X143100033Y-75800033D02*
X143500000Y-76200000D01*
X142128438Y-58803434D02*
X142271566Y-58803434D01*
X125900000Y-56450000D02*
X125900000Y-55400000D01*
X125900000Y-55400000D02*
X126499989Y-54800011D01*
X142457966Y-58353423D02*
X143823113Y-59718570D01*
X126499989Y-54800011D02*
X138761426Y-54800011D01*
X138761426Y-54800011D02*
X142314838Y-58353423D01*
X144160000Y-73660000D02*
X146900000Y-73660000D01*
X142314838Y-58353423D02*
X142457966Y-58353423D01*
X143823113Y-59718570D02*
X143823113Y-66122530D01*
X143823113Y-66122530D02*
X143600022Y-66345621D01*
X143600022Y-66345621D02*
X143600022Y-73100022D01*
X143600022Y-73100022D02*
X144160000Y-73660000D01*
X125100000Y-56450000D02*
X125100000Y-55436410D01*
X125100000Y-55436410D02*
X126186410Y-54350000D01*
X126186410Y-54350000D02*
X138947826Y-54350000D01*
X138947826Y-54350000D02*
X142501238Y-57903412D01*
X142501238Y-57903412D02*
X142644366Y-57903412D01*
X142644366Y-57903412D02*
X144273124Y-59532170D01*
X144273124Y-59532170D02*
X144273124Y-70773124D01*
X144273124Y-70773124D02*
X144620000Y-71120000D01*
X144620000Y-71120000D02*
X146900000Y-71120000D01*
X127270191Y-48325010D02*
X128874990Y-48325010D01*
X128874990Y-48325010D02*
X129300000Y-47900000D01*
X129300000Y-47900000D02*
X143200000Y-47900000D01*
X143200000Y-47900000D02*
X144800000Y-49500000D01*
X144800000Y-49500000D02*
X145447600Y-49500000D01*
X145447600Y-49500000D02*
X146747600Y-50800000D01*
X146747600Y-50800000D02*
X146900000Y-50800000D01*
X126970192Y-48625009D02*
X127270191Y-48325010D01*
X123400000Y-50700000D02*
X124895201Y-50700000D01*
X124895201Y-50700000D02*
X126970192Y-48625009D01*
X123400000Y-50400000D02*
X123400000Y-50700000D01*
X123400000Y-50700000D02*
X123400000Y-55300000D01*
X127942500Y-41300000D02*
X128300000Y-41300000D01*
X126800000Y-41342500D02*
X127900000Y-41342500D01*
X127900000Y-41342500D02*
X127942500Y-41300000D01*
X123500000Y-55400000D02*
X123500000Y-56450000D01*
X123400000Y-55300000D02*
X123500000Y-55400000D01*
X121100000Y-49800000D02*
X119800000Y-49800000D01*
X119800000Y-49800000D02*
X119100000Y-49100000D01*
X119100000Y-49100000D02*
X119100000Y-44300000D01*
X120152500Y-43247500D02*
X121400000Y-43247500D01*
X119100000Y-44300000D02*
X120152500Y-43247500D01*
X122000000Y-49800000D02*
X121100000Y-49800000D01*
X122650000Y-49200000D02*
X121250000Y-49200000D01*
X121250000Y-49200000D02*
X121100000Y-49350000D01*
X121100000Y-49350000D02*
X121100000Y-49800000D01*
X122700000Y-56450000D02*
X122700000Y-50500000D01*
X122700000Y-50500000D02*
X122000000Y-49800000D01*
X111498383Y-56250000D02*
X111095740Y-55847357D01*
X112850000Y-56250000D02*
X111498383Y-56250000D01*
X113000000Y-56100000D02*
X112850000Y-56250000D01*
X120500000Y-56100000D02*
X113000000Y-56100000D01*
X120850000Y-56450000D02*
X120500000Y-56100000D01*
X111095740Y-55847357D02*
X110795741Y-55547358D01*
X121900000Y-56450000D02*
X120850000Y-56450000D01*
X113350000Y-78400000D02*
X113350000Y-78200000D01*
X113350000Y-78200000D02*
X113300000Y-78150000D01*
X112650000Y-78400000D02*
X113350000Y-78400000D01*
X112300000Y-80000000D02*
X112300000Y-78750000D01*
X112300000Y-78750000D02*
X112650000Y-78400000D01*
X111700000Y-75050000D02*
X111700000Y-76100000D01*
X122400000Y-82250000D02*
X122400000Y-81100000D01*
X123650000Y-79850000D02*
X123650000Y-78600000D01*
X122400000Y-81100000D02*
X123650000Y-79850000D01*
X123650000Y-78600000D02*
X122650000Y-77600000D01*
X122650000Y-77600000D02*
X122400000Y-77600000D01*
X126800000Y-46422500D02*
X125222500Y-46422500D01*
X125222500Y-46422500D02*
X124600000Y-45800000D01*
X124600000Y-45800000D02*
X124600000Y-39700000D01*
X124600000Y-39700000D02*
X125300000Y-39000000D01*
X125300000Y-39000000D02*
X125300000Y-38500000D01*
X125300000Y-38500000D02*
X125300000Y-38150000D01*
X132750000Y-81000000D02*
X132750000Y-81750000D01*
X132750000Y-81750000D02*
X133250000Y-82250000D01*
X133250000Y-82250000D02*
X136500000Y-82250000D01*
X136500000Y-82250000D02*
X136750000Y-82000000D01*
X136750000Y-82000000D02*
X136750000Y-81000000D01*
X136750000Y-77536000D02*
X136750000Y-78536000D01*
X136750000Y-78536000D02*
X136750000Y-81000000D01*
X123900000Y-45900000D02*
X125057500Y-47057500D01*
X125057500Y-47057500D02*
X126800000Y-47057500D01*
X123900000Y-39750000D02*
X123900000Y-45900000D01*
X122800000Y-38150000D02*
X122800000Y-38650000D01*
X122800000Y-38650000D02*
X123900000Y-39750000D01*
X111000000Y-67650000D02*
X110450002Y-68199998D01*
X110450002Y-68199998D02*
X110450002Y-68450000D01*
X111000000Y-65650000D02*
X111000000Y-67650000D01*
X110250000Y-64900000D02*
X111000000Y-65650000D01*
X110250000Y-64400000D02*
X110250000Y-64900000D01*
X126150000Y-77400000D02*
X126150000Y-76850000D01*
X126300000Y-82450000D02*
X126300000Y-80950000D01*
X125650000Y-79250000D02*
X126150000Y-78750000D01*
X126300000Y-80950000D02*
X125650000Y-80300000D01*
X125650000Y-80300000D02*
X125650000Y-79250000D01*
X126150000Y-78750000D02*
X126150000Y-77400000D01*
X109843652Y-69027323D02*
X109843652Y-69451587D01*
X109150023Y-68252198D02*
X109843652Y-68945829D01*
X108950022Y-67527200D02*
X109150023Y-67727201D01*
X109150023Y-67727201D02*
X109150023Y-68252198D01*
X108950022Y-66199978D02*
X108950022Y-67527200D01*
X109750000Y-65400000D02*
X108950022Y-66199978D01*
X109843652Y-68945829D02*
X109843652Y-69027323D01*
X107750000Y-67600000D02*
X108250001Y-68100001D01*
X108250001Y-68100001D02*
X108250001Y-68624999D01*
X105750000Y-66650000D02*
X106700000Y-67600000D01*
X106700000Y-67600000D02*
X107750000Y-67600000D01*
X108575001Y-69550001D02*
X108475001Y-69650001D01*
X108475001Y-69650001D02*
X108475001Y-70175001D01*
X108850001Y-70550001D02*
X109150000Y-70850000D01*
X108475001Y-70175001D02*
X108850001Y-70550001D01*
X108250001Y-68624999D02*
X108575001Y-68949999D01*
X105750000Y-64850000D02*
X105750000Y-66650000D01*
X108575001Y-68949999D02*
X108575001Y-69550001D01*
X106800000Y-82000000D02*
X106800000Y-83050000D01*
X107000000Y-81800000D02*
X106800000Y-82000000D01*
X108550000Y-81800000D02*
X107000000Y-81800000D01*
X109150000Y-68888587D02*
X109150000Y-69525736D01*
X109150000Y-69525736D02*
X109150000Y-69950000D01*
X106410859Y-66610859D02*
X106900000Y-67100000D01*
X106410859Y-65592403D02*
X106410859Y-66610859D01*
X108700012Y-67913601D02*
X108700012Y-68438598D01*
X108700012Y-68438598D02*
X109150000Y-68888587D01*
X106900000Y-67100000D02*
X107886411Y-67100000D01*
X107886411Y-67100000D02*
X108700012Y-67913601D01*
X119653024Y-77974990D02*
X119228760Y-77974990D01*
X122150000Y-79725736D02*
X120399254Y-77974990D01*
X122150000Y-80150000D02*
X122150000Y-79725736D01*
X120399254Y-77974990D02*
X119653024Y-77974990D01*
X113800000Y-82750000D02*
X113800000Y-79750000D01*
X113500000Y-83050000D02*
X113800000Y-82750000D01*
X112000000Y-83050000D02*
X113500000Y-83050000D01*
X111350000Y-83700000D02*
X112000000Y-83050000D01*
X135650000Y-64675000D02*
X135650000Y-65150000D01*
X135650000Y-65150000D02*
X136400000Y-65900000D01*
X136400000Y-65900000D02*
X136400000Y-66500000D01*
X136400000Y-66500000D02*
X136900000Y-67000000D01*
X136900000Y-67000000D02*
X138500000Y-67000000D01*
X135150000Y-61250000D02*
X135200000Y-61200000D01*
X135200000Y-61200000D02*
X135200000Y-59800000D01*
X135150000Y-62325000D02*
X135150000Y-61250000D01*
X134300000Y-61100000D02*
X134650000Y-61450000D01*
X134650000Y-61450000D02*
X134650000Y-62325000D01*
X133222370Y-61100000D02*
X134300000Y-61100000D01*
X133000000Y-59800000D02*
X133000000Y-60877630D01*
X133000000Y-60877630D02*
X133222370Y-61100000D01*
X126300000Y-52500000D02*
X126400000Y-52400000D01*
X126400000Y-52400000D02*
X126400000Y-51750000D01*
X125600000Y-52500000D02*
X124300000Y-53800000D01*
X125600000Y-52500000D02*
X126300000Y-52500000D01*
X124300000Y-54950000D02*
X124300000Y-55150000D01*
X124300000Y-55150000D02*
X124300000Y-56450000D01*
X124300000Y-53800000D02*
X124300000Y-55150000D01*
X124650000Y-54600000D02*
X124300000Y-54950000D01*
X125300000Y-54600000D02*
X124650000Y-54600000D01*
X128100000Y-52500000D02*
X127400000Y-52500000D01*
X127400000Y-52500000D02*
X125300000Y-54600000D01*
X129750000Y-52100000D02*
X129350000Y-52500000D01*
X129350000Y-52500000D02*
X128100000Y-52500000D01*
X129750000Y-50488686D02*
X129750000Y-52100000D01*
X131860000Y-49600000D02*
X130638686Y-49600000D01*
X130638686Y-49600000D02*
X129750000Y-50488686D01*
D48*
X139400000Y-38300000D02*
X139850000Y-38750000D01*
X139850000Y-38750000D02*
X140350000Y-38750000D01*
X138600000Y-38300000D02*
X139400000Y-38300000D01*
X116899300Y-70850000D02*
X117458080Y-70850000D01*
X117458080Y-70850000D02*
X118700000Y-70850000D01*
D52*
G36*
X135410197Y-70589803D02*
X135452211Y-70617666D01*
X135500000Y-70627000D01*
X140623000Y-70627000D01*
X140623000Y-75123000D01*
X134627000Y-75123000D01*
X134627000Y-73249750D01*
X134715000Y-73249750D01*
X134715000Y-73840310D01*
X134811673Y-74073699D01*
X134990302Y-74252327D01*
X135223691Y-74349000D01*
X136464250Y-74349000D01*
X136623000Y-74190250D01*
X136623000Y-73091000D01*
X136877000Y-73091000D01*
X136877000Y-74190250D01*
X137035750Y-74349000D01*
X138276309Y-74349000D01*
X138509698Y-74252327D01*
X138688327Y-74073699D01*
X138785000Y-73840310D01*
X138785000Y-73249750D01*
X138626250Y-73091000D01*
X136877000Y-73091000D01*
X136623000Y-73091000D01*
X134873750Y-73091000D01*
X134715000Y-73249750D01*
X134627000Y-73249750D01*
X134627000Y-72087690D01*
X134715000Y-72087690D01*
X134715000Y-72678250D01*
X134873750Y-72837000D01*
X136623000Y-72837000D01*
X136623000Y-71737750D01*
X136877000Y-71737750D01*
X136877000Y-72837000D01*
X138626250Y-72837000D01*
X138785000Y-72678250D01*
X138785000Y-72087690D01*
X138688327Y-71854301D01*
X138509698Y-71675673D01*
X138276309Y-71579000D01*
X137035750Y-71579000D01*
X136877000Y-71737750D01*
X136623000Y-71737750D01*
X136464250Y-71579000D01*
X135223691Y-71579000D01*
X134990302Y-71675673D01*
X134811673Y-71854301D01*
X134715000Y-72087690D01*
X134627000Y-72087690D01*
X134627000Y-71546025D01*
X134763327Y-71409699D01*
X134860000Y-71176310D01*
X134860000Y-70710750D01*
X134701250Y-70552000D01*
X133602000Y-70552000D01*
X133602000Y-70572000D01*
X133348000Y-70572000D01*
X133348000Y-70552000D01*
X133328000Y-70552000D01*
X133328000Y-70298000D01*
X133348000Y-70298000D01*
X133348000Y-70278000D01*
X133602000Y-70278000D01*
X133602000Y-70298000D01*
X134701250Y-70298000D01*
X134860000Y-70139250D01*
X134860000Y-70039606D01*
X135410197Y-70589803D01*
X135410197Y-70589803D01*
G37*
X135410197Y-70589803D02*
X135452211Y-70617666D01*
X135500000Y-70627000D01*
X140623000Y-70627000D01*
X140623000Y-75123000D01*
X134627000Y-75123000D01*
X134627000Y-73249750D01*
X134715000Y-73249750D01*
X134715000Y-73840310D01*
X134811673Y-74073699D01*
X134990302Y-74252327D01*
X135223691Y-74349000D01*
X136464250Y-74349000D01*
X136623000Y-74190250D01*
X136623000Y-73091000D01*
X136877000Y-73091000D01*
X136877000Y-74190250D01*
X137035750Y-74349000D01*
X138276309Y-74349000D01*
X138509698Y-74252327D01*
X138688327Y-74073699D01*
X138785000Y-73840310D01*
X138785000Y-73249750D01*
X138626250Y-73091000D01*
X136877000Y-73091000D01*
X136623000Y-73091000D01*
X134873750Y-73091000D01*
X134715000Y-73249750D01*
X134627000Y-73249750D01*
X134627000Y-72087690D01*
X134715000Y-72087690D01*
X134715000Y-72678250D01*
X134873750Y-72837000D01*
X136623000Y-72837000D01*
X136623000Y-71737750D01*
X136877000Y-71737750D01*
X136877000Y-72837000D01*
X138626250Y-72837000D01*
X138785000Y-72678250D01*
X138785000Y-72087690D01*
X138688327Y-71854301D01*
X138509698Y-71675673D01*
X138276309Y-71579000D01*
X137035750Y-71579000D01*
X136877000Y-71737750D01*
X136623000Y-71737750D01*
X136464250Y-71579000D01*
X135223691Y-71579000D01*
X134990302Y-71675673D01*
X134811673Y-71854301D01*
X134715000Y-72087690D01*
X134627000Y-72087690D01*
X134627000Y-71546025D01*
X134763327Y-71409699D01*
X134860000Y-71176310D01*
X134860000Y-70710750D01*
X134701250Y-70552000D01*
X133602000Y-70552000D01*
X133602000Y-70572000D01*
X133348000Y-70572000D01*
X133348000Y-70552000D01*
X133328000Y-70552000D01*
X133328000Y-70298000D01*
X133348000Y-70298000D01*
X133348000Y-70278000D01*
X133602000Y-70278000D01*
X133602000Y-70298000D01*
X134701250Y-70298000D01*
X134860000Y-70139250D01*
X134860000Y-70039606D01*
X135410197Y-70589803D01*
G36*
X106269673Y-83842192D02*
X106613201Y-83984838D01*
X106985167Y-83985162D01*
X107328943Y-83843117D01*
X107545437Y-83627000D01*
X110415063Y-83627000D01*
X110414838Y-83885167D01*
X110556883Y-84228943D01*
X110819673Y-84492192D01*
X111163201Y-84634838D01*
X111535167Y-84635162D01*
X111864868Y-84498933D01*
X111864836Y-84535167D01*
X111918482Y-84665000D01*
X110285750Y-84665000D01*
X110127000Y-84823750D01*
X110127000Y-86173000D01*
X112376250Y-86173000D01*
X112535000Y-86014250D01*
X112535000Y-85252367D01*
X112613199Y-85284838D01*
X112985165Y-85285162D01*
X113328941Y-85143117D01*
X113592190Y-84880327D01*
X113734836Y-84536799D01*
X113735160Y-84164833D01*
X113593115Y-83821057D01*
X113568479Y-83796378D01*
X113790839Y-83752148D01*
X113874242Y-83696420D01*
X114069673Y-83892192D01*
X114413201Y-84034838D01*
X114623000Y-84035021D01*
X114623000Y-87373000D01*
X112535000Y-87373000D01*
X112535000Y-86585750D01*
X112376250Y-86427000D01*
X110127000Y-86427000D01*
X110127000Y-86447000D01*
X109873000Y-86447000D01*
X109873000Y-86427000D01*
X107623750Y-86427000D01*
X107465000Y-86585750D01*
X107465000Y-87373000D01*
X105127000Y-87373000D01*
X105127000Y-85173690D01*
X107465000Y-85173690D01*
X107465000Y-86014250D01*
X107623750Y-86173000D01*
X109873000Y-86173000D01*
X109873000Y-84823750D01*
X109714250Y-84665000D01*
X107973691Y-84665000D01*
X107740302Y-84761673D01*
X107561673Y-84940301D01*
X107465000Y-85173690D01*
X105127000Y-85173690D01*
X105127000Y-83627000D01*
X106054856Y-83627000D01*
X106269673Y-83842192D01*
X106269673Y-83842192D01*
G37*
X106269673Y-83842192D02*
X106613201Y-83984838D01*
X106985167Y-83985162D01*
X107328943Y-83843117D01*
X107545437Y-83627000D01*
X110415063Y-83627000D01*
X110414838Y-83885167D01*
X110556883Y-84228943D01*
X110819673Y-84492192D01*
X111163201Y-84634838D01*
X111535167Y-84635162D01*
X111864868Y-84498933D01*
X111864836Y-84535167D01*
X111918482Y-84665000D01*
X110285750Y-84665000D01*
X110127000Y-84823750D01*
X110127000Y-86173000D01*
X112376250Y-86173000D01*
X112535000Y-86014250D01*
X112535000Y-85252367D01*
X112613199Y-85284838D01*
X112985165Y-85285162D01*
X113328941Y-85143117D01*
X113592190Y-84880327D01*
X113734836Y-84536799D01*
X113735160Y-84164833D01*
X113593115Y-83821057D01*
X113568479Y-83796378D01*
X113790839Y-83752148D01*
X113874242Y-83696420D01*
X114069673Y-83892192D01*
X114413201Y-84034838D01*
X114623000Y-84035021D01*
X114623000Y-87373000D01*
X112535000Y-87373000D01*
X112535000Y-86585750D01*
X112376250Y-86427000D01*
X110127000Y-86427000D01*
X110127000Y-86447000D01*
X109873000Y-86447000D01*
X109873000Y-86427000D01*
X107623750Y-86427000D01*
X107465000Y-86585750D01*
X107465000Y-87373000D01*
X105127000Y-87373000D01*
X105127000Y-85173690D01*
X107465000Y-85173690D01*
X107465000Y-86014250D01*
X107623750Y-86173000D01*
X109873000Y-86173000D01*
X109873000Y-84823750D01*
X109714250Y-84665000D01*
X107973691Y-84665000D01*
X107740302Y-84761673D01*
X107561673Y-84940301D01*
X107465000Y-85173690D01*
X105127000Y-85173690D01*
X105127000Y-83627000D01*
X106054856Y-83627000D01*
X106269673Y-83842192D01*
G36*
X113029154Y-69053956D02*
X113275716Y-69218703D01*
X113566555Y-69276555D01*
X113873000Y-69276555D01*
X113873000Y-72373000D01*
X112647440Y-72373000D01*
X112647440Y-71800000D01*
X112603162Y-71564683D01*
X112524278Y-71442094D01*
X112573418Y-71323750D01*
X112777000Y-71323750D01*
X112777000Y-72223000D01*
X113426250Y-72223000D01*
X113585000Y-72064250D01*
X113585000Y-71673690D01*
X113488327Y-71440301D01*
X113309698Y-71261673D01*
X113076309Y-71165000D01*
X112935750Y-71165000D01*
X112777000Y-71323750D01*
X112573418Y-71323750D01*
X112640671Y-71161789D01*
X112640995Y-70789823D01*
X112498950Y-70446047D01*
X112377000Y-70323884D01*
X112377000Y-70000000D01*
X112366994Y-69950590D01*
X112338553Y-69908965D01*
X112296159Y-69881685D01*
X112250000Y-69873000D01*
X111276608Y-69873000D01*
X111246495Y-69860496D01*
X110874529Y-69860172D01*
X110843483Y-69873000D01*
X110681069Y-69873000D01*
X110778490Y-69638386D01*
X110778762Y-69325831D01*
X110978945Y-69243117D01*
X111242194Y-68980327D01*
X111285099Y-68877000D01*
X112852198Y-68877000D01*
X113029154Y-69053956D01*
X113029154Y-69053956D01*
G37*
X113029154Y-69053956D02*
X113275716Y-69218703D01*
X113566555Y-69276555D01*
X113873000Y-69276555D01*
X113873000Y-72373000D01*
X112647440Y-72373000D01*
X112647440Y-71800000D01*
X112603162Y-71564683D01*
X112524278Y-71442094D01*
X112573418Y-71323750D01*
X112777000Y-71323750D01*
X112777000Y-72223000D01*
X113426250Y-72223000D01*
X113585000Y-72064250D01*
X113585000Y-71673690D01*
X113488327Y-71440301D01*
X113309698Y-71261673D01*
X113076309Y-71165000D01*
X112935750Y-71165000D01*
X112777000Y-71323750D01*
X112573418Y-71323750D01*
X112640671Y-71161789D01*
X112640995Y-70789823D01*
X112498950Y-70446047D01*
X112377000Y-70323884D01*
X112377000Y-70000000D01*
X112366994Y-69950590D01*
X112338553Y-69908965D01*
X112296159Y-69881685D01*
X112250000Y-69873000D01*
X111276608Y-69873000D01*
X111246495Y-69860496D01*
X110874529Y-69860172D01*
X110843483Y-69873000D01*
X110681069Y-69873000D01*
X110778490Y-69638386D01*
X110778762Y-69325831D01*
X110978945Y-69243117D01*
X111242194Y-68980327D01*
X111285099Y-68877000D01*
X112852198Y-68877000D01*
X113029154Y-69053956D01*
M02*
