G04 #@! TF.FileFunction,Soldermask,Bot*
%FSLAX46Y46*%
G04 Gerber Fmt 4.6, Leading zero omitted, Abs format (unit mm)*
G04 Created by KiCad (PCBNEW 4.0.5) date Mon Feb 27 06:48:06 2017*
%MOMM*%
%LPD*%
G01*
G04 APERTURE LIST*
%ADD10C,0.100000*%
%ADD11R,1.500000X0.650000*%
%ADD12R,0.900000X1.000000*%
%ADD13R,1.900000X1.650000*%
%ADD14R,1.000000X0.900000*%
%ADD15R,2.560000X2.660000*%
%ADD16R,2.660000X2.560000*%
%ADD17R,2.432000X2.127200*%
%ADD18O,2.432000X2.127200*%
%ADD19O,1.650000X1.350000*%
%ADD20O,1.400000X1.950000*%
%ADD21R,2.127200X2.127200*%
%ADD22O,2.127200X2.127200*%
%ADD23R,1.000000X0.800000*%
%ADD24R,0.400000X1.750000*%
%ADD25R,2.080000X1.830000*%
%ADD26C,1.924000*%
%ADD27C,1.901140*%
%ADD28C,4.400000*%
G04 APERTURE END LIST*
D10*
D11*
X119150000Y-81650000D03*
X119150000Y-81150000D03*
X119150000Y-80650000D03*
X119150000Y-80150000D03*
X119150000Y-79650000D03*
X123450000Y-79650000D03*
X123450000Y-80150000D03*
X123450000Y-80650000D03*
X123450000Y-81150000D03*
X123450000Y-81650000D03*
D12*
X110600000Y-83950000D03*
X110600000Y-82850000D03*
X125350000Y-80650000D03*
X125350000Y-79550000D03*
D13*
X106700000Y-68050000D03*
X109200000Y-68050000D03*
X107550000Y-80500000D03*
X110050000Y-80500000D03*
D14*
X107100000Y-79000000D03*
X108200000Y-79000000D03*
X107900000Y-66250000D03*
X109000000Y-66250000D03*
D12*
X118000000Y-65650000D03*
X118000000Y-64550000D03*
D14*
X115200000Y-58250000D03*
X116300000Y-58250000D03*
D15*
X143300000Y-45700000D03*
X138400000Y-45700000D03*
D16*
X131750000Y-72850000D03*
X131750000Y-77750000D03*
D17*
X104000000Y-78740000D03*
D18*
X104000000Y-76200000D03*
X104000000Y-73660000D03*
X104000000Y-71120000D03*
X104000000Y-68580000D03*
X104000000Y-66040000D03*
X104000000Y-63500000D03*
X104000000Y-60960000D03*
X104000000Y-58420000D03*
X104000000Y-55880000D03*
X104000000Y-53340000D03*
X104000000Y-50800000D03*
X104000000Y-48260000D03*
X104000000Y-45720000D03*
X104000000Y-43180000D03*
X104000000Y-40640000D03*
X104000000Y-38100000D03*
X104000000Y-35560000D03*
D17*
X108300000Y-37860000D03*
D18*
X108300000Y-40400000D03*
X108300000Y-42940000D03*
D19*
X126200900Y-32962540D03*
X121200900Y-32962540D03*
D20*
X127200900Y-30262540D03*
X120200900Y-30262540D03*
D17*
X113600000Y-37860000D03*
D18*
X113600000Y-40400000D03*
X113600000Y-42940000D03*
D17*
X146900000Y-35560000D03*
D18*
X146900000Y-38100000D03*
X146900000Y-40640000D03*
X146900000Y-43180000D03*
X146900000Y-45720000D03*
X146900000Y-48260000D03*
X146900000Y-50800000D03*
X146900000Y-53340000D03*
X146900000Y-55880000D03*
X146900000Y-58420000D03*
X146900000Y-60960000D03*
X146900000Y-63500000D03*
X146900000Y-66040000D03*
X146900000Y-68580000D03*
X146900000Y-71120000D03*
X146900000Y-73660000D03*
X146900000Y-76200000D03*
X146900000Y-78740000D03*
X146900000Y-81280000D03*
X146900000Y-83820000D03*
X146900000Y-86360000D03*
D17*
X112900000Y-47800000D03*
D18*
X112900000Y-50340000D03*
X112900000Y-52880000D03*
D17*
X116500000Y-47820000D03*
D18*
X116500000Y-50360000D03*
X116500000Y-52900000D03*
D21*
X136940000Y-49600000D03*
D22*
X136940000Y-52140000D03*
X134400000Y-49600000D03*
X134400000Y-52140000D03*
X131860000Y-49600000D03*
X131860000Y-52140000D03*
D23*
X127900000Y-81050000D03*
X127900000Y-80150000D03*
X117500000Y-81150000D03*
X117500000Y-80250000D03*
X101650000Y-83550000D03*
X101650000Y-84450000D03*
X112150000Y-83450000D03*
X112150000Y-84350000D03*
X116050000Y-80250000D03*
X116050000Y-81150000D03*
X102750000Y-84450000D03*
X102750000Y-83550000D03*
X126700000Y-80150000D03*
X126700000Y-81050000D03*
X113600000Y-84350000D03*
X113600000Y-83450000D03*
X134000000Y-61250000D03*
X134000000Y-62150000D03*
D11*
X104450000Y-84950000D03*
X104450000Y-84450000D03*
X104450000Y-83950000D03*
X104450000Y-83450000D03*
X104450000Y-82950000D03*
X108750000Y-82950000D03*
X108750000Y-83450000D03*
X108750000Y-83950000D03*
X108750000Y-84450000D03*
X108750000Y-84950000D03*
D24*
X108900000Y-64400000D03*
X108400000Y-64400000D03*
X107900000Y-64400000D03*
X107400000Y-64400000D03*
X106900000Y-64400000D03*
X106900000Y-59800000D03*
X107400000Y-59800000D03*
X107900000Y-59800000D03*
X108400000Y-59800000D03*
X108900000Y-59800000D03*
D25*
X107900000Y-62100000D03*
D24*
X108500000Y-76800000D03*
X108000000Y-76800000D03*
X107500000Y-76800000D03*
X107000000Y-76800000D03*
X106500000Y-76800000D03*
X106500000Y-72200000D03*
X107000000Y-72200000D03*
X107500000Y-72200000D03*
X108000000Y-72200000D03*
X108500000Y-72200000D03*
D25*
X107500000Y-74500000D03*
D26*
X132300000Y-60700000D03*
D27*
X115100000Y-65640940D03*
X115100000Y-60759060D03*
D28*
X102500000Y-30000000D03*
X145000000Y-30000000D03*
X140000000Y-90000000D03*
X102500000Y-90000000D03*
M02*
