G04 #@! TF.FileFunction,Legend,Top*
%FSLAX46Y46*%
G04 Gerber Fmt 4.6, Leading zero omitted, Abs format (unit mm)*
G04 Created by KiCad (PCBNEW 4.0.5) date Mon Feb 27 06:48:06 2017*
%MOMM*%
%LPD*%
G01*
G04 APERTURE LIST*
%ADD10C,0.100000*%
%ADD11C,0.200000*%
%ADD12C,0.300000*%
%ADD13C,0.187500*%
%ADD14C,0.150000*%
G04 APERTURE END LIST*
D10*
D11*
X145100000Y-45800000D02*
X145300000Y-45600000D01*
X145100000Y-45350000D02*
X145100000Y-45800000D01*
X145300000Y-45600000D02*
X145100000Y-45350000D01*
X144950000Y-45600000D02*
X145300000Y-45600000D01*
X141700000Y-44300000D02*
X144950000Y-45600000D01*
X142650000Y-38350000D02*
X142950000Y-38000000D01*
X142300000Y-38000000D02*
X142650000Y-38350000D01*
X139550000Y-34100000D02*
X140150000Y-33450000D01*
X138950000Y-33450000D02*
X139550000Y-34100000D01*
X144050000Y-34900000D02*
X145050000Y-34900000D01*
X144050000Y-35350000D02*
X144050000Y-34900000D01*
X143800000Y-36300000D02*
X144300000Y-36300000D01*
X143550000Y-35850000D02*
X144500000Y-35850000D01*
X143200000Y-35400000D02*
X144850000Y-35400000D01*
X143950000Y-41350000D02*
X145250000Y-41350000D01*
X143950000Y-41100000D02*
X143950000Y-41350000D01*
X143950000Y-37750000D02*
X145200000Y-37750000D01*
X143950000Y-38100000D02*
X143950000Y-37750000D01*
X144584524Y-38240476D02*
X144584524Y-39014286D01*
X144108333Y-38597619D01*
X144108333Y-38776191D01*
X144048810Y-38895238D01*
X143989286Y-38954762D01*
X143870238Y-39014286D01*
X143572619Y-39014286D01*
X143453571Y-38954762D01*
X143394048Y-38895238D01*
X143334524Y-38776191D01*
X143334524Y-38419048D01*
X143394048Y-38300000D01*
X143453571Y-38240476D01*
X143453571Y-39550000D02*
X143394048Y-39609524D01*
X143334524Y-39550000D01*
X143394048Y-39490476D01*
X143453571Y-39550000D01*
X143334524Y-39550000D01*
X144584524Y-40026190D02*
X144584524Y-40800000D01*
X144108333Y-40383333D01*
X144108333Y-40561905D01*
X144048810Y-40680952D01*
X143989286Y-40740476D01*
X143870238Y-40800000D01*
X143572619Y-40800000D01*
X143453571Y-40740476D01*
X143394048Y-40680952D01*
X143334524Y-40561905D01*
X143334524Y-40204762D01*
X143394048Y-40085714D01*
X143453571Y-40026190D01*
X145100000Y-43350000D02*
X145300000Y-43150000D01*
X145100000Y-42950000D02*
X145100000Y-43350000D01*
X145300000Y-43150000D02*
X145100000Y-42950000D01*
X144950000Y-43150000D02*
X145300000Y-43150000D01*
X142650000Y-42300000D02*
X144950000Y-43150000D01*
X142650000Y-37450000D02*
X142650000Y-42250000D01*
X141600000Y-36600000D02*
X142650000Y-37450000D01*
X141700000Y-37850000D02*
X141700000Y-44300000D01*
X139550000Y-36100000D02*
X141700000Y-37850000D01*
X139550000Y-35400000D02*
X139550000Y-36100000D01*
X139550000Y-32800000D02*
X139550000Y-35400000D01*
X141041667Y-29945238D02*
X141041667Y-30540476D01*
X140684524Y-29826191D02*
X141934524Y-30242857D01*
X140684524Y-30659524D01*
X141934524Y-31076191D02*
X140922619Y-31076191D01*
X140803571Y-31135715D01*
X140744048Y-31195239D01*
X140684524Y-31314286D01*
X140684524Y-31552382D01*
X140744048Y-31671429D01*
X140803571Y-31730953D01*
X140922619Y-31790477D01*
X141934524Y-31790477D01*
X141934524Y-32266667D02*
X140684524Y-33100001D01*
X141934524Y-33100001D02*
X140684524Y-32266667D01*
X140565476Y-33278572D02*
X140565476Y-34230953D01*
X141934524Y-35064286D02*
X141934524Y-34826191D01*
X141875000Y-34707143D01*
X141815476Y-34647620D01*
X141636905Y-34528572D01*
X141398810Y-34469048D01*
X140922619Y-34469048D01*
X140803571Y-34528572D01*
X140744048Y-34588096D01*
X140684524Y-34707143D01*
X140684524Y-34945239D01*
X140744048Y-35064286D01*
X140803571Y-35123810D01*
X140922619Y-35183334D01*
X141220238Y-35183334D01*
X141339286Y-35123810D01*
X141398810Y-35064286D01*
X141458333Y-34945239D01*
X141458333Y-34707143D01*
X141398810Y-34588096D01*
X141339286Y-34528572D01*
X141220238Y-34469048D01*
X141934524Y-35540477D02*
X140684524Y-35957143D01*
X141934524Y-36373810D01*
X140084524Y-29830953D02*
X138834524Y-30247619D01*
X140084524Y-30664286D01*
X138834524Y-31080953D02*
X140084524Y-31080953D01*
X138834524Y-31676191D02*
X140084524Y-31676191D01*
X138834524Y-32390477D01*
X140084524Y-32390477D01*
X102400000Y-84850000D02*
X103000000Y-84850000D01*
X101300000Y-84700000D02*
X101300000Y-85050000D01*
X101700000Y-84350000D02*
X101700000Y-85350000D01*
X102150000Y-83950000D02*
X102150000Y-85750000D01*
X101600000Y-76300000D02*
X102400000Y-76300000D01*
X104450000Y-81050000D02*
X104200000Y-80650000D01*
X103900000Y-81050000D02*
X104450000Y-81050000D01*
X104200000Y-80650000D02*
X103900000Y-81050000D01*
X104200000Y-82350000D02*
X104200000Y-80650000D01*
D12*
X104950000Y-83707143D02*
X105021429Y-83564286D01*
X105021429Y-83350000D01*
X104950000Y-83135715D01*
X104807143Y-82992857D01*
X104664286Y-82921429D01*
X104378571Y-82850000D01*
X104164286Y-82850000D01*
X103878571Y-82921429D01*
X103735714Y-82992857D01*
X103592857Y-83135715D01*
X103521429Y-83350000D01*
X103521429Y-83492857D01*
X103592857Y-83707143D01*
X103664286Y-83778572D01*
X104164286Y-83778572D01*
X104164286Y-83492857D01*
X103521429Y-84421429D02*
X105021429Y-84421429D01*
X103521429Y-85278572D01*
X105021429Y-85278572D01*
X103521429Y-85992858D02*
X105021429Y-85992858D01*
X105021429Y-86350001D01*
X104950000Y-86564286D01*
X104807143Y-86707144D01*
X104664286Y-86778572D01*
X104378571Y-86850001D01*
X104164286Y-86850001D01*
X103878571Y-86778572D01*
X103735714Y-86707144D01*
X103592857Y-86564286D01*
X103521429Y-86350001D01*
X103521429Y-85992858D01*
X142557143Y-47453571D02*
X143414286Y-47453571D01*
X142985715Y-48953571D02*
X142985715Y-47453571D01*
X143771429Y-47453571D02*
X144771429Y-48953571D01*
X144771429Y-47453571D02*
X143771429Y-48953571D01*
X143450001Y-51503571D02*
X142950001Y-50789286D01*
X142592858Y-51503571D02*
X142592858Y-50003571D01*
X143164286Y-50003571D01*
X143307144Y-50075000D01*
X143378572Y-50146429D01*
X143450001Y-50289286D01*
X143450001Y-50503571D01*
X143378572Y-50646429D01*
X143307144Y-50717857D01*
X143164286Y-50789286D01*
X142592858Y-50789286D01*
X143950001Y-50003571D02*
X144950001Y-51503571D01*
X144950001Y-50003571D02*
X143950001Y-51503571D01*
X142642858Y-54003571D02*
X142642858Y-52503571D01*
X143000001Y-52503571D01*
X143214286Y-52575000D01*
X143357144Y-52717857D01*
X143428572Y-52860714D01*
X143500001Y-53146429D01*
X143500001Y-53360714D01*
X143428572Y-53646429D01*
X143357144Y-53789286D01*
X143214286Y-53932143D01*
X143000001Y-54003571D01*
X142642858Y-54003571D01*
X144357144Y-53146429D02*
X144214286Y-53075000D01*
X144142858Y-53003571D01*
X144071429Y-52860714D01*
X144071429Y-52789286D01*
X144142858Y-52646429D01*
X144214286Y-52575000D01*
X144357144Y-52503571D01*
X144642858Y-52503571D01*
X144785715Y-52575000D01*
X144857144Y-52646429D01*
X144928572Y-52789286D01*
X144928572Y-52860714D01*
X144857144Y-53003571D01*
X144785715Y-53075000D01*
X144642858Y-53146429D01*
X144357144Y-53146429D01*
X144214286Y-53217857D01*
X144142858Y-53289286D01*
X144071429Y-53432143D01*
X144071429Y-53717857D01*
X144142858Y-53860714D01*
X144214286Y-53932143D01*
X144357144Y-54003571D01*
X144642858Y-54003571D01*
X144785715Y-53932143D01*
X144857144Y-53860714D01*
X144928572Y-53717857D01*
X144928572Y-53432143D01*
X144857144Y-53289286D01*
X144785715Y-53217857D01*
X144642858Y-53146429D01*
X142642858Y-56553571D02*
X142642858Y-55053571D01*
X143000001Y-55053571D01*
X143214286Y-55125000D01*
X143357144Y-55267857D01*
X143428572Y-55410714D01*
X143500001Y-55696429D01*
X143500001Y-55910714D01*
X143428572Y-56196429D01*
X143357144Y-56339286D01*
X143214286Y-56482143D01*
X143000001Y-56553571D01*
X142642858Y-56553571D01*
X144000001Y-55053571D02*
X145000001Y-55053571D01*
X144357144Y-56553571D01*
X142642858Y-59103571D02*
X142642858Y-57603571D01*
X143000001Y-57603571D01*
X143214286Y-57675000D01*
X143357144Y-57817857D01*
X143428572Y-57960714D01*
X143500001Y-58246429D01*
X143500001Y-58460714D01*
X143428572Y-58746429D01*
X143357144Y-58889286D01*
X143214286Y-59032143D01*
X143000001Y-59103571D01*
X142642858Y-59103571D01*
X144785715Y-57603571D02*
X144500001Y-57603571D01*
X144357144Y-57675000D01*
X144285715Y-57746429D01*
X144142858Y-57960714D01*
X144071429Y-58246429D01*
X144071429Y-58817857D01*
X144142858Y-58960714D01*
X144214286Y-59032143D01*
X144357144Y-59103571D01*
X144642858Y-59103571D01*
X144785715Y-59032143D01*
X144857144Y-58960714D01*
X144928572Y-58817857D01*
X144928572Y-58460714D01*
X144857144Y-58317857D01*
X144785715Y-58246429D01*
X144642858Y-58175000D01*
X144357144Y-58175000D01*
X144214286Y-58246429D01*
X144142858Y-58317857D01*
X144071429Y-58460714D01*
X142642858Y-61653571D02*
X142642858Y-60153571D01*
X143000001Y-60153571D01*
X143214286Y-60225000D01*
X143357144Y-60367857D01*
X143428572Y-60510714D01*
X143500001Y-60796429D01*
X143500001Y-61010714D01*
X143428572Y-61296429D01*
X143357144Y-61439286D01*
X143214286Y-61582143D01*
X143000001Y-61653571D01*
X142642858Y-61653571D01*
X144857144Y-60153571D02*
X144142858Y-60153571D01*
X144071429Y-60867857D01*
X144142858Y-60796429D01*
X144285715Y-60725000D01*
X144642858Y-60725000D01*
X144785715Y-60796429D01*
X144857144Y-60867857D01*
X144928572Y-61010714D01*
X144928572Y-61367857D01*
X144857144Y-61510714D01*
X144785715Y-61582143D01*
X144642858Y-61653571D01*
X144285715Y-61653571D01*
X144142858Y-61582143D01*
X144071429Y-61510714D01*
X140242857Y-64278571D02*
X140242857Y-62778571D01*
X140742857Y-63850000D01*
X141242857Y-62778571D01*
X141242857Y-64278571D01*
X141957143Y-64278571D02*
X141957143Y-62778571D01*
X142600000Y-64207143D02*
X142814286Y-64278571D01*
X143171429Y-64278571D01*
X143314286Y-64207143D01*
X143385715Y-64135714D01*
X143457143Y-63992857D01*
X143457143Y-63850000D01*
X143385715Y-63707143D01*
X143314286Y-63635714D01*
X143171429Y-63564286D01*
X142885715Y-63492857D01*
X142742857Y-63421429D01*
X142671429Y-63350000D01*
X142600000Y-63207143D01*
X142600000Y-63064286D01*
X142671429Y-62921429D01*
X142742857Y-62850000D01*
X142885715Y-62778571D01*
X143242857Y-62778571D01*
X143457143Y-62850000D01*
X144385714Y-62778571D02*
X144671428Y-62778571D01*
X144814286Y-62850000D01*
X144957143Y-62992857D01*
X145028571Y-63278571D01*
X145028571Y-63778571D01*
X144957143Y-64064286D01*
X144814286Y-64207143D01*
X144671428Y-64278571D01*
X144385714Y-64278571D01*
X144242857Y-64207143D01*
X144100000Y-64064286D01*
X144028571Y-63778571D01*
X144028571Y-63278571D01*
X144100000Y-62992857D01*
X144242857Y-62850000D01*
X144385714Y-62778571D01*
X140242857Y-66828571D02*
X140242857Y-65328571D01*
X140742857Y-66400000D01*
X141242857Y-65328571D01*
X141242857Y-66828571D01*
X142242857Y-65328571D02*
X142528571Y-65328571D01*
X142671429Y-65400000D01*
X142814286Y-65542857D01*
X142885714Y-65828571D01*
X142885714Y-66328571D01*
X142814286Y-66614286D01*
X142671429Y-66757143D01*
X142528571Y-66828571D01*
X142242857Y-66828571D01*
X142100000Y-66757143D01*
X141957143Y-66614286D01*
X141885714Y-66328571D01*
X141885714Y-65828571D01*
X141957143Y-65542857D01*
X142100000Y-65400000D01*
X142242857Y-65328571D01*
X143457143Y-66757143D02*
X143671429Y-66828571D01*
X144028572Y-66828571D01*
X144171429Y-66757143D01*
X144242858Y-66685714D01*
X144314286Y-66542857D01*
X144314286Y-66400000D01*
X144242858Y-66257143D01*
X144171429Y-66185714D01*
X144028572Y-66114286D01*
X143742858Y-66042857D01*
X143600000Y-65971429D01*
X143528572Y-65900000D01*
X143457143Y-65757143D01*
X143457143Y-65614286D01*
X143528572Y-65471429D01*
X143600000Y-65400000D01*
X143742858Y-65328571D01*
X144100000Y-65328571D01*
X144314286Y-65400000D01*
X144957143Y-66828571D02*
X144957143Y-65328571D01*
X141707143Y-69235714D02*
X141635714Y-69307143D01*
X141421428Y-69378571D01*
X141278571Y-69378571D01*
X141064286Y-69307143D01*
X140921428Y-69164286D01*
X140850000Y-69021429D01*
X140778571Y-68735714D01*
X140778571Y-68521429D01*
X140850000Y-68235714D01*
X140921428Y-68092857D01*
X141064286Y-67950000D01*
X141278571Y-67878571D01*
X141421428Y-67878571D01*
X141635714Y-67950000D01*
X141707143Y-68021429D01*
X143064286Y-69378571D02*
X142350000Y-69378571D01*
X142350000Y-67878571D01*
X143564286Y-69378571D02*
X143564286Y-67878571D01*
X144421429Y-69378571D02*
X143778572Y-68521429D01*
X144421429Y-67878571D02*
X143564286Y-68735714D01*
X142928572Y-71450000D02*
X143642858Y-71450000D01*
X142785715Y-71878571D02*
X143285715Y-70378571D01*
X143785715Y-71878571D01*
X145000001Y-70378571D02*
X144285715Y-70378571D01*
X144214286Y-71092857D01*
X144285715Y-71021429D01*
X144428572Y-70950000D01*
X144785715Y-70950000D01*
X144928572Y-71021429D01*
X145000001Y-71092857D01*
X145071429Y-71235714D01*
X145071429Y-71592857D01*
X145000001Y-71735714D01*
X144928572Y-71807143D01*
X144785715Y-71878571D01*
X144428572Y-71878571D01*
X144285715Y-71807143D01*
X144214286Y-71735714D01*
X142928572Y-73950000D02*
X143642858Y-73950000D01*
X142785715Y-74378571D02*
X143285715Y-72878571D01*
X143785715Y-74378571D01*
X144928572Y-73378571D02*
X144928572Y-74378571D01*
X144571429Y-72807143D02*
X144214286Y-73878571D01*
X145142858Y-73878571D01*
X142928572Y-76500000D02*
X143642858Y-76500000D01*
X142785715Y-76928571D02*
X143285715Y-75428571D01*
X143785715Y-76928571D01*
X144142858Y-75428571D02*
X145071429Y-75428571D01*
X144571429Y-76000000D01*
X144785715Y-76000000D01*
X144928572Y-76071429D01*
X145000001Y-76142857D01*
X145071429Y-76285714D01*
X145071429Y-76642857D01*
X145000001Y-76785714D01*
X144928572Y-76857143D01*
X144785715Y-76928571D01*
X144357143Y-76928571D01*
X144214286Y-76857143D01*
X144142858Y-76785714D01*
X142928572Y-79100000D02*
X143642858Y-79100000D01*
X142785715Y-79528571D02*
X143285715Y-78028571D01*
X143785715Y-79528571D01*
X144214286Y-78171429D02*
X144285715Y-78100000D01*
X144428572Y-78028571D01*
X144785715Y-78028571D01*
X144928572Y-78100000D01*
X145000001Y-78171429D01*
X145071429Y-78314286D01*
X145071429Y-78457143D01*
X145000001Y-78671429D01*
X144142858Y-79528571D01*
X145071429Y-79528571D01*
X142928572Y-81600000D02*
X143642858Y-81600000D01*
X142785715Y-82028571D02*
X143285715Y-80528571D01*
X143785715Y-82028571D01*
X145071429Y-82028571D02*
X144214286Y-82028571D01*
X144642858Y-82028571D02*
X144642858Y-80528571D01*
X144500001Y-80742857D01*
X144357143Y-80885714D01*
X144214286Y-80957143D01*
X142928572Y-84200000D02*
X143642858Y-84200000D01*
X142785715Y-84628571D02*
X143285715Y-83128571D01*
X143785715Y-84628571D01*
X144571429Y-83128571D02*
X144714286Y-83128571D01*
X144857143Y-83200000D01*
X144928572Y-83271429D01*
X145000001Y-83414286D01*
X145071429Y-83700000D01*
X145071429Y-84057143D01*
X145000001Y-84342857D01*
X144928572Y-84485714D01*
X144857143Y-84557143D01*
X144714286Y-84628571D01*
X144571429Y-84628571D01*
X144428572Y-84557143D01*
X144357143Y-84485714D01*
X144285715Y-84342857D01*
X144214286Y-84057143D01*
X144214286Y-83700000D01*
X144285715Y-83414286D01*
X144357143Y-83271429D01*
X144428572Y-83200000D01*
X144571429Y-83128571D01*
X140121429Y-86650000D02*
X140835715Y-86650000D01*
X139978572Y-87078571D02*
X140478572Y-85578571D01*
X140978572Y-87078571D01*
X142335715Y-87078571D02*
X141835715Y-86364286D01*
X141478572Y-87078571D02*
X141478572Y-85578571D01*
X142050000Y-85578571D01*
X142192858Y-85650000D01*
X142264286Y-85721429D01*
X142335715Y-85864286D01*
X142335715Y-86078571D01*
X142264286Y-86221429D01*
X142192858Y-86292857D01*
X142050000Y-86364286D01*
X141478572Y-86364286D01*
X142978572Y-86292857D02*
X143478572Y-86292857D01*
X143692858Y-87078571D02*
X142978572Y-87078571D01*
X142978572Y-85578571D01*
X143692858Y-85578571D01*
X144835715Y-86292857D02*
X144335715Y-86292857D01*
X144335715Y-87078571D02*
X144335715Y-85578571D01*
X145050001Y-85578571D01*
X99942858Y-54028571D02*
X99942858Y-52528571D01*
X100300001Y-52528571D01*
X100514286Y-52600000D01*
X100657144Y-52742857D01*
X100728572Y-52885714D01*
X100800001Y-53171429D01*
X100800001Y-53385714D01*
X100728572Y-53671429D01*
X100657144Y-53814286D01*
X100514286Y-53957143D01*
X100300001Y-54028571D01*
X99942858Y-54028571D01*
X102085715Y-53028571D02*
X102085715Y-54028571D01*
X101728572Y-52457143D02*
X101371429Y-53528571D01*
X102300001Y-53528571D01*
X99942858Y-48978571D02*
X99942858Y-47478571D01*
X100300001Y-47478571D01*
X100514286Y-47550000D01*
X100657144Y-47692857D01*
X100728572Y-47835714D01*
X100800001Y-48121429D01*
X100800001Y-48335714D01*
X100728572Y-48621429D01*
X100657144Y-48764286D01*
X100514286Y-48907143D01*
X100300001Y-48978571D01*
X99942858Y-48978571D01*
X101300001Y-47478571D02*
X102228572Y-47478571D01*
X101728572Y-48050000D01*
X101942858Y-48050000D01*
X102085715Y-48121429D01*
X102157144Y-48192857D01*
X102228572Y-48335714D01*
X102228572Y-48692857D01*
X102157144Y-48835714D01*
X102085715Y-48907143D01*
X101942858Y-48978571D01*
X101514286Y-48978571D01*
X101371429Y-48907143D01*
X101300001Y-48835714D01*
X99892858Y-43928571D02*
X99892858Y-42428571D01*
X100250001Y-42428571D01*
X100464286Y-42500000D01*
X100607144Y-42642857D01*
X100678572Y-42785714D01*
X100750001Y-43071429D01*
X100750001Y-43285714D01*
X100678572Y-43571429D01*
X100607144Y-43714286D01*
X100464286Y-43857143D01*
X100250001Y-43928571D01*
X99892858Y-43928571D01*
X101321429Y-42571429D02*
X101392858Y-42500000D01*
X101535715Y-42428571D01*
X101892858Y-42428571D01*
X102035715Y-42500000D01*
X102107144Y-42571429D01*
X102178572Y-42714286D01*
X102178572Y-42857143D01*
X102107144Y-43071429D01*
X101250001Y-43928571D01*
X102178572Y-43928571D01*
X99942858Y-38878571D02*
X99942858Y-37378571D01*
X100300001Y-37378571D01*
X100514286Y-37450000D01*
X100657144Y-37592857D01*
X100728572Y-37735714D01*
X100800001Y-38021429D01*
X100800001Y-38235714D01*
X100728572Y-38521429D01*
X100657144Y-38664286D01*
X100514286Y-38807143D01*
X100300001Y-38878571D01*
X99942858Y-38878571D01*
X102228572Y-38878571D02*
X101371429Y-38878571D01*
X101800001Y-38878571D02*
X101800001Y-37378571D01*
X101657144Y-37592857D01*
X101514286Y-37735714D01*
X101371429Y-37807143D01*
X139271429Y-48685715D02*
X140771429Y-48685715D01*
X139414286Y-50257144D02*
X139342857Y-50185715D01*
X139271429Y-49971429D01*
X139271429Y-49828572D01*
X139342857Y-49614287D01*
X139485714Y-49471429D01*
X139628571Y-49400001D01*
X139914286Y-49328572D01*
X140128571Y-49328572D01*
X140414286Y-49400001D01*
X140557143Y-49471429D01*
X140700000Y-49614287D01*
X140771429Y-49828572D01*
X140771429Y-49971429D01*
X140700000Y-50185715D01*
X140628571Y-50257144D01*
X139342857Y-50828572D02*
X139271429Y-51042858D01*
X139271429Y-51400001D01*
X139342857Y-51542858D01*
X139414286Y-51614287D01*
X139557143Y-51685715D01*
X139700000Y-51685715D01*
X139842857Y-51614287D01*
X139914286Y-51542858D01*
X139985714Y-51400001D01*
X140057143Y-51114287D01*
X140128571Y-50971429D01*
X140200000Y-50900001D01*
X140342857Y-50828572D01*
X140485714Y-50828572D01*
X140628571Y-50900001D01*
X140700000Y-50971429D01*
X140771429Y-51114287D01*
X140771429Y-51471429D01*
X140700000Y-51685715D01*
X139271429Y-52328572D02*
X140771429Y-52328572D01*
X140771429Y-52900000D01*
X140700000Y-53042858D01*
X140628571Y-53114286D01*
X140485714Y-53185715D01*
X140271429Y-53185715D01*
X140128571Y-53114286D01*
X140057143Y-53042858D01*
X139985714Y-52900000D01*
X139985714Y-52328572D01*
D11*
X116200000Y-45500000D02*
X116200000Y-45950000D01*
X113500000Y-45500000D02*
X116200000Y-45500000D01*
X112600000Y-45550000D02*
X112600000Y-45950000D01*
X113750000Y-44850000D02*
X113550000Y-44650000D01*
X113300000Y-44850000D02*
X113750000Y-44850000D01*
X113550000Y-44650000D02*
X113300000Y-44850000D01*
X113550000Y-45500000D02*
X113550000Y-44650000D01*
X109450000Y-45500000D02*
X113550000Y-45500000D01*
X108900000Y-44850000D02*
X108650000Y-44600000D01*
X108350000Y-44850000D02*
X108900000Y-44850000D01*
X108650000Y-44600000D02*
X108350000Y-44850000D01*
X108650000Y-44850000D02*
X108650000Y-44600000D01*
X108650000Y-45500000D02*
X108650000Y-44850000D01*
X109450000Y-45500000D02*
X108650000Y-45500000D01*
X109450000Y-46600000D02*
X109450000Y-45500000D01*
D12*
X108942857Y-47557143D02*
X108871429Y-47771429D01*
X108871429Y-48128572D01*
X108942857Y-48271429D01*
X109014286Y-48342858D01*
X109157143Y-48414286D01*
X109300000Y-48414286D01*
X109442857Y-48342858D01*
X109514286Y-48271429D01*
X109585714Y-48128572D01*
X109657143Y-47842858D01*
X109728571Y-47700000D01*
X109800000Y-47628572D01*
X109942857Y-47557143D01*
X110085714Y-47557143D01*
X110228571Y-47628572D01*
X110300000Y-47700000D01*
X110371429Y-47842858D01*
X110371429Y-48200000D01*
X110300000Y-48414286D01*
X108942857Y-49628571D02*
X108871429Y-49485714D01*
X108871429Y-49200000D01*
X108942857Y-49057143D01*
X109085714Y-48985714D01*
X109657143Y-48985714D01*
X109800000Y-49057143D01*
X109871429Y-49200000D01*
X109871429Y-49485714D01*
X109800000Y-49628571D01*
X109657143Y-49700000D01*
X109514286Y-49700000D01*
X109371429Y-48985714D01*
X108871429Y-50342857D02*
X109871429Y-50342857D01*
X109585714Y-50342857D02*
X109728571Y-50414285D01*
X109800000Y-50485714D01*
X109871429Y-50628571D01*
X109871429Y-50771428D01*
X109871429Y-51128571D02*
X108871429Y-51485714D01*
X109871429Y-51842856D01*
X108871429Y-52628571D02*
X108942857Y-52485713D01*
X109014286Y-52414285D01*
X109157143Y-52342856D01*
X109585714Y-52342856D01*
X109728571Y-52414285D01*
X109800000Y-52485713D01*
X109871429Y-52628571D01*
X109871429Y-52842856D01*
X109800000Y-52985713D01*
X109728571Y-53057142D01*
X109585714Y-53128571D01*
X109157143Y-53128571D01*
X109014286Y-53057142D01*
X108942857Y-52985713D01*
X108871429Y-52842856D01*
X108871429Y-52628571D01*
X108942857Y-53699999D02*
X108871429Y-53842856D01*
X108871429Y-54128571D01*
X108942857Y-54271428D01*
X109085714Y-54342856D01*
X109157143Y-54342856D01*
X109300000Y-54271428D01*
X109371429Y-54128571D01*
X109371429Y-53914285D01*
X109442857Y-53771428D01*
X109585714Y-53699999D01*
X109657143Y-53699999D01*
X109800000Y-53771428D01*
X109871429Y-53914285D01*
X109871429Y-54128571D01*
X109800000Y-54271428D01*
X100142857Y-50957143D02*
X100214286Y-50885714D01*
X100357143Y-50814286D01*
X100642857Y-50957143D01*
X100785714Y-50885714D01*
X100857143Y-50814286D01*
X102071429Y-50528571D02*
X102071429Y-51528571D01*
X101714286Y-49957143D02*
X101357143Y-51028571D01*
X102285715Y-51028571D01*
X100142857Y-45807143D02*
X100214286Y-45735714D01*
X100357143Y-45664286D01*
X100642857Y-45807143D01*
X100785714Y-45735714D01*
X100857143Y-45664286D01*
X101285715Y-44878571D02*
X102214286Y-44878571D01*
X101714286Y-45450000D01*
X101928572Y-45450000D01*
X102071429Y-45521429D01*
X102142858Y-45592857D01*
X102214286Y-45735714D01*
X102214286Y-46092857D01*
X102142858Y-46235714D01*
X102071429Y-46307143D01*
X101928572Y-46378571D01*
X101500000Y-46378571D01*
X101357143Y-46307143D01*
X101285715Y-46235714D01*
X100092857Y-40807143D02*
X100164286Y-40735714D01*
X100307143Y-40664286D01*
X100592857Y-40807143D01*
X100735714Y-40735714D01*
X100807143Y-40664286D01*
X101307143Y-40021429D02*
X101378572Y-39950000D01*
X101521429Y-39878571D01*
X101878572Y-39878571D01*
X102021429Y-39950000D01*
X102092858Y-40021429D01*
X102164286Y-40164286D01*
X102164286Y-40307143D01*
X102092858Y-40521429D01*
X101235715Y-41378571D01*
X102164286Y-41378571D01*
X100092857Y-35757143D02*
X100164286Y-35685714D01*
X100307143Y-35614286D01*
X100592857Y-35757143D01*
X100735714Y-35685714D01*
X100807143Y-35614286D01*
X102164286Y-36328571D02*
X101307143Y-36328571D01*
X101735715Y-36328571D02*
X101735715Y-34828571D01*
X101592858Y-35042857D01*
X101450000Y-35185714D01*
X101307143Y-35257143D01*
D11*
X99900000Y-54650000D02*
X102500000Y-54650000D01*
X99900000Y-59750000D02*
X99900000Y-54650000D01*
X99900000Y-59700000D02*
X102500000Y-59700000D01*
X99900000Y-64950000D02*
X99900000Y-59700000D01*
X99900000Y-64900000D02*
X102500000Y-64900000D01*
X99900000Y-70000000D02*
X99900000Y-64900000D01*
X99900000Y-74950000D02*
X102500000Y-74950000D01*
X99900000Y-69950000D02*
X99900000Y-74950000D01*
X99900000Y-69950000D02*
X102500000Y-69950000D01*
D12*
X100571429Y-71185715D02*
X102071429Y-71185715D01*
X101000000Y-71685715D01*
X102071429Y-72185715D01*
X100571429Y-72185715D01*
X101571429Y-73542858D02*
X100571429Y-73542858D01*
X102142857Y-73185715D02*
X101071429Y-72828572D01*
X101071429Y-73757144D01*
X100471429Y-66135715D02*
X101971429Y-66135715D01*
X100900000Y-66635715D01*
X101971429Y-67135715D01*
X100471429Y-67135715D01*
X101971429Y-67707144D02*
X101971429Y-68635715D01*
X101400000Y-68135715D01*
X101400000Y-68350001D01*
X101328571Y-68492858D01*
X101257143Y-68564287D01*
X101114286Y-68635715D01*
X100757143Y-68635715D01*
X100614286Y-68564287D01*
X100542857Y-68492858D01*
X100471429Y-68350001D01*
X100471429Y-67921429D01*
X100542857Y-67778572D01*
X100614286Y-67707144D01*
X100471429Y-61135715D02*
X101971429Y-61135715D01*
X100900000Y-61635715D01*
X101971429Y-62135715D01*
X100471429Y-62135715D01*
X101828571Y-62778572D02*
X101900000Y-62850001D01*
X101971429Y-62992858D01*
X101971429Y-63350001D01*
X101900000Y-63492858D01*
X101828571Y-63564287D01*
X101685714Y-63635715D01*
X101542857Y-63635715D01*
X101328571Y-63564287D01*
X100471429Y-62707144D01*
X100471429Y-63635715D01*
X100521429Y-56135715D02*
X102021429Y-56135715D01*
X100950000Y-56635715D01*
X102021429Y-57135715D01*
X100521429Y-57135715D01*
X100521429Y-58635715D02*
X100521429Y-57778572D01*
X100521429Y-58207144D02*
X102021429Y-58207144D01*
X101807143Y-58064287D01*
X101664286Y-57921429D01*
X101592857Y-57778572D01*
X101171429Y-75833333D02*
X101171429Y-76666667D01*
X99671429Y-76130952D01*
X100242857Y-77142857D02*
X100242857Y-78095238D01*
X101028571Y-78630952D02*
X101100000Y-78690476D01*
X101171429Y-78809524D01*
X101171429Y-79107143D01*
X101100000Y-79226190D01*
X101028571Y-79285714D01*
X100885714Y-79345238D01*
X100742857Y-79345238D01*
X100528571Y-79285714D01*
X99671429Y-78571428D01*
X99671429Y-79345238D01*
X101171429Y-80119047D02*
X101171429Y-80238095D01*
X101100000Y-80357143D01*
X101028571Y-80416666D01*
X100885714Y-80476190D01*
X100600000Y-80535714D01*
X100242857Y-80535714D01*
X99957143Y-80476190D01*
X99814286Y-80416666D01*
X99742857Y-80357143D01*
X99671429Y-80238095D01*
X99671429Y-80119047D01*
X99742857Y-80000000D01*
X99814286Y-79940476D01*
X99957143Y-79880952D01*
X100242857Y-79821428D01*
X100600000Y-79821428D01*
X100885714Y-79880952D01*
X101028571Y-79940476D01*
X101100000Y-80000000D01*
X101171429Y-80119047D01*
X101171429Y-80892857D02*
X99671429Y-81309523D01*
X101171429Y-81726190D01*
D13*
X107357143Y-29620536D02*
X107107143Y-29263393D01*
X106928571Y-29620536D02*
X106928571Y-28870536D01*
X107214286Y-28870536D01*
X107285714Y-28906250D01*
X107321429Y-28941964D01*
X107357143Y-29013393D01*
X107357143Y-29120536D01*
X107321429Y-29191964D01*
X107285714Y-29227679D01*
X107214286Y-29263393D01*
X106928571Y-29263393D01*
X107785714Y-29620536D02*
X107714286Y-29584821D01*
X107678571Y-29549107D01*
X107642857Y-29477679D01*
X107642857Y-29263393D01*
X107678571Y-29191964D01*
X107714286Y-29156250D01*
X107785714Y-29120536D01*
X107892857Y-29120536D01*
X107964286Y-29156250D01*
X108000000Y-29191964D01*
X108035714Y-29263393D01*
X108035714Y-29477679D01*
X108000000Y-29549107D01*
X107964286Y-29584821D01*
X107892857Y-29620536D01*
X107785714Y-29620536D01*
X108357142Y-29620536D02*
X108357142Y-28870536D01*
X108357142Y-29156250D02*
X108428571Y-29120536D01*
X108571428Y-29120536D01*
X108642857Y-29156250D01*
X108678571Y-29191964D01*
X108714285Y-29263393D01*
X108714285Y-29477679D01*
X108678571Y-29549107D01*
X108642857Y-29584821D01*
X108571428Y-29620536D01*
X108428571Y-29620536D01*
X108357142Y-29584821D01*
X109142856Y-29620536D02*
X109071428Y-29584821D01*
X109035713Y-29549107D01*
X108999999Y-29477679D01*
X108999999Y-29263393D01*
X109035713Y-29191964D01*
X109071428Y-29156250D01*
X109142856Y-29120536D01*
X109249999Y-29120536D01*
X109321428Y-29156250D01*
X109357142Y-29191964D01*
X109392856Y-29263393D01*
X109392856Y-29477679D01*
X109357142Y-29549107D01*
X109321428Y-29584821D01*
X109249999Y-29620536D01*
X109142856Y-29620536D01*
X109964284Y-29227679D02*
X110071427Y-29263393D01*
X110107142Y-29299107D01*
X110142856Y-29370536D01*
X110142856Y-29477679D01*
X110107142Y-29549107D01*
X110071427Y-29584821D01*
X109999999Y-29620536D01*
X109714284Y-29620536D01*
X109714284Y-28870536D01*
X109964284Y-28870536D01*
X110035713Y-28906250D01*
X110071427Y-28941964D01*
X110107142Y-29013393D01*
X110107142Y-29084821D01*
X110071427Y-29156250D01*
X110035713Y-29191964D01*
X109964284Y-29227679D01*
X109714284Y-29227679D01*
X110571427Y-29620536D02*
X110499999Y-29584821D01*
X110464284Y-29549107D01*
X110428570Y-29477679D01*
X110428570Y-29263393D01*
X110464284Y-29191964D01*
X110499999Y-29156250D01*
X110571427Y-29120536D01*
X110678570Y-29120536D01*
X110749999Y-29156250D01*
X110785713Y-29191964D01*
X110821427Y-29263393D01*
X110821427Y-29477679D01*
X110785713Y-29549107D01*
X110749999Y-29584821D01*
X110678570Y-29620536D01*
X110571427Y-29620536D01*
X111464284Y-29620536D02*
X111464284Y-29227679D01*
X111428570Y-29156250D01*
X111357141Y-29120536D01*
X111214284Y-29120536D01*
X111142855Y-29156250D01*
X111464284Y-29584821D02*
X111392855Y-29620536D01*
X111214284Y-29620536D01*
X111142855Y-29584821D01*
X111107141Y-29513393D01*
X111107141Y-29441964D01*
X111142855Y-29370536D01*
X111214284Y-29334821D01*
X111392855Y-29334821D01*
X111464284Y-29299107D01*
X111821426Y-29620536D02*
X111821426Y-29120536D01*
X111821426Y-29263393D02*
X111857141Y-29191964D01*
X111892855Y-29156250D01*
X111964284Y-29120536D01*
X112035712Y-29120536D01*
X112607141Y-29620536D02*
X112607141Y-28870536D01*
X112607141Y-29584821D02*
X112535712Y-29620536D01*
X112392855Y-29620536D01*
X112321427Y-29584821D01*
X112285712Y-29549107D01*
X112249998Y-29477679D01*
X112249998Y-29263393D01*
X112285712Y-29191964D01*
X112321427Y-29156250D01*
X112392855Y-29120536D01*
X112535712Y-29120536D01*
X112607141Y-29156250D01*
X106928571Y-30933036D02*
X106928571Y-30183036D01*
X107107143Y-30183036D01*
X107214286Y-30218750D01*
X107285714Y-30290179D01*
X107321429Y-30361607D01*
X107357143Y-30504464D01*
X107357143Y-30611607D01*
X107321429Y-30754464D01*
X107285714Y-30825893D01*
X107214286Y-30897321D01*
X107107143Y-30933036D01*
X106928571Y-30933036D01*
X107964286Y-30897321D02*
X107892857Y-30933036D01*
X107750000Y-30933036D01*
X107678571Y-30897321D01*
X107642857Y-30825893D01*
X107642857Y-30540179D01*
X107678571Y-30468750D01*
X107750000Y-30433036D01*
X107892857Y-30433036D01*
X107964286Y-30468750D01*
X108000000Y-30540179D01*
X108000000Y-30611607D01*
X107642857Y-30683036D01*
X108250000Y-30433036D02*
X108428571Y-30933036D01*
X108607143Y-30433036D01*
X108892857Y-30647321D02*
X109464286Y-30647321D01*
X109964286Y-30183036D02*
X110035714Y-30183036D01*
X110107143Y-30218750D01*
X110142857Y-30254464D01*
X110178571Y-30325893D01*
X110214286Y-30468750D01*
X110214286Y-30647321D01*
X110178571Y-30790179D01*
X110142857Y-30861607D01*
X110107143Y-30897321D01*
X110035714Y-30933036D01*
X109964286Y-30933036D01*
X109892857Y-30897321D01*
X109857143Y-30861607D01*
X109821428Y-30790179D01*
X109785714Y-30647321D01*
X109785714Y-30468750D01*
X109821428Y-30325893D01*
X109857143Y-30254464D01*
X109892857Y-30218750D01*
X109964286Y-30183036D01*
X110535714Y-30861607D02*
X110571429Y-30897321D01*
X110535714Y-30933036D01*
X110500000Y-30897321D01*
X110535714Y-30861607D01*
X110535714Y-30933036D01*
X111285715Y-30933036D02*
X110857143Y-30933036D01*
X111071429Y-30933036D02*
X111071429Y-30183036D01*
X111000000Y-30290179D01*
X110928572Y-30361607D01*
X110857143Y-30397321D01*
X106928571Y-32245536D02*
X106928571Y-31495536D01*
X107107143Y-31495536D01*
X107214286Y-31531250D01*
X107285714Y-31602679D01*
X107321429Y-31674107D01*
X107357143Y-31816964D01*
X107357143Y-31924107D01*
X107321429Y-32066964D01*
X107285714Y-32138393D01*
X107214286Y-32209821D01*
X107107143Y-32245536D01*
X106928571Y-32245536D01*
X107678571Y-31852679D02*
X107928571Y-31852679D01*
X108035714Y-32245536D02*
X107678571Y-32245536D01*
X107678571Y-31495536D01*
X108035714Y-31495536D01*
X108357142Y-32174107D02*
X108392857Y-32209821D01*
X108357142Y-32245536D01*
X108321428Y-32209821D01*
X108357142Y-32174107D01*
X108357142Y-32245536D01*
X108357142Y-31781250D02*
X108392857Y-31816964D01*
X108357142Y-31852679D01*
X108321428Y-31816964D01*
X108357142Y-31781250D01*
X108357142Y-31852679D01*
X109250000Y-32031250D02*
X109607143Y-32031250D01*
X109178572Y-32245536D02*
X109428572Y-31495536D01*
X109678572Y-32245536D01*
X109928571Y-32245536D02*
X109928571Y-31495536D01*
X109928571Y-31781250D02*
X110000000Y-31745536D01*
X110142857Y-31745536D01*
X110214286Y-31781250D01*
X110250000Y-31816964D01*
X110285714Y-31888393D01*
X110285714Y-32102679D01*
X110250000Y-32174107D01*
X110214286Y-32209821D01*
X110142857Y-32245536D01*
X110000000Y-32245536D01*
X109928571Y-32209821D01*
X110607142Y-32245536D02*
X110607142Y-31495536D01*
X110928571Y-32245536D02*
X110928571Y-31852679D01*
X110892857Y-31781250D01*
X110821428Y-31745536D01*
X110714285Y-31745536D01*
X110642857Y-31781250D01*
X110607142Y-31816964D01*
X111285713Y-32245536D02*
X111285713Y-31745536D01*
X111285713Y-31495536D02*
X111249999Y-31531250D01*
X111285713Y-31566964D01*
X111321428Y-31531250D01*
X111285713Y-31495536D01*
X111285713Y-31566964D01*
X111642856Y-32245536D02*
X111642856Y-31745536D01*
X111642856Y-31816964D02*
X111678571Y-31781250D01*
X111749999Y-31745536D01*
X111857142Y-31745536D01*
X111928571Y-31781250D01*
X111964285Y-31852679D01*
X111964285Y-32245536D01*
X111964285Y-31852679D02*
X111999999Y-31781250D01*
X112071428Y-31745536D01*
X112178571Y-31745536D01*
X112249999Y-31781250D01*
X112285714Y-31852679D01*
X112285714Y-32245536D01*
X112964285Y-32245536D02*
X112964285Y-31852679D01*
X112928571Y-31781250D01*
X112857142Y-31745536D01*
X112714285Y-31745536D01*
X112642856Y-31781250D01*
X112964285Y-32209821D02*
X112892856Y-32245536D01*
X112714285Y-32245536D01*
X112642856Y-32209821D01*
X112607142Y-32138393D01*
X112607142Y-32066964D01*
X112642856Y-31995536D01*
X112714285Y-31959821D01*
X112892856Y-31959821D01*
X112964285Y-31924107D01*
X113321427Y-31745536D02*
X113321427Y-32245536D01*
X113321427Y-31816964D02*
X113357142Y-31781250D01*
X113428570Y-31745536D01*
X113535713Y-31745536D01*
X113607142Y-31781250D01*
X113642856Y-31852679D01*
X113642856Y-32245536D01*
X113928570Y-31745536D02*
X114107141Y-32245536D01*
X114285713Y-31745536D02*
X114107141Y-32245536D01*
X114035713Y-32424107D01*
X113999998Y-32459821D01*
X113928570Y-32495536D01*
X114892856Y-31745536D02*
X114892856Y-32245536D01*
X114571427Y-31745536D02*
X114571427Y-32138393D01*
X114607142Y-32209821D01*
X114678570Y-32245536D01*
X114785713Y-32245536D01*
X114857142Y-32209821D01*
X114892856Y-32174107D01*
X116214285Y-31531250D02*
X116142856Y-31495536D01*
X116035713Y-31495536D01*
X115928570Y-31531250D01*
X115857142Y-31602679D01*
X115821427Y-31674107D01*
X115785713Y-31816964D01*
X115785713Y-31924107D01*
X115821427Y-32066964D01*
X115857142Y-32138393D01*
X115928570Y-32209821D01*
X116035713Y-32245536D01*
X116107142Y-32245536D01*
X116214285Y-32209821D01*
X116249999Y-32174107D01*
X116249999Y-31924107D01*
X116107142Y-31924107D01*
X116571427Y-32245536D02*
X116571427Y-31495536D01*
X116892856Y-32245536D02*
X116892856Y-31852679D01*
X116857142Y-31781250D01*
X116785713Y-31745536D01*
X116678570Y-31745536D01*
X116607142Y-31781250D01*
X116571427Y-31816964D01*
X117357141Y-32245536D02*
X117285713Y-32209821D01*
X117249998Y-32174107D01*
X117214284Y-32102679D01*
X117214284Y-31888393D01*
X117249998Y-31816964D01*
X117285713Y-31781250D01*
X117357141Y-31745536D01*
X117464284Y-31745536D01*
X117535713Y-31781250D01*
X117571427Y-31816964D01*
X117607141Y-31888393D01*
X117607141Y-32102679D01*
X117571427Y-32174107D01*
X117535713Y-32209821D01*
X117464284Y-32245536D01*
X117357141Y-32245536D01*
X117892855Y-32209821D02*
X117964284Y-32245536D01*
X118107141Y-32245536D01*
X118178569Y-32209821D01*
X118214284Y-32138393D01*
X118214284Y-32102679D01*
X118178569Y-32031250D01*
X118107141Y-31995536D01*
X117999998Y-31995536D01*
X117928569Y-31959821D01*
X117892855Y-31888393D01*
X117892855Y-31852679D01*
X117928569Y-31781250D01*
X117999998Y-31745536D01*
X118107141Y-31745536D01*
X118178569Y-31781250D01*
X118535712Y-32245536D02*
X118535712Y-31495536D01*
X118857141Y-32245536D02*
X118857141Y-31852679D01*
X118821427Y-31781250D01*
X118749998Y-31745536D01*
X118642855Y-31745536D01*
X118571427Y-31781250D01*
X118535712Y-31816964D01*
X106928571Y-33558036D02*
X106928571Y-32808036D01*
X107357143Y-33558036D01*
X107357143Y-32808036D01*
X107857143Y-33200893D02*
X107857143Y-33558036D01*
X107607143Y-32808036D02*
X107857143Y-33200893D01*
X108107143Y-32808036D01*
X108357142Y-32808036D02*
X108357142Y-33415179D01*
X108392857Y-33486607D01*
X108428571Y-33522321D01*
X108500000Y-33558036D01*
X108642857Y-33558036D01*
X108714285Y-33522321D01*
X108750000Y-33486607D01*
X108785714Y-33415179D01*
X108785714Y-32808036D01*
X109714285Y-33558036D02*
X109714285Y-32808036D01*
X110000000Y-32808036D01*
X110071428Y-32843750D01*
X110107143Y-32879464D01*
X110142857Y-32950893D01*
X110142857Y-33058036D01*
X110107143Y-33129464D01*
X110071428Y-33165179D01*
X110000000Y-33200893D01*
X109714285Y-33200893D01*
X110571428Y-33558036D02*
X110500000Y-33522321D01*
X110464285Y-33486607D01*
X110428571Y-33415179D01*
X110428571Y-33200893D01*
X110464285Y-33129464D01*
X110500000Y-33093750D01*
X110571428Y-33058036D01*
X110678571Y-33058036D01*
X110750000Y-33093750D01*
X110785714Y-33129464D01*
X110821428Y-33200893D01*
X110821428Y-33415179D01*
X110785714Y-33486607D01*
X110750000Y-33522321D01*
X110678571Y-33558036D01*
X110571428Y-33558036D01*
X111249999Y-33558036D02*
X111178571Y-33522321D01*
X111142856Y-33450893D01*
X111142856Y-32808036D01*
X111464285Y-33058036D02*
X111642856Y-33558036D01*
X111821428Y-33058036D02*
X111642856Y-33558036D01*
X111571428Y-33736607D01*
X111535713Y-33772321D01*
X111464285Y-33808036D01*
X112357142Y-33165179D02*
X112464285Y-33200893D01*
X112500000Y-33236607D01*
X112535714Y-33308036D01*
X112535714Y-33415179D01*
X112500000Y-33486607D01*
X112464285Y-33522321D01*
X112392857Y-33558036D01*
X112107142Y-33558036D01*
X112107142Y-32808036D01*
X112357142Y-32808036D01*
X112428571Y-32843750D01*
X112464285Y-32879464D01*
X112500000Y-32950893D01*
X112500000Y-33022321D01*
X112464285Y-33093750D01*
X112428571Y-33129464D01*
X112357142Y-33165179D01*
X112107142Y-33165179D01*
X113000000Y-32808036D02*
X113142857Y-32808036D01*
X113214285Y-32843750D01*
X113285714Y-32915179D01*
X113321428Y-33058036D01*
X113321428Y-33308036D01*
X113285714Y-33450893D01*
X113214285Y-33522321D01*
X113142857Y-33558036D01*
X113000000Y-33558036D01*
X112928571Y-33522321D01*
X112857142Y-33450893D01*
X112821428Y-33308036D01*
X112821428Y-33058036D01*
X112857142Y-32915179D01*
X112928571Y-32843750D01*
X113000000Y-32808036D01*
X113535714Y-32808036D02*
X113964285Y-32808036D01*
X113749999Y-33558036D02*
X113749999Y-32808036D01*
X114178571Y-33522321D02*
X114285714Y-33558036D01*
X114464285Y-33558036D01*
X114535714Y-33522321D01*
X114571428Y-33486607D01*
X114607143Y-33415179D01*
X114607143Y-33343750D01*
X114571428Y-33272321D01*
X114535714Y-33236607D01*
X114464285Y-33200893D01*
X114321428Y-33165179D01*
X114250000Y-33129464D01*
X114214285Y-33093750D01*
X114178571Y-33022321D01*
X114178571Y-32950893D01*
X114214285Y-32879464D01*
X114250000Y-32843750D01*
X114321428Y-32808036D01*
X114500000Y-32808036D01*
X114607143Y-32843750D01*
D14*
X119075000Y-61100000D02*
X119075000Y-60600000D01*
X118125000Y-60600000D02*
X118125000Y-61100000D01*
X131400000Y-61525000D02*
X130900000Y-61525000D01*
X130900000Y-62475000D02*
X131400000Y-62475000D01*
X130975000Y-60100000D02*
X130975000Y-60600000D01*
X131925000Y-60600000D02*
X131925000Y-60100000D01*
X126100000Y-51275000D02*
X125600000Y-51275000D01*
X125600000Y-52225000D02*
X126100000Y-52225000D01*
X129325000Y-33100000D02*
X129325000Y-33600000D01*
X130275000Y-33600000D02*
X130275000Y-33100000D01*
X119850000Y-37300000D02*
X119150000Y-37300000D01*
X119150000Y-36100000D02*
X119850000Y-36100000D01*
X127950000Y-36100000D02*
X128650000Y-36100000D01*
X128650000Y-37300000D02*
X127950000Y-37300000D01*
X130450000Y-42525000D02*
X129950000Y-42525000D01*
X129950000Y-43475000D02*
X130450000Y-43475000D01*
X116425000Y-41850000D02*
X116425000Y-42350000D01*
X117375000Y-42350000D02*
X117375000Y-41850000D01*
X130650000Y-44225000D02*
X130150000Y-44225000D01*
X130150000Y-45175000D02*
X130650000Y-45175000D01*
X130650000Y-45625000D02*
X130150000Y-45625000D01*
X130150000Y-46575000D02*
X130650000Y-46575000D01*
X135200000Y-43600000D02*
X135200000Y-42600000D01*
X133500000Y-42600000D02*
X133500000Y-43600000D01*
X139875000Y-37950000D02*
X139875000Y-38450000D01*
X140825000Y-38450000D02*
X140825000Y-37950000D01*
X138350000Y-63525000D02*
X137850000Y-63525000D01*
X137850000Y-64475000D02*
X138350000Y-64475000D01*
X137950000Y-60125000D02*
X137450000Y-60125000D01*
X137450000Y-61075000D02*
X137950000Y-61075000D01*
X131725000Y-71275000D02*
X132725000Y-71275000D01*
X132725000Y-69575000D02*
X131725000Y-69575000D01*
X128550000Y-82350000D02*
X128550000Y-81350000D01*
X126850000Y-81350000D02*
X126850000Y-82350000D01*
X107625000Y-58300000D02*
X107625000Y-56300000D01*
X105575000Y-56300000D02*
X105575000Y-58300000D01*
X108375000Y-63350000D02*
X108375000Y-61350000D01*
X106325000Y-61350000D02*
X106325000Y-63350000D01*
X107525000Y-71250000D02*
X107525000Y-69250000D01*
X105475000Y-69250000D02*
X105475000Y-71250000D01*
X108425000Y-75950000D02*
X108425000Y-73950000D01*
X106375000Y-73950000D02*
X106375000Y-75950000D01*
X135600000Y-39350000D02*
X135600000Y-38850000D01*
X135100000Y-39350000D02*
X135600000Y-39350000D01*
X141750000Y-46200000D02*
X142250000Y-46200000D01*
X141750000Y-45700000D02*
X141750000Y-46200000D01*
X121075000Y-57075000D02*
X121075000Y-57400000D01*
X128325000Y-57075000D02*
X128325000Y-57400000D01*
X128325000Y-64325000D02*
X128325000Y-64000000D01*
X121075000Y-64325000D02*
X121075000Y-64000000D01*
X121075000Y-57075000D02*
X121400000Y-57075000D01*
X121075000Y-64325000D02*
X121400000Y-64325000D01*
X128325000Y-64325000D02*
X128000000Y-64325000D01*
X128325000Y-57075000D02*
X128000000Y-57075000D01*
X121075000Y-57400000D02*
X119650000Y-57400000D01*
X131450000Y-36500000D02*
X131450000Y-37500000D01*
X133150000Y-37500000D02*
X133150000Y-36500000D01*
X102730000Y-77470000D02*
X102730000Y-34290000D01*
X102730000Y-34290000D02*
X105270000Y-34290000D01*
X105270000Y-34290000D02*
X105270000Y-77470000D01*
X102450000Y-80290000D02*
X102450000Y-78740000D01*
X102730000Y-77470000D02*
X105270000Y-77470000D01*
X105550000Y-78740000D02*
X105550000Y-80290000D01*
X105550000Y-80290000D02*
X102450000Y-80290000D01*
X107030000Y-39130000D02*
X107030000Y-44210000D01*
X107030000Y-44210000D02*
X109570000Y-44210000D01*
X109570000Y-44210000D02*
X109570000Y-39130000D01*
X109850000Y-36310000D02*
X109850000Y-37860000D01*
X109570000Y-39130000D02*
X107030000Y-39130000D01*
X106750000Y-37860000D02*
X106750000Y-36310000D01*
X106750000Y-36310000D02*
X109850000Y-36310000D01*
X128050900Y-27582540D02*
X119350900Y-27582540D01*
X128050900Y-33987540D02*
X119350900Y-33987540D01*
X119350900Y-33987540D02*
X119350900Y-27582540D01*
X119350900Y-28812540D02*
X128050900Y-28812540D01*
X128050900Y-27582540D02*
X128050900Y-33987540D01*
X112330000Y-39130000D02*
X112330000Y-44210000D01*
X112330000Y-44210000D02*
X114870000Y-44210000D01*
X114870000Y-44210000D02*
X114870000Y-39130000D01*
X115150000Y-36310000D02*
X115150000Y-37860000D01*
X114870000Y-39130000D02*
X112330000Y-39130000D01*
X112050000Y-37860000D02*
X112050000Y-36310000D01*
X112050000Y-36310000D02*
X115150000Y-36310000D01*
X148170000Y-36830000D02*
X148170000Y-87630000D01*
X148170000Y-87630000D02*
X145630000Y-87630000D01*
X145630000Y-87630000D02*
X145630000Y-36830000D01*
X148450000Y-34010000D02*
X148450000Y-35560000D01*
X148170000Y-36830000D02*
X145630000Y-36830000D01*
X145350000Y-35560000D02*
X145350000Y-34010000D01*
X145350000Y-34010000D02*
X148450000Y-34010000D01*
X111630000Y-49070000D02*
X111630000Y-54150000D01*
X111630000Y-54150000D02*
X114170000Y-54150000D01*
X114170000Y-54150000D02*
X114170000Y-49070000D01*
X114450000Y-46250000D02*
X114450000Y-47800000D01*
X114170000Y-49070000D02*
X111630000Y-49070000D01*
X111350000Y-47800000D02*
X111350000Y-46250000D01*
X111350000Y-46250000D02*
X114450000Y-46250000D01*
X115230000Y-49090000D02*
X115230000Y-54170000D01*
X115230000Y-54170000D02*
X117770000Y-54170000D01*
X117770000Y-54170000D02*
X117770000Y-49090000D01*
X118050000Y-46270000D02*
X118050000Y-47820000D01*
X117770000Y-49090000D02*
X115230000Y-49090000D01*
X114950000Y-47820000D02*
X114950000Y-46270000D01*
X114950000Y-46270000D02*
X118050000Y-46270000D01*
X135670000Y-48330000D02*
X130590000Y-48330000D01*
X138490000Y-48050000D02*
X138490000Y-49600000D01*
X138210000Y-50870000D02*
X135670000Y-50870000D01*
X135670000Y-50870000D02*
X135670000Y-48330000D01*
X130590000Y-48330000D02*
X130590000Y-53410000D01*
X130590000Y-53410000D02*
X135670000Y-53410000D01*
X138490000Y-48050000D02*
X136940000Y-48050000D01*
X138210000Y-53410000D02*
X138210000Y-50870000D01*
X135670000Y-53410000D02*
X138210000Y-53410000D01*
X106650000Y-78750000D02*
X113350000Y-78750000D01*
X106650000Y-87500000D02*
X106650000Y-78750000D01*
X113350000Y-87500000D02*
X106650000Y-87500000D01*
X113350000Y-78750000D02*
X113350000Y-87500000D01*
X123650000Y-71950000D02*
X123650000Y-78650000D01*
X114900000Y-71950000D02*
X123650000Y-71950000D01*
X114900000Y-78650000D02*
X114900000Y-71950000D01*
X123650000Y-78650000D02*
X114900000Y-78650000D01*
X126250000Y-68825000D02*
X126750000Y-68825000D01*
X126750000Y-67775000D02*
X126250000Y-67775000D01*
X125975000Y-36900000D02*
X125975000Y-37900000D01*
X124625000Y-37900000D02*
X124625000Y-36900000D01*
X136500000Y-81675000D02*
X135500000Y-81675000D01*
X135500000Y-80325000D02*
X136500000Y-80325000D01*
X123475000Y-36900000D02*
X123475000Y-37900000D01*
X122125000Y-37900000D02*
X122125000Y-36900000D01*
X131500000Y-80325000D02*
X132500000Y-80325000D01*
X132500000Y-81675000D02*
X131500000Y-81675000D01*
X127425000Y-52250000D02*
X127425000Y-51250000D01*
X128775000Y-51250000D02*
X128775000Y-52250000D01*
X123382843Y-40500000D02*
G75*
G03X123382843Y-40500000I-282843J0D01*
G01*
X122500000Y-39870000D02*
X125700000Y-39870000D01*
X122500000Y-48530000D02*
X122500000Y-39870000D01*
X125700000Y-48530000D02*
X122500000Y-48530000D01*
X125700000Y-39870000D02*
X125700000Y-48530000D01*
X133523607Y-65500000D02*
G75*
G03X133523607Y-65500000I-223607J0D01*
G01*
X136250000Y-65100000D02*
X133550000Y-65100000D01*
X136250000Y-61900000D02*
X136250000Y-65100000D01*
X133550000Y-61900000D02*
X136250000Y-61900000D01*
X133550000Y-65100000D02*
X133550000Y-61900000D01*
X138750000Y-79050000D02*
X126950000Y-79050000D01*
X138750000Y-71450000D02*
X138750000Y-79050000D01*
X126950000Y-71450000D02*
X138750000Y-71450000D01*
X126950000Y-79050000D02*
X126950000Y-71450000D01*
X113800000Y-71200000D02*
G75*
G03X113800000Y-71200000I-200000J0D01*
G01*
X113225000Y-71550000D02*
X113225000Y-75850000D01*
X110175000Y-71550000D02*
X113225000Y-71550000D01*
X110175000Y-75850000D02*
X110175000Y-71550000D01*
X113225000Y-75850000D02*
X110175000Y-75850000D01*
X120700000Y-86100000D02*
G75*
G03X120700000Y-86100000I-200000J0D01*
G01*
X120875000Y-85750000D02*
X120875000Y-81450000D01*
X123925000Y-85750000D02*
X120875000Y-85750000D01*
X123925000Y-81450000D02*
X123925000Y-85750000D01*
X120875000Y-81450000D02*
X123925000Y-81450000D01*
X114099240Y-58501000D02*
X114500560Y-58300340D01*
X114500560Y-58300340D02*
X115100000Y-58198740D01*
X115100000Y-58198740D02*
X115600380Y-58300340D01*
X115600380Y-58300340D02*
X116298880Y-58699120D01*
X116298880Y-58699120D02*
X116700200Y-59301100D01*
X116700200Y-59301100D02*
X116900860Y-59900540D01*
X116900860Y-59900540D02*
X116900860Y-66499460D01*
X116900860Y-66499460D02*
X116700200Y-67200500D01*
X116700200Y-67200500D02*
X116400480Y-67599280D01*
X116400480Y-67599280D02*
X115900100Y-68000600D01*
X115900100Y-68000600D02*
X115300660Y-68201260D01*
X115300660Y-68201260D02*
X114800280Y-68201260D01*
X114800280Y-68201260D02*
X114299900Y-68000600D01*
X114299900Y-68000600D02*
X113700460Y-67500220D01*
X113700460Y-67500220D02*
X113400740Y-66999840D01*
X113400740Y-66999840D02*
X113299140Y-66499460D01*
X113299140Y-66400400D02*
X113299140Y-59798940D01*
X113299140Y-59798940D02*
X113400740Y-59400160D01*
X113400740Y-59400160D02*
X113700460Y-58899780D01*
X113700460Y-58899780D02*
X114200840Y-58399400D01*
X112770820Y-66390240D02*
X112819080Y-66849980D01*
X112819080Y-66849980D02*
X112930840Y-67248760D01*
X112930840Y-67248760D02*
X113149280Y-67680560D01*
X113149280Y-67680560D02*
X113380420Y-67970120D01*
X113380420Y-67970120D02*
X113730940Y-68300320D01*
X113730940Y-68300320D02*
X114269420Y-68589880D01*
X114269420Y-68589880D02*
X114868860Y-68719420D01*
X114868860Y-68719420D02*
X115379400Y-68719420D01*
X115379400Y-68719420D02*
X116080440Y-68549240D01*
X116080440Y-68549240D02*
X116669720Y-68150460D01*
X116669720Y-68150460D02*
X117040560Y-67690720D01*
X117040560Y-67690720D02*
X117248840Y-67269080D01*
X117248840Y-67269080D02*
X117408860Y-66819500D01*
X117408860Y-66819500D02*
X117439340Y-66380080D01*
X117220900Y-59039480D02*
X116999920Y-58661020D01*
X116999920Y-58661020D02*
X116720520Y-58340980D01*
X116720520Y-58340980D02*
X116390320Y-58089520D01*
X116390320Y-58089520D02*
X115839140Y-57789800D01*
X115839140Y-57789800D02*
X115369240Y-57680580D01*
X115369240Y-57680580D02*
X114909500Y-57660260D01*
X114909500Y-57660260D02*
X114449760Y-57749160D01*
X114449760Y-57749160D02*
X114000180Y-57939660D01*
X114000180Y-57939660D02*
X113530280Y-58300340D01*
X113530280Y-58300340D02*
X113210240Y-58650860D01*
X113210240Y-58650860D02*
X112979100Y-59039480D01*
X112979100Y-59039480D02*
X112839400Y-59468740D01*
X112839400Y-59468740D02*
X112770820Y-59910700D01*
X117429180Y-66400400D02*
X117429180Y-59948800D01*
X117429180Y-59948800D02*
X117391080Y-59529700D01*
X117391080Y-59529700D02*
X117220900Y-59039480D01*
X112770820Y-66400400D02*
X112770820Y-59948800D01*
X135850000Y-34450000D02*
X135850000Y-35450000D01*
X137550000Y-35450000D02*
X137550000Y-34450000D01*
X115050000Y-71400000D02*
X116950000Y-71400000D01*
X115050000Y-70300000D02*
X116950000Y-70300000D01*
X115950000Y-70850000D02*
X116400000Y-70850000D01*
X115900000Y-70600000D02*
X115900000Y-71100000D01*
X115900000Y-70850000D02*
X116150000Y-70600000D01*
X116150000Y-70600000D02*
X116150000Y-71100000D01*
X116150000Y-71100000D02*
X115900000Y-70850000D01*
X119400000Y-70325000D02*
X118900000Y-70325000D01*
X118900000Y-71375000D02*
X119400000Y-71375000D01*
X135973607Y-41800000D02*
G75*
G03X135973607Y-41800000I-223607J0D01*
G01*
X139250000Y-41500000D02*
X136050000Y-41500000D01*
X139250000Y-37500000D02*
X139250000Y-41500000D01*
X136050000Y-37500000D02*
X139250000Y-37500000D01*
X136050000Y-41500000D02*
X136050000Y-37500000D01*
X118857143Y-63166666D02*
X118904762Y-63214285D01*
X118952381Y-63357142D01*
X118952381Y-63452380D01*
X118904762Y-63595238D01*
X118809524Y-63690476D01*
X118714286Y-63738095D01*
X118523810Y-63785714D01*
X118380952Y-63785714D01*
X118190476Y-63738095D01*
X118095238Y-63690476D01*
X118000000Y-63595238D01*
X117952381Y-63452380D01*
X117952381Y-63357142D01*
X118000000Y-63214285D01*
X118047619Y-63166666D01*
X118952381Y-62214285D02*
X118952381Y-62785714D01*
X118952381Y-62500000D02*
X117952381Y-62500000D01*
X118095238Y-62595238D01*
X118190476Y-62690476D01*
X118238095Y-62785714D01*
X131107143Y-63916666D02*
X131154762Y-63964285D01*
X131202381Y-64107142D01*
X131202381Y-64202380D01*
X131154762Y-64345238D01*
X131059524Y-64440476D01*
X130964286Y-64488095D01*
X130773810Y-64535714D01*
X130630952Y-64535714D01*
X130440476Y-64488095D01*
X130345238Y-64440476D01*
X130250000Y-64345238D01*
X130202381Y-64202380D01*
X130202381Y-64107142D01*
X130250000Y-63964285D01*
X130297619Y-63916666D01*
X130297619Y-63535714D02*
X130250000Y-63488095D01*
X130202381Y-63392857D01*
X130202381Y-63154761D01*
X130250000Y-63059523D01*
X130297619Y-63011904D01*
X130392857Y-62964285D01*
X130488095Y-62964285D01*
X130630952Y-63011904D01*
X131202381Y-63583333D01*
X131202381Y-62964285D01*
X130958334Y-58807143D02*
X130910715Y-58854762D01*
X130767858Y-58902381D01*
X130672620Y-58902381D01*
X130529762Y-58854762D01*
X130434524Y-58759524D01*
X130386905Y-58664286D01*
X130339286Y-58473810D01*
X130339286Y-58330952D01*
X130386905Y-58140476D01*
X130434524Y-58045238D01*
X130529762Y-57950000D01*
X130672620Y-57902381D01*
X130767858Y-57902381D01*
X130910715Y-57950000D01*
X130958334Y-57997619D01*
X131291667Y-57902381D02*
X131910715Y-57902381D01*
X131577381Y-58283333D01*
X131720239Y-58283333D01*
X131815477Y-58330952D01*
X131863096Y-58378571D01*
X131910715Y-58473810D01*
X131910715Y-58711905D01*
X131863096Y-58807143D01*
X131815477Y-58854762D01*
X131720239Y-58902381D01*
X131434524Y-58902381D01*
X131339286Y-58854762D01*
X131291667Y-58807143D01*
X123307143Y-51966666D02*
X123354762Y-52014285D01*
X123402381Y-52157142D01*
X123402381Y-52252380D01*
X123354762Y-52395238D01*
X123259524Y-52490476D01*
X123164286Y-52538095D01*
X122973810Y-52585714D01*
X122830952Y-52585714D01*
X122640476Y-52538095D01*
X122545238Y-52490476D01*
X122450000Y-52395238D01*
X122402381Y-52252380D01*
X122402381Y-52157142D01*
X122450000Y-52014285D01*
X122497619Y-51966666D01*
X122735714Y-51109523D02*
X123402381Y-51109523D01*
X122354762Y-51347619D02*
X123069048Y-51585714D01*
X123069048Y-50966666D01*
X129583334Y-31757143D02*
X129535715Y-31804762D01*
X129392858Y-31852381D01*
X129297620Y-31852381D01*
X129154762Y-31804762D01*
X129059524Y-31709524D01*
X129011905Y-31614286D01*
X128964286Y-31423810D01*
X128964286Y-31280952D01*
X129011905Y-31090476D01*
X129059524Y-30995238D01*
X129154762Y-30900000D01*
X129297620Y-30852381D01*
X129392858Y-30852381D01*
X129535715Y-30900000D01*
X129583334Y-30947619D01*
X130488096Y-30852381D02*
X130011905Y-30852381D01*
X129964286Y-31328571D01*
X130011905Y-31280952D01*
X130107143Y-31233333D01*
X130345239Y-31233333D01*
X130440477Y-31280952D01*
X130488096Y-31328571D01*
X130535715Y-31423810D01*
X130535715Y-31661905D01*
X130488096Y-31757143D01*
X130440477Y-31804762D01*
X130345239Y-31852381D01*
X130107143Y-31852381D01*
X130011905Y-31804762D01*
X129964286Y-31757143D01*
X116733334Y-37157143D02*
X116685715Y-37204762D01*
X116542858Y-37252381D01*
X116447620Y-37252381D01*
X116304762Y-37204762D01*
X116209524Y-37109524D01*
X116161905Y-37014286D01*
X116114286Y-36823810D01*
X116114286Y-36680952D01*
X116161905Y-36490476D01*
X116209524Y-36395238D01*
X116304762Y-36300000D01*
X116447620Y-36252381D01*
X116542858Y-36252381D01*
X116685715Y-36300000D01*
X116733334Y-36347619D01*
X117590477Y-36252381D02*
X117400000Y-36252381D01*
X117304762Y-36300000D01*
X117257143Y-36347619D01*
X117161905Y-36490476D01*
X117114286Y-36680952D01*
X117114286Y-37061905D01*
X117161905Y-37157143D01*
X117209524Y-37204762D01*
X117304762Y-37252381D01*
X117495239Y-37252381D01*
X117590477Y-37204762D01*
X117638096Y-37157143D01*
X117685715Y-37061905D01*
X117685715Y-36823810D01*
X117638096Y-36728571D01*
X117590477Y-36680952D01*
X117495239Y-36633333D01*
X117304762Y-36633333D01*
X117209524Y-36680952D01*
X117161905Y-36728571D01*
X117114286Y-36823810D01*
X127533334Y-35457143D02*
X127485715Y-35504762D01*
X127342858Y-35552381D01*
X127247620Y-35552381D01*
X127104762Y-35504762D01*
X127009524Y-35409524D01*
X126961905Y-35314286D01*
X126914286Y-35123810D01*
X126914286Y-34980952D01*
X126961905Y-34790476D01*
X127009524Y-34695238D01*
X127104762Y-34600000D01*
X127247620Y-34552381D01*
X127342858Y-34552381D01*
X127485715Y-34600000D01*
X127533334Y-34647619D01*
X127866667Y-34552381D02*
X128533334Y-34552381D01*
X128104762Y-35552381D01*
X130033334Y-42107143D02*
X129985715Y-42154762D01*
X129842858Y-42202381D01*
X129747620Y-42202381D01*
X129604762Y-42154762D01*
X129509524Y-42059524D01*
X129461905Y-41964286D01*
X129414286Y-41773810D01*
X129414286Y-41630952D01*
X129461905Y-41440476D01*
X129509524Y-41345238D01*
X129604762Y-41250000D01*
X129747620Y-41202381D01*
X129842858Y-41202381D01*
X129985715Y-41250000D01*
X130033334Y-41297619D01*
X130604762Y-41630952D02*
X130509524Y-41583333D01*
X130461905Y-41535714D01*
X130414286Y-41440476D01*
X130414286Y-41392857D01*
X130461905Y-41297619D01*
X130509524Y-41250000D01*
X130604762Y-41202381D01*
X130795239Y-41202381D01*
X130890477Y-41250000D01*
X130938096Y-41297619D01*
X130985715Y-41392857D01*
X130985715Y-41440476D01*
X130938096Y-41535714D01*
X130890477Y-41583333D01*
X130795239Y-41630952D01*
X130604762Y-41630952D01*
X130509524Y-41678571D01*
X130461905Y-41726190D01*
X130414286Y-41821429D01*
X130414286Y-42011905D01*
X130461905Y-42107143D01*
X130509524Y-42154762D01*
X130604762Y-42202381D01*
X130795239Y-42202381D01*
X130890477Y-42154762D01*
X130938096Y-42107143D01*
X130985715Y-42011905D01*
X130985715Y-41821429D01*
X130938096Y-41726190D01*
X130890477Y-41678571D01*
X130795239Y-41630952D01*
X117257143Y-44466666D02*
X117304762Y-44514285D01*
X117352381Y-44657142D01*
X117352381Y-44752380D01*
X117304762Y-44895238D01*
X117209524Y-44990476D01*
X117114286Y-45038095D01*
X116923810Y-45085714D01*
X116780952Y-45085714D01*
X116590476Y-45038095D01*
X116495238Y-44990476D01*
X116400000Y-44895238D01*
X116352381Y-44752380D01*
X116352381Y-44657142D01*
X116400000Y-44514285D01*
X116447619Y-44466666D01*
X117352381Y-43990476D02*
X117352381Y-43800000D01*
X117304762Y-43704761D01*
X117257143Y-43657142D01*
X117114286Y-43561904D01*
X116923810Y-43514285D01*
X116542857Y-43514285D01*
X116447619Y-43561904D01*
X116400000Y-43609523D01*
X116352381Y-43704761D01*
X116352381Y-43895238D01*
X116400000Y-43990476D01*
X116447619Y-44038095D01*
X116542857Y-44085714D01*
X116780952Y-44085714D01*
X116876190Y-44038095D01*
X116923810Y-43990476D01*
X116971429Y-43895238D01*
X116971429Y-43704761D01*
X116923810Y-43609523D01*
X116876190Y-43561904D01*
X116780952Y-43514285D01*
X129007143Y-45342857D02*
X129054762Y-45390476D01*
X129102381Y-45533333D01*
X129102381Y-45628571D01*
X129054762Y-45771429D01*
X128959524Y-45866667D01*
X128864286Y-45914286D01*
X128673810Y-45961905D01*
X128530952Y-45961905D01*
X128340476Y-45914286D01*
X128245238Y-45866667D01*
X128150000Y-45771429D01*
X128102381Y-45628571D01*
X128102381Y-45533333D01*
X128150000Y-45390476D01*
X128197619Y-45342857D01*
X129102381Y-44390476D02*
X129102381Y-44961905D01*
X129102381Y-44676191D02*
X128102381Y-44676191D01*
X128245238Y-44771429D01*
X128340476Y-44866667D01*
X128388095Y-44961905D01*
X128102381Y-43771429D02*
X128102381Y-43676190D01*
X128150000Y-43580952D01*
X128197619Y-43533333D01*
X128292857Y-43485714D01*
X128483333Y-43438095D01*
X128721429Y-43438095D01*
X128911905Y-43485714D01*
X129007143Y-43533333D01*
X129054762Y-43580952D01*
X129102381Y-43676190D01*
X129102381Y-43771429D01*
X129054762Y-43866667D01*
X129007143Y-43914286D01*
X128911905Y-43961905D01*
X128721429Y-44009524D01*
X128483333Y-44009524D01*
X128292857Y-43961905D01*
X128197619Y-43914286D01*
X128150000Y-43866667D01*
X128102381Y-43771429D01*
X129807143Y-47807143D02*
X129759524Y-47854762D01*
X129616667Y-47902381D01*
X129521429Y-47902381D01*
X129378571Y-47854762D01*
X129283333Y-47759524D01*
X129235714Y-47664286D01*
X129188095Y-47473810D01*
X129188095Y-47330952D01*
X129235714Y-47140476D01*
X129283333Y-47045238D01*
X129378571Y-46950000D01*
X129521429Y-46902381D01*
X129616667Y-46902381D01*
X129759524Y-46950000D01*
X129807143Y-46997619D01*
X130759524Y-47902381D02*
X130188095Y-47902381D01*
X130473809Y-47902381D02*
X130473809Y-46902381D01*
X130378571Y-47045238D01*
X130283333Y-47140476D01*
X130188095Y-47188095D01*
X131711905Y-47902381D02*
X131140476Y-47902381D01*
X131426190Y-47902381D02*
X131426190Y-46902381D01*
X131330952Y-47045238D01*
X131235714Y-47140476D01*
X131140476Y-47188095D01*
X136507143Y-44242857D02*
X136554762Y-44290476D01*
X136602381Y-44433333D01*
X136602381Y-44528571D01*
X136554762Y-44671429D01*
X136459524Y-44766667D01*
X136364286Y-44814286D01*
X136173810Y-44861905D01*
X136030952Y-44861905D01*
X135840476Y-44814286D01*
X135745238Y-44766667D01*
X135650000Y-44671429D01*
X135602381Y-44528571D01*
X135602381Y-44433333D01*
X135650000Y-44290476D01*
X135697619Y-44242857D01*
X136602381Y-43290476D02*
X136602381Y-43861905D01*
X136602381Y-43576191D02*
X135602381Y-43576191D01*
X135745238Y-43671429D01*
X135840476Y-43766667D01*
X135888095Y-43861905D01*
X135697619Y-42909524D02*
X135650000Y-42861905D01*
X135602381Y-42766667D01*
X135602381Y-42528571D01*
X135650000Y-42433333D01*
X135697619Y-42385714D01*
X135792857Y-42338095D01*
X135888095Y-42338095D01*
X136030952Y-42385714D01*
X136602381Y-42957143D01*
X136602381Y-42338095D01*
X141007143Y-41442857D02*
X141054762Y-41490476D01*
X141102381Y-41633333D01*
X141102381Y-41728571D01*
X141054762Y-41871429D01*
X140959524Y-41966667D01*
X140864286Y-42014286D01*
X140673810Y-42061905D01*
X140530952Y-42061905D01*
X140340476Y-42014286D01*
X140245238Y-41966667D01*
X140150000Y-41871429D01*
X140102381Y-41728571D01*
X140102381Y-41633333D01*
X140150000Y-41490476D01*
X140197619Y-41442857D01*
X141102381Y-40490476D02*
X141102381Y-41061905D01*
X141102381Y-40776191D02*
X140102381Y-40776191D01*
X140245238Y-40871429D01*
X140340476Y-40966667D01*
X140388095Y-41061905D01*
X140102381Y-40157143D02*
X140102381Y-39538095D01*
X140483333Y-39871429D01*
X140483333Y-39728571D01*
X140530952Y-39633333D01*
X140578571Y-39585714D01*
X140673810Y-39538095D01*
X140911905Y-39538095D01*
X141007143Y-39585714D01*
X141054762Y-39633333D01*
X141102381Y-39728571D01*
X141102381Y-40014286D01*
X141054762Y-40109524D01*
X141007143Y-40157143D01*
X137407143Y-65807143D02*
X137359524Y-65854762D01*
X137216667Y-65902381D01*
X137121429Y-65902381D01*
X136978571Y-65854762D01*
X136883333Y-65759524D01*
X136835714Y-65664286D01*
X136788095Y-65473810D01*
X136788095Y-65330952D01*
X136835714Y-65140476D01*
X136883333Y-65045238D01*
X136978571Y-64950000D01*
X137121429Y-64902381D01*
X137216667Y-64902381D01*
X137359524Y-64950000D01*
X137407143Y-64997619D01*
X137788095Y-64997619D02*
X137835714Y-64950000D01*
X137930952Y-64902381D01*
X138169048Y-64902381D01*
X138264286Y-64950000D01*
X138311905Y-64997619D01*
X138359524Y-65092857D01*
X138359524Y-65188095D01*
X138311905Y-65330952D01*
X137740476Y-65902381D01*
X138359524Y-65902381D01*
X138978571Y-64902381D02*
X139073810Y-64902381D01*
X139169048Y-64950000D01*
X139216667Y-64997619D01*
X139264286Y-65092857D01*
X139311905Y-65283333D01*
X139311905Y-65521429D01*
X139264286Y-65711905D01*
X139216667Y-65807143D01*
X139169048Y-65854762D01*
X139073810Y-65902381D01*
X138978571Y-65902381D01*
X138883333Y-65854762D01*
X138835714Y-65807143D01*
X138788095Y-65711905D01*
X138740476Y-65521429D01*
X138740476Y-65283333D01*
X138788095Y-65092857D01*
X138835714Y-64997619D01*
X138883333Y-64950000D01*
X138978571Y-64902381D01*
X137057143Y-59657143D02*
X137009524Y-59704762D01*
X136866667Y-59752381D01*
X136771429Y-59752381D01*
X136628571Y-59704762D01*
X136533333Y-59609524D01*
X136485714Y-59514286D01*
X136438095Y-59323810D01*
X136438095Y-59180952D01*
X136485714Y-58990476D01*
X136533333Y-58895238D01*
X136628571Y-58800000D01*
X136771429Y-58752381D01*
X136866667Y-58752381D01*
X137009524Y-58800000D01*
X137057143Y-58847619D01*
X137438095Y-58847619D02*
X137485714Y-58800000D01*
X137580952Y-58752381D01*
X137819048Y-58752381D01*
X137914286Y-58800000D01*
X137961905Y-58847619D01*
X138009524Y-58942857D01*
X138009524Y-59038095D01*
X137961905Y-59180952D01*
X137390476Y-59752381D01*
X138009524Y-59752381D01*
X138961905Y-59752381D02*
X138390476Y-59752381D01*
X138676190Y-59752381D02*
X138676190Y-58752381D01*
X138580952Y-58895238D01*
X138485714Y-58990476D01*
X138390476Y-59038095D01*
X131582143Y-68857143D02*
X131534524Y-68904762D01*
X131391667Y-68952381D01*
X131296429Y-68952381D01*
X131153571Y-68904762D01*
X131058333Y-68809524D01*
X131010714Y-68714286D01*
X130963095Y-68523810D01*
X130963095Y-68380952D01*
X131010714Y-68190476D01*
X131058333Y-68095238D01*
X131153571Y-68000000D01*
X131296429Y-67952381D01*
X131391667Y-67952381D01*
X131534524Y-68000000D01*
X131582143Y-68047619D01*
X131963095Y-68047619D02*
X132010714Y-68000000D01*
X132105952Y-67952381D01*
X132344048Y-67952381D01*
X132439286Y-68000000D01*
X132486905Y-68047619D01*
X132534524Y-68142857D01*
X132534524Y-68238095D01*
X132486905Y-68380952D01*
X131915476Y-68952381D01*
X132534524Y-68952381D01*
X132915476Y-68047619D02*
X132963095Y-68000000D01*
X133058333Y-67952381D01*
X133296429Y-67952381D01*
X133391667Y-68000000D01*
X133439286Y-68047619D01*
X133486905Y-68142857D01*
X133486905Y-68238095D01*
X133439286Y-68380952D01*
X132867857Y-68952381D01*
X133486905Y-68952381D01*
X127107143Y-85357143D02*
X127059524Y-85404762D01*
X126916667Y-85452381D01*
X126821429Y-85452381D01*
X126678571Y-85404762D01*
X126583333Y-85309524D01*
X126535714Y-85214286D01*
X126488095Y-85023810D01*
X126488095Y-84880952D01*
X126535714Y-84690476D01*
X126583333Y-84595238D01*
X126678571Y-84500000D01*
X126821429Y-84452381D01*
X126916667Y-84452381D01*
X127059524Y-84500000D01*
X127107143Y-84547619D01*
X127488095Y-84547619D02*
X127535714Y-84500000D01*
X127630952Y-84452381D01*
X127869048Y-84452381D01*
X127964286Y-84500000D01*
X128011905Y-84547619D01*
X128059524Y-84642857D01*
X128059524Y-84738095D01*
X128011905Y-84880952D01*
X127440476Y-85452381D01*
X128059524Y-85452381D01*
X128392857Y-84452381D02*
X129011905Y-84452381D01*
X128678571Y-84833333D01*
X128821429Y-84833333D01*
X128916667Y-84880952D01*
X128964286Y-84928571D01*
X129011905Y-85023810D01*
X129011905Y-85261905D01*
X128964286Y-85357143D01*
X128916667Y-85404762D01*
X128821429Y-85452381D01*
X128535714Y-85452381D01*
X128440476Y-85404762D01*
X128392857Y-85357143D01*
X109257143Y-57942857D02*
X109304762Y-57990476D01*
X109352381Y-58133333D01*
X109352381Y-58228571D01*
X109304762Y-58371429D01*
X109209524Y-58466667D01*
X109114286Y-58514286D01*
X108923810Y-58561905D01*
X108780952Y-58561905D01*
X108590476Y-58514286D01*
X108495238Y-58466667D01*
X108400000Y-58371429D01*
X108352381Y-58228571D01*
X108352381Y-58133333D01*
X108400000Y-57990476D01*
X108447619Y-57942857D01*
X108447619Y-57561905D02*
X108400000Y-57514286D01*
X108352381Y-57419048D01*
X108352381Y-57180952D01*
X108400000Y-57085714D01*
X108447619Y-57038095D01*
X108542857Y-56990476D01*
X108638095Y-56990476D01*
X108780952Y-57038095D01*
X109352381Y-57609524D01*
X109352381Y-56990476D01*
X108352381Y-56133333D02*
X108352381Y-56323810D01*
X108400000Y-56419048D01*
X108447619Y-56466667D01*
X108590476Y-56561905D01*
X108780952Y-56609524D01*
X109161905Y-56609524D01*
X109257143Y-56561905D01*
X109304762Y-56514286D01*
X109352381Y-56419048D01*
X109352381Y-56228571D01*
X109304762Y-56133333D01*
X109257143Y-56085714D01*
X109161905Y-56038095D01*
X108923810Y-56038095D01*
X108828571Y-56085714D01*
X108780952Y-56133333D01*
X108733333Y-56228571D01*
X108733333Y-56419048D01*
X108780952Y-56514286D01*
X108828571Y-56561905D01*
X108923810Y-56609524D01*
X110007143Y-62992857D02*
X110054762Y-63040476D01*
X110102381Y-63183333D01*
X110102381Y-63278571D01*
X110054762Y-63421429D01*
X109959524Y-63516667D01*
X109864286Y-63564286D01*
X109673810Y-63611905D01*
X109530952Y-63611905D01*
X109340476Y-63564286D01*
X109245238Y-63516667D01*
X109150000Y-63421429D01*
X109102381Y-63278571D01*
X109102381Y-63183333D01*
X109150000Y-63040476D01*
X109197619Y-62992857D01*
X109197619Y-62611905D02*
X109150000Y-62564286D01*
X109102381Y-62469048D01*
X109102381Y-62230952D01*
X109150000Y-62135714D01*
X109197619Y-62088095D01*
X109292857Y-62040476D01*
X109388095Y-62040476D01*
X109530952Y-62088095D01*
X110102381Y-62659524D01*
X110102381Y-62040476D01*
X109102381Y-61707143D02*
X109102381Y-61040476D01*
X110102381Y-61469048D01*
X106107143Y-67357143D02*
X106059524Y-67404762D01*
X105916667Y-67452381D01*
X105821429Y-67452381D01*
X105678571Y-67404762D01*
X105583333Y-67309524D01*
X105535714Y-67214286D01*
X105488095Y-67023810D01*
X105488095Y-66880952D01*
X105535714Y-66690476D01*
X105583333Y-66595238D01*
X105678571Y-66500000D01*
X105821429Y-66452381D01*
X105916667Y-66452381D01*
X106059524Y-66500000D01*
X106107143Y-66547619D01*
X106488095Y-66547619D02*
X106535714Y-66500000D01*
X106630952Y-66452381D01*
X106869048Y-66452381D01*
X106964286Y-66500000D01*
X107011905Y-66547619D01*
X107059524Y-66642857D01*
X107059524Y-66738095D01*
X107011905Y-66880952D01*
X106440476Y-67452381D01*
X107059524Y-67452381D01*
X107630952Y-66880952D02*
X107535714Y-66833333D01*
X107488095Y-66785714D01*
X107440476Y-66690476D01*
X107440476Y-66642857D01*
X107488095Y-66547619D01*
X107535714Y-66500000D01*
X107630952Y-66452381D01*
X107821429Y-66452381D01*
X107916667Y-66500000D01*
X107964286Y-66547619D01*
X108011905Y-66642857D01*
X108011905Y-66690476D01*
X107964286Y-66785714D01*
X107916667Y-66833333D01*
X107821429Y-66880952D01*
X107630952Y-66880952D01*
X107535714Y-66928571D01*
X107488095Y-66976190D01*
X107440476Y-67071429D01*
X107440476Y-67261905D01*
X107488095Y-67357143D01*
X107535714Y-67404762D01*
X107630952Y-67452381D01*
X107821429Y-67452381D01*
X107916667Y-67404762D01*
X107964286Y-67357143D01*
X108011905Y-67261905D01*
X108011905Y-67071429D01*
X107964286Y-66976190D01*
X107916667Y-66928571D01*
X107821429Y-66880952D01*
X109607143Y-72642857D02*
X109654762Y-72690476D01*
X109702381Y-72833333D01*
X109702381Y-72928571D01*
X109654762Y-73071429D01*
X109559524Y-73166667D01*
X109464286Y-73214286D01*
X109273810Y-73261905D01*
X109130952Y-73261905D01*
X108940476Y-73214286D01*
X108845238Y-73166667D01*
X108750000Y-73071429D01*
X108702381Y-72928571D01*
X108702381Y-72833333D01*
X108750000Y-72690476D01*
X108797619Y-72642857D01*
X108797619Y-72261905D02*
X108750000Y-72214286D01*
X108702381Y-72119048D01*
X108702381Y-71880952D01*
X108750000Y-71785714D01*
X108797619Y-71738095D01*
X108892857Y-71690476D01*
X108988095Y-71690476D01*
X109130952Y-71738095D01*
X109702381Y-72309524D01*
X109702381Y-71690476D01*
X109702381Y-71214286D02*
X109702381Y-71023810D01*
X109654762Y-70928571D01*
X109607143Y-70880952D01*
X109464286Y-70785714D01*
X109273810Y-70738095D01*
X108892857Y-70738095D01*
X108797619Y-70785714D01*
X108750000Y-70833333D01*
X108702381Y-70928571D01*
X108702381Y-71119048D01*
X108750000Y-71214286D01*
X108797619Y-71261905D01*
X108892857Y-71309524D01*
X109130952Y-71309524D01*
X109226190Y-71261905D01*
X109273810Y-71214286D01*
X109321429Y-71119048D01*
X109321429Y-70928571D01*
X109273810Y-70833333D01*
X109226190Y-70785714D01*
X109130952Y-70738095D01*
X134161905Y-37402381D02*
X134161905Y-36402381D01*
X134400000Y-36402381D01*
X134542858Y-36450000D01*
X134638096Y-36545238D01*
X134685715Y-36640476D01*
X134733334Y-36830952D01*
X134733334Y-36973810D01*
X134685715Y-37164286D01*
X134638096Y-37259524D01*
X134542858Y-37354762D01*
X134400000Y-37402381D01*
X134161905Y-37402381D01*
X135685715Y-37402381D02*
X135114286Y-37402381D01*
X135400000Y-37402381D02*
X135400000Y-36402381D01*
X135304762Y-36545238D01*
X135209524Y-36640476D01*
X135114286Y-36688095D01*
X140461905Y-47902381D02*
X140461905Y-46902381D01*
X140700000Y-46902381D01*
X140842858Y-46950000D01*
X140938096Y-47045238D01*
X140985715Y-47140476D01*
X141033334Y-47330952D01*
X141033334Y-47473810D01*
X140985715Y-47664286D01*
X140938096Y-47759524D01*
X140842858Y-47854762D01*
X140700000Y-47902381D01*
X140461905Y-47902381D01*
X141414286Y-46997619D02*
X141461905Y-46950000D01*
X141557143Y-46902381D01*
X141795239Y-46902381D01*
X141890477Y-46950000D01*
X141938096Y-46997619D01*
X141985715Y-47092857D01*
X141985715Y-47188095D01*
X141938096Y-47330952D01*
X141366667Y-47902381D01*
X141985715Y-47902381D01*
X118823810Y-56452381D02*
X118823810Y-55452381D01*
X119871429Y-56357143D02*
X119823810Y-56404762D01*
X119680953Y-56452381D01*
X119585715Y-56452381D01*
X119442857Y-56404762D01*
X119347619Y-56309524D01*
X119300000Y-56214286D01*
X119252381Y-56023810D01*
X119252381Y-55880952D01*
X119300000Y-55690476D01*
X119347619Y-55595238D01*
X119442857Y-55500000D01*
X119585715Y-55452381D01*
X119680953Y-55452381D01*
X119823810Y-55500000D01*
X119871429Y-55547619D01*
X120823810Y-56452381D02*
X120252381Y-56452381D01*
X120538095Y-56452381D02*
X120538095Y-55452381D01*
X120442857Y-55595238D01*
X120347619Y-55690476D01*
X120252381Y-55738095D01*
X130752381Y-38666666D02*
X130752381Y-39142857D01*
X129752381Y-39142857D01*
X130752381Y-37809523D02*
X130752381Y-38380952D01*
X130752381Y-38095238D02*
X129752381Y-38095238D01*
X129895238Y-38190476D01*
X129990476Y-38285714D01*
X130038095Y-38380952D01*
X103261905Y-33952381D02*
X103261905Y-32952381D01*
X103642858Y-32952381D01*
X103738096Y-33000000D01*
X103785715Y-33047619D01*
X103833334Y-33142857D01*
X103833334Y-33285714D01*
X103785715Y-33380952D01*
X103738096Y-33428571D01*
X103642858Y-33476190D01*
X103261905Y-33476190D01*
X104785715Y-33952381D02*
X104214286Y-33952381D01*
X104500000Y-33952381D02*
X104500000Y-32952381D01*
X104404762Y-33095238D01*
X104309524Y-33190476D01*
X104214286Y-33238095D01*
X107611905Y-35752381D02*
X107611905Y-34752381D01*
X107992858Y-34752381D01*
X108088096Y-34800000D01*
X108135715Y-34847619D01*
X108183334Y-34942857D01*
X108183334Y-35085714D01*
X108135715Y-35180952D01*
X108088096Y-35228571D01*
X107992858Y-35276190D01*
X107611905Y-35276190D01*
X108564286Y-34847619D02*
X108611905Y-34800000D01*
X108707143Y-34752381D01*
X108945239Y-34752381D01*
X109040477Y-34800000D01*
X109088096Y-34847619D01*
X109135715Y-34942857D01*
X109135715Y-35038095D01*
X109088096Y-35180952D01*
X108516667Y-35752381D01*
X109135715Y-35752381D01*
X129602381Y-29988095D02*
X128602381Y-29988095D01*
X128602381Y-29607142D01*
X128650000Y-29511904D01*
X128697619Y-29464285D01*
X128792857Y-29416666D01*
X128935714Y-29416666D01*
X129030952Y-29464285D01*
X129078571Y-29511904D01*
X129126190Y-29607142D01*
X129126190Y-29988095D01*
X128602381Y-29083333D02*
X128602381Y-28464285D01*
X128983333Y-28797619D01*
X128983333Y-28654761D01*
X129030952Y-28559523D01*
X129078571Y-28511904D01*
X129173810Y-28464285D01*
X129411905Y-28464285D01*
X129507143Y-28511904D01*
X129554762Y-28559523D01*
X129602381Y-28654761D01*
X129602381Y-28940476D01*
X129554762Y-29035714D01*
X129507143Y-29083333D01*
X112861905Y-35752381D02*
X112861905Y-34752381D01*
X113242858Y-34752381D01*
X113338096Y-34800000D01*
X113385715Y-34847619D01*
X113433334Y-34942857D01*
X113433334Y-35085714D01*
X113385715Y-35180952D01*
X113338096Y-35228571D01*
X113242858Y-35276190D01*
X112861905Y-35276190D01*
X114290477Y-35085714D02*
X114290477Y-35752381D01*
X114052381Y-34704762D02*
X113814286Y-35419048D01*
X114433334Y-35419048D01*
X146161905Y-33452381D02*
X146161905Y-32452381D01*
X146542858Y-32452381D01*
X146638096Y-32500000D01*
X146685715Y-32547619D01*
X146733334Y-32642857D01*
X146733334Y-32785714D01*
X146685715Y-32880952D01*
X146638096Y-32928571D01*
X146542858Y-32976190D01*
X146161905Y-32976190D01*
X147638096Y-32452381D02*
X147161905Y-32452381D01*
X147114286Y-32928571D01*
X147161905Y-32880952D01*
X147257143Y-32833333D01*
X147495239Y-32833333D01*
X147590477Y-32880952D01*
X147638096Y-32928571D01*
X147685715Y-33023810D01*
X147685715Y-33261905D01*
X147638096Y-33357143D01*
X147590477Y-33404762D01*
X147495239Y-33452381D01*
X147257143Y-33452381D01*
X147161905Y-33404762D01*
X147114286Y-33357143D01*
X112161905Y-55852381D02*
X112161905Y-54852381D01*
X112542858Y-54852381D01*
X112638096Y-54900000D01*
X112685715Y-54947619D01*
X112733334Y-55042857D01*
X112733334Y-55185714D01*
X112685715Y-55280952D01*
X112638096Y-55328571D01*
X112542858Y-55376190D01*
X112161905Y-55376190D01*
X113590477Y-54852381D02*
X113400000Y-54852381D01*
X113304762Y-54900000D01*
X113257143Y-54947619D01*
X113161905Y-55090476D01*
X113114286Y-55280952D01*
X113114286Y-55661905D01*
X113161905Y-55757143D01*
X113209524Y-55804762D01*
X113304762Y-55852381D01*
X113495239Y-55852381D01*
X113590477Y-55804762D01*
X113638096Y-55757143D01*
X113685715Y-55661905D01*
X113685715Y-55423810D01*
X113638096Y-55328571D01*
X113590477Y-55280952D01*
X113495239Y-55233333D01*
X113304762Y-55233333D01*
X113209524Y-55280952D01*
X113161905Y-55328571D01*
X113114286Y-55423810D01*
X115761905Y-55852381D02*
X115761905Y-54852381D01*
X116142858Y-54852381D01*
X116238096Y-54900000D01*
X116285715Y-54947619D01*
X116333334Y-55042857D01*
X116333334Y-55185714D01*
X116285715Y-55280952D01*
X116238096Y-55328571D01*
X116142858Y-55376190D01*
X115761905Y-55376190D01*
X116666667Y-54852381D02*
X117333334Y-54852381D01*
X116904762Y-55852381D01*
X136161905Y-47702381D02*
X136161905Y-46702381D01*
X136542858Y-46702381D01*
X136638096Y-46750000D01*
X136685715Y-46797619D01*
X136733334Y-46892857D01*
X136733334Y-47035714D01*
X136685715Y-47130952D01*
X136638096Y-47178571D01*
X136542858Y-47226190D01*
X136161905Y-47226190D01*
X137304762Y-47130952D02*
X137209524Y-47083333D01*
X137161905Y-47035714D01*
X137114286Y-46940476D01*
X137114286Y-46892857D01*
X137161905Y-46797619D01*
X137209524Y-46750000D01*
X137304762Y-46702381D01*
X137495239Y-46702381D01*
X137590477Y-46750000D01*
X137638096Y-46797619D01*
X137685715Y-46892857D01*
X137685715Y-46940476D01*
X137638096Y-47035714D01*
X137590477Y-47083333D01*
X137495239Y-47130952D01*
X137304762Y-47130952D01*
X137209524Y-47178571D01*
X137161905Y-47226190D01*
X137114286Y-47321429D01*
X137114286Y-47511905D01*
X137161905Y-47607143D01*
X137209524Y-47654762D01*
X137304762Y-47702381D01*
X137495239Y-47702381D01*
X137590477Y-47654762D01*
X137638096Y-47607143D01*
X137685715Y-47511905D01*
X137685715Y-47321429D01*
X137638096Y-47226190D01*
X137590477Y-47178571D01*
X137495239Y-47130952D01*
X114947619Y-86595238D02*
X114900000Y-86690476D01*
X114804762Y-86785714D01*
X114661905Y-86928571D01*
X114614286Y-87023810D01*
X114614286Y-87119048D01*
X114852381Y-87071429D02*
X114804762Y-87166667D01*
X114709524Y-87261905D01*
X114519048Y-87309524D01*
X114185714Y-87309524D01*
X113995238Y-87261905D01*
X113900000Y-87166667D01*
X113852381Y-87071429D01*
X113852381Y-86880952D01*
X113900000Y-86785714D01*
X113995238Y-86690476D01*
X114185714Y-86642857D01*
X114519048Y-86642857D01*
X114709524Y-86690476D01*
X114804762Y-86785714D01*
X114852381Y-86880952D01*
X114852381Y-87071429D01*
X114852381Y-85690476D02*
X114852381Y-86261905D01*
X114852381Y-85976191D02*
X113852381Y-85976191D01*
X113995238Y-86071429D01*
X114090476Y-86166667D01*
X114138095Y-86261905D01*
X125147619Y-77595238D02*
X125100000Y-77690476D01*
X125004762Y-77785714D01*
X124861905Y-77928571D01*
X124814286Y-78023810D01*
X124814286Y-78119048D01*
X125052381Y-78071429D02*
X125004762Y-78166667D01*
X124909524Y-78261905D01*
X124719048Y-78309524D01*
X124385714Y-78309524D01*
X124195238Y-78261905D01*
X124100000Y-78166667D01*
X124052381Y-78071429D01*
X124052381Y-77880952D01*
X124100000Y-77785714D01*
X124195238Y-77690476D01*
X124385714Y-77642857D01*
X124719048Y-77642857D01*
X124909524Y-77690476D01*
X125004762Y-77785714D01*
X125052381Y-77880952D01*
X125052381Y-78071429D01*
X124147619Y-77261905D02*
X124100000Y-77214286D01*
X124052381Y-77119048D01*
X124052381Y-76880952D01*
X124100000Y-76785714D01*
X124147619Y-76738095D01*
X124242857Y-76690476D01*
X124338095Y-76690476D01*
X124480952Y-76738095D01*
X125052381Y-77309524D01*
X125052381Y-76690476D01*
X126333334Y-70552381D02*
X126000000Y-70076190D01*
X125761905Y-70552381D02*
X125761905Y-69552381D01*
X126142858Y-69552381D01*
X126238096Y-69600000D01*
X126285715Y-69647619D01*
X126333334Y-69742857D01*
X126333334Y-69885714D01*
X126285715Y-69980952D01*
X126238096Y-70028571D01*
X126142858Y-70076190D01*
X125761905Y-70076190D01*
X127285715Y-70552381D02*
X126714286Y-70552381D01*
X127000000Y-70552381D02*
X127000000Y-69552381D01*
X126904762Y-69695238D01*
X126809524Y-69790476D01*
X126714286Y-69838095D01*
X127452381Y-38766666D02*
X126976190Y-39100000D01*
X127452381Y-39338095D02*
X126452381Y-39338095D01*
X126452381Y-38957142D01*
X126500000Y-38861904D01*
X126547619Y-38814285D01*
X126642857Y-38766666D01*
X126785714Y-38766666D01*
X126880952Y-38814285D01*
X126928571Y-38861904D01*
X126976190Y-38957142D01*
X126976190Y-39338095D01*
X126547619Y-38385714D02*
X126500000Y-38338095D01*
X126452381Y-38242857D01*
X126452381Y-38004761D01*
X126500000Y-37909523D01*
X126547619Y-37861904D01*
X126642857Y-37814285D01*
X126738095Y-37814285D01*
X126880952Y-37861904D01*
X127452381Y-38433333D01*
X127452381Y-37814285D01*
X135833334Y-83202381D02*
X135500000Y-82726190D01*
X135261905Y-83202381D02*
X135261905Y-82202381D01*
X135642858Y-82202381D01*
X135738096Y-82250000D01*
X135785715Y-82297619D01*
X135833334Y-82392857D01*
X135833334Y-82535714D01*
X135785715Y-82630952D01*
X135738096Y-82678571D01*
X135642858Y-82726190D01*
X135261905Y-82726190D01*
X136166667Y-82202381D02*
X136785715Y-82202381D01*
X136452381Y-82583333D01*
X136595239Y-82583333D01*
X136690477Y-82630952D01*
X136738096Y-82678571D01*
X136785715Y-82773810D01*
X136785715Y-83011905D01*
X136738096Y-83107143D01*
X136690477Y-83154762D01*
X136595239Y-83202381D01*
X136309524Y-83202381D01*
X136214286Y-83154762D01*
X136166667Y-83107143D01*
X121752381Y-38766666D02*
X121276190Y-39100000D01*
X121752381Y-39338095D02*
X120752381Y-39338095D01*
X120752381Y-38957142D01*
X120800000Y-38861904D01*
X120847619Y-38814285D01*
X120942857Y-38766666D01*
X121085714Y-38766666D01*
X121180952Y-38814285D01*
X121228571Y-38861904D01*
X121276190Y-38957142D01*
X121276190Y-39338095D01*
X121085714Y-37909523D02*
X121752381Y-37909523D01*
X120704762Y-38147619D02*
X121419048Y-38385714D01*
X121419048Y-37766666D01*
X131357143Y-83202381D02*
X131023809Y-82726190D01*
X130785714Y-83202381D02*
X130785714Y-82202381D01*
X131166667Y-82202381D01*
X131261905Y-82250000D01*
X131309524Y-82297619D01*
X131357143Y-82392857D01*
X131357143Y-82535714D01*
X131309524Y-82630952D01*
X131261905Y-82678571D01*
X131166667Y-82726190D01*
X130785714Y-82726190D01*
X132309524Y-83202381D02*
X131738095Y-83202381D01*
X132023809Y-83202381D02*
X132023809Y-82202381D01*
X131928571Y-82345238D01*
X131833333Y-82440476D01*
X131738095Y-82488095D01*
X133166667Y-82535714D02*
X133166667Y-83202381D01*
X132928571Y-82154762D02*
X132690476Y-82869048D01*
X133309524Y-82869048D01*
X127457143Y-54452381D02*
X127123809Y-53976190D01*
X126885714Y-54452381D02*
X126885714Y-53452381D01*
X127266667Y-53452381D01*
X127361905Y-53500000D01*
X127409524Y-53547619D01*
X127457143Y-53642857D01*
X127457143Y-53785714D01*
X127409524Y-53880952D01*
X127361905Y-53928571D01*
X127266667Y-53976190D01*
X126885714Y-53976190D01*
X128409524Y-54452381D02*
X127838095Y-54452381D01*
X128123809Y-54452381D02*
X128123809Y-53452381D01*
X128028571Y-53595238D01*
X127933333Y-53690476D01*
X127838095Y-53738095D01*
X129314286Y-53452381D02*
X128838095Y-53452381D01*
X128790476Y-53928571D01*
X128838095Y-53880952D01*
X128933333Y-53833333D01*
X129171429Y-53833333D01*
X129266667Y-53880952D01*
X129314286Y-53928571D01*
X129361905Y-54023810D01*
X129361905Y-54261905D01*
X129314286Y-54357143D01*
X129266667Y-54404762D01*
X129171429Y-54452381D01*
X128933333Y-54452381D01*
X128838095Y-54404762D01*
X128790476Y-54357143D01*
X123288095Y-49052381D02*
X123288095Y-49861905D01*
X123335714Y-49957143D01*
X123383333Y-50004762D01*
X123478571Y-50052381D01*
X123669048Y-50052381D01*
X123764286Y-50004762D01*
X123811905Y-49957143D01*
X123859524Y-49861905D01*
X123859524Y-49052381D01*
X124859524Y-50052381D02*
X124288095Y-50052381D01*
X124573809Y-50052381D02*
X124573809Y-49052381D01*
X124478571Y-49195238D01*
X124383333Y-49290476D01*
X124288095Y-49338095D01*
X134138095Y-65827381D02*
X134138095Y-66636905D01*
X134185714Y-66732143D01*
X134233333Y-66779762D01*
X134328571Y-66827381D01*
X134519048Y-66827381D01*
X134614286Y-66779762D01*
X134661905Y-66732143D01*
X134709524Y-66636905D01*
X134709524Y-65827381D01*
X135090476Y-65827381D02*
X135757143Y-65827381D01*
X135328571Y-66827381D01*
X125452381Y-73511905D02*
X126261905Y-73511905D01*
X126357143Y-73464286D01*
X126404762Y-73416667D01*
X126452381Y-73321429D01*
X126452381Y-73130952D01*
X126404762Y-73035714D01*
X126357143Y-72988095D01*
X126261905Y-72940476D01*
X125452381Y-72940476D01*
X125880952Y-72321429D02*
X125833333Y-72416667D01*
X125785714Y-72464286D01*
X125690476Y-72511905D01*
X125642857Y-72511905D01*
X125547619Y-72464286D01*
X125500000Y-72416667D01*
X125452381Y-72321429D01*
X125452381Y-72130952D01*
X125500000Y-72035714D01*
X125547619Y-71988095D01*
X125642857Y-71940476D01*
X125690476Y-71940476D01*
X125785714Y-71988095D01*
X125833333Y-72035714D01*
X125880952Y-72130952D01*
X125880952Y-72321429D01*
X125928571Y-72416667D01*
X125976190Y-72464286D01*
X126071429Y-72511905D01*
X126261905Y-72511905D01*
X126357143Y-72464286D01*
X126404762Y-72416667D01*
X126452381Y-72321429D01*
X126452381Y-72130952D01*
X126404762Y-72035714D01*
X126357143Y-71988095D01*
X126261905Y-71940476D01*
X126071429Y-71940476D01*
X125976190Y-71988095D01*
X125928571Y-72035714D01*
X125880952Y-72130952D01*
X110988095Y-76452381D02*
X110988095Y-77261905D01*
X111035714Y-77357143D01*
X111083333Y-77404762D01*
X111178571Y-77452381D01*
X111369048Y-77452381D01*
X111464286Y-77404762D01*
X111511905Y-77357143D01*
X111559524Y-77261905D01*
X111559524Y-76452381D01*
X112083333Y-77452381D02*
X112273809Y-77452381D01*
X112369048Y-77404762D01*
X112416667Y-77357143D01*
X112511905Y-77214286D01*
X112559524Y-77023810D01*
X112559524Y-76642857D01*
X112511905Y-76547619D01*
X112464286Y-76500000D01*
X112369048Y-76452381D01*
X112178571Y-76452381D01*
X112083333Y-76500000D01*
X112035714Y-76547619D01*
X111988095Y-76642857D01*
X111988095Y-76880952D01*
X112035714Y-76976190D01*
X112083333Y-77023810D01*
X112178571Y-77071429D01*
X112369048Y-77071429D01*
X112464286Y-77023810D01*
X112511905Y-76976190D01*
X112559524Y-76880952D01*
X124252381Y-84838095D02*
X125061905Y-84838095D01*
X125157143Y-84790476D01*
X125204762Y-84742857D01*
X125252381Y-84647619D01*
X125252381Y-84457142D01*
X125204762Y-84361904D01*
X125157143Y-84314285D01*
X125061905Y-84266666D01*
X124252381Y-84266666D01*
X125252381Y-83266666D02*
X125252381Y-83838095D01*
X125252381Y-83552381D02*
X124252381Y-83552381D01*
X124395238Y-83647619D01*
X124490476Y-83742857D01*
X124538095Y-83838095D01*
X124252381Y-82647619D02*
X124252381Y-82552380D01*
X124300000Y-82457142D01*
X124347619Y-82409523D01*
X124442857Y-82361904D01*
X124633333Y-82314285D01*
X124871429Y-82314285D01*
X125061905Y-82361904D01*
X125157143Y-82409523D01*
X125204762Y-82457142D01*
X125252381Y-82552380D01*
X125252381Y-82647619D01*
X125204762Y-82742857D01*
X125157143Y-82790476D01*
X125061905Y-82838095D01*
X124871429Y-82885714D01*
X124633333Y-82885714D01*
X124442857Y-82838095D01*
X124347619Y-82790476D01*
X124300000Y-82742857D01*
X124252381Y-82647619D01*
X116652381Y-40204762D02*
X117652381Y-39966667D01*
X116938095Y-39776190D01*
X117652381Y-39585714D01*
X116652381Y-39347619D01*
X116747619Y-39014286D02*
X116700000Y-38966667D01*
X116652381Y-38871429D01*
X116652381Y-38633333D01*
X116700000Y-38538095D01*
X116747619Y-38490476D01*
X116842857Y-38442857D01*
X116938095Y-38442857D01*
X117080952Y-38490476D01*
X117652381Y-39061905D01*
X117652381Y-38442857D01*
X132452381Y-58704762D02*
X133452381Y-58466667D01*
X132738095Y-58276190D01*
X133452381Y-58085714D01*
X132452381Y-57847619D01*
X132452381Y-57561905D02*
X132452381Y-56895238D01*
X133452381Y-57323810D01*
X134652381Y-58704762D02*
X135652381Y-58466667D01*
X134938095Y-58276190D01*
X135652381Y-58085714D01*
X134652381Y-57847619D01*
X135080952Y-57323810D02*
X135033333Y-57419048D01*
X134985714Y-57466667D01*
X134890476Y-57514286D01*
X134842857Y-57514286D01*
X134747619Y-57466667D01*
X134700000Y-57419048D01*
X134652381Y-57323810D01*
X134652381Y-57133333D01*
X134700000Y-57038095D01*
X134747619Y-56990476D01*
X134842857Y-56942857D01*
X134890476Y-56942857D01*
X134985714Y-56990476D01*
X135033333Y-57038095D01*
X135080952Y-57133333D01*
X135080952Y-57323810D01*
X135128571Y-57419048D01*
X135176190Y-57466667D01*
X135271429Y-57514286D01*
X135461905Y-57514286D01*
X135557143Y-57466667D01*
X135604762Y-57419048D01*
X135652381Y-57323810D01*
X135652381Y-57133333D01*
X135604762Y-57038095D01*
X135557143Y-56990476D01*
X135461905Y-56942857D01*
X135271429Y-56942857D01*
X135176190Y-56990476D01*
X135128571Y-57038095D01*
X135080952Y-57133333D01*
X137595238Y-68202381D02*
X137833333Y-69202381D01*
X138023810Y-68488095D01*
X138214286Y-69202381D01*
X138452381Y-68202381D01*
X138880952Y-69202381D02*
X139071428Y-69202381D01*
X139166667Y-69154762D01*
X139214286Y-69107143D01*
X139309524Y-68964286D01*
X139357143Y-68773810D01*
X139357143Y-68392857D01*
X139309524Y-68297619D01*
X139261905Y-68250000D01*
X139166667Y-68202381D01*
X138976190Y-68202381D01*
X138880952Y-68250000D01*
X138833333Y-68297619D01*
X138785714Y-68392857D01*
X138785714Y-68630952D01*
X138833333Y-68726190D01*
X138880952Y-68773810D01*
X138976190Y-68821429D01*
X139166667Y-68821429D01*
X139261905Y-68773810D01*
X139309524Y-68726190D01*
X139357143Y-68630952D01*
X111476190Y-66226191D02*
X111952381Y-66226191D01*
X110952381Y-66559524D02*
X111476190Y-66226191D01*
X110952381Y-65892857D01*
X111952381Y-65035714D02*
X111952381Y-65607143D01*
X111952381Y-65321429D02*
X110952381Y-65321429D01*
X111095238Y-65416667D01*
X111190476Y-65511905D01*
X111238095Y-65607143D01*
X105302381Y-31435714D02*
X105302381Y-30864285D01*
X106302381Y-31150000D02*
X105302381Y-31150000D01*
X106302381Y-30530952D02*
X105302381Y-30530952D01*
X105778571Y-30530952D02*
X105778571Y-29959523D01*
X106302381Y-29959523D02*
X105302381Y-29959523D01*
X106302381Y-28959523D02*
X106302381Y-29530952D01*
X106302381Y-29245238D02*
X105302381Y-29245238D01*
X105445238Y-29340476D01*
X105540476Y-29435714D01*
X105588095Y-29530952D01*
X147852381Y-31385714D02*
X147852381Y-30814285D01*
X148852381Y-31100000D02*
X147852381Y-31100000D01*
X148852381Y-30480952D02*
X147852381Y-30480952D01*
X148328571Y-30480952D02*
X148328571Y-29909523D01*
X148852381Y-29909523D02*
X147852381Y-29909523D01*
X147947619Y-29480952D02*
X147900000Y-29433333D01*
X147852381Y-29338095D01*
X147852381Y-29099999D01*
X147900000Y-29004761D01*
X147947619Y-28957142D01*
X148042857Y-28909523D01*
X148138095Y-28909523D01*
X148280952Y-28957142D01*
X148852381Y-29528571D01*
X148852381Y-28909523D01*
X142852381Y-91385714D02*
X142852381Y-90814285D01*
X143852381Y-91100000D02*
X142852381Y-91100000D01*
X143852381Y-90480952D02*
X142852381Y-90480952D01*
X143328571Y-90480952D02*
X143328571Y-89909523D01*
X143852381Y-89909523D02*
X142852381Y-89909523D01*
X142852381Y-89528571D02*
X142852381Y-88909523D01*
X143233333Y-89242857D01*
X143233333Y-89099999D01*
X143280952Y-89004761D01*
X143328571Y-88957142D01*
X143423810Y-88909523D01*
X143661905Y-88909523D01*
X143757143Y-88957142D01*
X143804762Y-89004761D01*
X143852381Y-89099999D01*
X143852381Y-89385714D01*
X143804762Y-89480952D01*
X143757143Y-89528571D01*
X105452381Y-91385714D02*
X105452381Y-90814285D01*
X106452381Y-91100000D02*
X105452381Y-91100000D01*
X106452381Y-90480952D02*
X105452381Y-90480952D01*
X105928571Y-90480952D02*
X105928571Y-89909523D01*
X106452381Y-89909523D02*
X105452381Y-89909523D01*
X105785714Y-89004761D02*
X106452381Y-89004761D01*
X105404762Y-89242857D02*
X106119048Y-89480952D01*
X106119048Y-88861904D01*
X136057143Y-32407143D02*
X136009524Y-32454762D01*
X135866667Y-32502381D01*
X135771429Y-32502381D01*
X135628571Y-32454762D01*
X135533333Y-32359524D01*
X135485714Y-32264286D01*
X135438095Y-32073810D01*
X135438095Y-31930952D01*
X135485714Y-31740476D01*
X135533333Y-31645238D01*
X135628571Y-31550000D01*
X135771429Y-31502381D01*
X135866667Y-31502381D01*
X136009524Y-31550000D01*
X136057143Y-31597619D01*
X136390476Y-31502381D02*
X137009524Y-31502381D01*
X136676190Y-31883333D01*
X136819048Y-31883333D01*
X136914286Y-31930952D01*
X136961905Y-31978571D01*
X137009524Y-32073810D01*
X137009524Y-32311905D01*
X136961905Y-32407143D01*
X136914286Y-32454762D01*
X136819048Y-32502381D01*
X136533333Y-32502381D01*
X136438095Y-32454762D01*
X136390476Y-32407143D01*
X137628571Y-31502381D02*
X137723810Y-31502381D01*
X137819048Y-31550000D01*
X137866667Y-31597619D01*
X137914286Y-31692857D01*
X137961905Y-31883333D01*
X137961905Y-32121429D01*
X137914286Y-32311905D01*
X137866667Y-32407143D01*
X137819048Y-32454762D01*
X137723810Y-32502381D01*
X137628571Y-32502381D01*
X137533333Y-32454762D01*
X137485714Y-32407143D01*
X137438095Y-32311905D01*
X137390476Y-32121429D01*
X137390476Y-31883333D01*
X137438095Y-31692857D01*
X137485714Y-31597619D01*
X137533333Y-31550000D01*
X137628571Y-31502381D01*
X112811905Y-70202381D02*
X112811905Y-69202381D01*
X113050000Y-69202381D01*
X113192858Y-69250000D01*
X113288096Y-69345238D01*
X113335715Y-69440476D01*
X113383334Y-69630952D01*
X113383334Y-69773810D01*
X113335715Y-69964286D01*
X113288096Y-70059524D01*
X113192858Y-70154762D01*
X113050000Y-70202381D01*
X112811905Y-70202381D01*
X114288096Y-69202381D02*
X113811905Y-69202381D01*
X113764286Y-69678571D01*
X113811905Y-69630952D01*
X113907143Y-69583333D01*
X114145239Y-69583333D01*
X114240477Y-69630952D01*
X114288096Y-69678571D01*
X114335715Y-69773810D01*
X114335715Y-70011905D01*
X114288096Y-70107143D01*
X114240477Y-70154762D01*
X114145239Y-70202381D01*
X113907143Y-70202381D01*
X113811905Y-70154762D01*
X113764286Y-70107143D01*
X118557143Y-69752381D02*
X118223809Y-69276190D01*
X117985714Y-69752381D02*
X117985714Y-68752381D01*
X118366667Y-68752381D01*
X118461905Y-68800000D01*
X118509524Y-68847619D01*
X118557143Y-68942857D01*
X118557143Y-69085714D01*
X118509524Y-69180952D01*
X118461905Y-69228571D01*
X118366667Y-69276190D01*
X117985714Y-69276190D01*
X119509524Y-69752381D02*
X118938095Y-69752381D01*
X119223809Y-69752381D02*
X119223809Y-68752381D01*
X119128571Y-68895238D01*
X119033333Y-68990476D01*
X118938095Y-69038095D01*
X120366667Y-68752381D02*
X120176190Y-68752381D01*
X120080952Y-68800000D01*
X120033333Y-68847619D01*
X119938095Y-68990476D01*
X119890476Y-69180952D01*
X119890476Y-69561905D01*
X119938095Y-69657143D01*
X119985714Y-69704762D01*
X120080952Y-69752381D01*
X120271429Y-69752381D01*
X120366667Y-69704762D01*
X120414286Y-69657143D01*
X120461905Y-69561905D01*
X120461905Y-69323810D01*
X120414286Y-69228571D01*
X120366667Y-69180952D01*
X120271429Y-69133333D01*
X120080952Y-69133333D01*
X119985714Y-69180952D01*
X119938095Y-69228571D01*
X119890476Y-69323810D01*
X138088095Y-42052381D02*
X138088095Y-42861905D01*
X138135714Y-42957143D01*
X138183333Y-43004762D01*
X138278571Y-43052381D01*
X138469048Y-43052381D01*
X138564286Y-43004762D01*
X138611905Y-42957143D01*
X138659524Y-42861905D01*
X138659524Y-42052381D01*
X139088095Y-42147619D02*
X139135714Y-42100000D01*
X139230952Y-42052381D01*
X139469048Y-42052381D01*
X139564286Y-42100000D01*
X139611905Y-42147619D01*
X139659524Y-42242857D01*
X139659524Y-42338095D01*
X139611905Y-42480952D01*
X139040476Y-43052381D01*
X139659524Y-43052381D01*
M02*
