G04 #@! TF.FileFunction,Copper,L4,Bot,Signal*
%FSLAX46Y46*%
G04 Gerber Fmt 4.6, Leading zero omitted, Abs format (unit mm)*
G04 Created by KiCad (PCBNEW 4.0.5) date Mon Feb 27 06:48:06 2017*
%MOMM*%
%LPD*%
G01*
G04 APERTURE LIST*
%ADD10C,0.100000*%
%ADD11R,1.100000X0.250000*%
%ADD12R,0.500000X0.600000*%
%ADD13R,1.500000X1.250000*%
%ADD14R,0.600000X0.500000*%
%ADD15R,2.160000X2.260000*%
%ADD16R,2.260000X2.160000*%
%ADD17R,2.032000X1.727200*%
%ADD18O,2.032000X1.727200*%
%ADD19O,1.250000X0.950000*%
%ADD20O,1.000000X1.550000*%
%ADD21R,1.727200X1.727200*%
%ADD22O,1.727200X1.727200*%
%ADD23R,0.600000X0.400000*%
%ADD24R,0.300000X1.650000*%
%ADD25R,1.980000X1.730000*%
%ADD26C,1.524000*%
%ADD27C,1.501140*%
%ADD28C,4.000000*%
%ADD29C,0.600000*%
%ADD30C,0.250000*%
%ADD31C,0.160000*%
%ADD32C,0.500000*%
%ADD33C,0.300000*%
%ADD34C,0.254000*%
G04 APERTURE END LIST*
D10*
D11*
X119150000Y-81650000D03*
X119150000Y-81150000D03*
X119150000Y-80650000D03*
X119150000Y-80150000D03*
X119150000Y-79650000D03*
X123450000Y-79650000D03*
X123450000Y-80150000D03*
X123450000Y-80650000D03*
X123450000Y-81150000D03*
X123450000Y-81650000D03*
D12*
X110600000Y-83950000D03*
X110600000Y-82850000D03*
X125350000Y-80650000D03*
X125350000Y-79550000D03*
D13*
X106700000Y-68050000D03*
X109200000Y-68050000D03*
X107550000Y-80500000D03*
X110050000Y-80500000D03*
D14*
X107100000Y-79000000D03*
X108200000Y-79000000D03*
X107900000Y-66250000D03*
X109000000Y-66250000D03*
D12*
X118000000Y-65650000D03*
X118000000Y-64550000D03*
D14*
X115200000Y-58250000D03*
X116300000Y-58250000D03*
D15*
X143300000Y-45700000D03*
X138400000Y-45700000D03*
D16*
X131750000Y-72850000D03*
X131750000Y-77750000D03*
D17*
X104000000Y-78740000D03*
D18*
X104000000Y-76200000D03*
X104000000Y-73660000D03*
X104000000Y-71120000D03*
X104000000Y-68580000D03*
X104000000Y-66040000D03*
X104000000Y-63500000D03*
X104000000Y-60960000D03*
X104000000Y-58420000D03*
X104000000Y-55880000D03*
X104000000Y-53340000D03*
X104000000Y-50800000D03*
X104000000Y-48260000D03*
X104000000Y-45720000D03*
X104000000Y-43180000D03*
X104000000Y-40640000D03*
X104000000Y-38100000D03*
X104000000Y-35560000D03*
D17*
X108300000Y-37860000D03*
D18*
X108300000Y-40400000D03*
X108300000Y-42940000D03*
D19*
X126200900Y-32962540D03*
X121200900Y-32962540D03*
D20*
X127200900Y-30262540D03*
X120200900Y-30262540D03*
D17*
X113600000Y-37860000D03*
D18*
X113600000Y-40400000D03*
X113600000Y-42940000D03*
D17*
X146900000Y-35560000D03*
D18*
X146900000Y-38100000D03*
X146900000Y-40640000D03*
X146900000Y-43180000D03*
X146900000Y-45720000D03*
X146900000Y-48260000D03*
X146900000Y-50800000D03*
X146900000Y-53340000D03*
X146900000Y-55880000D03*
X146900000Y-58420000D03*
X146900000Y-60960000D03*
X146900000Y-63500000D03*
X146900000Y-66040000D03*
X146900000Y-68580000D03*
X146900000Y-71120000D03*
X146900000Y-73660000D03*
X146900000Y-76200000D03*
X146900000Y-78740000D03*
X146900000Y-81280000D03*
X146900000Y-83820000D03*
X146900000Y-86360000D03*
D17*
X112900000Y-47800000D03*
D18*
X112900000Y-50340000D03*
X112900000Y-52880000D03*
D17*
X116500000Y-47820000D03*
D18*
X116500000Y-50360000D03*
X116500000Y-52900000D03*
D21*
X136940000Y-49600000D03*
D22*
X136940000Y-52140000D03*
X134400000Y-49600000D03*
X134400000Y-52140000D03*
X131860000Y-49600000D03*
X131860000Y-52140000D03*
D23*
X127900000Y-81050000D03*
X127900000Y-80150000D03*
X117500000Y-81150000D03*
X117500000Y-80250000D03*
X101650000Y-83550000D03*
X101650000Y-84450000D03*
X112150000Y-83450000D03*
X112150000Y-84350000D03*
X116050000Y-80250000D03*
X116050000Y-81150000D03*
X102750000Y-84450000D03*
X102750000Y-83550000D03*
X126700000Y-80150000D03*
X126700000Y-81050000D03*
X113600000Y-84350000D03*
X113600000Y-83450000D03*
X134000000Y-61250000D03*
X134000000Y-62150000D03*
D11*
X104450000Y-84950000D03*
X104450000Y-84450000D03*
X104450000Y-83950000D03*
X104450000Y-83450000D03*
X104450000Y-82950000D03*
X108750000Y-82950000D03*
X108750000Y-83450000D03*
X108750000Y-83950000D03*
X108750000Y-84450000D03*
X108750000Y-84950000D03*
D24*
X108900000Y-64400000D03*
X108400000Y-64400000D03*
X107900000Y-64400000D03*
X107400000Y-64400000D03*
X106900000Y-64400000D03*
X106900000Y-59800000D03*
X107400000Y-59800000D03*
X107900000Y-59800000D03*
X108400000Y-59800000D03*
X108900000Y-59800000D03*
D25*
X107900000Y-62100000D03*
D24*
X108500000Y-76800000D03*
X108000000Y-76800000D03*
X107500000Y-76800000D03*
X107000000Y-76800000D03*
X106500000Y-76800000D03*
X106500000Y-72200000D03*
X107000000Y-72200000D03*
X107500000Y-72200000D03*
X108000000Y-72200000D03*
X108500000Y-72200000D03*
D25*
X107500000Y-74500000D03*
D26*
X132300000Y-60700000D03*
D27*
X115100000Y-65640940D03*
X115100000Y-60759060D03*
D28*
X102500000Y-30000000D03*
X145000000Y-30000000D03*
X140000000Y-90000000D03*
X102500000Y-90000000D03*
D29*
X138250000Y-36200000D03*
X124900000Y-73200000D03*
X127050000Y-63050000D03*
X122750000Y-60300000D03*
X128100000Y-49850000D03*
X137050000Y-65700000D03*
X137600000Y-65100000D03*
X137150000Y-61450000D03*
X134100001Y-60418585D03*
X139550000Y-36800000D03*
X136700000Y-32000000D03*
X115100000Y-69800000D03*
X137650000Y-42050000D03*
X134350000Y-45700000D03*
X122000000Y-34750000D03*
X110950000Y-78350000D03*
X113550000Y-73350000D03*
X113550000Y-74000000D03*
X109650000Y-75350000D03*
X109650000Y-73650000D03*
X109650000Y-74550000D03*
X110000000Y-62800000D03*
X110000000Y-61450000D03*
X110000000Y-62100000D03*
X111059696Y-70795334D03*
X110374990Y-66622506D03*
X111705833Y-70974990D03*
X109600000Y-66950000D03*
X117500000Y-79700000D03*
X125500000Y-78400000D03*
X114600000Y-83100000D03*
X108903284Y-78575011D03*
X101650000Y-85250000D03*
X112799998Y-84350000D03*
X111315469Y-82525022D03*
X102750000Y-83000000D03*
X131250000Y-83500000D03*
X133750000Y-80000000D03*
X130225000Y-83525000D03*
X129150000Y-70775000D03*
X133023710Y-61733872D03*
X130700000Y-59800000D03*
X117650000Y-61400000D03*
X122000000Y-61100000D03*
X137150000Y-62450000D03*
X137141535Y-63261905D03*
X135252803Y-65636702D03*
X116300000Y-57300000D03*
X135700000Y-45700000D03*
X127500000Y-60300000D03*
X123350000Y-86450000D03*
X122400000Y-86500000D03*
X117000000Y-64300000D03*
X139200000Y-60600000D03*
X139600000Y-64000000D03*
X134400000Y-65600000D03*
X119982500Y-44517500D03*
X125300000Y-43900000D03*
X116900000Y-40200000D03*
X132000000Y-46100000D03*
X132000000Y-44700000D03*
X131800000Y-43000000D03*
X130900000Y-32800000D03*
X130200000Y-36700000D03*
X117300000Y-36700000D03*
X130400000Y-61100000D03*
X124100000Y-51750000D03*
X118250000Y-41750000D03*
X139700000Y-74700000D03*
X139700000Y-72950000D03*
X139700000Y-71000000D03*
X106449999Y-79103991D03*
X107950000Y-69250000D03*
X107050000Y-66250000D03*
X106100000Y-80750000D03*
X136750000Y-71000000D03*
X112450000Y-69350000D03*
X111400000Y-69350000D03*
X113250000Y-58000000D03*
X112450000Y-58150000D03*
X113100000Y-58800000D03*
X113250000Y-86775010D03*
X107000000Y-86750000D03*
X124850000Y-82450000D03*
X122800000Y-57900000D03*
X117300000Y-78100000D03*
X110474361Y-58024981D03*
X115702707Y-82125010D03*
X142748101Y-60741381D03*
X130060859Y-56378372D03*
X126700000Y-58100000D03*
X141971565Y-59428435D03*
X129349431Y-56012463D03*
X124900000Y-58500000D03*
X120200000Y-82250000D03*
X121900000Y-62525010D03*
X113049989Y-82050000D03*
X122700000Y-63150000D03*
X107800000Y-47900000D03*
X107850000Y-53300000D03*
X125100000Y-62700000D03*
X114600000Y-81050000D03*
X112400000Y-55600000D03*
X131875010Y-66125010D03*
X132300000Y-62800000D03*
X128500000Y-68700000D03*
X135250000Y-67750000D03*
X130425048Y-66108562D03*
X130500000Y-64300000D03*
X128400000Y-65600000D03*
X134750000Y-67000000D03*
X122850000Y-69950000D03*
X120500000Y-71700000D03*
X128950000Y-64450000D03*
X126800000Y-61900000D03*
X137450000Y-58550000D03*
X127270191Y-48325010D03*
X128300000Y-41300000D03*
X122650000Y-49200000D03*
X110795741Y-55547358D03*
X117113593Y-82125010D03*
X113300000Y-78150000D03*
X111700000Y-76100000D03*
X110450002Y-68450000D03*
X110250000Y-64400000D03*
X126150000Y-76850000D03*
X126300000Y-82450000D03*
X109843652Y-69451587D03*
X109750000Y-65400000D03*
X105750000Y-64850000D03*
X109150000Y-70850000D03*
X106800000Y-83050000D03*
X108550000Y-81800000D03*
X119228760Y-77974990D03*
X109150000Y-69950000D03*
X106410859Y-65592403D03*
X122150000Y-80150000D03*
X113800000Y-79750000D03*
X111350000Y-83700000D03*
D30*
X122400000Y-83700000D02*
X122400000Y-83950000D01*
X122400000Y-83950000D02*
X122400000Y-84700000D01*
X126950000Y-73800000D02*
X127750000Y-74600000D01*
X124900000Y-73200000D02*
X124900000Y-73624264D01*
X124900000Y-73624264D02*
X125075736Y-73800000D01*
X125075736Y-73800000D02*
X126950000Y-73800000D01*
X128350000Y-79550000D02*
X128600000Y-79800000D01*
X128600000Y-79800000D02*
X128600000Y-81750000D01*
X127750000Y-74600000D02*
X127750000Y-79150000D01*
X128150000Y-79550000D02*
X128350000Y-79550000D01*
X127750000Y-79150000D02*
X128150000Y-79550000D01*
X128600000Y-81750000D02*
X126400000Y-83950000D01*
X126400000Y-83950000D02*
X122400000Y-83950000D01*
X123450000Y-80650000D02*
X122650000Y-80650000D01*
X121500000Y-82800000D02*
X122400000Y-83700000D01*
X122650000Y-80650000D02*
X122500000Y-80800000D01*
X107750000Y-83950000D02*
X108750000Y-83950000D01*
X114500000Y-85900000D02*
X109900000Y-85900000D01*
X122500000Y-80800000D02*
X121950000Y-80800000D01*
X107989998Y-85450000D02*
X107550000Y-85010002D01*
X121950000Y-80800000D02*
X121500000Y-81250000D01*
X109450000Y-85450000D02*
X107989998Y-85450000D01*
X121600000Y-85500000D02*
X114900000Y-85500000D01*
X121500000Y-81250000D02*
X121500000Y-82800000D01*
X122400000Y-84700000D02*
X121600000Y-85500000D01*
X107550000Y-85010002D02*
X107550000Y-84150000D01*
X114900000Y-85500000D02*
X114500000Y-85900000D01*
X109900000Y-85900000D02*
X109450000Y-85450000D01*
X107550000Y-84150000D02*
X107750000Y-83950000D01*
X123450000Y-80650000D02*
X125350000Y-80650000D01*
X108750000Y-83950000D02*
X110600000Y-83950000D01*
X134000000Y-60500000D02*
X134081415Y-60418585D01*
X134081415Y-60418585D02*
X134100001Y-60418585D01*
X134000000Y-61250000D02*
X134000000Y-60500000D01*
D31*
X110050000Y-79250000D02*
X110950000Y-78350000D01*
X110050000Y-80500000D02*
X110050000Y-79250000D01*
D30*
X113550000Y-73575736D02*
X113550000Y-73350000D01*
X113550000Y-74000000D02*
X113550000Y-73575736D01*
X110624264Y-74000000D02*
X113550000Y-74000000D01*
X109650000Y-74550000D02*
X110074264Y-74550000D01*
X110074264Y-74550000D02*
X110624264Y-74000000D01*
X109650000Y-74550000D02*
X109650000Y-75350000D01*
X109650000Y-74125736D02*
X109650000Y-73650000D01*
X109650000Y-74550000D02*
X109650000Y-74125736D01*
X108790000Y-74550000D02*
X109650000Y-74550000D01*
X107500000Y-74500000D02*
X108740000Y-74500000D01*
X108740000Y-74500000D02*
X108790000Y-74550000D01*
X110000000Y-62100000D02*
X110000000Y-62800000D01*
X110000000Y-61675736D02*
X110000000Y-61450000D01*
X110000000Y-62100000D02*
X110000000Y-61675736D01*
X109140000Y-62100000D02*
X110000000Y-62100000D01*
X107900000Y-62100000D02*
X109140000Y-62100000D01*
X127250000Y-81050000D02*
X127250000Y-80700000D01*
X127250000Y-80700000D02*
X127800000Y-80150000D01*
X127800000Y-80150000D02*
X127900000Y-80150000D01*
X110074991Y-66322507D02*
X110374990Y-66622506D01*
X109000000Y-66250000D02*
X110002484Y-66250000D01*
X110002484Y-66250000D02*
X110074991Y-66322507D01*
X109425000Y-66950000D02*
X109600000Y-66950000D01*
X109200000Y-68050000D02*
X109200000Y-67175000D01*
X109200000Y-67175000D02*
X109425000Y-66950000D01*
X107900000Y-59950000D02*
X107900000Y-59800000D01*
X107900000Y-62100000D02*
X107900000Y-59950000D01*
X117500000Y-80250000D02*
X117500000Y-79700000D01*
X116050000Y-81150000D02*
X116600000Y-81150000D01*
X116850000Y-80900000D02*
X116850000Y-80350000D01*
X116600000Y-81150000D02*
X116850000Y-80900000D01*
X116850000Y-80350000D02*
X116950000Y-80250000D01*
X116950000Y-80250000D02*
X117500000Y-80250000D01*
X127250000Y-81050000D02*
X126700000Y-81050000D01*
X125350000Y-78550000D02*
X125500000Y-78400000D01*
X125350000Y-79550000D02*
X125350000Y-78550000D01*
X125950000Y-80950000D02*
X126050000Y-81050000D01*
X126050000Y-81050000D02*
X126700000Y-81050000D01*
X125950000Y-79650000D02*
X125950000Y-80950000D01*
X125350000Y-79550000D02*
X125850000Y-79550000D01*
X125850000Y-79550000D02*
X125950000Y-79650000D01*
X117500000Y-80250000D02*
X118050000Y-80250000D01*
X118050000Y-80250000D02*
X118200000Y-80400000D01*
X118200000Y-80400000D02*
X118200000Y-80500000D01*
X118200000Y-80500000D02*
X118350000Y-80650000D01*
X118350000Y-80650000D02*
X119150000Y-80650000D01*
X102750000Y-83550000D02*
X102850000Y-83550000D01*
X102850000Y-83550000D02*
X103250000Y-83950000D01*
X103250000Y-83950000D02*
X103650000Y-83950000D01*
X103650000Y-83950000D02*
X104450000Y-83950000D01*
X114250000Y-83450000D02*
X114600000Y-83100000D01*
X113600000Y-83450000D02*
X114250000Y-83450000D01*
X108903284Y-78846716D02*
X108903284Y-78575011D01*
X108750000Y-79000000D02*
X108903284Y-78846716D01*
X108200000Y-79000000D02*
X108750000Y-79000000D01*
X101650000Y-84450000D02*
X101650000Y-85250000D01*
X107500000Y-72200000D02*
X107500000Y-74500000D01*
X113600000Y-83000000D02*
X113600000Y-82700000D01*
X113600000Y-83450000D02*
X113600000Y-83000000D01*
X112700000Y-84350000D02*
X112799998Y-84350000D01*
X112150000Y-84350000D02*
X112700000Y-84350000D01*
X111315469Y-82634531D02*
X111315469Y-82525022D01*
X111100000Y-82850000D02*
X111315469Y-82634531D01*
X110600000Y-82850000D02*
X111100000Y-82850000D01*
X102750000Y-83550000D02*
X102750000Y-83000000D01*
X132000000Y-80000000D02*
X133750000Y-80000000D01*
X131750000Y-79750000D02*
X132000000Y-80000000D01*
X131750000Y-79080000D02*
X131750000Y-79750000D01*
X131750000Y-77750000D02*
X131750000Y-79080000D01*
X107700000Y-73800000D02*
X107724999Y-73775001D01*
X116300000Y-58250000D02*
X116300000Y-57300000D01*
D32*
X138400000Y-45700000D02*
X135700000Y-45700000D01*
D30*
X117250000Y-64300000D02*
X117000000Y-64300000D01*
X118000000Y-64550000D02*
X117500000Y-64550000D01*
X117500000Y-64550000D02*
X117250000Y-64300000D01*
X130100001Y-60800001D02*
X130400000Y-61100000D01*
X130074999Y-60774999D02*
X130100001Y-60800001D01*
X130074999Y-59499999D02*
X130074999Y-60774999D01*
X130599999Y-58974999D02*
X130074999Y-59499999D01*
X134374999Y-58974999D02*
X130599999Y-58974999D01*
X136000000Y-60600000D02*
X134374999Y-58974999D01*
X137800000Y-60600000D02*
X136000000Y-60600000D01*
X139400000Y-62200000D02*
X137800000Y-60600000D01*
X147800000Y-62200000D02*
X139400000Y-62200000D01*
X148600000Y-63000000D02*
X147800000Y-62200000D01*
X147052400Y-86360000D02*
X148600000Y-84812400D01*
X146900000Y-86360000D02*
X147052400Y-86360000D01*
X148600000Y-84812400D02*
X148600000Y-63000000D01*
X121050000Y-51750000D02*
X124100000Y-51750000D01*
X120850000Y-51550000D02*
X121050000Y-51750000D01*
X120850000Y-51550000D02*
X120900000Y-51600000D01*
X120350000Y-51050000D02*
X120850000Y-51550000D01*
X118250000Y-48950000D02*
X120350000Y-51050000D01*
X118250000Y-41750000D02*
X118250000Y-48950000D01*
X106449999Y-79100001D02*
X106449999Y-79103991D01*
X106550000Y-79000000D02*
X106449999Y-79100001D01*
X107100000Y-79000000D02*
X106550000Y-79000000D01*
X106850000Y-69250000D02*
X107950000Y-69250000D01*
X106700000Y-69100000D02*
X106850000Y-69250000D01*
X106700000Y-68925000D02*
X106700000Y-69100000D01*
X106700000Y-68050000D02*
X106700000Y-68925000D01*
X107350000Y-66250000D02*
X107050000Y-66250000D01*
X107900000Y-66250000D02*
X107350000Y-66250000D01*
X107700000Y-67000000D02*
X107900000Y-66800000D01*
X107900000Y-66800000D02*
X107900000Y-66250000D01*
X106875000Y-67000000D02*
X107700000Y-67000000D01*
X106700000Y-68050000D02*
X106700000Y-67175000D01*
X106700000Y-67175000D02*
X106875000Y-67000000D01*
X107900000Y-64400000D02*
X107900000Y-66250000D01*
X107500000Y-76800000D02*
X107500000Y-78011410D01*
X107500000Y-78011410D02*
X107250000Y-78261410D01*
X107250000Y-78261410D02*
X107250000Y-78311410D01*
X107250000Y-78311410D02*
X107100000Y-78461410D01*
X106500000Y-80450000D02*
X106400000Y-80450000D01*
X106400000Y-80450000D02*
X106100000Y-80750000D01*
X107550000Y-80500000D02*
X106550000Y-80500000D01*
X106550000Y-80500000D02*
X106500000Y-80450000D01*
X107100000Y-79000000D02*
X107250000Y-78850000D01*
D32*
X107100000Y-79050000D02*
X107100000Y-78461410D01*
X107100000Y-79000000D02*
X107100000Y-80050000D01*
D30*
X107100000Y-80050000D02*
X107550000Y-80500000D01*
X115100000Y-65640940D02*
X117990940Y-65640940D01*
X117990940Y-65640940D02*
X118000000Y-65650000D01*
X115200000Y-59597594D02*
X115200000Y-58250000D01*
X115100000Y-60759060D02*
X115100000Y-59697594D01*
X115100000Y-59697594D02*
X115200000Y-59597594D01*
X115090940Y-60750000D02*
X115100000Y-60759060D01*
X108900000Y-58200000D02*
X108900000Y-59800000D01*
D33*
X107800000Y-57100000D02*
X108900000Y-58200000D01*
X106536000Y-57100000D02*
X107800000Y-57100000D01*
X104000000Y-55880000D02*
X105316000Y-55880000D01*
X105316000Y-55880000D02*
X106536000Y-57100000D01*
D30*
X104000000Y-55880000D02*
X104152400Y-55880000D01*
X108400000Y-58650000D02*
X108400000Y-59800000D01*
D33*
X104000000Y-58420000D02*
X105316000Y-58420000D01*
X105316000Y-58420000D02*
X105936000Y-57800000D01*
X105936000Y-57800000D02*
X107550000Y-57800000D01*
X107550000Y-57800000D02*
X108400000Y-58650000D01*
D30*
X107400000Y-58600000D02*
X107400000Y-59800000D01*
D33*
X107200000Y-58400000D02*
X107400000Y-58600000D01*
X106712400Y-58400000D02*
X107200000Y-58400000D01*
X104152400Y-60960000D02*
X106712400Y-58400000D01*
X104000000Y-60960000D02*
X104152400Y-60960000D01*
D30*
X106300000Y-59800000D02*
X106900000Y-59800000D01*
D33*
X104000000Y-63500000D02*
X105100000Y-63500000D01*
X105400000Y-60550000D02*
X105400000Y-63200000D01*
X105400000Y-63200000D02*
X105100000Y-63500000D01*
X105950000Y-60000000D02*
X105400000Y-60550000D01*
X106100000Y-60000000D02*
X106300000Y-59800000D01*
X106100000Y-60000000D02*
X105950000Y-60000000D01*
X104000000Y-63500000D02*
X104152400Y-63500000D01*
D30*
X108500000Y-70750000D02*
X108500000Y-72200000D01*
X108200000Y-70450000D02*
X108500000Y-70750000D01*
D33*
X104000000Y-66040000D02*
X104152400Y-66040000D01*
X104152400Y-66040000D02*
X105412400Y-67300000D01*
X105412400Y-67300000D02*
X105412400Y-69012400D01*
X105412400Y-69012400D02*
X106350000Y-69950000D01*
X106350000Y-69950000D02*
X107350000Y-69950000D01*
X107350000Y-70000000D02*
X107800000Y-70450000D01*
X107350000Y-69950000D02*
X107350000Y-70000000D01*
X107800000Y-70450000D02*
X108200000Y-70450000D01*
D30*
X107950011Y-70950011D02*
X108000000Y-71000000D01*
X108000000Y-71000000D02*
X108000000Y-72200000D01*
X107875011Y-70950011D02*
X107950011Y-70950011D01*
D33*
X107592889Y-70950011D02*
X107875011Y-70950011D01*
X107092889Y-70450011D02*
X107592889Y-70950011D01*
X106022411Y-70450011D02*
X107092889Y-70450011D01*
X104152400Y-68580000D02*
X106022411Y-70450011D01*
X104000000Y-68580000D02*
X104152400Y-68580000D01*
D30*
X106842900Y-70950022D02*
X107000000Y-71107122D01*
X107000000Y-71107122D02*
X107000000Y-72200000D01*
D33*
X105485978Y-70950022D02*
X106842900Y-70950022D01*
X105316000Y-71120000D02*
X105485978Y-70950022D01*
X104000000Y-71120000D02*
X105316000Y-71120000D01*
D30*
X105612400Y-72200000D02*
X106500000Y-72200000D01*
D33*
X105612400Y-72200000D02*
X104152400Y-73660000D01*
X104152400Y-73660000D02*
X104000000Y-73660000D01*
D30*
X104140000Y-73800000D02*
X104000000Y-73660000D01*
D32*
X144500000Y-43600000D02*
X144920000Y-43180000D01*
X144920000Y-43180000D02*
X146900000Y-43180000D01*
X143770000Y-43600000D02*
X144500000Y-43600000D01*
X143300000Y-45700000D02*
X143300000Y-44070000D01*
X143300000Y-44070000D02*
X143770000Y-43600000D01*
X112450000Y-58150000D02*
X113100000Y-58150000D01*
X113100000Y-58150000D02*
X113250000Y-58000000D01*
X112450000Y-58150000D02*
X112874264Y-58150000D01*
X112874264Y-58150000D02*
X113024264Y-58000000D01*
X113100000Y-58800000D02*
X112450000Y-58150000D01*
X112550000Y-59350000D02*
X113100000Y-58800000D01*
X112550000Y-67300000D02*
X112550000Y-59350000D01*
X113200000Y-67950000D02*
X112550000Y-67300000D01*
X119600000Y-67950000D02*
X113200000Y-67950000D01*
X119600000Y-68750000D02*
X119600000Y-67950000D01*
X122300000Y-71450000D02*
X119600000Y-68750000D01*
X127900000Y-71450000D02*
X122300000Y-71450000D01*
X129300000Y-72850000D02*
X127900000Y-71450000D01*
X131750000Y-72850000D02*
X129300000Y-72850000D01*
X131750000Y-72850000D02*
X130120000Y-72850000D01*
X130120000Y-72850000D02*
X129225010Y-71955010D01*
D30*
X123875000Y-82450000D02*
X124850000Y-82450000D01*
X123450000Y-81650000D02*
X123450000Y-82025000D01*
X123450000Y-82025000D02*
X123875000Y-82450000D01*
D31*
X118250000Y-79050000D02*
X117300000Y-78100000D01*
X118900000Y-79050000D02*
X118250000Y-79050000D01*
X119150000Y-79300000D02*
X118900000Y-79050000D01*
X119150000Y-79650000D02*
X119150000Y-79300000D01*
D30*
X110174362Y-57724982D02*
X110474361Y-58024981D01*
X104000000Y-43180000D02*
X104152400Y-43180000D01*
X109400000Y-48427600D02*
X109400000Y-53150000D01*
X109400000Y-53150000D02*
X109977033Y-53727033D01*
X104152400Y-43180000D02*
X109400000Y-48427600D01*
X109977033Y-53727033D02*
X109977033Y-57527653D01*
X109977033Y-57527653D02*
X110174362Y-57724982D01*
X146900000Y-60960000D02*
X142966720Y-60960000D01*
X142966720Y-60960000D02*
X142748101Y-60741381D01*
X129760860Y-56678371D02*
X130060859Y-56378372D01*
X126700000Y-58100000D02*
X128339231Y-58100000D01*
X128339231Y-58100000D02*
X129760860Y-56678371D01*
X146900000Y-58420000D02*
X142980000Y-58420000D01*
X142271564Y-59128436D02*
X141971565Y-59428435D01*
X142980000Y-58420000D02*
X142271564Y-59128436D01*
X128925167Y-56012463D02*
X129349431Y-56012463D01*
X127387537Y-56012463D02*
X128925167Y-56012463D01*
X124900000Y-58500000D02*
X127387537Y-56012463D01*
X121000000Y-81450000D02*
X120200000Y-82250000D01*
X121000000Y-79700000D02*
X121000000Y-81450000D01*
X121250000Y-79450000D02*
X121000000Y-79700000D01*
X122450000Y-79450000D02*
X121250000Y-79450000D01*
X123450000Y-79650000D02*
X122650000Y-79650000D01*
X122650000Y-79650000D02*
X122450000Y-79450000D01*
X113474253Y-82050000D02*
X113049989Y-82050000D01*
X114475004Y-82050000D02*
X113474253Y-82050000D01*
X115250000Y-83500000D02*
X115250000Y-82824996D01*
X114100011Y-85449989D02*
X114450000Y-85100000D01*
X115250000Y-82824996D02*
X114475004Y-82050000D01*
X114450000Y-85100000D02*
X114450000Y-84300000D01*
X109586410Y-84950000D02*
X110086399Y-85449989D01*
X108750000Y-84950000D02*
X109586410Y-84950000D01*
X114450000Y-84300000D02*
X115250000Y-83500000D01*
X110086399Y-85449989D02*
X114100011Y-85449989D01*
X107800000Y-47900000D02*
X105620000Y-45720000D01*
X105620000Y-45720000D02*
X104000000Y-45720000D01*
X104450000Y-84950000D02*
X103550000Y-84950000D01*
X101000000Y-85600000D02*
X101000000Y-81800000D01*
X103550000Y-84950000D02*
X102600000Y-85900000D01*
X101300000Y-85900000D02*
X101000000Y-85600000D01*
X102600000Y-85900000D02*
X101300000Y-85900000D01*
X101000000Y-81800000D02*
X101850000Y-80950000D01*
X101850000Y-80950000D02*
X101850000Y-50257600D01*
X101850000Y-50257600D02*
X103847600Y-48260000D01*
X103847600Y-48260000D02*
X104000000Y-48260000D01*
X107240000Y-53340000D02*
X107810000Y-53340000D01*
X107810000Y-53340000D02*
X107850000Y-53300000D01*
X104000000Y-53340000D02*
X103847600Y-53340000D01*
X103847600Y-53340000D02*
X102300000Y-54887600D01*
X102300000Y-54887600D02*
X102300000Y-80900000D01*
X102300000Y-80900000D02*
X103000000Y-81600000D01*
X103000000Y-81600000D02*
X103850000Y-81600000D01*
X103850000Y-81600000D02*
X104450000Y-82200000D01*
X104450000Y-82200000D02*
X104450000Y-82950000D01*
X107240000Y-53340000D02*
X104000000Y-53340000D01*
X104000000Y-50800000D02*
X108300000Y-50800000D01*
X108300000Y-50800000D02*
X108800000Y-51300000D01*
X108800000Y-51300000D02*
X108800000Y-53550000D01*
X108800000Y-53550000D02*
X109500000Y-54250000D01*
X109500000Y-54250000D02*
X109500000Y-58750000D01*
X109500000Y-58750000D02*
X109750000Y-59000000D01*
X109750000Y-59000000D02*
X110500000Y-59000000D01*
X110500000Y-59000000D02*
X111250000Y-58250000D01*
X111250000Y-58250000D02*
X111250000Y-56750000D01*
X111250000Y-56750000D02*
X112400000Y-55600000D01*
X112249999Y-81450001D02*
X112650000Y-81050000D01*
X112650000Y-81050000D02*
X114600000Y-81050000D01*
X108750000Y-82950000D02*
X108750000Y-82575000D01*
X108750000Y-82575000D02*
X109874999Y-81450001D01*
X109874999Y-81450001D02*
X112249999Y-81450001D01*
X133350000Y-62800000D02*
X134000000Y-62150000D01*
X132300000Y-62800000D02*
X133350000Y-62800000D01*
X132300000Y-62800000D02*
X132000001Y-62500001D01*
X132000001Y-62500001D02*
X132000001Y-60999999D01*
X132000001Y-60999999D02*
X132300000Y-60700000D01*
X131875010Y-65700746D02*
X131875010Y-66125010D01*
X131875010Y-63224990D02*
X131875010Y-65700746D01*
X132300000Y-62800000D02*
X131875010Y-63224990D01*
X135250000Y-67750000D02*
X135674264Y-67750000D01*
X145400000Y-67300000D02*
X145400000Y-66240000D01*
X135674264Y-67750000D02*
X135824264Y-67600000D01*
X135824264Y-67600000D02*
X145100000Y-67600000D01*
X145100000Y-67600000D02*
X145400000Y-67300000D01*
X145400000Y-66240000D02*
X145600000Y-66040000D01*
X145600000Y-66040000D02*
X146900000Y-66040000D01*
X123000000Y-68700000D02*
X128500000Y-68700000D01*
X120900000Y-66600000D02*
X123000000Y-68700000D01*
X120300000Y-66000000D02*
X120900000Y-66600000D01*
X120300000Y-54800000D02*
X120300000Y-66000000D01*
X120900000Y-54200000D02*
X120300000Y-54800000D01*
X133561314Y-54200000D02*
X120900000Y-54200000D01*
X134400000Y-52140000D02*
X134400000Y-53361314D01*
X134400000Y-53361314D02*
X133561314Y-54200000D01*
X130500000Y-66033610D02*
X130425048Y-66108562D01*
X130500000Y-64300000D02*
X130500000Y-66033610D01*
X130400000Y-64200000D02*
X130500000Y-64300000D01*
X134750000Y-67000000D02*
X144700000Y-67000000D01*
X144700000Y-67000000D02*
X144900000Y-66800000D01*
X145250000Y-63500000D02*
X146900000Y-63500000D01*
X144900000Y-66800000D02*
X144900000Y-63850000D01*
X144900000Y-63850000D02*
X145250000Y-63500000D01*
X128400000Y-65600000D02*
X128400000Y-67200000D01*
X121200000Y-54700000D02*
X134600000Y-54700000D01*
X134600000Y-54700000D02*
X135700000Y-53600000D01*
X128400000Y-67200000D02*
X127500000Y-68100000D01*
X123300000Y-68100000D02*
X120800000Y-65600000D01*
X127500000Y-68100000D02*
X123300000Y-68100000D01*
X120800000Y-65600000D02*
X120800000Y-55100000D01*
X120800000Y-55100000D02*
X121200000Y-54700000D01*
X135700000Y-53600000D02*
X135700000Y-49726400D01*
X135700000Y-49726400D02*
X135826400Y-49600000D01*
X135826400Y-49600000D02*
X136940000Y-49600000D01*
X122900000Y-69400000D02*
X123500000Y-69400000D01*
X123500000Y-69400000D02*
X130400000Y-69400000D01*
D31*
X123450000Y-69774264D02*
X123450000Y-69450000D01*
X123450000Y-69450000D02*
X123500000Y-69400000D01*
X122850000Y-69950000D02*
X123274264Y-69950000D01*
X123274264Y-69950000D02*
X123450000Y-69774264D01*
D30*
X129700000Y-68580000D02*
X130700000Y-68580000D01*
X130700000Y-68580000D02*
X145634000Y-68580000D01*
X134400000Y-49600000D02*
X133100000Y-50900000D01*
X130400000Y-69400000D02*
X130700000Y-69100000D01*
X130700000Y-69100000D02*
X130700000Y-68580000D01*
X133100000Y-50900000D02*
X133100000Y-53500000D01*
X133100000Y-53500000D02*
X132900000Y-53700000D01*
X132900000Y-53700000D02*
X120500000Y-53700000D01*
X120500000Y-53700000D02*
X119700000Y-54500000D01*
X119700000Y-54500000D02*
X119700000Y-66200000D01*
X119700000Y-66200000D02*
X122900000Y-69400000D01*
X145634000Y-68580000D02*
X146900000Y-68580000D01*
X128950000Y-64450000D02*
X129249999Y-64749999D01*
X129249999Y-68129999D02*
X129700000Y-68580000D01*
X129249999Y-64749999D02*
X129249999Y-68129999D01*
X127099999Y-61600001D02*
X126800000Y-61900000D01*
X130200000Y-58500000D02*
X127099999Y-61600001D01*
X135100000Y-58500000D02*
X130200000Y-58500000D01*
X136150000Y-59550000D02*
X135100000Y-58500000D01*
X140500000Y-59550000D02*
X136150000Y-59550000D01*
X144170000Y-55880000D02*
X140500000Y-59550000D01*
X146900000Y-55880000D02*
X144170000Y-55880000D01*
X143300000Y-54300000D02*
X144260000Y-53340000D01*
X144260000Y-53340000D02*
X146900000Y-53340000D01*
X143250000Y-54300000D02*
X143300000Y-54300000D01*
X137450000Y-58550000D02*
X139000000Y-58550000D01*
X139000000Y-58550000D02*
X143250000Y-54300000D01*
X127270191Y-47900746D02*
X127270191Y-48325010D01*
X127270191Y-42329809D02*
X127270191Y-47900746D01*
X128300000Y-41300000D02*
X127270191Y-42329809D01*
X146900000Y-48260000D02*
X139260000Y-48260000D01*
X139260000Y-48260000D02*
X138600000Y-47600000D01*
X138600000Y-47600000D02*
X129300000Y-47600000D01*
X129300000Y-47600000D02*
X127400000Y-49500000D01*
X127400000Y-49500000D02*
X122949999Y-49499999D01*
X122949999Y-49499999D02*
X122650000Y-49200000D01*
X104152400Y-38100000D02*
X105700000Y-39647600D01*
X110795741Y-55123094D02*
X110795741Y-55547358D01*
X110795741Y-49045741D02*
X110795741Y-55123094D01*
X105700000Y-43950000D02*
X110795741Y-49045741D01*
X105700000Y-39647600D02*
X105700000Y-43950000D01*
X104000000Y-38100000D02*
X104152400Y-38100000D01*
X117924989Y-81825011D02*
X118100000Y-81650000D01*
X118100000Y-81650000D02*
X119150000Y-81650000D01*
X117113593Y-82125010D02*
X117413592Y-81825011D01*
X117413592Y-81825011D02*
X117924989Y-81825011D01*
X113300000Y-78150000D02*
X113000001Y-77850001D01*
X113000001Y-77850001D02*
X112050001Y-77850001D01*
X112050001Y-77850001D02*
X111700000Y-77500000D01*
X111700000Y-77500000D02*
X111700000Y-76100000D01*
X126350000Y-81600000D02*
X127800000Y-81600000D01*
X127800000Y-81600000D02*
X127900000Y-81500000D01*
X127900000Y-81500000D02*
X127900000Y-81050000D01*
X110450002Y-68450000D02*
X110450002Y-69300002D01*
X112400000Y-70200000D02*
X113050000Y-70850000D01*
X110450002Y-69300002D02*
X110950000Y-69800000D01*
X111250000Y-70200000D02*
X112400000Y-70200000D01*
X110950000Y-69800000D02*
X110950000Y-69900000D01*
X110950000Y-69900000D02*
X111250000Y-70200000D01*
X121250000Y-76100000D02*
X121250000Y-76600000D01*
X113050000Y-70850000D02*
X116000000Y-70850000D01*
X116000000Y-70850000D02*
X121250000Y-76100000D01*
X121250000Y-76600000D02*
X121500000Y-76850000D01*
X121500000Y-76850000D02*
X126150000Y-76850000D01*
X108900000Y-64400000D02*
X110250000Y-64400000D01*
X125950000Y-81600000D02*
X126350000Y-81600000D01*
X126300000Y-82450000D02*
X126300000Y-81650000D01*
X126300000Y-81650000D02*
X126350000Y-81600000D01*
X125650000Y-81300000D02*
X125950000Y-81600000D01*
X124400000Y-81300000D02*
X125650000Y-81300000D01*
X123450000Y-81150000D02*
X124250000Y-81150000D01*
X124250000Y-81150000D02*
X124400000Y-81300000D01*
X110250001Y-69857936D02*
X110143651Y-69751586D01*
X110750002Y-71700000D02*
X110250001Y-71199999D01*
X112550000Y-71350000D02*
X112200000Y-71700000D01*
X110250001Y-71199999D02*
X110250001Y-69857936D01*
X115850000Y-71350000D02*
X112550000Y-71350000D01*
X120549989Y-76950000D02*
X120549989Y-76049989D01*
X112200000Y-71700000D02*
X110750002Y-71700000D01*
X110143651Y-69751586D02*
X109843652Y-69451587D01*
X120549989Y-76049989D02*
X115850000Y-71350000D01*
X109500000Y-65650000D02*
X109750000Y-65400000D01*
X108575000Y-65650000D02*
X109500000Y-65650000D01*
X108400000Y-64400000D02*
X108400000Y-65475000D01*
X108400000Y-65475000D02*
X108575000Y-65650000D01*
X120549989Y-76950000D02*
X120549989Y-76800011D01*
X120549989Y-79150000D02*
X120549989Y-76950000D01*
X120549989Y-79150000D02*
X120549989Y-80550011D01*
X120549989Y-79000000D02*
X120549989Y-79150000D01*
X119950000Y-81150000D02*
X119150000Y-81150000D01*
X120549989Y-80550011D02*
X119950000Y-81150000D01*
X117500000Y-81150000D02*
X119150000Y-81150000D01*
D31*
X106500000Y-76800000D02*
X106500000Y-77785000D01*
X106500000Y-77785000D02*
X106285000Y-78000000D01*
X106285000Y-78000000D02*
X105700000Y-78000000D01*
X105700000Y-78000000D02*
X105550000Y-78150000D01*
X105550000Y-78150000D02*
X105550000Y-79850000D01*
X105550000Y-79850000D02*
X104600000Y-80800000D01*
X104600000Y-80800000D02*
X104600000Y-81700000D01*
X104600000Y-81700000D02*
X105450000Y-82550000D01*
X105450000Y-82550000D02*
X105450000Y-83250000D01*
D30*
X105250000Y-83450000D02*
X105450000Y-83250000D01*
X104450000Y-83450000D02*
X105250000Y-83450000D01*
X101650000Y-83550000D02*
X101650000Y-83100000D01*
X101650000Y-83100000D02*
X101850000Y-82900000D01*
X101850000Y-82900000D02*
X101900000Y-82900000D01*
X101900000Y-82900000D02*
X102450000Y-82350000D01*
X103500000Y-83300000D02*
X103650000Y-83450000D01*
X102450000Y-82350000D02*
X103050000Y-82350000D01*
X103050000Y-82350000D02*
X103500000Y-82800000D01*
X103500000Y-82800000D02*
X103500000Y-83300000D01*
X103650000Y-83450000D02*
X104450000Y-83450000D01*
D31*
X105950000Y-80050000D02*
X105950000Y-79500000D01*
X105950000Y-79500000D02*
X105950000Y-79350000D01*
X106050000Y-78350000D02*
X105909998Y-78490002D01*
X105909998Y-79363192D02*
X105950000Y-79403194D01*
X105909998Y-78490002D02*
X105909998Y-79363192D01*
X105950000Y-79403194D02*
X105950000Y-79500000D01*
X106500000Y-78350000D02*
X106050000Y-78350000D01*
X106975000Y-77875000D02*
X106500000Y-78350000D01*
X107000000Y-77875000D02*
X106975000Y-77875000D01*
X105400000Y-80600000D02*
X105950000Y-80050000D01*
X105400000Y-81500000D02*
X105400000Y-80600000D01*
X105900000Y-82000000D02*
X105400000Y-81500000D01*
X107400000Y-82000000D02*
X105900000Y-82000000D01*
X107700000Y-82300000D02*
X107400000Y-82000000D01*
X107700000Y-83110000D02*
X107700000Y-82300000D01*
X108750000Y-83450000D02*
X108040000Y-83450000D01*
X108040000Y-83450000D02*
X107700000Y-83110000D01*
X107000000Y-76800000D02*
X107000000Y-77875000D01*
D30*
X109850000Y-82350000D02*
X110299988Y-81900012D01*
X112150000Y-83000000D02*
X112150000Y-83450000D01*
X110299988Y-81900012D02*
X111950012Y-81900012D01*
X112150000Y-82100000D02*
X112150000Y-83000000D01*
X111950012Y-81900012D02*
X112150000Y-82100000D01*
X109850000Y-83150000D02*
X109850000Y-82350000D01*
X108750000Y-83450000D02*
X109550000Y-83450000D01*
X109550000Y-83450000D02*
X109850000Y-83150000D01*
X118500000Y-78200000D02*
X118500000Y-76850000D01*
X118500000Y-76850000D02*
X118500000Y-75350000D01*
X116050000Y-80250000D02*
X116050000Y-77350000D01*
X116050000Y-77350000D02*
X116550000Y-76850000D01*
X116550000Y-76850000D02*
X118500000Y-76850000D01*
X119150000Y-80150000D02*
X119950000Y-80150000D01*
X119950000Y-80150000D02*
X120099978Y-80000022D01*
X120099978Y-80000022D02*
X120099978Y-78649978D01*
X120099978Y-78649978D02*
X120050000Y-78600000D01*
X112822802Y-72350020D02*
X112572800Y-72600022D01*
X120050000Y-78600000D02*
X118900000Y-78600000D01*
X118900000Y-78600000D02*
X118500000Y-78200000D01*
X118500000Y-75350000D02*
X115500020Y-72350020D01*
X115500020Y-72350020D02*
X112822802Y-72350020D01*
X109150000Y-71274264D02*
X109150000Y-70850000D01*
X112572800Y-72600022D02*
X110227200Y-72600022D01*
X110227200Y-72600022D02*
X109150000Y-71522822D01*
X109150000Y-71522822D02*
X109150000Y-71274264D01*
X105750000Y-64850000D02*
X106200000Y-64400000D01*
X106200000Y-64400000D02*
X106900000Y-64400000D01*
X106800000Y-83050000D02*
X106800000Y-83474264D01*
X106800000Y-83474264D02*
X105824264Y-84450000D01*
X105824264Y-84450000D02*
X105250000Y-84450000D01*
X105250000Y-84450000D02*
X104450000Y-84450000D01*
X108800000Y-81400000D02*
X108800000Y-81550000D01*
X108800000Y-81550000D02*
X108550000Y-81800000D01*
X108800000Y-79650000D02*
X108800000Y-81400000D01*
X109700000Y-78750000D02*
X108800000Y-79650000D01*
X109700000Y-78150000D02*
X109700000Y-78750000D01*
X109500001Y-77950001D02*
X109700000Y-78150000D01*
X108599999Y-77950001D02*
X109500001Y-77950001D01*
X108550000Y-78000000D02*
X108599999Y-77950001D01*
X108125000Y-78000000D02*
X108550000Y-78000000D01*
X108000000Y-76800000D02*
X108000000Y-77875000D01*
X108000000Y-77875000D02*
X108125000Y-78000000D01*
X102750000Y-84450000D02*
X104450000Y-84450000D01*
X119228760Y-77550726D02*
X119228760Y-77974990D01*
X119228760Y-77171240D02*
X119228760Y-77550726D01*
X119250000Y-77150000D02*
X119228760Y-77171240D01*
X119250000Y-75400000D02*
X119250000Y-77150000D01*
X115750009Y-71900009D02*
X119250000Y-75400000D01*
X112636402Y-71900009D02*
X115750009Y-71900009D01*
X109749991Y-71486401D02*
X110413600Y-72150011D01*
X109799991Y-71013599D02*
X109749991Y-71063599D01*
X110413600Y-72150011D02*
X112386400Y-72150011D01*
X109150000Y-69950000D02*
X109799991Y-70599991D01*
X109749991Y-71063599D02*
X109749991Y-71486401D01*
X112386400Y-72150011D02*
X112636402Y-71900009D01*
X109799991Y-70599991D02*
X109799991Y-71013599D01*
X119250000Y-77150000D02*
X119250000Y-76850000D01*
X107325000Y-65550000D02*
X106453262Y-65550000D01*
X106453262Y-65550000D02*
X106410859Y-65592403D01*
X107400000Y-64400000D02*
X107400000Y-65475000D01*
X107400000Y-65475000D02*
X107325000Y-65550000D01*
X123450000Y-80150000D02*
X122150000Y-80150000D01*
X126250000Y-77750000D02*
X126700000Y-78200000D01*
X126700000Y-78200000D02*
X126700000Y-80150000D01*
X124950000Y-77750000D02*
X126250000Y-77750000D01*
X124650000Y-78050000D02*
X124950000Y-77750000D01*
X124650000Y-79950000D02*
X124650000Y-78050000D01*
X124450000Y-80150000D02*
X124650000Y-79950000D01*
X123450000Y-80150000D02*
X124450000Y-80150000D01*
D31*
X108500000Y-76800000D02*
X110900000Y-76800000D01*
X110900000Y-76800000D02*
X111250000Y-77150000D01*
X111250000Y-77150000D02*
X111250000Y-77650000D01*
X111250000Y-77650000D02*
X111850000Y-78250000D01*
X112600000Y-78250000D02*
X113050000Y-78700000D01*
X111850000Y-78250000D02*
X112600000Y-78250000D01*
X113050000Y-78700000D02*
X113600000Y-78700000D01*
X113600000Y-78700000D02*
X113800000Y-78900000D01*
X113800000Y-78900000D02*
X113800000Y-79750000D01*
D30*
X111300000Y-84999989D02*
X113400011Y-84999989D01*
X110636400Y-84999989D02*
X111300000Y-84999989D01*
X111300000Y-84999989D02*
X111300000Y-83750000D01*
X111300000Y-83750000D02*
X111350000Y-83700000D01*
X113600000Y-84800000D02*
X113600000Y-84350000D01*
X110086411Y-84450000D02*
X110636400Y-84999989D01*
X108750000Y-84450000D02*
X110086411Y-84450000D01*
X113400011Y-84999989D02*
X113600000Y-84800000D01*
D34*
G36*
X113623000Y-66750000D02*
X113633006Y-66799410D01*
X113661447Y-66841035D01*
X113703841Y-66868315D01*
X113750000Y-66877000D01*
X114463705Y-66877000D01*
X114823184Y-67026269D01*
X115374398Y-67026750D01*
X115736821Y-66877000D01*
X119302198Y-66877000D01*
X120640759Y-68215561D01*
X121914956Y-69999437D01*
X121914838Y-70135167D01*
X122056883Y-70478943D01*
X122319673Y-70742192D01*
X122663201Y-70884838D01*
X123035167Y-70885162D01*
X123378943Y-70743117D01*
X123502718Y-70619558D01*
X123547883Y-70610574D01*
X123779845Y-70455581D01*
X123858426Y-70377000D01*
X128302861Y-70377000D01*
X128215162Y-70588201D01*
X128214838Y-70960167D01*
X128356883Y-71303943D01*
X128619673Y-71567192D01*
X128963201Y-71709838D01*
X129335167Y-71710162D01*
X129496039Y-71643691D01*
X129985000Y-71643691D01*
X129985000Y-72564250D01*
X130143750Y-72723000D01*
X131623000Y-72723000D01*
X131623000Y-71293750D01*
X131877000Y-71293750D01*
X131877000Y-72723000D01*
X133356250Y-72723000D01*
X133515000Y-72564250D01*
X133515000Y-71643691D01*
X133418327Y-71410302D01*
X133239699Y-71231673D01*
X133006310Y-71135000D01*
X132035750Y-71135000D01*
X131877000Y-71293750D01*
X131623000Y-71293750D01*
X131464250Y-71135000D01*
X130493690Y-71135000D01*
X130260301Y-71231673D01*
X130081673Y-71410302D01*
X129985000Y-71643691D01*
X129496039Y-71643691D01*
X129678943Y-71568117D01*
X129942192Y-71305327D01*
X130084838Y-70961799D01*
X130085162Y-70589833D01*
X129997221Y-70377000D01*
X134873000Y-70377000D01*
X134873000Y-88873000D01*
X105377000Y-88873000D01*
X105377000Y-86127000D01*
X107661522Y-86127000D01*
X107699159Y-86152148D01*
X107989998Y-86210000D01*
X109135198Y-86210000D01*
X109362599Y-86437401D01*
X109609161Y-86602148D01*
X109900000Y-86660000D01*
X114500000Y-86660000D01*
X114790839Y-86602148D01*
X115037401Y-86437401D01*
X115214802Y-86260000D01*
X121487253Y-86260000D01*
X121465162Y-86313201D01*
X121464838Y-86685167D01*
X121606883Y-87028943D01*
X121869673Y-87292192D01*
X122213201Y-87434838D01*
X122585167Y-87435162D01*
X122928943Y-87293117D01*
X122932871Y-87289196D01*
X123163201Y-87384838D01*
X123535167Y-87385162D01*
X123878943Y-87243117D01*
X124142192Y-86980327D01*
X124284838Y-86636799D01*
X124285162Y-86264833D01*
X124228211Y-86127000D01*
X128500000Y-86127000D01*
X128549410Y-86116994D01*
X128591035Y-86088553D01*
X128618315Y-86046159D01*
X128627000Y-86000000D01*
X128627000Y-83710167D01*
X129289838Y-83710167D01*
X129431883Y-84053943D01*
X129694673Y-84317192D01*
X130038201Y-84459838D01*
X130410167Y-84460162D01*
X130753943Y-84318117D01*
X130762217Y-84309858D01*
X131063201Y-84434838D01*
X131435167Y-84435162D01*
X131778943Y-84293117D01*
X132042192Y-84030327D01*
X132184838Y-83686799D01*
X132185162Y-83314833D01*
X132043117Y-82971057D01*
X131780327Y-82707808D01*
X131436799Y-82565162D01*
X131064833Y-82564838D01*
X130721057Y-82706883D01*
X130712783Y-82715142D01*
X130411799Y-82590162D01*
X130039833Y-82589838D01*
X129696057Y-82731883D01*
X129432808Y-82994673D01*
X129290162Y-83338201D01*
X129289838Y-83710167D01*
X128627000Y-83710167D01*
X128627000Y-82797802D01*
X129137401Y-82287401D01*
X129302148Y-82040839D01*
X129360000Y-81750000D01*
X129360000Y-79800000D01*
X129339681Y-79697852D01*
X129302148Y-79509160D01*
X129137401Y-79262599D01*
X128887401Y-79012599D01*
X128640839Y-78847852D01*
X128627000Y-78845099D01*
X128627000Y-76670000D01*
X129972560Y-76670000D01*
X129972560Y-78830000D01*
X130016838Y-79065317D01*
X130155910Y-79281441D01*
X130368110Y-79426431D01*
X130620000Y-79477440D01*
X130990000Y-79477440D01*
X130990000Y-79750000D01*
X131047852Y-80040839D01*
X131212599Y-80287401D01*
X131462599Y-80537401D01*
X131709160Y-80702148D01*
X132000000Y-80760000D01*
X133187537Y-80760000D01*
X133219673Y-80792192D01*
X133563201Y-80934838D01*
X133935167Y-80935162D01*
X134278943Y-80793117D01*
X134542192Y-80530327D01*
X134684838Y-80186799D01*
X134685162Y-79814833D01*
X134543117Y-79471057D01*
X134280327Y-79207808D01*
X133936799Y-79065162D01*
X133564833Y-79064838D01*
X133457890Y-79109026D01*
X133476431Y-79081890D01*
X133527440Y-78830000D01*
X133527440Y-76670000D01*
X133483162Y-76434683D01*
X133344090Y-76218559D01*
X133131890Y-76073569D01*
X132880000Y-76022560D01*
X130620000Y-76022560D01*
X130384683Y-76066838D01*
X130168559Y-76205910D01*
X130023569Y-76418110D01*
X129972560Y-76670000D01*
X128627000Y-76670000D01*
X128627000Y-73135750D01*
X129985000Y-73135750D01*
X129985000Y-74056309D01*
X130081673Y-74289698D01*
X130260301Y-74468327D01*
X130493690Y-74565000D01*
X131464250Y-74565000D01*
X131623000Y-74406250D01*
X131623000Y-72977000D01*
X131877000Y-72977000D01*
X131877000Y-74406250D01*
X132035750Y-74565000D01*
X133006310Y-74565000D01*
X133239699Y-74468327D01*
X133418327Y-74289698D01*
X133515000Y-74056309D01*
X133515000Y-73135750D01*
X133356250Y-72977000D01*
X131877000Y-72977000D01*
X131623000Y-72977000D01*
X130143750Y-72977000D01*
X129985000Y-73135750D01*
X128627000Y-73135750D01*
X128627000Y-72500000D01*
X128616994Y-72450590D01*
X128588553Y-72408965D01*
X128546159Y-72381685D01*
X128500000Y-72373000D01*
X125346500Y-72373000D01*
X125086799Y-72265162D01*
X124714833Y-72264838D01*
X124453060Y-72373000D01*
X121817968Y-72373000D01*
X121434915Y-71798420D01*
X121435162Y-71514833D01*
X121293117Y-71171057D01*
X121030327Y-70907808D01*
X120768767Y-70799198D01*
X119355670Y-68679553D01*
X119319937Y-68643992D01*
X119250000Y-68623000D01*
X113045405Y-68623000D01*
X112980327Y-68557808D01*
X112636799Y-68415162D01*
X112264833Y-68414838D01*
X111924587Y-68555424D01*
X111586799Y-68415162D01*
X111385033Y-68414986D01*
X111385164Y-68264833D01*
X111377000Y-68245075D01*
X111377000Y-62038452D01*
X111855670Y-61320447D01*
X111877000Y-61250000D01*
X111877000Y-58653307D01*
X111952148Y-58540840D01*
X112010000Y-58250000D01*
X112010000Y-57127000D01*
X113623000Y-57127000D01*
X113623000Y-66750000D01*
X113623000Y-66750000D01*
G37*
X113623000Y-66750000D02*
X113633006Y-66799410D01*
X113661447Y-66841035D01*
X113703841Y-66868315D01*
X113750000Y-66877000D01*
X114463705Y-66877000D01*
X114823184Y-67026269D01*
X115374398Y-67026750D01*
X115736821Y-66877000D01*
X119302198Y-66877000D01*
X120640759Y-68215561D01*
X121914956Y-69999437D01*
X121914838Y-70135167D01*
X122056883Y-70478943D01*
X122319673Y-70742192D01*
X122663201Y-70884838D01*
X123035167Y-70885162D01*
X123378943Y-70743117D01*
X123502718Y-70619558D01*
X123547883Y-70610574D01*
X123779845Y-70455581D01*
X123858426Y-70377000D01*
X128302861Y-70377000D01*
X128215162Y-70588201D01*
X128214838Y-70960167D01*
X128356883Y-71303943D01*
X128619673Y-71567192D01*
X128963201Y-71709838D01*
X129335167Y-71710162D01*
X129496039Y-71643691D01*
X129985000Y-71643691D01*
X129985000Y-72564250D01*
X130143750Y-72723000D01*
X131623000Y-72723000D01*
X131623000Y-71293750D01*
X131877000Y-71293750D01*
X131877000Y-72723000D01*
X133356250Y-72723000D01*
X133515000Y-72564250D01*
X133515000Y-71643691D01*
X133418327Y-71410302D01*
X133239699Y-71231673D01*
X133006310Y-71135000D01*
X132035750Y-71135000D01*
X131877000Y-71293750D01*
X131623000Y-71293750D01*
X131464250Y-71135000D01*
X130493690Y-71135000D01*
X130260301Y-71231673D01*
X130081673Y-71410302D01*
X129985000Y-71643691D01*
X129496039Y-71643691D01*
X129678943Y-71568117D01*
X129942192Y-71305327D01*
X130084838Y-70961799D01*
X130085162Y-70589833D01*
X129997221Y-70377000D01*
X134873000Y-70377000D01*
X134873000Y-88873000D01*
X105377000Y-88873000D01*
X105377000Y-86127000D01*
X107661522Y-86127000D01*
X107699159Y-86152148D01*
X107989998Y-86210000D01*
X109135198Y-86210000D01*
X109362599Y-86437401D01*
X109609161Y-86602148D01*
X109900000Y-86660000D01*
X114500000Y-86660000D01*
X114790839Y-86602148D01*
X115037401Y-86437401D01*
X115214802Y-86260000D01*
X121487253Y-86260000D01*
X121465162Y-86313201D01*
X121464838Y-86685167D01*
X121606883Y-87028943D01*
X121869673Y-87292192D01*
X122213201Y-87434838D01*
X122585167Y-87435162D01*
X122928943Y-87293117D01*
X122932871Y-87289196D01*
X123163201Y-87384838D01*
X123535167Y-87385162D01*
X123878943Y-87243117D01*
X124142192Y-86980327D01*
X124284838Y-86636799D01*
X124285162Y-86264833D01*
X124228211Y-86127000D01*
X128500000Y-86127000D01*
X128549410Y-86116994D01*
X128591035Y-86088553D01*
X128618315Y-86046159D01*
X128627000Y-86000000D01*
X128627000Y-83710167D01*
X129289838Y-83710167D01*
X129431883Y-84053943D01*
X129694673Y-84317192D01*
X130038201Y-84459838D01*
X130410167Y-84460162D01*
X130753943Y-84318117D01*
X130762217Y-84309858D01*
X131063201Y-84434838D01*
X131435167Y-84435162D01*
X131778943Y-84293117D01*
X132042192Y-84030327D01*
X132184838Y-83686799D01*
X132185162Y-83314833D01*
X132043117Y-82971057D01*
X131780327Y-82707808D01*
X131436799Y-82565162D01*
X131064833Y-82564838D01*
X130721057Y-82706883D01*
X130712783Y-82715142D01*
X130411799Y-82590162D01*
X130039833Y-82589838D01*
X129696057Y-82731883D01*
X129432808Y-82994673D01*
X129290162Y-83338201D01*
X129289838Y-83710167D01*
X128627000Y-83710167D01*
X128627000Y-82797802D01*
X129137401Y-82287401D01*
X129302148Y-82040839D01*
X129360000Y-81750000D01*
X129360000Y-79800000D01*
X129339681Y-79697852D01*
X129302148Y-79509160D01*
X129137401Y-79262599D01*
X128887401Y-79012599D01*
X128640839Y-78847852D01*
X128627000Y-78845099D01*
X128627000Y-76670000D01*
X129972560Y-76670000D01*
X129972560Y-78830000D01*
X130016838Y-79065317D01*
X130155910Y-79281441D01*
X130368110Y-79426431D01*
X130620000Y-79477440D01*
X130990000Y-79477440D01*
X130990000Y-79750000D01*
X131047852Y-80040839D01*
X131212599Y-80287401D01*
X131462599Y-80537401D01*
X131709160Y-80702148D01*
X132000000Y-80760000D01*
X133187537Y-80760000D01*
X133219673Y-80792192D01*
X133563201Y-80934838D01*
X133935167Y-80935162D01*
X134278943Y-80793117D01*
X134542192Y-80530327D01*
X134684838Y-80186799D01*
X134685162Y-79814833D01*
X134543117Y-79471057D01*
X134280327Y-79207808D01*
X133936799Y-79065162D01*
X133564833Y-79064838D01*
X133457890Y-79109026D01*
X133476431Y-79081890D01*
X133527440Y-78830000D01*
X133527440Y-76670000D01*
X133483162Y-76434683D01*
X133344090Y-76218559D01*
X133131890Y-76073569D01*
X132880000Y-76022560D01*
X130620000Y-76022560D01*
X130384683Y-76066838D01*
X130168559Y-76205910D01*
X130023569Y-76418110D01*
X129972560Y-76670000D01*
X128627000Y-76670000D01*
X128627000Y-73135750D01*
X129985000Y-73135750D01*
X129985000Y-74056309D01*
X130081673Y-74289698D01*
X130260301Y-74468327D01*
X130493690Y-74565000D01*
X131464250Y-74565000D01*
X131623000Y-74406250D01*
X131623000Y-72977000D01*
X131877000Y-72977000D01*
X131877000Y-74406250D01*
X132035750Y-74565000D01*
X133006310Y-74565000D01*
X133239699Y-74468327D01*
X133418327Y-74289698D01*
X133515000Y-74056309D01*
X133515000Y-73135750D01*
X133356250Y-72977000D01*
X131877000Y-72977000D01*
X131623000Y-72977000D01*
X130143750Y-72977000D01*
X129985000Y-73135750D01*
X128627000Y-73135750D01*
X128627000Y-72500000D01*
X128616994Y-72450590D01*
X128588553Y-72408965D01*
X128546159Y-72381685D01*
X128500000Y-72373000D01*
X125346500Y-72373000D01*
X125086799Y-72265162D01*
X124714833Y-72264838D01*
X124453060Y-72373000D01*
X121817968Y-72373000D01*
X121434915Y-71798420D01*
X121435162Y-71514833D01*
X121293117Y-71171057D01*
X121030327Y-70907808D01*
X120768767Y-70799198D01*
X119355670Y-68679553D01*
X119319937Y-68643992D01*
X119250000Y-68623000D01*
X113045405Y-68623000D01*
X112980327Y-68557808D01*
X112636799Y-68415162D01*
X112264833Y-68414838D01*
X111924587Y-68555424D01*
X111586799Y-68415162D01*
X111385033Y-68414986D01*
X111385164Y-68264833D01*
X111377000Y-68245075D01*
X111377000Y-62038452D01*
X111855670Y-61320447D01*
X111877000Y-61250000D01*
X111877000Y-58653307D01*
X111952148Y-58540840D01*
X112010000Y-58250000D01*
X112010000Y-57127000D01*
X113623000Y-57127000D01*
X113623000Y-66750000D01*
G36*
X109689799Y-73137423D02*
X109936361Y-73302170D01*
X110227200Y-73360022D01*
X112572800Y-73360022D01*
X112863639Y-73302170D01*
X113110201Y-73137423D01*
X113137604Y-73110020D01*
X114623000Y-73110020D01*
X114623000Y-75623000D01*
X112514579Y-75623000D01*
X112493117Y-75571057D01*
X112230327Y-75307808D01*
X111886799Y-75165162D01*
X111514833Y-75164838D01*
X111171057Y-75306883D01*
X110907808Y-75569673D01*
X110885665Y-75623000D01*
X109178079Y-75623000D01*
X109114090Y-75523559D01*
X109112182Y-75522255D01*
X109125000Y-75491310D01*
X109125000Y-74785750D01*
X108966250Y-74627000D01*
X107627000Y-74627000D01*
X107627000Y-74647000D01*
X107373000Y-74647000D01*
X107373000Y-74627000D01*
X106033750Y-74627000D01*
X105875000Y-74785750D01*
X105875000Y-75491310D01*
X105888946Y-75524979D01*
X105821971Y-75623000D01*
X105627000Y-75623000D01*
X105627000Y-73943266D01*
X105683345Y-73660000D01*
X105627053Y-73377000D01*
X105821921Y-73377000D01*
X105885910Y-73476441D01*
X105887818Y-73477745D01*
X105875000Y-73508690D01*
X105875000Y-74214250D01*
X106033750Y-74373000D01*
X107373000Y-74373000D01*
X107373000Y-74353000D01*
X107627000Y-74353000D01*
X107627000Y-74373000D01*
X108966250Y-74373000D01*
X109125000Y-74214250D01*
X109125000Y-73508690D01*
X109111054Y-73475021D01*
X109178029Y-73377000D01*
X109250000Y-73377000D01*
X109299410Y-73366994D01*
X109341035Y-73338553D01*
X109368315Y-73296159D01*
X109377000Y-73250000D01*
X109377000Y-72824624D01*
X109689799Y-73137423D01*
X109689799Y-73137423D01*
G37*
X109689799Y-73137423D02*
X109936361Y-73302170D01*
X110227200Y-73360022D01*
X112572800Y-73360022D01*
X112863639Y-73302170D01*
X113110201Y-73137423D01*
X113137604Y-73110020D01*
X114623000Y-73110020D01*
X114623000Y-75623000D01*
X112514579Y-75623000D01*
X112493117Y-75571057D01*
X112230327Y-75307808D01*
X111886799Y-75165162D01*
X111514833Y-75164838D01*
X111171057Y-75306883D01*
X110907808Y-75569673D01*
X110885665Y-75623000D01*
X109178079Y-75623000D01*
X109114090Y-75523559D01*
X109112182Y-75522255D01*
X109125000Y-75491310D01*
X109125000Y-74785750D01*
X108966250Y-74627000D01*
X107627000Y-74627000D01*
X107627000Y-74647000D01*
X107373000Y-74647000D01*
X107373000Y-74627000D01*
X106033750Y-74627000D01*
X105875000Y-74785750D01*
X105875000Y-75491310D01*
X105888946Y-75524979D01*
X105821971Y-75623000D01*
X105627000Y-75623000D01*
X105627000Y-73943266D01*
X105683345Y-73660000D01*
X105627053Y-73377000D01*
X105821921Y-73377000D01*
X105885910Y-73476441D01*
X105887818Y-73477745D01*
X105875000Y-73508690D01*
X105875000Y-74214250D01*
X106033750Y-74373000D01*
X107373000Y-74373000D01*
X107373000Y-74353000D01*
X107627000Y-74353000D01*
X107627000Y-74373000D01*
X108966250Y-74373000D01*
X109125000Y-74214250D01*
X109125000Y-73508690D01*
X109111054Y-73475021D01*
X109178029Y-73377000D01*
X109250000Y-73377000D01*
X109299410Y-73366994D01*
X109341035Y-73338553D01*
X109368315Y-73296159D01*
X109377000Y-73250000D01*
X109377000Y-72824624D01*
X109689799Y-73137423D01*
G36*
X106275000Y-61814250D02*
X106433750Y-61973000D01*
X107773000Y-61973000D01*
X107773000Y-61953000D01*
X108027000Y-61953000D01*
X108027000Y-61973000D01*
X109366250Y-61973000D01*
X109525000Y-61814250D01*
X109525000Y-61127000D01*
X110373000Y-61127000D01*
X110373000Y-63123000D01*
X109513272Y-63123000D01*
X109512182Y-63122255D01*
X109525000Y-63091310D01*
X109525000Y-62385750D01*
X109366250Y-62227000D01*
X108027000Y-62227000D01*
X108027000Y-62247000D01*
X107773000Y-62247000D01*
X107773000Y-62227000D01*
X106433750Y-62227000D01*
X106275000Y-62385750D01*
X106275000Y-63091310D01*
X106288126Y-63123000D01*
X106185000Y-63123000D01*
X106185000Y-61127000D01*
X106275000Y-61127000D01*
X106275000Y-61814250D01*
X106275000Y-61814250D01*
G37*
X106275000Y-61814250D02*
X106433750Y-61973000D01*
X107773000Y-61973000D01*
X107773000Y-61953000D01*
X108027000Y-61953000D01*
X108027000Y-61973000D01*
X109366250Y-61973000D01*
X109525000Y-61814250D01*
X109525000Y-61127000D01*
X110373000Y-61127000D01*
X110373000Y-63123000D01*
X109513272Y-63123000D01*
X109512182Y-63122255D01*
X109525000Y-63091310D01*
X109525000Y-62385750D01*
X109366250Y-62227000D01*
X108027000Y-62227000D01*
X108027000Y-62247000D01*
X107773000Y-62247000D01*
X107773000Y-62227000D01*
X106433750Y-62227000D01*
X106275000Y-62385750D01*
X106275000Y-63091310D01*
X106288126Y-63123000D01*
X106185000Y-63123000D01*
X106185000Y-61127000D01*
X106275000Y-61127000D01*
X106275000Y-61814250D01*
M02*
