M48
;DRILL file {KiCad 4.0.5} date Mon Feb 27 06:48:13 2017
;FORMAT={-:-/ absolute / inch / decimal}
FMAT,2
INCH,TZ
T1C0.016
T2C0.020
T3C0.022
T4C0.032
T5C0.040
T6C0.134
%
G90
G05
M72
T1
X4.002Y-3.3563
X4.0453Y-3.2677
X4.1634Y-2.5531
X4.1772Y-3.1791
X4.1894Y-2.5824
X4.1909Y-3.1143
X4.2047Y-3.2697
X4.2126Y-3.4154
X4.2146Y-2.6083
X4.2441Y-1.8858
X4.2461Y-2.0984
X4.25Y-2.7264
X4.2736Y-3.2205
X4.2875Y-3.0935
X4.2972Y-2.7539
X4.2972Y-2.7894
X4.315Y-2.6358
X4.3169Y-2.8996
X4.3169Y-2.935
X4.3169Y-2.9665
X4.3209Y-2.5748
X4.3246Y-2.7343
X4.3307Y-2.4193
X4.3307Y-2.4449
X4.3307Y-2.4724
X4.3406Y-2.5354
X4.3455Y-2.6229
X4.3484Y-2.6949
X4.3494Y-2.2844
X4.362Y-2.1869
X4.3681Y-3.0846
X4.3724Y-2.7872
X4.3825Y-3.249
X4.3839Y-3.2953
X4.3858Y-2.7303
X4.3976Y-2.9961
X4.3979Y-2.7943
X4.4252Y-2.189
X4.4272Y-2.2894
X4.4272Y-2.7303
X4.4409Y-3.3209
X4.4508Y-3.2303
X4.4528Y-2.315
X4.4587Y-2.2835
X4.4587Y-3.4163
X4.4606Y-3.0768
X4.4705Y-2.8878
X4.4705Y-2.9134
X4.4803Y-3.1398
X4.5118Y-3.1909
X4.5118Y-3.2717
X4.5315Y-2.748
X4.5552Y-3.2333
X4.5787Y-2.2559
X4.6024Y-1.5827
X4.6063Y-2.5315
X4.6108Y-3.2333
X4.6181Y-1.4449
X4.6181Y-3.0748
X4.626Y-3.1378
X4.6319Y-2.4173
X4.6555Y-1.6437
X4.694Y-3.0699
X4.7237Y-1.7527
X4.7323Y-3.2382
X4.7441Y-2.8228
X4.7992Y-2.4616
X4.8031Y-1.3681
X4.8031Y-2.4055
X4.8091Y-3.1555
X4.8189Y-3.4055
X4.8287Y-1.937
X4.8307Y-2.4862
X4.8327Y-2.374
X4.8346Y-2.2795
X4.8366Y-2.7539
X4.8563Y-3.4035
X4.8858Y-2.0374
X4.9154Y-3.2461
X4.9173Y-2.3031
X4.9173Y-2.8819
X4.9252Y-2.4685
X4.9331Y-1.7283
X4.9409Y-3.0866
X4.9665Y-3.0256
X4.9724Y-3.2461
X4.9882Y-2.2874
X4.9921Y-2.437
X5.002Y-2.4823
X5.0106Y-1.9026
X5.0197Y-2.374
X5.0433Y-1.9626
X5.0512Y-1.626
X5.0551Y-2.5827
X5.0591Y-2.7047
X5.0768Y-2.5374
X5.0846Y-2.7864
X5.0925Y-2.2052
X5.1205Y-2.2196
X5.126Y-1.4449
X5.127Y-3.2884
X5.1339Y-2.4055
X5.1348Y-2.6027
X5.1378Y-2.5315
X5.1457Y-2.3543
X5.1535Y-1.2913
X5.1673Y-3.2874
X5.189Y-1.6929
X5.1919Y-2.6033
X5.1969Y-1.7598
X5.1969Y-1.815
X5.2087Y-2.4724
X5.2372Y-2.4305
X5.2657Y-3.1496
X5.2795Y-2.3787
X5.2894Y-1.7992
X5.2913Y-2.5827
X5.3051Y-2.6378
X5.3248Y-2.6673
X5.3249Y-2.5841
X5.3425Y-1.7992
X5.3819Y-1.2598
X5.3839Y-2.7953
X5.3957Y-2.5866
X5.3993Y-2.4906
X5.3996Y-2.4193
X5.3996Y-2.4587
X5.4114Y-2.3051
X5.4173Y-2.563
X5.4193Y-1.6555
X5.4429Y-1.4252
X5.4803Y-2.3858
X5.4941Y-1.4488
X5.4961Y-2.5197
X5.5Y-2.7953
X5.5Y-2.872
X5.5Y-2.9409
X5.5894Y-2.3397
X5.62Y-2.3914
T4
X4.5315Y-2.3921
X4.5315Y-2.5843
T5
X4.0945Y-1.4
X4.0945Y-1.5
X4.0945Y-1.6
X4.0945Y-1.7
X4.0945Y-1.8
X4.0945Y-1.9
X4.0945Y-2.
X4.0945Y-2.1
X4.0945Y-2.2
X4.0945Y-2.3
X4.0945Y-2.4
X4.0945Y-2.5
X4.0945Y-2.6
X4.0945Y-2.7
X4.0945Y-2.8
X4.0945Y-2.9
X4.0945Y-3.
X4.0945Y-3.1
X4.2638Y-1.4906
X4.2638Y-1.5906
X4.2638Y-1.6906
X4.4449Y-1.8819
X4.4449Y-1.9819
X4.4449Y-2.0819
X4.4724Y-1.4906
X4.4724Y-1.5906
X4.4724Y-1.6906
X4.5866Y-1.8827
X4.5866Y-1.9827
X4.5866Y-2.0827
X5.1913Y-1.9528
X5.1913Y-2.0528
X5.2913Y-1.9528
X5.2913Y-2.0528
X5.3913Y-1.9528
X5.3913Y-2.0528
X5.7835Y-1.4
X5.7835Y-1.5
X5.7835Y-1.6
X5.7835Y-1.7
X5.7835Y-1.8
X5.7835Y-1.9
X5.7835Y-2.
X5.7835Y-2.1
X5.7835Y-2.2
X5.7835Y-2.3
X5.7835Y-2.4
X5.7835Y-2.5
X5.7835Y-2.6
X5.7835Y-2.7
X5.7835Y-2.8
X5.7835Y-2.9
X5.7835Y-3.
X5.7835Y-3.1
X5.7835Y-3.2
X5.7835Y-3.3
X5.7835Y-3.4
T6
X4.0354Y-1.1811
X4.0354Y-3.5433
X5.5118Y-3.5433
X5.7087Y-1.1811
T2
X4.7323Y-1.1786G85X4.7323Y-1.2042
G05
X5.0079Y-1.1786G85X5.0079Y-1.2042
G05
T3
X4.7776Y-1.2977G85X4.7658Y-1.2977
G05
X4.9744Y-1.2977G85X4.9626Y-1.2977
G05
T0
M30
