G04 #@! TF.FileFunction,Copper,L3,Inr,Mixed*
%FSLAX46Y46*%
G04 Gerber Fmt 4.6, Leading zero omitted, Abs format (unit mm)*
G04 Created by KiCad (PCBNEW 4.0.5) date Mon Feb 27 06:48:06 2017*
%MOMM*%
%LPD*%
G01*
G04 APERTURE LIST*
%ADD10C,0.100000*%
%ADD11R,2.032000X1.727200*%
%ADD12O,2.032000X1.727200*%
%ADD13O,1.250000X0.950000*%
%ADD14O,1.000000X1.550000*%
%ADD15R,1.727200X1.727200*%
%ADD16O,1.727200X1.727200*%
%ADD17C,1.501140*%
%ADD18C,4.000000*%
%ADD19C,0.600000*%
%ADD20C,0.250000*%
%ADD21C,0.254000*%
G04 APERTURE END LIST*
D10*
D11*
X104000000Y-78740000D03*
D12*
X104000000Y-76200000D03*
X104000000Y-73660000D03*
X104000000Y-71120000D03*
X104000000Y-68580000D03*
X104000000Y-66040000D03*
X104000000Y-63500000D03*
X104000000Y-60960000D03*
X104000000Y-58420000D03*
X104000000Y-55880000D03*
X104000000Y-53340000D03*
X104000000Y-50800000D03*
X104000000Y-48260000D03*
X104000000Y-45720000D03*
X104000000Y-43180000D03*
X104000000Y-40640000D03*
X104000000Y-38100000D03*
X104000000Y-35560000D03*
D11*
X108300000Y-37860000D03*
D12*
X108300000Y-40400000D03*
X108300000Y-42940000D03*
D13*
X126200900Y-32962540D03*
X121200900Y-32962540D03*
D14*
X127200900Y-30262540D03*
X120200900Y-30262540D03*
D11*
X113600000Y-37860000D03*
D12*
X113600000Y-40400000D03*
X113600000Y-42940000D03*
D11*
X146900000Y-35560000D03*
D12*
X146900000Y-38100000D03*
X146900000Y-40640000D03*
X146900000Y-43180000D03*
X146900000Y-45720000D03*
X146900000Y-48260000D03*
X146900000Y-50800000D03*
X146900000Y-53340000D03*
X146900000Y-55880000D03*
X146900000Y-58420000D03*
X146900000Y-60960000D03*
X146900000Y-63500000D03*
X146900000Y-66040000D03*
X146900000Y-68580000D03*
X146900000Y-71120000D03*
X146900000Y-73660000D03*
X146900000Y-76200000D03*
X146900000Y-78740000D03*
X146900000Y-81280000D03*
X146900000Y-83820000D03*
X146900000Y-86360000D03*
D11*
X112900000Y-47800000D03*
D12*
X112900000Y-50340000D03*
X112900000Y-52880000D03*
D11*
X116500000Y-47820000D03*
D12*
X116500000Y-50360000D03*
X116500000Y-52900000D03*
D15*
X136940000Y-49600000D03*
D16*
X136940000Y-52140000D03*
X134400000Y-49600000D03*
X134400000Y-52140000D03*
X131860000Y-49600000D03*
X131860000Y-52140000D03*
D17*
X115100000Y-65640940D03*
X115100000Y-60759060D03*
D18*
X102500000Y-30000000D03*
X145000000Y-30000000D03*
X140000000Y-90000000D03*
X102500000Y-90000000D03*
D19*
X138250000Y-36200000D03*
X124900000Y-73200000D03*
X127050000Y-63050000D03*
X122750000Y-60300000D03*
X128100000Y-49850000D03*
X137050000Y-65700000D03*
X137600000Y-65100000D03*
X137150000Y-61450000D03*
X134100001Y-60418585D03*
X139550000Y-36800000D03*
X136700000Y-32000000D03*
X115100000Y-69800000D03*
X137650000Y-42050000D03*
X134350000Y-45700000D03*
X122000000Y-34750000D03*
X110950000Y-78350000D03*
X113550000Y-73350000D03*
X113550000Y-74000000D03*
X109650000Y-75350000D03*
X109650000Y-73650000D03*
X109650000Y-74550000D03*
X110000000Y-62800000D03*
X110000000Y-61450000D03*
X110000000Y-62100000D03*
X111059696Y-70795334D03*
X110374990Y-66622506D03*
X111705833Y-70974990D03*
X109600000Y-66950000D03*
X117500000Y-79700000D03*
X125500000Y-78400000D03*
X114600000Y-83100000D03*
X108903284Y-78575011D03*
X101650000Y-85250000D03*
X112799998Y-84350000D03*
X111315469Y-82525022D03*
X102750000Y-83000000D03*
X131250000Y-83500000D03*
X133750000Y-80000000D03*
X130225000Y-83525000D03*
X129150000Y-70775000D03*
X133023710Y-61733872D03*
X130700000Y-59800000D03*
X117650000Y-61400000D03*
X122000000Y-61100000D03*
X137150000Y-62450000D03*
X137141535Y-63261905D03*
X135252803Y-65636702D03*
X116300000Y-57300000D03*
X135700000Y-45700000D03*
X127500000Y-60300000D03*
X123350000Y-86450000D03*
X122400000Y-86500000D03*
X117000000Y-64300000D03*
X139200000Y-60600000D03*
X139600000Y-64000000D03*
X134400000Y-65600000D03*
X119982500Y-44517500D03*
X125300000Y-43900000D03*
X116900000Y-40200000D03*
X132000000Y-46100000D03*
X132000000Y-44700000D03*
X131800000Y-43000000D03*
X130900000Y-32800000D03*
X130200000Y-36700000D03*
X117300000Y-36700000D03*
X130400000Y-61100000D03*
X124100000Y-51750000D03*
X118250000Y-41750000D03*
X139700000Y-74700000D03*
X139700000Y-72950000D03*
X139700000Y-71000000D03*
X106449999Y-79103991D03*
X107950000Y-69250000D03*
X107050000Y-66250000D03*
X106100000Y-80750000D03*
X136750000Y-71000000D03*
X112450000Y-69350000D03*
X111400000Y-69350000D03*
X113250000Y-58000000D03*
X112450000Y-58150000D03*
X113100000Y-58800000D03*
X113250000Y-86775010D03*
X107000000Y-86750000D03*
X124850000Y-82450000D03*
X122800000Y-57900000D03*
X117300000Y-78100000D03*
X110474361Y-58024981D03*
X115702707Y-82125010D03*
X142748101Y-60741381D03*
X130060859Y-56378372D03*
X126700000Y-58100000D03*
X141971565Y-59428435D03*
X129349431Y-56012463D03*
X124900000Y-58500000D03*
X120200000Y-82250000D03*
X121900000Y-62525010D03*
X113049989Y-82050000D03*
X122700000Y-63150000D03*
X107800000Y-47900000D03*
X107850000Y-53300000D03*
X125100000Y-62700000D03*
X114600000Y-81050000D03*
X112400000Y-55600000D03*
X131875010Y-66125010D03*
X132300000Y-62800000D03*
X128500000Y-68700000D03*
X135250000Y-67750000D03*
X130425048Y-66108562D03*
X130500000Y-64300000D03*
X128400000Y-65600000D03*
X134750000Y-67000000D03*
X122850000Y-69950000D03*
X120500000Y-71700000D03*
X128950000Y-64450000D03*
X126800000Y-61900000D03*
X137450000Y-58550000D03*
X127270191Y-48325010D03*
X128300000Y-41300000D03*
X122650000Y-49200000D03*
X110795741Y-55547358D03*
X117113593Y-82125010D03*
X113300000Y-78150000D03*
X111700000Y-76100000D03*
X110450002Y-68450000D03*
X110250000Y-64400000D03*
X126150000Y-76850000D03*
X126300000Y-82450000D03*
X109843652Y-69451587D03*
X109750000Y-65400000D03*
X105750000Y-64850000D03*
X109150000Y-70850000D03*
X106800000Y-83050000D03*
X108550000Y-81800000D03*
X119228760Y-77974990D03*
X109150000Y-69950000D03*
X106410859Y-65592403D03*
X122150000Y-80150000D03*
X113800000Y-79750000D03*
X111350000Y-83700000D03*
D20*
X103700000Y-85300000D02*
X113350000Y-85300000D01*
X101950000Y-83550000D02*
X103700000Y-85300000D01*
X101950000Y-82200000D02*
X101950000Y-83550000D01*
X102250000Y-81900000D02*
X101950000Y-82200000D01*
X113350000Y-85300000D02*
X115702707Y-82947293D01*
X104000000Y-43180000D02*
X103847600Y-43180000D01*
X102250000Y-44777600D02*
X102250000Y-81900000D01*
X103847600Y-43180000D02*
X102250000Y-44777600D01*
X115702707Y-82947293D02*
X115702707Y-82549274D01*
X115702707Y-82549274D02*
X115702707Y-82125010D01*
X113762867Y-85900000D02*
X117113593Y-82549274D01*
X101499989Y-82013600D02*
X101499989Y-83886400D01*
X117113593Y-82549274D02*
X117113593Y-82125010D01*
X103500000Y-85900000D02*
X113762867Y-85900000D01*
X101950000Y-84336411D02*
X101950000Y-84350000D01*
X103847600Y-38100000D02*
X101750000Y-40197600D01*
X101499989Y-83886400D02*
X101950000Y-84336411D01*
X101750000Y-81763589D02*
X101499989Y-82013600D01*
X101750000Y-40197600D02*
X101750000Y-81763589D01*
X104000000Y-38100000D02*
X103847600Y-38100000D01*
X101950000Y-84350000D02*
X103500000Y-85900000D01*
D21*
G36*
X142767458Y-28505443D02*
X142365458Y-29473567D01*
X142364543Y-30521834D01*
X142764853Y-31490658D01*
X143505443Y-32232542D01*
X144473567Y-32634542D01*
X145521834Y-32635457D01*
X146490658Y-32235147D01*
X147232542Y-31494557D01*
X147634542Y-30526433D01*
X147635457Y-29478166D01*
X147235147Y-28509342D01*
X146936327Y-28210000D01*
X148790000Y-28210000D01*
X148790000Y-41123000D01*
X148452584Y-41123000D01*
X148504709Y-41014791D01*
X148507358Y-40999026D01*
X148386217Y-40767000D01*
X147027000Y-40767000D01*
X147027000Y-40787000D01*
X146773000Y-40787000D01*
X146773000Y-40767000D01*
X145413783Y-40767000D01*
X145292642Y-40999026D01*
X145295291Y-41014791D01*
X145347416Y-41123000D01*
X142750000Y-41123000D01*
X142700590Y-41133006D01*
X142658965Y-41161447D01*
X142631685Y-41203841D01*
X142623000Y-41250000D01*
X142623000Y-43623000D01*
X138000000Y-43623000D01*
X137950590Y-43633006D01*
X137908965Y-43661447D01*
X137881685Y-43703841D01*
X137873000Y-43750000D01*
X137873000Y-48103014D01*
X137803600Y-48088960D01*
X136076400Y-48088960D01*
X135841083Y-48133238D01*
X135624959Y-48272310D01*
X135479969Y-48484510D01*
X135471136Y-48528131D01*
X135459670Y-48510971D01*
X134973489Y-48186115D01*
X134400000Y-48072041D01*
X133826511Y-48186115D01*
X133340330Y-48510971D01*
X133130000Y-48825752D01*
X132919670Y-48510971D01*
X132433489Y-48186115D01*
X131860000Y-48072041D01*
X131286511Y-48186115D01*
X130800330Y-48510971D01*
X130475474Y-48997152D01*
X130361400Y-49570641D01*
X130361400Y-49629359D01*
X130475474Y-50202848D01*
X130800330Y-50689029D01*
X131071172Y-50870000D01*
X130800330Y-51050971D01*
X130475474Y-51537152D01*
X130361400Y-52110641D01*
X130361400Y-52169359D01*
X130475474Y-52742848D01*
X130800330Y-53229029D01*
X131286511Y-53553885D01*
X131860000Y-53667959D01*
X132433489Y-53553885D01*
X132919670Y-53229029D01*
X133130000Y-52914248D01*
X133340330Y-53229029D01*
X133826511Y-53553885D01*
X134400000Y-53667959D01*
X134973489Y-53553885D01*
X135459670Y-53229029D01*
X135675664Y-52905772D01*
X135733179Y-53028490D01*
X136165053Y-53422688D01*
X136580974Y-53594958D01*
X136813000Y-53473817D01*
X136813000Y-52267000D01*
X136793000Y-52267000D01*
X136793000Y-52013000D01*
X136813000Y-52013000D01*
X136813000Y-51993000D01*
X137067000Y-51993000D01*
X137067000Y-52013000D01*
X137087000Y-52013000D01*
X137087000Y-52267000D01*
X137067000Y-52267000D01*
X137067000Y-53473817D01*
X137299026Y-53594958D01*
X137714947Y-53422688D01*
X137873000Y-53278423D01*
X137873000Y-57713242D01*
X137636799Y-57615162D01*
X137264833Y-57614838D01*
X136921057Y-57756883D01*
X136657808Y-58019673D01*
X136515162Y-58363201D01*
X136514838Y-58735167D01*
X136656883Y-59078943D01*
X136919673Y-59342192D01*
X137263201Y-59484838D01*
X137635167Y-59485162D01*
X137873000Y-59386892D01*
X137873000Y-61850818D01*
X137680327Y-61657808D01*
X137336799Y-61515162D01*
X136964833Y-61514838D01*
X136621057Y-61656883D01*
X136357808Y-61919673D01*
X136215162Y-62263201D01*
X136214838Y-62635167D01*
X136301892Y-62845853D01*
X136206697Y-63075106D01*
X136206373Y-63447072D01*
X136348418Y-63790848D01*
X136611208Y-64054097D01*
X136954736Y-64196743D01*
X137326702Y-64197067D01*
X137670478Y-64055022D01*
X137873000Y-63852853D01*
X137873000Y-65873309D01*
X136165229Y-65877474D01*
X136187641Y-65823501D01*
X136187965Y-65451535D01*
X136045920Y-65107759D01*
X135783130Y-64844510D01*
X135439602Y-64701864D01*
X135067636Y-64701540D01*
X134870535Y-64782980D01*
X134586799Y-64665162D01*
X134214833Y-64664838D01*
X133871057Y-64806883D01*
X133607808Y-65069673D01*
X133465162Y-65413201D01*
X133464838Y-65785167D01*
X133505659Y-65883961D01*
X132787805Y-65885712D01*
X132668127Y-65596067D01*
X132405337Y-65332818D01*
X132061809Y-65190172D01*
X131689843Y-65189848D01*
X131346067Y-65331893D01*
X131158142Y-65519491D01*
X130955375Y-65316370D01*
X130722578Y-65219704D01*
X131028943Y-65093117D01*
X131292192Y-64830327D01*
X131434838Y-64486799D01*
X131435162Y-64114833D01*
X131293117Y-63771057D01*
X131030327Y-63507808D01*
X130686799Y-63365162D01*
X130314833Y-63364838D01*
X129971057Y-63506883D01*
X129707808Y-63769673D01*
X129673787Y-63851605D01*
X129480327Y-63657808D01*
X129136799Y-63515162D01*
X128764833Y-63514838D01*
X128421057Y-63656883D01*
X128157808Y-63919673D01*
X128015162Y-64263201D01*
X128014838Y-64635167D01*
X128054475Y-64731096D01*
X127871057Y-64806883D01*
X127607808Y-65069673D01*
X127465162Y-65413201D01*
X127464838Y-65785167D01*
X127511699Y-65898580D01*
X117627000Y-65922689D01*
X117627000Y-64995231D01*
X117792192Y-64830327D01*
X117934838Y-64486799D01*
X117935162Y-64114833D01*
X117793117Y-63771057D01*
X117627000Y-63604650D01*
X117627000Y-62710177D01*
X120964838Y-62710177D01*
X121106883Y-63053953D01*
X121369673Y-63317202D01*
X121713201Y-63459848D01*
X121816392Y-63459938D01*
X121906883Y-63678943D01*
X122169673Y-63942192D01*
X122513201Y-64084838D01*
X122885167Y-64085162D01*
X123228943Y-63943117D01*
X123492192Y-63680327D01*
X123634838Y-63336799D01*
X123635162Y-62964833D01*
X123602245Y-62885167D01*
X124164838Y-62885167D01*
X124306883Y-63228943D01*
X124569673Y-63492192D01*
X124913201Y-63634838D01*
X125285167Y-63635162D01*
X125628943Y-63493117D01*
X125892192Y-63230327D01*
X125993991Y-62985167D01*
X131364838Y-62985167D01*
X131506883Y-63328943D01*
X131769673Y-63592192D01*
X132113201Y-63734838D01*
X132485167Y-63735162D01*
X132828943Y-63593117D01*
X133092192Y-63330327D01*
X133234838Y-62986799D01*
X133235124Y-62658189D01*
X133552653Y-62526989D01*
X133815902Y-62264199D01*
X133958548Y-61920671D01*
X133958872Y-61548705D01*
X133816827Y-61204929D01*
X133554037Y-60941680D01*
X133210509Y-60799034D01*
X132838543Y-60798710D01*
X132494767Y-60940755D01*
X132231518Y-61203545D01*
X132088872Y-61547073D01*
X132088586Y-61875683D01*
X131771057Y-62006883D01*
X131507808Y-62269673D01*
X131365162Y-62613201D01*
X131364838Y-62985167D01*
X125993991Y-62985167D01*
X126034838Y-62886799D01*
X126035162Y-62514833D01*
X125893117Y-62171057D01*
X125807377Y-62085167D01*
X125864838Y-62085167D01*
X126006883Y-62428943D01*
X126269673Y-62692192D01*
X126613201Y-62834838D01*
X126985167Y-62835162D01*
X127328943Y-62693117D01*
X127592192Y-62430327D01*
X127734838Y-62086799D01*
X127735162Y-61714833D01*
X127593117Y-61371057D01*
X127507378Y-61285167D01*
X129464838Y-61285167D01*
X129606883Y-61628943D01*
X129869673Y-61892192D01*
X130213201Y-62034838D01*
X130585167Y-62035162D01*
X130928943Y-61893117D01*
X131192192Y-61630327D01*
X131334838Y-61286799D01*
X131335162Y-60914833D01*
X131206127Y-60602544D01*
X131228943Y-60593117D01*
X131492192Y-60330327D01*
X131634838Y-59986799D01*
X131635162Y-59614833D01*
X131493117Y-59271057D01*
X131230327Y-59007808D01*
X130886799Y-58865162D01*
X130514833Y-58864838D01*
X130171057Y-59006883D01*
X129907808Y-59269673D01*
X129765162Y-59613201D01*
X129764838Y-59985167D01*
X129893873Y-60297456D01*
X129871057Y-60306883D01*
X129607808Y-60569673D01*
X129465162Y-60913201D01*
X129464838Y-61285167D01*
X127507378Y-61285167D01*
X127457261Y-61234963D01*
X127685167Y-61235162D01*
X128028943Y-61093117D01*
X128292192Y-60830327D01*
X128434838Y-60486799D01*
X128435162Y-60114833D01*
X128293117Y-59771057D01*
X128030327Y-59507808D01*
X127686799Y-59365162D01*
X127314833Y-59364838D01*
X126971057Y-59506883D01*
X126707808Y-59769673D01*
X126565162Y-60113201D01*
X126564838Y-60485167D01*
X126706883Y-60828943D01*
X126842739Y-60965037D01*
X126614833Y-60964838D01*
X126271057Y-61106883D01*
X126007808Y-61369673D01*
X125865162Y-61713201D01*
X125864838Y-62085167D01*
X125807377Y-62085167D01*
X125630327Y-61907808D01*
X125286799Y-61765162D01*
X124914833Y-61764838D01*
X124571057Y-61906883D01*
X124307808Y-62169673D01*
X124165162Y-62513201D01*
X124164838Y-62885167D01*
X123602245Y-62885167D01*
X123493117Y-62621057D01*
X123230327Y-62357808D01*
X122886799Y-62215162D01*
X122783608Y-62215072D01*
X122693117Y-61996067D01*
X122559698Y-61862415D01*
X122792192Y-61630327D01*
X122934838Y-61286799D01*
X122935162Y-60914833D01*
X122793117Y-60571057D01*
X122530327Y-60307808D01*
X122186799Y-60165162D01*
X121814833Y-60164838D01*
X121471057Y-60306883D01*
X121207808Y-60569673D01*
X121065162Y-60913201D01*
X121064838Y-61285167D01*
X121206883Y-61628943D01*
X121340302Y-61762595D01*
X121107808Y-61994683D01*
X120965162Y-62338211D01*
X120964838Y-62710177D01*
X117627000Y-62710177D01*
X117627000Y-62334981D01*
X117835167Y-62335162D01*
X118178943Y-62193117D01*
X118442192Y-61930327D01*
X118584838Y-61586799D01*
X118585162Y-61214833D01*
X118443117Y-60871057D01*
X118180327Y-60607808D01*
X117836799Y-60465162D01*
X117627000Y-60464979D01*
X117627000Y-58085167D01*
X121864838Y-58085167D01*
X122006883Y-58428943D01*
X122269673Y-58692192D01*
X122613201Y-58834838D01*
X122985167Y-58835162D01*
X123328943Y-58693117D01*
X123336906Y-58685167D01*
X123964838Y-58685167D01*
X124106883Y-59028943D01*
X124369673Y-59292192D01*
X124713201Y-59434838D01*
X125085167Y-59435162D01*
X125428943Y-59293117D01*
X125692192Y-59030327D01*
X125834838Y-58686799D01*
X125835040Y-58455069D01*
X125906883Y-58628943D01*
X126169673Y-58892192D01*
X126513201Y-59034838D01*
X126885167Y-59035162D01*
X127228943Y-58893117D01*
X127492192Y-58630327D01*
X127634838Y-58286799D01*
X127635162Y-57914833D01*
X127493117Y-57571057D01*
X127230327Y-57307808D01*
X126886799Y-57165162D01*
X126514833Y-57164838D01*
X126171057Y-57306883D01*
X125907808Y-57569673D01*
X125765162Y-57913201D01*
X125764960Y-58144931D01*
X125693117Y-57971057D01*
X125430327Y-57707808D01*
X125086799Y-57565162D01*
X124714833Y-57564838D01*
X124371057Y-57706883D01*
X124107808Y-57969673D01*
X123965162Y-58313201D01*
X123964838Y-58685167D01*
X123336906Y-58685167D01*
X123592192Y-58430327D01*
X123734838Y-58086799D01*
X123735162Y-57714833D01*
X123593117Y-57371057D01*
X123330327Y-57107808D01*
X122986799Y-56965162D01*
X122614833Y-56964838D01*
X122271057Y-57106883D01*
X122007808Y-57369673D01*
X121865162Y-57713201D01*
X121864838Y-58085167D01*
X117627000Y-58085167D01*
X117627000Y-56827000D01*
X118800000Y-56827000D01*
X118849410Y-56816994D01*
X118891035Y-56788553D01*
X118918315Y-56746159D01*
X118927000Y-56700000D01*
X118927000Y-56197630D01*
X128414269Y-56197630D01*
X128556314Y-56541406D01*
X128819104Y-56804655D01*
X129162632Y-56947301D01*
X129307784Y-56947427D01*
X129530532Y-57170564D01*
X129874060Y-57313210D01*
X130246026Y-57313534D01*
X130589802Y-57171489D01*
X130853051Y-56908699D01*
X130995697Y-56565171D01*
X130996021Y-56193205D01*
X130853976Y-55849429D01*
X130591186Y-55586180D01*
X130247658Y-55443534D01*
X130102506Y-55443408D01*
X129879758Y-55220271D01*
X129536230Y-55077625D01*
X129164264Y-55077301D01*
X128820488Y-55219346D01*
X128557239Y-55482136D01*
X128414593Y-55825664D01*
X128414269Y-56197630D01*
X118927000Y-56197630D01*
X118927000Y-51935167D01*
X123164838Y-51935167D01*
X123306883Y-52278943D01*
X123569673Y-52542192D01*
X123913201Y-52684838D01*
X124285167Y-52685162D01*
X124628943Y-52543117D01*
X124892192Y-52280327D01*
X125034838Y-51936799D01*
X125035162Y-51564833D01*
X124893117Y-51221057D01*
X124630327Y-50957808D01*
X124286799Y-50815162D01*
X123914833Y-50814838D01*
X123571057Y-50956883D01*
X123307808Y-51219673D01*
X123165162Y-51563201D01*
X123164838Y-51935167D01*
X118927000Y-51935167D01*
X118927000Y-49385167D01*
X121714838Y-49385167D01*
X121856883Y-49728943D01*
X122119673Y-49992192D01*
X122463201Y-50134838D01*
X122835167Y-50135162D01*
X123178943Y-49993117D01*
X123442192Y-49730327D01*
X123584838Y-49386799D01*
X123585162Y-49014833D01*
X123443117Y-48671057D01*
X123282518Y-48510177D01*
X126335029Y-48510177D01*
X126477074Y-48853953D01*
X126739864Y-49117202D01*
X127083392Y-49259848D01*
X127455358Y-49260172D01*
X127799134Y-49118127D01*
X128062383Y-48855337D01*
X128205029Y-48511809D01*
X128205353Y-48139843D01*
X128063308Y-47796067D01*
X127800518Y-47532818D01*
X127456990Y-47390172D01*
X127085024Y-47389848D01*
X126741248Y-47531893D01*
X126477999Y-47794683D01*
X126335353Y-48138211D01*
X126335029Y-48510177D01*
X123282518Y-48510177D01*
X123180327Y-48407808D01*
X122836799Y-48265162D01*
X122464833Y-48264838D01*
X122121057Y-48406883D01*
X121857808Y-48669673D01*
X121715162Y-49013201D01*
X121714838Y-49385167D01*
X118927000Y-49385167D01*
X118927000Y-44702667D01*
X119047338Y-44702667D01*
X119189383Y-45046443D01*
X119452173Y-45309692D01*
X119795701Y-45452338D01*
X120167667Y-45452662D01*
X120511443Y-45310617D01*
X120774692Y-45047827D01*
X120917338Y-44704299D01*
X120917662Y-44332333D01*
X120815536Y-44085167D01*
X124364838Y-44085167D01*
X124506883Y-44428943D01*
X124769673Y-44692192D01*
X125113201Y-44834838D01*
X125485167Y-44835162D01*
X125828943Y-44693117D01*
X126092192Y-44430327D01*
X126234838Y-44086799D01*
X126235162Y-43714833D01*
X126093117Y-43371057D01*
X125907552Y-43185167D01*
X130864838Y-43185167D01*
X131006883Y-43528943D01*
X131269673Y-43792192D01*
X131508560Y-43891387D01*
X131471057Y-43906883D01*
X131207808Y-44169673D01*
X131065162Y-44513201D01*
X131064838Y-44885167D01*
X131206883Y-45228943D01*
X131377709Y-45400068D01*
X131207808Y-45569673D01*
X131065162Y-45913201D01*
X131064838Y-46285167D01*
X131206883Y-46628943D01*
X131469673Y-46892192D01*
X131813201Y-47034838D01*
X132185167Y-47035162D01*
X132528943Y-46893117D01*
X132792192Y-46630327D01*
X132934838Y-46286799D01*
X132935162Y-45914833D01*
X132922905Y-45885167D01*
X133414838Y-45885167D01*
X133556883Y-46228943D01*
X133819673Y-46492192D01*
X134163201Y-46634838D01*
X134535167Y-46635162D01*
X134878943Y-46493117D01*
X135025024Y-46347291D01*
X135169673Y-46492192D01*
X135513201Y-46634838D01*
X135885167Y-46635162D01*
X136228943Y-46493117D01*
X136492192Y-46230327D01*
X136634838Y-45886799D01*
X136635162Y-45514833D01*
X136493117Y-45171057D01*
X136230327Y-44907808D01*
X135886799Y-44765162D01*
X135514833Y-44764838D01*
X135171057Y-44906883D01*
X135024976Y-45052709D01*
X134880327Y-44907808D01*
X134536799Y-44765162D01*
X134164833Y-44764838D01*
X133821057Y-44906883D01*
X133557808Y-45169673D01*
X133415162Y-45513201D01*
X133414838Y-45885167D01*
X132922905Y-45885167D01*
X132793117Y-45571057D01*
X132622291Y-45399932D01*
X132792192Y-45230327D01*
X132934838Y-44886799D01*
X132935162Y-44514833D01*
X132793117Y-44171057D01*
X132530327Y-43907808D01*
X132291440Y-43808613D01*
X132328943Y-43793117D01*
X132592192Y-43530327D01*
X132734838Y-43186799D01*
X132735162Y-42814833D01*
X132593117Y-42471057D01*
X132357639Y-42235167D01*
X136714838Y-42235167D01*
X136856883Y-42578943D01*
X137119673Y-42842192D01*
X137463201Y-42984838D01*
X137835167Y-42985162D01*
X138178943Y-42843117D01*
X138442192Y-42580327D01*
X138584838Y-42236799D01*
X138585162Y-41864833D01*
X138443117Y-41521057D01*
X138180327Y-41257808D01*
X137836799Y-41115162D01*
X137464833Y-41114838D01*
X137121057Y-41256883D01*
X136857808Y-41519673D01*
X136715162Y-41863201D01*
X136714838Y-42235167D01*
X132357639Y-42235167D01*
X132330327Y-42207808D01*
X131986799Y-42065162D01*
X131614833Y-42064838D01*
X131271057Y-42206883D01*
X131007808Y-42469673D01*
X130865162Y-42813201D01*
X130864838Y-43185167D01*
X125907552Y-43185167D01*
X125830327Y-43107808D01*
X125486799Y-42965162D01*
X125114833Y-42964838D01*
X124771057Y-43106883D01*
X124507808Y-43369673D01*
X124365162Y-43713201D01*
X124364838Y-44085167D01*
X120815536Y-44085167D01*
X120775617Y-43988557D01*
X120512827Y-43725308D01*
X120169299Y-43582662D01*
X119797333Y-43582338D01*
X119453557Y-43724383D01*
X119190308Y-43987173D01*
X119047662Y-44330701D01*
X119047338Y-44702667D01*
X118927000Y-44702667D01*
X118927000Y-42395318D01*
X119042192Y-42280327D01*
X119184838Y-41936799D01*
X119185162Y-41564833D01*
X119152245Y-41485167D01*
X127364838Y-41485167D01*
X127506883Y-41828943D01*
X127769673Y-42092192D01*
X128113201Y-42234838D01*
X128485167Y-42235162D01*
X128828943Y-42093117D01*
X129092192Y-41830327D01*
X129234838Y-41486799D01*
X129235162Y-41114833D01*
X129093117Y-40771057D01*
X128830327Y-40507808D01*
X128486799Y-40365162D01*
X128114833Y-40364838D01*
X127771057Y-40506883D01*
X127507808Y-40769673D01*
X127365162Y-41113201D01*
X127364838Y-41485167D01*
X119152245Y-41485167D01*
X119043117Y-41221057D01*
X118927000Y-41104737D01*
X118927000Y-38459026D01*
X145292642Y-38459026D01*
X145295291Y-38474791D01*
X145549268Y-39002036D01*
X145961108Y-39370000D01*
X145549268Y-39737964D01*
X145295291Y-40265209D01*
X145292642Y-40280974D01*
X145413783Y-40513000D01*
X146773000Y-40513000D01*
X146773000Y-38227000D01*
X147027000Y-38227000D01*
X147027000Y-40513000D01*
X148386217Y-40513000D01*
X148507358Y-40280974D01*
X148504709Y-40265209D01*
X148250732Y-39737964D01*
X147838892Y-39370000D01*
X148250732Y-39002036D01*
X148504709Y-38474791D01*
X148507358Y-38459026D01*
X148386217Y-38227000D01*
X147027000Y-38227000D01*
X146773000Y-38227000D01*
X145413783Y-38227000D01*
X145292642Y-38459026D01*
X118927000Y-38459026D01*
X118927000Y-36885167D01*
X129264838Y-36885167D01*
X129406883Y-37228943D01*
X129669673Y-37492192D01*
X130013201Y-37634838D01*
X130385167Y-37635162D01*
X130728943Y-37493117D01*
X130992192Y-37230327D01*
X131093991Y-36985167D01*
X138614838Y-36985167D01*
X138756883Y-37328943D01*
X139019673Y-37592192D01*
X139363201Y-37734838D01*
X139735167Y-37735162D01*
X140078943Y-37593117D01*
X140342192Y-37330327D01*
X140484838Y-36986799D01*
X140485162Y-36614833D01*
X140343117Y-36271057D01*
X140080327Y-36007808D01*
X139736799Y-35865162D01*
X139364833Y-35864838D01*
X139021057Y-36006883D01*
X138757808Y-36269673D01*
X138615162Y-36613201D01*
X138614838Y-36985167D01*
X131093991Y-36985167D01*
X131134838Y-36886799D01*
X131135162Y-36514833D01*
X130993117Y-36171057D01*
X130730327Y-35907808D01*
X130386799Y-35765162D01*
X130014833Y-35764838D01*
X129671057Y-35906883D01*
X129407808Y-36169673D01*
X129265162Y-36513201D01*
X129264838Y-36885167D01*
X118927000Y-36885167D01*
X118927000Y-32962540D01*
X119916215Y-32962540D01*
X120000709Y-33387319D01*
X120241326Y-33747429D01*
X120601436Y-33988046D01*
X121026215Y-34072540D01*
X121355198Y-34072540D01*
X121207808Y-34219673D01*
X121065162Y-34563201D01*
X121064838Y-34935167D01*
X121206883Y-35278943D01*
X121469673Y-35542192D01*
X121813201Y-35684838D01*
X122185167Y-35685162D01*
X122528943Y-35543117D01*
X122792192Y-35280327D01*
X122934838Y-34936799D01*
X122935047Y-34696400D01*
X145236560Y-34696400D01*
X145236560Y-36423600D01*
X145280838Y-36658917D01*
X145419910Y-36875041D01*
X145632110Y-37020031D01*
X145726927Y-37039232D01*
X145549268Y-37197964D01*
X145295291Y-37725209D01*
X145292642Y-37740974D01*
X145413783Y-37973000D01*
X146773000Y-37973000D01*
X146773000Y-37953000D01*
X147027000Y-37953000D01*
X147027000Y-37973000D01*
X148386217Y-37973000D01*
X148507358Y-37740974D01*
X148504709Y-37725209D01*
X148250732Y-37197964D01*
X148075155Y-37041093D01*
X148151317Y-37026762D01*
X148367441Y-36887690D01*
X148512431Y-36675490D01*
X148563440Y-36423600D01*
X148563440Y-34696400D01*
X148519162Y-34461083D01*
X148380090Y-34244959D01*
X148167890Y-34099969D01*
X147916000Y-34048960D01*
X145884000Y-34048960D01*
X145648683Y-34093238D01*
X145432559Y-34232310D01*
X145287569Y-34444510D01*
X145236560Y-34696400D01*
X122935047Y-34696400D01*
X122935162Y-34564833D01*
X122793117Y-34221057D01*
X122530327Y-33957808D01*
X122186799Y-33815162D01*
X122059270Y-33815051D01*
X122160474Y-33747429D01*
X122401091Y-33387319D01*
X122485585Y-32962540D01*
X124916215Y-32962540D01*
X125000709Y-33387319D01*
X125241326Y-33747429D01*
X125601436Y-33988046D01*
X126026215Y-34072540D01*
X126375585Y-34072540D01*
X126800364Y-33988046D01*
X127160474Y-33747429D01*
X127401091Y-33387319D01*
X127481084Y-32985167D01*
X129964838Y-32985167D01*
X130106883Y-33328943D01*
X130369673Y-33592192D01*
X130713201Y-33734838D01*
X131085167Y-33735162D01*
X131428943Y-33593117D01*
X131692192Y-33330327D01*
X131834838Y-32986799D01*
X131835162Y-32614833D01*
X131693117Y-32271057D01*
X131607377Y-32185167D01*
X135764838Y-32185167D01*
X135906883Y-32528943D01*
X136169673Y-32792192D01*
X136513201Y-32934838D01*
X136885167Y-32935162D01*
X137228943Y-32793117D01*
X137492192Y-32530327D01*
X137634838Y-32186799D01*
X137635162Y-31814833D01*
X137493117Y-31471057D01*
X137230327Y-31207808D01*
X136886799Y-31065162D01*
X136514833Y-31064838D01*
X136171057Y-31206883D01*
X135907808Y-31469673D01*
X135765162Y-31813201D01*
X135764838Y-32185167D01*
X131607377Y-32185167D01*
X131430327Y-32007808D01*
X131086799Y-31865162D01*
X130714833Y-31864838D01*
X130371057Y-32006883D01*
X130107808Y-32269673D01*
X129965162Y-32613201D01*
X129964838Y-32985167D01*
X127481084Y-32985167D01*
X127485585Y-32962540D01*
X127401091Y-32537761D01*
X127160474Y-32177651D01*
X126800364Y-31937034D01*
X126375585Y-31852540D01*
X126026215Y-31852540D01*
X125601436Y-31937034D01*
X125241326Y-32177651D01*
X125000709Y-32537761D01*
X124916215Y-32962540D01*
X122485585Y-32962540D01*
X122401091Y-32537761D01*
X122160474Y-32177651D01*
X121800364Y-31937034D01*
X121375585Y-31852540D01*
X121026215Y-31852540D01*
X120601436Y-31937034D01*
X120241326Y-32177651D01*
X120000709Y-32537761D01*
X119916215Y-32962540D01*
X118927000Y-32962540D01*
X118927000Y-29959916D01*
X119065900Y-29959916D01*
X119065900Y-30565164D01*
X119152297Y-30999510D01*
X119398334Y-31367730D01*
X119766554Y-31613767D01*
X120200900Y-31700164D01*
X120635246Y-31613767D01*
X121003466Y-31367730D01*
X121249503Y-30999510D01*
X121335900Y-30565164D01*
X121335900Y-29959916D01*
X126065900Y-29959916D01*
X126065900Y-30565164D01*
X126152297Y-30999510D01*
X126398334Y-31367730D01*
X126766554Y-31613767D01*
X127200900Y-31700164D01*
X127635246Y-31613767D01*
X128003466Y-31367730D01*
X128249503Y-30999510D01*
X128335900Y-30565164D01*
X128335900Y-29959916D01*
X128249503Y-29525570D01*
X128003466Y-29157350D01*
X127635246Y-28911313D01*
X127200900Y-28824916D01*
X126766554Y-28911313D01*
X126398334Y-29157350D01*
X126152297Y-29525570D01*
X126065900Y-29959916D01*
X121335900Y-29959916D01*
X121249503Y-29525570D01*
X121003466Y-29157350D01*
X120635246Y-28911313D01*
X120200900Y-28824916D01*
X119766554Y-28911313D01*
X119398334Y-29157350D01*
X119152297Y-29525570D01*
X119065900Y-29959916D01*
X118927000Y-29959916D01*
X118927000Y-28210000D01*
X143063417Y-28210000D01*
X142767458Y-28505443D01*
X142767458Y-28505443D01*
G37*
X142767458Y-28505443D02*
X142365458Y-29473567D01*
X142364543Y-30521834D01*
X142764853Y-31490658D01*
X143505443Y-32232542D01*
X144473567Y-32634542D01*
X145521834Y-32635457D01*
X146490658Y-32235147D01*
X147232542Y-31494557D01*
X147634542Y-30526433D01*
X147635457Y-29478166D01*
X147235147Y-28509342D01*
X146936327Y-28210000D01*
X148790000Y-28210000D01*
X148790000Y-41123000D01*
X148452584Y-41123000D01*
X148504709Y-41014791D01*
X148507358Y-40999026D01*
X148386217Y-40767000D01*
X147027000Y-40767000D01*
X147027000Y-40787000D01*
X146773000Y-40787000D01*
X146773000Y-40767000D01*
X145413783Y-40767000D01*
X145292642Y-40999026D01*
X145295291Y-41014791D01*
X145347416Y-41123000D01*
X142750000Y-41123000D01*
X142700590Y-41133006D01*
X142658965Y-41161447D01*
X142631685Y-41203841D01*
X142623000Y-41250000D01*
X142623000Y-43623000D01*
X138000000Y-43623000D01*
X137950590Y-43633006D01*
X137908965Y-43661447D01*
X137881685Y-43703841D01*
X137873000Y-43750000D01*
X137873000Y-48103014D01*
X137803600Y-48088960D01*
X136076400Y-48088960D01*
X135841083Y-48133238D01*
X135624959Y-48272310D01*
X135479969Y-48484510D01*
X135471136Y-48528131D01*
X135459670Y-48510971D01*
X134973489Y-48186115D01*
X134400000Y-48072041D01*
X133826511Y-48186115D01*
X133340330Y-48510971D01*
X133130000Y-48825752D01*
X132919670Y-48510971D01*
X132433489Y-48186115D01*
X131860000Y-48072041D01*
X131286511Y-48186115D01*
X130800330Y-48510971D01*
X130475474Y-48997152D01*
X130361400Y-49570641D01*
X130361400Y-49629359D01*
X130475474Y-50202848D01*
X130800330Y-50689029D01*
X131071172Y-50870000D01*
X130800330Y-51050971D01*
X130475474Y-51537152D01*
X130361400Y-52110641D01*
X130361400Y-52169359D01*
X130475474Y-52742848D01*
X130800330Y-53229029D01*
X131286511Y-53553885D01*
X131860000Y-53667959D01*
X132433489Y-53553885D01*
X132919670Y-53229029D01*
X133130000Y-52914248D01*
X133340330Y-53229029D01*
X133826511Y-53553885D01*
X134400000Y-53667959D01*
X134973489Y-53553885D01*
X135459670Y-53229029D01*
X135675664Y-52905772D01*
X135733179Y-53028490D01*
X136165053Y-53422688D01*
X136580974Y-53594958D01*
X136813000Y-53473817D01*
X136813000Y-52267000D01*
X136793000Y-52267000D01*
X136793000Y-52013000D01*
X136813000Y-52013000D01*
X136813000Y-51993000D01*
X137067000Y-51993000D01*
X137067000Y-52013000D01*
X137087000Y-52013000D01*
X137087000Y-52267000D01*
X137067000Y-52267000D01*
X137067000Y-53473817D01*
X137299026Y-53594958D01*
X137714947Y-53422688D01*
X137873000Y-53278423D01*
X137873000Y-57713242D01*
X137636799Y-57615162D01*
X137264833Y-57614838D01*
X136921057Y-57756883D01*
X136657808Y-58019673D01*
X136515162Y-58363201D01*
X136514838Y-58735167D01*
X136656883Y-59078943D01*
X136919673Y-59342192D01*
X137263201Y-59484838D01*
X137635167Y-59485162D01*
X137873000Y-59386892D01*
X137873000Y-61850818D01*
X137680327Y-61657808D01*
X137336799Y-61515162D01*
X136964833Y-61514838D01*
X136621057Y-61656883D01*
X136357808Y-61919673D01*
X136215162Y-62263201D01*
X136214838Y-62635167D01*
X136301892Y-62845853D01*
X136206697Y-63075106D01*
X136206373Y-63447072D01*
X136348418Y-63790848D01*
X136611208Y-64054097D01*
X136954736Y-64196743D01*
X137326702Y-64197067D01*
X137670478Y-64055022D01*
X137873000Y-63852853D01*
X137873000Y-65873309D01*
X136165229Y-65877474D01*
X136187641Y-65823501D01*
X136187965Y-65451535D01*
X136045920Y-65107759D01*
X135783130Y-64844510D01*
X135439602Y-64701864D01*
X135067636Y-64701540D01*
X134870535Y-64782980D01*
X134586799Y-64665162D01*
X134214833Y-64664838D01*
X133871057Y-64806883D01*
X133607808Y-65069673D01*
X133465162Y-65413201D01*
X133464838Y-65785167D01*
X133505659Y-65883961D01*
X132787805Y-65885712D01*
X132668127Y-65596067D01*
X132405337Y-65332818D01*
X132061809Y-65190172D01*
X131689843Y-65189848D01*
X131346067Y-65331893D01*
X131158142Y-65519491D01*
X130955375Y-65316370D01*
X130722578Y-65219704D01*
X131028943Y-65093117D01*
X131292192Y-64830327D01*
X131434838Y-64486799D01*
X131435162Y-64114833D01*
X131293117Y-63771057D01*
X131030327Y-63507808D01*
X130686799Y-63365162D01*
X130314833Y-63364838D01*
X129971057Y-63506883D01*
X129707808Y-63769673D01*
X129673787Y-63851605D01*
X129480327Y-63657808D01*
X129136799Y-63515162D01*
X128764833Y-63514838D01*
X128421057Y-63656883D01*
X128157808Y-63919673D01*
X128015162Y-64263201D01*
X128014838Y-64635167D01*
X128054475Y-64731096D01*
X127871057Y-64806883D01*
X127607808Y-65069673D01*
X127465162Y-65413201D01*
X127464838Y-65785167D01*
X127511699Y-65898580D01*
X117627000Y-65922689D01*
X117627000Y-64995231D01*
X117792192Y-64830327D01*
X117934838Y-64486799D01*
X117935162Y-64114833D01*
X117793117Y-63771057D01*
X117627000Y-63604650D01*
X117627000Y-62710177D01*
X120964838Y-62710177D01*
X121106883Y-63053953D01*
X121369673Y-63317202D01*
X121713201Y-63459848D01*
X121816392Y-63459938D01*
X121906883Y-63678943D01*
X122169673Y-63942192D01*
X122513201Y-64084838D01*
X122885167Y-64085162D01*
X123228943Y-63943117D01*
X123492192Y-63680327D01*
X123634838Y-63336799D01*
X123635162Y-62964833D01*
X123602245Y-62885167D01*
X124164838Y-62885167D01*
X124306883Y-63228943D01*
X124569673Y-63492192D01*
X124913201Y-63634838D01*
X125285167Y-63635162D01*
X125628943Y-63493117D01*
X125892192Y-63230327D01*
X125993991Y-62985167D01*
X131364838Y-62985167D01*
X131506883Y-63328943D01*
X131769673Y-63592192D01*
X132113201Y-63734838D01*
X132485167Y-63735162D01*
X132828943Y-63593117D01*
X133092192Y-63330327D01*
X133234838Y-62986799D01*
X133235124Y-62658189D01*
X133552653Y-62526989D01*
X133815902Y-62264199D01*
X133958548Y-61920671D01*
X133958872Y-61548705D01*
X133816827Y-61204929D01*
X133554037Y-60941680D01*
X133210509Y-60799034D01*
X132838543Y-60798710D01*
X132494767Y-60940755D01*
X132231518Y-61203545D01*
X132088872Y-61547073D01*
X132088586Y-61875683D01*
X131771057Y-62006883D01*
X131507808Y-62269673D01*
X131365162Y-62613201D01*
X131364838Y-62985167D01*
X125993991Y-62985167D01*
X126034838Y-62886799D01*
X126035162Y-62514833D01*
X125893117Y-62171057D01*
X125807377Y-62085167D01*
X125864838Y-62085167D01*
X126006883Y-62428943D01*
X126269673Y-62692192D01*
X126613201Y-62834838D01*
X126985167Y-62835162D01*
X127328943Y-62693117D01*
X127592192Y-62430327D01*
X127734838Y-62086799D01*
X127735162Y-61714833D01*
X127593117Y-61371057D01*
X127507378Y-61285167D01*
X129464838Y-61285167D01*
X129606883Y-61628943D01*
X129869673Y-61892192D01*
X130213201Y-62034838D01*
X130585167Y-62035162D01*
X130928943Y-61893117D01*
X131192192Y-61630327D01*
X131334838Y-61286799D01*
X131335162Y-60914833D01*
X131206127Y-60602544D01*
X131228943Y-60593117D01*
X131492192Y-60330327D01*
X131634838Y-59986799D01*
X131635162Y-59614833D01*
X131493117Y-59271057D01*
X131230327Y-59007808D01*
X130886799Y-58865162D01*
X130514833Y-58864838D01*
X130171057Y-59006883D01*
X129907808Y-59269673D01*
X129765162Y-59613201D01*
X129764838Y-59985167D01*
X129893873Y-60297456D01*
X129871057Y-60306883D01*
X129607808Y-60569673D01*
X129465162Y-60913201D01*
X129464838Y-61285167D01*
X127507378Y-61285167D01*
X127457261Y-61234963D01*
X127685167Y-61235162D01*
X128028943Y-61093117D01*
X128292192Y-60830327D01*
X128434838Y-60486799D01*
X128435162Y-60114833D01*
X128293117Y-59771057D01*
X128030327Y-59507808D01*
X127686799Y-59365162D01*
X127314833Y-59364838D01*
X126971057Y-59506883D01*
X126707808Y-59769673D01*
X126565162Y-60113201D01*
X126564838Y-60485167D01*
X126706883Y-60828943D01*
X126842739Y-60965037D01*
X126614833Y-60964838D01*
X126271057Y-61106883D01*
X126007808Y-61369673D01*
X125865162Y-61713201D01*
X125864838Y-62085167D01*
X125807377Y-62085167D01*
X125630327Y-61907808D01*
X125286799Y-61765162D01*
X124914833Y-61764838D01*
X124571057Y-61906883D01*
X124307808Y-62169673D01*
X124165162Y-62513201D01*
X124164838Y-62885167D01*
X123602245Y-62885167D01*
X123493117Y-62621057D01*
X123230327Y-62357808D01*
X122886799Y-62215162D01*
X122783608Y-62215072D01*
X122693117Y-61996067D01*
X122559698Y-61862415D01*
X122792192Y-61630327D01*
X122934838Y-61286799D01*
X122935162Y-60914833D01*
X122793117Y-60571057D01*
X122530327Y-60307808D01*
X122186799Y-60165162D01*
X121814833Y-60164838D01*
X121471057Y-60306883D01*
X121207808Y-60569673D01*
X121065162Y-60913201D01*
X121064838Y-61285167D01*
X121206883Y-61628943D01*
X121340302Y-61762595D01*
X121107808Y-61994683D01*
X120965162Y-62338211D01*
X120964838Y-62710177D01*
X117627000Y-62710177D01*
X117627000Y-62334981D01*
X117835167Y-62335162D01*
X118178943Y-62193117D01*
X118442192Y-61930327D01*
X118584838Y-61586799D01*
X118585162Y-61214833D01*
X118443117Y-60871057D01*
X118180327Y-60607808D01*
X117836799Y-60465162D01*
X117627000Y-60464979D01*
X117627000Y-58085167D01*
X121864838Y-58085167D01*
X122006883Y-58428943D01*
X122269673Y-58692192D01*
X122613201Y-58834838D01*
X122985167Y-58835162D01*
X123328943Y-58693117D01*
X123336906Y-58685167D01*
X123964838Y-58685167D01*
X124106883Y-59028943D01*
X124369673Y-59292192D01*
X124713201Y-59434838D01*
X125085167Y-59435162D01*
X125428943Y-59293117D01*
X125692192Y-59030327D01*
X125834838Y-58686799D01*
X125835040Y-58455069D01*
X125906883Y-58628943D01*
X126169673Y-58892192D01*
X126513201Y-59034838D01*
X126885167Y-59035162D01*
X127228943Y-58893117D01*
X127492192Y-58630327D01*
X127634838Y-58286799D01*
X127635162Y-57914833D01*
X127493117Y-57571057D01*
X127230327Y-57307808D01*
X126886799Y-57165162D01*
X126514833Y-57164838D01*
X126171057Y-57306883D01*
X125907808Y-57569673D01*
X125765162Y-57913201D01*
X125764960Y-58144931D01*
X125693117Y-57971057D01*
X125430327Y-57707808D01*
X125086799Y-57565162D01*
X124714833Y-57564838D01*
X124371057Y-57706883D01*
X124107808Y-57969673D01*
X123965162Y-58313201D01*
X123964838Y-58685167D01*
X123336906Y-58685167D01*
X123592192Y-58430327D01*
X123734838Y-58086799D01*
X123735162Y-57714833D01*
X123593117Y-57371057D01*
X123330327Y-57107808D01*
X122986799Y-56965162D01*
X122614833Y-56964838D01*
X122271057Y-57106883D01*
X122007808Y-57369673D01*
X121865162Y-57713201D01*
X121864838Y-58085167D01*
X117627000Y-58085167D01*
X117627000Y-56827000D01*
X118800000Y-56827000D01*
X118849410Y-56816994D01*
X118891035Y-56788553D01*
X118918315Y-56746159D01*
X118927000Y-56700000D01*
X118927000Y-56197630D01*
X128414269Y-56197630D01*
X128556314Y-56541406D01*
X128819104Y-56804655D01*
X129162632Y-56947301D01*
X129307784Y-56947427D01*
X129530532Y-57170564D01*
X129874060Y-57313210D01*
X130246026Y-57313534D01*
X130589802Y-57171489D01*
X130853051Y-56908699D01*
X130995697Y-56565171D01*
X130996021Y-56193205D01*
X130853976Y-55849429D01*
X130591186Y-55586180D01*
X130247658Y-55443534D01*
X130102506Y-55443408D01*
X129879758Y-55220271D01*
X129536230Y-55077625D01*
X129164264Y-55077301D01*
X128820488Y-55219346D01*
X128557239Y-55482136D01*
X128414593Y-55825664D01*
X128414269Y-56197630D01*
X118927000Y-56197630D01*
X118927000Y-51935167D01*
X123164838Y-51935167D01*
X123306883Y-52278943D01*
X123569673Y-52542192D01*
X123913201Y-52684838D01*
X124285167Y-52685162D01*
X124628943Y-52543117D01*
X124892192Y-52280327D01*
X125034838Y-51936799D01*
X125035162Y-51564833D01*
X124893117Y-51221057D01*
X124630327Y-50957808D01*
X124286799Y-50815162D01*
X123914833Y-50814838D01*
X123571057Y-50956883D01*
X123307808Y-51219673D01*
X123165162Y-51563201D01*
X123164838Y-51935167D01*
X118927000Y-51935167D01*
X118927000Y-49385167D01*
X121714838Y-49385167D01*
X121856883Y-49728943D01*
X122119673Y-49992192D01*
X122463201Y-50134838D01*
X122835167Y-50135162D01*
X123178943Y-49993117D01*
X123442192Y-49730327D01*
X123584838Y-49386799D01*
X123585162Y-49014833D01*
X123443117Y-48671057D01*
X123282518Y-48510177D01*
X126335029Y-48510177D01*
X126477074Y-48853953D01*
X126739864Y-49117202D01*
X127083392Y-49259848D01*
X127455358Y-49260172D01*
X127799134Y-49118127D01*
X128062383Y-48855337D01*
X128205029Y-48511809D01*
X128205353Y-48139843D01*
X128063308Y-47796067D01*
X127800518Y-47532818D01*
X127456990Y-47390172D01*
X127085024Y-47389848D01*
X126741248Y-47531893D01*
X126477999Y-47794683D01*
X126335353Y-48138211D01*
X126335029Y-48510177D01*
X123282518Y-48510177D01*
X123180327Y-48407808D01*
X122836799Y-48265162D01*
X122464833Y-48264838D01*
X122121057Y-48406883D01*
X121857808Y-48669673D01*
X121715162Y-49013201D01*
X121714838Y-49385167D01*
X118927000Y-49385167D01*
X118927000Y-44702667D01*
X119047338Y-44702667D01*
X119189383Y-45046443D01*
X119452173Y-45309692D01*
X119795701Y-45452338D01*
X120167667Y-45452662D01*
X120511443Y-45310617D01*
X120774692Y-45047827D01*
X120917338Y-44704299D01*
X120917662Y-44332333D01*
X120815536Y-44085167D01*
X124364838Y-44085167D01*
X124506883Y-44428943D01*
X124769673Y-44692192D01*
X125113201Y-44834838D01*
X125485167Y-44835162D01*
X125828943Y-44693117D01*
X126092192Y-44430327D01*
X126234838Y-44086799D01*
X126235162Y-43714833D01*
X126093117Y-43371057D01*
X125907552Y-43185167D01*
X130864838Y-43185167D01*
X131006883Y-43528943D01*
X131269673Y-43792192D01*
X131508560Y-43891387D01*
X131471057Y-43906883D01*
X131207808Y-44169673D01*
X131065162Y-44513201D01*
X131064838Y-44885167D01*
X131206883Y-45228943D01*
X131377709Y-45400068D01*
X131207808Y-45569673D01*
X131065162Y-45913201D01*
X131064838Y-46285167D01*
X131206883Y-46628943D01*
X131469673Y-46892192D01*
X131813201Y-47034838D01*
X132185167Y-47035162D01*
X132528943Y-46893117D01*
X132792192Y-46630327D01*
X132934838Y-46286799D01*
X132935162Y-45914833D01*
X132922905Y-45885167D01*
X133414838Y-45885167D01*
X133556883Y-46228943D01*
X133819673Y-46492192D01*
X134163201Y-46634838D01*
X134535167Y-46635162D01*
X134878943Y-46493117D01*
X135025024Y-46347291D01*
X135169673Y-46492192D01*
X135513201Y-46634838D01*
X135885167Y-46635162D01*
X136228943Y-46493117D01*
X136492192Y-46230327D01*
X136634838Y-45886799D01*
X136635162Y-45514833D01*
X136493117Y-45171057D01*
X136230327Y-44907808D01*
X135886799Y-44765162D01*
X135514833Y-44764838D01*
X135171057Y-44906883D01*
X135024976Y-45052709D01*
X134880327Y-44907808D01*
X134536799Y-44765162D01*
X134164833Y-44764838D01*
X133821057Y-44906883D01*
X133557808Y-45169673D01*
X133415162Y-45513201D01*
X133414838Y-45885167D01*
X132922905Y-45885167D01*
X132793117Y-45571057D01*
X132622291Y-45399932D01*
X132792192Y-45230327D01*
X132934838Y-44886799D01*
X132935162Y-44514833D01*
X132793117Y-44171057D01*
X132530327Y-43907808D01*
X132291440Y-43808613D01*
X132328943Y-43793117D01*
X132592192Y-43530327D01*
X132734838Y-43186799D01*
X132735162Y-42814833D01*
X132593117Y-42471057D01*
X132357639Y-42235167D01*
X136714838Y-42235167D01*
X136856883Y-42578943D01*
X137119673Y-42842192D01*
X137463201Y-42984838D01*
X137835167Y-42985162D01*
X138178943Y-42843117D01*
X138442192Y-42580327D01*
X138584838Y-42236799D01*
X138585162Y-41864833D01*
X138443117Y-41521057D01*
X138180327Y-41257808D01*
X137836799Y-41115162D01*
X137464833Y-41114838D01*
X137121057Y-41256883D01*
X136857808Y-41519673D01*
X136715162Y-41863201D01*
X136714838Y-42235167D01*
X132357639Y-42235167D01*
X132330327Y-42207808D01*
X131986799Y-42065162D01*
X131614833Y-42064838D01*
X131271057Y-42206883D01*
X131007808Y-42469673D01*
X130865162Y-42813201D01*
X130864838Y-43185167D01*
X125907552Y-43185167D01*
X125830327Y-43107808D01*
X125486799Y-42965162D01*
X125114833Y-42964838D01*
X124771057Y-43106883D01*
X124507808Y-43369673D01*
X124365162Y-43713201D01*
X124364838Y-44085167D01*
X120815536Y-44085167D01*
X120775617Y-43988557D01*
X120512827Y-43725308D01*
X120169299Y-43582662D01*
X119797333Y-43582338D01*
X119453557Y-43724383D01*
X119190308Y-43987173D01*
X119047662Y-44330701D01*
X119047338Y-44702667D01*
X118927000Y-44702667D01*
X118927000Y-42395318D01*
X119042192Y-42280327D01*
X119184838Y-41936799D01*
X119185162Y-41564833D01*
X119152245Y-41485167D01*
X127364838Y-41485167D01*
X127506883Y-41828943D01*
X127769673Y-42092192D01*
X128113201Y-42234838D01*
X128485167Y-42235162D01*
X128828943Y-42093117D01*
X129092192Y-41830327D01*
X129234838Y-41486799D01*
X129235162Y-41114833D01*
X129093117Y-40771057D01*
X128830327Y-40507808D01*
X128486799Y-40365162D01*
X128114833Y-40364838D01*
X127771057Y-40506883D01*
X127507808Y-40769673D01*
X127365162Y-41113201D01*
X127364838Y-41485167D01*
X119152245Y-41485167D01*
X119043117Y-41221057D01*
X118927000Y-41104737D01*
X118927000Y-38459026D01*
X145292642Y-38459026D01*
X145295291Y-38474791D01*
X145549268Y-39002036D01*
X145961108Y-39370000D01*
X145549268Y-39737964D01*
X145295291Y-40265209D01*
X145292642Y-40280974D01*
X145413783Y-40513000D01*
X146773000Y-40513000D01*
X146773000Y-38227000D01*
X147027000Y-38227000D01*
X147027000Y-40513000D01*
X148386217Y-40513000D01*
X148507358Y-40280974D01*
X148504709Y-40265209D01*
X148250732Y-39737964D01*
X147838892Y-39370000D01*
X148250732Y-39002036D01*
X148504709Y-38474791D01*
X148507358Y-38459026D01*
X148386217Y-38227000D01*
X147027000Y-38227000D01*
X146773000Y-38227000D01*
X145413783Y-38227000D01*
X145292642Y-38459026D01*
X118927000Y-38459026D01*
X118927000Y-36885167D01*
X129264838Y-36885167D01*
X129406883Y-37228943D01*
X129669673Y-37492192D01*
X130013201Y-37634838D01*
X130385167Y-37635162D01*
X130728943Y-37493117D01*
X130992192Y-37230327D01*
X131093991Y-36985167D01*
X138614838Y-36985167D01*
X138756883Y-37328943D01*
X139019673Y-37592192D01*
X139363201Y-37734838D01*
X139735167Y-37735162D01*
X140078943Y-37593117D01*
X140342192Y-37330327D01*
X140484838Y-36986799D01*
X140485162Y-36614833D01*
X140343117Y-36271057D01*
X140080327Y-36007808D01*
X139736799Y-35865162D01*
X139364833Y-35864838D01*
X139021057Y-36006883D01*
X138757808Y-36269673D01*
X138615162Y-36613201D01*
X138614838Y-36985167D01*
X131093991Y-36985167D01*
X131134838Y-36886799D01*
X131135162Y-36514833D01*
X130993117Y-36171057D01*
X130730327Y-35907808D01*
X130386799Y-35765162D01*
X130014833Y-35764838D01*
X129671057Y-35906883D01*
X129407808Y-36169673D01*
X129265162Y-36513201D01*
X129264838Y-36885167D01*
X118927000Y-36885167D01*
X118927000Y-32962540D01*
X119916215Y-32962540D01*
X120000709Y-33387319D01*
X120241326Y-33747429D01*
X120601436Y-33988046D01*
X121026215Y-34072540D01*
X121355198Y-34072540D01*
X121207808Y-34219673D01*
X121065162Y-34563201D01*
X121064838Y-34935167D01*
X121206883Y-35278943D01*
X121469673Y-35542192D01*
X121813201Y-35684838D01*
X122185167Y-35685162D01*
X122528943Y-35543117D01*
X122792192Y-35280327D01*
X122934838Y-34936799D01*
X122935047Y-34696400D01*
X145236560Y-34696400D01*
X145236560Y-36423600D01*
X145280838Y-36658917D01*
X145419910Y-36875041D01*
X145632110Y-37020031D01*
X145726927Y-37039232D01*
X145549268Y-37197964D01*
X145295291Y-37725209D01*
X145292642Y-37740974D01*
X145413783Y-37973000D01*
X146773000Y-37973000D01*
X146773000Y-37953000D01*
X147027000Y-37953000D01*
X147027000Y-37973000D01*
X148386217Y-37973000D01*
X148507358Y-37740974D01*
X148504709Y-37725209D01*
X148250732Y-37197964D01*
X148075155Y-37041093D01*
X148151317Y-37026762D01*
X148367441Y-36887690D01*
X148512431Y-36675490D01*
X148563440Y-36423600D01*
X148563440Y-34696400D01*
X148519162Y-34461083D01*
X148380090Y-34244959D01*
X148167890Y-34099969D01*
X147916000Y-34048960D01*
X145884000Y-34048960D01*
X145648683Y-34093238D01*
X145432559Y-34232310D01*
X145287569Y-34444510D01*
X145236560Y-34696400D01*
X122935047Y-34696400D01*
X122935162Y-34564833D01*
X122793117Y-34221057D01*
X122530327Y-33957808D01*
X122186799Y-33815162D01*
X122059270Y-33815051D01*
X122160474Y-33747429D01*
X122401091Y-33387319D01*
X122485585Y-32962540D01*
X124916215Y-32962540D01*
X125000709Y-33387319D01*
X125241326Y-33747429D01*
X125601436Y-33988046D01*
X126026215Y-34072540D01*
X126375585Y-34072540D01*
X126800364Y-33988046D01*
X127160474Y-33747429D01*
X127401091Y-33387319D01*
X127481084Y-32985167D01*
X129964838Y-32985167D01*
X130106883Y-33328943D01*
X130369673Y-33592192D01*
X130713201Y-33734838D01*
X131085167Y-33735162D01*
X131428943Y-33593117D01*
X131692192Y-33330327D01*
X131834838Y-32986799D01*
X131835162Y-32614833D01*
X131693117Y-32271057D01*
X131607377Y-32185167D01*
X135764838Y-32185167D01*
X135906883Y-32528943D01*
X136169673Y-32792192D01*
X136513201Y-32934838D01*
X136885167Y-32935162D01*
X137228943Y-32793117D01*
X137492192Y-32530327D01*
X137634838Y-32186799D01*
X137635162Y-31814833D01*
X137493117Y-31471057D01*
X137230327Y-31207808D01*
X136886799Y-31065162D01*
X136514833Y-31064838D01*
X136171057Y-31206883D01*
X135907808Y-31469673D01*
X135765162Y-31813201D01*
X135764838Y-32185167D01*
X131607377Y-32185167D01*
X131430327Y-32007808D01*
X131086799Y-31865162D01*
X130714833Y-31864838D01*
X130371057Y-32006883D01*
X130107808Y-32269673D01*
X129965162Y-32613201D01*
X129964838Y-32985167D01*
X127481084Y-32985167D01*
X127485585Y-32962540D01*
X127401091Y-32537761D01*
X127160474Y-32177651D01*
X126800364Y-31937034D01*
X126375585Y-31852540D01*
X126026215Y-31852540D01*
X125601436Y-31937034D01*
X125241326Y-32177651D01*
X125000709Y-32537761D01*
X124916215Y-32962540D01*
X122485585Y-32962540D01*
X122401091Y-32537761D01*
X122160474Y-32177651D01*
X121800364Y-31937034D01*
X121375585Y-31852540D01*
X121026215Y-31852540D01*
X120601436Y-31937034D01*
X120241326Y-32177651D01*
X120000709Y-32537761D01*
X119916215Y-32962540D01*
X118927000Y-32962540D01*
X118927000Y-29959916D01*
X119065900Y-29959916D01*
X119065900Y-30565164D01*
X119152297Y-30999510D01*
X119398334Y-31367730D01*
X119766554Y-31613767D01*
X120200900Y-31700164D01*
X120635246Y-31613767D01*
X121003466Y-31367730D01*
X121249503Y-30999510D01*
X121335900Y-30565164D01*
X121335900Y-29959916D01*
X126065900Y-29959916D01*
X126065900Y-30565164D01*
X126152297Y-30999510D01*
X126398334Y-31367730D01*
X126766554Y-31613767D01*
X127200900Y-31700164D01*
X127635246Y-31613767D01*
X128003466Y-31367730D01*
X128249503Y-30999510D01*
X128335900Y-30565164D01*
X128335900Y-29959916D01*
X128249503Y-29525570D01*
X128003466Y-29157350D01*
X127635246Y-28911313D01*
X127200900Y-28824916D01*
X126766554Y-28911313D01*
X126398334Y-29157350D01*
X126152297Y-29525570D01*
X126065900Y-29959916D01*
X121335900Y-29959916D01*
X121249503Y-29525570D01*
X121003466Y-29157350D01*
X120635246Y-28911313D01*
X120200900Y-28824916D01*
X119766554Y-28911313D01*
X119398334Y-29157350D01*
X119152297Y-29525570D01*
X119065900Y-29959916D01*
X118927000Y-29959916D01*
X118927000Y-28210000D01*
X143063417Y-28210000D01*
X142767458Y-28505443D01*
G36*
X145413783Y-45593000D02*
X146773000Y-45593000D01*
X146773000Y-45573000D01*
X147027000Y-45573000D01*
X147027000Y-45593000D01*
X148386217Y-45593000D01*
X148498991Y-45377000D01*
X148790000Y-45377000D01*
X148790000Y-82623000D01*
X147938886Y-82623000D01*
X147829634Y-82550000D01*
X148144415Y-82339670D01*
X148469271Y-81853489D01*
X148583345Y-81280000D01*
X148469271Y-80706511D01*
X148144415Y-80220330D01*
X147829634Y-80010000D01*
X148144415Y-79799670D01*
X148469271Y-79313489D01*
X148583345Y-78740000D01*
X148469271Y-78166511D01*
X148144415Y-77680330D01*
X147829634Y-77470000D01*
X148144415Y-77259670D01*
X148469271Y-76773489D01*
X148583345Y-76200000D01*
X148469271Y-75626511D01*
X148144415Y-75140330D01*
X147829634Y-74930000D01*
X148144415Y-74719670D01*
X148469271Y-74233489D01*
X148583345Y-73660000D01*
X148469271Y-73086511D01*
X148144415Y-72600330D01*
X147829634Y-72390000D01*
X148144415Y-72179670D01*
X148469271Y-71693489D01*
X148583345Y-71120000D01*
X148469271Y-70546511D01*
X148144415Y-70060330D01*
X147829634Y-69850000D01*
X148144415Y-69639670D01*
X148469271Y-69153489D01*
X148583345Y-68580000D01*
X148469271Y-68006511D01*
X148144415Y-67520330D01*
X147829634Y-67310000D01*
X148144415Y-67099670D01*
X148469271Y-66613489D01*
X148583345Y-66040000D01*
X148469271Y-65466511D01*
X148144415Y-64980330D01*
X147829634Y-64770000D01*
X148144415Y-64559670D01*
X148469271Y-64073489D01*
X148583345Y-63500000D01*
X148469271Y-62926511D01*
X148144415Y-62440330D01*
X147829634Y-62230000D01*
X148144415Y-62019670D01*
X148469271Y-61533489D01*
X148583345Y-60960000D01*
X148469271Y-60386511D01*
X148144415Y-59900330D01*
X147829634Y-59690000D01*
X148144415Y-59479670D01*
X148469271Y-58993489D01*
X148583345Y-58420000D01*
X148469271Y-57846511D01*
X148144415Y-57360330D01*
X147829634Y-57150000D01*
X148144415Y-56939670D01*
X148469271Y-56453489D01*
X148583345Y-55880000D01*
X148469271Y-55306511D01*
X148144415Y-54820330D01*
X147829634Y-54610000D01*
X148144415Y-54399670D01*
X148469271Y-53913489D01*
X148583345Y-53340000D01*
X148469271Y-52766511D01*
X148144415Y-52280330D01*
X147829634Y-52070000D01*
X148144415Y-51859670D01*
X148469271Y-51373489D01*
X148583345Y-50800000D01*
X148469271Y-50226511D01*
X148144415Y-49740330D01*
X147829634Y-49530000D01*
X148144415Y-49319670D01*
X148469271Y-48833489D01*
X148583345Y-48260000D01*
X148469271Y-47686511D01*
X148144415Y-47200330D01*
X147834931Y-46993539D01*
X148250732Y-46622036D01*
X148504709Y-46094791D01*
X148507358Y-46079026D01*
X148386217Y-45847000D01*
X147027000Y-45847000D01*
X147027000Y-45867000D01*
X146773000Y-45867000D01*
X146773000Y-45847000D01*
X145413783Y-45847000D01*
X145292642Y-46079026D01*
X145295291Y-46094791D01*
X145549268Y-46622036D01*
X145965069Y-46993539D01*
X145655585Y-47200330D01*
X145330729Y-47686511D01*
X145216655Y-48260000D01*
X145330729Y-48833489D01*
X145655585Y-49319670D01*
X145970366Y-49530000D01*
X145655585Y-49740330D01*
X145330729Y-50226511D01*
X145216655Y-50800000D01*
X145330729Y-51373489D01*
X145655585Y-51859670D01*
X145970366Y-52070000D01*
X145655585Y-52280330D01*
X145330729Y-52766511D01*
X145216655Y-53340000D01*
X145330729Y-53913489D01*
X145655585Y-54399670D01*
X145970366Y-54610000D01*
X145655585Y-54820330D01*
X145330729Y-55306511D01*
X145216655Y-55880000D01*
X145330729Y-56453489D01*
X145655585Y-56939670D01*
X145970366Y-57150000D01*
X145655585Y-57360330D01*
X145330729Y-57846511D01*
X145216655Y-58420000D01*
X145330729Y-58993489D01*
X145655585Y-59479670D01*
X145970366Y-59690000D01*
X145655585Y-59900330D01*
X145330729Y-60386511D01*
X145216655Y-60960000D01*
X145330729Y-61533489D01*
X145655585Y-62019670D01*
X145970366Y-62230000D01*
X145655585Y-62440330D01*
X145330729Y-62926511D01*
X145216655Y-63500000D01*
X145330729Y-64073489D01*
X145655585Y-64559670D01*
X145970366Y-64770000D01*
X145655585Y-64980330D01*
X145330729Y-65466511D01*
X145216655Y-66040000D01*
X145330729Y-66613489D01*
X145655585Y-67099670D01*
X145970366Y-67310000D01*
X145655585Y-67520330D01*
X145330729Y-68006511D01*
X145216655Y-68580000D01*
X145330729Y-69153489D01*
X145655585Y-69639670D01*
X145970366Y-69850000D01*
X145655585Y-70060330D01*
X145330729Y-70546511D01*
X145216655Y-71120000D01*
X145330729Y-71693489D01*
X145655585Y-72179670D01*
X145970366Y-72390000D01*
X145655585Y-72600330D01*
X145330729Y-73086511D01*
X145216655Y-73660000D01*
X145330729Y-74233489D01*
X145655585Y-74719670D01*
X145970366Y-74930000D01*
X145655585Y-75140330D01*
X145330729Y-75626511D01*
X145216655Y-76200000D01*
X145330729Y-76773489D01*
X145655585Y-77259670D01*
X145970366Y-77470000D01*
X145655585Y-77680330D01*
X145330729Y-78166511D01*
X145216655Y-78740000D01*
X145330729Y-79313489D01*
X145655585Y-79799670D01*
X145970366Y-80010000D01*
X145655585Y-80220330D01*
X145330729Y-80706511D01*
X145216655Y-81280000D01*
X145330729Y-81853489D01*
X145655585Y-82339670D01*
X145970366Y-82550000D01*
X145861114Y-82623000D01*
X131576088Y-82623000D01*
X131436799Y-82565162D01*
X131064833Y-82564838D01*
X130924070Y-82623000D01*
X130490881Y-82623000D01*
X130411799Y-82590162D01*
X130039833Y-82589838D01*
X129959575Y-82623000D01*
X127234850Y-82623000D01*
X127235162Y-82264833D01*
X127093117Y-81921057D01*
X126830327Y-81657808D01*
X126486799Y-81515162D01*
X126114833Y-81514838D01*
X125771057Y-81656883D01*
X125574889Y-81852709D01*
X125380327Y-81657808D01*
X125036799Y-81515162D01*
X124664833Y-81514838D01*
X124321057Y-81656883D01*
X124057808Y-81919673D01*
X123915162Y-82263201D01*
X123914849Y-82623000D01*
X121057520Y-82623000D01*
X121134838Y-82436799D01*
X121135162Y-82064833D01*
X120993117Y-81721057D01*
X120730327Y-81457808D01*
X120386799Y-81315162D01*
X120014833Y-81314838D01*
X119671057Y-81456883D01*
X119407808Y-81719673D01*
X119265162Y-82063201D01*
X119264838Y-82435167D01*
X119342449Y-82623000D01*
X117919213Y-82623000D01*
X118048431Y-82311809D01*
X118048755Y-81939843D01*
X117906710Y-81596067D01*
X117643920Y-81332818D01*
X117300392Y-81190172D01*
X116928426Y-81189848D01*
X116584650Y-81331893D01*
X116408073Y-81508162D01*
X116233034Y-81332818D01*
X115889506Y-81190172D01*
X115534879Y-81189863D01*
X115535162Y-80864833D01*
X115393117Y-80521057D01*
X115130327Y-80257808D01*
X114786799Y-80115162D01*
X114660820Y-80115052D01*
X114734838Y-79936799D01*
X114735162Y-79564833D01*
X114593117Y-79221057D01*
X114330327Y-78957808D01*
X113986799Y-78815162D01*
X113957147Y-78815136D01*
X114092192Y-78680327D01*
X114234838Y-78336799D01*
X114234882Y-78285167D01*
X116364838Y-78285167D01*
X116506883Y-78628943D01*
X116769673Y-78892192D01*
X116922290Y-78955565D01*
X116707808Y-79169673D01*
X116565162Y-79513201D01*
X116564838Y-79885167D01*
X116706883Y-80228943D01*
X116969673Y-80492192D01*
X117313201Y-80634838D01*
X117685167Y-80635162D01*
X118028943Y-80493117D01*
X118187168Y-80335167D01*
X121214838Y-80335167D01*
X121356883Y-80678943D01*
X121619673Y-80942192D01*
X121963201Y-81084838D01*
X122335167Y-81085162D01*
X122678943Y-80943117D01*
X122942192Y-80680327D01*
X123084838Y-80336799D01*
X123084970Y-80185167D01*
X132814838Y-80185167D01*
X132956883Y-80528943D01*
X133219673Y-80792192D01*
X133563201Y-80934838D01*
X133935167Y-80935162D01*
X134278943Y-80793117D01*
X134542192Y-80530327D01*
X134684838Y-80186799D01*
X134685162Y-79814833D01*
X134543117Y-79471057D01*
X134280327Y-79207808D01*
X133936799Y-79065162D01*
X133564833Y-79064838D01*
X133221057Y-79206883D01*
X132957808Y-79469673D01*
X132815162Y-79813201D01*
X132814838Y-80185167D01*
X123084970Y-80185167D01*
X123085162Y-79964833D01*
X122943117Y-79621057D01*
X122680327Y-79357808D01*
X122336799Y-79215162D01*
X121964833Y-79214838D01*
X121621057Y-79356883D01*
X121357808Y-79619673D01*
X121215162Y-79963201D01*
X121214838Y-80335167D01*
X118187168Y-80335167D01*
X118292192Y-80230327D01*
X118434838Y-79886799D01*
X118435162Y-79514833D01*
X118293117Y-79171057D01*
X118030327Y-78907808D01*
X117877710Y-78844435D01*
X118092192Y-78630327D01*
X118234838Y-78286799D01*
X118234948Y-78160157D01*
X118293598Y-78160157D01*
X118435643Y-78503933D01*
X118698433Y-78767182D01*
X119041961Y-78909828D01*
X119413927Y-78910152D01*
X119757703Y-78768107D01*
X119940962Y-78585167D01*
X124564838Y-78585167D01*
X124706883Y-78928943D01*
X124969673Y-79192192D01*
X125313201Y-79334838D01*
X125685167Y-79335162D01*
X126028943Y-79193117D01*
X126292192Y-78930327D01*
X126434838Y-78586799D01*
X126435162Y-78214833D01*
X126293117Y-77871057D01*
X126207261Y-77785051D01*
X126335167Y-77785162D01*
X126678943Y-77643117D01*
X126942192Y-77380327D01*
X127084838Y-77036799D01*
X127085162Y-76664833D01*
X126943117Y-76321057D01*
X126680327Y-76057808D01*
X126336799Y-75915162D01*
X125964833Y-75914838D01*
X125621057Y-76056883D01*
X125357808Y-76319673D01*
X125215162Y-76663201D01*
X125214838Y-77035167D01*
X125356883Y-77378943D01*
X125442739Y-77464949D01*
X125314833Y-77464838D01*
X124971057Y-77606883D01*
X124707808Y-77869673D01*
X124565162Y-78213201D01*
X124564838Y-78585167D01*
X119940962Y-78585167D01*
X120020952Y-78505317D01*
X120163598Y-78161789D01*
X120163922Y-77789823D01*
X120021877Y-77446047D01*
X119759087Y-77182798D01*
X119415559Y-77040152D01*
X119043593Y-77039828D01*
X118699817Y-77181873D01*
X118436568Y-77444663D01*
X118293922Y-77788191D01*
X118293598Y-78160157D01*
X118234948Y-78160157D01*
X118235162Y-77914833D01*
X118093117Y-77571057D01*
X117830327Y-77307808D01*
X117486799Y-77165162D01*
X117114833Y-77164838D01*
X116771057Y-77306883D01*
X116507808Y-77569673D01*
X116365162Y-77913201D01*
X116364838Y-78285167D01*
X114234882Y-78285167D01*
X114235162Y-77964833D01*
X114093117Y-77621057D01*
X113830327Y-77357808D01*
X113486799Y-77215162D01*
X113114833Y-77214838D01*
X112771057Y-77356883D01*
X112507808Y-77619673D01*
X112365162Y-77963201D01*
X112364838Y-78335167D01*
X112506883Y-78678943D01*
X112769673Y-78942192D01*
X113113201Y-79084838D01*
X113142853Y-79084864D01*
X113007808Y-79219673D01*
X112865162Y-79563201D01*
X112864838Y-79935167D01*
X113006883Y-80278943D01*
X113269673Y-80542192D01*
X113613201Y-80684838D01*
X113739180Y-80684948D01*
X113665162Y-80863201D01*
X113664838Y-81235167D01*
X113740492Y-81418264D01*
X113580316Y-81257808D01*
X113236788Y-81115162D01*
X112864822Y-81114838D01*
X112521046Y-81256883D01*
X112257797Y-81519673D01*
X112115151Y-81863201D01*
X112115022Y-82011655D01*
X112108586Y-81996079D01*
X111845796Y-81732830D01*
X111502268Y-81590184D01*
X111130302Y-81589860D01*
X110786526Y-81731905D01*
X110523277Y-81994695D01*
X110380631Y-82338223D01*
X110380383Y-82623000D01*
X109006620Y-82623000D01*
X109078943Y-82593117D01*
X109342192Y-82330327D01*
X109484838Y-81986799D01*
X109485162Y-81614833D01*
X109343117Y-81271057D01*
X109080327Y-81007808D01*
X108736799Y-80865162D01*
X108364833Y-80864838D01*
X108021057Y-81006883D01*
X107757808Y-81269673D01*
X107615162Y-81613201D01*
X107614838Y-81985167D01*
X107756883Y-82328943D01*
X108019673Y-82592192D01*
X108093867Y-82623000D01*
X107635239Y-82623000D01*
X107593117Y-82521057D01*
X107330327Y-82257808D01*
X106986799Y-82115162D01*
X106614833Y-82114838D01*
X106271057Y-82256883D01*
X106007808Y-82519673D01*
X105964903Y-82623000D01*
X103605898Y-82623000D01*
X103543117Y-82471057D01*
X103280327Y-82207808D01*
X102974069Y-82080638D01*
X103010000Y-81900000D01*
X103010000Y-80251040D01*
X105016000Y-80251040D01*
X105251317Y-80206762D01*
X105467441Y-80067690D01*
X105612431Y-79855490D01*
X105663440Y-79603600D01*
X105663440Y-78760178D01*
X107968122Y-78760178D01*
X108110167Y-79103954D01*
X108372957Y-79367203D01*
X108716485Y-79509849D01*
X109088451Y-79510173D01*
X109432227Y-79368128D01*
X109695476Y-79105338D01*
X109838122Y-78761810D01*
X109838319Y-78535167D01*
X110014838Y-78535167D01*
X110156883Y-78878943D01*
X110419673Y-79142192D01*
X110763201Y-79284838D01*
X111135167Y-79285162D01*
X111478943Y-79143117D01*
X111742192Y-78880327D01*
X111884838Y-78536799D01*
X111885162Y-78164833D01*
X111743117Y-77821057D01*
X111480327Y-77557808D01*
X111136799Y-77415162D01*
X110764833Y-77414838D01*
X110421057Y-77556883D01*
X110157808Y-77819673D01*
X110015162Y-78163201D01*
X110014838Y-78535167D01*
X109838319Y-78535167D01*
X109838446Y-78389844D01*
X109696401Y-78046068D01*
X109433611Y-77782819D01*
X109090083Y-77640173D01*
X108718117Y-77639849D01*
X108374341Y-77781894D01*
X108111092Y-78044684D01*
X107968446Y-78388212D01*
X107968122Y-78760178D01*
X105663440Y-78760178D01*
X105663440Y-77876400D01*
X105619162Y-77641083D01*
X105480090Y-77424959D01*
X105267890Y-77279969D01*
X105173073Y-77260768D01*
X105350732Y-77102036D01*
X105604709Y-76574791D01*
X105607358Y-76559026D01*
X105486217Y-76327000D01*
X104127000Y-76327000D01*
X104127000Y-76347000D01*
X103873000Y-76347000D01*
X103873000Y-76327000D01*
X103853000Y-76327000D01*
X103853000Y-76285167D01*
X110764838Y-76285167D01*
X110906883Y-76628943D01*
X111169673Y-76892192D01*
X111513201Y-77034838D01*
X111885167Y-77035162D01*
X112228943Y-76893117D01*
X112492192Y-76630327D01*
X112634838Y-76286799D01*
X112635162Y-75914833D01*
X112493117Y-75571057D01*
X112230327Y-75307808D01*
X111886799Y-75165162D01*
X111514833Y-75164838D01*
X111171057Y-75306883D01*
X110907808Y-75569673D01*
X110765162Y-75913201D01*
X110764838Y-76285167D01*
X103853000Y-76285167D01*
X103853000Y-76073000D01*
X103873000Y-76073000D01*
X103873000Y-76053000D01*
X104127000Y-76053000D01*
X104127000Y-76073000D01*
X105486217Y-76073000D01*
X105607358Y-75840974D01*
X105604709Y-75825209D01*
X105350732Y-75297964D01*
X105159382Y-75127000D01*
X106000000Y-75127000D01*
X106049410Y-75116994D01*
X106091035Y-75088553D01*
X106118315Y-75046159D01*
X106127000Y-75000000D01*
X106127000Y-73835167D01*
X108714838Y-73835167D01*
X108824359Y-74100228D01*
X108715162Y-74363201D01*
X108714838Y-74735167D01*
X108803648Y-74950104D01*
X108715162Y-75163201D01*
X108714838Y-75535167D01*
X108856883Y-75878943D01*
X109119673Y-76142192D01*
X109463201Y-76284838D01*
X109835167Y-76285162D01*
X110178943Y-76143117D01*
X110442192Y-75880327D01*
X110584838Y-75536799D01*
X110585162Y-75164833D01*
X110496352Y-74949896D01*
X110584838Y-74736799D01*
X110585162Y-74364833D01*
X110475641Y-74099772D01*
X110584838Y-73836799D01*
X110585100Y-73535167D01*
X112614838Y-73535167D01*
X112672582Y-73674919D01*
X112615162Y-73813201D01*
X112614838Y-74185167D01*
X112756883Y-74528943D01*
X113019673Y-74792192D01*
X113363201Y-74934838D01*
X113735167Y-74935162D01*
X114078943Y-74793117D01*
X114342192Y-74530327D01*
X114484838Y-74186799D01*
X114485162Y-73814833D01*
X114427418Y-73675081D01*
X114484838Y-73536799D01*
X114484970Y-73385167D01*
X123964838Y-73385167D01*
X124106883Y-73728943D01*
X124369673Y-73992192D01*
X124713201Y-74134838D01*
X125085167Y-74135162D01*
X125428943Y-73993117D01*
X125692192Y-73730327D01*
X125834838Y-73386799D01*
X125835162Y-73014833D01*
X125693117Y-72671057D01*
X125430327Y-72407808D01*
X125086799Y-72265162D01*
X124714833Y-72264838D01*
X124371057Y-72406883D01*
X124107808Y-72669673D01*
X123965162Y-73013201D01*
X123964838Y-73385167D01*
X114484970Y-73385167D01*
X114485162Y-73164833D01*
X114343117Y-72821057D01*
X114080327Y-72557808D01*
X113736799Y-72415162D01*
X113364833Y-72414838D01*
X113021057Y-72556883D01*
X112757808Y-72819673D01*
X112615162Y-73163201D01*
X112614838Y-73535167D01*
X110585100Y-73535167D01*
X110585162Y-73464833D01*
X110443117Y-73121057D01*
X110180327Y-72857808D01*
X109836799Y-72715162D01*
X109464833Y-72714838D01*
X109121057Y-72856883D01*
X108857808Y-73119673D01*
X108715162Y-73463201D01*
X108714838Y-73835167D01*
X106127000Y-73835167D01*
X106127000Y-66486938D01*
X106224060Y-66527241D01*
X106596026Y-66527565D01*
X106939802Y-66385520D01*
X107203051Y-66122730D01*
X107305088Y-65877000D01*
X108935421Y-65877000D01*
X108956883Y-65928943D01*
X109123000Y-66095350D01*
X109123000Y-66135421D01*
X109071057Y-66156883D01*
X108807808Y-66419673D01*
X108665162Y-66763201D01*
X108664838Y-67135167D01*
X108806883Y-67478943D01*
X109069673Y-67742192D01*
X109123000Y-67764335D01*
X109123000Y-68849845D01*
X109051460Y-68921260D01*
X109012586Y-69014880D01*
X108964833Y-69014838D01*
X108621057Y-69156883D01*
X108357808Y-69419673D01*
X108215162Y-69763201D01*
X108214838Y-70135167D01*
X108324359Y-70400228D01*
X108215162Y-70663201D01*
X108214838Y-71035167D01*
X108356883Y-71378943D01*
X108619673Y-71642192D01*
X108963201Y-71784838D01*
X109335167Y-71785162D01*
X109678943Y-71643117D01*
X109942192Y-71380327D01*
X110084838Y-71036799D01*
X110084977Y-70877000D01*
X110124624Y-70877000D01*
X110124534Y-70980501D01*
X110266579Y-71324277D01*
X110529369Y-71587526D01*
X110872897Y-71730172D01*
X111138792Y-71730404D01*
X111175506Y-71767182D01*
X111519034Y-71909828D01*
X111891000Y-71910152D01*
X112234776Y-71768107D01*
X112498025Y-71505317D01*
X112640671Y-71161789D01*
X112640919Y-70877000D01*
X120043380Y-70877000D01*
X119971057Y-70906883D01*
X119707808Y-71169673D01*
X119565162Y-71513201D01*
X119564838Y-71885167D01*
X119706883Y-72228943D01*
X119969673Y-72492192D01*
X120313201Y-72634838D01*
X120685167Y-72635162D01*
X121028943Y-72493117D01*
X121292192Y-72230327D01*
X121434838Y-71886799D01*
X121435162Y-71514833D01*
X121293117Y-71171057D01*
X121030327Y-70907808D01*
X120956133Y-70877000D01*
X122644325Y-70877000D01*
X122663201Y-70884838D01*
X123035167Y-70885162D01*
X123054921Y-70877000D01*
X128214910Y-70877000D01*
X128214838Y-70960167D01*
X128356883Y-71303943D01*
X128619673Y-71567192D01*
X128963201Y-71709838D01*
X129335167Y-71710162D01*
X129678943Y-71568117D01*
X129942192Y-71305327D01*
X130084838Y-70961799D01*
X130084912Y-70877000D01*
X143000000Y-70877000D01*
X143049410Y-70866994D01*
X143091035Y-70838553D01*
X143118315Y-70796159D01*
X143127000Y-70750000D01*
X143127000Y-61596495D01*
X143277044Y-61534498D01*
X143540293Y-61271708D01*
X143682939Y-60928180D01*
X143683263Y-60556214D01*
X143541218Y-60212438D01*
X143278428Y-59949189D01*
X143127000Y-59886310D01*
X143127000Y-46627000D01*
X145100000Y-46627000D01*
X145149410Y-46616994D01*
X145191035Y-46588553D01*
X145218315Y-46546159D01*
X145227000Y-46500000D01*
X145227000Y-45377000D01*
X145301009Y-45377000D01*
X145413783Y-45593000D01*
X145413783Y-45593000D01*
G37*
X145413783Y-45593000D02*
X146773000Y-45593000D01*
X146773000Y-45573000D01*
X147027000Y-45573000D01*
X147027000Y-45593000D01*
X148386217Y-45593000D01*
X148498991Y-45377000D01*
X148790000Y-45377000D01*
X148790000Y-82623000D01*
X147938886Y-82623000D01*
X147829634Y-82550000D01*
X148144415Y-82339670D01*
X148469271Y-81853489D01*
X148583345Y-81280000D01*
X148469271Y-80706511D01*
X148144415Y-80220330D01*
X147829634Y-80010000D01*
X148144415Y-79799670D01*
X148469271Y-79313489D01*
X148583345Y-78740000D01*
X148469271Y-78166511D01*
X148144415Y-77680330D01*
X147829634Y-77470000D01*
X148144415Y-77259670D01*
X148469271Y-76773489D01*
X148583345Y-76200000D01*
X148469271Y-75626511D01*
X148144415Y-75140330D01*
X147829634Y-74930000D01*
X148144415Y-74719670D01*
X148469271Y-74233489D01*
X148583345Y-73660000D01*
X148469271Y-73086511D01*
X148144415Y-72600330D01*
X147829634Y-72390000D01*
X148144415Y-72179670D01*
X148469271Y-71693489D01*
X148583345Y-71120000D01*
X148469271Y-70546511D01*
X148144415Y-70060330D01*
X147829634Y-69850000D01*
X148144415Y-69639670D01*
X148469271Y-69153489D01*
X148583345Y-68580000D01*
X148469271Y-68006511D01*
X148144415Y-67520330D01*
X147829634Y-67310000D01*
X148144415Y-67099670D01*
X148469271Y-66613489D01*
X148583345Y-66040000D01*
X148469271Y-65466511D01*
X148144415Y-64980330D01*
X147829634Y-64770000D01*
X148144415Y-64559670D01*
X148469271Y-64073489D01*
X148583345Y-63500000D01*
X148469271Y-62926511D01*
X148144415Y-62440330D01*
X147829634Y-62230000D01*
X148144415Y-62019670D01*
X148469271Y-61533489D01*
X148583345Y-60960000D01*
X148469271Y-60386511D01*
X148144415Y-59900330D01*
X147829634Y-59690000D01*
X148144415Y-59479670D01*
X148469271Y-58993489D01*
X148583345Y-58420000D01*
X148469271Y-57846511D01*
X148144415Y-57360330D01*
X147829634Y-57150000D01*
X148144415Y-56939670D01*
X148469271Y-56453489D01*
X148583345Y-55880000D01*
X148469271Y-55306511D01*
X148144415Y-54820330D01*
X147829634Y-54610000D01*
X148144415Y-54399670D01*
X148469271Y-53913489D01*
X148583345Y-53340000D01*
X148469271Y-52766511D01*
X148144415Y-52280330D01*
X147829634Y-52070000D01*
X148144415Y-51859670D01*
X148469271Y-51373489D01*
X148583345Y-50800000D01*
X148469271Y-50226511D01*
X148144415Y-49740330D01*
X147829634Y-49530000D01*
X148144415Y-49319670D01*
X148469271Y-48833489D01*
X148583345Y-48260000D01*
X148469271Y-47686511D01*
X148144415Y-47200330D01*
X147834931Y-46993539D01*
X148250732Y-46622036D01*
X148504709Y-46094791D01*
X148507358Y-46079026D01*
X148386217Y-45847000D01*
X147027000Y-45847000D01*
X147027000Y-45867000D01*
X146773000Y-45867000D01*
X146773000Y-45847000D01*
X145413783Y-45847000D01*
X145292642Y-46079026D01*
X145295291Y-46094791D01*
X145549268Y-46622036D01*
X145965069Y-46993539D01*
X145655585Y-47200330D01*
X145330729Y-47686511D01*
X145216655Y-48260000D01*
X145330729Y-48833489D01*
X145655585Y-49319670D01*
X145970366Y-49530000D01*
X145655585Y-49740330D01*
X145330729Y-50226511D01*
X145216655Y-50800000D01*
X145330729Y-51373489D01*
X145655585Y-51859670D01*
X145970366Y-52070000D01*
X145655585Y-52280330D01*
X145330729Y-52766511D01*
X145216655Y-53340000D01*
X145330729Y-53913489D01*
X145655585Y-54399670D01*
X145970366Y-54610000D01*
X145655585Y-54820330D01*
X145330729Y-55306511D01*
X145216655Y-55880000D01*
X145330729Y-56453489D01*
X145655585Y-56939670D01*
X145970366Y-57150000D01*
X145655585Y-57360330D01*
X145330729Y-57846511D01*
X145216655Y-58420000D01*
X145330729Y-58993489D01*
X145655585Y-59479670D01*
X145970366Y-59690000D01*
X145655585Y-59900330D01*
X145330729Y-60386511D01*
X145216655Y-60960000D01*
X145330729Y-61533489D01*
X145655585Y-62019670D01*
X145970366Y-62230000D01*
X145655585Y-62440330D01*
X145330729Y-62926511D01*
X145216655Y-63500000D01*
X145330729Y-64073489D01*
X145655585Y-64559670D01*
X145970366Y-64770000D01*
X145655585Y-64980330D01*
X145330729Y-65466511D01*
X145216655Y-66040000D01*
X145330729Y-66613489D01*
X145655585Y-67099670D01*
X145970366Y-67310000D01*
X145655585Y-67520330D01*
X145330729Y-68006511D01*
X145216655Y-68580000D01*
X145330729Y-69153489D01*
X145655585Y-69639670D01*
X145970366Y-69850000D01*
X145655585Y-70060330D01*
X145330729Y-70546511D01*
X145216655Y-71120000D01*
X145330729Y-71693489D01*
X145655585Y-72179670D01*
X145970366Y-72390000D01*
X145655585Y-72600330D01*
X145330729Y-73086511D01*
X145216655Y-73660000D01*
X145330729Y-74233489D01*
X145655585Y-74719670D01*
X145970366Y-74930000D01*
X145655585Y-75140330D01*
X145330729Y-75626511D01*
X145216655Y-76200000D01*
X145330729Y-76773489D01*
X145655585Y-77259670D01*
X145970366Y-77470000D01*
X145655585Y-77680330D01*
X145330729Y-78166511D01*
X145216655Y-78740000D01*
X145330729Y-79313489D01*
X145655585Y-79799670D01*
X145970366Y-80010000D01*
X145655585Y-80220330D01*
X145330729Y-80706511D01*
X145216655Y-81280000D01*
X145330729Y-81853489D01*
X145655585Y-82339670D01*
X145970366Y-82550000D01*
X145861114Y-82623000D01*
X131576088Y-82623000D01*
X131436799Y-82565162D01*
X131064833Y-82564838D01*
X130924070Y-82623000D01*
X130490881Y-82623000D01*
X130411799Y-82590162D01*
X130039833Y-82589838D01*
X129959575Y-82623000D01*
X127234850Y-82623000D01*
X127235162Y-82264833D01*
X127093117Y-81921057D01*
X126830327Y-81657808D01*
X126486799Y-81515162D01*
X126114833Y-81514838D01*
X125771057Y-81656883D01*
X125574889Y-81852709D01*
X125380327Y-81657808D01*
X125036799Y-81515162D01*
X124664833Y-81514838D01*
X124321057Y-81656883D01*
X124057808Y-81919673D01*
X123915162Y-82263201D01*
X123914849Y-82623000D01*
X121057520Y-82623000D01*
X121134838Y-82436799D01*
X121135162Y-82064833D01*
X120993117Y-81721057D01*
X120730327Y-81457808D01*
X120386799Y-81315162D01*
X120014833Y-81314838D01*
X119671057Y-81456883D01*
X119407808Y-81719673D01*
X119265162Y-82063201D01*
X119264838Y-82435167D01*
X119342449Y-82623000D01*
X117919213Y-82623000D01*
X118048431Y-82311809D01*
X118048755Y-81939843D01*
X117906710Y-81596067D01*
X117643920Y-81332818D01*
X117300392Y-81190172D01*
X116928426Y-81189848D01*
X116584650Y-81331893D01*
X116408073Y-81508162D01*
X116233034Y-81332818D01*
X115889506Y-81190172D01*
X115534879Y-81189863D01*
X115535162Y-80864833D01*
X115393117Y-80521057D01*
X115130327Y-80257808D01*
X114786799Y-80115162D01*
X114660820Y-80115052D01*
X114734838Y-79936799D01*
X114735162Y-79564833D01*
X114593117Y-79221057D01*
X114330327Y-78957808D01*
X113986799Y-78815162D01*
X113957147Y-78815136D01*
X114092192Y-78680327D01*
X114234838Y-78336799D01*
X114234882Y-78285167D01*
X116364838Y-78285167D01*
X116506883Y-78628943D01*
X116769673Y-78892192D01*
X116922290Y-78955565D01*
X116707808Y-79169673D01*
X116565162Y-79513201D01*
X116564838Y-79885167D01*
X116706883Y-80228943D01*
X116969673Y-80492192D01*
X117313201Y-80634838D01*
X117685167Y-80635162D01*
X118028943Y-80493117D01*
X118187168Y-80335167D01*
X121214838Y-80335167D01*
X121356883Y-80678943D01*
X121619673Y-80942192D01*
X121963201Y-81084838D01*
X122335167Y-81085162D01*
X122678943Y-80943117D01*
X122942192Y-80680327D01*
X123084838Y-80336799D01*
X123084970Y-80185167D01*
X132814838Y-80185167D01*
X132956883Y-80528943D01*
X133219673Y-80792192D01*
X133563201Y-80934838D01*
X133935167Y-80935162D01*
X134278943Y-80793117D01*
X134542192Y-80530327D01*
X134684838Y-80186799D01*
X134685162Y-79814833D01*
X134543117Y-79471057D01*
X134280327Y-79207808D01*
X133936799Y-79065162D01*
X133564833Y-79064838D01*
X133221057Y-79206883D01*
X132957808Y-79469673D01*
X132815162Y-79813201D01*
X132814838Y-80185167D01*
X123084970Y-80185167D01*
X123085162Y-79964833D01*
X122943117Y-79621057D01*
X122680327Y-79357808D01*
X122336799Y-79215162D01*
X121964833Y-79214838D01*
X121621057Y-79356883D01*
X121357808Y-79619673D01*
X121215162Y-79963201D01*
X121214838Y-80335167D01*
X118187168Y-80335167D01*
X118292192Y-80230327D01*
X118434838Y-79886799D01*
X118435162Y-79514833D01*
X118293117Y-79171057D01*
X118030327Y-78907808D01*
X117877710Y-78844435D01*
X118092192Y-78630327D01*
X118234838Y-78286799D01*
X118234948Y-78160157D01*
X118293598Y-78160157D01*
X118435643Y-78503933D01*
X118698433Y-78767182D01*
X119041961Y-78909828D01*
X119413927Y-78910152D01*
X119757703Y-78768107D01*
X119940962Y-78585167D01*
X124564838Y-78585167D01*
X124706883Y-78928943D01*
X124969673Y-79192192D01*
X125313201Y-79334838D01*
X125685167Y-79335162D01*
X126028943Y-79193117D01*
X126292192Y-78930327D01*
X126434838Y-78586799D01*
X126435162Y-78214833D01*
X126293117Y-77871057D01*
X126207261Y-77785051D01*
X126335167Y-77785162D01*
X126678943Y-77643117D01*
X126942192Y-77380327D01*
X127084838Y-77036799D01*
X127085162Y-76664833D01*
X126943117Y-76321057D01*
X126680327Y-76057808D01*
X126336799Y-75915162D01*
X125964833Y-75914838D01*
X125621057Y-76056883D01*
X125357808Y-76319673D01*
X125215162Y-76663201D01*
X125214838Y-77035167D01*
X125356883Y-77378943D01*
X125442739Y-77464949D01*
X125314833Y-77464838D01*
X124971057Y-77606883D01*
X124707808Y-77869673D01*
X124565162Y-78213201D01*
X124564838Y-78585167D01*
X119940962Y-78585167D01*
X120020952Y-78505317D01*
X120163598Y-78161789D01*
X120163922Y-77789823D01*
X120021877Y-77446047D01*
X119759087Y-77182798D01*
X119415559Y-77040152D01*
X119043593Y-77039828D01*
X118699817Y-77181873D01*
X118436568Y-77444663D01*
X118293922Y-77788191D01*
X118293598Y-78160157D01*
X118234948Y-78160157D01*
X118235162Y-77914833D01*
X118093117Y-77571057D01*
X117830327Y-77307808D01*
X117486799Y-77165162D01*
X117114833Y-77164838D01*
X116771057Y-77306883D01*
X116507808Y-77569673D01*
X116365162Y-77913201D01*
X116364838Y-78285167D01*
X114234882Y-78285167D01*
X114235162Y-77964833D01*
X114093117Y-77621057D01*
X113830327Y-77357808D01*
X113486799Y-77215162D01*
X113114833Y-77214838D01*
X112771057Y-77356883D01*
X112507808Y-77619673D01*
X112365162Y-77963201D01*
X112364838Y-78335167D01*
X112506883Y-78678943D01*
X112769673Y-78942192D01*
X113113201Y-79084838D01*
X113142853Y-79084864D01*
X113007808Y-79219673D01*
X112865162Y-79563201D01*
X112864838Y-79935167D01*
X113006883Y-80278943D01*
X113269673Y-80542192D01*
X113613201Y-80684838D01*
X113739180Y-80684948D01*
X113665162Y-80863201D01*
X113664838Y-81235167D01*
X113740492Y-81418264D01*
X113580316Y-81257808D01*
X113236788Y-81115162D01*
X112864822Y-81114838D01*
X112521046Y-81256883D01*
X112257797Y-81519673D01*
X112115151Y-81863201D01*
X112115022Y-82011655D01*
X112108586Y-81996079D01*
X111845796Y-81732830D01*
X111502268Y-81590184D01*
X111130302Y-81589860D01*
X110786526Y-81731905D01*
X110523277Y-81994695D01*
X110380631Y-82338223D01*
X110380383Y-82623000D01*
X109006620Y-82623000D01*
X109078943Y-82593117D01*
X109342192Y-82330327D01*
X109484838Y-81986799D01*
X109485162Y-81614833D01*
X109343117Y-81271057D01*
X109080327Y-81007808D01*
X108736799Y-80865162D01*
X108364833Y-80864838D01*
X108021057Y-81006883D01*
X107757808Y-81269673D01*
X107615162Y-81613201D01*
X107614838Y-81985167D01*
X107756883Y-82328943D01*
X108019673Y-82592192D01*
X108093867Y-82623000D01*
X107635239Y-82623000D01*
X107593117Y-82521057D01*
X107330327Y-82257808D01*
X106986799Y-82115162D01*
X106614833Y-82114838D01*
X106271057Y-82256883D01*
X106007808Y-82519673D01*
X105964903Y-82623000D01*
X103605898Y-82623000D01*
X103543117Y-82471057D01*
X103280327Y-82207808D01*
X102974069Y-82080638D01*
X103010000Y-81900000D01*
X103010000Y-80251040D01*
X105016000Y-80251040D01*
X105251317Y-80206762D01*
X105467441Y-80067690D01*
X105612431Y-79855490D01*
X105663440Y-79603600D01*
X105663440Y-78760178D01*
X107968122Y-78760178D01*
X108110167Y-79103954D01*
X108372957Y-79367203D01*
X108716485Y-79509849D01*
X109088451Y-79510173D01*
X109432227Y-79368128D01*
X109695476Y-79105338D01*
X109838122Y-78761810D01*
X109838319Y-78535167D01*
X110014838Y-78535167D01*
X110156883Y-78878943D01*
X110419673Y-79142192D01*
X110763201Y-79284838D01*
X111135167Y-79285162D01*
X111478943Y-79143117D01*
X111742192Y-78880327D01*
X111884838Y-78536799D01*
X111885162Y-78164833D01*
X111743117Y-77821057D01*
X111480327Y-77557808D01*
X111136799Y-77415162D01*
X110764833Y-77414838D01*
X110421057Y-77556883D01*
X110157808Y-77819673D01*
X110015162Y-78163201D01*
X110014838Y-78535167D01*
X109838319Y-78535167D01*
X109838446Y-78389844D01*
X109696401Y-78046068D01*
X109433611Y-77782819D01*
X109090083Y-77640173D01*
X108718117Y-77639849D01*
X108374341Y-77781894D01*
X108111092Y-78044684D01*
X107968446Y-78388212D01*
X107968122Y-78760178D01*
X105663440Y-78760178D01*
X105663440Y-77876400D01*
X105619162Y-77641083D01*
X105480090Y-77424959D01*
X105267890Y-77279969D01*
X105173073Y-77260768D01*
X105350732Y-77102036D01*
X105604709Y-76574791D01*
X105607358Y-76559026D01*
X105486217Y-76327000D01*
X104127000Y-76327000D01*
X104127000Y-76347000D01*
X103873000Y-76347000D01*
X103873000Y-76327000D01*
X103853000Y-76327000D01*
X103853000Y-76285167D01*
X110764838Y-76285167D01*
X110906883Y-76628943D01*
X111169673Y-76892192D01*
X111513201Y-77034838D01*
X111885167Y-77035162D01*
X112228943Y-76893117D01*
X112492192Y-76630327D01*
X112634838Y-76286799D01*
X112635162Y-75914833D01*
X112493117Y-75571057D01*
X112230327Y-75307808D01*
X111886799Y-75165162D01*
X111514833Y-75164838D01*
X111171057Y-75306883D01*
X110907808Y-75569673D01*
X110765162Y-75913201D01*
X110764838Y-76285167D01*
X103853000Y-76285167D01*
X103853000Y-76073000D01*
X103873000Y-76073000D01*
X103873000Y-76053000D01*
X104127000Y-76053000D01*
X104127000Y-76073000D01*
X105486217Y-76073000D01*
X105607358Y-75840974D01*
X105604709Y-75825209D01*
X105350732Y-75297964D01*
X105159382Y-75127000D01*
X106000000Y-75127000D01*
X106049410Y-75116994D01*
X106091035Y-75088553D01*
X106118315Y-75046159D01*
X106127000Y-75000000D01*
X106127000Y-73835167D01*
X108714838Y-73835167D01*
X108824359Y-74100228D01*
X108715162Y-74363201D01*
X108714838Y-74735167D01*
X108803648Y-74950104D01*
X108715162Y-75163201D01*
X108714838Y-75535167D01*
X108856883Y-75878943D01*
X109119673Y-76142192D01*
X109463201Y-76284838D01*
X109835167Y-76285162D01*
X110178943Y-76143117D01*
X110442192Y-75880327D01*
X110584838Y-75536799D01*
X110585162Y-75164833D01*
X110496352Y-74949896D01*
X110584838Y-74736799D01*
X110585162Y-74364833D01*
X110475641Y-74099772D01*
X110584838Y-73836799D01*
X110585100Y-73535167D01*
X112614838Y-73535167D01*
X112672582Y-73674919D01*
X112615162Y-73813201D01*
X112614838Y-74185167D01*
X112756883Y-74528943D01*
X113019673Y-74792192D01*
X113363201Y-74934838D01*
X113735167Y-74935162D01*
X114078943Y-74793117D01*
X114342192Y-74530327D01*
X114484838Y-74186799D01*
X114485162Y-73814833D01*
X114427418Y-73675081D01*
X114484838Y-73536799D01*
X114484970Y-73385167D01*
X123964838Y-73385167D01*
X124106883Y-73728943D01*
X124369673Y-73992192D01*
X124713201Y-74134838D01*
X125085167Y-74135162D01*
X125428943Y-73993117D01*
X125692192Y-73730327D01*
X125834838Y-73386799D01*
X125835162Y-73014833D01*
X125693117Y-72671057D01*
X125430327Y-72407808D01*
X125086799Y-72265162D01*
X124714833Y-72264838D01*
X124371057Y-72406883D01*
X124107808Y-72669673D01*
X123965162Y-73013201D01*
X123964838Y-73385167D01*
X114484970Y-73385167D01*
X114485162Y-73164833D01*
X114343117Y-72821057D01*
X114080327Y-72557808D01*
X113736799Y-72415162D01*
X113364833Y-72414838D01*
X113021057Y-72556883D01*
X112757808Y-72819673D01*
X112615162Y-73163201D01*
X112614838Y-73535167D01*
X110585100Y-73535167D01*
X110585162Y-73464833D01*
X110443117Y-73121057D01*
X110180327Y-72857808D01*
X109836799Y-72715162D01*
X109464833Y-72714838D01*
X109121057Y-72856883D01*
X108857808Y-73119673D01*
X108715162Y-73463201D01*
X108714838Y-73835167D01*
X106127000Y-73835167D01*
X106127000Y-66486938D01*
X106224060Y-66527241D01*
X106596026Y-66527565D01*
X106939802Y-66385520D01*
X107203051Y-66122730D01*
X107305088Y-65877000D01*
X108935421Y-65877000D01*
X108956883Y-65928943D01*
X109123000Y-66095350D01*
X109123000Y-66135421D01*
X109071057Y-66156883D01*
X108807808Y-66419673D01*
X108665162Y-66763201D01*
X108664838Y-67135167D01*
X108806883Y-67478943D01*
X109069673Y-67742192D01*
X109123000Y-67764335D01*
X109123000Y-68849845D01*
X109051460Y-68921260D01*
X109012586Y-69014880D01*
X108964833Y-69014838D01*
X108621057Y-69156883D01*
X108357808Y-69419673D01*
X108215162Y-69763201D01*
X108214838Y-70135167D01*
X108324359Y-70400228D01*
X108215162Y-70663201D01*
X108214838Y-71035167D01*
X108356883Y-71378943D01*
X108619673Y-71642192D01*
X108963201Y-71784838D01*
X109335167Y-71785162D01*
X109678943Y-71643117D01*
X109942192Y-71380327D01*
X110084838Y-71036799D01*
X110084977Y-70877000D01*
X110124624Y-70877000D01*
X110124534Y-70980501D01*
X110266579Y-71324277D01*
X110529369Y-71587526D01*
X110872897Y-71730172D01*
X111138792Y-71730404D01*
X111175506Y-71767182D01*
X111519034Y-71909828D01*
X111891000Y-71910152D01*
X112234776Y-71768107D01*
X112498025Y-71505317D01*
X112640671Y-71161789D01*
X112640919Y-70877000D01*
X120043380Y-70877000D01*
X119971057Y-70906883D01*
X119707808Y-71169673D01*
X119565162Y-71513201D01*
X119564838Y-71885167D01*
X119706883Y-72228943D01*
X119969673Y-72492192D01*
X120313201Y-72634838D01*
X120685167Y-72635162D01*
X121028943Y-72493117D01*
X121292192Y-72230327D01*
X121434838Y-71886799D01*
X121435162Y-71514833D01*
X121293117Y-71171057D01*
X121030327Y-70907808D01*
X120956133Y-70877000D01*
X122644325Y-70877000D01*
X122663201Y-70884838D01*
X123035167Y-70885162D01*
X123054921Y-70877000D01*
X128214910Y-70877000D01*
X128214838Y-70960167D01*
X128356883Y-71303943D01*
X128619673Y-71567192D01*
X128963201Y-71709838D01*
X129335167Y-71710162D01*
X129678943Y-71568117D01*
X129942192Y-71305327D01*
X130084838Y-70961799D01*
X130084912Y-70877000D01*
X143000000Y-70877000D01*
X143049410Y-70866994D01*
X143091035Y-70838553D01*
X143118315Y-70796159D01*
X143127000Y-70750000D01*
X143127000Y-61596495D01*
X143277044Y-61534498D01*
X143540293Y-61271708D01*
X143682939Y-60928180D01*
X143683263Y-60556214D01*
X143541218Y-60212438D01*
X143278428Y-59949189D01*
X143127000Y-59886310D01*
X143127000Y-46627000D01*
X145100000Y-46627000D01*
X145149410Y-46616994D01*
X145191035Y-46588553D01*
X145218315Y-46546159D01*
X145227000Y-46500000D01*
X145227000Y-45377000D01*
X145301009Y-45377000D01*
X145413783Y-45593000D01*
G36*
X145295291Y-42805209D02*
X145292642Y-42820974D01*
X145413783Y-43053000D01*
X146773000Y-43053000D01*
X146773000Y-43033000D01*
X147027000Y-43033000D01*
X147027000Y-43053000D01*
X148386217Y-43053000D01*
X148507358Y-42820974D01*
X148504709Y-42805209D01*
X148298438Y-42377000D01*
X148790000Y-42377000D01*
X148790000Y-44373000D01*
X147925073Y-44373000D01*
X148250732Y-44082036D01*
X148504709Y-43554791D01*
X148507358Y-43539026D01*
X148386217Y-43307000D01*
X147027000Y-43307000D01*
X147027000Y-43327000D01*
X146773000Y-43327000D01*
X146773000Y-43307000D01*
X145413783Y-43307000D01*
X145292642Y-43539026D01*
X145295291Y-43554791D01*
X145549268Y-44082036D01*
X145874927Y-44373000D01*
X144300000Y-44373000D01*
X144250590Y-44383006D01*
X144208965Y-44411447D01*
X144181685Y-44453841D01*
X144173000Y-44500000D01*
X144173000Y-45623000D01*
X141750000Y-45623000D01*
X141700590Y-45633006D01*
X141658965Y-45661447D01*
X141631685Y-45703841D01*
X141623000Y-45750000D01*
X141623000Y-58560788D01*
X141442622Y-58635318D01*
X141179373Y-58898108D01*
X141036727Y-59241636D01*
X141036403Y-59613602D01*
X141178448Y-59957378D01*
X141441238Y-60220627D01*
X141623000Y-60296102D01*
X141623000Y-69623000D01*
X128714601Y-69623000D01*
X129028943Y-69493117D01*
X129292192Y-69230327D01*
X129434838Y-68886799D01*
X129435162Y-68514833D01*
X129293117Y-68171057D01*
X129030327Y-67907808D01*
X128686799Y-67765162D01*
X128314833Y-67764838D01*
X127971057Y-67906883D01*
X127707808Y-68169673D01*
X127565162Y-68513201D01*
X127564838Y-68885167D01*
X127706883Y-69228943D01*
X127969673Y-69492192D01*
X128284692Y-69623000D01*
X123726558Y-69623000D01*
X123643117Y-69421057D01*
X123380327Y-69157808D01*
X123036799Y-69015162D01*
X122664833Y-69014838D01*
X122321057Y-69156883D01*
X122057808Y-69419673D01*
X121973379Y-69623000D01*
X116035155Y-69623000D01*
X116035162Y-69614833D01*
X115893117Y-69271057D01*
X115630327Y-69007808D01*
X115286799Y-68865162D01*
X114914833Y-68864838D01*
X114571057Y-69006883D01*
X114307808Y-69269673D01*
X114165162Y-69613201D01*
X114165153Y-69623000D01*
X110877000Y-69623000D01*
X110877000Y-69285240D01*
X110978945Y-69243117D01*
X111242194Y-68980327D01*
X111384840Y-68636799D01*
X111385164Y-68264833D01*
X111243119Y-67921057D01*
X110980329Y-67657808D01*
X110877000Y-67614902D01*
X110877000Y-67426751D01*
X110903933Y-67415623D01*
X111167182Y-67152833D01*
X111177909Y-67127000D01*
X133814889Y-67127000D01*
X133814838Y-67185167D01*
X133956883Y-67528943D01*
X134219673Y-67792192D01*
X134314928Y-67831746D01*
X134314838Y-67935167D01*
X134456883Y-68278943D01*
X134719673Y-68542192D01*
X135063201Y-68684838D01*
X135435167Y-68685162D01*
X135778943Y-68543117D01*
X136042192Y-68280327D01*
X136184838Y-67936799D01*
X136185162Y-67564833D01*
X136043117Y-67221057D01*
X135949224Y-67127000D01*
X139250000Y-67127000D01*
X139299410Y-67116994D01*
X139341035Y-67088553D01*
X139368315Y-67046159D01*
X139377000Y-67000000D01*
X139377000Y-64919806D01*
X139413201Y-64934838D01*
X139785167Y-64935162D01*
X140128943Y-64793117D01*
X140392192Y-64530327D01*
X140534838Y-64186799D01*
X140535162Y-63814833D01*
X140393117Y-63471057D01*
X140130327Y-63207808D01*
X139786799Y-63065162D01*
X139414833Y-63064838D01*
X139377000Y-63080470D01*
X139377000Y-61535155D01*
X139385167Y-61535162D01*
X139728943Y-61393117D01*
X139992192Y-61130327D01*
X140134838Y-60786799D01*
X140135162Y-60414833D01*
X139993117Y-60071057D01*
X139730327Y-59807808D01*
X139386799Y-59665162D01*
X139377000Y-59665153D01*
X139377000Y-44627000D01*
X143750000Y-44627000D01*
X143799410Y-44616994D01*
X143841035Y-44588553D01*
X143868315Y-44546159D01*
X143877000Y-44500000D01*
X143877000Y-42377000D01*
X145501562Y-42377000D01*
X145295291Y-42805209D01*
X145295291Y-42805209D01*
G37*
X145295291Y-42805209D02*
X145292642Y-42820974D01*
X145413783Y-43053000D01*
X146773000Y-43053000D01*
X146773000Y-43033000D01*
X147027000Y-43033000D01*
X147027000Y-43053000D01*
X148386217Y-43053000D01*
X148507358Y-42820974D01*
X148504709Y-42805209D01*
X148298438Y-42377000D01*
X148790000Y-42377000D01*
X148790000Y-44373000D01*
X147925073Y-44373000D01*
X148250732Y-44082036D01*
X148504709Y-43554791D01*
X148507358Y-43539026D01*
X148386217Y-43307000D01*
X147027000Y-43307000D01*
X147027000Y-43327000D01*
X146773000Y-43327000D01*
X146773000Y-43307000D01*
X145413783Y-43307000D01*
X145292642Y-43539026D01*
X145295291Y-43554791D01*
X145549268Y-44082036D01*
X145874927Y-44373000D01*
X144300000Y-44373000D01*
X144250590Y-44383006D01*
X144208965Y-44411447D01*
X144181685Y-44453841D01*
X144173000Y-44500000D01*
X144173000Y-45623000D01*
X141750000Y-45623000D01*
X141700590Y-45633006D01*
X141658965Y-45661447D01*
X141631685Y-45703841D01*
X141623000Y-45750000D01*
X141623000Y-58560788D01*
X141442622Y-58635318D01*
X141179373Y-58898108D01*
X141036727Y-59241636D01*
X141036403Y-59613602D01*
X141178448Y-59957378D01*
X141441238Y-60220627D01*
X141623000Y-60296102D01*
X141623000Y-69623000D01*
X128714601Y-69623000D01*
X129028943Y-69493117D01*
X129292192Y-69230327D01*
X129434838Y-68886799D01*
X129435162Y-68514833D01*
X129293117Y-68171057D01*
X129030327Y-67907808D01*
X128686799Y-67765162D01*
X128314833Y-67764838D01*
X127971057Y-67906883D01*
X127707808Y-68169673D01*
X127565162Y-68513201D01*
X127564838Y-68885167D01*
X127706883Y-69228943D01*
X127969673Y-69492192D01*
X128284692Y-69623000D01*
X123726558Y-69623000D01*
X123643117Y-69421057D01*
X123380327Y-69157808D01*
X123036799Y-69015162D01*
X122664833Y-69014838D01*
X122321057Y-69156883D01*
X122057808Y-69419673D01*
X121973379Y-69623000D01*
X116035155Y-69623000D01*
X116035162Y-69614833D01*
X115893117Y-69271057D01*
X115630327Y-69007808D01*
X115286799Y-68865162D01*
X114914833Y-68864838D01*
X114571057Y-69006883D01*
X114307808Y-69269673D01*
X114165162Y-69613201D01*
X114165153Y-69623000D01*
X110877000Y-69623000D01*
X110877000Y-69285240D01*
X110978945Y-69243117D01*
X111242194Y-68980327D01*
X111384840Y-68636799D01*
X111385164Y-68264833D01*
X111243119Y-67921057D01*
X110980329Y-67657808D01*
X110877000Y-67614902D01*
X110877000Y-67426751D01*
X110903933Y-67415623D01*
X111167182Y-67152833D01*
X111177909Y-67127000D01*
X133814889Y-67127000D01*
X133814838Y-67185167D01*
X133956883Y-67528943D01*
X134219673Y-67792192D01*
X134314928Y-67831746D01*
X134314838Y-67935167D01*
X134456883Y-68278943D01*
X134719673Y-68542192D01*
X135063201Y-68684838D01*
X135435167Y-68685162D01*
X135778943Y-68543117D01*
X136042192Y-68280327D01*
X136184838Y-67936799D01*
X136185162Y-67564833D01*
X136043117Y-67221057D01*
X135949224Y-67127000D01*
X139250000Y-67127000D01*
X139299410Y-67116994D01*
X139341035Y-67088553D01*
X139368315Y-67046159D01*
X139377000Y-67000000D01*
X139377000Y-64919806D01*
X139413201Y-64934838D01*
X139785167Y-64935162D01*
X140128943Y-64793117D01*
X140392192Y-64530327D01*
X140534838Y-64186799D01*
X140535162Y-63814833D01*
X140393117Y-63471057D01*
X140130327Y-63207808D01*
X139786799Y-63065162D01*
X139414833Y-63064838D01*
X139377000Y-63080470D01*
X139377000Y-61535155D01*
X139385167Y-61535162D01*
X139728943Y-61393117D01*
X139992192Y-61130327D01*
X140134838Y-60786799D01*
X140135162Y-60414833D01*
X139993117Y-60071057D01*
X139730327Y-59807808D01*
X139386799Y-59665162D01*
X139377000Y-59665153D01*
X139377000Y-44627000D01*
X143750000Y-44627000D01*
X143799410Y-44616994D01*
X143841035Y-44588553D01*
X143868315Y-44546159D01*
X143877000Y-44500000D01*
X143877000Y-42377000D01*
X145501562Y-42377000D01*
X145295291Y-42805209D01*
G36*
X115623000Y-44500000D02*
X115633006Y-44549410D01*
X115661447Y-44591035D01*
X115703841Y-44618315D01*
X115750000Y-44627000D01*
X117873000Y-44627000D01*
X117873000Y-46431788D01*
X117767890Y-46359969D01*
X117516000Y-46308960D01*
X115484000Y-46308960D01*
X115248683Y-46353238D01*
X115032559Y-46492310D01*
X114887569Y-46704510D01*
X114836560Y-46956400D01*
X114836560Y-48683600D01*
X114880838Y-48918917D01*
X115019910Y-49135041D01*
X115232110Y-49280031D01*
X115326927Y-49299232D01*
X115149268Y-49457964D01*
X114895291Y-49985209D01*
X114892642Y-50000974D01*
X115013783Y-50233000D01*
X116373000Y-50233000D01*
X116373000Y-50213000D01*
X116627000Y-50213000D01*
X116627000Y-50233000D01*
X116647000Y-50233000D01*
X116647000Y-50487000D01*
X116627000Y-50487000D01*
X116627000Y-50507000D01*
X116373000Y-50507000D01*
X116373000Y-50487000D01*
X115013783Y-50487000D01*
X114892642Y-50719026D01*
X114895291Y-50734791D01*
X115149268Y-51262036D01*
X115565069Y-51633539D01*
X115255585Y-51840330D01*
X114930729Y-52326511D01*
X114816655Y-52900000D01*
X114930729Y-53473489D01*
X115255585Y-53959670D01*
X115741766Y-54284526D01*
X116315255Y-54398600D01*
X116684745Y-54398600D01*
X117258234Y-54284526D01*
X117744415Y-53959670D01*
X117873000Y-53767229D01*
X117873000Y-54873000D01*
X113750000Y-54873000D01*
X113700590Y-54883006D01*
X113658965Y-54911447D01*
X113631685Y-54953841D01*
X113623000Y-55000000D01*
X113623000Y-64373000D01*
X111185024Y-64373000D01*
X111185162Y-64214833D01*
X111043117Y-63871057D01*
X110780327Y-63607808D01*
X110592398Y-63529773D01*
X110792192Y-63330327D01*
X110934838Y-62986799D01*
X110935162Y-62614833D01*
X110867063Y-62450019D01*
X110934838Y-62286799D01*
X110935162Y-61914833D01*
X110877418Y-61775081D01*
X110934838Y-61636799D01*
X110935162Y-61264833D01*
X110793117Y-60921057D01*
X110530327Y-60657808D01*
X110186799Y-60515162D01*
X109814833Y-60514838D01*
X109471057Y-60656883D01*
X109207808Y-60919673D01*
X109065162Y-61263201D01*
X109064838Y-61635167D01*
X109122582Y-61774919D01*
X109065162Y-61913201D01*
X109064838Y-62285167D01*
X109132937Y-62449981D01*
X109065162Y-62613201D01*
X109064838Y-62985167D01*
X109206883Y-63328943D01*
X109469673Y-63592192D01*
X109657602Y-63670227D01*
X109457808Y-63869673D01*
X109315162Y-64213201D01*
X109315023Y-64373000D01*
X106564579Y-64373000D01*
X106543117Y-64321057D01*
X106280327Y-64057808D01*
X106127000Y-63994141D01*
X106127000Y-58210148D01*
X109539199Y-58210148D01*
X109681244Y-58553924D01*
X109944034Y-58817173D01*
X110287562Y-58959819D01*
X110659528Y-58960143D01*
X111003304Y-58818098D01*
X111266553Y-58555308D01*
X111409199Y-58211780D01*
X111409523Y-57839814D01*
X111267478Y-57496038D01*
X111004688Y-57232789D01*
X110661160Y-57090143D01*
X110289194Y-57089819D01*
X109945418Y-57231864D01*
X109682169Y-57494654D01*
X109539523Y-57838182D01*
X109539199Y-58210148D01*
X106127000Y-58210148D01*
X106127000Y-55732525D01*
X109860579Y-55732525D01*
X110002624Y-56076301D01*
X110265414Y-56339550D01*
X110608942Y-56482196D01*
X110980908Y-56482520D01*
X111324684Y-56340475D01*
X111586355Y-56079261D01*
X111606883Y-56128943D01*
X111869673Y-56392192D01*
X112213201Y-56534838D01*
X112585167Y-56535162D01*
X112928943Y-56393117D01*
X113192192Y-56130327D01*
X113334838Y-55786799D01*
X113335162Y-55414833D01*
X113193117Y-55071057D01*
X112930327Y-54807808D01*
X112586799Y-54665162D01*
X112214833Y-54664838D01*
X111871057Y-54806883D01*
X111609386Y-55068097D01*
X111588858Y-55018415D01*
X111326068Y-54755166D01*
X110982540Y-54612520D01*
X110610574Y-54612196D01*
X110266798Y-54754241D01*
X110003549Y-55017031D01*
X109860903Y-55360559D01*
X109860579Y-55732525D01*
X106127000Y-55732525D01*
X106127000Y-53485167D01*
X106914838Y-53485167D01*
X107056883Y-53828943D01*
X107319673Y-54092192D01*
X107663201Y-54234838D01*
X108035167Y-54235162D01*
X108378943Y-54093117D01*
X108642192Y-53830327D01*
X108784838Y-53486799D01*
X108785162Y-53114833D01*
X108688132Y-52880000D01*
X111216655Y-52880000D01*
X111330729Y-53453489D01*
X111655585Y-53939670D01*
X112141766Y-54264526D01*
X112715255Y-54378600D01*
X113084745Y-54378600D01*
X113658234Y-54264526D01*
X114144415Y-53939670D01*
X114469271Y-53453489D01*
X114583345Y-52880000D01*
X114469271Y-52306511D01*
X114144415Y-51820330D01*
X113834931Y-51613539D01*
X114250732Y-51242036D01*
X114504709Y-50714791D01*
X114507358Y-50699026D01*
X114386217Y-50467000D01*
X113027000Y-50467000D01*
X113027000Y-50487000D01*
X112773000Y-50487000D01*
X112773000Y-50467000D01*
X111413783Y-50467000D01*
X111292642Y-50699026D01*
X111295291Y-50714791D01*
X111549268Y-51242036D01*
X111965069Y-51613539D01*
X111655585Y-51820330D01*
X111330729Y-52306511D01*
X111216655Y-52880000D01*
X108688132Y-52880000D01*
X108643117Y-52771057D01*
X108380327Y-52507808D01*
X108036799Y-52365162D01*
X107664833Y-52364838D01*
X107321057Y-52506883D01*
X107057808Y-52769673D01*
X106915162Y-53113201D01*
X106914838Y-53485167D01*
X106127000Y-53485167D01*
X106127000Y-48085167D01*
X106864838Y-48085167D01*
X107006883Y-48428943D01*
X107269673Y-48692192D01*
X107613201Y-48834838D01*
X107985167Y-48835162D01*
X108328943Y-48693117D01*
X108592192Y-48430327D01*
X108734838Y-48086799D01*
X108735162Y-47714833D01*
X108593117Y-47371057D01*
X108330327Y-47107808D01*
X107986799Y-46965162D01*
X107614833Y-46964838D01*
X107271057Y-47106883D01*
X107007808Y-47369673D01*
X106865162Y-47713201D01*
X106864838Y-48085167D01*
X106127000Y-48085167D01*
X106127000Y-46936400D01*
X111236560Y-46936400D01*
X111236560Y-48663600D01*
X111280838Y-48898917D01*
X111419910Y-49115041D01*
X111632110Y-49260031D01*
X111726927Y-49279232D01*
X111549268Y-49437964D01*
X111295291Y-49965209D01*
X111292642Y-49980974D01*
X111413783Y-50213000D01*
X112773000Y-50213000D01*
X112773000Y-50193000D01*
X113027000Y-50193000D01*
X113027000Y-50213000D01*
X114386217Y-50213000D01*
X114507358Y-49980974D01*
X114504709Y-49965209D01*
X114250732Y-49437964D01*
X114075155Y-49281093D01*
X114151317Y-49266762D01*
X114367441Y-49127690D01*
X114512431Y-48915490D01*
X114563440Y-48663600D01*
X114563440Y-46936400D01*
X114519162Y-46701083D01*
X114380090Y-46484959D01*
X114167890Y-46339969D01*
X113916000Y-46288960D01*
X111884000Y-46288960D01*
X111648683Y-46333238D01*
X111432559Y-46472310D01*
X111287569Y-46684510D01*
X111236560Y-46936400D01*
X106127000Y-46936400D01*
X106127000Y-42940000D01*
X106616655Y-42940000D01*
X106730729Y-43513489D01*
X107055585Y-43999670D01*
X107541766Y-44324526D01*
X108115255Y-44438600D01*
X108484745Y-44438600D01*
X109058234Y-44324526D01*
X109544415Y-43999670D01*
X109869271Y-43513489D01*
X109983345Y-42940000D01*
X111916655Y-42940000D01*
X112030729Y-43513489D01*
X112355585Y-43999670D01*
X112841766Y-44324526D01*
X113415255Y-44438600D01*
X113784745Y-44438600D01*
X114358234Y-44324526D01*
X114844415Y-43999670D01*
X115169271Y-43513489D01*
X115283345Y-42940000D01*
X115169271Y-42366511D01*
X114844415Y-41880330D01*
X114534931Y-41673539D01*
X114950732Y-41302036D01*
X115204709Y-40774791D01*
X115207358Y-40759026D01*
X115086217Y-40527000D01*
X113727000Y-40527000D01*
X113727000Y-40547000D01*
X113473000Y-40547000D01*
X113473000Y-40527000D01*
X112113783Y-40527000D01*
X111992642Y-40759026D01*
X111995291Y-40774791D01*
X112249268Y-41302036D01*
X112665069Y-41673539D01*
X112355585Y-41880330D01*
X112030729Y-42366511D01*
X111916655Y-42940000D01*
X109983345Y-42940000D01*
X109869271Y-42366511D01*
X109544415Y-41880330D01*
X109234931Y-41673539D01*
X109650732Y-41302036D01*
X109904709Y-40774791D01*
X109907358Y-40759026D01*
X109786217Y-40527000D01*
X108427000Y-40527000D01*
X108427000Y-40547000D01*
X108173000Y-40547000D01*
X108173000Y-40527000D01*
X106813783Y-40527000D01*
X106692642Y-40759026D01*
X106695291Y-40774791D01*
X106949268Y-41302036D01*
X107365069Y-41673539D01*
X107055585Y-41880330D01*
X106730729Y-42366511D01*
X106616655Y-42940000D01*
X106127000Y-42940000D01*
X106127000Y-36996400D01*
X106636560Y-36996400D01*
X106636560Y-38723600D01*
X106680838Y-38958917D01*
X106819910Y-39175041D01*
X107032110Y-39320031D01*
X107126927Y-39339232D01*
X106949268Y-39497964D01*
X106695291Y-40025209D01*
X106692642Y-40040974D01*
X106813783Y-40273000D01*
X108173000Y-40273000D01*
X108173000Y-40253000D01*
X108427000Y-40253000D01*
X108427000Y-40273000D01*
X109786217Y-40273000D01*
X109907358Y-40040974D01*
X109904709Y-40025209D01*
X109650732Y-39497964D01*
X109475155Y-39341093D01*
X109551317Y-39326762D01*
X109767441Y-39187690D01*
X109912431Y-38975490D01*
X109963440Y-38723600D01*
X109963440Y-36996400D01*
X111936560Y-36996400D01*
X111936560Y-38723600D01*
X111980838Y-38958917D01*
X112119910Y-39175041D01*
X112332110Y-39320031D01*
X112426927Y-39339232D01*
X112249268Y-39497964D01*
X111995291Y-40025209D01*
X111992642Y-40040974D01*
X112113783Y-40273000D01*
X113473000Y-40273000D01*
X113473000Y-40253000D01*
X113727000Y-40253000D01*
X113727000Y-40273000D01*
X115086217Y-40273000D01*
X115207358Y-40040974D01*
X115204709Y-40025209D01*
X114950732Y-39497964D01*
X114775155Y-39341093D01*
X114851317Y-39326762D01*
X115067441Y-39187690D01*
X115212431Y-38975490D01*
X115263440Y-38723600D01*
X115263440Y-36996400D01*
X115219162Y-36761083D01*
X115080090Y-36544959D01*
X114867890Y-36399969D01*
X114616000Y-36348960D01*
X112584000Y-36348960D01*
X112348683Y-36393238D01*
X112132559Y-36532310D01*
X111987569Y-36744510D01*
X111936560Y-36996400D01*
X109963440Y-36996400D01*
X109919162Y-36761083D01*
X109780090Y-36544959D01*
X109567890Y-36399969D01*
X109316000Y-36348960D01*
X107284000Y-36348960D01*
X107048683Y-36393238D01*
X106832559Y-36532310D01*
X106687569Y-36744510D01*
X106636560Y-36996400D01*
X106127000Y-36996400D01*
X106127000Y-36127000D01*
X115623000Y-36127000D01*
X115623000Y-44500000D01*
X115623000Y-44500000D01*
G37*
X115623000Y-44500000D02*
X115633006Y-44549410D01*
X115661447Y-44591035D01*
X115703841Y-44618315D01*
X115750000Y-44627000D01*
X117873000Y-44627000D01*
X117873000Y-46431788D01*
X117767890Y-46359969D01*
X117516000Y-46308960D01*
X115484000Y-46308960D01*
X115248683Y-46353238D01*
X115032559Y-46492310D01*
X114887569Y-46704510D01*
X114836560Y-46956400D01*
X114836560Y-48683600D01*
X114880838Y-48918917D01*
X115019910Y-49135041D01*
X115232110Y-49280031D01*
X115326927Y-49299232D01*
X115149268Y-49457964D01*
X114895291Y-49985209D01*
X114892642Y-50000974D01*
X115013783Y-50233000D01*
X116373000Y-50233000D01*
X116373000Y-50213000D01*
X116627000Y-50213000D01*
X116627000Y-50233000D01*
X116647000Y-50233000D01*
X116647000Y-50487000D01*
X116627000Y-50487000D01*
X116627000Y-50507000D01*
X116373000Y-50507000D01*
X116373000Y-50487000D01*
X115013783Y-50487000D01*
X114892642Y-50719026D01*
X114895291Y-50734791D01*
X115149268Y-51262036D01*
X115565069Y-51633539D01*
X115255585Y-51840330D01*
X114930729Y-52326511D01*
X114816655Y-52900000D01*
X114930729Y-53473489D01*
X115255585Y-53959670D01*
X115741766Y-54284526D01*
X116315255Y-54398600D01*
X116684745Y-54398600D01*
X117258234Y-54284526D01*
X117744415Y-53959670D01*
X117873000Y-53767229D01*
X117873000Y-54873000D01*
X113750000Y-54873000D01*
X113700590Y-54883006D01*
X113658965Y-54911447D01*
X113631685Y-54953841D01*
X113623000Y-55000000D01*
X113623000Y-64373000D01*
X111185024Y-64373000D01*
X111185162Y-64214833D01*
X111043117Y-63871057D01*
X110780327Y-63607808D01*
X110592398Y-63529773D01*
X110792192Y-63330327D01*
X110934838Y-62986799D01*
X110935162Y-62614833D01*
X110867063Y-62450019D01*
X110934838Y-62286799D01*
X110935162Y-61914833D01*
X110877418Y-61775081D01*
X110934838Y-61636799D01*
X110935162Y-61264833D01*
X110793117Y-60921057D01*
X110530327Y-60657808D01*
X110186799Y-60515162D01*
X109814833Y-60514838D01*
X109471057Y-60656883D01*
X109207808Y-60919673D01*
X109065162Y-61263201D01*
X109064838Y-61635167D01*
X109122582Y-61774919D01*
X109065162Y-61913201D01*
X109064838Y-62285167D01*
X109132937Y-62449981D01*
X109065162Y-62613201D01*
X109064838Y-62985167D01*
X109206883Y-63328943D01*
X109469673Y-63592192D01*
X109657602Y-63670227D01*
X109457808Y-63869673D01*
X109315162Y-64213201D01*
X109315023Y-64373000D01*
X106564579Y-64373000D01*
X106543117Y-64321057D01*
X106280327Y-64057808D01*
X106127000Y-63994141D01*
X106127000Y-58210148D01*
X109539199Y-58210148D01*
X109681244Y-58553924D01*
X109944034Y-58817173D01*
X110287562Y-58959819D01*
X110659528Y-58960143D01*
X111003304Y-58818098D01*
X111266553Y-58555308D01*
X111409199Y-58211780D01*
X111409523Y-57839814D01*
X111267478Y-57496038D01*
X111004688Y-57232789D01*
X110661160Y-57090143D01*
X110289194Y-57089819D01*
X109945418Y-57231864D01*
X109682169Y-57494654D01*
X109539523Y-57838182D01*
X109539199Y-58210148D01*
X106127000Y-58210148D01*
X106127000Y-55732525D01*
X109860579Y-55732525D01*
X110002624Y-56076301D01*
X110265414Y-56339550D01*
X110608942Y-56482196D01*
X110980908Y-56482520D01*
X111324684Y-56340475D01*
X111586355Y-56079261D01*
X111606883Y-56128943D01*
X111869673Y-56392192D01*
X112213201Y-56534838D01*
X112585167Y-56535162D01*
X112928943Y-56393117D01*
X113192192Y-56130327D01*
X113334838Y-55786799D01*
X113335162Y-55414833D01*
X113193117Y-55071057D01*
X112930327Y-54807808D01*
X112586799Y-54665162D01*
X112214833Y-54664838D01*
X111871057Y-54806883D01*
X111609386Y-55068097D01*
X111588858Y-55018415D01*
X111326068Y-54755166D01*
X110982540Y-54612520D01*
X110610574Y-54612196D01*
X110266798Y-54754241D01*
X110003549Y-55017031D01*
X109860903Y-55360559D01*
X109860579Y-55732525D01*
X106127000Y-55732525D01*
X106127000Y-53485167D01*
X106914838Y-53485167D01*
X107056883Y-53828943D01*
X107319673Y-54092192D01*
X107663201Y-54234838D01*
X108035167Y-54235162D01*
X108378943Y-54093117D01*
X108642192Y-53830327D01*
X108784838Y-53486799D01*
X108785162Y-53114833D01*
X108688132Y-52880000D01*
X111216655Y-52880000D01*
X111330729Y-53453489D01*
X111655585Y-53939670D01*
X112141766Y-54264526D01*
X112715255Y-54378600D01*
X113084745Y-54378600D01*
X113658234Y-54264526D01*
X114144415Y-53939670D01*
X114469271Y-53453489D01*
X114583345Y-52880000D01*
X114469271Y-52306511D01*
X114144415Y-51820330D01*
X113834931Y-51613539D01*
X114250732Y-51242036D01*
X114504709Y-50714791D01*
X114507358Y-50699026D01*
X114386217Y-50467000D01*
X113027000Y-50467000D01*
X113027000Y-50487000D01*
X112773000Y-50487000D01*
X112773000Y-50467000D01*
X111413783Y-50467000D01*
X111292642Y-50699026D01*
X111295291Y-50714791D01*
X111549268Y-51242036D01*
X111965069Y-51613539D01*
X111655585Y-51820330D01*
X111330729Y-52306511D01*
X111216655Y-52880000D01*
X108688132Y-52880000D01*
X108643117Y-52771057D01*
X108380327Y-52507808D01*
X108036799Y-52365162D01*
X107664833Y-52364838D01*
X107321057Y-52506883D01*
X107057808Y-52769673D01*
X106915162Y-53113201D01*
X106914838Y-53485167D01*
X106127000Y-53485167D01*
X106127000Y-48085167D01*
X106864838Y-48085167D01*
X107006883Y-48428943D01*
X107269673Y-48692192D01*
X107613201Y-48834838D01*
X107985167Y-48835162D01*
X108328943Y-48693117D01*
X108592192Y-48430327D01*
X108734838Y-48086799D01*
X108735162Y-47714833D01*
X108593117Y-47371057D01*
X108330327Y-47107808D01*
X107986799Y-46965162D01*
X107614833Y-46964838D01*
X107271057Y-47106883D01*
X107007808Y-47369673D01*
X106865162Y-47713201D01*
X106864838Y-48085167D01*
X106127000Y-48085167D01*
X106127000Y-46936400D01*
X111236560Y-46936400D01*
X111236560Y-48663600D01*
X111280838Y-48898917D01*
X111419910Y-49115041D01*
X111632110Y-49260031D01*
X111726927Y-49279232D01*
X111549268Y-49437964D01*
X111295291Y-49965209D01*
X111292642Y-49980974D01*
X111413783Y-50213000D01*
X112773000Y-50213000D01*
X112773000Y-50193000D01*
X113027000Y-50193000D01*
X113027000Y-50213000D01*
X114386217Y-50213000D01*
X114507358Y-49980974D01*
X114504709Y-49965209D01*
X114250732Y-49437964D01*
X114075155Y-49281093D01*
X114151317Y-49266762D01*
X114367441Y-49127690D01*
X114512431Y-48915490D01*
X114563440Y-48663600D01*
X114563440Y-46936400D01*
X114519162Y-46701083D01*
X114380090Y-46484959D01*
X114167890Y-46339969D01*
X113916000Y-46288960D01*
X111884000Y-46288960D01*
X111648683Y-46333238D01*
X111432559Y-46472310D01*
X111287569Y-46684510D01*
X111236560Y-46936400D01*
X106127000Y-46936400D01*
X106127000Y-42940000D01*
X106616655Y-42940000D01*
X106730729Y-43513489D01*
X107055585Y-43999670D01*
X107541766Y-44324526D01*
X108115255Y-44438600D01*
X108484745Y-44438600D01*
X109058234Y-44324526D01*
X109544415Y-43999670D01*
X109869271Y-43513489D01*
X109983345Y-42940000D01*
X111916655Y-42940000D01*
X112030729Y-43513489D01*
X112355585Y-43999670D01*
X112841766Y-44324526D01*
X113415255Y-44438600D01*
X113784745Y-44438600D01*
X114358234Y-44324526D01*
X114844415Y-43999670D01*
X115169271Y-43513489D01*
X115283345Y-42940000D01*
X115169271Y-42366511D01*
X114844415Y-41880330D01*
X114534931Y-41673539D01*
X114950732Y-41302036D01*
X115204709Y-40774791D01*
X115207358Y-40759026D01*
X115086217Y-40527000D01*
X113727000Y-40527000D01*
X113727000Y-40547000D01*
X113473000Y-40547000D01*
X113473000Y-40527000D01*
X112113783Y-40527000D01*
X111992642Y-40759026D01*
X111995291Y-40774791D01*
X112249268Y-41302036D01*
X112665069Y-41673539D01*
X112355585Y-41880330D01*
X112030729Y-42366511D01*
X111916655Y-42940000D01*
X109983345Y-42940000D01*
X109869271Y-42366511D01*
X109544415Y-41880330D01*
X109234931Y-41673539D01*
X109650732Y-41302036D01*
X109904709Y-40774791D01*
X109907358Y-40759026D01*
X109786217Y-40527000D01*
X108427000Y-40527000D01*
X108427000Y-40547000D01*
X108173000Y-40547000D01*
X108173000Y-40527000D01*
X106813783Y-40527000D01*
X106692642Y-40759026D01*
X106695291Y-40774791D01*
X106949268Y-41302036D01*
X107365069Y-41673539D01*
X107055585Y-41880330D01*
X106730729Y-42366511D01*
X106616655Y-42940000D01*
X106127000Y-42940000D01*
X106127000Y-36996400D01*
X106636560Y-36996400D01*
X106636560Y-38723600D01*
X106680838Y-38958917D01*
X106819910Y-39175041D01*
X107032110Y-39320031D01*
X107126927Y-39339232D01*
X106949268Y-39497964D01*
X106695291Y-40025209D01*
X106692642Y-40040974D01*
X106813783Y-40273000D01*
X108173000Y-40273000D01*
X108173000Y-40253000D01*
X108427000Y-40253000D01*
X108427000Y-40273000D01*
X109786217Y-40273000D01*
X109907358Y-40040974D01*
X109904709Y-40025209D01*
X109650732Y-39497964D01*
X109475155Y-39341093D01*
X109551317Y-39326762D01*
X109767441Y-39187690D01*
X109912431Y-38975490D01*
X109963440Y-38723600D01*
X109963440Y-36996400D01*
X111936560Y-36996400D01*
X111936560Y-38723600D01*
X111980838Y-38958917D01*
X112119910Y-39175041D01*
X112332110Y-39320031D01*
X112426927Y-39339232D01*
X112249268Y-39497964D01*
X111995291Y-40025209D01*
X111992642Y-40040974D01*
X112113783Y-40273000D01*
X113473000Y-40273000D01*
X113473000Y-40253000D01*
X113727000Y-40253000D01*
X113727000Y-40273000D01*
X115086217Y-40273000D01*
X115207358Y-40040974D01*
X115204709Y-40025209D01*
X114950732Y-39497964D01*
X114775155Y-39341093D01*
X114851317Y-39326762D01*
X115067441Y-39187690D01*
X115212431Y-38975490D01*
X115263440Y-38723600D01*
X115263440Y-36996400D01*
X115219162Y-36761083D01*
X115080090Y-36544959D01*
X114867890Y-36399969D01*
X114616000Y-36348960D01*
X112584000Y-36348960D01*
X112348683Y-36393238D01*
X112132559Y-36532310D01*
X111987569Y-36744510D01*
X111936560Y-36996400D01*
X109963440Y-36996400D01*
X109919162Y-36761083D01*
X109780090Y-36544959D01*
X109567890Y-36399969D01*
X109316000Y-36348960D01*
X107284000Y-36348960D01*
X107048683Y-36393238D01*
X106832559Y-36532310D01*
X106687569Y-36744510D01*
X106636560Y-36996400D01*
X106127000Y-36996400D01*
X106127000Y-36127000D01*
X115623000Y-36127000D01*
X115623000Y-44500000D01*
M02*
