M48
;DRILL file {KiCad 4.0.4-stable} date Fri Dec  2 08:06:52 2016
;FORMAT={-:-/ absolute / inch / decimal}
FMAT,2
INCH,TZ
T1C0.016
T2C0.031
T3C0.032
T4C0.032
T5C0.039
T6C0.040
T7C0.091
%
G90
G05
M72
T1
X7.6335Y-3.887
X7.7122Y-4.1941
X8.0744Y-4.9894
X8.2555Y-4.202
X8.3717Y-3.2315
X8.4445Y-3.1902
X8.4445Y-4.328
X8.5154Y-4.4303
X8.5862Y-3.3437
X8.5941Y-4.0681
X8.6413Y-3.1862
X8.6571Y-3.3831
X8.6965Y-3.5327
X8.8461Y-3.4598
X8.8461Y-4.1705
X8.8933Y-4.202
X8.9091Y-3.0917
X8.9382Y-3.5445
X8.9409Y-3.8949
X8.963Y-4.2732
X9.1138Y-3.9185
X9.1925Y-3.9264
X9.2083Y-2.824
T2
X7.8295Y-3.522
X7.8295Y-3.622
X7.8295Y-3.722
X7.8295Y-3.822
X7.8295Y-3.922
X7.8295Y-4.022
X7.8295Y-4.122
X7.8295Y-4.222
X7.8295Y-4.322
X7.8295Y-4.422
X7.8295Y-4.522
X7.8295Y-4.622
X7.8295Y-4.722
X7.8295Y-4.822
X8.1295Y-3.522
X8.1295Y-3.622
X8.1295Y-3.722
X8.1295Y-3.822
X8.1295Y-3.922
X8.1295Y-4.022
X8.1295Y-4.122
X8.1295Y-4.222
X8.1295Y-4.322
X8.1295Y-4.422
X8.1295Y-4.522
X8.1295Y-4.622
X8.1295Y-4.722
X8.1295Y-4.822
T3
X8.4543Y-3.8739
X8.4543Y-4.0661
T4
X8.6909Y-2.9185
X8.6909Y-2.9972
X8.7909Y-2.9185
X8.7909Y-2.9972
T5
X8.9232Y-3.7374
X9.0232Y-3.7374
T6
X7.3894Y-3.798
X7.3894Y-3.898
X7.3894Y-3.998
X7.3894Y-4.098
X7.3894Y-4.198
X7.3894Y-4.298
X7.3894Y-4.398
X7.3894Y-4.498
X7.3894Y-4.698
X7.3894Y-4.798
X7.3894Y-4.898
X7.3894Y-4.998
X7.3894Y-5.098
X7.3894Y-5.198
X7.9886Y-5.1571
X7.9886Y-5.2571
X8.0886Y-5.1571
X8.0886Y-5.2571
X8.1886Y-5.1571
X8.1886Y-5.2571
X9.2894Y-3.438
X9.2894Y-3.538
X9.2894Y-3.638
X9.2894Y-3.738
X9.2894Y-3.838
X9.2894Y-3.938
X9.2894Y-4.038
X9.2894Y-4.138
X9.2894Y-4.238
X9.2894Y-4.338
X9.2894Y-4.498
X9.2894Y-4.598
X9.2894Y-4.698
X9.2894Y-4.798
X9.2894Y-4.898
X9.2894Y-4.998
X9.2894Y-5.098
X9.2894Y-5.198
T7
X8.5047Y-2.8122
X8.9771Y-2.8122
T0
M30
