M48
;DRILL file {KiCad 4.0.2-stable} date Tue 03 May 2016 10:26:43 AM EDT
;FORMAT={-:-/ absolute / inch / decimal}
FMAT,2
INCH,TZ
T1C0.016
T2C0.020
T3C0.022
T4C0.032
T5C0.040
T6C0.079
%
G90
G05
M72
T1
X4.4488Y-4.1063
X4.4528Y-5.2992
X4.4567Y-5.1614
X4.4567Y-5.2126
X4.4567Y-5.252
X4.4606Y-5.3583
X4.4872Y-4.7854
X4.5197Y-5.252
X4.5571Y-4.7864
X4.563Y-4.126
X4.5728Y-5.4193
X4.5738Y-5.5709
X4.6161Y-5.1073
X4.624Y-4.7864
X4.6969Y-3.3701
X4.7008Y-3.5689
X4.7087Y-3.2283
X4.7598Y-5.189
X4.7598Y-5.252
X4.7598Y-5.3031
X4.8071Y-3.2067
X4.8504Y-3.5079
X4.9168Y-3.4772
X4.9748Y-3.5075
X4.9803Y-3.4134
X4.9872Y-3.126
X5.0177Y-3.0945
X5.0236Y-3.6634
X5.0256Y-3.4547
X5.0256Y-3.5079
X5.1732Y-3.4823
X5.2726Y-5.8957
X5.2756Y-3.3386
X5.3091Y-3.0945
X5.3307Y-5.8957
X5.4173Y-5.5039
X5.4764Y-5.5039
X5.5315Y-5.5039
X5.5571Y-3.3799
X5.5571Y-3.4656
X5.5581Y-3.2825
X5.5866Y-5.5039
X5.6555Y-3.2549
X5.6762Y-3.8563
X5.6772Y-3.9281
X5.6772Y-4.0059
X5.7008Y-5.2441
X5.7008Y-5.2992
X5.7677Y-5.2441
X5.7707Y-5.3041
X5.8012Y-5.1181
X5.8031Y-3.2549
X5.8031Y-3.7008
X5.9242Y-3.5128
X5.9754Y-5.126
X5.9892Y-3.5128
X6.0413Y-5.2844
X6.0984Y-4.2018
X6.1004Y-4.3219
X6.2539Y-4.3602
X6.2825Y-3.4764
X6.3307Y-4.3602
X6.4016Y-4.3602
X6.5157Y-5.1417
X6.5709Y-5.1417
X6.6299Y-5.1417
X6.6368Y-4.0472
X6.6929Y-5.1407
X6.6939Y-5.2382
X6.7441Y-4.3858
X6.7441Y-4.4488
X6.7441Y-4.5039
X6.8307Y-3.748
X6.8474Y-3.2825
X6.878Y-4.3307
X6.8898Y-3.748
X6.9606Y-3.748
X7.0266Y-3.8583
X7.0315Y-3.748
X7.0374Y-5.2677
X7.0394Y-5.1457
X7.0394Y-5.2047
X7.0837Y-3.8583
X7.1476Y-3.8583
X7.253Y-3.8169
X7.2854Y-3.8602
X7.3209Y-3.8169
X7.3524Y-5.5571
T4
X6.139Y-3.1693
X6.239Y-3.1693
T5
X4.5346Y-4.8976
X4.5346Y-4.9976
X4.5378Y-2.8976
X4.5378Y-2.9976
X4.6346Y-4.8976
X4.6346Y-4.9976
X4.6378Y-2.8976
X4.6378Y-2.9976
X4.7346Y-4.8976
X4.7346Y-4.9976
X4.7378Y-2.8976
X4.7378Y-2.9976
X4.8346Y-4.8976
X4.8346Y-4.9976
X4.8378Y-2.8976
X4.8378Y-2.9976
X4.9346Y-4.8976
X4.9346Y-4.9976
X4.9378Y-2.8976
X4.9378Y-2.9976
X5.0346Y-4.8976
X5.0346Y-4.9976
X5.0378Y-2.8976
X5.0378Y-2.9976
X5.1346Y-4.8976
X5.1346Y-4.9976
X5.1378Y-2.8976
X5.1378Y-2.9976
X5.2346Y-4.8976
X5.2346Y-4.9976
X5.2378Y-2.8976
X5.2378Y-2.9976
X5.3346Y-4.8976
X5.3346Y-4.9976
X5.3378Y-2.8976
X5.3378Y-2.9976
X5.3417Y-4.652
X5.3417Y-4.752
X5.4346Y-4.8976
X5.4346Y-4.9976
X5.4378Y-2.8976
X5.4378Y-2.9976
X5.4417Y-4.652
X5.4417Y-4.752
X5.5346Y-4.8976
X5.5346Y-4.9976
X5.5378Y-2.8976
X5.5378Y-2.9976
X5.5417Y-4.652
X5.5417Y-4.752
X5.6346Y-4.8976
X5.6346Y-4.9976
X5.6378Y-2.8976
X5.6378Y-2.9976
X5.6417Y-4.652
X5.6417Y-4.752
X5.7346Y-4.8976
X5.7346Y-4.9976
X5.7378Y-2.8976
X5.7378Y-2.9976
X5.7417Y-4.652
X5.7417Y-4.752
X5.8346Y-4.8976
X5.8346Y-4.9976
X5.8378Y-2.8976
X5.8378Y-2.9976
X5.8417Y-4.652
X5.8417Y-4.752
X5.9346Y-4.8976
X5.9346Y-4.9976
X5.9378Y-2.8976
X5.9378Y-2.9976
X5.9417Y-4.652
X5.9417Y-4.752
X6.0346Y-4.8976
X6.0346Y-4.9976
X6.0378Y-2.8976
X6.0378Y-2.9976
X6.0417Y-4.652
X6.0417Y-4.752
X6.1346Y-4.8976
X6.1346Y-4.9976
X6.1378Y-2.8976
X6.1378Y-2.9976
X6.1417Y-4.652
X6.1417Y-4.752
X6.2346Y-4.8976
X6.2346Y-4.9976
X6.2378Y-2.8976
X6.2378Y-2.9976
X6.2417Y-4.652
X6.2417Y-4.752
X6.3346Y-4.8976
X6.3346Y-4.9976
X6.3378Y-2.8976
X6.3378Y-2.9976
X6.3417Y-4.652
X6.3417Y-4.752
X6.4346Y-4.8976
X6.4346Y-4.9976
X6.4378Y-2.8976
X6.4378Y-2.9976
X6.4417Y-4.652
X6.4417Y-4.752
X6.5346Y-4.8976
X6.5346Y-4.9976
X6.5378Y-2.8976
X6.5378Y-2.9976
X6.5417Y-4.652
X6.5417Y-4.752
X6.6346Y-4.8976
X6.6346Y-4.9976
X6.6378Y-2.8976
X6.6378Y-2.9976
X6.6417Y-4.652
X6.6417Y-4.752
X6.7346Y-4.8976
X6.7346Y-4.9976
X6.7378Y-2.8976
X6.7378Y-2.9976
X6.7417Y-4.652
X6.7417Y-4.752
X6.778Y-5.5276
X6.8346Y-4.8976
X6.8346Y-4.9976
X6.8378Y-2.8976
X6.8378Y-2.9976
X6.8417Y-4.652
X6.8417Y-4.752
X6.878Y-5.5276
X6.9346Y-4.8976
X6.9346Y-4.9976
X6.9378Y-2.8976
X6.9378Y-2.9976
X6.9417Y-4.652
X6.9417Y-4.752
X6.978Y-5.5276
X7.0417Y-4.652
X7.0417Y-4.752
X7.1417Y-4.652
X7.1417Y-4.752
X7.2417Y-4.652
X7.2417Y-4.752
X7.4843Y-2.837
X7.4843Y-2.937
X7.4843Y-3.037
X7.4843Y-3.1913
X7.4843Y-3.2913
X7.4843Y-3.3913
X7.4843Y-3.5394
X7.4843Y-3.6394
X7.4843Y-3.7394
X7.4843Y-3.8961
X7.4843Y-3.9961
X7.4843Y-4.0961
X7.4843Y-4.2465
X7.4843Y-4.3465
X7.4843Y-4.4465
X7.4843Y-4.5969
X7.4843Y-4.6969
X7.4843Y-4.7969
X7.4843Y-4.9472
X7.4843Y-5.0472
X7.4843Y-5.1472
X7.4843Y-5.2976
X7.4843Y-5.3976
X7.4843Y-5.4976
X7.4843Y-5.652
X7.4843Y-5.752
X7.4843Y-5.852
T6
X4.5217Y-3.7992
X4.5217Y-3.9862
X4.5925Y-4.2913
X4.8878Y-4.2913
X4.9518Y-5.7805
X5.0551Y-4.563
X5.0551Y-4.752
X5.1732Y-5.7785
T2
X4.5133Y-3.2834G85X4.5389Y-3.2834
G05
X4.5133Y-3.559G85X4.5389Y-3.559
G05
T3
X4.6324Y-3.3169G85X4.6324Y-3.3287
G05
X4.6324Y-3.5137G85X4.6324Y-3.5256
G05
T0
M30
