G04 #@! TF.FileFunction,Copper,L1,Top,Signal*
%FSLAX46Y46*%
G04 Gerber Fmt 4.6, Leading zero omitted, Abs format (unit mm)*
G04 Created by KiCad (PCBNEW 4.0.2-stable) date Tue 03 May 2016 10:26:39 AM EDT*
%MOMM*%
G01*
G04 APERTURE LIST*
%ADD10C,0.100000*%
%ADD11C,1.727200*%
%ADD12O,1.727200X1.727200*%
%ADD13R,1.727200X1.727200*%
%ADD14R,2.032000X1.727200*%
%ADD15O,2.032000X1.727200*%
%ADD16R,0.800000X0.750000*%
%ADD17R,0.500000X0.900000*%
%ADD18R,0.900000X0.500000*%
%ADD19R,0.400000X0.600000*%
%ADD20C,3.000000*%
%ADD21C,1.397000*%
%ADD22R,7.000000X4.000000*%
%ADD23R,0.450000X1.750000*%
%ADD24R,2.500000X1.000000*%
%ADD25R,1.250000X1.000000*%
%ADD26R,1.900000X4.150000*%
%ADD27R,1.000000X1.250000*%
%ADD28R,2.280000X1.524000*%
%ADD29R,6.230000X6.750000*%
%ADD30R,1.400000X1.270000*%
%ADD31R,4.800000X4.720000*%
%ADD32R,1.350000X0.400000*%
%ADD33O,0.950000X1.250000*%
%ADD34O,1.550000X1.000000*%
%ADD35R,1.727200X2.032000*%
%ADD36O,1.727200X2.032000*%
%ADD37R,6.600000X1.600000*%
%ADD38R,2.410000X0.910000*%
%ADD39R,6.350000X5.590000*%
%ADD40R,5.400000X2.900000*%
%ADD41R,0.250000X1.000000*%
%ADD42R,2.400000X2.000000*%
%ADD43R,0.750000X0.800000*%
%ADD44R,0.600000X0.400000*%
%ADD45C,0.600000*%
%ADD46C,0.350000*%
%ADD47C,0.250000*%
%ADD48C,0.200000*%
%ADD49C,0.254000*%
%ADD50C,0.210000*%
G04 APERTURE END LIST*
D10*
D11*
X115260000Y-73600000D03*
D12*
X115260000Y-76140000D03*
X117800000Y-73600000D03*
X117800000Y-76140000D03*
X120340000Y-73600000D03*
X120340000Y-76140000D03*
X122880000Y-73600000D03*
X122880000Y-76140000D03*
X125420000Y-73600000D03*
X125420000Y-76140000D03*
X127960000Y-73600000D03*
X127960000Y-76140000D03*
X130500000Y-73600000D03*
X130500000Y-76140000D03*
X133040000Y-73600000D03*
X133040000Y-76140000D03*
X135580000Y-73600000D03*
X135580000Y-76140000D03*
X138120000Y-73600000D03*
X138120000Y-76140000D03*
X140660000Y-73600000D03*
X140660000Y-76140000D03*
X143200000Y-73600000D03*
X143200000Y-76140000D03*
X145740000Y-73600000D03*
X145740000Y-76140000D03*
X148280000Y-73600000D03*
X148280000Y-76140000D03*
X150820000Y-73600000D03*
X150820000Y-76140000D03*
X153360000Y-73600000D03*
X153360000Y-76140000D03*
X155900000Y-73600000D03*
X155900000Y-76140000D03*
X158440000Y-73600000D03*
X158440000Y-76140000D03*
X160980000Y-73600000D03*
X160980000Y-76140000D03*
X163520000Y-73600000D03*
X163520000Y-76140000D03*
X166060000Y-73600000D03*
X166060000Y-76140000D03*
X168600000Y-73600000D03*
X168600000Y-76140000D03*
X171140000Y-73600000D03*
X171140000Y-76140000D03*
X173680000Y-73600000D03*
X173680000Y-76140000D03*
D13*
X176220000Y-73600000D03*
D12*
X176220000Y-76140000D03*
D14*
X190100000Y-94980000D03*
D15*
X190100000Y-92440000D03*
X190100000Y-89900000D03*
D14*
X190100000Y-86140000D03*
D15*
X190100000Y-83600000D03*
X190100000Y-81060000D03*
D14*
X190100000Y-77140000D03*
D15*
X190100000Y-74600000D03*
X190100000Y-72060000D03*
D14*
X190100000Y-104040000D03*
D15*
X190100000Y-101500000D03*
X190100000Y-98960000D03*
D14*
X190100000Y-112940000D03*
D15*
X190100000Y-110400000D03*
X190100000Y-107860000D03*
D14*
X190100000Y-121840000D03*
D15*
X190100000Y-119300000D03*
X190100000Y-116760000D03*
D14*
X190100000Y-148640000D03*
D15*
X190100000Y-146100000D03*
X190100000Y-143560000D03*
D16*
X147250000Y-139800000D03*
X145750000Y-139800000D03*
X153350000Y-94000000D03*
X151850000Y-94000000D03*
D14*
X190100000Y-130740000D03*
D15*
X190100000Y-128200000D03*
X190100000Y-125660000D03*
D14*
X190100000Y-139640000D03*
D15*
X190100000Y-137100000D03*
X190100000Y-134560000D03*
D17*
X129850000Y-80050000D03*
X131350000Y-80050000D03*
D18*
X131400000Y-81850000D03*
X131400000Y-83350000D03*
D17*
X134850000Y-80100000D03*
X133350000Y-80100000D03*
D19*
X117025000Y-139125000D03*
X116125000Y-139125000D03*
D20*
X116650000Y-109000000D03*
X124150000Y-109000000D03*
X125775000Y-146825000D03*
X131400000Y-146775000D03*
X114850000Y-101250000D03*
X114850000Y-96500000D03*
D21*
X155930000Y-80500000D03*
X158470000Y-80500000D03*
D22*
X161100000Y-142950000D03*
X161100000Y-132950000D03*
X167100000Y-92300000D03*
X167100000Y-82300000D03*
D20*
X128400000Y-120700000D03*
X128400000Y-115900000D03*
D23*
X129625000Y-84150000D03*
X128975000Y-84150000D03*
X128325000Y-84150000D03*
X127675000Y-84150000D03*
X127025000Y-84150000D03*
X126375000Y-84150000D03*
X125725000Y-84150000D03*
X125075000Y-84150000D03*
X124425000Y-84150000D03*
X123775000Y-84150000D03*
X123125000Y-84150000D03*
X122475000Y-84150000D03*
X121825000Y-84150000D03*
X121175000Y-84150000D03*
X121175000Y-91350000D03*
X121825000Y-91350000D03*
X122475000Y-91350000D03*
X123125000Y-91350000D03*
X123775000Y-91350000D03*
X124425000Y-91350000D03*
X125075000Y-91350000D03*
X125725000Y-91350000D03*
X126375000Y-91350000D03*
X127025000Y-91350000D03*
X127675000Y-91350000D03*
X128325000Y-91350000D03*
X128975000Y-91350000D03*
X129625000Y-91350000D03*
D24*
X137600000Y-80050000D03*
X137600000Y-83050000D03*
D25*
X152600000Y-135600000D03*
X152600000Y-137600000D03*
X158700000Y-89900000D03*
X158700000Y-91900000D03*
D26*
X179100000Y-83625000D03*
X179100000Y-90575000D03*
D27*
X152800000Y-81400000D03*
X150800000Y-81400000D03*
D16*
X124500000Y-93500000D03*
X126000000Y-93500000D03*
X126050000Y-81450000D03*
X124550000Y-81450000D03*
D26*
X166200000Y-105825000D03*
X166200000Y-112775000D03*
X131950000Y-139975000D03*
X131950000Y-133025000D03*
D28*
X139855000Y-143550000D03*
X139855000Y-148050000D03*
D29*
X147000000Y-145800000D03*
D28*
X148155000Y-97950000D03*
X148155000Y-102450000D03*
D29*
X155300000Y-100200000D03*
D30*
X124160000Y-136605000D03*
X126240000Y-136605000D03*
D31*
X125200000Y-132800000D03*
D32*
X117662540Y-85599100D03*
X117662540Y-86249100D03*
X117662540Y-86899100D03*
X117662540Y-87549100D03*
X117662540Y-88199100D03*
D33*
X117662540Y-84399100D03*
X117662540Y-89399100D03*
D34*
X114962540Y-83399100D03*
X114962540Y-90399100D03*
D13*
X135680000Y-120700000D03*
D12*
X135680000Y-118160000D03*
X138220000Y-120700000D03*
X138220000Y-118160000D03*
X140760000Y-120700000D03*
X140760000Y-118160000D03*
X143300000Y-120700000D03*
X143300000Y-118160000D03*
X145840000Y-120700000D03*
X145840000Y-118160000D03*
X148380000Y-120700000D03*
X148380000Y-118160000D03*
X150920000Y-120700000D03*
X150920000Y-118160000D03*
X153460000Y-120700000D03*
X153460000Y-118160000D03*
X156000000Y-120700000D03*
X156000000Y-118160000D03*
X158540000Y-120700000D03*
X158540000Y-118160000D03*
X161080000Y-120700000D03*
X161080000Y-118160000D03*
X163620000Y-120700000D03*
X163620000Y-118160000D03*
X166160000Y-120700000D03*
X166160000Y-118160000D03*
X168700000Y-120700000D03*
X168700000Y-118160000D03*
X171240000Y-120700000D03*
X171240000Y-118160000D03*
X173780000Y-120700000D03*
X173780000Y-118160000D03*
X176320000Y-120700000D03*
X176320000Y-118160000D03*
X178860000Y-120700000D03*
X178860000Y-118160000D03*
X181400000Y-120700000D03*
X181400000Y-118160000D03*
X183940000Y-120700000D03*
X183940000Y-118160000D03*
D35*
X172160000Y-140400000D03*
D36*
X174700000Y-140400000D03*
X177240000Y-140400000D03*
D37*
X117000000Y-118600000D03*
X117000000Y-115800000D03*
X137700000Y-108300000D03*
X137700000Y-111100000D03*
X148100000Y-108300000D03*
X148100000Y-111100000D03*
D17*
X114450000Y-129900000D03*
X112950000Y-129900000D03*
D38*
X149500000Y-137610000D03*
X149500000Y-136340000D03*
X149500000Y-135070000D03*
X149500000Y-133800000D03*
X149500000Y-132530000D03*
X149500000Y-131260000D03*
X149500000Y-129990000D03*
D39*
X140275000Y-133800000D03*
D38*
X155425000Y-91810000D03*
X155425000Y-90540000D03*
X155425000Y-89270000D03*
X155425000Y-88000000D03*
X155425000Y-86730000D03*
X155425000Y-85460000D03*
X155425000Y-84190000D03*
D39*
X146200000Y-88000000D03*
D40*
X179200000Y-113750000D03*
X179200000Y-103850000D03*
D11*
X115180000Y-124400000D03*
D12*
X115180000Y-126940000D03*
X117720000Y-124400000D03*
X117720000Y-126940000D03*
X120260000Y-124400000D03*
X120260000Y-126940000D03*
X122800000Y-124400000D03*
X122800000Y-126940000D03*
X125340000Y-124400000D03*
X125340000Y-126940000D03*
X127880000Y-124400000D03*
X127880000Y-126940000D03*
X130420000Y-124400000D03*
X130420000Y-126940000D03*
X132960000Y-124400000D03*
X132960000Y-126940000D03*
X135500000Y-124400000D03*
X135500000Y-126940000D03*
X138040000Y-124400000D03*
X138040000Y-126940000D03*
X140580000Y-124400000D03*
X140580000Y-126940000D03*
X143120000Y-124400000D03*
X143120000Y-126940000D03*
X145660000Y-124400000D03*
X145660000Y-126940000D03*
X148200000Y-124400000D03*
X148200000Y-126940000D03*
X150740000Y-124400000D03*
X150740000Y-126940000D03*
X153280000Y-124400000D03*
X153280000Y-126940000D03*
X155820000Y-124400000D03*
X155820000Y-126940000D03*
X158360000Y-124400000D03*
X158360000Y-126940000D03*
X160900000Y-124400000D03*
X160900000Y-126940000D03*
X163440000Y-124400000D03*
X163440000Y-126940000D03*
X165980000Y-124400000D03*
X165980000Y-126940000D03*
X168520000Y-124400000D03*
X168520000Y-126940000D03*
X171060000Y-124400000D03*
X171060000Y-126940000D03*
X173600000Y-124400000D03*
X173600000Y-126940000D03*
D13*
X176140000Y-124400000D03*
D12*
X176140000Y-126940000D03*
D41*
X115950000Y-136100000D03*
X116600000Y-136100000D03*
X117250000Y-136100000D03*
X117900000Y-136100000D03*
X118550000Y-136100000D03*
X119200000Y-136100000D03*
X119850000Y-136100000D03*
X119850000Y-130700000D03*
X119200000Y-130700000D03*
X118550000Y-130700000D03*
X117900000Y-130700000D03*
X117250000Y-130700000D03*
X116600000Y-130700000D03*
X115950000Y-130700000D03*
D42*
X117900000Y-133400000D03*
D43*
X152450000Y-131700000D03*
X152450000Y-133200000D03*
X158450000Y-85475000D03*
X158450000Y-86975000D03*
D44*
X154650000Y-112875000D03*
X154650000Y-113775000D03*
D45*
X119300000Y-85600000D03*
X159575000Y-88300000D03*
X153450000Y-134225000D03*
X185050000Y-98050000D03*
X184225000Y-96950000D03*
X185950000Y-96950000D03*
X117250000Y-129725000D03*
X147400000Y-82675000D03*
X143650000Y-82675000D03*
X141175000Y-83375000D03*
X141150000Y-85850000D03*
X141150000Y-88025000D03*
X144200000Y-99775000D03*
X144175000Y-97950000D03*
X116150000Y-137650000D03*
X162600000Y-110750000D03*
X160800000Y-110750000D03*
X158850000Y-110750000D03*
X134000000Y-84800000D03*
X147400000Y-94000000D03*
X144200000Y-101750000D03*
X124885468Y-88320618D03*
X126358804Y-89091449D03*
X119400000Y-90650000D03*
X126500000Y-86700000D03*
X127650000Y-89100000D03*
X127600000Y-93050000D03*
X122100000Y-81450000D03*
X120900000Y-134700000D03*
X120900000Y-131800000D03*
X120900000Y-133400000D03*
X113300000Y-136100000D03*
X113100000Y-134600000D03*
X113200000Y-131100000D03*
X113200000Y-132400000D03*
X113200000Y-133400000D03*
X114800000Y-133400000D03*
X178600000Y-95200000D03*
X176800000Y-95200000D03*
X175000000Y-95200000D03*
X173500000Y-95200000D03*
X141900000Y-139800000D03*
X140500000Y-139800000D03*
X139100000Y-139800000D03*
X137600000Y-139800000D03*
X131400000Y-88450000D03*
X119600000Y-82000000D03*
X147350000Y-130000000D03*
X170025000Y-133050000D03*
X170000000Y-130575000D03*
X168400000Y-130600000D03*
X166900000Y-130600000D03*
X165500000Y-130600000D03*
X134850000Y-78600000D03*
X116175000Y-141500000D03*
X151775000Y-130200000D03*
X115900000Y-104800000D03*
X117450000Y-121575000D03*
X115750000Y-121575000D03*
X113975000Y-121550000D03*
X152125000Y-89225000D03*
X150475000Y-89225000D03*
X146575000Y-134725000D03*
X113000000Y-104300000D03*
X127450000Y-78600000D03*
X144800000Y-134600000D03*
X146500000Y-133200000D03*
X144800000Y-133200000D03*
X173925000Y-83375000D03*
X123200000Y-89100000D03*
X135400000Y-149750000D03*
X133925000Y-149750000D03*
X174700000Y-110000000D03*
X171300000Y-111400000D03*
X171300000Y-113000000D03*
X171300000Y-114400000D03*
X178800000Y-130700000D03*
X178800000Y-132200000D03*
X181550000Y-98000000D03*
X179925000Y-98000000D03*
X178475000Y-98000000D03*
X126675000Y-79400000D03*
X186750000Y-141150000D03*
X178750000Y-133800000D03*
X127650000Y-87750000D03*
X154950000Y-109775000D03*
X154900000Y-106725000D03*
X168575000Y-102800000D03*
D46*
X118688440Y-85600000D02*
X119300000Y-85600000D01*
X117662540Y-85599100D02*
X118687540Y-85599100D01*
X118687540Y-85599100D02*
X118688440Y-85600000D01*
X158450000Y-88300000D02*
X159575000Y-88300000D01*
X158450000Y-88300000D02*
X158450000Y-86975000D01*
X157400000Y-88300000D02*
X158450000Y-88300000D01*
X157155000Y-88175000D02*
X157275000Y-88175000D01*
X157275000Y-88175000D02*
X157400000Y-88300000D01*
X155425000Y-88000000D02*
X156980000Y-88000000D01*
X156980000Y-88000000D02*
X157155000Y-88175000D01*
X152425000Y-134225000D02*
X153450000Y-134225000D01*
X152425000Y-134225000D02*
X152450000Y-134200000D01*
X152450000Y-134200000D02*
X152450000Y-133200000D01*
X151480000Y-134225000D02*
X152425000Y-134225000D01*
X149500000Y-133800000D02*
X151055000Y-133800000D01*
X151055000Y-133800000D02*
X151480000Y-134225000D01*
X184225000Y-96950000D02*
X184225000Y-97225000D01*
X184225000Y-97225000D02*
X185050000Y-98050000D01*
X190100000Y-98960000D02*
X187960000Y-98960000D01*
X187960000Y-98960000D02*
X185950000Y-96950000D01*
X190100000Y-98800000D02*
X185985000Y-98800000D01*
X197525000Y-135650000D02*
X196435000Y-134560000D01*
X196435000Y-134560000D02*
X190100000Y-134560000D01*
X197525000Y-142650000D02*
X197525000Y-135650000D01*
X196615000Y-143560000D02*
X197525000Y-142650000D01*
X190100000Y-143560000D02*
X196615000Y-143560000D01*
X145750000Y-139800000D02*
X141900000Y-139800000D01*
X144600736Y-102575000D02*
X144725736Y-102450000D01*
X144725736Y-102450000D02*
X148155000Y-102450000D01*
X144200000Y-101750000D02*
X144200000Y-102174264D01*
X144200000Y-102174264D02*
X144600736Y-102575000D01*
X142375000Y-104925000D02*
X144200000Y-103100000D01*
X144200000Y-103100000D02*
X144200000Y-101750000D01*
X128550000Y-104925000D02*
X142375000Y-104925000D01*
X125974999Y-107500001D02*
X128550000Y-104925000D01*
X124150000Y-109000000D02*
X125649999Y-107500001D01*
X125649999Y-107500001D02*
X125974999Y-107500001D01*
X117250000Y-130700000D02*
X117250000Y-129725000D01*
X196700000Y-106650000D02*
X195490000Y-107860000D01*
X195490000Y-107860000D02*
X190100000Y-107860000D01*
X196700000Y-99350000D02*
X196700000Y-106650000D01*
X196310000Y-98960000D02*
X196700000Y-99350000D01*
X190100000Y-98960000D02*
X196310000Y-98960000D01*
X143650000Y-82675000D02*
X147400000Y-82675000D01*
X141150000Y-85850000D02*
X141150000Y-83400000D01*
X141150000Y-83400000D02*
X141175000Y-83375000D01*
X142650000Y-88025000D02*
X141150000Y-88025000D01*
X146200000Y-88000000D02*
X142675000Y-88000000D01*
X142675000Y-88000000D02*
X142650000Y-88025000D01*
X144200000Y-99775000D02*
X144200000Y-99600000D01*
X144200000Y-101750000D02*
X144200000Y-99775000D01*
X144175000Y-97950000D02*
X144175000Y-99575000D01*
X144175000Y-99575000D02*
X144200000Y-99600000D01*
X148155000Y-97950000D02*
X144175000Y-97950000D01*
X116600000Y-137200000D02*
X116150000Y-137650000D01*
X116600000Y-136100000D02*
X116600000Y-137200000D01*
X166200000Y-112775000D02*
X166200000Y-116250000D01*
X166200000Y-116250000D02*
X173550000Y-116250000D01*
X173550000Y-116250000D02*
X173780000Y-116480000D01*
X173780000Y-116480000D02*
X173780000Y-118160000D01*
X158850000Y-111950000D02*
X158850000Y-110750000D01*
X159675000Y-112775000D02*
X158850000Y-111950000D01*
X166200000Y-112775000D02*
X159675000Y-112775000D01*
X134000000Y-83350000D02*
X134000000Y-84800000D01*
X151100000Y-94000000D02*
X147400000Y-94000000D01*
X151850000Y-94000000D02*
X151100000Y-94000000D01*
X123125000Y-90156793D02*
X124585469Y-88696324D01*
X123125000Y-91350000D02*
X123125000Y-90156793D01*
X126058805Y-89391448D02*
X126358804Y-89091449D01*
X124585469Y-88696324D02*
X124585469Y-88620617D01*
X125075000Y-90125000D02*
X125499989Y-89700011D01*
X125075000Y-91350000D02*
X125075000Y-90125000D01*
X125499989Y-89700011D02*
X125750242Y-89700011D01*
X124585469Y-88620617D02*
X124885468Y-88320618D01*
X125750242Y-89700011D02*
X126058805Y-89391448D01*
X119400000Y-88911560D02*
X119400000Y-90650000D01*
X117662540Y-88199100D02*
X118687540Y-88199100D01*
X118687540Y-88199100D02*
X119400000Y-88911560D01*
X126500000Y-86150000D02*
X126500000Y-86700000D01*
X125725000Y-84150000D02*
X125725000Y-85375000D01*
X125725000Y-85375000D02*
X126500000Y-86150000D01*
X127650000Y-90100000D02*
X127650000Y-89100000D01*
X127675000Y-91350000D02*
X127675000Y-90125000D01*
X127675000Y-90125000D02*
X127650000Y-90100000D01*
X127150000Y-93500000D02*
X127600000Y-93050000D01*
X126000000Y-93500000D02*
X127150000Y-93500000D01*
X124550000Y-81450000D02*
X122100000Y-81450000D01*
X134000000Y-83350000D02*
X134300000Y-83050000D01*
X134300000Y-83050000D02*
X137600000Y-83050000D01*
X131400000Y-83350000D02*
X134000000Y-83350000D01*
X120900000Y-133824264D02*
X120900000Y-134700000D01*
X120900000Y-133400000D02*
X120900000Y-133824264D01*
X119450000Y-133400000D02*
X120900000Y-133400000D01*
X117900000Y-133400000D02*
X119450000Y-133400000D01*
X112900001Y-134400001D02*
X113100000Y-134600000D01*
X113200000Y-133400000D02*
X112900001Y-133699999D01*
X112900001Y-133699999D02*
X112900001Y-134400001D01*
X114375736Y-133400000D02*
X113200000Y-133400000D01*
X114800000Y-133400000D02*
X114375736Y-133400000D01*
X117900000Y-133400000D02*
X114800000Y-133400000D01*
X115400000Y-133400000D02*
X115000000Y-133000000D01*
X117900000Y-133400000D02*
X115400000Y-133400000D01*
X176800000Y-95200000D02*
X178600000Y-95200000D01*
X175000000Y-95200000D02*
X176800000Y-95200000D01*
X173500000Y-94200000D02*
X173500000Y-95200000D01*
X174100000Y-93600000D02*
X173500000Y-94200000D01*
X179200000Y-93600000D02*
X174100000Y-93600000D01*
X179200000Y-91800000D02*
X179200000Y-93600000D01*
X179100000Y-90575000D02*
X179100000Y-91700000D01*
X179100000Y-91700000D02*
X179200000Y-91800000D01*
X146200000Y-88000000D02*
X146200000Y-84855000D01*
X146200000Y-84855000D02*
X146000000Y-84655000D01*
D47*
X139524264Y-139800000D02*
X140500000Y-139800000D01*
X139100000Y-139800000D02*
X139524264Y-139800000D01*
X137600000Y-140300000D02*
X137600000Y-139800000D01*
X138000000Y-140700000D02*
X137600000Y-140300000D01*
X139000000Y-140700000D02*
X138000000Y-140700000D01*
X139855000Y-141555000D02*
X139000000Y-140700000D01*
X139855000Y-143550000D02*
X139855000Y-141555000D01*
D46*
X124500000Y-93500000D02*
X124425000Y-93425000D01*
X124425000Y-93425000D02*
X124425000Y-91350000D01*
X126050000Y-81450000D02*
X126800000Y-81450000D01*
X126800000Y-81450000D02*
X127675000Y-82325000D01*
X127675000Y-82325000D02*
X127675000Y-82925000D01*
X127675000Y-82925000D02*
X127675000Y-84150000D01*
D47*
X147350000Y-130000000D02*
X149490000Y-130000000D01*
X149490000Y-130000000D02*
X149500000Y-129990000D01*
D46*
X149500000Y-137610000D02*
X152590000Y-137610000D01*
X152590000Y-137610000D02*
X152600000Y-137600000D01*
X176140000Y-130485000D02*
X176050000Y-130575000D01*
X176050000Y-130575000D02*
X170000000Y-130575000D01*
X176140000Y-126940000D02*
X176140000Y-130485000D01*
X168400000Y-130600000D02*
X168824264Y-130600000D01*
X166900000Y-130600000D02*
X168400000Y-130600000D01*
X165500000Y-132300000D02*
X165500000Y-130600000D01*
X164900000Y-132900000D02*
X165500000Y-132300000D01*
X162200000Y-132900000D02*
X164900000Y-132900000D01*
X160700000Y-132900000D02*
X162200000Y-132900000D01*
D47*
X153875000Y-115900000D02*
X154650000Y-115125000D01*
X154650000Y-115125000D02*
X154650000Y-113775000D01*
X140575000Y-115900000D02*
X153875000Y-115900000D01*
X139571399Y-116903601D02*
X140575000Y-115900000D01*
X139300000Y-125680000D02*
X139300000Y-121379130D01*
X139300000Y-121379130D02*
X139571399Y-121107731D01*
X139571399Y-121107731D02*
X139571399Y-116903601D01*
X138040000Y-126940000D02*
X139300000Y-125680000D01*
X153360000Y-79190000D02*
X153360000Y-77700000D01*
X153360000Y-77700000D02*
X153360000Y-76140000D01*
X155930000Y-78480000D02*
X155150000Y-77700000D01*
X155150000Y-77700000D02*
X153360000Y-77700000D01*
X155930000Y-80500000D02*
X155930000Y-78480000D01*
X155930000Y-80500000D02*
X158470000Y-80500000D01*
X137600000Y-80050000D02*
X139100000Y-80050000D01*
X139100000Y-80050000D02*
X139850000Y-79300000D01*
X139850000Y-79300000D02*
X153250000Y-79300000D01*
X153250000Y-79300000D02*
X153360000Y-79190000D01*
X134850000Y-80100000D02*
X137550000Y-80100000D01*
X137550000Y-80100000D02*
X137600000Y-80050000D01*
X152100000Y-77550000D02*
X152100000Y-74860000D01*
X152100000Y-74860000D02*
X153360000Y-73600000D01*
X151050000Y-78600000D02*
X152100000Y-77550000D01*
X134850000Y-78600000D02*
X151050000Y-78600000D01*
X163520000Y-73600000D02*
X165269989Y-71850011D01*
X165269989Y-71850011D02*
X177250011Y-71850011D01*
X177250011Y-71850011D02*
X182751399Y-77351399D01*
X182346401Y-115975012D02*
X181825860Y-115975012D01*
X182751399Y-115570014D02*
X182346401Y-115975012D01*
X182751399Y-77351399D02*
X182751399Y-96148601D01*
X182751399Y-96148601D02*
X182475000Y-96425000D01*
X177620000Y-119400000D02*
X177183599Y-119836401D01*
X181825860Y-115975012D02*
X180200000Y-117600870D01*
X182475000Y-96425000D02*
X177750000Y-96425000D01*
X177750000Y-96425000D02*
X177075000Y-97100000D01*
X182751399Y-101725000D02*
X182751399Y-115570014D01*
X177875000Y-99700000D02*
X180726399Y-99700000D01*
X177075000Y-97100000D02*
X177075000Y-98900000D01*
X180200000Y-117600870D02*
X180200000Y-118579130D01*
X177075000Y-98900000D02*
X177875000Y-99700000D01*
X180726399Y-99700000D02*
X182751399Y-101725000D01*
X180200000Y-118579130D02*
X179379130Y-119400000D01*
X179379130Y-119400000D02*
X177620000Y-119400000D01*
X177183599Y-119836401D02*
X176320000Y-120700000D01*
X160980000Y-76140000D02*
X162220000Y-74900000D01*
X180525012Y-100150011D02*
X182225001Y-101850000D01*
X162220000Y-74900000D02*
X174400000Y-74900000D01*
X174400000Y-74900000D02*
X175031399Y-75531399D01*
X182225001Y-95974989D02*
X177563600Y-95974989D01*
X175031399Y-75531399D02*
X175031399Y-77368601D01*
X176624989Y-96913600D02*
X176624989Y-99086399D01*
X175031399Y-77368601D02*
X175262798Y-77600000D01*
X181800000Y-77600000D02*
X182225001Y-78025001D01*
X175262798Y-77600000D02*
X181800000Y-77600000D01*
X177688600Y-100150011D02*
X180525012Y-100150011D01*
X182225001Y-78025001D02*
X182225001Y-95974989D01*
X177563600Y-95974989D02*
X176624989Y-96913600D01*
X182225001Y-101850000D02*
X182225001Y-115460001D01*
X176624989Y-99086399D02*
X177688600Y-100150011D01*
X182225001Y-115460001D02*
X182160001Y-115525001D01*
X182160001Y-115525001D02*
X181174999Y-115525001D01*
X181174999Y-115525001D02*
X180200000Y-116500000D01*
X175800000Y-116900000D02*
X174968601Y-117731399D01*
X180200000Y-116500000D02*
X180000000Y-116700000D01*
X175800000Y-116900000D02*
X179800000Y-116900000D01*
X179800000Y-116900000D02*
X180200000Y-116500000D01*
X174968601Y-117731399D02*
X174968601Y-119511399D01*
X174968601Y-119511399D02*
X173780000Y-120700000D01*
X116175000Y-141500000D02*
X116175000Y-139175000D01*
X116175000Y-139175000D02*
X116125000Y-139125000D01*
X152091399Y-129883601D02*
X151775000Y-130200000D01*
X151475000Y-125700000D02*
X152091399Y-126316399D01*
X152091399Y-126316399D02*
X152091399Y-129883601D01*
X146700000Y-125700000D02*
X151475000Y-125700000D01*
X146523599Y-125523599D02*
X146700000Y-125700000D01*
X145660000Y-124400000D02*
X146523599Y-125263599D01*
X146523599Y-125263599D02*
X146523599Y-125523599D01*
X115900000Y-104800000D02*
X113450020Y-107249980D01*
X113450020Y-114664978D02*
X113374999Y-114739999D01*
X113514979Y-119799980D02*
X115147801Y-119799980D01*
X136851399Y-123751399D02*
X136851399Y-127901399D01*
X115272821Y-119925000D02*
X119700000Y-119925000D01*
X137550000Y-128600000D02*
X141460000Y-128600000D01*
X123950000Y-122850000D02*
X135950000Y-122850000D01*
X136851399Y-127901399D02*
X137550000Y-128600000D01*
X120375000Y-120600000D02*
X121700000Y-120600000D01*
X113450020Y-107249980D02*
X113450020Y-114664978D01*
X141460000Y-128600000D02*
X142256401Y-127803599D01*
X121700000Y-120600000D02*
X123950000Y-122850000D01*
X119700000Y-119925000D02*
X120375000Y-120600000D01*
X142256401Y-127803599D02*
X143120000Y-126940000D01*
X135950000Y-122850000D02*
X136851399Y-123751399D01*
X113374999Y-114739999D02*
X113374999Y-119660000D01*
X115147801Y-119799980D02*
X115272821Y-119925000D01*
X113374999Y-119660000D02*
X113514979Y-119799980D01*
X131400000Y-84150000D02*
X130100000Y-84150000D01*
X130100000Y-84150000D02*
X129625000Y-84150000D01*
X134800000Y-87550000D02*
X131400000Y-84150000D01*
X113461399Y-120382811D02*
X112924990Y-119846402D01*
X134800000Y-94636411D02*
X134800000Y-87550000D01*
X117600010Y-97349990D02*
X118774989Y-96175011D01*
X122800000Y-124400000D02*
X122800000Y-122336410D01*
X112950011Y-106786399D02*
X117600010Y-102136400D01*
X112950011Y-114528577D02*
X112950011Y-106786399D01*
X133261400Y-96175011D02*
X134800000Y-94636411D01*
X119457811Y-120382811D02*
X113461399Y-120382811D01*
X120175000Y-121100000D02*
X119457811Y-120382811D01*
X121563590Y-121100000D02*
X120175000Y-121100000D01*
X112924989Y-114553599D02*
X112950011Y-114528577D01*
X117600010Y-102136400D02*
X117600010Y-97349990D01*
X122800000Y-122336410D02*
X121563590Y-121100000D01*
X112924990Y-119846402D02*
X112924989Y-114553599D01*
X118774989Y-96175011D02*
X133261400Y-96175011D01*
X115150000Y-103950000D02*
X117150000Y-101950000D01*
X133075000Y-95725000D02*
X134300000Y-94500000D01*
X117150000Y-101950000D02*
X117150000Y-96900000D01*
X117150000Y-96900000D02*
X117275000Y-96900000D01*
X118450000Y-95725000D02*
X133075000Y-95725000D01*
X117275000Y-96900000D02*
X118450000Y-95725000D01*
X134300000Y-94500000D02*
X134300000Y-87686410D01*
X134300000Y-87686410D02*
X133163601Y-86550011D01*
X133163601Y-86550011D02*
X128300011Y-86550011D01*
X127025000Y-85275000D02*
X127025000Y-84150000D01*
X128300011Y-86550011D02*
X127025000Y-85275000D01*
X115150000Y-103950000D02*
X112500000Y-106600000D01*
X112500000Y-106600000D02*
X112500000Y-114342178D01*
X121611399Y-125751399D02*
X122800000Y-126940000D01*
X112500000Y-114342178D02*
X112474979Y-114367200D01*
X113275000Y-120832822D02*
X119132822Y-120832822D01*
X112474979Y-114367200D02*
X112474981Y-120032803D01*
X119132822Y-120832822D02*
X119900000Y-121600000D01*
X112474981Y-120032803D02*
X113275000Y-120832822D01*
X119900000Y-121600000D02*
X121100000Y-121600000D01*
X121100000Y-121600000D02*
X121611399Y-122111399D01*
X121611399Y-122111399D02*
X121611399Y-125751399D01*
X115250000Y-103850000D02*
X115150000Y-103950000D01*
D48*
X121710000Y-89922500D02*
X121825000Y-90037500D01*
X120461084Y-86364100D02*
X121710000Y-87613016D01*
X121825000Y-90037500D02*
X121825000Y-91350000D01*
X121710000Y-87613016D02*
X121710000Y-89922500D01*
X118790040Y-86364100D02*
X120461084Y-86364100D01*
X117662540Y-86249100D02*
X118675040Y-86249100D01*
X118675040Y-86249100D02*
X118790040Y-86364100D01*
X120287116Y-86784100D02*
X121290000Y-87786984D01*
X121290000Y-87786984D02*
X121290000Y-89922500D01*
X121290000Y-89922500D02*
X121175000Y-90037500D01*
X121175000Y-90037500D02*
X121175000Y-91350000D01*
X117662540Y-86899100D02*
X118675040Y-86899100D01*
X118675040Y-86899100D02*
X118790040Y-86784100D01*
X118790040Y-86784100D02*
X120287116Y-86784100D01*
D47*
X122625000Y-136650000D02*
X122670000Y-136605000D01*
X122670000Y-136605000D02*
X124160000Y-136605000D01*
X122625000Y-137225000D02*
X122625000Y-136650000D01*
X119825000Y-137225000D02*
X122625000Y-137225000D01*
X119200000Y-137225000D02*
X119825000Y-137225000D01*
X118550000Y-137225000D02*
X119200000Y-137225000D01*
X119200000Y-137225000D02*
X119200000Y-136100000D01*
X118550000Y-136100000D02*
X118550000Y-137225000D01*
X119825000Y-137225000D02*
X119850000Y-137200000D01*
X119850000Y-137200000D02*
X119850000Y-136100000D01*
D46*
X113975000Y-121550000D02*
X115725000Y-121550000D01*
X115725000Y-121550000D02*
X115750000Y-121575000D01*
X112900000Y-122625000D02*
X113975000Y-121550000D01*
X112900000Y-128250000D02*
X112900000Y-122625000D01*
X113325000Y-128675000D02*
X112900000Y-128250000D01*
X128725000Y-128675000D02*
X113325000Y-128675000D01*
X128850000Y-128800000D02*
X128725000Y-128675000D01*
X134750000Y-128800000D02*
X128850000Y-128800000D01*
X135750000Y-129800000D02*
X134750000Y-128800000D01*
X144325000Y-129800000D02*
X135750000Y-129800000D01*
X144800000Y-130275000D02*
X144325000Y-129800000D01*
X144800000Y-133200000D02*
X144800000Y-130275000D01*
X146500000Y-133200000D02*
X144800000Y-133200000D01*
X145125000Y-132004998D02*
X145125000Y-132875000D01*
X145125000Y-132875000D02*
X144800000Y-133200000D01*
X145450000Y-133550000D02*
X145450000Y-132329998D01*
X145450000Y-132329998D02*
X145125000Y-132004998D01*
X145099999Y-133900001D02*
X145450000Y-133550000D01*
X144800000Y-134600000D02*
X145099999Y-134300001D01*
X145099999Y-134300001D02*
X145099999Y-133900001D01*
X149500000Y-136340000D02*
X146540000Y-136340000D01*
X146540000Y-136340000D02*
X144800000Y-134600000D01*
X117300000Y-105800000D02*
X116650000Y-106450000D01*
X116650000Y-106450000D02*
X116650000Y-109000000D01*
X117300000Y-104850000D02*
X117300000Y-105800000D01*
X121500000Y-100650000D02*
X117300000Y-104850000D01*
X132050000Y-100650000D02*
X121500000Y-100650000D01*
X140200000Y-92500000D02*
X132050000Y-100650000D01*
X151910000Y-92500000D02*
X140200000Y-92500000D01*
X153870000Y-90540000D02*
X151910000Y-92500000D01*
X152710000Y-91700000D02*
X153350000Y-92340000D01*
X153350000Y-92340000D02*
X153350000Y-94000000D01*
X153870000Y-90540000D02*
X152710000Y-91700000D01*
X117000000Y-115800000D02*
X117000000Y-109350000D01*
X117000000Y-109350000D02*
X116650000Y-109000000D01*
X151150000Y-89900000D02*
X150475000Y-89225000D01*
X151150000Y-90500000D02*
X151150000Y-89900000D01*
X153830000Y-90500000D02*
X151150000Y-90500000D01*
X155425000Y-90540000D02*
X153870000Y-90540000D01*
X153870000Y-90540000D02*
X153830000Y-90500000D01*
X146500000Y-135325000D02*
X146500000Y-134800000D01*
X146500000Y-134800000D02*
X146575000Y-134725000D01*
X147550000Y-136375000D02*
X146500000Y-135325000D01*
X147910000Y-136375000D02*
X147550000Y-136375000D01*
X149500000Y-136340000D02*
X147945000Y-136340000D01*
X147945000Y-136340000D02*
X147910000Y-136375000D01*
X112850000Y-104150000D02*
X113000000Y-104300000D01*
X112850000Y-80000000D02*
X112850000Y-104150000D01*
X112974999Y-79875001D02*
X112850000Y-80000000D01*
X114250000Y-78600000D02*
X112974999Y-79875001D01*
X127025736Y-78600000D02*
X114250000Y-78600000D01*
X127450000Y-78600000D02*
X127025736Y-78600000D01*
D47*
X146500000Y-133200000D02*
X146500000Y-134600000D01*
X144800000Y-135600000D02*
X144800000Y-133200000D01*
X147250000Y-138050000D02*
X144800000Y-135600000D01*
X147250000Y-139800000D02*
X147250000Y-138050000D01*
D46*
X149500000Y-135070000D02*
X151055000Y-135070000D01*
X151055000Y-135070000D02*
X151585000Y-135600000D01*
X151585000Y-135600000D02*
X152600000Y-135600000D01*
X155425000Y-89270000D02*
X156980000Y-89270000D01*
X156980000Y-89270000D02*
X157610000Y-89900000D01*
X157610000Y-89900000D02*
X158700000Y-89900000D01*
X155425000Y-91810000D02*
X158610000Y-91810000D01*
X158610000Y-91810000D02*
X158700000Y-91900000D01*
D47*
X154200000Y-81400000D02*
X155425000Y-82625000D01*
X155425000Y-82625000D02*
X155425000Y-84190000D01*
X152800000Y-81400000D02*
X154200000Y-81400000D01*
X122900001Y-89399999D02*
X123200000Y-89100000D01*
X122475000Y-89825000D02*
X122900001Y-89399999D01*
X122475000Y-91350000D02*
X122475000Y-89825000D01*
D46*
X161500000Y-107900000D02*
X163575000Y-105825000D01*
X163575000Y-105825000D02*
X166200000Y-105825000D01*
X152150000Y-107900000D02*
X161500000Y-107900000D01*
X148100000Y-108300000D02*
X151750000Y-108300000D01*
X151750000Y-108300000D02*
X152150000Y-107900000D01*
X134675000Y-148550000D02*
X133925000Y-149300000D01*
X133925000Y-149300000D02*
X133925000Y-149750000D01*
X134675000Y-140625000D02*
X134675000Y-148550000D01*
X134025000Y-139975000D02*
X134675000Y-140625000D01*
X131950000Y-139975000D02*
X134025000Y-139975000D01*
X135125000Y-140675000D02*
X135125000Y-149625000D01*
X134375000Y-139925000D02*
X135125000Y-140675000D01*
X133300000Y-139925000D02*
X134375000Y-139925000D01*
X131950000Y-139975000D02*
X133250000Y-139975000D01*
X133250000Y-139975000D02*
X133300000Y-139925000D01*
X125200000Y-129800000D02*
X125200000Y-132800000D01*
X119850000Y-129800000D02*
X125200000Y-129800000D01*
X118600000Y-129800000D02*
X119225000Y-129800000D01*
X119225000Y-129800000D02*
X119850000Y-129800000D01*
X119200000Y-130700000D02*
X119200000Y-129825000D01*
X119200000Y-129825000D02*
X119225000Y-129800000D01*
X119850000Y-129800000D02*
X119850000Y-130700000D01*
X118550000Y-130700000D02*
X118550000Y-129850000D01*
X118550000Y-129850000D02*
X118600000Y-129800000D01*
X171300000Y-112575736D02*
X171300000Y-111400000D01*
X171300000Y-113000000D02*
X171300000Y-112575736D01*
X171950000Y-113750000D02*
X171300000Y-114400000D01*
X179200000Y-113750000D02*
X171950000Y-113750000D01*
D47*
X184800000Y-92800000D02*
X186980000Y-94980000D01*
X186980000Y-94980000D02*
X190100000Y-94980000D01*
X184800000Y-90900000D02*
X184800000Y-92800000D01*
X183700000Y-89800000D02*
X184800000Y-90900000D01*
X177700000Y-71400000D02*
X183700000Y-77400000D01*
X183700000Y-77400000D02*
X183700000Y-89800000D01*
X146500000Y-71400000D02*
X177700000Y-71400000D01*
X145740000Y-72160000D02*
X146500000Y-71400000D01*
X145740000Y-73600000D02*
X145740000Y-72160000D01*
X184500022Y-77300000D02*
X184500022Y-80692422D01*
X144678686Y-70900000D02*
X178100022Y-70900000D01*
X178100022Y-70900000D02*
X184500022Y-77300000D01*
X143200000Y-73600000D02*
X143200000Y-72378686D01*
X143200000Y-72378686D02*
X144678686Y-70900000D01*
X189947600Y-86140000D02*
X190100000Y-86140000D01*
X184500022Y-80692422D02*
X189947600Y-86140000D01*
X178500000Y-70400000D02*
X185240000Y-77140000D01*
X185240000Y-77140000D02*
X190100000Y-77140000D01*
X142000000Y-70400000D02*
X178500000Y-70400000D01*
X140660000Y-71740000D02*
X142000000Y-70400000D01*
X140660000Y-73600000D02*
X140660000Y-71740000D01*
X188834000Y-77140000D02*
X190100000Y-77140000D01*
X185540000Y-77140000D02*
X188834000Y-77140000D01*
X178800000Y-130700000D02*
X190060000Y-130700000D01*
X190060000Y-130700000D02*
X190100000Y-130740000D01*
X178800000Y-132200000D02*
X186240000Y-139640000D01*
X186240000Y-139640000D02*
X190100000Y-139640000D01*
D46*
X178475000Y-98000000D02*
X179925000Y-98000000D01*
X128800000Y-79725000D02*
X129125000Y-80050000D01*
X129125000Y-80050000D02*
X129850000Y-80050000D01*
X127424264Y-79725000D02*
X128800000Y-79725000D01*
X126675000Y-79400000D02*
X127099264Y-79400000D01*
X127099264Y-79400000D02*
X127424264Y-79725000D01*
D47*
X179400000Y-133800000D02*
X186325000Y-140725000D01*
X186325000Y-140725000D02*
X186750000Y-141150000D01*
X178750000Y-133800000D02*
X179400000Y-133800000D01*
X131350000Y-80050000D02*
X133300000Y-80050000D01*
X133300000Y-80050000D02*
X133350000Y-80100000D01*
X131400000Y-81850000D02*
X131400000Y-80100000D01*
X131400000Y-80100000D02*
X131350000Y-80050000D01*
X126339998Y-87750000D02*
X127650000Y-87750000D01*
X123874999Y-91250001D02*
X123874999Y-90214999D01*
X123775000Y-91350000D02*
X123874999Y-91250001D01*
X123874999Y-90214999D02*
X126339998Y-87750000D01*
X117025000Y-139125000D02*
X117025000Y-138575000D01*
X117025000Y-138575000D02*
X117150000Y-138450000D01*
X117150000Y-138450000D02*
X117150000Y-137050000D01*
X117150000Y-137050000D02*
X117250000Y-136950000D01*
X117250000Y-136950000D02*
X117250000Y-136100000D01*
X114450000Y-129900000D02*
X114950000Y-129900000D01*
X114950000Y-129900000D02*
X115050000Y-129800000D01*
X115050000Y-129800000D02*
X116450000Y-129800000D01*
X116450000Y-129800000D02*
X116600000Y-129950000D01*
X116600000Y-129950000D02*
X116600000Y-130700000D01*
X154625000Y-110100000D02*
X154650000Y-110125000D01*
X154650000Y-110125000D02*
X154650000Y-112875000D01*
X154950000Y-109775000D02*
X154625000Y-110100000D01*
X161625000Y-106725000D02*
X154900000Y-106725000D01*
X162225000Y-106125000D02*
X161625000Y-106725000D01*
X162225000Y-103250000D02*
X162225000Y-106125000D01*
X162675000Y-102800000D02*
X162225000Y-103250000D01*
X168575000Y-102800000D02*
X162675000Y-102800000D01*
D49*
G36*
X147373000Y-136075000D02*
X147383006Y-136124410D01*
X147411447Y-136166035D01*
X147453841Y-136193315D01*
X147500000Y-136202000D01*
X147807750Y-136202000D01*
X147818750Y-136213000D01*
X149373000Y-136213000D01*
X149373000Y-136202000D01*
X149473000Y-136202000D01*
X149473000Y-136487000D01*
X149373000Y-136487000D01*
X149373000Y-136467000D01*
X147818750Y-136467000D01*
X147762750Y-136523000D01*
X147475000Y-136523000D01*
X147425590Y-136533006D01*
X147383965Y-136561447D01*
X147356685Y-136603841D01*
X147348000Y-136650000D01*
X147348000Y-138625000D01*
X147358006Y-138674410D01*
X147386447Y-138716035D01*
X147428841Y-138743315D01*
X147477591Y-138751974D01*
X148573000Y-138729619D01*
X148573000Y-140373000D01*
X148255305Y-140373000D01*
X148285000Y-140301310D01*
X148285000Y-140085750D01*
X148126250Y-139927000D01*
X147377000Y-139927000D01*
X147377000Y-139947000D01*
X147123000Y-139947000D01*
X147123000Y-139927000D01*
X147103000Y-139927000D01*
X147103000Y-139673000D01*
X147123000Y-139673000D01*
X147123000Y-138948750D01*
X147377000Y-138948750D01*
X147377000Y-139673000D01*
X148126250Y-139673000D01*
X148285000Y-139514250D01*
X148285000Y-139298690D01*
X148188327Y-139065301D01*
X148009698Y-138886673D01*
X147776309Y-138790000D01*
X147535750Y-138790000D01*
X147377000Y-138948750D01*
X147123000Y-138948750D01*
X147102000Y-138927750D01*
X147102000Y-138100000D01*
X147091994Y-138050590D01*
X147063553Y-138008965D01*
X147021159Y-137981685D01*
X146975000Y-137973000D01*
X144227000Y-137973000D01*
X144227000Y-132727000D01*
X147373000Y-132727000D01*
X147373000Y-136075000D01*
X147373000Y-136075000D01*
G37*
X147373000Y-136075000D02*
X147383006Y-136124410D01*
X147411447Y-136166035D01*
X147453841Y-136193315D01*
X147500000Y-136202000D01*
X147807750Y-136202000D01*
X147818750Y-136213000D01*
X149373000Y-136213000D01*
X149373000Y-136202000D01*
X149473000Y-136202000D01*
X149473000Y-136487000D01*
X149373000Y-136487000D01*
X149373000Y-136467000D01*
X147818750Y-136467000D01*
X147762750Y-136523000D01*
X147475000Y-136523000D01*
X147425590Y-136533006D01*
X147383965Y-136561447D01*
X147356685Y-136603841D01*
X147348000Y-136650000D01*
X147348000Y-138625000D01*
X147358006Y-138674410D01*
X147386447Y-138716035D01*
X147428841Y-138743315D01*
X147477591Y-138751974D01*
X148573000Y-138729619D01*
X148573000Y-140373000D01*
X148255305Y-140373000D01*
X148285000Y-140301310D01*
X148285000Y-140085750D01*
X148126250Y-139927000D01*
X147377000Y-139927000D01*
X147377000Y-139947000D01*
X147123000Y-139947000D01*
X147123000Y-139927000D01*
X147103000Y-139927000D01*
X147103000Y-139673000D01*
X147123000Y-139673000D01*
X147123000Y-138948750D01*
X147377000Y-138948750D01*
X147377000Y-139673000D01*
X148126250Y-139673000D01*
X148285000Y-139514250D01*
X148285000Y-139298690D01*
X148188327Y-139065301D01*
X148009698Y-138886673D01*
X147776309Y-138790000D01*
X147535750Y-138790000D01*
X147377000Y-138948750D01*
X147123000Y-138948750D01*
X147102000Y-138927750D01*
X147102000Y-138100000D01*
X147091994Y-138050590D01*
X147063553Y-138008965D01*
X147021159Y-137981685D01*
X146975000Y-137973000D01*
X144227000Y-137973000D01*
X144227000Y-132727000D01*
X147373000Y-132727000D01*
X147373000Y-136075000D01*
G36*
X130365000Y-132739250D02*
X130523750Y-132898000D01*
X131823000Y-132898000D01*
X131823000Y-132878000D01*
X132077000Y-132878000D01*
X132077000Y-132898000D01*
X133376250Y-132898000D01*
X133535000Y-132739250D01*
X133535000Y-131127000D01*
X133884776Y-131127000D01*
X133911447Y-131166035D01*
X133953841Y-131193315D01*
X134000000Y-131202000D01*
X136465000Y-131202000D01*
X136465000Y-133514250D01*
X136623750Y-133673000D01*
X140148000Y-133673000D01*
X140148000Y-133653000D01*
X140402000Y-133653000D01*
X140402000Y-133673000D01*
X140422000Y-133673000D01*
X140422000Y-133927000D01*
X140402000Y-133927000D01*
X140402000Y-137071250D01*
X140560750Y-137230000D01*
X142923000Y-137230000D01*
X142923000Y-139100000D01*
X142933006Y-139149410D01*
X142961447Y-139191035D01*
X143003841Y-139218315D01*
X143050000Y-139227000D01*
X143300000Y-139227000D01*
X143349410Y-139216994D01*
X143391035Y-139188553D01*
X143418315Y-139146159D01*
X143427000Y-139100000D01*
X143427000Y-138827000D01*
X145134365Y-138827000D01*
X144990302Y-138886673D01*
X144811673Y-139065301D01*
X144715000Y-139298690D01*
X144715000Y-139514250D01*
X144873750Y-139673000D01*
X145548000Y-139673000D01*
X145548000Y-139927000D01*
X144873750Y-139927000D01*
X144715000Y-140085750D01*
X144715000Y-140301310D01*
X144744695Y-140373000D01*
X142200000Y-140373000D01*
X142150590Y-140383006D01*
X142108965Y-140411447D01*
X142081685Y-140453841D01*
X142073000Y-140500000D01*
X142073000Y-149773000D01*
X137127000Y-149773000D01*
X137127000Y-148335750D01*
X138080000Y-148335750D01*
X138080000Y-148938309D01*
X138176673Y-149171698D01*
X138355301Y-149350327D01*
X138588690Y-149447000D01*
X139569250Y-149447000D01*
X139728000Y-149288250D01*
X139728000Y-148177000D01*
X139982000Y-148177000D01*
X139982000Y-149288250D01*
X140140750Y-149447000D01*
X141121310Y-149447000D01*
X141354699Y-149350327D01*
X141533327Y-149171698D01*
X141630000Y-148938309D01*
X141630000Y-148335750D01*
X141471250Y-148177000D01*
X139982000Y-148177000D01*
X139728000Y-148177000D01*
X138238750Y-148177000D01*
X138080000Y-148335750D01*
X137127000Y-148335750D01*
X137127000Y-147161691D01*
X138080000Y-147161691D01*
X138080000Y-147764250D01*
X138238750Y-147923000D01*
X139728000Y-147923000D01*
X139728000Y-146811750D01*
X139982000Y-146811750D01*
X139982000Y-147923000D01*
X141471250Y-147923000D01*
X141630000Y-147764250D01*
X141630000Y-147161691D01*
X141533327Y-146928302D01*
X141354699Y-146749673D01*
X141121310Y-146653000D01*
X140140750Y-146653000D01*
X139982000Y-146811750D01*
X139728000Y-146811750D01*
X139569250Y-146653000D01*
X138588690Y-146653000D01*
X138355301Y-146749673D01*
X138176673Y-146928302D01*
X138080000Y-147161691D01*
X137127000Y-147161691D01*
X137127000Y-143835750D01*
X138080000Y-143835750D01*
X138080000Y-144438309D01*
X138176673Y-144671698D01*
X138355301Y-144850327D01*
X138588690Y-144947000D01*
X139569250Y-144947000D01*
X139728000Y-144788250D01*
X139728000Y-143677000D01*
X139982000Y-143677000D01*
X139982000Y-144788250D01*
X140140750Y-144947000D01*
X141121310Y-144947000D01*
X141354699Y-144850327D01*
X141533327Y-144671698D01*
X141630000Y-144438309D01*
X141630000Y-143835750D01*
X141471250Y-143677000D01*
X139982000Y-143677000D01*
X139728000Y-143677000D01*
X138238750Y-143677000D01*
X138080000Y-143835750D01*
X137127000Y-143835750D01*
X137127000Y-142661691D01*
X138080000Y-142661691D01*
X138080000Y-143264250D01*
X138238750Y-143423000D01*
X139728000Y-143423000D01*
X139728000Y-142311750D01*
X139982000Y-142311750D01*
X139982000Y-143423000D01*
X141471250Y-143423000D01*
X141630000Y-143264250D01*
X141630000Y-142661691D01*
X141533327Y-142428302D01*
X141354699Y-142249673D01*
X141121310Y-142153000D01*
X140140750Y-142153000D01*
X139982000Y-142311750D01*
X139728000Y-142311750D01*
X139569250Y-142153000D01*
X138588690Y-142153000D01*
X138355301Y-142249673D01*
X138176673Y-142428302D01*
X138080000Y-142661691D01*
X137127000Y-142661691D01*
X137127000Y-137230000D01*
X139989250Y-137230000D01*
X140148000Y-137071250D01*
X140148000Y-133927000D01*
X136623750Y-133927000D01*
X136465000Y-134085750D01*
X136465000Y-136598000D01*
X135227000Y-136598000D01*
X135227000Y-133725000D01*
X135216994Y-133675590D01*
X135188553Y-133633965D01*
X135146159Y-133606685D01*
X135100000Y-133598000D01*
X133535000Y-133598000D01*
X133535000Y-133310750D01*
X133376250Y-133152000D01*
X132077000Y-133152000D01*
X132077000Y-133172000D01*
X131823000Y-133172000D01*
X131823000Y-133152000D01*
X130523750Y-133152000D01*
X130365000Y-133310750D01*
X130365000Y-133598000D01*
X130127000Y-133598000D01*
X130127000Y-131127000D01*
X130365000Y-131127000D01*
X130365000Y-132739250D01*
X130365000Y-132739250D01*
G37*
X130365000Y-132739250D02*
X130523750Y-132898000D01*
X131823000Y-132898000D01*
X131823000Y-132878000D01*
X132077000Y-132878000D01*
X132077000Y-132898000D01*
X133376250Y-132898000D01*
X133535000Y-132739250D01*
X133535000Y-131127000D01*
X133884776Y-131127000D01*
X133911447Y-131166035D01*
X133953841Y-131193315D01*
X134000000Y-131202000D01*
X136465000Y-131202000D01*
X136465000Y-133514250D01*
X136623750Y-133673000D01*
X140148000Y-133673000D01*
X140148000Y-133653000D01*
X140402000Y-133653000D01*
X140402000Y-133673000D01*
X140422000Y-133673000D01*
X140422000Y-133927000D01*
X140402000Y-133927000D01*
X140402000Y-137071250D01*
X140560750Y-137230000D01*
X142923000Y-137230000D01*
X142923000Y-139100000D01*
X142933006Y-139149410D01*
X142961447Y-139191035D01*
X143003841Y-139218315D01*
X143050000Y-139227000D01*
X143300000Y-139227000D01*
X143349410Y-139216994D01*
X143391035Y-139188553D01*
X143418315Y-139146159D01*
X143427000Y-139100000D01*
X143427000Y-138827000D01*
X145134365Y-138827000D01*
X144990302Y-138886673D01*
X144811673Y-139065301D01*
X144715000Y-139298690D01*
X144715000Y-139514250D01*
X144873750Y-139673000D01*
X145548000Y-139673000D01*
X145548000Y-139927000D01*
X144873750Y-139927000D01*
X144715000Y-140085750D01*
X144715000Y-140301310D01*
X144744695Y-140373000D01*
X142200000Y-140373000D01*
X142150590Y-140383006D01*
X142108965Y-140411447D01*
X142081685Y-140453841D01*
X142073000Y-140500000D01*
X142073000Y-149773000D01*
X137127000Y-149773000D01*
X137127000Y-148335750D01*
X138080000Y-148335750D01*
X138080000Y-148938309D01*
X138176673Y-149171698D01*
X138355301Y-149350327D01*
X138588690Y-149447000D01*
X139569250Y-149447000D01*
X139728000Y-149288250D01*
X139728000Y-148177000D01*
X139982000Y-148177000D01*
X139982000Y-149288250D01*
X140140750Y-149447000D01*
X141121310Y-149447000D01*
X141354699Y-149350327D01*
X141533327Y-149171698D01*
X141630000Y-148938309D01*
X141630000Y-148335750D01*
X141471250Y-148177000D01*
X139982000Y-148177000D01*
X139728000Y-148177000D01*
X138238750Y-148177000D01*
X138080000Y-148335750D01*
X137127000Y-148335750D01*
X137127000Y-147161691D01*
X138080000Y-147161691D01*
X138080000Y-147764250D01*
X138238750Y-147923000D01*
X139728000Y-147923000D01*
X139728000Y-146811750D01*
X139982000Y-146811750D01*
X139982000Y-147923000D01*
X141471250Y-147923000D01*
X141630000Y-147764250D01*
X141630000Y-147161691D01*
X141533327Y-146928302D01*
X141354699Y-146749673D01*
X141121310Y-146653000D01*
X140140750Y-146653000D01*
X139982000Y-146811750D01*
X139728000Y-146811750D01*
X139569250Y-146653000D01*
X138588690Y-146653000D01*
X138355301Y-146749673D01*
X138176673Y-146928302D01*
X138080000Y-147161691D01*
X137127000Y-147161691D01*
X137127000Y-143835750D01*
X138080000Y-143835750D01*
X138080000Y-144438309D01*
X138176673Y-144671698D01*
X138355301Y-144850327D01*
X138588690Y-144947000D01*
X139569250Y-144947000D01*
X139728000Y-144788250D01*
X139728000Y-143677000D01*
X139982000Y-143677000D01*
X139982000Y-144788250D01*
X140140750Y-144947000D01*
X141121310Y-144947000D01*
X141354699Y-144850327D01*
X141533327Y-144671698D01*
X141630000Y-144438309D01*
X141630000Y-143835750D01*
X141471250Y-143677000D01*
X139982000Y-143677000D01*
X139728000Y-143677000D01*
X138238750Y-143677000D01*
X138080000Y-143835750D01*
X137127000Y-143835750D01*
X137127000Y-142661691D01*
X138080000Y-142661691D01*
X138080000Y-143264250D01*
X138238750Y-143423000D01*
X139728000Y-143423000D01*
X139728000Y-142311750D01*
X139982000Y-142311750D01*
X139982000Y-143423000D01*
X141471250Y-143423000D01*
X141630000Y-143264250D01*
X141630000Y-142661691D01*
X141533327Y-142428302D01*
X141354699Y-142249673D01*
X141121310Y-142153000D01*
X140140750Y-142153000D01*
X139982000Y-142311750D01*
X139728000Y-142311750D01*
X139569250Y-142153000D01*
X138588690Y-142153000D01*
X138355301Y-142249673D01*
X138176673Y-142428302D01*
X138080000Y-142661691D01*
X137127000Y-142661691D01*
X137127000Y-137230000D01*
X139989250Y-137230000D01*
X140148000Y-137071250D01*
X140148000Y-133927000D01*
X136623750Y-133927000D01*
X136465000Y-134085750D01*
X136465000Y-136598000D01*
X135227000Y-136598000D01*
X135227000Y-133725000D01*
X135216994Y-133675590D01*
X135188553Y-133633965D01*
X135146159Y-133606685D01*
X135100000Y-133598000D01*
X133535000Y-133598000D01*
X133535000Y-133310750D01*
X133376250Y-133152000D01*
X132077000Y-133152000D01*
X132077000Y-133172000D01*
X131823000Y-133172000D01*
X131823000Y-133152000D01*
X130523750Y-133152000D01*
X130365000Y-133310750D01*
X130365000Y-133598000D01*
X130127000Y-133598000D01*
X130127000Y-131127000D01*
X130365000Y-131127000D01*
X130365000Y-132739250D01*
G36*
X156010197Y-138789803D02*
X156052211Y-138817666D01*
X156100000Y-138827000D01*
X169073000Y-138827000D01*
X169073000Y-148073000D01*
X156300000Y-148073000D01*
X156250590Y-148083006D01*
X156210197Y-148110197D01*
X155210197Y-149110197D01*
X155181086Y-149155407D01*
X154911989Y-149873000D01*
X142927000Y-149873000D01*
X142927000Y-146085750D01*
X143250000Y-146085750D01*
X143250000Y-149301309D01*
X143346673Y-149534698D01*
X143525301Y-149713327D01*
X143758690Y-149810000D01*
X146714250Y-149810000D01*
X146873000Y-149651250D01*
X146873000Y-145927000D01*
X147127000Y-145927000D01*
X147127000Y-149651250D01*
X147285750Y-149810000D01*
X150241310Y-149810000D01*
X150474699Y-149713327D01*
X150653327Y-149534698D01*
X150750000Y-149301309D01*
X150750000Y-146085750D01*
X150591250Y-145927000D01*
X147127000Y-145927000D01*
X146873000Y-145927000D01*
X143408750Y-145927000D01*
X143250000Y-146085750D01*
X142927000Y-146085750D01*
X142927000Y-142298691D01*
X143250000Y-142298691D01*
X143250000Y-145514250D01*
X143408750Y-145673000D01*
X146873000Y-145673000D01*
X146873000Y-141948750D01*
X147127000Y-141948750D01*
X147127000Y-145673000D01*
X150591250Y-145673000D01*
X150750000Y-145514250D01*
X150750000Y-143235750D01*
X156965000Y-143235750D01*
X156965000Y-145076309D01*
X157061673Y-145309698D01*
X157240301Y-145488327D01*
X157473690Y-145585000D01*
X160814250Y-145585000D01*
X160973000Y-145426250D01*
X160973000Y-143077000D01*
X161227000Y-143077000D01*
X161227000Y-145426250D01*
X161385750Y-145585000D01*
X164726310Y-145585000D01*
X164959699Y-145488327D01*
X165138327Y-145309698D01*
X165235000Y-145076309D01*
X165235000Y-143235750D01*
X165076250Y-143077000D01*
X161227000Y-143077000D01*
X160973000Y-143077000D01*
X157123750Y-143077000D01*
X156965000Y-143235750D01*
X150750000Y-143235750D01*
X150750000Y-142298691D01*
X150653327Y-142065302D01*
X150474699Y-141886673D01*
X150241310Y-141790000D01*
X147285750Y-141790000D01*
X147127000Y-141948750D01*
X146873000Y-141948750D01*
X146714250Y-141790000D01*
X143758690Y-141790000D01*
X143525301Y-141886673D01*
X143346673Y-142065302D01*
X143250000Y-142298691D01*
X142927000Y-142298691D01*
X142927000Y-141727000D01*
X149400000Y-141727000D01*
X149449410Y-141716994D01*
X149491035Y-141688553D01*
X149518315Y-141646159D01*
X149527000Y-141600000D01*
X149527000Y-140823691D01*
X156965000Y-140823691D01*
X156965000Y-142664250D01*
X157123750Y-142823000D01*
X160973000Y-142823000D01*
X160973000Y-140473750D01*
X161227000Y-140473750D01*
X161227000Y-142823000D01*
X165076250Y-142823000D01*
X165235000Y-142664250D01*
X165235000Y-140823691D01*
X165138327Y-140590302D01*
X164959699Y-140411673D01*
X164726310Y-140315000D01*
X161385750Y-140315000D01*
X161227000Y-140473750D01*
X160973000Y-140473750D01*
X160814250Y-140315000D01*
X157473690Y-140315000D01*
X157240301Y-140411673D01*
X157061673Y-140590302D01*
X156965000Y-140823691D01*
X149527000Y-140823691D01*
X149527000Y-138700000D01*
X149627002Y-138700000D01*
X149627002Y-138541252D01*
X149785750Y-138700000D01*
X150831310Y-138700000D01*
X151064699Y-138603327D01*
X151243327Y-138424698D01*
X151340000Y-138191309D01*
X151340000Y-138226309D01*
X151436673Y-138459698D01*
X151615301Y-138638327D01*
X151848690Y-138735000D01*
X152314250Y-138735000D01*
X152473000Y-138576250D01*
X152473000Y-137727000D01*
X152727000Y-137727000D01*
X152727000Y-138576250D01*
X152885750Y-138735000D01*
X153351310Y-138735000D01*
X153584699Y-138638327D01*
X153763327Y-138459698D01*
X153860000Y-138226309D01*
X153860000Y-137885750D01*
X153701250Y-137727000D01*
X152727000Y-137727000D01*
X152473000Y-137727000D01*
X151498750Y-137727000D01*
X151340000Y-137885750D01*
X151340000Y-137895750D01*
X151181250Y-137737000D01*
X149627000Y-137737000D01*
X149627000Y-137757000D01*
X149527000Y-137757000D01*
X149527000Y-137463000D01*
X149627000Y-137463000D01*
X149627000Y-137483000D01*
X151181250Y-137483000D01*
X151340000Y-137324250D01*
X151340000Y-137318900D01*
X151343867Y-137318117D01*
X151498750Y-137473000D01*
X152473000Y-137473000D01*
X152473000Y-137453000D01*
X152727000Y-137453000D01*
X152727000Y-137473000D01*
X153701250Y-137473000D01*
X153860000Y-137314250D01*
X153860000Y-136973691D01*
X153799239Y-136827000D01*
X154047394Y-136827000D01*
X156010197Y-138789803D01*
X156010197Y-138789803D01*
G37*
X156010197Y-138789803D02*
X156052211Y-138817666D01*
X156100000Y-138827000D01*
X169073000Y-138827000D01*
X169073000Y-148073000D01*
X156300000Y-148073000D01*
X156250590Y-148083006D01*
X156210197Y-148110197D01*
X155210197Y-149110197D01*
X155181086Y-149155407D01*
X154911989Y-149873000D01*
X142927000Y-149873000D01*
X142927000Y-146085750D01*
X143250000Y-146085750D01*
X143250000Y-149301309D01*
X143346673Y-149534698D01*
X143525301Y-149713327D01*
X143758690Y-149810000D01*
X146714250Y-149810000D01*
X146873000Y-149651250D01*
X146873000Y-145927000D01*
X147127000Y-145927000D01*
X147127000Y-149651250D01*
X147285750Y-149810000D01*
X150241310Y-149810000D01*
X150474699Y-149713327D01*
X150653327Y-149534698D01*
X150750000Y-149301309D01*
X150750000Y-146085750D01*
X150591250Y-145927000D01*
X147127000Y-145927000D01*
X146873000Y-145927000D01*
X143408750Y-145927000D01*
X143250000Y-146085750D01*
X142927000Y-146085750D01*
X142927000Y-142298691D01*
X143250000Y-142298691D01*
X143250000Y-145514250D01*
X143408750Y-145673000D01*
X146873000Y-145673000D01*
X146873000Y-141948750D01*
X147127000Y-141948750D01*
X147127000Y-145673000D01*
X150591250Y-145673000D01*
X150750000Y-145514250D01*
X150750000Y-143235750D01*
X156965000Y-143235750D01*
X156965000Y-145076309D01*
X157061673Y-145309698D01*
X157240301Y-145488327D01*
X157473690Y-145585000D01*
X160814250Y-145585000D01*
X160973000Y-145426250D01*
X160973000Y-143077000D01*
X161227000Y-143077000D01*
X161227000Y-145426250D01*
X161385750Y-145585000D01*
X164726310Y-145585000D01*
X164959699Y-145488327D01*
X165138327Y-145309698D01*
X165235000Y-145076309D01*
X165235000Y-143235750D01*
X165076250Y-143077000D01*
X161227000Y-143077000D01*
X160973000Y-143077000D01*
X157123750Y-143077000D01*
X156965000Y-143235750D01*
X150750000Y-143235750D01*
X150750000Y-142298691D01*
X150653327Y-142065302D01*
X150474699Y-141886673D01*
X150241310Y-141790000D01*
X147285750Y-141790000D01*
X147127000Y-141948750D01*
X146873000Y-141948750D01*
X146714250Y-141790000D01*
X143758690Y-141790000D01*
X143525301Y-141886673D01*
X143346673Y-142065302D01*
X143250000Y-142298691D01*
X142927000Y-142298691D01*
X142927000Y-141727000D01*
X149400000Y-141727000D01*
X149449410Y-141716994D01*
X149491035Y-141688553D01*
X149518315Y-141646159D01*
X149527000Y-141600000D01*
X149527000Y-140823691D01*
X156965000Y-140823691D01*
X156965000Y-142664250D01*
X157123750Y-142823000D01*
X160973000Y-142823000D01*
X160973000Y-140473750D01*
X161227000Y-140473750D01*
X161227000Y-142823000D01*
X165076250Y-142823000D01*
X165235000Y-142664250D01*
X165235000Y-140823691D01*
X165138327Y-140590302D01*
X164959699Y-140411673D01*
X164726310Y-140315000D01*
X161385750Y-140315000D01*
X161227000Y-140473750D01*
X160973000Y-140473750D01*
X160814250Y-140315000D01*
X157473690Y-140315000D01*
X157240301Y-140411673D01*
X157061673Y-140590302D01*
X156965000Y-140823691D01*
X149527000Y-140823691D01*
X149527000Y-138700000D01*
X149627002Y-138700000D01*
X149627002Y-138541252D01*
X149785750Y-138700000D01*
X150831310Y-138700000D01*
X151064699Y-138603327D01*
X151243327Y-138424698D01*
X151340000Y-138191309D01*
X151340000Y-138226309D01*
X151436673Y-138459698D01*
X151615301Y-138638327D01*
X151848690Y-138735000D01*
X152314250Y-138735000D01*
X152473000Y-138576250D01*
X152473000Y-137727000D01*
X152727000Y-137727000D01*
X152727000Y-138576250D01*
X152885750Y-138735000D01*
X153351310Y-138735000D01*
X153584699Y-138638327D01*
X153763327Y-138459698D01*
X153860000Y-138226309D01*
X153860000Y-137885750D01*
X153701250Y-137727000D01*
X152727000Y-137727000D01*
X152473000Y-137727000D01*
X151498750Y-137727000D01*
X151340000Y-137885750D01*
X151340000Y-137895750D01*
X151181250Y-137737000D01*
X149627000Y-137737000D01*
X149627000Y-137757000D01*
X149527000Y-137757000D01*
X149527000Y-137463000D01*
X149627000Y-137463000D01*
X149627000Y-137483000D01*
X151181250Y-137483000D01*
X151340000Y-137324250D01*
X151340000Y-137318900D01*
X151343867Y-137318117D01*
X151498750Y-137473000D01*
X152473000Y-137473000D01*
X152473000Y-137453000D01*
X152727000Y-137453000D01*
X152727000Y-137473000D01*
X153701250Y-137473000D01*
X153860000Y-137314250D01*
X153860000Y-136973691D01*
X153799239Y-136827000D01*
X154047394Y-136827000D01*
X156010197Y-138789803D01*
G36*
X152773000Y-90250000D02*
X152783006Y-90299410D01*
X152811447Y-90341035D01*
X152853841Y-90368315D01*
X152900000Y-90377000D01*
X153707750Y-90377000D01*
X153743750Y-90413000D01*
X155298000Y-90413000D01*
X155298000Y-90393000D01*
X155552000Y-90393000D01*
X155552000Y-90413000D01*
X155572000Y-90413000D01*
X155572000Y-90667000D01*
X155552000Y-90667000D01*
X155552000Y-90687000D01*
X155298000Y-90687000D01*
X155298000Y-90667000D01*
X153743750Y-90667000D01*
X153585000Y-90825750D01*
X153585000Y-90848689D01*
X153581685Y-90853841D01*
X153573000Y-90900000D01*
X153573000Y-91352827D01*
X153572560Y-91355000D01*
X153572560Y-92265000D01*
X153573000Y-92267338D01*
X153573000Y-92800000D01*
X153583006Y-92849410D01*
X153611447Y-92891035D01*
X153653841Y-92918315D01*
X153700000Y-92927000D01*
X154473000Y-92927000D01*
X154473000Y-94473000D01*
X154385000Y-94473000D01*
X154385000Y-94285750D01*
X154226250Y-94127000D01*
X153477000Y-94127000D01*
X153477000Y-94147000D01*
X153223000Y-94147000D01*
X153223000Y-94127000D01*
X153203000Y-94127000D01*
X153203000Y-93873000D01*
X153223000Y-93873000D01*
X153223000Y-93148750D01*
X153477000Y-93148750D01*
X153477000Y-93873000D01*
X154226250Y-93873000D01*
X154385000Y-93714250D01*
X154385000Y-93498690D01*
X154288327Y-93265301D01*
X154109698Y-93086673D01*
X153876309Y-92990000D01*
X153635750Y-92990000D01*
X153477000Y-93148750D01*
X153223000Y-93148750D01*
X153064250Y-92990000D01*
X152827000Y-92990000D01*
X152827000Y-92600000D01*
X152816994Y-92550590D01*
X152788553Y-92508965D01*
X152746159Y-92481685D01*
X152700000Y-92473000D01*
X150127000Y-92473000D01*
X150127000Y-88777000D01*
X152773000Y-88777000D01*
X152773000Y-90250000D01*
X152773000Y-90250000D01*
G37*
X152773000Y-90250000D02*
X152783006Y-90299410D01*
X152811447Y-90341035D01*
X152853841Y-90368315D01*
X152900000Y-90377000D01*
X153707750Y-90377000D01*
X153743750Y-90413000D01*
X155298000Y-90413000D01*
X155298000Y-90393000D01*
X155552000Y-90393000D01*
X155552000Y-90413000D01*
X155572000Y-90413000D01*
X155572000Y-90667000D01*
X155552000Y-90667000D01*
X155552000Y-90687000D01*
X155298000Y-90687000D01*
X155298000Y-90667000D01*
X153743750Y-90667000D01*
X153585000Y-90825750D01*
X153585000Y-90848689D01*
X153581685Y-90853841D01*
X153573000Y-90900000D01*
X153573000Y-91352827D01*
X153572560Y-91355000D01*
X153572560Y-92265000D01*
X153573000Y-92267338D01*
X153573000Y-92800000D01*
X153583006Y-92849410D01*
X153611447Y-92891035D01*
X153653841Y-92918315D01*
X153700000Y-92927000D01*
X154473000Y-92927000D01*
X154473000Y-94473000D01*
X154385000Y-94473000D01*
X154385000Y-94285750D01*
X154226250Y-94127000D01*
X153477000Y-94127000D01*
X153477000Y-94147000D01*
X153223000Y-94147000D01*
X153223000Y-94127000D01*
X153203000Y-94127000D01*
X153203000Y-93873000D01*
X153223000Y-93873000D01*
X153223000Y-93148750D01*
X153477000Y-93148750D01*
X153477000Y-93873000D01*
X154226250Y-93873000D01*
X154385000Y-93714250D01*
X154385000Y-93498690D01*
X154288327Y-93265301D01*
X154109698Y-93086673D01*
X153876309Y-92990000D01*
X153635750Y-92990000D01*
X153477000Y-93148750D01*
X153223000Y-93148750D01*
X153064250Y-92990000D01*
X152827000Y-92990000D01*
X152827000Y-92600000D01*
X152816994Y-92550590D01*
X152788553Y-92508965D01*
X152746159Y-92481685D01*
X152700000Y-92473000D01*
X150127000Y-92473000D01*
X150127000Y-88777000D01*
X152773000Y-88777000D01*
X152773000Y-90250000D01*
G36*
X150927000Y-81273000D02*
X150947000Y-81273000D01*
X150947000Y-81527000D01*
X150927000Y-81527000D01*
X150927000Y-82501250D01*
X151085750Y-82660000D01*
X151426309Y-82660000D01*
X151659698Y-82563327D01*
X151673000Y-82550025D01*
X151673000Y-87523000D01*
X150010000Y-87523000D01*
X150010000Y-85078691D01*
X149913327Y-84845302D01*
X149734699Y-84666673D01*
X149501310Y-84570000D01*
X146485750Y-84570000D01*
X146327000Y-84728750D01*
X146327000Y-87873000D01*
X146347000Y-87873000D01*
X146347000Y-88127000D01*
X146327000Y-88127000D01*
X146327000Y-88147000D01*
X146073000Y-88147000D01*
X146073000Y-88127000D01*
X142548750Y-88127000D01*
X142390000Y-88285750D01*
X142390000Y-89098000D01*
X140227000Y-89098000D01*
X140227000Y-85078691D01*
X142390000Y-85078691D01*
X142390000Y-87714250D01*
X142548750Y-87873000D01*
X146073000Y-87873000D01*
X146073000Y-84728750D01*
X145914250Y-84570000D01*
X142898690Y-84570000D01*
X142665301Y-84666673D01*
X142486673Y-84845302D01*
X142390000Y-85078691D01*
X140227000Y-85078691D01*
X140227000Y-82127000D01*
X149600000Y-82127000D01*
X149649410Y-82116994D01*
X149665000Y-82106342D01*
X149665000Y-82151310D01*
X149761673Y-82384699D01*
X149940302Y-82563327D01*
X150173691Y-82660000D01*
X150514250Y-82660000D01*
X150673000Y-82501250D01*
X150673000Y-81527000D01*
X150653000Y-81527000D01*
X150653000Y-81273000D01*
X150673000Y-81273000D01*
X150673000Y-81253000D01*
X150927000Y-81253000D01*
X150927000Y-81273000D01*
X150927000Y-81273000D01*
G37*
X150927000Y-81273000D02*
X150947000Y-81273000D01*
X150947000Y-81527000D01*
X150927000Y-81527000D01*
X150927000Y-82501250D01*
X151085750Y-82660000D01*
X151426309Y-82660000D01*
X151659698Y-82563327D01*
X151673000Y-82550025D01*
X151673000Y-87523000D01*
X150010000Y-87523000D01*
X150010000Y-85078691D01*
X149913327Y-84845302D01*
X149734699Y-84666673D01*
X149501310Y-84570000D01*
X146485750Y-84570000D01*
X146327000Y-84728750D01*
X146327000Y-87873000D01*
X146347000Y-87873000D01*
X146347000Y-88127000D01*
X146327000Y-88127000D01*
X146327000Y-88147000D01*
X146073000Y-88147000D01*
X146073000Y-88127000D01*
X142548750Y-88127000D01*
X142390000Y-88285750D01*
X142390000Y-89098000D01*
X140227000Y-89098000D01*
X140227000Y-85078691D01*
X142390000Y-85078691D01*
X142390000Y-87714250D01*
X142548750Y-87873000D01*
X146073000Y-87873000D01*
X146073000Y-84728750D01*
X145914250Y-84570000D01*
X142898690Y-84570000D01*
X142665301Y-84666673D01*
X142486673Y-84845302D01*
X142390000Y-85078691D01*
X140227000Y-85078691D01*
X140227000Y-82127000D01*
X149600000Y-82127000D01*
X149649410Y-82116994D01*
X149665000Y-82106342D01*
X149665000Y-82151310D01*
X149761673Y-82384699D01*
X149940302Y-82563327D01*
X150173691Y-82660000D01*
X150514250Y-82660000D01*
X150673000Y-82501250D01*
X150673000Y-81527000D01*
X150653000Y-81527000D01*
X150653000Y-81273000D01*
X150673000Y-81273000D01*
X150673000Y-81253000D01*
X150927000Y-81253000D01*
X150927000Y-81273000D01*
G36*
X171473000Y-96173000D02*
X161400000Y-96173000D01*
X161350590Y-96183006D01*
X161308965Y-96211447D01*
X161281685Y-96253841D01*
X161273000Y-96300000D01*
X161273000Y-105873000D01*
X155286294Y-105873000D01*
X155086799Y-105790162D01*
X154714833Y-105789838D01*
X154513565Y-105873000D01*
X151127000Y-105873000D01*
X151127000Y-100485750D01*
X151550000Y-100485750D01*
X151550000Y-103701309D01*
X151646673Y-103934698D01*
X151825301Y-104113327D01*
X152058690Y-104210000D01*
X155014250Y-104210000D01*
X155173000Y-104051250D01*
X155173000Y-100327000D01*
X155427000Y-100327000D01*
X155427000Y-104051250D01*
X155585750Y-104210000D01*
X158541310Y-104210000D01*
X158774699Y-104113327D01*
X158953327Y-103934698D01*
X159050000Y-103701309D01*
X159050000Y-100485750D01*
X158891250Y-100327000D01*
X155427000Y-100327000D01*
X155173000Y-100327000D01*
X151708750Y-100327000D01*
X151550000Y-100485750D01*
X151127000Y-100485750D01*
X151127000Y-96698691D01*
X151550000Y-96698691D01*
X151550000Y-99914250D01*
X151708750Y-100073000D01*
X155173000Y-100073000D01*
X155173000Y-96348750D01*
X155427000Y-96348750D01*
X155427000Y-100073000D01*
X158891250Y-100073000D01*
X159050000Y-99914250D01*
X159050000Y-96698691D01*
X158953327Y-96465302D01*
X158774699Y-96286673D01*
X158541310Y-96190000D01*
X155585750Y-96190000D01*
X155427000Y-96348750D01*
X155173000Y-96348750D01*
X155014250Y-96190000D01*
X152058690Y-96190000D01*
X151825301Y-96286673D01*
X151646673Y-96465302D01*
X151550000Y-96698691D01*
X151127000Y-96698691D01*
X151127000Y-95627000D01*
X157300000Y-95627000D01*
X157349410Y-95616994D01*
X157391035Y-95588553D01*
X157418315Y-95546159D01*
X157427000Y-95500000D01*
X157427000Y-92185750D01*
X157440000Y-92185750D01*
X157440000Y-92526309D01*
X157536673Y-92759698D01*
X157715301Y-92938327D01*
X157948690Y-93035000D01*
X158414250Y-93035000D01*
X158573000Y-92876250D01*
X158573000Y-92027000D01*
X158827000Y-92027000D01*
X158827000Y-92876250D01*
X158985750Y-93035000D01*
X159451310Y-93035000D01*
X159684699Y-92938327D01*
X159863327Y-92759698D01*
X159935378Y-92585750D01*
X162965000Y-92585750D01*
X162965000Y-94426309D01*
X163061673Y-94659698D01*
X163240301Y-94838327D01*
X163473690Y-94935000D01*
X166814250Y-94935000D01*
X166973000Y-94776250D01*
X166973000Y-92427000D01*
X167227000Y-92427000D01*
X167227000Y-94776250D01*
X167385750Y-94935000D01*
X170726310Y-94935000D01*
X170959699Y-94838327D01*
X171138327Y-94659698D01*
X171235000Y-94426309D01*
X171235000Y-92585750D01*
X171076250Y-92427000D01*
X167227000Y-92427000D01*
X166973000Y-92427000D01*
X163123750Y-92427000D01*
X162965000Y-92585750D01*
X159935378Y-92585750D01*
X159960000Y-92526309D01*
X159960000Y-92185750D01*
X159801250Y-92027000D01*
X158827000Y-92027000D01*
X158573000Y-92027000D01*
X157598750Y-92027000D01*
X157440000Y-92185750D01*
X157427000Y-92185750D01*
X157427000Y-91427000D01*
X157440000Y-91427000D01*
X157440000Y-91614250D01*
X157598750Y-91773000D01*
X158573000Y-91773000D01*
X158573000Y-91753000D01*
X158827000Y-91753000D01*
X158827000Y-91773000D01*
X159801250Y-91773000D01*
X159960000Y-91614250D01*
X159960000Y-91427000D01*
X160900000Y-91427000D01*
X160949410Y-91416994D01*
X160991035Y-91388553D01*
X161018315Y-91346159D01*
X161027000Y-91300000D01*
X161027000Y-90173691D01*
X162965000Y-90173691D01*
X162965000Y-92014250D01*
X163123750Y-92173000D01*
X166973000Y-92173000D01*
X166973000Y-89823750D01*
X167227000Y-89823750D01*
X167227000Y-92173000D01*
X171076250Y-92173000D01*
X171235000Y-92014250D01*
X171235000Y-90173691D01*
X171138327Y-89940302D01*
X170959699Y-89761673D01*
X170726310Y-89665000D01*
X167385750Y-89665000D01*
X167227000Y-89823750D01*
X166973000Y-89823750D01*
X166814250Y-89665000D01*
X163473690Y-89665000D01*
X163240301Y-89761673D01*
X163061673Y-89940302D01*
X162965000Y-90173691D01*
X161027000Y-90173691D01*
X161027000Y-88027000D01*
X171473000Y-88027000D01*
X171473000Y-96173000D01*
X171473000Y-96173000D01*
G37*
X171473000Y-96173000D02*
X161400000Y-96173000D01*
X161350590Y-96183006D01*
X161308965Y-96211447D01*
X161281685Y-96253841D01*
X161273000Y-96300000D01*
X161273000Y-105873000D01*
X155286294Y-105873000D01*
X155086799Y-105790162D01*
X154714833Y-105789838D01*
X154513565Y-105873000D01*
X151127000Y-105873000D01*
X151127000Y-100485750D01*
X151550000Y-100485750D01*
X151550000Y-103701309D01*
X151646673Y-103934698D01*
X151825301Y-104113327D01*
X152058690Y-104210000D01*
X155014250Y-104210000D01*
X155173000Y-104051250D01*
X155173000Y-100327000D01*
X155427000Y-100327000D01*
X155427000Y-104051250D01*
X155585750Y-104210000D01*
X158541310Y-104210000D01*
X158774699Y-104113327D01*
X158953327Y-103934698D01*
X159050000Y-103701309D01*
X159050000Y-100485750D01*
X158891250Y-100327000D01*
X155427000Y-100327000D01*
X155173000Y-100327000D01*
X151708750Y-100327000D01*
X151550000Y-100485750D01*
X151127000Y-100485750D01*
X151127000Y-96698691D01*
X151550000Y-96698691D01*
X151550000Y-99914250D01*
X151708750Y-100073000D01*
X155173000Y-100073000D01*
X155173000Y-96348750D01*
X155427000Y-96348750D01*
X155427000Y-100073000D01*
X158891250Y-100073000D01*
X159050000Y-99914250D01*
X159050000Y-96698691D01*
X158953327Y-96465302D01*
X158774699Y-96286673D01*
X158541310Y-96190000D01*
X155585750Y-96190000D01*
X155427000Y-96348750D01*
X155173000Y-96348750D01*
X155014250Y-96190000D01*
X152058690Y-96190000D01*
X151825301Y-96286673D01*
X151646673Y-96465302D01*
X151550000Y-96698691D01*
X151127000Y-96698691D01*
X151127000Y-95627000D01*
X157300000Y-95627000D01*
X157349410Y-95616994D01*
X157391035Y-95588553D01*
X157418315Y-95546159D01*
X157427000Y-95500000D01*
X157427000Y-92185750D01*
X157440000Y-92185750D01*
X157440000Y-92526309D01*
X157536673Y-92759698D01*
X157715301Y-92938327D01*
X157948690Y-93035000D01*
X158414250Y-93035000D01*
X158573000Y-92876250D01*
X158573000Y-92027000D01*
X158827000Y-92027000D01*
X158827000Y-92876250D01*
X158985750Y-93035000D01*
X159451310Y-93035000D01*
X159684699Y-92938327D01*
X159863327Y-92759698D01*
X159935378Y-92585750D01*
X162965000Y-92585750D01*
X162965000Y-94426309D01*
X163061673Y-94659698D01*
X163240301Y-94838327D01*
X163473690Y-94935000D01*
X166814250Y-94935000D01*
X166973000Y-94776250D01*
X166973000Y-92427000D01*
X167227000Y-92427000D01*
X167227000Y-94776250D01*
X167385750Y-94935000D01*
X170726310Y-94935000D01*
X170959699Y-94838327D01*
X171138327Y-94659698D01*
X171235000Y-94426309D01*
X171235000Y-92585750D01*
X171076250Y-92427000D01*
X167227000Y-92427000D01*
X166973000Y-92427000D01*
X163123750Y-92427000D01*
X162965000Y-92585750D01*
X159935378Y-92585750D01*
X159960000Y-92526309D01*
X159960000Y-92185750D01*
X159801250Y-92027000D01*
X158827000Y-92027000D01*
X158573000Y-92027000D01*
X157598750Y-92027000D01*
X157440000Y-92185750D01*
X157427000Y-92185750D01*
X157427000Y-91427000D01*
X157440000Y-91427000D01*
X157440000Y-91614250D01*
X157598750Y-91773000D01*
X158573000Y-91773000D01*
X158573000Y-91753000D01*
X158827000Y-91753000D01*
X158827000Y-91773000D01*
X159801250Y-91773000D01*
X159960000Y-91614250D01*
X159960000Y-91427000D01*
X160900000Y-91427000D01*
X160949410Y-91416994D01*
X160991035Y-91388553D01*
X161018315Y-91346159D01*
X161027000Y-91300000D01*
X161027000Y-90173691D01*
X162965000Y-90173691D01*
X162965000Y-92014250D01*
X163123750Y-92173000D01*
X166973000Y-92173000D01*
X166973000Y-89823750D01*
X167227000Y-89823750D01*
X167227000Y-92173000D01*
X171076250Y-92173000D01*
X171235000Y-92014250D01*
X171235000Y-90173691D01*
X171138327Y-89940302D01*
X170959699Y-89761673D01*
X170726310Y-89665000D01*
X167385750Y-89665000D01*
X167227000Y-89823750D01*
X166973000Y-89823750D01*
X166814250Y-89665000D01*
X163473690Y-89665000D01*
X163240301Y-89761673D01*
X163061673Y-89940302D01*
X162965000Y-90173691D01*
X161027000Y-90173691D01*
X161027000Y-88027000D01*
X171473000Y-88027000D01*
X171473000Y-96173000D01*
G36*
X174725397Y-78137401D02*
X174971959Y-78302148D01*
X175262798Y-78360000D01*
X181465001Y-78360000D01*
X181465001Y-86873000D01*
X159472440Y-86873000D01*
X159472440Y-86575000D01*
X159428162Y-86339683D01*
X159361671Y-86236354D01*
X159363327Y-86234698D01*
X159460000Y-86001309D01*
X159460000Y-85760750D01*
X159301250Y-85602000D01*
X158577000Y-85602000D01*
X158577000Y-85622000D01*
X158323000Y-85622000D01*
X158323000Y-85602000D01*
X157598750Y-85602000D01*
X157440000Y-85760750D01*
X157440000Y-85873000D01*
X157265000Y-85873000D01*
X157265000Y-85745750D01*
X157106250Y-85587000D01*
X155552000Y-85587000D01*
X155552000Y-85607000D01*
X155298000Y-85607000D01*
X155298000Y-85587000D01*
X155278000Y-85587000D01*
X155278000Y-85333000D01*
X155298000Y-85333000D01*
X155298000Y-85313000D01*
X155552000Y-85313000D01*
X155552000Y-85333000D01*
X157106250Y-85333000D01*
X157265000Y-85174250D01*
X157265000Y-85127000D01*
X157440000Y-85127000D01*
X157440000Y-85189250D01*
X157598750Y-85348000D01*
X158323000Y-85348000D01*
X158323000Y-85328000D01*
X158577000Y-85328000D01*
X158577000Y-85348000D01*
X159301250Y-85348000D01*
X159460000Y-85189250D01*
X159460000Y-84948691D01*
X159363327Y-84715302D01*
X159184699Y-84536673D01*
X158951310Y-84440000D01*
X158739606Y-84440000D01*
X160089803Y-83089803D01*
X160117666Y-83047789D01*
X160127000Y-83000000D01*
X160127000Y-82585750D01*
X162965000Y-82585750D01*
X162965000Y-84426309D01*
X163061673Y-84659698D01*
X163240301Y-84838327D01*
X163473690Y-84935000D01*
X166814250Y-84935000D01*
X166973000Y-84776250D01*
X166973000Y-82427000D01*
X167227000Y-82427000D01*
X167227000Y-84776250D01*
X167385750Y-84935000D01*
X170726310Y-84935000D01*
X170959699Y-84838327D01*
X171138327Y-84659698D01*
X171235000Y-84426309D01*
X171235000Y-83910750D01*
X177515000Y-83910750D01*
X177515000Y-85826310D01*
X177611673Y-86059699D01*
X177790302Y-86238327D01*
X178023691Y-86335000D01*
X178814250Y-86335000D01*
X178973000Y-86176250D01*
X178973000Y-83752000D01*
X179227000Y-83752000D01*
X179227000Y-86176250D01*
X179385750Y-86335000D01*
X180176309Y-86335000D01*
X180409698Y-86238327D01*
X180588327Y-86059699D01*
X180685000Y-85826310D01*
X180685000Y-83910750D01*
X180526250Y-83752000D01*
X179227000Y-83752000D01*
X178973000Y-83752000D01*
X177673750Y-83752000D01*
X177515000Y-83910750D01*
X171235000Y-83910750D01*
X171235000Y-82585750D01*
X171076250Y-82427000D01*
X167227000Y-82427000D01*
X166973000Y-82427000D01*
X163123750Y-82427000D01*
X162965000Y-82585750D01*
X160127000Y-82585750D01*
X160127000Y-80173691D01*
X162965000Y-80173691D01*
X162965000Y-82014250D01*
X163123750Y-82173000D01*
X166973000Y-82173000D01*
X166973000Y-79823750D01*
X167227000Y-79823750D01*
X167227000Y-82173000D01*
X171076250Y-82173000D01*
X171235000Y-82014250D01*
X171235000Y-81423690D01*
X177515000Y-81423690D01*
X177515000Y-83339250D01*
X177673750Y-83498000D01*
X178973000Y-83498000D01*
X178973000Y-81073750D01*
X179227000Y-81073750D01*
X179227000Y-83498000D01*
X180526250Y-83498000D01*
X180685000Y-83339250D01*
X180685000Y-81423690D01*
X180588327Y-81190301D01*
X180409698Y-81011673D01*
X180176309Y-80915000D01*
X179385750Y-80915000D01*
X179227000Y-81073750D01*
X178973000Y-81073750D01*
X178814250Y-80915000D01*
X178023691Y-80915000D01*
X177790302Y-81011673D01*
X177611673Y-81190301D01*
X177515000Y-81423690D01*
X171235000Y-81423690D01*
X171235000Y-80173691D01*
X171138327Y-79940302D01*
X170959699Y-79761673D01*
X170726310Y-79665000D01*
X167385750Y-79665000D01*
X167227000Y-79823750D01*
X166973000Y-79823750D01*
X166814250Y-79665000D01*
X163473690Y-79665000D01*
X163240301Y-79761673D01*
X163061673Y-79940302D01*
X162965000Y-80173691D01*
X160127000Y-80173691D01*
X160127000Y-78127000D01*
X174714996Y-78127000D01*
X174725397Y-78137401D01*
X174725397Y-78137401D01*
G37*
X174725397Y-78137401D02*
X174971959Y-78302148D01*
X175262798Y-78360000D01*
X181465001Y-78360000D01*
X181465001Y-86873000D01*
X159472440Y-86873000D01*
X159472440Y-86575000D01*
X159428162Y-86339683D01*
X159361671Y-86236354D01*
X159363327Y-86234698D01*
X159460000Y-86001309D01*
X159460000Y-85760750D01*
X159301250Y-85602000D01*
X158577000Y-85602000D01*
X158577000Y-85622000D01*
X158323000Y-85622000D01*
X158323000Y-85602000D01*
X157598750Y-85602000D01*
X157440000Y-85760750D01*
X157440000Y-85873000D01*
X157265000Y-85873000D01*
X157265000Y-85745750D01*
X157106250Y-85587000D01*
X155552000Y-85587000D01*
X155552000Y-85607000D01*
X155298000Y-85607000D01*
X155298000Y-85587000D01*
X155278000Y-85587000D01*
X155278000Y-85333000D01*
X155298000Y-85333000D01*
X155298000Y-85313000D01*
X155552000Y-85313000D01*
X155552000Y-85333000D01*
X157106250Y-85333000D01*
X157265000Y-85174250D01*
X157265000Y-85127000D01*
X157440000Y-85127000D01*
X157440000Y-85189250D01*
X157598750Y-85348000D01*
X158323000Y-85348000D01*
X158323000Y-85328000D01*
X158577000Y-85328000D01*
X158577000Y-85348000D01*
X159301250Y-85348000D01*
X159460000Y-85189250D01*
X159460000Y-84948691D01*
X159363327Y-84715302D01*
X159184699Y-84536673D01*
X158951310Y-84440000D01*
X158739606Y-84440000D01*
X160089803Y-83089803D01*
X160117666Y-83047789D01*
X160127000Y-83000000D01*
X160127000Y-82585750D01*
X162965000Y-82585750D01*
X162965000Y-84426309D01*
X163061673Y-84659698D01*
X163240301Y-84838327D01*
X163473690Y-84935000D01*
X166814250Y-84935000D01*
X166973000Y-84776250D01*
X166973000Y-82427000D01*
X167227000Y-82427000D01*
X167227000Y-84776250D01*
X167385750Y-84935000D01*
X170726310Y-84935000D01*
X170959699Y-84838327D01*
X171138327Y-84659698D01*
X171235000Y-84426309D01*
X171235000Y-83910750D01*
X177515000Y-83910750D01*
X177515000Y-85826310D01*
X177611673Y-86059699D01*
X177790302Y-86238327D01*
X178023691Y-86335000D01*
X178814250Y-86335000D01*
X178973000Y-86176250D01*
X178973000Y-83752000D01*
X179227000Y-83752000D01*
X179227000Y-86176250D01*
X179385750Y-86335000D01*
X180176309Y-86335000D01*
X180409698Y-86238327D01*
X180588327Y-86059699D01*
X180685000Y-85826310D01*
X180685000Y-83910750D01*
X180526250Y-83752000D01*
X179227000Y-83752000D01*
X178973000Y-83752000D01*
X177673750Y-83752000D01*
X177515000Y-83910750D01*
X171235000Y-83910750D01*
X171235000Y-82585750D01*
X171076250Y-82427000D01*
X167227000Y-82427000D01*
X166973000Y-82427000D01*
X163123750Y-82427000D01*
X162965000Y-82585750D01*
X160127000Y-82585750D01*
X160127000Y-80173691D01*
X162965000Y-80173691D01*
X162965000Y-82014250D01*
X163123750Y-82173000D01*
X166973000Y-82173000D01*
X166973000Y-79823750D01*
X167227000Y-79823750D01*
X167227000Y-82173000D01*
X171076250Y-82173000D01*
X171235000Y-82014250D01*
X171235000Y-81423690D01*
X177515000Y-81423690D01*
X177515000Y-83339250D01*
X177673750Y-83498000D01*
X178973000Y-83498000D01*
X178973000Y-81073750D01*
X179227000Y-81073750D01*
X179227000Y-83498000D01*
X180526250Y-83498000D01*
X180685000Y-83339250D01*
X180685000Y-81423690D01*
X180588327Y-81190301D01*
X180409698Y-81011673D01*
X180176309Y-80915000D01*
X179385750Y-80915000D01*
X179227000Y-81073750D01*
X178973000Y-81073750D01*
X178814250Y-80915000D01*
X178023691Y-80915000D01*
X177790302Y-81011673D01*
X177611673Y-81190301D01*
X177515000Y-81423690D01*
X171235000Y-81423690D01*
X171235000Y-80173691D01*
X171138327Y-79940302D01*
X170959699Y-79761673D01*
X170726310Y-79665000D01*
X167385750Y-79665000D01*
X167227000Y-79823750D01*
X166973000Y-79823750D01*
X166814250Y-79665000D01*
X163473690Y-79665000D01*
X163240301Y-79761673D01*
X163061673Y-79940302D01*
X162965000Y-80173691D01*
X160127000Y-80173691D01*
X160127000Y-78127000D01*
X174714996Y-78127000D01*
X174725397Y-78137401D01*
G36*
X177611673Y-88140301D02*
X177515000Y-88373690D01*
X177515000Y-90289250D01*
X177673750Y-90448000D01*
X178973000Y-90448000D01*
X178973000Y-90428000D01*
X179227000Y-90428000D01*
X179227000Y-90448000D01*
X180526250Y-90448000D01*
X180685000Y-90289250D01*
X180685000Y-88373690D01*
X180588327Y-88140301D01*
X180475025Y-88027000D01*
X181465001Y-88027000D01*
X181465001Y-95214989D01*
X177563600Y-95214989D01*
X177321014Y-95263243D01*
X177272760Y-95272841D01*
X177026199Y-95437588D01*
X176290787Y-96173000D01*
X172877000Y-96173000D01*
X172877000Y-90860750D01*
X177515000Y-90860750D01*
X177515000Y-92776310D01*
X177611673Y-93009699D01*
X177790302Y-93188327D01*
X178023691Y-93285000D01*
X178814250Y-93285000D01*
X178973000Y-93126250D01*
X178973000Y-90702000D01*
X179227000Y-90702000D01*
X179227000Y-93126250D01*
X179385750Y-93285000D01*
X180176309Y-93285000D01*
X180409698Y-93188327D01*
X180588327Y-93009699D01*
X180685000Y-92776310D01*
X180685000Y-90860750D01*
X180526250Y-90702000D01*
X179227000Y-90702000D01*
X178973000Y-90702000D01*
X177673750Y-90702000D01*
X177515000Y-90860750D01*
X172877000Y-90860750D01*
X172877000Y-88027000D01*
X177724975Y-88027000D01*
X177611673Y-88140301D01*
X177611673Y-88140301D01*
G37*
X177611673Y-88140301D02*
X177515000Y-88373690D01*
X177515000Y-90289250D01*
X177673750Y-90448000D01*
X178973000Y-90448000D01*
X178973000Y-90428000D01*
X179227000Y-90428000D01*
X179227000Y-90448000D01*
X180526250Y-90448000D01*
X180685000Y-90289250D01*
X180685000Y-88373690D01*
X180588327Y-88140301D01*
X180475025Y-88027000D01*
X181465001Y-88027000D01*
X181465001Y-95214989D01*
X177563600Y-95214989D01*
X177321014Y-95263243D01*
X177272760Y-95272841D01*
X177026199Y-95437588D01*
X176290787Y-96173000D01*
X172877000Y-96173000D01*
X172877000Y-90860750D01*
X177515000Y-90860750D01*
X177515000Y-92776310D01*
X177611673Y-93009699D01*
X177790302Y-93188327D01*
X178023691Y-93285000D01*
X178814250Y-93285000D01*
X178973000Y-93126250D01*
X178973000Y-90702000D01*
X179227000Y-90702000D01*
X179227000Y-93126250D01*
X179385750Y-93285000D01*
X180176309Y-93285000D01*
X180409698Y-93188327D01*
X180588327Y-93009699D01*
X180685000Y-92776310D01*
X180685000Y-90860750D01*
X180526250Y-90702000D01*
X179227000Y-90702000D01*
X178973000Y-90702000D01*
X177673750Y-90702000D01*
X177515000Y-90860750D01*
X172877000Y-90860750D01*
X172877000Y-88027000D01*
X177724975Y-88027000D01*
X177611673Y-88140301D01*
G36*
X185873000Y-129673000D02*
X178150000Y-129673000D01*
X178100590Y-129683006D01*
X178058965Y-129711447D01*
X178031685Y-129753841D01*
X178023000Y-129800000D01*
X178023000Y-130154507D01*
X178007808Y-130169673D01*
X177865162Y-130513201D01*
X177864838Y-130885167D01*
X178006883Y-131228943D01*
X178023000Y-131245088D01*
X178023000Y-131654507D01*
X178007808Y-131669673D01*
X177865162Y-132013201D01*
X177864838Y-132385167D01*
X178006883Y-132728943D01*
X178023000Y-132745088D01*
X178023000Y-133204595D01*
X177957808Y-133269673D01*
X177815162Y-133613201D01*
X177814838Y-133985167D01*
X177956883Y-134328943D01*
X178023000Y-134395175D01*
X178023000Y-134673000D01*
X170527000Y-134673000D01*
X170527000Y-129727000D01*
X175875000Y-129727000D01*
X175924410Y-129716994D01*
X175966035Y-129688553D01*
X175993315Y-129646159D01*
X176002000Y-129600000D01*
X176002000Y-128280182D01*
X176013000Y-128274469D01*
X176013000Y-127067000D01*
X176267000Y-127067000D01*
X176267000Y-128274469D01*
X176499027Y-128394968D01*
X177028490Y-128146821D01*
X177422688Y-127714947D01*
X177594958Y-127299026D01*
X177473817Y-127067000D01*
X176267000Y-127067000D01*
X176013000Y-127067000D01*
X176002000Y-127067000D01*
X176002000Y-126813000D01*
X176013000Y-126813000D01*
X176013000Y-124527000D01*
X176267000Y-124527000D01*
X176267000Y-126813000D01*
X177473817Y-126813000D01*
X177594958Y-126580974D01*
X177422688Y-126165053D01*
X177165880Y-125883700D01*
X177363298Y-125801927D01*
X177541927Y-125623299D01*
X177638600Y-125389910D01*
X177638600Y-124685750D01*
X177479850Y-124527000D01*
X176267000Y-124527000D01*
X176013000Y-124527000D01*
X176002000Y-124527000D01*
X176002000Y-124273000D01*
X176013000Y-124273000D01*
X176013000Y-124253000D01*
X176267000Y-124253000D01*
X176267000Y-124273000D01*
X177479850Y-124273000D01*
X177638600Y-124114250D01*
X177638600Y-123410090D01*
X177541927Y-123176701D01*
X177363298Y-122998073D01*
X177191713Y-122927000D01*
X180100000Y-122927000D01*
X180149410Y-122916994D01*
X180191035Y-122888553D01*
X180218315Y-122846159D01*
X180227000Y-122800000D01*
X180227000Y-121595119D01*
X180511510Y-121906821D01*
X181040973Y-122154968D01*
X181273000Y-122034469D01*
X181273000Y-120827000D01*
X181527000Y-120827000D01*
X181527000Y-122034469D01*
X181759027Y-122154968D01*
X182288490Y-121906821D01*
X182670000Y-121488848D01*
X183051510Y-121906821D01*
X183580973Y-122154968D01*
X183813000Y-122034469D01*
X183813000Y-120827000D01*
X184067000Y-120827000D01*
X184067000Y-122034469D01*
X184299027Y-122154968D01*
X184828490Y-121906821D01*
X185222688Y-121474947D01*
X185394958Y-121059026D01*
X185273817Y-120827000D01*
X184067000Y-120827000D01*
X183813000Y-120827000D01*
X181527000Y-120827000D01*
X181273000Y-120827000D01*
X181253000Y-120827000D01*
X181253000Y-120573000D01*
X181273000Y-120573000D01*
X181273000Y-120553000D01*
X181527000Y-120553000D01*
X181527000Y-120573000D01*
X183813000Y-120573000D01*
X183813000Y-120553000D01*
X184067000Y-120553000D01*
X184067000Y-120573000D01*
X185273817Y-120573000D01*
X185376149Y-120377000D01*
X185873000Y-120377000D01*
X185873000Y-129673000D01*
X185873000Y-129673000D01*
G37*
X185873000Y-129673000D02*
X178150000Y-129673000D01*
X178100590Y-129683006D01*
X178058965Y-129711447D01*
X178031685Y-129753841D01*
X178023000Y-129800000D01*
X178023000Y-130154507D01*
X178007808Y-130169673D01*
X177865162Y-130513201D01*
X177864838Y-130885167D01*
X178006883Y-131228943D01*
X178023000Y-131245088D01*
X178023000Y-131654507D01*
X178007808Y-131669673D01*
X177865162Y-132013201D01*
X177864838Y-132385167D01*
X178006883Y-132728943D01*
X178023000Y-132745088D01*
X178023000Y-133204595D01*
X177957808Y-133269673D01*
X177815162Y-133613201D01*
X177814838Y-133985167D01*
X177956883Y-134328943D01*
X178023000Y-134395175D01*
X178023000Y-134673000D01*
X170527000Y-134673000D01*
X170527000Y-129727000D01*
X175875000Y-129727000D01*
X175924410Y-129716994D01*
X175966035Y-129688553D01*
X175993315Y-129646159D01*
X176002000Y-129600000D01*
X176002000Y-128280182D01*
X176013000Y-128274469D01*
X176013000Y-127067000D01*
X176267000Y-127067000D01*
X176267000Y-128274469D01*
X176499027Y-128394968D01*
X177028490Y-128146821D01*
X177422688Y-127714947D01*
X177594958Y-127299026D01*
X177473817Y-127067000D01*
X176267000Y-127067000D01*
X176013000Y-127067000D01*
X176002000Y-127067000D01*
X176002000Y-126813000D01*
X176013000Y-126813000D01*
X176013000Y-124527000D01*
X176267000Y-124527000D01*
X176267000Y-126813000D01*
X177473817Y-126813000D01*
X177594958Y-126580974D01*
X177422688Y-126165053D01*
X177165880Y-125883700D01*
X177363298Y-125801927D01*
X177541927Y-125623299D01*
X177638600Y-125389910D01*
X177638600Y-124685750D01*
X177479850Y-124527000D01*
X176267000Y-124527000D01*
X176013000Y-124527000D01*
X176002000Y-124527000D01*
X176002000Y-124273000D01*
X176013000Y-124273000D01*
X176013000Y-124253000D01*
X176267000Y-124253000D01*
X176267000Y-124273000D01*
X177479850Y-124273000D01*
X177638600Y-124114250D01*
X177638600Y-123410090D01*
X177541927Y-123176701D01*
X177363298Y-122998073D01*
X177191713Y-122927000D01*
X180100000Y-122927000D01*
X180149410Y-122916994D01*
X180191035Y-122888553D01*
X180218315Y-122846159D01*
X180227000Y-122800000D01*
X180227000Y-121595119D01*
X180511510Y-121906821D01*
X181040973Y-122154968D01*
X181273000Y-122034469D01*
X181273000Y-120827000D01*
X181527000Y-120827000D01*
X181527000Y-122034469D01*
X181759027Y-122154968D01*
X182288490Y-121906821D01*
X182670000Y-121488848D01*
X183051510Y-121906821D01*
X183580973Y-122154968D01*
X183813000Y-122034469D01*
X183813000Y-120827000D01*
X184067000Y-120827000D01*
X184067000Y-122034469D01*
X184299027Y-122154968D01*
X184828490Y-121906821D01*
X185222688Y-121474947D01*
X185394958Y-121059026D01*
X185273817Y-120827000D01*
X184067000Y-120827000D01*
X183813000Y-120827000D01*
X181527000Y-120827000D01*
X181273000Y-120827000D01*
X181253000Y-120827000D01*
X181253000Y-120573000D01*
X181273000Y-120573000D01*
X181273000Y-120553000D01*
X181527000Y-120553000D01*
X181527000Y-120573000D01*
X183813000Y-120573000D01*
X183813000Y-120553000D01*
X184067000Y-120553000D01*
X184067000Y-120573000D01*
X185273817Y-120573000D01*
X185376149Y-120377000D01*
X185873000Y-120377000D01*
X185873000Y-129673000D01*
G36*
X119323000Y-113600000D02*
X119333006Y-113649410D01*
X119361447Y-113691035D01*
X119403841Y-113718315D01*
X119450000Y-113727000D01*
X121873000Y-113727000D01*
X121873000Y-116873000D01*
X120874239Y-116873000D01*
X120935000Y-116726309D01*
X120935000Y-116085750D01*
X120776250Y-115927000D01*
X117127000Y-115927000D01*
X117127000Y-115947000D01*
X116873000Y-115947000D01*
X116873000Y-115927000D01*
X116853000Y-115927000D01*
X116853000Y-115673000D01*
X116873000Y-115673000D01*
X116873000Y-114523750D01*
X117127000Y-114523750D01*
X117127000Y-115673000D01*
X120776250Y-115673000D01*
X120935000Y-115514250D01*
X120935000Y-114873691D01*
X120838327Y-114640302D01*
X120659699Y-114461673D01*
X120426310Y-114365000D01*
X117285750Y-114365000D01*
X117127000Y-114523750D01*
X116873000Y-114523750D01*
X116714250Y-114365000D01*
X114210020Y-114365000D01*
X114210020Y-110513970D01*
X115315635Y-110513970D01*
X115475418Y-110832739D01*
X116266187Y-111142723D01*
X117115387Y-111126497D01*
X117824582Y-110832739D01*
X117984365Y-110513970D01*
X116650000Y-109179605D01*
X115315635Y-110513970D01*
X114210020Y-110513970D01*
X114210020Y-108616187D01*
X114507277Y-108616187D01*
X114523503Y-109465387D01*
X114817261Y-110174582D01*
X115136030Y-110334365D01*
X116470395Y-109000000D01*
X116829605Y-109000000D01*
X118163970Y-110334365D01*
X118482739Y-110174582D01*
X118792723Y-109383813D01*
X118776497Y-108534613D01*
X118482739Y-107825418D01*
X118163970Y-107665635D01*
X116829605Y-109000000D01*
X116470395Y-109000000D01*
X115136030Y-107665635D01*
X114817261Y-107825418D01*
X114507277Y-108616187D01*
X114210020Y-108616187D01*
X114210020Y-107564782D01*
X114288772Y-107486030D01*
X115315635Y-107486030D01*
X116650000Y-108820395D01*
X117984365Y-107486030D01*
X117824582Y-107167261D01*
X117033813Y-106857277D01*
X116184613Y-106873503D01*
X115475418Y-107167261D01*
X115315635Y-107486030D01*
X114288772Y-107486030D01*
X115547802Y-106227000D01*
X119323000Y-106227000D01*
X119323000Y-113600000D01*
X119323000Y-113600000D01*
G37*
X119323000Y-113600000D02*
X119333006Y-113649410D01*
X119361447Y-113691035D01*
X119403841Y-113718315D01*
X119450000Y-113727000D01*
X121873000Y-113727000D01*
X121873000Y-116873000D01*
X120874239Y-116873000D01*
X120935000Y-116726309D01*
X120935000Y-116085750D01*
X120776250Y-115927000D01*
X117127000Y-115927000D01*
X117127000Y-115947000D01*
X116873000Y-115947000D01*
X116873000Y-115927000D01*
X116853000Y-115927000D01*
X116853000Y-115673000D01*
X116873000Y-115673000D01*
X116873000Y-114523750D01*
X117127000Y-114523750D01*
X117127000Y-115673000D01*
X120776250Y-115673000D01*
X120935000Y-115514250D01*
X120935000Y-114873691D01*
X120838327Y-114640302D01*
X120659699Y-114461673D01*
X120426310Y-114365000D01*
X117285750Y-114365000D01*
X117127000Y-114523750D01*
X116873000Y-114523750D01*
X116714250Y-114365000D01*
X114210020Y-114365000D01*
X114210020Y-110513970D01*
X115315635Y-110513970D01*
X115475418Y-110832739D01*
X116266187Y-111142723D01*
X117115387Y-111126497D01*
X117824582Y-110832739D01*
X117984365Y-110513970D01*
X116650000Y-109179605D01*
X115315635Y-110513970D01*
X114210020Y-110513970D01*
X114210020Y-108616187D01*
X114507277Y-108616187D01*
X114523503Y-109465387D01*
X114817261Y-110174582D01*
X115136030Y-110334365D01*
X116470395Y-109000000D01*
X116829605Y-109000000D01*
X118163970Y-110334365D01*
X118482739Y-110174582D01*
X118792723Y-109383813D01*
X118776497Y-108534613D01*
X118482739Y-107825418D01*
X118163970Y-107665635D01*
X116829605Y-109000000D01*
X116470395Y-109000000D01*
X115136030Y-107665635D01*
X114817261Y-107825418D01*
X114507277Y-108616187D01*
X114210020Y-108616187D01*
X114210020Y-107564782D01*
X114288772Y-107486030D01*
X115315635Y-107486030D01*
X116650000Y-108820395D01*
X117984365Y-107486030D01*
X117824582Y-107167261D01*
X117033813Y-106857277D01*
X116184613Y-106873503D01*
X115475418Y-107167261D01*
X115315635Y-107486030D01*
X114288772Y-107486030D01*
X115547802Y-106227000D01*
X119323000Y-106227000D01*
X119323000Y-113600000D01*
G36*
X152373000Y-108973000D02*
X152035000Y-108973000D01*
X152035000Y-108585750D01*
X151876250Y-108427000D01*
X148227000Y-108427000D01*
X148227000Y-108447000D01*
X147973000Y-108447000D01*
X147973000Y-108427000D01*
X144323750Y-108427000D01*
X144165000Y-108585750D01*
X144165000Y-108973000D01*
X141635000Y-108973000D01*
X141635000Y-108585750D01*
X141476250Y-108427000D01*
X137827000Y-108427000D01*
X137827000Y-108447000D01*
X137573000Y-108447000D01*
X137573000Y-108427000D01*
X133923750Y-108427000D01*
X133765000Y-108585750D01*
X133765000Y-108973000D01*
X130000000Y-108973000D01*
X129950590Y-108983006D01*
X129910414Y-109009981D01*
X124710414Y-114184981D01*
X124682450Y-114226927D01*
X124673000Y-114275000D01*
X124673000Y-120173000D01*
X122347802Y-120173000D01*
X122237401Y-120062599D01*
X121990839Y-119897852D01*
X121700000Y-119840000D01*
X120758025Y-119840000D01*
X120838327Y-119759698D01*
X120935000Y-119526309D01*
X120935000Y-118885750D01*
X120776250Y-118727000D01*
X117127000Y-118727000D01*
X117127000Y-118747000D01*
X116873000Y-118747000D01*
X116873000Y-118727000D01*
X116853000Y-118727000D01*
X116853000Y-118473000D01*
X116873000Y-118473000D01*
X116873000Y-118453000D01*
X117127000Y-118453000D01*
X117127000Y-118473000D01*
X120776250Y-118473000D01*
X120935000Y-118314250D01*
X120935000Y-118027000D01*
X123000000Y-118027000D01*
X123049410Y-118016994D01*
X123091035Y-117988553D01*
X123118315Y-117946159D01*
X123127000Y-117900000D01*
X123127000Y-113652606D01*
X129405915Y-107373691D01*
X133765000Y-107373691D01*
X133765000Y-108014250D01*
X133923750Y-108173000D01*
X137573000Y-108173000D01*
X137573000Y-107023750D01*
X137827000Y-107023750D01*
X137827000Y-108173000D01*
X141476250Y-108173000D01*
X141635000Y-108014250D01*
X141635000Y-107373691D01*
X144165000Y-107373691D01*
X144165000Y-108014250D01*
X144323750Y-108173000D01*
X147973000Y-108173000D01*
X147973000Y-107023750D01*
X148227000Y-107023750D01*
X148227000Y-108173000D01*
X151876250Y-108173000D01*
X152035000Y-108014250D01*
X152035000Y-107373691D01*
X151938327Y-107140302D01*
X151759699Y-106961673D01*
X151526310Y-106865000D01*
X148385750Y-106865000D01*
X148227000Y-107023750D01*
X147973000Y-107023750D01*
X147814250Y-106865000D01*
X144673690Y-106865000D01*
X144440301Y-106961673D01*
X144261673Y-107140302D01*
X144165000Y-107373691D01*
X141635000Y-107373691D01*
X141538327Y-107140302D01*
X141359699Y-106961673D01*
X141126310Y-106865000D01*
X137985750Y-106865000D01*
X137827000Y-107023750D01*
X137573000Y-107023750D01*
X137414250Y-106865000D01*
X134273690Y-106865000D01*
X134040301Y-106961673D01*
X133861673Y-107140302D01*
X133765000Y-107373691D01*
X129405915Y-107373691D01*
X130052606Y-106727000D01*
X152373000Y-106727000D01*
X152373000Y-108973000D01*
X152373000Y-108973000D01*
G37*
X152373000Y-108973000D02*
X152035000Y-108973000D01*
X152035000Y-108585750D01*
X151876250Y-108427000D01*
X148227000Y-108427000D01*
X148227000Y-108447000D01*
X147973000Y-108447000D01*
X147973000Y-108427000D01*
X144323750Y-108427000D01*
X144165000Y-108585750D01*
X144165000Y-108973000D01*
X141635000Y-108973000D01*
X141635000Y-108585750D01*
X141476250Y-108427000D01*
X137827000Y-108427000D01*
X137827000Y-108447000D01*
X137573000Y-108447000D01*
X137573000Y-108427000D01*
X133923750Y-108427000D01*
X133765000Y-108585750D01*
X133765000Y-108973000D01*
X130000000Y-108973000D01*
X129950590Y-108983006D01*
X129910414Y-109009981D01*
X124710414Y-114184981D01*
X124682450Y-114226927D01*
X124673000Y-114275000D01*
X124673000Y-120173000D01*
X122347802Y-120173000D01*
X122237401Y-120062599D01*
X121990839Y-119897852D01*
X121700000Y-119840000D01*
X120758025Y-119840000D01*
X120838327Y-119759698D01*
X120935000Y-119526309D01*
X120935000Y-118885750D01*
X120776250Y-118727000D01*
X117127000Y-118727000D01*
X117127000Y-118747000D01*
X116873000Y-118747000D01*
X116873000Y-118727000D01*
X116853000Y-118727000D01*
X116853000Y-118473000D01*
X116873000Y-118473000D01*
X116873000Y-118453000D01*
X117127000Y-118453000D01*
X117127000Y-118473000D01*
X120776250Y-118473000D01*
X120935000Y-118314250D01*
X120935000Y-118027000D01*
X123000000Y-118027000D01*
X123049410Y-118016994D01*
X123091035Y-117988553D01*
X123118315Y-117946159D01*
X123127000Y-117900000D01*
X123127000Y-113652606D01*
X129405915Y-107373691D01*
X133765000Y-107373691D01*
X133765000Y-108014250D01*
X133923750Y-108173000D01*
X137573000Y-108173000D01*
X137573000Y-107023750D01*
X137827000Y-107023750D01*
X137827000Y-108173000D01*
X141476250Y-108173000D01*
X141635000Y-108014250D01*
X141635000Y-107373691D01*
X144165000Y-107373691D01*
X144165000Y-108014250D01*
X144323750Y-108173000D01*
X147973000Y-108173000D01*
X147973000Y-107023750D01*
X148227000Y-107023750D01*
X148227000Y-108173000D01*
X151876250Y-108173000D01*
X152035000Y-108014250D01*
X152035000Y-107373691D01*
X151938327Y-107140302D01*
X151759699Y-106961673D01*
X151526310Y-106865000D01*
X148385750Y-106865000D01*
X148227000Y-107023750D01*
X147973000Y-107023750D01*
X147814250Y-106865000D01*
X144673690Y-106865000D01*
X144440301Y-106961673D01*
X144261673Y-107140302D01*
X144165000Y-107373691D01*
X141635000Y-107373691D01*
X141538327Y-107140302D01*
X141359699Y-106961673D01*
X141126310Y-106865000D01*
X137985750Y-106865000D01*
X137827000Y-107023750D01*
X137573000Y-107023750D01*
X137414250Y-106865000D01*
X134273690Y-106865000D01*
X134040301Y-106961673D01*
X133861673Y-107140302D01*
X133765000Y-107373691D01*
X129405915Y-107373691D01*
X130052606Y-106727000D01*
X152373000Y-106727000D01*
X152373000Y-108973000D01*
G36*
X133765000Y-110814250D02*
X133923750Y-110973000D01*
X137573000Y-110973000D01*
X137573000Y-110953000D01*
X137827000Y-110953000D01*
X137827000Y-110973000D01*
X141476250Y-110973000D01*
X141635000Y-110814250D01*
X141635000Y-110577000D01*
X142173000Y-110577000D01*
X142173000Y-112598000D01*
X130950000Y-112598000D01*
X130900590Y-112608006D01*
X130858965Y-112636447D01*
X130831685Y-112678841D01*
X130823000Y-112725000D01*
X130823000Y-117873000D01*
X129235962Y-117873000D01*
X129574582Y-117732739D01*
X129734365Y-117413970D01*
X128400000Y-116079605D01*
X127065635Y-117413970D01*
X127225418Y-117732739D01*
X127583224Y-117873000D01*
X126078139Y-117873000D01*
X126101533Y-115252878D01*
X126528918Y-114823232D01*
X126257277Y-115516187D01*
X126273503Y-116365387D01*
X126567261Y-117074582D01*
X126886030Y-117234365D01*
X128220395Y-115900000D01*
X128579605Y-115900000D01*
X129913970Y-117234365D01*
X130232739Y-117074582D01*
X130542723Y-116283813D01*
X130526497Y-115434613D01*
X130232739Y-114725418D01*
X129913970Y-114565635D01*
X128579605Y-115900000D01*
X128220395Y-115900000D01*
X128206253Y-115885858D01*
X128385858Y-115706253D01*
X128400000Y-115720395D01*
X129734365Y-114386030D01*
X129574582Y-114067261D01*
X128783813Y-113757277D01*
X127934613Y-113773503D01*
X127319797Y-114028168D01*
X129948307Y-111385750D01*
X133765000Y-111385750D01*
X133765000Y-112026309D01*
X133861673Y-112259698D01*
X134040301Y-112438327D01*
X134273690Y-112535000D01*
X137414250Y-112535000D01*
X137573000Y-112376250D01*
X137573000Y-111227000D01*
X137827000Y-111227000D01*
X137827000Y-112376250D01*
X137985750Y-112535000D01*
X141126310Y-112535000D01*
X141359699Y-112438327D01*
X141538327Y-112259698D01*
X141635000Y-112026309D01*
X141635000Y-111385750D01*
X141476250Y-111227000D01*
X137827000Y-111227000D01*
X137573000Y-111227000D01*
X133923750Y-111227000D01*
X133765000Y-111385750D01*
X129948307Y-111385750D01*
X130752801Y-110577000D01*
X133765000Y-110577000D01*
X133765000Y-110814250D01*
X133765000Y-110814250D01*
G37*
X133765000Y-110814250D02*
X133923750Y-110973000D01*
X137573000Y-110973000D01*
X137573000Y-110953000D01*
X137827000Y-110953000D01*
X137827000Y-110973000D01*
X141476250Y-110973000D01*
X141635000Y-110814250D01*
X141635000Y-110577000D01*
X142173000Y-110577000D01*
X142173000Y-112598000D01*
X130950000Y-112598000D01*
X130900590Y-112608006D01*
X130858965Y-112636447D01*
X130831685Y-112678841D01*
X130823000Y-112725000D01*
X130823000Y-117873000D01*
X129235962Y-117873000D01*
X129574582Y-117732739D01*
X129734365Y-117413970D01*
X128400000Y-116079605D01*
X127065635Y-117413970D01*
X127225418Y-117732739D01*
X127583224Y-117873000D01*
X126078139Y-117873000D01*
X126101533Y-115252878D01*
X126528918Y-114823232D01*
X126257277Y-115516187D01*
X126273503Y-116365387D01*
X126567261Y-117074582D01*
X126886030Y-117234365D01*
X128220395Y-115900000D01*
X128579605Y-115900000D01*
X129913970Y-117234365D01*
X130232739Y-117074582D01*
X130542723Y-116283813D01*
X130526497Y-115434613D01*
X130232739Y-114725418D01*
X129913970Y-114565635D01*
X128579605Y-115900000D01*
X128220395Y-115900000D01*
X128206253Y-115885858D01*
X128385858Y-115706253D01*
X128400000Y-115720395D01*
X129734365Y-114386030D01*
X129574582Y-114067261D01*
X128783813Y-113757277D01*
X127934613Y-113773503D01*
X127319797Y-114028168D01*
X129948307Y-111385750D01*
X133765000Y-111385750D01*
X133765000Y-112026309D01*
X133861673Y-112259698D01*
X134040301Y-112438327D01*
X134273690Y-112535000D01*
X137414250Y-112535000D01*
X137573000Y-112376250D01*
X137573000Y-111227000D01*
X137827000Y-111227000D01*
X137827000Y-112376250D01*
X137985750Y-112535000D01*
X141126310Y-112535000D01*
X141359699Y-112438327D01*
X141538327Y-112259698D01*
X141635000Y-112026309D01*
X141635000Y-111385750D01*
X141476250Y-111227000D01*
X137827000Y-111227000D01*
X137573000Y-111227000D01*
X133923750Y-111227000D01*
X133765000Y-111385750D01*
X129948307Y-111385750D01*
X130752801Y-110577000D01*
X133765000Y-110577000D01*
X133765000Y-110814250D01*
G36*
X144165000Y-110814250D02*
X144323750Y-110973000D01*
X147973000Y-110973000D01*
X147973000Y-110953000D01*
X148227000Y-110953000D01*
X148227000Y-110973000D01*
X151876250Y-110973000D01*
X152035000Y-110814250D01*
X152035000Y-110802000D01*
X152373000Y-110802000D01*
X152373000Y-114473000D01*
X133575000Y-114473000D01*
X133525590Y-114483006D01*
X133483965Y-114511447D01*
X133456685Y-114553841D01*
X133448000Y-114600000D01*
X133448000Y-122090000D01*
X129969608Y-122090000D01*
X129913972Y-122034364D01*
X130232739Y-121874582D01*
X130542723Y-121083813D01*
X130526497Y-120234613D01*
X130232739Y-119525418D01*
X129913970Y-119365635D01*
X128579605Y-120700000D01*
X128593748Y-120714143D01*
X128414143Y-120893748D01*
X128400000Y-120879605D01*
X128385858Y-120893748D01*
X128206253Y-120714143D01*
X128220395Y-120700000D01*
X126886030Y-119365635D01*
X126567261Y-119525418D01*
X126257277Y-120316187D01*
X126273503Y-121165387D01*
X126567261Y-121874582D01*
X126886028Y-122034364D01*
X126830392Y-122090000D01*
X125827000Y-122090000D01*
X125827000Y-118977000D01*
X127170411Y-118977000D01*
X127065635Y-119186030D01*
X128400000Y-120520395D01*
X129734365Y-119186030D01*
X129629589Y-118977000D01*
X131825000Y-118977000D01*
X131874410Y-118966994D01*
X131916035Y-118938553D01*
X131943315Y-118896159D01*
X131952000Y-118850000D01*
X131952000Y-113602000D01*
X143500000Y-113602000D01*
X143549410Y-113591994D01*
X143591035Y-113563553D01*
X143618315Y-113521159D01*
X143627000Y-113475000D01*
X143627000Y-111385750D01*
X144165000Y-111385750D01*
X144165000Y-112026309D01*
X144261673Y-112259698D01*
X144440301Y-112438327D01*
X144673690Y-112535000D01*
X147814250Y-112535000D01*
X147973000Y-112376250D01*
X147973000Y-111227000D01*
X148227000Y-111227000D01*
X148227000Y-112376250D01*
X148385750Y-112535000D01*
X151526310Y-112535000D01*
X151759699Y-112438327D01*
X151938327Y-112259698D01*
X152035000Y-112026309D01*
X152035000Y-111385750D01*
X151876250Y-111227000D01*
X148227000Y-111227000D01*
X147973000Y-111227000D01*
X144323750Y-111227000D01*
X144165000Y-111385750D01*
X143627000Y-111385750D01*
X143627000Y-110802000D01*
X144165000Y-110802000D01*
X144165000Y-110814250D01*
X144165000Y-110814250D01*
G37*
X144165000Y-110814250D02*
X144323750Y-110973000D01*
X147973000Y-110973000D01*
X147973000Y-110953000D01*
X148227000Y-110953000D01*
X148227000Y-110973000D01*
X151876250Y-110973000D01*
X152035000Y-110814250D01*
X152035000Y-110802000D01*
X152373000Y-110802000D01*
X152373000Y-114473000D01*
X133575000Y-114473000D01*
X133525590Y-114483006D01*
X133483965Y-114511447D01*
X133456685Y-114553841D01*
X133448000Y-114600000D01*
X133448000Y-122090000D01*
X129969608Y-122090000D01*
X129913972Y-122034364D01*
X130232739Y-121874582D01*
X130542723Y-121083813D01*
X130526497Y-120234613D01*
X130232739Y-119525418D01*
X129913970Y-119365635D01*
X128579605Y-120700000D01*
X128593748Y-120714143D01*
X128414143Y-120893748D01*
X128400000Y-120879605D01*
X128385858Y-120893748D01*
X128206253Y-120714143D01*
X128220395Y-120700000D01*
X126886030Y-119365635D01*
X126567261Y-119525418D01*
X126257277Y-120316187D01*
X126273503Y-121165387D01*
X126567261Y-121874582D01*
X126886028Y-122034364D01*
X126830392Y-122090000D01*
X125827000Y-122090000D01*
X125827000Y-118977000D01*
X127170411Y-118977000D01*
X127065635Y-119186030D01*
X128400000Y-120520395D01*
X129734365Y-119186030D01*
X129629589Y-118977000D01*
X131825000Y-118977000D01*
X131874410Y-118966994D01*
X131916035Y-118938553D01*
X131943315Y-118896159D01*
X131952000Y-118850000D01*
X131952000Y-113602000D01*
X143500000Y-113602000D01*
X143549410Y-113591994D01*
X143591035Y-113563553D01*
X143618315Y-113521159D01*
X143627000Y-113475000D01*
X143627000Y-111385750D01*
X144165000Y-111385750D01*
X144165000Y-112026309D01*
X144261673Y-112259698D01*
X144440301Y-112438327D01*
X144673690Y-112535000D01*
X147814250Y-112535000D01*
X147973000Y-112376250D01*
X147973000Y-111227000D01*
X148227000Y-111227000D01*
X148227000Y-112376250D01*
X148385750Y-112535000D01*
X151526310Y-112535000D01*
X151759699Y-112438327D01*
X151938327Y-112259698D01*
X152035000Y-112026309D01*
X152035000Y-111385750D01*
X151876250Y-111227000D01*
X148227000Y-111227000D01*
X147973000Y-111227000D01*
X144323750Y-111227000D01*
X144165000Y-111385750D01*
X143627000Y-111385750D01*
X143627000Y-110802000D01*
X144165000Y-110802000D01*
X144165000Y-110814250D01*
G36*
X180695874Y-101395676D02*
X180694367Y-101765000D01*
X179485750Y-101765000D01*
X179327000Y-101923750D01*
X179327000Y-103723000D01*
X179347000Y-103723000D01*
X179347000Y-103977000D01*
X179327000Y-103977000D01*
X179327000Y-105776250D01*
X179485750Y-105935000D01*
X180677346Y-105935000D01*
X180673517Y-106873000D01*
X175000000Y-106873000D01*
X174950590Y-106883006D01*
X174910197Y-106910197D01*
X172547394Y-109273000D01*
X155754250Y-109273000D01*
X155743117Y-109246057D01*
X155480327Y-108982808D01*
X155136799Y-108840162D01*
X154764833Y-108839838D01*
X154421057Y-108981883D01*
X154157808Y-109244673D01*
X154146046Y-109273000D01*
X152015660Y-109273000D01*
X152035000Y-109226309D01*
X152035000Y-108585750D01*
X151927000Y-108477750D01*
X151927000Y-108122250D01*
X152035000Y-108014250D01*
X152035000Y-107373691D01*
X151938327Y-107140302D01*
X151927000Y-107128975D01*
X151927000Y-106727000D01*
X153964998Y-106727000D01*
X153964838Y-106910167D01*
X154106883Y-107253943D01*
X154369673Y-107517192D01*
X154713201Y-107659838D01*
X155085167Y-107660162D01*
X155428943Y-107518117D01*
X155462118Y-107485000D01*
X161625000Y-107485000D01*
X161915839Y-107427148D01*
X162162401Y-107262401D01*
X162762401Y-106662401D01*
X162927148Y-106415839D01*
X162985000Y-106125000D01*
X162985000Y-106110750D01*
X164615000Y-106110750D01*
X164615000Y-108026310D01*
X164711673Y-108259699D01*
X164890302Y-108438327D01*
X165123691Y-108535000D01*
X165914250Y-108535000D01*
X166073000Y-108376250D01*
X166073000Y-105952000D01*
X166327000Y-105952000D01*
X166327000Y-108376250D01*
X166485750Y-108535000D01*
X167276309Y-108535000D01*
X167509698Y-108438327D01*
X167688327Y-108259699D01*
X167785000Y-108026310D01*
X167785000Y-106110750D01*
X167626250Y-105952000D01*
X166327000Y-105952000D01*
X166073000Y-105952000D01*
X164773750Y-105952000D01*
X164615000Y-106110750D01*
X162985000Y-106110750D01*
X162985000Y-103564802D01*
X162989802Y-103560000D01*
X164641381Y-103560000D01*
X164615000Y-103623690D01*
X164615000Y-105539250D01*
X164773750Y-105698000D01*
X166073000Y-105698000D01*
X166073000Y-105678000D01*
X166327000Y-105678000D01*
X166327000Y-105698000D01*
X167626250Y-105698000D01*
X167785000Y-105539250D01*
X167785000Y-104135750D01*
X175865000Y-104135750D01*
X175865000Y-105426310D01*
X175961673Y-105659699D01*
X176140302Y-105838327D01*
X176373691Y-105935000D01*
X178914250Y-105935000D01*
X179073000Y-105776250D01*
X179073000Y-103977000D01*
X176023750Y-103977000D01*
X175865000Y-104135750D01*
X167785000Y-104135750D01*
X167785000Y-103623690D01*
X167758619Y-103560000D01*
X168012537Y-103560000D01*
X168044673Y-103592192D01*
X168388201Y-103734838D01*
X168760167Y-103735162D01*
X169103943Y-103593117D01*
X169367192Y-103330327D01*
X169509838Y-102986799D01*
X169510151Y-102627000D01*
X171000000Y-102627000D01*
X171068730Y-102606795D01*
X171586324Y-102273690D01*
X175865000Y-102273690D01*
X175865000Y-103564250D01*
X176023750Y-103723000D01*
X179073000Y-103723000D01*
X179073000Y-101923750D01*
X178914250Y-101765000D01*
X176373691Y-101765000D01*
X176140302Y-101861673D01*
X175961673Y-102040301D01*
X175865000Y-102273690D01*
X171586324Y-102273690D01*
X173562335Y-101002000D01*
X180302199Y-101002000D01*
X180695874Y-101395676D01*
X180695874Y-101395676D01*
G37*
X180695874Y-101395676D02*
X180694367Y-101765000D01*
X179485750Y-101765000D01*
X179327000Y-101923750D01*
X179327000Y-103723000D01*
X179347000Y-103723000D01*
X179347000Y-103977000D01*
X179327000Y-103977000D01*
X179327000Y-105776250D01*
X179485750Y-105935000D01*
X180677346Y-105935000D01*
X180673517Y-106873000D01*
X175000000Y-106873000D01*
X174950590Y-106883006D01*
X174910197Y-106910197D01*
X172547394Y-109273000D01*
X155754250Y-109273000D01*
X155743117Y-109246057D01*
X155480327Y-108982808D01*
X155136799Y-108840162D01*
X154764833Y-108839838D01*
X154421057Y-108981883D01*
X154157808Y-109244673D01*
X154146046Y-109273000D01*
X152015660Y-109273000D01*
X152035000Y-109226309D01*
X152035000Y-108585750D01*
X151927000Y-108477750D01*
X151927000Y-108122250D01*
X152035000Y-108014250D01*
X152035000Y-107373691D01*
X151938327Y-107140302D01*
X151927000Y-107128975D01*
X151927000Y-106727000D01*
X153964998Y-106727000D01*
X153964838Y-106910167D01*
X154106883Y-107253943D01*
X154369673Y-107517192D01*
X154713201Y-107659838D01*
X155085167Y-107660162D01*
X155428943Y-107518117D01*
X155462118Y-107485000D01*
X161625000Y-107485000D01*
X161915839Y-107427148D01*
X162162401Y-107262401D01*
X162762401Y-106662401D01*
X162927148Y-106415839D01*
X162985000Y-106125000D01*
X162985000Y-106110750D01*
X164615000Y-106110750D01*
X164615000Y-108026310D01*
X164711673Y-108259699D01*
X164890302Y-108438327D01*
X165123691Y-108535000D01*
X165914250Y-108535000D01*
X166073000Y-108376250D01*
X166073000Y-105952000D01*
X166327000Y-105952000D01*
X166327000Y-108376250D01*
X166485750Y-108535000D01*
X167276309Y-108535000D01*
X167509698Y-108438327D01*
X167688327Y-108259699D01*
X167785000Y-108026310D01*
X167785000Y-106110750D01*
X167626250Y-105952000D01*
X166327000Y-105952000D01*
X166073000Y-105952000D01*
X164773750Y-105952000D01*
X164615000Y-106110750D01*
X162985000Y-106110750D01*
X162985000Y-103564802D01*
X162989802Y-103560000D01*
X164641381Y-103560000D01*
X164615000Y-103623690D01*
X164615000Y-105539250D01*
X164773750Y-105698000D01*
X166073000Y-105698000D01*
X166073000Y-105678000D01*
X166327000Y-105678000D01*
X166327000Y-105698000D01*
X167626250Y-105698000D01*
X167785000Y-105539250D01*
X167785000Y-104135750D01*
X175865000Y-104135750D01*
X175865000Y-105426310D01*
X175961673Y-105659699D01*
X176140302Y-105838327D01*
X176373691Y-105935000D01*
X178914250Y-105935000D01*
X179073000Y-105776250D01*
X179073000Y-103977000D01*
X176023750Y-103977000D01*
X175865000Y-104135750D01*
X167785000Y-104135750D01*
X167785000Y-103623690D01*
X167758619Y-103560000D01*
X168012537Y-103560000D01*
X168044673Y-103592192D01*
X168388201Y-103734838D01*
X168760167Y-103735162D01*
X169103943Y-103593117D01*
X169367192Y-103330327D01*
X169509838Y-102986799D01*
X169510151Y-102627000D01*
X171000000Y-102627000D01*
X171068730Y-102606795D01*
X171586324Y-102273690D01*
X175865000Y-102273690D01*
X175865000Y-103564250D01*
X176023750Y-103723000D01*
X179073000Y-103723000D01*
X179073000Y-101923750D01*
X178914250Y-101765000D01*
X176373691Y-101765000D01*
X176140302Y-101861673D01*
X175961673Y-102040301D01*
X175865000Y-102273690D01*
X171586324Y-102273690D01*
X173562335Y-101002000D01*
X180302199Y-101002000D01*
X180695874Y-101395676D01*
G36*
X113075000Y-129773000D02*
X113097000Y-129773000D01*
X113097000Y-130027000D01*
X113075000Y-130027000D01*
X113075000Y-130826250D01*
X113233750Y-130985000D01*
X113326309Y-130985000D01*
X113559698Y-130888327D01*
X113573000Y-130875025D01*
X113573000Y-132600000D01*
X113583006Y-132649410D01*
X113611447Y-132691035D01*
X113653841Y-132718315D01*
X113700000Y-132727000D01*
X116065000Y-132727000D01*
X116065000Y-133114250D01*
X116223750Y-133273000D01*
X117773000Y-133273000D01*
X117773000Y-133253000D01*
X118027000Y-133253000D01*
X118027000Y-133273000D01*
X119576250Y-133273000D01*
X119735000Y-133114250D01*
X119735000Y-132727000D01*
X120300000Y-132727000D01*
X120349410Y-132716994D01*
X120391035Y-132688553D01*
X120418315Y-132646159D01*
X120427000Y-132600000D01*
X120427000Y-131663272D01*
X120571431Y-131451890D01*
X120586597Y-131377000D01*
X121698000Y-131377000D01*
X121698000Y-135148000D01*
X120438272Y-135148000D01*
X120427000Y-135140298D01*
X120427000Y-134000000D01*
X120416994Y-133950590D01*
X120388553Y-133908965D01*
X120346159Y-133881685D01*
X120300000Y-133873000D01*
X119735000Y-133873000D01*
X119735000Y-133685750D01*
X119576250Y-133527000D01*
X118027000Y-133527000D01*
X118027000Y-133547000D01*
X117773000Y-133547000D01*
X117773000Y-133527000D01*
X116223750Y-133527000D01*
X116065000Y-133685750D01*
X116065000Y-133873000D01*
X113700000Y-133873000D01*
X113650590Y-133883006D01*
X113608965Y-133911447D01*
X113581685Y-133953841D01*
X113573000Y-134000000D01*
X113573000Y-135000000D01*
X113583006Y-135049410D01*
X113611447Y-135091035D01*
X113653841Y-135118315D01*
X113697510Y-135126976D01*
X114848000Y-135149535D01*
X114848000Y-137698000D01*
X112710000Y-137698000D01*
X112710000Y-135833246D01*
X112726999Y-131600510D01*
X112727000Y-131600000D01*
X112727000Y-130924250D01*
X112825000Y-130826250D01*
X112825000Y-130027000D01*
X112803000Y-130027000D01*
X112803000Y-129773000D01*
X112825000Y-129773000D01*
X112825000Y-129753000D01*
X113075000Y-129753000D01*
X113075000Y-129773000D01*
X113075000Y-129773000D01*
G37*
X113075000Y-129773000D02*
X113097000Y-129773000D01*
X113097000Y-130027000D01*
X113075000Y-130027000D01*
X113075000Y-130826250D01*
X113233750Y-130985000D01*
X113326309Y-130985000D01*
X113559698Y-130888327D01*
X113573000Y-130875025D01*
X113573000Y-132600000D01*
X113583006Y-132649410D01*
X113611447Y-132691035D01*
X113653841Y-132718315D01*
X113700000Y-132727000D01*
X116065000Y-132727000D01*
X116065000Y-133114250D01*
X116223750Y-133273000D01*
X117773000Y-133273000D01*
X117773000Y-133253000D01*
X118027000Y-133253000D01*
X118027000Y-133273000D01*
X119576250Y-133273000D01*
X119735000Y-133114250D01*
X119735000Y-132727000D01*
X120300000Y-132727000D01*
X120349410Y-132716994D01*
X120391035Y-132688553D01*
X120418315Y-132646159D01*
X120427000Y-132600000D01*
X120427000Y-131663272D01*
X120571431Y-131451890D01*
X120586597Y-131377000D01*
X121698000Y-131377000D01*
X121698000Y-135148000D01*
X120438272Y-135148000D01*
X120427000Y-135140298D01*
X120427000Y-134000000D01*
X120416994Y-133950590D01*
X120388553Y-133908965D01*
X120346159Y-133881685D01*
X120300000Y-133873000D01*
X119735000Y-133873000D01*
X119735000Y-133685750D01*
X119576250Y-133527000D01*
X118027000Y-133527000D01*
X118027000Y-133547000D01*
X117773000Y-133547000D01*
X117773000Y-133527000D01*
X116223750Y-133527000D01*
X116065000Y-133685750D01*
X116065000Y-133873000D01*
X113700000Y-133873000D01*
X113650590Y-133883006D01*
X113608965Y-133911447D01*
X113581685Y-133953841D01*
X113573000Y-134000000D01*
X113573000Y-135000000D01*
X113583006Y-135049410D01*
X113611447Y-135091035D01*
X113653841Y-135118315D01*
X113697510Y-135126976D01*
X114848000Y-135149535D01*
X114848000Y-137698000D01*
X112710000Y-137698000D01*
X112710000Y-135833246D01*
X112726999Y-131600510D01*
X112727000Y-131600000D01*
X112727000Y-130924250D01*
X112825000Y-130826250D01*
X112825000Y-130027000D01*
X112803000Y-130027000D01*
X112803000Y-129773000D01*
X112825000Y-129773000D01*
X112825000Y-129753000D01*
X113075000Y-129753000D01*
X113075000Y-129773000D01*
G36*
X122825000Y-136319250D02*
X122983750Y-136478000D01*
X124033000Y-136478000D01*
X124033000Y-136458000D01*
X124287000Y-136458000D01*
X124287000Y-136478000D01*
X126113000Y-136478000D01*
X126113000Y-136458000D01*
X126367000Y-136458000D01*
X126367000Y-136478000D01*
X127416250Y-136478000D01*
X127575000Y-136319250D01*
X127575000Y-135977000D01*
X128073000Y-135977000D01*
X128073000Y-147873000D01*
X127657360Y-147873000D01*
X127917723Y-147208813D01*
X127901497Y-146359613D01*
X127607739Y-145650418D01*
X127288970Y-145490635D01*
X125954605Y-146825000D01*
X125968748Y-146839143D01*
X125789143Y-147018748D01*
X125775000Y-147004605D01*
X125760858Y-147018748D01*
X125581253Y-146839143D01*
X125595395Y-146825000D01*
X124261030Y-145490635D01*
X123942261Y-145650418D01*
X123632277Y-146441187D01*
X123648503Y-147290387D01*
X123889829Y-147873000D01*
X123427000Y-147873000D01*
X123427000Y-145311030D01*
X124440635Y-145311030D01*
X125775000Y-146645395D01*
X127109365Y-145311030D01*
X126949582Y-144992261D01*
X126158813Y-144682277D01*
X125309613Y-144698503D01*
X124600418Y-144992261D01*
X124440635Y-145311030D01*
X123427000Y-145311030D01*
X123427000Y-138800000D01*
X123416994Y-138750590D01*
X123388553Y-138708965D01*
X123346159Y-138681685D01*
X123300000Y-138673000D01*
X122627000Y-138673000D01*
X122627000Y-136890750D01*
X122825000Y-136890750D01*
X122825000Y-137366310D01*
X122921673Y-137599699D01*
X123100302Y-137778327D01*
X123333691Y-137875000D01*
X123874250Y-137875000D01*
X124033000Y-137716250D01*
X124033000Y-136732000D01*
X124287000Y-136732000D01*
X124287000Y-137716250D01*
X124445750Y-137875000D01*
X124986309Y-137875000D01*
X125200000Y-137786486D01*
X125413691Y-137875000D01*
X125954250Y-137875000D01*
X126113000Y-137716250D01*
X126113000Y-136732000D01*
X126367000Y-136732000D01*
X126367000Y-137716250D01*
X126525750Y-137875000D01*
X127066309Y-137875000D01*
X127299698Y-137778327D01*
X127478327Y-137599699D01*
X127575000Y-137366310D01*
X127575000Y-136890750D01*
X127416250Y-136732000D01*
X126367000Y-136732000D01*
X126113000Y-136732000D01*
X124287000Y-136732000D01*
X124033000Y-136732000D01*
X122983750Y-136732000D01*
X122825000Y-136890750D01*
X122627000Y-136890750D01*
X122627000Y-135977000D01*
X122825000Y-135977000D01*
X122825000Y-136319250D01*
X122825000Y-136319250D01*
G37*
X122825000Y-136319250D02*
X122983750Y-136478000D01*
X124033000Y-136478000D01*
X124033000Y-136458000D01*
X124287000Y-136458000D01*
X124287000Y-136478000D01*
X126113000Y-136478000D01*
X126113000Y-136458000D01*
X126367000Y-136458000D01*
X126367000Y-136478000D01*
X127416250Y-136478000D01*
X127575000Y-136319250D01*
X127575000Y-135977000D01*
X128073000Y-135977000D01*
X128073000Y-147873000D01*
X127657360Y-147873000D01*
X127917723Y-147208813D01*
X127901497Y-146359613D01*
X127607739Y-145650418D01*
X127288970Y-145490635D01*
X125954605Y-146825000D01*
X125968748Y-146839143D01*
X125789143Y-147018748D01*
X125775000Y-147004605D01*
X125760858Y-147018748D01*
X125581253Y-146839143D01*
X125595395Y-146825000D01*
X124261030Y-145490635D01*
X123942261Y-145650418D01*
X123632277Y-146441187D01*
X123648503Y-147290387D01*
X123889829Y-147873000D01*
X123427000Y-147873000D01*
X123427000Y-145311030D01*
X124440635Y-145311030D01*
X125775000Y-146645395D01*
X127109365Y-145311030D01*
X126949582Y-144992261D01*
X126158813Y-144682277D01*
X125309613Y-144698503D01*
X124600418Y-144992261D01*
X124440635Y-145311030D01*
X123427000Y-145311030D01*
X123427000Y-138800000D01*
X123416994Y-138750590D01*
X123388553Y-138708965D01*
X123346159Y-138681685D01*
X123300000Y-138673000D01*
X122627000Y-138673000D01*
X122627000Y-136890750D01*
X122825000Y-136890750D01*
X122825000Y-137366310D01*
X122921673Y-137599699D01*
X123100302Y-137778327D01*
X123333691Y-137875000D01*
X123874250Y-137875000D01*
X124033000Y-137716250D01*
X124033000Y-136732000D01*
X124287000Y-136732000D01*
X124287000Y-137716250D01*
X124445750Y-137875000D01*
X124986309Y-137875000D01*
X125200000Y-137786486D01*
X125413691Y-137875000D01*
X125954250Y-137875000D01*
X126113000Y-137716250D01*
X126113000Y-136732000D01*
X126367000Y-136732000D01*
X126367000Y-137716250D01*
X126525750Y-137875000D01*
X127066309Y-137875000D01*
X127299698Y-137778327D01*
X127478327Y-137599699D01*
X127575000Y-137366310D01*
X127575000Y-136890750D01*
X127416250Y-136732000D01*
X126367000Y-136732000D01*
X126113000Y-136732000D01*
X124287000Y-136732000D01*
X124033000Y-136732000D01*
X122983750Y-136732000D01*
X122825000Y-136890750D01*
X122627000Y-136890750D01*
X122627000Y-135977000D01*
X122825000Y-135977000D01*
X122825000Y-136319250D01*
G36*
X142773000Y-105873000D02*
X129600000Y-105873000D01*
X129550590Y-105883006D01*
X129510197Y-105910197D01*
X126287921Y-109132473D01*
X126276497Y-108534613D01*
X125982739Y-107825418D01*
X125663970Y-107665635D01*
X124329605Y-109000000D01*
X124343748Y-109014143D01*
X124164143Y-109193748D01*
X124150000Y-109179605D01*
X122815635Y-110513970D01*
X122975418Y-110832739D01*
X123766187Y-111142723D01*
X124287635Y-111132759D01*
X122672394Y-112748000D01*
X120327000Y-112748000D01*
X120327000Y-108616187D01*
X122007277Y-108616187D01*
X122023503Y-109465387D01*
X122317261Y-110174582D01*
X122636030Y-110334365D01*
X123970395Y-109000000D01*
X122636030Y-107665635D01*
X122317261Y-107825418D01*
X122007277Y-108616187D01*
X120327000Y-108616187D01*
X120327000Y-107486030D01*
X122815635Y-107486030D01*
X124150000Y-108820395D01*
X125484365Y-107486030D01*
X125324582Y-107167261D01*
X124533813Y-106857277D01*
X123684613Y-106873503D01*
X122975418Y-107167261D01*
X122815635Y-107486030D01*
X120327000Y-107486030D01*
X120327000Y-104027000D01*
X139100000Y-104027000D01*
X139149410Y-104016994D01*
X139191035Y-103988553D01*
X139218315Y-103946159D01*
X139227000Y-103900000D01*
X139227000Y-96577000D01*
X142773000Y-96577000D01*
X142773000Y-105873000D01*
X142773000Y-105873000D01*
G37*
X142773000Y-105873000D02*
X129600000Y-105873000D01*
X129550590Y-105883006D01*
X129510197Y-105910197D01*
X126287921Y-109132473D01*
X126276497Y-108534613D01*
X125982739Y-107825418D01*
X125663970Y-107665635D01*
X124329605Y-109000000D01*
X124343748Y-109014143D01*
X124164143Y-109193748D01*
X124150000Y-109179605D01*
X122815635Y-110513970D01*
X122975418Y-110832739D01*
X123766187Y-111142723D01*
X124287635Y-111132759D01*
X122672394Y-112748000D01*
X120327000Y-112748000D01*
X120327000Y-108616187D01*
X122007277Y-108616187D01*
X122023503Y-109465387D01*
X122317261Y-110174582D01*
X122636030Y-110334365D01*
X123970395Y-109000000D01*
X122636030Y-107665635D01*
X122317261Y-107825418D01*
X122007277Y-108616187D01*
X120327000Y-108616187D01*
X120327000Y-107486030D01*
X122815635Y-107486030D01*
X124150000Y-108820395D01*
X125484365Y-107486030D01*
X125324582Y-107167261D01*
X124533813Y-106857277D01*
X123684613Y-106873503D01*
X122975418Y-107167261D01*
X122815635Y-107486030D01*
X120327000Y-107486030D01*
X120327000Y-104027000D01*
X139100000Y-104027000D01*
X139149410Y-104016994D01*
X139191035Y-103988553D01*
X139218315Y-103946159D01*
X139227000Y-103900000D01*
X139227000Y-96577000D01*
X142773000Y-96577000D01*
X142773000Y-105873000D01*
G36*
X181465001Y-111665000D02*
X179485750Y-111665000D01*
X179327000Y-111823750D01*
X179327000Y-113623000D01*
X179347000Y-113623000D01*
X179347000Y-113877000D01*
X179327000Y-113877000D01*
X179327000Y-113897000D01*
X179073000Y-113897000D01*
X179073000Y-113877000D01*
X176023750Y-113877000D01*
X175865000Y-114035750D01*
X175865000Y-114973000D01*
X170027000Y-114973000D01*
X170027000Y-112173690D01*
X175865000Y-112173690D01*
X175865000Y-113464250D01*
X176023750Y-113623000D01*
X179073000Y-113623000D01*
X179073000Y-111823750D01*
X178914250Y-111665000D01*
X176373691Y-111665000D01*
X176140302Y-111761673D01*
X175961673Y-111940301D01*
X175865000Y-112173690D01*
X170027000Y-112173690D01*
X170027000Y-110352000D01*
X173825000Y-110352000D01*
X173874410Y-110341994D01*
X173914803Y-110314803D01*
X176277606Y-107952000D01*
X181465001Y-107952000D01*
X181465001Y-111665000D01*
X181465001Y-111665000D01*
G37*
X181465001Y-111665000D02*
X179485750Y-111665000D01*
X179327000Y-111823750D01*
X179327000Y-113623000D01*
X179347000Y-113623000D01*
X179347000Y-113877000D01*
X179327000Y-113877000D01*
X179327000Y-113897000D01*
X179073000Y-113897000D01*
X179073000Y-113877000D01*
X176023750Y-113877000D01*
X175865000Y-114035750D01*
X175865000Y-114973000D01*
X170027000Y-114973000D01*
X170027000Y-112173690D01*
X175865000Y-112173690D01*
X175865000Y-113464250D01*
X176023750Y-113623000D01*
X179073000Y-113623000D01*
X179073000Y-111823750D01*
X178914250Y-111665000D01*
X176373691Y-111665000D01*
X176140302Y-111761673D01*
X175961673Y-111940301D01*
X175865000Y-112173690D01*
X170027000Y-112173690D01*
X170027000Y-110352000D01*
X173825000Y-110352000D01*
X173874410Y-110341994D01*
X173914803Y-110314803D01*
X176277606Y-107952000D01*
X181465001Y-107952000D01*
X181465001Y-111665000D01*
G36*
X128323000Y-134500000D02*
X128333006Y-134549410D01*
X128361447Y-134591035D01*
X128403841Y-134618315D01*
X128450000Y-134627000D01*
X130323000Y-134627000D01*
X130323000Y-137475000D01*
X130333006Y-137524410D01*
X130361447Y-137566035D01*
X130403841Y-137593315D01*
X130437120Y-137599577D01*
X130365000Y-137773690D01*
X130365000Y-139689250D01*
X130523750Y-139848000D01*
X131823000Y-139848000D01*
X131823000Y-139828000D01*
X132077000Y-139828000D01*
X132077000Y-139848000D01*
X133376250Y-139848000D01*
X133535000Y-139689250D01*
X133535000Y-137773690D01*
X133463884Y-137602000D01*
X133999183Y-137602000D01*
X135848000Y-137625403D01*
X135848000Y-144073000D01*
X129152352Y-144073000D01*
X129162882Y-140260750D01*
X130365000Y-140260750D01*
X130365000Y-142176310D01*
X130461673Y-142409699D01*
X130640302Y-142588327D01*
X130873691Y-142685000D01*
X131664250Y-142685000D01*
X131823000Y-142526250D01*
X131823000Y-140102000D01*
X132077000Y-140102000D01*
X132077000Y-142526250D01*
X132235750Y-142685000D01*
X133026309Y-142685000D01*
X133259698Y-142588327D01*
X133438327Y-142409699D01*
X133535000Y-142176310D01*
X133535000Y-140260750D01*
X133376250Y-140102000D01*
X132077000Y-140102000D01*
X131823000Y-140102000D01*
X130523750Y-140102000D01*
X130365000Y-140260750D01*
X129162882Y-140260750D01*
X129177000Y-135150351D01*
X129167130Y-135100913D01*
X129138805Y-135059210D01*
X129096486Y-135031813D01*
X129050000Y-135023000D01*
X128235000Y-135023000D01*
X128235000Y-133085750D01*
X128076250Y-132927000D01*
X125327000Y-132927000D01*
X125327000Y-132947000D01*
X125073000Y-132947000D01*
X125073000Y-132927000D01*
X125053000Y-132927000D01*
X125053000Y-132673000D01*
X125073000Y-132673000D01*
X125073000Y-129963750D01*
X125327000Y-129963750D01*
X125327000Y-132673000D01*
X128076250Y-132673000D01*
X128235000Y-132514250D01*
X128235000Y-130313690D01*
X128138327Y-130080301D01*
X127959698Y-129901673D01*
X127726309Y-129805000D01*
X125485750Y-129805000D01*
X125327000Y-129963750D01*
X125073000Y-129963750D01*
X124914250Y-129805000D01*
X122927000Y-129805000D01*
X122927000Y-129702000D01*
X128323000Y-129702000D01*
X128323000Y-134500000D01*
X128323000Y-134500000D01*
G37*
X128323000Y-134500000D02*
X128333006Y-134549410D01*
X128361447Y-134591035D01*
X128403841Y-134618315D01*
X128450000Y-134627000D01*
X130323000Y-134627000D01*
X130323000Y-137475000D01*
X130333006Y-137524410D01*
X130361447Y-137566035D01*
X130403841Y-137593315D01*
X130437120Y-137599577D01*
X130365000Y-137773690D01*
X130365000Y-139689250D01*
X130523750Y-139848000D01*
X131823000Y-139848000D01*
X131823000Y-139828000D01*
X132077000Y-139828000D01*
X132077000Y-139848000D01*
X133376250Y-139848000D01*
X133535000Y-139689250D01*
X133535000Y-137773690D01*
X133463884Y-137602000D01*
X133999183Y-137602000D01*
X135848000Y-137625403D01*
X135848000Y-144073000D01*
X129152352Y-144073000D01*
X129162882Y-140260750D01*
X130365000Y-140260750D01*
X130365000Y-142176310D01*
X130461673Y-142409699D01*
X130640302Y-142588327D01*
X130873691Y-142685000D01*
X131664250Y-142685000D01*
X131823000Y-142526250D01*
X131823000Y-140102000D01*
X132077000Y-140102000D01*
X132077000Y-142526250D01*
X132235750Y-142685000D01*
X133026309Y-142685000D01*
X133259698Y-142588327D01*
X133438327Y-142409699D01*
X133535000Y-142176310D01*
X133535000Y-140260750D01*
X133376250Y-140102000D01*
X132077000Y-140102000D01*
X131823000Y-140102000D01*
X130523750Y-140102000D01*
X130365000Y-140260750D01*
X129162882Y-140260750D01*
X129177000Y-135150351D01*
X129167130Y-135100913D01*
X129138805Y-135059210D01*
X129096486Y-135031813D01*
X129050000Y-135023000D01*
X128235000Y-135023000D01*
X128235000Y-133085750D01*
X128076250Y-132927000D01*
X125327000Y-132927000D01*
X125327000Y-132947000D01*
X125073000Y-132947000D01*
X125073000Y-132927000D01*
X125053000Y-132927000D01*
X125053000Y-132673000D01*
X125073000Y-132673000D01*
X125073000Y-129963750D01*
X125327000Y-129963750D01*
X125327000Y-132673000D01*
X128076250Y-132673000D01*
X128235000Y-132514250D01*
X128235000Y-130313690D01*
X128138327Y-130080301D01*
X127959698Y-129901673D01*
X127726309Y-129805000D01*
X125485750Y-129805000D01*
X125327000Y-129963750D01*
X125073000Y-129963750D01*
X124914250Y-129805000D01*
X122927000Y-129805000D01*
X122927000Y-129702000D01*
X128323000Y-129702000D01*
X128323000Y-134500000D01*
G36*
X200123000Y-99822713D02*
X191479052Y-99803245D01*
X191704709Y-99334791D01*
X191707358Y-99319026D01*
X191586217Y-99087000D01*
X190227000Y-99087000D01*
X190227000Y-99107000D01*
X189973000Y-99107000D01*
X189973000Y-99087000D01*
X189953000Y-99087000D01*
X189953000Y-98833000D01*
X189973000Y-98833000D01*
X189973000Y-97619076D01*
X190227000Y-97619076D01*
X190227000Y-98833000D01*
X191586217Y-98833000D01*
X191707358Y-98600974D01*
X191704709Y-98585209D01*
X191450732Y-98057964D01*
X191014320Y-97668046D01*
X190461913Y-97474816D01*
X190227000Y-97619076D01*
X189973000Y-97619076D01*
X189738087Y-97474816D01*
X189185680Y-97668046D01*
X188749268Y-98057964D01*
X188495291Y-98585209D01*
X188492642Y-98600974D01*
X188595509Y-98798000D01*
X183627000Y-98798000D01*
X183627000Y-96702000D01*
X200123000Y-96702000D01*
X200123000Y-99822713D01*
X200123000Y-99822713D01*
G37*
X200123000Y-99822713D02*
X191479052Y-99803245D01*
X191704709Y-99334791D01*
X191707358Y-99319026D01*
X191586217Y-99087000D01*
X190227000Y-99087000D01*
X190227000Y-99107000D01*
X189973000Y-99107000D01*
X189973000Y-99087000D01*
X189953000Y-99087000D01*
X189953000Y-98833000D01*
X189973000Y-98833000D01*
X189973000Y-97619076D01*
X190227000Y-97619076D01*
X190227000Y-98833000D01*
X191586217Y-98833000D01*
X191707358Y-98600974D01*
X191704709Y-98585209D01*
X191450732Y-98057964D01*
X191014320Y-97668046D01*
X190461913Y-97474816D01*
X190227000Y-97619076D01*
X189973000Y-97619076D01*
X189738087Y-97474816D01*
X189185680Y-97668046D01*
X188749268Y-98057964D01*
X188495291Y-98585209D01*
X188492642Y-98600974D01*
X188595509Y-98798000D01*
X183627000Y-98798000D01*
X183627000Y-96702000D01*
X200123000Y-96702000D01*
X200123000Y-99822713D01*
G36*
X174827000Y-140273000D02*
X174847000Y-140273000D01*
X174847000Y-140527000D01*
X174827000Y-140527000D01*
X174827000Y-141886217D01*
X175059026Y-142007358D01*
X175074791Y-142004709D01*
X175548000Y-141776761D01*
X175548000Y-145200000D01*
X175558006Y-145249410D01*
X175586447Y-145291035D01*
X175628841Y-145318315D01*
X175675000Y-145327000D01*
X188687111Y-145327000D01*
X188495291Y-145725209D01*
X188492642Y-145740974D01*
X188613783Y-145973000D01*
X189973000Y-145973000D01*
X189973000Y-145953000D01*
X190227000Y-145953000D01*
X190227000Y-145973000D01*
X190247000Y-145973000D01*
X190247000Y-146227000D01*
X190227000Y-146227000D01*
X190227000Y-146247000D01*
X189973000Y-146247000D01*
X189973000Y-146227000D01*
X188613783Y-146227000D01*
X188492642Y-146459026D01*
X188495291Y-146474791D01*
X188749268Y-147002036D01*
X188924845Y-147158907D01*
X188848683Y-147173238D01*
X188693648Y-147273000D01*
X188375000Y-147273000D01*
X188325590Y-147283006D01*
X188283965Y-147311447D01*
X188256685Y-147353841D01*
X188248005Y-147398866D01*
X188224129Y-150073000D01*
X173627000Y-150073000D01*
X173627000Y-141633476D01*
X173639232Y-141573073D01*
X173797964Y-141750732D01*
X174325209Y-142004709D01*
X174340974Y-142007358D01*
X174573000Y-141886217D01*
X174573000Y-140527000D01*
X174553000Y-140527000D01*
X174553000Y-140273000D01*
X174573000Y-140273000D01*
X174573000Y-140253000D01*
X174827000Y-140253000D01*
X174827000Y-140273000D01*
X174827000Y-140273000D01*
G37*
X174827000Y-140273000D02*
X174847000Y-140273000D01*
X174847000Y-140527000D01*
X174827000Y-140527000D01*
X174827000Y-141886217D01*
X175059026Y-142007358D01*
X175074791Y-142004709D01*
X175548000Y-141776761D01*
X175548000Y-145200000D01*
X175558006Y-145249410D01*
X175586447Y-145291035D01*
X175628841Y-145318315D01*
X175675000Y-145327000D01*
X188687111Y-145327000D01*
X188495291Y-145725209D01*
X188492642Y-145740974D01*
X188613783Y-145973000D01*
X189973000Y-145973000D01*
X189973000Y-145953000D01*
X190227000Y-145953000D01*
X190227000Y-145973000D01*
X190247000Y-145973000D01*
X190247000Y-146227000D01*
X190227000Y-146227000D01*
X190227000Y-146247000D01*
X189973000Y-146247000D01*
X189973000Y-146227000D01*
X188613783Y-146227000D01*
X188492642Y-146459026D01*
X188495291Y-146474791D01*
X188749268Y-147002036D01*
X188924845Y-147158907D01*
X188848683Y-147173238D01*
X188693648Y-147273000D01*
X188375000Y-147273000D01*
X188325590Y-147283006D01*
X188283965Y-147311447D01*
X188256685Y-147353841D01*
X188248005Y-147398866D01*
X188224129Y-150073000D01*
X173627000Y-150073000D01*
X173627000Y-141633476D01*
X173639232Y-141573073D01*
X173797964Y-141750732D01*
X174325209Y-142004709D01*
X174340974Y-142007358D01*
X174573000Y-141886217D01*
X174573000Y-140527000D01*
X174553000Y-140527000D01*
X174553000Y-140273000D01*
X174573000Y-140273000D01*
X174573000Y-140253000D01*
X174827000Y-140253000D01*
X174827000Y-140273000D01*
G36*
X126144673Y-80192192D02*
X126488201Y-80334838D01*
X126860167Y-80335162D01*
X126889407Y-80323080D01*
X126915986Y-80340839D01*
X127114290Y-80473342D01*
X127424264Y-80535000D01*
X128373000Y-80535000D01*
X128373000Y-82627560D01*
X128100000Y-82627560D01*
X128028677Y-82640980D01*
X128026310Y-82640000D01*
X127946250Y-82640000D01*
X127925938Y-82660312D01*
X127864683Y-82671838D01*
X127672773Y-82795329D01*
X127501890Y-82678569D01*
X127427192Y-82663442D01*
X127403750Y-82640000D01*
X127323690Y-82640000D01*
X127319665Y-82641667D01*
X127250000Y-82627560D01*
X126800000Y-82627560D01*
X126696329Y-82647067D01*
X126600000Y-82627560D01*
X126150000Y-82627560D01*
X126046329Y-82647067D01*
X125950000Y-82627560D01*
X125500000Y-82627560D01*
X125396329Y-82647067D01*
X125300000Y-82627560D01*
X124850000Y-82627560D01*
X124746329Y-82647067D01*
X124650000Y-82627560D01*
X124200000Y-82627560D01*
X124096329Y-82647067D01*
X124000000Y-82627560D01*
X123550000Y-82627560D01*
X123446329Y-82647067D01*
X123350000Y-82627560D01*
X122900000Y-82627560D01*
X122796329Y-82647067D01*
X122700000Y-82627560D01*
X122250000Y-82627560D01*
X122146329Y-82647067D01*
X122050000Y-82627560D01*
X121600000Y-82627560D01*
X121496329Y-82647067D01*
X121400000Y-82627560D01*
X120950000Y-82627560D01*
X120714683Y-82671838D01*
X120498559Y-82810910D01*
X120353569Y-83023110D01*
X120302560Y-83275000D01*
X120302560Y-85025000D01*
X120346838Y-85260317D01*
X120485910Y-85476441D01*
X120698110Y-85621431D01*
X120950000Y-85672440D01*
X121400000Y-85672440D01*
X121503671Y-85652933D01*
X121600000Y-85672440D01*
X122050000Y-85672440D01*
X122153671Y-85652933D01*
X122250000Y-85672440D01*
X122700000Y-85672440D01*
X122803671Y-85652933D01*
X122900000Y-85672440D01*
X123350000Y-85672440D01*
X123453671Y-85652933D01*
X123550000Y-85672440D01*
X124000000Y-85672440D01*
X124103671Y-85652933D01*
X124200000Y-85672440D01*
X124650000Y-85672440D01*
X124753671Y-85652933D01*
X124850000Y-85672440D01*
X124974165Y-85672440D01*
X124976658Y-85684974D01*
X125126998Y-85909973D01*
X125152244Y-85947756D01*
X125609914Y-86405427D01*
X125565162Y-86513201D01*
X125564838Y-86885167D01*
X125706883Y-87228943D01*
X125746533Y-87268663D01*
X125451252Y-87563944D01*
X125415795Y-87528426D01*
X125072267Y-87385780D01*
X124700301Y-87385456D01*
X124356525Y-87527501D01*
X124093276Y-87790291D01*
X123950630Y-88133819D01*
X123950624Y-88140783D01*
X123860264Y-88276016D01*
X123779357Y-88356923D01*
X123730327Y-88307808D01*
X123386799Y-88165162D01*
X123014833Y-88164838D01*
X122671057Y-88306883D01*
X122445000Y-88532546D01*
X122445000Y-87613016D01*
X122389051Y-87331744D01*
X122229724Y-87093293D01*
X120980807Y-85844377D01*
X120742356Y-85685049D01*
X120741974Y-85684973D01*
X120461084Y-85629100D01*
X120234975Y-85629100D01*
X120235162Y-85414833D01*
X120093117Y-85071057D01*
X119830327Y-84807808D01*
X119486799Y-84665162D01*
X119114833Y-84664838D01*
X118811917Y-84790000D01*
X118729532Y-84790000D01*
X118772540Y-84573785D01*
X118772540Y-84224415D01*
X118688046Y-83799636D01*
X118447429Y-83439526D01*
X118087319Y-83198909D01*
X117662540Y-83114415D01*
X117237761Y-83198909D01*
X116877651Y-83439526D01*
X116637034Y-83799636D01*
X116552540Y-84224415D01*
X116552540Y-84573785D01*
X116614373Y-84884642D01*
X116536099Y-84935010D01*
X116391109Y-85147210D01*
X116340100Y-85399100D01*
X116340100Y-85799100D01*
X116364484Y-85928689D01*
X116340100Y-86049100D01*
X116340100Y-86449100D01*
X116364484Y-86578689D01*
X116340100Y-86699100D01*
X116340100Y-87099100D01*
X116364484Y-87228689D01*
X116340100Y-87349100D01*
X116340100Y-87749100D01*
X116364484Y-87878689D01*
X116340100Y-87999100D01*
X116340100Y-88399100D01*
X116384378Y-88634417D01*
X116523450Y-88850541D01*
X116614530Y-88912773D01*
X116552540Y-89224415D01*
X116552540Y-89573785D01*
X116637034Y-89998564D01*
X116877651Y-90358674D01*
X117237761Y-90599291D01*
X117662540Y-90683785D01*
X118087319Y-90599291D01*
X118447429Y-90358674D01*
X118590000Y-90145301D01*
X118590000Y-90162559D01*
X118465162Y-90463201D01*
X118464838Y-90835167D01*
X118606883Y-91178943D01*
X118869673Y-91442192D01*
X119213201Y-91584838D01*
X119585167Y-91585162D01*
X119928943Y-91443117D01*
X120192192Y-91180327D01*
X120302560Y-90914533D01*
X120302560Y-92225000D01*
X120346838Y-92460317D01*
X120485910Y-92676441D01*
X120698110Y-92821431D01*
X120950000Y-92872440D01*
X121400000Y-92872440D01*
X121503671Y-92852933D01*
X121600000Y-92872440D01*
X122050000Y-92872440D01*
X122153671Y-92852933D01*
X122250000Y-92872440D01*
X122700000Y-92872440D01*
X122803671Y-92852933D01*
X122900000Y-92872440D01*
X123350000Y-92872440D01*
X123453671Y-92852933D01*
X123519826Y-92866330D01*
X123465000Y-92998690D01*
X123465000Y-93214250D01*
X123623750Y-93373000D01*
X124373000Y-93373000D01*
X124373000Y-93353000D01*
X124627000Y-93353000D01*
X124627000Y-93373000D01*
X124647000Y-93373000D01*
X124647000Y-93627000D01*
X124627000Y-93627000D01*
X124627000Y-94351250D01*
X124785750Y-94510000D01*
X125026309Y-94510000D01*
X125259698Y-94413327D01*
X125261068Y-94411957D01*
X125348110Y-94471431D01*
X125600000Y-94522440D01*
X126400000Y-94522440D01*
X126635317Y-94478162D01*
X126851441Y-94339090D01*
X126871317Y-94310000D01*
X127150000Y-94310000D01*
X127459974Y-94248342D01*
X127722756Y-94072756D01*
X127828083Y-93967430D01*
X128128943Y-93843117D01*
X128392192Y-93580327D01*
X128534838Y-93236799D01*
X128535155Y-92872440D01*
X128550000Y-92872440D01*
X128653671Y-92852933D01*
X128750000Y-92872440D01*
X129200000Y-92872440D01*
X129303671Y-92852933D01*
X129400000Y-92872440D01*
X129850000Y-92872440D01*
X130085317Y-92828162D01*
X130301441Y-92689090D01*
X130446431Y-92476890D01*
X130497440Y-92225000D01*
X130497440Y-90475000D01*
X130453162Y-90239683D01*
X130314090Y-90023559D01*
X130101890Y-89878569D01*
X129850000Y-89827560D01*
X129400000Y-89827560D01*
X129296329Y-89847067D01*
X129200000Y-89827560D01*
X128750000Y-89827560D01*
X128646329Y-89847067D01*
X128550000Y-89827560D01*
X128460000Y-89827560D01*
X128460000Y-89587441D01*
X128584838Y-89286799D01*
X128585162Y-88914833D01*
X128443117Y-88571057D01*
X128297291Y-88424976D01*
X128442192Y-88280327D01*
X128584838Y-87936799D01*
X128585162Y-87564833D01*
X128479872Y-87310011D01*
X131973000Y-87310011D01*
X131973000Y-87750000D01*
X131973003Y-87750836D01*
X132020465Y-94965000D01*
X118450000Y-94965000D01*
X118159161Y-95022852D01*
X117912599Y-95187599D01*
X117877198Y-95223000D01*
X116702000Y-95223000D01*
X116702000Y-94750000D01*
X116691994Y-94700590D01*
X116663553Y-94658965D01*
X116621159Y-94631685D01*
X116575000Y-94623000D01*
X115896978Y-94623000D01*
X115276541Y-94365372D01*
X114427185Y-94364630D01*
X113801883Y-94623000D01*
X113660000Y-94623000D01*
X113660000Y-93785750D01*
X123465000Y-93785750D01*
X123465000Y-94001310D01*
X123561673Y-94234699D01*
X123740302Y-94413327D01*
X123973691Y-94510000D01*
X124214250Y-94510000D01*
X124373000Y-94351250D01*
X124373000Y-93627000D01*
X123623750Y-93627000D01*
X123465000Y-93785750D01*
X113660000Y-93785750D01*
X113660000Y-90906311D01*
X113857350Y-91201666D01*
X114225570Y-91447703D01*
X114659916Y-91534100D01*
X115265164Y-91534100D01*
X115699510Y-91447703D01*
X116067730Y-91201666D01*
X116313767Y-90833446D01*
X116400164Y-90399100D01*
X116313767Y-89964754D01*
X116067730Y-89596534D01*
X115699510Y-89350497D01*
X115265164Y-89264100D01*
X114659916Y-89264100D01*
X114225570Y-89350497D01*
X113857350Y-89596534D01*
X113660000Y-89891889D01*
X113660000Y-83906311D01*
X113857350Y-84201666D01*
X114225570Y-84447703D01*
X114659916Y-84534100D01*
X115265164Y-84534100D01*
X115699510Y-84447703D01*
X116067730Y-84201666D01*
X116313767Y-83833446D01*
X116400164Y-83399100D01*
X116313767Y-82964754D01*
X116067730Y-82596534D01*
X115699510Y-82350497D01*
X115265164Y-82264100D01*
X114659916Y-82264100D01*
X114225570Y-82350497D01*
X113857350Y-82596534D01*
X113660000Y-82891889D01*
X113660000Y-81635167D01*
X121164838Y-81635167D01*
X121306883Y-81978943D01*
X121569673Y-82242192D01*
X121913201Y-82384838D01*
X122285167Y-82385162D01*
X122588083Y-82260000D01*
X123675331Y-82260000D01*
X123685910Y-82276441D01*
X123898110Y-82421431D01*
X124150000Y-82472440D01*
X124950000Y-82472440D01*
X125185317Y-82428162D01*
X125288646Y-82361671D01*
X125290302Y-82363327D01*
X125523691Y-82460000D01*
X125764250Y-82460000D01*
X125923000Y-82301250D01*
X125923000Y-81577000D01*
X126177000Y-81577000D01*
X126177000Y-82301250D01*
X126335750Y-82460000D01*
X126576309Y-82460000D01*
X126809698Y-82363327D01*
X126988327Y-82184699D01*
X127085000Y-81951310D01*
X127085000Y-81735750D01*
X126926250Y-81577000D01*
X126177000Y-81577000D01*
X125923000Y-81577000D01*
X125903000Y-81577000D01*
X125903000Y-81323000D01*
X125923000Y-81323000D01*
X125923000Y-80598750D01*
X126177000Y-80598750D01*
X126177000Y-81323000D01*
X126926250Y-81323000D01*
X127085000Y-81164250D01*
X127085000Y-80948690D01*
X126988327Y-80715301D01*
X126809698Y-80536673D01*
X126576309Y-80440000D01*
X126335750Y-80440000D01*
X126177000Y-80598750D01*
X125923000Y-80598750D01*
X125764250Y-80440000D01*
X125523691Y-80440000D01*
X125290302Y-80536673D01*
X125288932Y-80538043D01*
X125201890Y-80478569D01*
X124950000Y-80427560D01*
X124150000Y-80427560D01*
X123914683Y-80471838D01*
X123698559Y-80610910D01*
X123678683Y-80640000D01*
X122587441Y-80640000D01*
X122286799Y-80515162D01*
X121914833Y-80514838D01*
X121571057Y-80656883D01*
X121307808Y-80919673D01*
X121165162Y-81263201D01*
X121164838Y-81635167D01*
X113660000Y-81635167D01*
X113660000Y-80335512D01*
X113868512Y-80127000D01*
X126079595Y-80127000D01*
X126144673Y-80192192D01*
X126144673Y-80192192D01*
G37*
X126144673Y-80192192D02*
X126488201Y-80334838D01*
X126860167Y-80335162D01*
X126889407Y-80323080D01*
X126915986Y-80340839D01*
X127114290Y-80473342D01*
X127424264Y-80535000D01*
X128373000Y-80535000D01*
X128373000Y-82627560D01*
X128100000Y-82627560D01*
X128028677Y-82640980D01*
X128026310Y-82640000D01*
X127946250Y-82640000D01*
X127925938Y-82660312D01*
X127864683Y-82671838D01*
X127672773Y-82795329D01*
X127501890Y-82678569D01*
X127427192Y-82663442D01*
X127403750Y-82640000D01*
X127323690Y-82640000D01*
X127319665Y-82641667D01*
X127250000Y-82627560D01*
X126800000Y-82627560D01*
X126696329Y-82647067D01*
X126600000Y-82627560D01*
X126150000Y-82627560D01*
X126046329Y-82647067D01*
X125950000Y-82627560D01*
X125500000Y-82627560D01*
X125396329Y-82647067D01*
X125300000Y-82627560D01*
X124850000Y-82627560D01*
X124746329Y-82647067D01*
X124650000Y-82627560D01*
X124200000Y-82627560D01*
X124096329Y-82647067D01*
X124000000Y-82627560D01*
X123550000Y-82627560D01*
X123446329Y-82647067D01*
X123350000Y-82627560D01*
X122900000Y-82627560D01*
X122796329Y-82647067D01*
X122700000Y-82627560D01*
X122250000Y-82627560D01*
X122146329Y-82647067D01*
X122050000Y-82627560D01*
X121600000Y-82627560D01*
X121496329Y-82647067D01*
X121400000Y-82627560D01*
X120950000Y-82627560D01*
X120714683Y-82671838D01*
X120498559Y-82810910D01*
X120353569Y-83023110D01*
X120302560Y-83275000D01*
X120302560Y-85025000D01*
X120346838Y-85260317D01*
X120485910Y-85476441D01*
X120698110Y-85621431D01*
X120950000Y-85672440D01*
X121400000Y-85672440D01*
X121503671Y-85652933D01*
X121600000Y-85672440D01*
X122050000Y-85672440D01*
X122153671Y-85652933D01*
X122250000Y-85672440D01*
X122700000Y-85672440D01*
X122803671Y-85652933D01*
X122900000Y-85672440D01*
X123350000Y-85672440D01*
X123453671Y-85652933D01*
X123550000Y-85672440D01*
X124000000Y-85672440D01*
X124103671Y-85652933D01*
X124200000Y-85672440D01*
X124650000Y-85672440D01*
X124753671Y-85652933D01*
X124850000Y-85672440D01*
X124974165Y-85672440D01*
X124976658Y-85684974D01*
X125126998Y-85909973D01*
X125152244Y-85947756D01*
X125609914Y-86405427D01*
X125565162Y-86513201D01*
X125564838Y-86885167D01*
X125706883Y-87228943D01*
X125746533Y-87268663D01*
X125451252Y-87563944D01*
X125415795Y-87528426D01*
X125072267Y-87385780D01*
X124700301Y-87385456D01*
X124356525Y-87527501D01*
X124093276Y-87790291D01*
X123950630Y-88133819D01*
X123950624Y-88140783D01*
X123860264Y-88276016D01*
X123779357Y-88356923D01*
X123730327Y-88307808D01*
X123386799Y-88165162D01*
X123014833Y-88164838D01*
X122671057Y-88306883D01*
X122445000Y-88532546D01*
X122445000Y-87613016D01*
X122389051Y-87331744D01*
X122229724Y-87093293D01*
X120980807Y-85844377D01*
X120742356Y-85685049D01*
X120741974Y-85684973D01*
X120461084Y-85629100D01*
X120234975Y-85629100D01*
X120235162Y-85414833D01*
X120093117Y-85071057D01*
X119830327Y-84807808D01*
X119486799Y-84665162D01*
X119114833Y-84664838D01*
X118811917Y-84790000D01*
X118729532Y-84790000D01*
X118772540Y-84573785D01*
X118772540Y-84224415D01*
X118688046Y-83799636D01*
X118447429Y-83439526D01*
X118087319Y-83198909D01*
X117662540Y-83114415D01*
X117237761Y-83198909D01*
X116877651Y-83439526D01*
X116637034Y-83799636D01*
X116552540Y-84224415D01*
X116552540Y-84573785D01*
X116614373Y-84884642D01*
X116536099Y-84935010D01*
X116391109Y-85147210D01*
X116340100Y-85399100D01*
X116340100Y-85799100D01*
X116364484Y-85928689D01*
X116340100Y-86049100D01*
X116340100Y-86449100D01*
X116364484Y-86578689D01*
X116340100Y-86699100D01*
X116340100Y-87099100D01*
X116364484Y-87228689D01*
X116340100Y-87349100D01*
X116340100Y-87749100D01*
X116364484Y-87878689D01*
X116340100Y-87999100D01*
X116340100Y-88399100D01*
X116384378Y-88634417D01*
X116523450Y-88850541D01*
X116614530Y-88912773D01*
X116552540Y-89224415D01*
X116552540Y-89573785D01*
X116637034Y-89998564D01*
X116877651Y-90358674D01*
X117237761Y-90599291D01*
X117662540Y-90683785D01*
X118087319Y-90599291D01*
X118447429Y-90358674D01*
X118590000Y-90145301D01*
X118590000Y-90162559D01*
X118465162Y-90463201D01*
X118464838Y-90835167D01*
X118606883Y-91178943D01*
X118869673Y-91442192D01*
X119213201Y-91584838D01*
X119585167Y-91585162D01*
X119928943Y-91443117D01*
X120192192Y-91180327D01*
X120302560Y-90914533D01*
X120302560Y-92225000D01*
X120346838Y-92460317D01*
X120485910Y-92676441D01*
X120698110Y-92821431D01*
X120950000Y-92872440D01*
X121400000Y-92872440D01*
X121503671Y-92852933D01*
X121600000Y-92872440D01*
X122050000Y-92872440D01*
X122153671Y-92852933D01*
X122250000Y-92872440D01*
X122700000Y-92872440D01*
X122803671Y-92852933D01*
X122900000Y-92872440D01*
X123350000Y-92872440D01*
X123453671Y-92852933D01*
X123519826Y-92866330D01*
X123465000Y-92998690D01*
X123465000Y-93214250D01*
X123623750Y-93373000D01*
X124373000Y-93373000D01*
X124373000Y-93353000D01*
X124627000Y-93353000D01*
X124627000Y-93373000D01*
X124647000Y-93373000D01*
X124647000Y-93627000D01*
X124627000Y-93627000D01*
X124627000Y-94351250D01*
X124785750Y-94510000D01*
X125026309Y-94510000D01*
X125259698Y-94413327D01*
X125261068Y-94411957D01*
X125348110Y-94471431D01*
X125600000Y-94522440D01*
X126400000Y-94522440D01*
X126635317Y-94478162D01*
X126851441Y-94339090D01*
X126871317Y-94310000D01*
X127150000Y-94310000D01*
X127459974Y-94248342D01*
X127722756Y-94072756D01*
X127828083Y-93967430D01*
X128128943Y-93843117D01*
X128392192Y-93580327D01*
X128534838Y-93236799D01*
X128535155Y-92872440D01*
X128550000Y-92872440D01*
X128653671Y-92852933D01*
X128750000Y-92872440D01*
X129200000Y-92872440D01*
X129303671Y-92852933D01*
X129400000Y-92872440D01*
X129850000Y-92872440D01*
X130085317Y-92828162D01*
X130301441Y-92689090D01*
X130446431Y-92476890D01*
X130497440Y-92225000D01*
X130497440Y-90475000D01*
X130453162Y-90239683D01*
X130314090Y-90023559D01*
X130101890Y-89878569D01*
X129850000Y-89827560D01*
X129400000Y-89827560D01*
X129296329Y-89847067D01*
X129200000Y-89827560D01*
X128750000Y-89827560D01*
X128646329Y-89847067D01*
X128550000Y-89827560D01*
X128460000Y-89827560D01*
X128460000Y-89587441D01*
X128584838Y-89286799D01*
X128585162Y-88914833D01*
X128443117Y-88571057D01*
X128297291Y-88424976D01*
X128442192Y-88280327D01*
X128584838Y-87936799D01*
X128585162Y-87564833D01*
X128479872Y-87310011D01*
X131973000Y-87310011D01*
X131973000Y-87750000D01*
X131973003Y-87750836D01*
X132020465Y-94965000D01*
X118450000Y-94965000D01*
X118159161Y-95022852D01*
X117912599Y-95187599D01*
X117877198Y-95223000D01*
X116702000Y-95223000D01*
X116702000Y-94750000D01*
X116691994Y-94700590D01*
X116663553Y-94658965D01*
X116621159Y-94631685D01*
X116575000Y-94623000D01*
X115896978Y-94623000D01*
X115276541Y-94365372D01*
X114427185Y-94364630D01*
X113801883Y-94623000D01*
X113660000Y-94623000D01*
X113660000Y-93785750D01*
X123465000Y-93785750D01*
X123465000Y-94001310D01*
X123561673Y-94234699D01*
X123740302Y-94413327D01*
X123973691Y-94510000D01*
X124214250Y-94510000D01*
X124373000Y-94351250D01*
X124373000Y-93627000D01*
X123623750Y-93627000D01*
X123465000Y-93785750D01*
X113660000Y-93785750D01*
X113660000Y-90906311D01*
X113857350Y-91201666D01*
X114225570Y-91447703D01*
X114659916Y-91534100D01*
X115265164Y-91534100D01*
X115699510Y-91447703D01*
X116067730Y-91201666D01*
X116313767Y-90833446D01*
X116400164Y-90399100D01*
X116313767Y-89964754D01*
X116067730Y-89596534D01*
X115699510Y-89350497D01*
X115265164Y-89264100D01*
X114659916Y-89264100D01*
X114225570Y-89350497D01*
X113857350Y-89596534D01*
X113660000Y-89891889D01*
X113660000Y-83906311D01*
X113857350Y-84201666D01*
X114225570Y-84447703D01*
X114659916Y-84534100D01*
X115265164Y-84534100D01*
X115699510Y-84447703D01*
X116067730Y-84201666D01*
X116313767Y-83833446D01*
X116400164Y-83399100D01*
X116313767Y-82964754D01*
X116067730Y-82596534D01*
X115699510Y-82350497D01*
X115265164Y-82264100D01*
X114659916Y-82264100D01*
X114225570Y-82350497D01*
X113857350Y-82596534D01*
X113660000Y-82891889D01*
X113660000Y-81635167D01*
X121164838Y-81635167D01*
X121306883Y-81978943D01*
X121569673Y-82242192D01*
X121913201Y-82384838D01*
X122285167Y-82385162D01*
X122588083Y-82260000D01*
X123675331Y-82260000D01*
X123685910Y-82276441D01*
X123898110Y-82421431D01*
X124150000Y-82472440D01*
X124950000Y-82472440D01*
X125185317Y-82428162D01*
X125288646Y-82361671D01*
X125290302Y-82363327D01*
X125523691Y-82460000D01*
X125764250Y-82460000D01*
X125923000Y-82301250D01*
X125923000Y-81577000D01*
X126177000Y-81577000D01*
X126177000Y-82301250D01*
X126335750Y-82460000D01*
X126576309Y-82460000D01*
X126809698Y-82363327D01*
X126988327Y-82184699D01*
X127085000Y-81951310D01*
X127085000Y-81735750D01*
X126926250Y-81577000D01*
X126177000Y-81577000D01*
X125923000Y-81577000D01*
X125903000Y-81577000D01*
X125903000Y-81323000D01*
X125923000Y-81323000D01*
X125923000Y-80598750D01*
X126177000Y-80598750D01*
X126177000Y-81323000D01*
X126926250Y-81323000D01*
X127085000Y-81164250D01*
X127085000Y-80948690D01*
X126988327Y-80715301D01*
X126809698Y-80536673D01*
X126576309Y-80440000D01*
X126335750Y-80440000D01*
X126177000Y-80598750D01*
X125923000Y-80598750D01*
X125764250Y-80440000D01*
X125523691Y-80440000D01*
X125290302Y-80536673D01*
X125288932Y-80538043D01*
X125201890Y-80478569D01*
X124950000Y-80427560D01*
X124150000Y-80427560D01*
X123914683Y-80471838D01*
X123698559Y-80610910D01*
X123678683Y-80640000D01*
X122587441Y-80640000D01*
X122286799Y-80515162D01*
X121914833Y-80514838D01*
X121571057Y-80656883D01*
X121307808Y-80919673D01*
X121165162Y-81263201D01*
X121164838Y-81635167D01*
X113660000Y-81635167D01*
X113660000Y-80335512D01*
X113868512Y-80127000D01*
X126079595Y-80127000D01*
X126144673Y-80192192D01*
G36*
X178823000Y-141400000D02*
X178833006Y-141449410D01*
X178860197Y-141489803D01*
X179710197Y-142339803D01*
X179752211Y-142367666D01*
X179800000Y-142377000D01*
X189063734Y-142377000D01*
X188749268Y-142657964D01*
X188495291Y-143185209D01*
X188492642Y-143200974D01*
X188613783Y-143433000D01*
X189973000Y-143433000D01*
X189973000Y-143413000D01*
X190227000Y-143413000D01*
X190227000Y-143433000D01*
X191586217Y-143433000D01*
X191707358Y-143200974D01*
X191704709Y-143185209D01*
X191450732Y-142657964D01*
X191136266Y-142377000D01*
X197648000Y-142377000D01*
X197648000Y-144473000D01*
X191438461Y-144473000D01*
X191450732Y-144462036D01*
X191704709Y-143934791D01*
X191707358Y-143919026D01*
X191586217Y-143687000D01*
X190227000Y-143687000D01*
X190227000Y-143707000D01*
X189973000Y-143707000D01*
X189973000Y-143687000D01*
X188613783Y-143687000D01*
X188492642Y-143919026D01*
X188495291Y-143934791D01*
X188749268Y-144462036D01*
X188761539Y-144473000D01*
X176702000Y-144473000D01*
X176702000Y-141926090D01*
X176865209Y-142004709D01*
X176880974Y-142007358D01*
X177113000Y-141886217D01*
X177113000Y-140527000D01*
X177367000Y-140527000D01*
X177367000Y-141886217D01*
X177599026Y-142007358D01*
X177614791Y-142004709D01*
X178142036Y-141750732D01*
X178531954Y-141314320D01*
X178725184Y-140761913D01*
X178580924Y-140527000D01*
X177367000Y-140527000D01*
X177113000Y-140527000D01*
X177093000Y-140527000D01*
X177093000Y-140273000D01*
X177113000Y-140273000D01*
X177113000Y-140253000D01*
X177367000Y-140253000D01*
X177367000Y-140273000D01*
X178580924Y-140273000D01*
X178725184Y-140038087D01*
X178531954Y-139485680D01*
X178142036Y-139049268D01*
X177888213Y-138927000D01*
X178823000Y-138927000D01*
X178823000Y-141400000D01*
X178823000Y-141400000D01*
G37*
X178823000Y-141400000D02*
X178833006Y-141449410D01*
X178860197Y-141489803D01*
X179710197Y-142339803D01*
X179752211Y-142367666D01*
X179800000Y-142377000D01*
X189063734Y-142377000D01*
X188749268Y-142657964D01*
X188495291Y-143185209D01*
X188492642Y-143200974D01*
X188613783Y-143433000D01*
X189973000Y-143433000D01*
X189973000Y-143413000D01*
X190227000Y-143413000D01*
X190227000Y-143433000D01*
X191586217Y-143433000D01*
X191707358Y-143200974D01*
X191704709Y-143185209D01*
X191450732Y-142657964D01*
X191136266Y-142377000D01*
X197648000Y-142377000D01*
X197648000Y-144473000D01*
X191438461Y-144473000D01*
X191450732Y-144462036D01*
X191704709Y-143934791D01*
X191707358Y-143919026D01*
X191586217Y-143687000D01*
X190227000Y-143687000D01*
X190227000Y-143707000D01*
X189973000Y-143707000D01*
X189973000Y-143687000D01*
X188613783Y-143687000D01*
X188492642Y-143919026D01*
X188495291Y-143934791D01*
X188749268Y-144462036D01*
X188761539Y-144473000D01*
X176702000Y-144473000D01*
X176702000Y-141926090D01*
X176865209Y-142004709D01*
X176880974Y-142007358D01*
X177113000Y-141886217D01*
X177113000Y-140527000D01*
X177367000Y-140527000D01*
X177367000Y-141886217D01*
X177599026Y-142007358D01*
X177614791Y-142004709D01*
X178142036Y-141750732D01*
X178531954Y-141314320D01*
X178725184Y-140761913D01*
X178580924Y-140527000D01*
X177367000Y-140527000D01*
X177113000Y-140527000D01*
X177093000Y-140527000D01*
X177093000Y-140273000D01*
X177113000Y-140273000D01*
X177113000Y-140253000D01*
X177367000Y-140253000D01*
X177367000Y-140273000D01*
X178580924Y-140273000D01*
X178725184Y-140038087D01*
X178531954Y-139485680D01*
X178142036Y-139049268D01*
X177888213Y-138927000D01*
X178823000Y-138927000D01*
X178823000Y-141400000D01*
G36*
X146655301Y-96649673D02*
X146476673Y-96828302D01*
X146380000Y-97061691D01*
X146380000Y-97664250D01*
X146538750Y-97823000D01*
X148028000Y-97823000D01*
X148028000Y-97803000D01*
X148282000Y-97803000D01*
X148282000Y-97823000D01*
X149771250Y-97823000D01*
X149930000Y-97664250D01*
X149930000Y-97061691D01*
X149833327Y-96828302D01*
X149654699Y-96649673D01*
X149479251Y-96577000D01*
X150273000Y-96577000D01*
X150273000Y-105873000D01*
X142127000Y-105873000D01*
X142127000Y-102735750D01*
X146380000Y-102735750D01*
X146380000Y-103338309D01*
X146476673Y-103571698D01*
X146655301Y-103750327D01*
X146888690Y-103847000D01*
X147869250Y-103847000D01*
X148028000Y-103688250D01*
X148028000Y-102577000D01*
X148282000Y-102577000D01*
X148282000Y-103688250D01*
X148440750Y-103847000D01*
X149421310Y-103847000D01*
X149654699Y-103750327D01*
X149833327Y-103571698D01*
X149930000Y-103338309D01*
X149930000Y-102735750D01*
X149771250Y-102577000D01*
X148282000Y-102577000D01*
X148028000Y-102577000D01*
X146538750Y-102577000D01*
X146380000Y-102735750D01*
X142127000Y-102735750D01*
X142127000Y-101561691D01*
X146380000Y-101561691D01*
X146380000Y-102164250D01*
X146538750Y-102323000D01*
X148028000Y-102323000D01*
X148028000Y-101211750D01*
X148282000Y-101211750D01*
X148282000Y-102323000D01*
X149771250Y-102323000D01*
X149930000Y-102164250D01*
X149930000Y-101561691D01*
X149833327Y-101328302D01*
X149654699Y-101149673D01*
X149421310Y-101053000D01*
X148440750Y-101053000D01*
X148282000Y-101211750D01*
X148028000Y-101211750D01*
X147869250Y-101053000D01*
X146888690Y-101053000D01*
X146655301Y-101149673D01*
X146476673Y-101328302D01*
X146380000Y-101561691D01*
X142127000Y-101561691D01*
X142127000Y-98235750D01*
X146380000Y-98235750D01*
X146380000Y-98838309D01*
X146476673Y-99071698D01*
X146655301Y-99250327D01*
X146888690Y-99347000D01*
X147869250Y-99347000D01*
X148028000Y-99188250D01*
X148028000Y-98077000D01*
X148282000Y-98077000D01*
X148282000Y-99188250D01*
X148440750Y-99347000D01*
X149421310Y-99347000D01*
X149654699Y-99250327D01*
X149833327Y-99071698D01*
X149930000Y-98838309D01*
X149930000Y-98235750D01*
X149771250Y-98077000D01*
X148282000Y-98077000D01*
X148028000Y-98077000D01*
X146538750Y-98077000D01*
X146380000Y-98235750D01*
X142127000Y-98235750D01*
X142127000Y-96577000D01*
X146830749Y-96577000D01*
X146655301Y-96649673D01*
X146655301Y-96649673D01*
G37*
X146655301Y-96649673D02*
X146476673Y-96828302D01*
X146380000Y-97061691D01*
X146380000Y-97664250D01*
X146538750Y-97823000D01*
X148028000Y-97823000D01*
X148028000Y-97803000D01*
X148282000Y-97803000D01*
X148282000Y-97823000D01*
X149771250Y-97823000D01*
X149930000Y-97664250D01*
X149930000Y-97061691D01*
X149833327Y-96828302D01*
X149654699Y-96649673D01*
X149479251Y-96577000D01*
X150273000Y-96577000D01*
X150273000Y-105873000D01*
X142127000Y-105873000D01*
X142127000Y-102735750D01*
X146380000Y-102735750D01*
X146380000Y-103338309D01*
X146476673Y-103571698D01*
X146655301Y-103750327D01*
X146888690Y-103847000D01*
X147869250Y-103847000D01*
X148028000Y-103688250D01*
X148028000Y-102577000D01*
X148282000Y-102577000D01*
X148282000Y-103688250D01*
X148440750Y-103847000D01*
X149421310Y-103847000D01*
X149654699Y-103750327D01*
X149833327Y-103571698D01*
X149930000Y-103338309D01*
X149930000Y-102735750D01*
X149771250Y-102577000D01*
X148282000Y-102577000D01*
X148028000Y-102577000D01*
X146538750Y-102577000D01*
X146380000Y-102735750D01*
X142127000Y-102735750D01*
X142127000Y-101561691D01*
X146380000Y-101561691D01*
X146380000Y-102164250D01*
X146538750Y-102323000D01*
X148028000Y-102323000D01*
X148028000Y-101211750D01*
X148282000Y-101211750D01*
X148282000Y-102323000D01*
X149771250Y-102323000D01*
X149930000Y-102164250D01*
X149930000Y-101561691D01*
X149833327Y-101328302D01*
X149654699Y-101149673D01*
X149421310Y-101053000D01*
X148440750Y-101053000D01*
X148282000Y-101211750D01*
X148028000Y-101211750D01*
X147869250Y-101053000D01*
X146888690Y-101053000D01*
X146655301Y-101149673D01*
X146476673Y-101328302D01*
X146380000Y-101561691D01*
X142127000Y-101561691D01*
X142127000Y-98235750D01*
X146380000Y-98235750D01*
X146380000Y-98838309D01*
X146476673Y-99071698D01*
X146655301Y-99250327D01*
X146888690Y-99347000D01*
X147869250Y-99347000D01*
X148028000Y-99188250D01*
X148028000Y-98077000D01*
X148282000Y-98077000D01*
X148282000Y-99188250D01*
X148440750Y-99347000D01*
X149421310Y-99347000D01*
X149654699Y-99250327D01*
X149833327Y-99071698D01*
X149930000Y-98838309D01*
X149930000Y-98235750D01*
X149771250Y-98077000D01*
X148282000Y-98077000D01*
X148028000Y-98077000D01*
X146538750Y-98077000D01*
X146380000Y-98235750D01*
X142127000Y-98235750D01*
X142127000Y-96577000D01*
X146830749Y-96577000D01*
X146655301Y-96649673D01*
G36*
X152773000Y-93010997D02*
X152623312Y-93073000D01*
X152566916Y-93073000D01*
X152501890Y-93028569D01*
X152250000Y-92977560D01*
X151450000Y-92977560D01*
X151214683Y-93021838D01*
X151135175Y-93073000D01*
X147605675Y-93073000D01*
X147586799Y-93065162D01*
X147214833Y-93064838D01*
X147195079Y-93073000D01*
X146850000Y-93073000D01*
X146800590Y-93083006D01*
X146758965Y-93111447D01*
X146731685Y-93153841D01*
X146723000Y-93200000D01*
X146723000Y-93354682D01*
X146607808Y-93469673D01*
X146465162Y-93813201D01*
X146464838Y-94185167D01*
X146606883Y-94528943D01*
X146723000Y-94645263D01*
X146723000Y-95598000D01*
X138400000Y-95598000D01*
X138350590Y-95608006D01*
X138308965Y-95636447D01*
X138281685Y-95678841D01*
X138273000Y-95725000D01*
X138273000Y-103048000D01*
X119475000Y-103048000D01*
X119425590Y-103058006D01*
X119383965Y-103086447D01*
X119356685Y-103128841D01*
X119348000Y-103175000D01*
X119348000Y-110873000D01*
X117727383Y-110873000D01*
X117824582Y-110832739D01*
X117984365Y-110513970D01*
X116650000Y-109179605D01*
X115315635Y-110513970D01*
X115475418Y-110832739D01*
X115578124Y-110873000D01*
X114227000Y-110873000D01*
X114227000Y-108616187D01*
X114507277Y-108616187D01*
X114523503Y-109465387D01*
X114817261Y-110174582D01*
X115136030Y-110334365D01*
X116470395Y-109000000D01*
X116829605Y-109000000D01*
X118163970Y-110334365D01*
X118482739Y-110174582D01*
X118792723Y-109383813D01*
X118776497Y-108534613D01*
X118482739Y-107825418D01*
X118163970Y-107665635D01*
X116829605Y-109000000D01*
X116470395Y-109000000D01*
X115136030Y-107665635D01*
X114817261Y-107825418D01*
X114507277Y-108616187D01*
X114227000Y-108616187D01*
X114227000Y-107552606D01*
X114293576Y-107486030D01*
X115315635Y-107486030D01*
X116650000Y-108820395D01*
X117984365Y-107486030D01*
X117824582Y-107167261D01*
X117033813Y-106857277D01*
X116184613Y-106873503D01*
X115475418Y-107167261D01*
X115315635Y-107486030D01*
X114293576Y-107486030D01*
X116044480Y-105735126D01*
X116085167Y-105735162D01*
X116428943Y-105593117D01*
X116692192Y-105330327D01*
X116834838Y-104986799D01*
X116834875Y-104944731D01*
X116889803Y-104889803D01*
X116917666Y-104847789D01*
X116927000Y-104800000D01*
X116927000Y-103884212D01*
X118137411Y-102673801D01*
X118302158Y-102427239D01*
X118360010Y-102136400D01*
X118360010Y-97664792D01*
X119089791Y-96935011D01*
X133261400Y-96935011D01*
X133552239Y-96877159D01*
X133798801Y-96712412D01*
X135337401Y-95173812D01*
X135502148Y-94927250D01*
X135560000Y-94636411D01*
X135560000Y-94569606D01*
X138652606Y-91477000D01*
X150250000Y-91477000D01*
X150299410Y-91466994D01*
X150341035Y-91438553D01*
X150368315Y-91396159D01*
X150376994Y-91351245D01*
X150400761Y-88927000D01*
X152773000Y-88927000D01*
X152773000Y-93010997D01*
X152773000Y-93010997D01*
G37*
X152773000Y-93010997D02*
X152623312Y-93073000D01*
X152566916Y-93073000D01*
X152501890Y-93028569D01*
X152250000Y-92977560D01*
X151450000Y-92977560D01*
X151214683Y-93021838D01*
X151135175Y-93073000D01*
X147605675Y-93073000D01*
X147586799Y-93065162D01*
X147214833Y-93064838D01*
X147195079Y-93073000D01*
X146850000Y-93073000D01*
X146800590Y-93083006D01*
X146758965Y-93111447D01*
X146731685Y-93153841D01*
X146723000Y-93200000D01*
X146723000Y-93354682D01*
X146607808Y-93469673D01*
X146465162Y-93813201D01*
X146464838Y-94185167D01*
X146606883Y-94528943D01*
X146723000Y-94645263D01*
X146723000Y-95598000D01*
X138400000Y-95598000D01*
X138350590Y-95608006D01*
X138308965Y-95636447D01*
X138281685Y-95678841D01*
X138273000Y-95725000D01*
X138273000Y-103048000D01*
X119475000Y-103048000D01*
X119425590Y-103058006D01*
X119383965Y-103086447D01*
X119356685Y-103128841D01*
X119348000Y-103175000D01*
X119348000Y-110873000D01*
X117727383Y-110873000D01*
X117824582Y-110832739D01*
X117984365Y-110513970D01*
X116650000Y-109179605D01*
X115315635Y-110513970D01*
X115475418Y-110832739D01*
X115578124Y-110873000D01*
X114227000Y-110873000D01*
X114227000Y-108616187D01*
X114507277Y-108616187D01*
X114523503Y-109465387D01*
X114817261Y-110174582D01*
X115136030Y-110334365D01*
X116470395Y-109000000D01*
X116829605Y-109000000D01*
X118163970Y-110334365D01*
X118482739Y-110174582D01*
X118792723Y-109383813D01*
X118776497Y-108534613D01*
X118482739Y-107825418D01*
X118163970Y-107665635D01*
X116829605Y-109000000D01*
X116470395Y-109000000D01*
X115136030Y-107665635D01*
X114817261Y-107825418D01*
X114507277Y-108616187D01*
X114227000Y-108616187D01*
X114227000Y-107552606D01*
X114293576Y-107486030D01*
X115315635Y-107486030D01*
X116650000Y-108820395D01*
X117984365Y-107486030D01*
X117824582Y-107167261D01*
X117033813Y-106857277D01*
X116184613Y-106873503D01*
X115475418Y-107167261D01*
X115315635Y-107486030D01*
X114293576Y-107486030D01*
X116044480Y-105735126D01*
X116085167Y-105735162D01*
X116428943Y-105593117D01*
X116692192Y-105330327D01*
X116834838Y-104986799D01*
X116834875Y-104944731D01*
X116889803Y-104889803D01*
X116917666Y-104847789D01*
X116927000Y-104800000D01*
X116927000Y-103884212D01*
X118137411Y-102673801D01*
X118302158Y-102427239D01*
X118360010Y-102136400D01*
X118360010Y-97664792D01*
X119089791Y-96935011D01*
X133261400Y-96935011D01*
X133552239Y-96877159D01*
X133798801Y-96712412D01*
X135337401Y-95173812D01*
X135502148Y-94927250D01*
X135560000Y-94636411D01*
X135560000Y-94569606D01*
X138652606Y-91477000D01*
X150250000Y-91477000D01*
X150299410Y-91466994D01*
X150341035Y-91438553D01*
X150368315Y-91396159D01*
X150376994Y-91351245D01*
X150400761Y-88927000D01*
X152773000Y-88927000D01*
X152773000Y-93010997D01*
G36*
X164615000Y-110592647D02*
X164615000Y-112489250D01*
X164773750Y-112648000D01*
X166073000Y-112648000D01*
X166073000Y-112628000D01*
X166327000Y-112628000D01*
X166327000Y-112648000D01*
X167626250Y-112648000D01*
X167785000Y-112489250D01*
X167785000Y-110600088D01*
X168473000Y-110601703D01*
X168473000Y-115673000D01*
X158077000Y-115673000D01*
X158077000Y-113060750D01*
X164615000Y-113060750D01*
X164615000Y-114976310D01*
X164711673Y-115209699D01*
X164890302Y-115388327D01*
X165123691Y-115485000D01*
X165914250Y-115485000D01*
X166073000Y-115326250D01*
X166073000Y-112902000D01*
X166327000Y-112902000D01*
X166327000Y-115326250D01*
X166485750Y-115485000D01*
X167276309Y-115485000D01*
X167509698Y-115388327D01*
X167688327Y-115209699D01*
X167785000Y-114976310D01*
X167785000Y-113060750D01*
X167626250Y-112902000D01*
X166327000Y-112902000D01*
X166073000Y-112902000D01*
X164773750Y-112902000D01*
X164615000Y-113060750D01*
X158077000Y-113060750D01*
X158077000Y-110577299D01*
X164615000Y-110592647D01*
X164615000Y-110592647D01*
G37*
X164615000Y-110592647D02*
X164615000Y-112489250D01*
X164773750Y-112648000D01*
X166073000Y-112648000D01*
X166073000Y-112628000D01*
X166327000Y-112628000D01*
X166327000Y-112648000D01*
X167626250Y-112648000D01*
X167785000Y-112489250D01*
X167785000Y-110600088D01*
X168473000Y-110601703D01*
X168473000Y-115673000D01*
X158077000Y-115673000D01*
X158077000Y-113060750D01*
X164615000Y-113060750D01*
X164615000Y-114976310D01*
X164711673Y-115209699D01*
X164890302Y-115388327D01*
X165123691Y-115485000D01*
X165914250Y-115485000D01*
X166073000Y-115326250D01*
X166073000Y-112902000D01*
X166327000Y-112902000D01*
X166327000Y-115326250D01*
X166485750Y-115485000D01*
X167276309Y-115485000D01*
X167509698Y-115388327D01*
X167688327Y-115209699D01*
X167785000Y-114976310D01*
X167785000Y-113060750D01*
X167626250Y-112902000D01*
X166327000Y-112902000D01*
X166073000Y-112902000D01*
X164773750Y-112902000D01*
X164615000Y-113060750D01*
X158077000Y-113060750D01*
X158077000Y-110577299D01*
X164615000Y-110592647D01*
G36*
X113275000Y-121592822D02*
X118423000Y-121592822D01*
X118423000Y-122623000D01*
X113250000Y-122623000D01*
X113200590Y-122633006D01*
X113158965Y-122661447D01*
X113131685Y-122703841D01*
X113123000Y-122750000D01*
X113123000Y-128075000D01*
X113133006Y-128124410D01*
X113161447Y-128166035D01*
X113203841Y-128193315D01*
X113250000Y-128202000D01*
X114197394Y-128202000D01*
X114410197Y-128414803D01*
X114452211Y-128442666D01*
X114500000Y-128452000D01*
X136327198Y-128452000D01*
X137012599Y-129137401D01*
X137259161Y-129302148D01*
X137550000Y-129360000D01*
X141460000Y-129360000D01*
X141750839Y-129302148D01*
X141997401Y-129137401D01*
X142032802Y-129102000D01*
X146573000Y-129102000D01*
X146573000Y-129454507D01*
X146557808Y-129469673D01*
X146415162Y-129813201D01*
X146414838Y-130185167D01*
X146556883Y-130528943D01*
X146573000Y-130545088D01*
X146573000Y-130850000D01*
X146583006Y-130899410D01*
X146610197Y-130939803D01*
X147298000Y-131627606D01*
X147298000Y-136773000D01*
X144203854Y-136773000D01*
X144226987Y-135176840D01*
X144226998Y-135174324D01*
X144201998Y-130474324D01*
X144191730Y-130424968D01*
X144163068Y-130383496D01*
X144120529Y-130356442D01*
X144075000Y-130348000D01*
X134427000Y-130348000D01*
X134427000Y-130150000D01*
X134416994Y-130100590D01*
X134388553Y-130058965D01*
X134346159Y-130031685D01*
X134300000Y-130023000D01*
X129665054Y-130023000D01*
X128803065Y-128825793D01*
X128766074Y-128791542D01*
X128700000Y-128773000D01*
X121975365Y-128773000D01*
X116525583Y-128748001D01*
X116525000Y-128748000D01*
X112710000Y-128748000D01*
X112710000Y-121552000D01*
X113069776Y-121552000D01*
X113275000Y-121592822D01*
X113275000Y-121592822D01*
G37*
X113275000Y-121592822D02*
X118423000Y-121592822D01*
X118423000Y-122623000D01*
X113250000Y-122623000D01*
X113200590Y-122633006D01*
X113158965Y-122661447D01*
X113131685Y-122703841D01*
X113123000Y-122750000D01*
X113123000Y-128075000D01*
X113133006Y-128124410D01*
X113161447Y-128166035D01*
X113203841Y-128193315D01*
X113250000Y-128202000D01*
X114197394Y-128202000D01*
X114410197Y-128414803D01*
X114452211Y-128442666D01*
X114500000Y-128452000D01*
X136327198Y-128452000D01*
X137012599Y-129137401D01*
X137259161Y-129302148D01*
X137550000Y-129360000D01*
X141460000Y-129360000D01*
X141750839Y-129302148D01*
X141997401Y-129137401D01*
X142032802Y-129102000D01*
X146573000Y-129102000D01*
X146573000Y-129454507D01*
X146557808Y-129469673D01*
X146415162Y-129813201D01*
X146414838Y-130185167D01*
X146556883Y-130528943D01*
X146573000Y-130545088D01*
X146573000Y-130850000D01*
X146583006Y-130899410D01*
X146610197Y-130939803D01*
X147298000Y-131627606D01*
X147298000Y-136773000D01*
X144203854Y-136773000D01*
X144226987Y-135176840D01*
X144226998Y-135174324D01*
X144201998Y-130474324D01*
X144191730Y-130424968D01*
X144163068Y-130383496D01*
X144120529Y-130356442D01*
X144075000Y-130348000D01*
X134427000Y-130348000D01*
X134427000Y-130150000D01*
X134416994Y-130100590D01*
X134388553Y-130058965D01*
X134346159Y-130031685D01*
X134300000Y-130023000D01*
X129665054Y-130023000D01*
X128803065Y-128825793D01*
X128766074Y-128791542D01*
X128700000Y-128773000D01*
X121975365Y-128773000D01*
X116525583Y-128748001D01*
X116525000Y-128748000D01*
X112710000Y-128748000D01*
X112710000Y-121552000D01*
X113069776Y-121552000D01*
X113275000Y-121592822D01*
G36*
X200290000Y-149623000D02*
X194627000Y-149623000D01*
X194627000Y-135775000D01*
X194616994Y-135725590D01*
X194588553Y-135683965D01*
X194546159Y-135656685D01*
X194500000Y-135648000D01*
X191242594Y-135648000D01*
X191450732Y-135462036D01*
X191704709Y-134934791D01*
X191707358Y-134919026D01*
X191586217Y-134687000D01*
X190227000Y-134687000D01*
X190227000Y-134707000D01*
X189973000Y-134707000D01*
X189973000Y-134687000D01*
X189953000Y-134687000D01*
X189953000Y-134433000D01*
X189973000Y-134433000D01*
X189973000Y-134413000D01*
X190227000Y-134413000D01*
X190227000Y-134433000D01*
X191586217Y-134433000D01*
X191707358Y-134200974D01*
X191704709Y-134185209D01*
X191450732Y-133657964D01*
X191052323Y-133302000D01*
X194375000Y-133302000D01*
X194424410Y-133291994D01*
X194466035Y-133263553D01*
X194493315Y-133221159D01*
X194502000Y-133175000D01*
X194502000Y-126975000D01*
X194491994Y-126925590D01*
X194463553Y-126883965D01*
X194421159Y-126856685D01*
X194375000Y-126848000D01*
X191130670Y-126848000D01*
X191450732Y-126562036D01*
X191704709Y-126034791D01*
X191707358Y-126019026D01*
X191586217Y-125787000D01*
X190227000Y-125787000D01*
X190227000Y-125807000D01*
X189973000Y-125807000D01*
X189973000Y-125787000D01*
X189953000Y-125787000D01*
X189953000Y-125533000D01*
X189973000Y-125533000D01*
X189973000Y-124319076D01*
X190227000Y-124319076D01*
X190227000Y-125533000D01*
X191586217Y-125533000D01*
X191707358Y-125300974D01*
X191704709Y-125285209D01*
X191450732Y-124757964D01*
X191014320Y-124368046D01*
X190461913Y-124174816D01*
X190227000Y-124319076D01*
X189973000Y-124319076D01*
X189738087Y-124174816D01*
X189185680Y-124368046D01*
X188749268Y-124757964D01*
X188627000Y-125011787D01*
X188627000Y-124127000D01*
X194500000Y-124127000D01*
X194549410Y-124116994D01*
X194591035Y-124088553D01*
X194618315Y-124046159D01*
X194627000Y-124000000D01*
X194627000Y-118050000D01*
X194616994Y-118000590D01*
X194588553Y-117958965D01*
X194546159Y-117931685D01*
X194500000Y-117923000D01*
X191158651Y-117923000D01*
X191450732Y-117662036D01*
X191704709Y-117134791D01*
X191707358Y-117119026D01*
X191586217Y-116887000D01*
X190227000Y-116887000D01*
X190227000Y-116907000D01*
X189973000Y-116907000D01*
X189973000Y-116887000D01*
X189953000Y-116887000D01*
X189953000Y-116633000D01*
X189973000Y-116633000D01*
X189973000Y-116613000D01*
X190227000Y-116613000D01*
X190227000Y-116633000D01*
X191586217Y-116633000D01*
X191707358Y-116400974D01*
X191704709Y-116385209D01*
X191450732Y-115857964D01*
X191014320Y-115468046D01*
X190754037Y-115377000D01*
X194500000Y-115377000D01*
X194549410Y-115366994D01*
X194591035Y-115338553D01*
X194618315Y-115296159D01*
X194627000Y-115250000D01*
X194627000Y-109125000D01*
X194616994Y-109075590D01*
X194588553Y-109033965D01*
X194546159Y-109006685D01*
X194500000Y-108998000D01*
X191186632Y-108998000D01*
X191450732Y-108762036D01*
X191704709Y-108234791D01*
X191707358Y-108219026D01*
X191586217Y-107987000D01*
X190227000Y-107987000D01*
X190227000Y-108007000D01*
X189973000Y-108007000D01*
X189973000Y-107987000D01*
X188613783Y-107987000D01*
X188492642Y-108219026D01*
X188495291Y-108234791D01*
X188749268Y-108762036D01*
X189013368Y-108998000D01*
X187852000Y-108998000D01*
X187852000Y-106627000D01*
X189119696Y-106627000D01*
X188749268Y-106957964D01*
X188495291Y-107485209D01*
X188492642Y-107500974D01*
X188613783Y-107733000D01*
X189973000Y-107733000D01*
X189973000Y-107713000D01*
X190227000Y-107713000D01*
X190227000Y-107733000D01*
X191586217Y-107733000D01*
X191707358Y-107500974D01*
X191704709Y-107485209D01*
X191450732Y-106957964D01*
X191080304Y-106627000D01*
X194500000Y-106627000D01*
X194549410Y-106616994D01*
X194591035Y-106588553D01*
X194618315Y-106546159D01*
X194627000Y-106500000D01*
X194627000Y-91150000D01*
X194616994Y-91100590D01*
X194588553Y-91058965D01*
X194546159Y-91031685D01*
X194500000Y-91023000D01*
X191203420Y-91023000D01*
X191450732Y-90802036D01*
X191704709Y-90274791D01*
X191707358Y-90259026D01*
X191586217Y-90027000D01*
X190227000Y-90027000D01*
X190227000Y-90047000D01*
X189973000Y-90047000D01*
X189973000Y-90027000D01*
X189953000Y-90027000D01*
X189953000Y-89773000D01*
X189973000Y-89773000D01*
X189973000Y-89753000D01*
X190227000Y-89753000D01*
X190227000Y-89773000D01*
X191586217Y-89773000D01*
X191707358Y-89540974D01*
X191704709Y-89525209D01*
X191450732Y-88997964D01*
X191035534Y-88627000D01*
X194500000Y-88627000D01*
X194549410Y-88616994D01*
X194591035Y-88588553D01*
X194618315Y-88546159D01*
X194627000Y-88500000D01*
X194627000Y-82275000D01*
X194616994Y-82225590D01*
X194588553Y-82183965D01*
X194546159Y-82156685D01*
X194500000Y-82148000D01*
X191242594Y-82148000D01*
X191450732Y-81962036D01*
X191704709Y-81434791D01*
X191707358Y-81419026D01*
X191586217Y-81187000D01*
X190227000Y-81187000D01*
X190227000Y-81207000D01*
X189973000Y-81207000D01*
X189973000Y-81187000D01*
X189953000Y-81187000D01*
X189953000Y-80933000D01*
X189973000Y-80933000D01*
X189973000Y-80913000D01*
X190227000Y-80913000D01*
X190227000Y-80933000D01*
X191586217Y-80933000D01*
X191707358Y-80700974D01*
X191704709Y-80685209D01*
X191450732Y-80157964D01*
X191136266Y-79877000D01*
X194500000Y-79877000D01*
X194549410Y-79866994D01*
X194591035Y-79838553D01*
X194618315Y-79796159D01*
X194626999Y-79750488D01*
X194651999Y-73250488D01*
X194642183Y-73201040D01*
X194613903Y-73159307D01*
X194571614Y-73131864D01*
X194525000Y-73123000D01*
X191270575Y-73123000D01*
X191450732Y-72962036D01*
X191704709Y-72434791D01*
X191707358Y-72419026D01*
X191586217Y-72187000D01*
X190227000Y-72187000D01*
X190227000Y-72207000D01*
X189973000Y-72207000D01*
X189973000Y-72187000D01*
X189953000Y-72187000D01*
X189953000Y-71933000D01*
X189973000Y-71933000D01*
X189973000Y-71913000D01*
X190227000Y-71913000D01*
X190227000Y-71933000D01*
X191586217Y-71933000D01*
X191707358Y-71700974D01*
X191704709Y-71685209D01*
X191450732Y-71157964D01*
X191014320Y-70768046D01*
X190848378Y-70710000D01*
X200290000Y-70710000D01*
X200290000Y-149623000D01*
X200290000Y-149623000D01*
G37*
X200290000Y-149623000D02*
X194627000Y-149623000D01*
X194627000Y-135775000D01*
X194616994Y-135725590D01*
X194588553Y-135683965D01*
X194546159Y-135656685D01*
X194500000Y-135648000D01*
X191242594Y-135648000D01*
X191450732Y-135462036D01*
X191704709Y-134934791D01*
X191707358Y-134919026D01*
X191586217Y-134687000D01*
X190227000Y-134687000D01*
X190227000Y-134707000D01*
X189973000Y-134707000D01*
X189973000Y-134687000D01*
X189953000Y-134687000D01*
X189953000Y-134433000D01*
X189973000Y-134433000D01*
X189973000Y-134413000D01*
X190227000Y-134413000D01*
X190227000Y-134433000D01*
X191586217Y-134433000D01*
X191707358Y-134200974D01*
X191704709Y-134185209D01*
X191450732Y-133657964D01*
X191052323Y-133302000D01*
X194375000Y-133302000D01*
X194424410Y-133291994D01*
X194466035Y-133263553D01*
X194493315Y-133221159D01*
X194502000Y-133175000D01*
X194502000Y-126975000D01*
X194491994Y-126925590D01*
X194463553Y-126883965D01*
X194421159Y-126856685D01*
X194375000Y-126848000D01*
X191130670Y-126848000D01*
X191450732Y-126562036D01*
X191704709Y-126034791D01*
X191707358Y-126019026D01*
X191586217Y-125787000D01*
X190227000Y-125787000D01*
X190227000Y-125807000D01*
X189973000Y-125807000D01*
X189973000Y-125787000D01*
X189953000Y-125787000D01*
X189953000Y-125533000D01*
X189973000Y-125533000D01*
X189973000Y-124319076D01*
X190227000Y-124319076D01*
X190227000Y-125533000D01*
X191586217Y-125533000D01*
X191707358Y-125300974D01*
X191704709Y-125285209D01*
X191450732Y-124757964D01*
X191014320Y-124368046D01*
X190461913Y-124174816D01*
X190227000Y-124319076D01*
X189973000Y-124319076D01*
X189738087Y-124174816D01*
X189185680Y-124368046D01*
X188749268Y-124757964D01*
X188627000Y-125011787D01*
X188627000Y-124127000D01*
X194500000Y-124127000D01*
X194549410Y-124116994D01*
X194591035Y-124088553D01*
X194618315Y-124046159D01*
X194627000Y-124000000D01*
X194627000Y-118050000D01*
X194616994Y-118000590D01*
X194588553Y-117958965D01*
X194546159Y-117931685D01*
X194500000Y-117923000D01*
X191158651Y-117923000D01*
X191450732Y-117662036D01*
X191704709Y-117134791D01*
X191707358Y-117119026D01*
X191586217Y-116887000D01*
X190227000Y-116887000D01*
X190227000Y-116907000D01*
X189973000Y-116907000D01*
X189973000Y-116887000D01*
X189953000Y-116887000D01*
X189953000Y-116633000D01*
X189973000Y-116633000D01*
X189973000Y-116613000D01*
X190227000Y-116613000D01*
X190227000Y-116633000D01*
X191586217Y-116633000D01*
X191707358Y-116400974D01*
X191704709Y-116385209D01*
X191450732Y-115857964D01*
X191014320Y-115468046D01*
X190754037Y-115377000D01*
X194500000Y-115377000D01*
X194549410Y-115366994D01*
X194591035Y-115338553D01*
X194618315Y-115296159D01*
X194627000Y-115250000D01*
X194627000Y-109125000D01*
X194616994Y-109075590D01*
X194588553Y-109033965D01*
X194546159Y-109006685D01*
X194500000Y-108998000D01*
X191186632Y-108998000D01*
X191450732Y-108762036D01*
X191704709Y-108234791D01*
X191707358Y-108219026D01*
X191586217Y-107987000D01*
X190227000Y-107987000D01*
X190227000Y-108007000D01*
X189973000Y-108007000D01*
X189973000Y-107987000D01*
X188613783Y-107987000D01*
X188492642Y-108219026D01*
X188495291Y-108234791D01*
X188749268Y-108762036D01*
X189013368Y-108998000D01*
X187852000Y-108998000D01*
X187852000Y-106627000D01*
X189119696Y-106627000D01*
X188749268Y-106957964D01*
X188495291Y-107485209D01*
X188492642Y-107500974D01*
X188613783Y-107733000D01*
X189973000Y-107733000D01*
X189973000Y-107713000D01*
X190227000Y-107713000D01*
X190227000Y-107733000D01*
X191586217Y-107733000D01*
X191707358Y-107500974D01*
X191704709Y-107485209D01*
X191450732Y-106957964D01*
X191080304Y-106627000D01*
X194500000Y-106627000D01*
X194549410Y-106616994D01*
X194591035Y-106588553D01*
X194618315Y-106546159D01*
X194627000Y-106500000D01*
X194627000Y-91150000D01*
X194616994Y-91100590D01*
X194588553Y-91058965D01*
X194546159Y-91031685D01*
X194500000Y-91023000D01*
X191203420Y-91023000D01*
X191450732Y-90802036D01*
X191704709Y-90274791D01*
X191707358Y-90259026D01*
X191586217Y-90027000D01*
X190227000Y-90027000D01*
X190227000Y-90047000D01*
X189973000Y-90047000D01*
X189973000Y-90027000D01*
X189953000Y-90027000D01*
X189953000Y-89773000D01*
X189973000Y-89773000D01*
X189973000Y-89753000D01*
X190227000Y-89753000D01*
X190227000Y-89773000D01*
X191586217Y-89773000D01*
X191707358Y-89540974D01*
X191704709Y-89525209D01*
X191450732Y-88997964D01*
X191035534Y-88627000D01*
X194500000Y-88627000D01*
X194549410Y-88616994D01*
X194591035Y-88588553D01*
X194618315Y-88546159D01*
X194627000Y-88500000D01*
X194627000Y-82275000D01*
X194616994Y-82225590D01*
X194588553Y-82183965D01*
X194546159Y-82156685D01*
X194500000Y-82148000D01*
X191242594Y-82148000D01*
X191450732Y-81962036D01*
X191704709Y-81434791D01*
X191707358Y-81419026D01*
X191586217Y-81187000D01*
X190227000Y-81187000D01*
X190227000Y-81207000D01*
X189973000Y-81207000D01*
X189973000Y-81187000D01*
X189953000Y-81187000D01*
X189953000Y-80933000D01*
X189973000Y-80933000D01*
X189973000Y-80913000D01*
X190227000Y-80913000D01*
X190227000Y-80933000D01*
X191586217Y-80933000D01*
X191707358Y-80700974D01*
X191704709Y-80685209D01*
X191450732Y-80157964D01*
X191136266Y-79877000D01*
X194500000Y-79877000D01*
X194549410Y-79866994D01*
X194591035Y-79838553D01*
X194618315Y-79796159D01*
X194626999Y-79750488D01*
X194651999Y-73250488D01*
X194642183Y-73201040D01*
X194613903Y-73159307D01*
X194571614Y-73131864D01*
X194525000Y-73123000D01*
X191270575Y-73123000D01*
X191450732Y-72962036D01*
X191704709Y-72434791D01*
X191707358Y-72419026D01*
X191586217Y-72187000D01*
X190227000Y-72187000D01*
X190227000Y-72207000D01*
X189973000Y-72207000D01*
X189973000Y-72187000D01*
X189953000Y-72187000D01*
X189953000Y-71933000D01*
X189973000Y-71933000D01*
X189973000Y-71913000D01*
X190227000Y-71913000D01*
X190227000Y-71933000D01*
X191586217Y-71933000D01*
X191707358Y-71700974D01*
X191704709Y-71685209D01*
X191450732Y-71157964D01*
X191014320Y-70768046D01*
X190848378Y-70710000D01*
X200290000Y-70710000D01*
X200290000Y-149623000D01*
G36*
X122723000Y-138650000D02*
X122733006Y-138699410D01*
X122761447Y-138741035D01*
X122803841Y-138768315D01*
X122850000Y-138777000D01*
X123748000Y-138777000D01*
X123748000Y-146145978D01*
X123632277Y-146441187D01*
X123648503Y-147290387D01*
X123748000Y-147530594D01*
X123748000Y-147873000D01*
X118552000Y-147873000D01*
X118552000Y-137235000D01*
X118677002Y-137235000D01*
X118677002Y-137140752D01*
X118771250Y-137235000D01*
X118801309Y-137235000D01*
X118875000Y-137204476D01*
X118948691Y-137235000D01*
X118978750Y-137235000D01*
X119137500Y-137076250D01*
X119137500Y-137035526D01*
X119200000Y-136973026D01*
X119262500Y-137035526D01*
X119262500Y-137076250D01*
X119421250Y-137235000D01*
X119451309Y-137235000D01*
X119525000Y-137204476D01*
X119598691Y-137235000D01*
X119628750Y-137235000D01*
X119787500Y-137076250D01*
X119787500Y-137035526D01*
X119863327Y-136959699D01*
X119912500Y-136840985D01*
X119912500Y-137076250D01*
X120071250Y-137235000D01*
X120101309Y-137235000D01*
X120334698Y-137138327D01*
X120513327Y-136959699D01*
X120610000Y-136726310D01*
X120610000Y-136385750D01*
X120589026Y-136364776D01*
X122723000Y-136352720D01*
X122723000Y-138650000D01*
X122723000Y-138650000D01*
G37*
X122723000Y-138650000D02*
X122733006Y-138699410D01*
X122761447Y-138741035D01*
X122803841Y-138768315D01*
X122850000Y-138777000D01*
X123748000Y-138777000D01*
X123748000Y-146145978D01*
X123632277Y-146441187D01*
X123648503Y-147290387D01*
X123748000Y-147530594D01*
X123748000Y-147873000D01*
X118552000Y-147873000D01*
X118552000Y-137235000D01*
X118677002Y-137235000D01*
X118677002Y-137140752D01*
X118771250Y-137235000D01*
X118801309Y-137235000D01*
X118875000Y-137204476D01*
X118948691Y-137235000D01*
X118978750Y-137235000D01*
X119137500Y-137076250D01*
X119137500Y-137035526D01*
X119200000Y-136973026D01*
X119262500Y-137035526D01*
X119262500Y-137076250D01*
X119421250Y-137235000D01*
X119451309Y-137235000D01*
X119525000Y-137204476D01*
X119598691Y-137235000D01*
X119628750Y-137235000D01*
X119787500Y-137076250D01*
X119787500Y-137035526D01*
X119863327Y-136959699D01*
X119912500Y-136840985D01*
X119912500Y-137076250D01*
X120071250Y-137235000D01*
X120101309Y-137235000D01*
X120334698Y-137138327D01*
X120513327Y-136959699D01*
X120610000Y-136726310D01*
X120610000Y-136385750D01*
X120589026Y-136364776D01*
X122723000Y-136352720D01*
X122723000Y-138650000D01*
G36*
X135848510Y-150290000D02*
X133627000Y-150290000D01*
X133627000Y-145325000D01*
X133616994Y-145275590D01*
X133588553Y-145233965D01*
X133546159Y-145206685D01*
X133500000Y-145198000D01*
X133227000Y-145198000D01*
X133227000Y-143952000D01*
X135872518Y-143952000D01*
X135848510Y-150290000D01*
X135848510Y-150290000D01*
G37*
X135848510Y-150290000D02*
X133627000Y-150290000D01*
X133627000Y-145325000D01*
X133616994Y-145275590D01*
X133588553Y-145233965D01*
X133546159Y-145206685D01*
X133500000Y-145198000D01*
X133227000Y-145198000D01*
X133227000Y-143952000D01*
X135872518Y-143952000D01*
X135848510Y-150290000D01*
D50*
G36*
X182845000Y-99550000D02*
X182853273Y-99590851D01*
X182876787Y-99625265D01*
X182911837Y-99647819D01*
X182950000Y-99655000D01*
X187609032Y-99655000D01*
X187658445Y-99688017D01*
X187720000Y-99700261D01*
X187720000Y-100600000D01*
X187728273Y-100640851D01*
X187751787Y-100675265D01*
X187786837Y-100697819D01*
X187825000Y-100705000D01*
X188718815Y-100705000D01*
X188519932Y-101123022D01*
X188632665Y-101351000D01*
X189951000Y-101351000D01*
X189951000Y-101331000D01*
X190249000Y-101331000D01*
X190249000Y-101351000D01*
X191567335Y-101351000D01*
X191680068Y-101123022D01*
X191481185Y-100705000D01*
X192070000Y-100705000D01*
X192070000Y-102445000D01*
X191364465Y-102445000D01*
X191445134Y-102370774D01*
X191680068Y-101876978D01*
X191567335Y-101649000D01*
X190249000Y-101649000D01*
X190249000Y-101669000D01*
X189951000Y-101669000D01*
X189951000Y-101649000D01*
X188632665Y-101649000D01*
X188519932Y-101876978D01*
X188754866Y-102370774D01*
X188835535Y-102445000D01*
X186430000Y-102445000D01*
X186430000Y-101575000D01*
X186421727Y-101534149D01*
X186399246Y-101500754D01*
X185749246Y-100850754D01*
X185714511Y-100827717D01*
X185675000Y-100820000D01*
X182890088Y-100820000D01*
X181248244Y-99178155D01*
X181008820Y-99018177D01*
X180726399Y-98962000D01*
X178180690Y-98962000D01*
X177813000Y-98594310D01*
X177813000Y-97405690D01*
X178055690Y-97163000D01*
X182475000Y-97163000D01*
X182757421Y-97106823D01*
X182797564Y-97080000D01*
X182845000Y-97080000D01*
X182845000Y-99550000D01*
X182845000Y-99550000D01*
G37*
X182845000Y-99550000D02*
X182853273Y-99590851D01*
X182876787Y-99625265D01*
X182911837Y-99647819D01*
X182950000Y-99655000D01*
X187609032Y-99655000D01*
X187658445Y-99688017D01*
X187720000Y-99700261D01*
X187720000Y-100600000D01*
X187728273Y-100640851D01*
X187751787Y-100675265D01*
X187786837Y-100697819D01*
X187825000Y-100705000D01*
X188718815Y-100705000D01*
X188519932Y-101123022D01*
X188632665Y-101351000D01*
X189951000Y-101351000D01*
X189951000Y-101331000D01*
X190249000Y-101331000D01*
X190249000Y-101351000D01*
X191567335Y-101351000D01*
X191680068Y-101123022D01*
X191481185Y-100705000D01*
X192070000Y-100705000D01*
X192070000Y-102445000D01*
X191364465Y-102445000D01*
X191445134Y-102370774D01*
X191680068Y-101876978D01*
X191567335Y-101649000D01*
X190249000Y-101649000D01*
X190249000Y-101669000D01*
X189951000Y-101669000D01*
X189951000Y-101649000D01*
X188632665Y-101649000D01*
X188519932Y-101876978D01*
X188754866Y-102370774D01*
X188835535Y-102445000D01*
X186430000Y-102445000D01*
X186430000Y-101575000D01*
X186421727Y-101534149D01*
X186399246Y-101500754D01*
X185749246Y-100850754D01*
X185714511Y-100827717D01*
X185675000Y-100820000D01*
X182890088Y-100820000D01*
X181248244Y-99178155D01*
X181008820Y-99018177D01*
X180726399Y-98962000D01*
X178180690Y-98962000D01*
X177813000Y-98594310D01*
X177813000Y-97405690D01*
X178055690Y-97163000D01*
X182475000Y-97163000D01*
X182757421Y-97106823D01*
X182797564Y-97080000D01*
X182845000Y-97080000D01*
X182845000Y-99550000D01*
D49*
G36*
X170773000Y-134845930D02*
X168248847Y-137273000D01*
X156852606Y-137273000D01*
X154269403Y-134689797D01*
X154384838Y-134411799D01*
X154385162Y-134039833D01*
X154243117Y-133696057D01*
X154227000Y-133679912D01*
X154227000Y-133235750D01*
X156965000Y-133235750D01*
X156965000Y-135076309D01*
X157061673Y-135309698D01*
X157240301Y-135488327D01*
X157473690Y-135585000D01*
X160814250Y-135585000D01*
X160973000Y-135426250D01*
X160973000Y-133077000D01*
X161227000Y-133077000D01*
X161227000Y-135426250D01*
X161385750Y-135585000D01*
X164726310Y-135585000D01*
X164959699Y-135488327D01*
X165138327Y-135309698D01*
X165235000Y-135076309D01*
X165235000Y-133235750D01*
X165076250Y-133077000D01*
X161227000Y-133077000D01*
X160973000Y-133077000D01*
X157123750Y-133077000D01*
X156965000Y-133235750D01*
X154227000Y-133235750D01*
X154227000Y-133000000D01*
X154216994Y-132950590D01*
X154188553Y-132908965D01*
X154146159Y-132881685D01*
X154100000Y-132873000D01*
X153472440Y-132873000D01*
X153472440Y-132800000D01*
X153428162Y-132564683D01*
X153361671Y-132461354D01*
X153363327Y-132459698D01*
X153460000Y-132226309D01*
X153460000Y-131985750D01*
X153301250Y-131827000D01*
X152577000Y-131827000D01*
X152577000Y-131847000D01*
X152323000Y-131847000D01*
X152323000Y-131827000D01*
X152100876Y-131827000D01*
X152088553Y-131808965D01*
X152046159Y-131781685D01*
X152000000Y-131773000D01*
X151340000Y-131773000D01*
X151340000Y-131545750D01*
X151181250Y-131387000D01*
X149627000Y-131387000D01*
X149627000Y-131407000D01*
X149373000Y-131407000D01*
X149373000Y-131387000D01*
X149353000Y-131387000D01*
X149353000Y-131133000D01*
X149373000Y-131133000D01*
X149373000Y-131113000D01*
X149627000Y-131113000D01*
X149627000Y-131133000D01*
X151181250Y-131133000D01*
X151299353Y-131014897D01*
X151475481Y-131088032D01*
X151440000Y-131173691D01*
X151440000Y-131414250D01*
X151598750Y-131573000D01*
X152323000Y-131573000D01*
X152323000Y-131553000D01*
X152577000Y-131553000D01*
X152577000Y-131573000D01*
X153301250Y-131573000D01*
X153460000Y-131414250D01*
X153460000Y-131173691D01*
X153363327Y-130940302D01*
X153246717Y-130823691D01*
X156965000Y-130823691D01*
X156965000Y-132664250D01*
X157123750Y-132823000D01*
X160973000Y-132823000D01*
X160973000Y-130473750D01*
X161227000Y-130473750D01*
X161227000Y-132823000D01*
X165076250Y-132823000D01*
X165235000Y-132664250D01*
X165235000Y-130823691D01*
X165138327Y-130590302D01*
X164959699Y-130411673D01*
X164726310Y-130315000D01*
X161385750Y-130315000D01*
X161227000Y-130473750D01*
X160973000Y-130473750D01*
X160814250Y-130315000D01*
X157473690Y-130315000D01*
X157240301Y-130411673D01*
X157061673Y-130590302D01*
X156965000Y-130823691D01*
X153246717Y-130823691D01*
X153184699Y-130761673D01*
X152951310Y-130665000D01*
X152735750Y-130665000D01*
X152577002Y-130823748D01*
X152577002Y-130706702D01*
X152709838Y-130386799D01*
X152709914Y-130299606D01*
X152770150Y-130209456D01*
X153252606Y-129727000D01*
X170773000Y-129727000D01*
X170773000Y-134845930D01*
X170773000Y-134845930D01*
G37*
X170773000Y-134845930D02*
X168248847Y-137273000D01*
X156852606Y-137273000D01*
X154269403Y-134689797D01*
X154384838Y-134411799D01*
X154385162Y-134039833D01*
X154243117Y-133696057D01*
X154227000Y-133679912D01*
X154227000Y-133235750D01*
X156965000Y-133235750D01*
X156965000Y-135076309D01*
X157061673Y-135309698D01*
X157240301Y-135488327D01*
X157473690Y-135585000D01*
X160814250Y-135585000D01*
X160973000Y-135426250D01*
X160973000Y-133077000D01*
X161227000Y-133077000D01*
X161227000Y-135426250D01*
X161385750Y-135585000D01*
X164726310Y-135585000D01*
X164959699Y-135488327D01*
X165138327Y-135309698D01*
X165235000Y-135076309D01*
X165235000Y-133235750D01*
X165076250Y-133077000D01*
X161227000Y-133077000D01*
X160973000Y-133077000D01*
X157123750Y-133077000D01*
X156965000Y-133235750D01*
X154227000Y-133235750D01*
X154227000Y-133000000D01*
X154216994Y-132950590D01*
X154188553Y-132908965D01*
X154146159Y-132881685D01*
X154100000Y-132873000D01*
X153472440Y-132873000D01*
X153472440Y-132800000D01*
X153428162Y-132564683D01*
X153361671Y-132461354D01*
X153363327Y-132459698D01*
X153460000Y-132226309D01*
X153460000Y-131985750D01*
X153301250Y-131827000D01*
X152577000Y-131827000D01*
X152577000Y-131847000D01*
X152323000Y-131847000D01*
X152323000Y-131827000D01*
X152100876Y-131827000D01*
X152088553Y-131808965D01*
X152046159Y-131781685D01*
X152000000Y-131773000D01*
X151340000Y-131773000D01*
X151340000Y-131545750D01*
X151181250Y-131387000D01*
X149627000Y-131387000D01*
X149627000Y-131407000D01*
X149373000Y-131407000D01*
X149373000Y-131387000D01*
X149353000Y-131387000D01*
X149353000Y-131133000D01*
X149373000Y-131133000D01*
X149373000Y-131113000D01*
X149627000Y-131113000D01*
X149627000Y-131133000D01*
X151181250Y-131133000D01*
X151299353Y-131014897D01*
X151475481Y-131088032D01*
X151440000Y-131173691D01*
X151440000Y-131414250D01*
X151598750Y-131573000D01*
X152323000Y-131573000D01*
X152323000Y-131553000D01*
X152577000Y-131553000D01*
X152577000Y-131573000D01*
X153301250Y-131573000D01*
X153460000Y-131414250D01*
X153460000Y-131173691D01*
X153363327Y-130940302D01*
X153246717Y-130823691D01*
X156965000Y-130823691D01*
X156965000Y-132664250D01*
X157123750Y-132823000D01*
X160973000Y-132823000D01*
X160973000Y-130473750D01*
X161227000Y-130473750D01*
X161227000Y-132823000D01*
X165076250Y-132823000D01*
X165235000Y-132664250D01*
X165235000Y-130823691D01*
X165138327Y-130590302D01*
X164959699Y-130411673D01*
X164726310Y-130315000D01*
X161385750Y-130315000D01*
X161227000Y-130473750D01*
X160973000Y-130473750D01*
X160814250Y-130315000D01*
X157473690Y-130315000D01*
X157240301Y-130411673D01*
X157061673Y-130590302D01*
X156965000Y-130823691D01*
X153246717Y-130823691D01*
X153184699Y-130761673D01*
X152951310Y-130665000D01*
X152735750Y-130665000D01*
X152577002Y-130823748D01*
X152577002Y-130706702D01*
X152709838Y-130386799D01*
X152709914Y-130299606D01*
X152770150Y-130209456D01*
X153252606Y-129727000D01*
X170773000Y-129727000D01*
X170773000Y-134845930D01*
M02*
