M48
;DRILL file {KiCad 4.0.2-stable} date Wed 04 May 2016 02:46:22 PM EDT
;FORMAT={-:-/ absolute / inch / decimal}
FMAT,2
INCH,TZ
T1C0.016
T2C0.020
T3C0.022
T4C0.040
T5C0.120
%
G90
G05
M72
T1
X5.9449Y-3.6299
X6.0276Y-3.7283
X6.0906Y-3.0787
X6.0915Y-3.7274
X6.3937Y-3.8071
X6.4646Y-3.0709
X6.5659Y-3.6506
X6.5669Y-3.7362
X6.5748Y-3.9409
T4
X5.6693Y-3.5645
X5.6693Y-3.6745
X5.6693Y-3.7795
X5.6693Y-3.8895
X5.7693Y-3.5095
X5.7693Y-3.6195
X5.7693Y-3.7295
X5.7693Y-3.8345
X5.7693Y-3.9445
T5
X5.6693Y-3.2245
X5.6693Y-4.2245
T2
X6.0433Y-2.8558G85X6.0433Y-2.8814
G05
X6.3189Y-2.8558G85X6.3189Y-2.8814
G05
T3
X6.0886Y-2.9749G85X6.0768Y-2.9749
G05
X6.2855Y-2.9749G85X6.2737Y-2.9749
G05
T0
M30
