G04 #@! TF.FileFunction,Legend,Top*
%FSLAX46Y46*%
G04 Gerber Fmt 4.6, Leading zero omitted, Abs format (unit mm)*
G04 Created by KiCad (PCBNEW 4.0.2-stable) date Wed 04 May 2016 02:46:17 PM EDT*
%MOMM*%
G01*
G04 APERTURE LIST*
%ADD10C,0.100000*%
%ADD11C,0.150000*%
G04 APERTURE END LIST*
D10*
D11*
X162250000Y-77525000D02*
X161750000Y-77525000D01*
X161750000Y-78475000D02*
X162250000Y-78475000D01*
X153850000Y-92800000D02*
X153150000Y-92800000D01*
X153150000Y-91600000D02*
X153850000Y-91600000D01*
X169850000Y-95400000D02*
X169150000Y-95400000D01*
X169150000Y-94200000D02*
X169850000Y-94200000D01*
X169200000Y-98950000D02*
X169200000Y-99650000D01*
X168000000Y-99650000D02*
X168000000Y-98950000D01*
X147556000Y-110859000D02*
X147556000Y-78347000D01*
X147556000Y-78347000D02*
X129776000Y-78347000D01*
X129776000Y-78347000D02*
X129776000Y-110859000D01*
X129776000Y-110859000D02*
X147556000Y-110859000D01*
X129776000Y-103747000D02*
X137396000Y-103747000D01*
X137396000Y-103747000D02*
X137396000Y-85459000D01*
X137396000Y-85459000D02*
X129776000Y-85459000D01*
X129776000Y-102223000D02*
X121140000Y-102223000D01*
X121140000Y-102223000D02*
X121140000Y-86983000D01*
X121140000Y-86983000D02*
X129776000Y-86983000D01*
X161850000Y-82500000D02*
X161850000Y-81500000D01*
X160150000Y-81500000D02*
X160150000Y-82500000D01*
X161350900Y-70182540D02*
X152650900Y-70182540D01*
X161350900Y-76587540D02*
X152650900Y-76587540D01*
X152650900Y-76587540D02*
X152650900Y-70182540D01*
X152650900Y-71412540D02*
X161350900Y-71412540D01*
X161350900Y-70182540D02*
X161350900Y-76587540D01*
X168950000Y-96275000D02*
X168450000Y-96275000D01*
X168450000Y-97325000D02*
X168950000Y-97325000D01*
X158125000Y-89675000D02*
X158125000Y-90325000D01*
X163875000Y-89675000D02*
X163875000Y-90325000D01*
X163875000Y-100325000D02*
X163875000Y-99675000D01*
X158125000Y-100325000D02*
X158125000Y-99675000D01*
X158125000Y-89675000D02*
X163875000Y-89675000D01*
X158125000Y-100325000D02*
X163875000Y-100325000D01*
X158125000Y-90325000D02*
X156525000Y-90325000D01*
X164833334Y-78357143D02*
X164785715Y-78404762D01*
X164642858Y-78452381D01*
X164547620Y-78452381D01*
X164404762Y-78404762D01*
X164309524Y-78309524D01*
X164261905Y-78214286D01*
X164214286Y-78023810D01*
X164214286Y-77880952D01*
X164261905Y-77690476D01*
X164309524Y-77595238D01*
X164404762Y-77500000D01*
X164547620Y-77452381D01*
X164642858Y-77452381D01*
X164785715Y-77500000D01*
X164833334Y-77547619D01*
X165785715Y-78452381D02*
X165214286Y-78452381D01*
X165500000Y-78452381D02*
X165500000Y-77452381D01*
X165404762Y-77595238D01*
X165309524Y-77690476D01*
X165214286Y-77738095D01*
X153333334Y-94457143D02*
X153285715Y-94504762D01*
X153142858Y-94552381D01*
X153047620Y-94552381D01*
X152904762Y-94504762D01*
X152809524Y-94409524D01*
X152761905Y-94314286D01*
X152714286Y-94123810D01*
X152714286Y-93980952D01*
X152761905Y-93790476D01*
X152809524Y-93695238D01*
X152904762Y-93600000D01*
X153047620Y-93552381D01*
X153142858Y-93552381D01*
X153285715Y-93600000D01*
X153333334Y-93647619D01*
X153714286Y-93647619D02*
X153761905Y-93600000D01*
X153857143Y-93552381D01*
X154095239Y-93552381D01*
X154190477Y-93600000D01*
X154238096Y-93647619D01*
X154285715Y-93742857D01*
X154285715Y-93838095D01*
X154238096Y-93980952D01*
X153666667Y-94552381D01*
X154285715Y-94552381D01*
X172133334Y-95057143D02*
X172085715Y-95104762D01*
X171942858Y-95152381D01*
X171847620Y-95152381D01*
X171704762Y-95104762D01*
X171609524Y-95009524D01*
X171561905Y-94914286D01*
X171514286Y-94723810D01*
X171514286Y-94580952D01*
X171561905Y-94390476D01*
X171609524Y-94295238D01*
X171704762Y-94200000D01*
X171847620Y-94152381D01*
X171942858Y-94152381D01*
X172085715Y-94200000D01*
X172133334Y-94247619D01*
X172466667Y-94152381D02*
X173085715Y-94152381D01*
X172752381Y-94533333D01*
X172895239Y-94533333D01*
X172990477Y-94580952D01*
X173038096Y-94628571D01*
X173085715Y-94723810D01*
X173085715Y-94961905D01*
X173038096Y-95057143D01*
X172990477Y-95104762D01*
X172895239Y-95152381D01*
X172609524Y-95152381D01*
X172514286Y-95104762D01*
X172466667Y-95057143D01*
X170857143Y-99466666D02*
X170904762Y-99514285D01*
X170952381Y-99657142D01*
X170952381Y-99752380D01*
X170904762Y-99895238D01*
X170809524Y-99990476D01*
X170714286Y-100038095D01*
X170523810Y-100085714D01*
X170380952Y-100085714D01*
X170190476Y-100038095D01*
X170095238Y-99990476D01*
X170000000Y-99895238D01*
X169952381Y-99752380D01*
X169952381Y-99657142D01*
X170000000Y-99514285D01*
X170047619Y-99466666D01*
X170285714Y-98609523D02*
X170952381Y-98609523D01*
X169904762Y-98847619D02*
X170619048Y-99085714D01*
X170619048Y-98466666D01*
X134562381Y-93793333D02*
X135276667Y-93793333D01*
X135419524Y-93840953D01*
X135514762Y-93936191D01*
X135562381Y-94079048D01*
X135562381Y-94174286D01*
X135562381Y-92793333D02*
X135562381Y-93364762D01*
X135562381Y-93079048D02*
X134562381Y-93079048D01*
X134705238Y-93174286D01*
X134800476Y-93269524D01*
X134848095Y-93364762D01*
X163552381Y-82166666D02*
X163552381Y-82642857D01*
X162552381Y-82642857D01*
X163552381Y-81309523D02*
X163552381Y-81880952D01*
X163552381Y-81595238D02*
X162552381Y-81595238D01*
X162695238Y-81690476D01*
X162790476Y-81785714D01*
X162838095Y-81880952D01*
X156261905Y-77902381D02*
X156261905Y-76902381D01*
X156642858Y-76902381D01*
X156738096Y-76950000D01*
X156785715Y-76997619D01*
X156833334Y-77092857D01*
X156833334Y-77235714D01*
X156785715Y-77330952D01*
X156738096Y-77378571D01*
X156642858Y-77426190D01*
X156261905Y-77426190D01*
X157785715Y-77902381D02*
X157214286Y-77902381D01*
X157500000Y-77902381D02*
X157500000Y-76902381D01*
X157404762Y-77045238D01*
X157309524Y-77140476D01*
X157214286Y-77188095D01*
X170733334Y-97352381D02*
X170400000Y-96876190D01*
X170161905Y-97352381D02*
X170161905Y-96352381D01*
X170542858Y-96352381D01*
X170638096Y-96400000D01*
X170685715Y-96447619D01*
X170733334Y-96542857D01*
X170733334Y-96685714D01*
X170685715Y-96780952D01*
X170638096Y-96828571D01*
X170542858Y-96876190D01*
X170161905Y-96876190D01*
X171685715Y-97352381D02*
X171114286Y-97352381D01*
X171400000Y-97352381D02*
X171400000Y-96352381D01*
X171304762Y-96495238D01*
X171209524Y-96590476D01*
X171114286Y-96638095D01*
X160238095Y-88202381D02*
X160238095Y-89011905D01*
X160285714Y-89107143D01*
X160333333Y-89154762D01*
X160428571Y-89202381D01*
X160619048Y-89202381D01*
X160714286Y-89154762D01*
X160761905Y-89107143D01*
X160809524Y-89011905D01*
X160809524Y-88202381D01*
X161809524Y-89202381D02*
X161238095Y-89202381D01*
X161523809Y-89202381D02*
X161523809Y-88202381D01*
X161428571Y-88345238D01*
X161333333Y-88440476D01*
X161238095Y-88488095D01*
M02*
