G04 #@! TF.FileFunction,Copper,L1,Top,Signal*
%FSLAX46Y46*%
G04 Gerber Fmt 4.6, Leading zero omitted, Abs format (unit mm)*
G04 Created by KiCad (PCBNEW 4.0.5) date Wed Mar 22 03:02:10 2017*
%MOMM*%
%LPD*%
G01*
G04 APERTURE LIST*
%ADD10C,0.100000*%
%ADD11C,1.300000*%
%ADD12R,1.300000X1.300000*%
%ADD13R,1.250000X1.500000*%
%ADD14R,5.500000X10.000000*%
%ADD15R,10.000000X5.500000*%
%ADD16R,2.032000X2.032000*%
%ADD17O,2.032000X2.032000*%
%ADD18R,0.900000X1.200000*%
%ADD19R,3.000000X10.000000*%
%ADD20R,10.000000X3.000000*%
%ADD21C,2.800000*%
%ADD22C,2.160000*%
%ADD23C,4.000000*%
%ADD24R,2.032000X1.727200*%
%ADD25O,2.032000X1.727200*%
%ADD26R,1.727200X1.727200*%
%ADD27O,1.727200X1.727200*%
%ADD28C,1.998980*%
%ADD29R,0.600000X0.400000*%
%ADD30C,0.250000*%
%ADD31C,0.800000*%
%ADD32C,0.500000*%
%ADD33C,1.000000*%
%ADD34C,0.550000*%
%ADD35C,2.000000*%
%ADD36C,4.000000*%
%ADD37C,5.000000*%
%ADD38C,0.254000*%
G04 APERTURE END LIST*
D10*
D11*
X144250000Y-43750000D03*
D12*
X141750000Y-43750000D03*
D11*
X135300000Y-48700000D03*
D12*
X135300000Y-51200000D03*
D11*
X122300000Y-48700000D03*
D12*
X122300000Y-51200000D03*
D11*
X128800000Y-45600000D03*
D12*
X128800000Y-48100000D03*
D13*
X92000000Y-41350000D03*
X92000000Y-43850000D03*
D11*
X78800000Y-53200000D03*
D12*
X78800000Y-50700000D03*
D14*
X203800000Y-46050000D03*
X196800000Y-46050000D03*
D15*
X102300000Y-145800000D03*
X102300000Y-138800000D03*
X208550000Y-80800000D03*
X208550000Y-73800000D03*
D16*
X203300000Y-123550000D03*
D17*
X203300000Y-126090000D03*
D15*
X208550000Y-145800000D03*
X208550000Y-138800000D03*
X102300000Y-80800000D03*
X102300000Y-73800000D03*
D16*
X88550000Y-65590000D03*
D17*
X88550000Y-63050000D03*
D18*
X92000000Y-49800000D03*
X92000000Y-47600000D03*
D19*
X165200000Y-55500000D03*
X181300000Y-55500000D03*
D20*
X173250000Y-63000000D03*
D19*
X173250000Y-45700000D03*
D21*
X151800000Y-52749999D03*
X151800000Y-48649999D03*
X151800000Y-44550000D03*
D22*
X112420000Y-43180000D03*
X99720000Y-43180000D03*
X96550000Y-43180000D03*
X112420000Y-55880000D03*
X112420000Y-50800000D03*
X96550000Y-45720000D03*
X96550000Y-48260000D03*
X96550000Y-50800000D03*
X96550000Y-53340000D03*
X96550000Y-55880000D03*
D23*
X115720000Y-79800000D03*
X115720000Y-89800000D03*
X115720000Y-119800000D03*
X115720000Y-129800000D03*
X115720000Y-139800000D03*
X194680000Y-139800000D03*
X194680000Y-119800000D03*
X194680000Y-89800000D03*
X194680000Y-129800000D03*
X194680000Y-79800000D03*
D24*
X96300000Y-90660000D03*
D25*
X96300000Y-93200000D03*
X96300000Y-95740000D03*
D24*
X91900000Y-120560000D03*
D25*
X91900000Y-123100000D03*
X91900000Y-125640000D03*
D24*
X218900000Y-91660000D03*
D25*
X218900000Y-94200000D03*
X218900000Y-96740000D03*
D24*
X219000000Y-120720000D03*
D25*
X219000000Y-123260000D03*
X219000000Y-125800000D03*
D26*
X180340000Y-140000000D03*
D27*
X177800000Y-140000000D03*
X180340000Y-137460000D03*
X177800000Y-137460000D03*
X180340000Y-134920000D03*
X177800000Y-134920000D03*
X180340000Y-132380000D03*
X177800000Y-132380000D03*
X180340000Y-129840000D03*
X177800000Y-129840000D03*
X180340000Y-127300000D03*
X177800000Y-127300000D03*
X180340000Y-124760000D03*
X177800000Y-124760000D03*
X180340000Y-122220000D03*
X177800000Y-122220000D03*
X180340000Y-119680000D03*
X177800000Y-119680000D03*
X180340000Y-117140000D03*
X177800000Y-117140000D03*
X180340000Y-114600000D03*
X177800000Y-114600000D03*
X180340000Y-112060000D03*
X177800000Y-112060000D03*
X180340000Y-109520000D03*
X177800000Y-109520000D03*
X180340000Y-106980000D03*
X177800000Y-106980000D03*
X180340000Y-104440000D03*
X177800000Y-104440000D03*
X180340000Y-101900000D03*
X177800000Y-101900000D03*
X180340000Y-99360000D03*
X177800000Y-99360000D03*
X180340000Y-96820000D03*
X177800000Y-96820000D03*
X180340000Y-94280000D03*
X177800000Y-94280000D03*
X180340000Y-91740000D03*
X177800000Y-91740000D03*
X180340000Y-89200000D03*
X177800000Y-89200000D03*
X180340000Y-86660000D03*
X177800000Y-86660000D03*
X180340000Y-84120000D03*
X177800000Y-84120000D03*
X180340000Y-81580000D03*
X177800000Y-81580000D03*
X180340000Y-79040000D03*
X177800000Y-79040000D03*
D26*
X129540000Y-140000000D03*
D27*
X127000000Y-140000000D03*
X129540000Y-137460000D03*
X127000000Y-137460000D03*
X129540000Y-134920000D03*
X127000000Y-134920000D03*
X129540000Y-132380000D03*
X127000000Y-132380000D03*
X129540000Y-129840000D03*
X127000000Y-129840000D03*
X129540000Y-127300000D03*
X127000000Y-127300000D03*
X129540000Y-124760000D03*
X127000000Y-124760000D03*
X129540000Y-122220000D03*
X127000000Y-122220000D03*
X129540000Y-119680000D03*
X127000000Y-119680000D03*
X129540000Y-117140000D03*
X127000000Y-117140000D03*
X129540000Y-114600000D03*
X127000000Y-114600000D03*
X129540000Y-112060000D03*
X127000000Y-112060000D03*
X129540000Y-109520000D03*
X127000000Y-109520000D03*
X129540000Y-106980000D03*
X127000000Y-106980000D03*
X129540000Y-104440000D03*
X127000000Y-104440000D03*
X129540000Y-101900000D03*
X127000000Y-101900000D03*
X129540000Y-99360000D03*
X127000000Y-99360000D03*
X129540000Y-96820000D03*
X127000000Y-96820000D03*
X129540000Y-94280000D03*
X127000000Y-94280000D03*
X129540000Y-91740000D03*
X127000000Y-91740000D03*
X129540000Y-89200000D03*
X127000000Y-89200000D03*
X129540000Y-86660000D03*
X127000000Y-86660000D03*
X129540000Y-84120000D03*
X127000000Y-84120000D03*
X129540000Y-81580000D03*
X127000000Y-81580000D03*
X129540000Y-79040000D03*
X127000000Y-79040000D03*
D24*
X217400000Y-45220000D03*
D25*
X217400000Y-47760000D03*
X217400000Y-50300000D03*
X217400000Y-52840000D03*
X217400000Y-55380000D03*
X217400000Y-57920000D03*
X217400000Y-60460000D03*
D28*
X138120000Y-56400000D03*
X148280000Y-56400000D03*
D13*
X117400000Y-48350000D03*
X117400000Y-50850000D03*
D11*
X83700000Y-41300000D03*
D12*
X83700000Y-43800000D03*
D29*
X188700000Y-51950000D03*
X188700000Y-51050000D03*
D30*
X92000000Y-41350000D02*
X83750000Y-41350000D01*
X83750000Y-41350000D02*
X83700000Y-41300000D01*
X96550000Y-45720000D02*
X101580000Y-45720000D01*
X93000000Y-47600000D02*
X94880000Y-45720000D01*
X94880000Y-45720000D02*
X96550000Y-45720000D01*
X92000000Y-47600000D02*
X93000000Y-47600000D01*
X91950000Y-41300000D02*
X92000000Y-41350000D01*
X96320000Y-45950000D02*
X96550000Y-45720000D01*
D31*
X75600000Y-50700000D02*
X75600000Y-55100000D01*
X75600000Y-55100000D02*
X76300000Y-55800000D01*
X76300000Y-50700000D02*
X75600000Y-50700000D01*
D30*
X88550000Y-63050000D02*
X89986840Y-63050000D01*
X90200000Y-62836840D02*
X90200000Y-61000000D01*
X93200000Y-45300000D02*
X94700000Y-43800000D01*
X87400000Y-58200000D02*
X80200000Y-58200000D01*
X89986840Y-63050000D02*
X90200000Y-62836840D01*
X94700000Y-43400000D02*
X94920000Y-43180000D01*
X90200000Y-61000000D02*
X87400000Y-58200000D01*
X80200000Y-58200000D02*
X76700000Y-54700000D01*
X87600000Y-45300000D02*
X93200000Y-45300000D01*
X94700000Y-43800000D02*
X94700000Y-43400000D01*
X76700000Y-54700000D02*
X76700000Y-52500000D01*
X83400000Y-52100000D02*
X85700000Y-49800000D01*
X85700000Y-47200000D02*
X87600000Y-45300000D01*
X76700000Y-52500000D02*
X77100000Y-52100000D01*
X77100000Y-52100000D02*
X83400000Y-52100000D01*
X85700000Y-49800000D02*
X85700000Y-47200000D01*
X94920000Y-43180000D02*
X96550000Y-43180000D01*
D31*
X83700000Y-43800000D02*
X91950000Y-43800000D01*
D30*
X91950000Y-43800000D02*
X92000000Y-43850000D01*
X78800000Y-43900000D02*
X78900000Y-43800000D01*
D31*
X78900000Y-43800000D02*
X83700000Y-43800000D01*
D32*
X92000000Y-43850000D02*
X92875000Y-43850000D01*
X92875000Y-43850000D02*
X93700000Y-43025000D01*
X93700000Y-43025000D02*
X93700000Y-42400000D01*
X99720000Y-41620000D02*
X99720000Y-43180000D01*
X93700000Y-42400000D02*
X94600000Y-41500000D01*
X94600000Y-41500000D02*
X99600000Y-41500000D01*
X99600000Y-41500000D02*
X99720000Y-41620000D01*
D31*
X78800000Y-43900000D02*
X78800000Y-50700000D01*
D30*
X76200000Y-50600000D02*
X76300000Y-50700000D01*
D33*
X78800000Y-50700000D02*
X76300000Y-50700000D01*
X79600000Y-59100000D02*
X86500000Y-59100000D01*
X76300000Y-55800000D02*
X79600000Y-59100000D01*
X86500000Y-59100000D02*
X88550000Y-61150000D01*
X88550000Y-61150000D02*
X88550000Y-63050000D01*
D30*
X92900000Y-49800000D02*
X94440000Y-48260000D01*
X94440000Y-48260000D02*
X96550000Y-48260000D01*
X92000000Y-49800000D02*
X92900000Y-49800000D01*
X96440000Y-48150000D02*
X96550000Y-48260000D01*
X188700000Y-51950000D02*
X184750000Y-51950000D01*
X183600000Y-50400000D02*
X183600000Y-50000000D01*
X178200000Y-55500000D02*
X173250000Y-60450000D01*
X184750000Y-51950000D02*
X183900000Y-51100000D01*
X183900000Y-51100000D02*
X183900000Y-50700000D01*
X183900000Y-50700000D02*
X183600000Y-50400000D01*
X183600000Y-50000000D02*
X183000000Y-49400000D01*
X183000000Y-49400000D02*
X179400000Y-49400000D01*
X179400000Y-49400000D02*
X178200000Y-50600000D01*
X178200000Y-50600000D02*
X178200000Y-55500000D01*
X173250000Y-60450000D02*
X173250000Y-63000000D01*
D34*
X128800000Y-48100000D02*
X128800000Y-51100000D01*
D35*
X207200000Y-131400000D02*
X208550000Y-132750000D01*
X208550000Y-132750000D02*
X208550000Y-138800000D01*
X205100000Y-131400000D02*
X207200000Y-131400000D01*
X203300000Y-129600000D02*
X205100000Y-131400000D01*
X203300000Y-126090000D02*
X203300000Y-129600000D01*
D36*
X199600000Y-135100000D02*
X188400000Y-135100000D01*
X208550000Y-138800000D02*
X203300000Y-138800000D01*
X203300000Y-138800000D02*
X199600000Y-135100000D01*
D37*
X203300000Y-73800000D02*
X196300000Y-73800000D01*
D30*
X208550000Y-73800000D02*
X203300000Y-73800000D01*
X148250000Y-43750000D02*
X146900000Y-43750000D01*
X146900000Y-43750000D02*
X144250000Y-43750000D01*
X146900000Y-53606508D02*
X146900000Y-43750000D01*
X148280000Y-56400000D02*
X148280000Y-54986508D01*
X148280000Y-54986508D02*
X146900000Y-53606508D01*
X151800000Y-44550000D02*
X149050000Y-44550000D01*
X149050000Y-44550000D02*
X148250000Y-43750000D01*
X144000000Y-60000000D02*
X157500000Y-60000000D01*
X139906508Y-59600000D02*
X143600000Y-59600000D01*
X143600000Y-59600000D02*
X144000000Y-60000000D01*
X138120000Y-56400000D02*
X138120000Y-57813492D01*
X138120000Y-57813492D02*
X139906508Y-59600000D01*
X157500000Y-60000000D02*
X162000000Y-55500000D01*
X162000000Y-55500000D02*
X165200000Y-55500000D01*
X139400000Y-44300000D02*
X139950000Y-43750000D01*
X139950000Y-43750000D02*
X141750000Y-43750000D01*
X139400000Y-51200000D02*
X139400000Y-44300000D01*
X138120000Y-52480000D02*
X139400000Y-51200000D01*
X138120000Y-56400000D02*
X138120000Y-52480000D01*
X157500000Y-49500000D02*
X157400000Y-49400000D01*
X157400000Y-49400000D02*
X157200000Y-49200000D01*
X151800000Y-48649999D02*
X153779898Y-48649999D01*
X153779898Y-48649999D02*
X154529899Y-49400000D01*
X154529899Y-49400000D02*
X157400000Y-49400000D01*
X157200000Y-49200000D02*
X156649999Y-48649999D01*
X157750000Y-49750000D02*
X157200000Y-49200000D01*
X172900001Y-48649999D02*
X173050000Y-48500000D01*
D38*
G36*
X115660197Y-50089803D02*
X115702211Y-50117666D01*
X115750000Y-50127000D01*
X116140000Y-50127000D01*
X116140000Y-50564250D01*
X116298750Y-50723000D01*
X117273000Y-50723000D01*
X117273000Y-50703000D01*
X117527000Y-50703000D01*
X117527000Y-50723000D01*
X118501250Y-50723000D01*
X118660000Y-50564250D01*
X118660000Y-50127000D01*
X121174975Y-50127000D01*
X121111673Y-50190302D01*
X121015000Y-50423691D01*
X121015000Y-50914250D01*
X121173750Y-51073000D01*
X122173000Y-51073000D01*
X122173000Y-51053000D01*
X122427000Y-51053000D01*
X122427000Y-51073000D01*
X123426250Y-51073000D01*
X123585000Y-50914250D01*
X123585000Y-50423691D01*
X123488327Y-50190302D01*
X123425025Y-50127000D01*
X134174975Y-50127000D01*
X134111673Y-50190302D01*
X134015000Y-50423691D01*
X134015000Y-50914250D01*
X134173750Y-51073000D01*
X135173000Y-51073000D01*
X135173000Y-51053000D01*
X135427000Y-51053000D01*
X135427000Y-51073000D01*
X135447000Y-51073000D01*
X135447000Y-51327000D01*
X135427000Y-51327000D01*
X135427000Y-52326250D01*
X135585750Y-52485000D01*
X135673000Y-52485000D01*
X135673000Y-62300000D01*
X135683006Y-62349410D01*
X135711447Y-62391035D01*
X135753841Y-62418315D01*
X135800000Y-62427000D01*
X159673000Y-62427000D01*
X159673000Y-64550000D01*
X159683006Y-64599410D01*
X159711447Y-64641035D01*
X159753841Y-64668315D01*
X159800000Y-64677000D01*
X167050000Y-64677000D01*
X167099410Y-64666994D01*
X167141035Y-64638553D01*
X167168315Y-64596159D01*
X167177000Y-64550000D01*
X167177000Y-63285750D01*
X167615000Y-63285750D01*
X167615000Y-64626309D01*
X167711673Y-64859698D01*
X167890301Y-65038327D01*
X168123690Y-65135000D01*
X172964250Y-65135000D01*
X173123000Y-64976250D01*
X173123000Y-63127000D01*
X167773750Y-63127000D01*
X167615000Y-63285750D01*
X167177000Y-63285750D01*
X167177000Y-62677000D01*
X167615000Y-62677000D01*
X167615000Y-62714250D01*
X167773750Y-62873000D01*
X173123000Y-62873000D01*
X173123000Y-62853000D01*
X173377000Y-62853000D01*
X173377000Y-62873000D01*
X173397000Y-62873000D01*
X173397000Y-63127000D01*
X173377000Y-63127000D01*
X173377000Y-64976250D01*
X173535750Y-65135000D01*
X178376310Y-65135000D01*
X178609699Y-65038327D01*
X178673000Y-64975026D01*
X178673000Y-65550000D01*
X178683006Y-65599410D01*
X178711447Y-65641035D01*
X178753841Y-65668315D01*
X178800000Y-65677000D01*
X200173000Y-65677000D01*
X200173000Y-76673000D01*
X191000000Y-76673000D01*
X190950590Y-76683006D01*
X190908965Y-76711447D01*
X190881685Y-76753841D01*
X190873000Y-76800000D01*
X190873000Y-95000000D01*
X190883006Y-95049410D01*
X190911447Y-95091035D01*
X190953841Y-95118315D01*
X191000000Y-95127000D01*
X203873000Y-95127000D01*
X203873000Y-116773000D01*
X191500000Y-116773000D01*
X191450590Y-116783006D01*
X191408965Y-116811447D01*
X191381685Y-116853841D01*
X191373000Y-116900000D01*
X191373000Y-142073000D01*
X177899908Y-142073000D01*
X117011720Y-142117346D01*
X117210658Y-142035147D01*
X117952542Y-141294557D01*
X118354542Y-140326433D01*
X118355457Y-139278166D01*
X117955147Y-138309342D01*
X117214557Y-137567458D01*
X116246433Y-137165458D01*
X115198166Y-137164543D01*
X114229342Y-137564853D01*
X113487458Y-138305443D01*
X113085458Y-139273567D01*
X113084543Y-140321834D01*
X113484853Y-141290658D01*
X114225443Y-142032542D01*
X114434196Y-142119224D01*
X109377000Y-142122907D01*
X109377000Y-141250000D01*
X109366994Y-141200590D01*
X109338553Y-141158965D01*
X109296159Y-141131685D01*
X109250000Y-141123000D01*
X107935000Y-141123000D01*
X107935000Y-139085750D01*
X107776250Y-138927000D01*
X102427000Y-138927000D01*
X102427000Y-138947000D01*
X102173000Y-138947000D01*
X102173000Y-138927000D01*
X102153000Y-138927000D01*
X102153000Y-138673000D01*
X102173000Y-138673000D01*
X102173000Y-135573750D01*
X102427000Y-135573750D01*
X102427000Y-138673000D01*
X107776250Y-138673000D01*
X107935000Y-138514250D01*
X107935000Y-135923691D01*
X107838327Y-135690302D01*
X107659699Y-135511673D01*
X107426310Y-135415000D01*
X102585750Y-135415000D01*
X102427000Y-135573750D01*
X102173000Y-135573750D01*
X102014250Y-135415000D01*
X100867664Y-135415000D01*
X100859516Y-130321834D01*
X113084543Y-130321834D01*
X113484853Y-131290658D01*
X114225443Y-132032542D01*
X115193567Y-132434542D01*
X116241834Y-132435457D01*
X117210658Y-132035147D01*
X117952542Y-131294557D01*
X118354542Y-130326433D01*
X118355457Y-129278166D01*
X117955147Y-128309342D01*
X117214557Y-127567458D01*
X116246433Y-127165458D01*
X115198166Y-127164543D01*
X114229342Y-127564853D01*
X113487458Y-128305443D01*
X113085458Y-129273567D01*
X113084543Y-130321834D01*
X100859516Y-130321834D01*
X100843516Y-120321834D01*
X113084543Y-120321834D01*
X113484853Y-121290658D01*
X114225443Y-122032542D01*
X115193567Y-122434542D01*
X116241834Y-122435457D01*
X117210658Y-122035147D01*
X117952542Y-121294557D01*
X118354542Y-120326433D01*
X118355457Y-119278166D01*
X117955147Y-118309342D01*
X117214557Y-117567458D01*
X116246433Y-117165458D01*
X115198166Y-117164543D01*
X114229342Y-117564853D01*
X113487458Y-118305443D01*
X113085458Y-119273567D01*
X113084543Y-120321834D01*
X100843516Y-120321834D01*
X100827204Y-110127000D01*
X110000000Y-110127000D01*
X110049410Y-110116994D01*
X110091035Y-110088553D01*
X110118315Y-110046159D01*
X110127000Y-110000000D01*
X110127000Y-90321834D01*
X113084543Y-90321834D01*
X113484853Y-91290658D01*
X114225443Y-92032542D01*
X115193567Y-92434542D01*
X116241834Y-92435457D01*
X117210658Y-92035147D01*
X117952542Y-91294557D01*
X118354542Y-90326433D01*
X118355457Y-89278166D01*
X117955147Y-88309342D01*
X117214557Y-87567458D01*
X116246433Y-87165458D01*
X115198166Y-87164543D01*
X114229342Y-87564853D01*
X113487458Y-88305443D01*
X113085458Y-89273567D01*
X113084543Y-90321834D01*
X110127000Y-90321834D01*
X110127000Y-80321834D01*
X113084543Y-80321834D01*
X113484853Y-81290658D01*
X114225443Y-82032542D01*
X115193567Y-82434542D01*
X116241834Y-82435457D01*
X117210658Y-82035147D01*
X117952542Y-81294557D01*
X118354542Y-80326433D01*
X118355457Y-79278166D01*
X118257049Y-79040000D01*
X125472041Y-79040000D01*
X125586115Y-79613489D01*
X125910971Y-80099670D01*
X126225752Y-80310000D01*
X125910971Y-80520330D01*
X125586115Y-81006511D01*
X125472041Y-81580000D01*
X125586115Y-82153489D01*
X125910971Y-82639670D01*
X126225752Y-82850000D01*
X125910971Y-83060330D01*
X125586115Y-83546511D01*
X125472041Y-84120000D01*
X125586115Y-84693489D01*
X125910971Y-85179670D01*
X126225752Y-85390000D01*
X125910971Y-85600330D01*
X125586115Y-86086511D01*
X125472041Y-86660000D01*
X125586115Y-87233489D01*
X125910971Y-87719670D01*
X126225752Y-87930000D01*
X125910971Y-88140330D01*
X125586115Y-88626511D01*
X125472041Y-89200000D01*
X125586115Y-89773489D01*
X125910971Y-90259670D01*
X126225752Y-90470000D01*
X125910971Y-90680330D01*
X125586115Y-91166511D01*
X125472041Y-91740000D01*
X125586115Y-92313489D01*
X125910971Y-92799670D01*
X126225752Y-93010000D01*
X125910971Y-93220330D01*
X125586115Y-93706511D01*
X125472041Y-94280000D01*
X125586115Y-94853489D01*
X125910971Y-95339670D01*
X126225752Y-95550000D01*
X125910971Y-95760330D01*
X125586115Y-96246511D01*
X125472041Y-96820000D01*
X125586115Y-97393489D01*
X125910971Y-97879670D01*
X126225752Y-98090000D01*
X125910971Y-98300330D01*
X125586115Y-98786511D01*
X125472041Y-99360000D01*
X125586115Y-99933489D01*
X125910971Y-100419670D01*
X126225752Y-100630000D01*
X125910971Y-100840330D01*
X125586115Y-101326511D01*
X125472041Y-101900000D01*
X125586115Y-102473489D01*
X125910971Y-102959670D01*
X126225752Y-103170000D01*
X125910971Y-103380330D01*
X125586115Y-103866511D01*
X125472041Y-104440000D01*
X125586115Y-105013489D01*
X125910971Y-105499670D01*
X126225752Y-105710000D01*
X125910971Y-105920330D01*
X125586115Y-106406511D01*
X125472041Y-106980000D01*
X125586115Y-107553489D01*
X125910971Y-108039670D01*
X126225752Y-108250000D01*
X125910971Y-108460330D01*
X125586115Y-108946511D01*
X125472041Y-109520000D01*
X125586115Y-110093489D01*
X125910971Y-110579670D01*
X126225752Y-110790000D01*
X125910971Y-111000330D01*
X125586115Y-111486511D01*
X125472041Y-112060000D01*
X125586115Y-112633489D01*
X125910971Y-113119670D01*
X126225752Y-113330000D01*
X125910971Y-113540330D01*
X125586115Y-114026511D01*
X125472041Y-114600000D01*
X125586115Y-115173489D01*
X125910971Y-115659670D01*
X126225752Y-115870000D01*
X125910971Y-116080330D01*
X125586115Y-116566511D01*
X125472041Y-117140000D01*
X125586115Y-117713489D01*
X125910971Y-118199670D01*
X126225752Y-118410000D01*
X125910971Y-118620330D01*
X125586115Y-119106511D01*
X125472041Y-119680000D01*
X125586115Y-120253489D01*
X125910971Y-120739670D01*
X126225752Y-120950000D01*
X125910971Y-121160330D01*
X125586115Y-121646511D01*
X125472041Y-122220000D01*
X125586115Y-122793489D01*
X125910971Y-123279670D01*
X126225752Y-123490000D01*
X125910971Y-123700330D01*
X125586115Y-124186511D01*
X125472041Y-124760000D01*
X125586115Y-125333489D01*
X125910971Y-125819670D01*
X126225752Y-126030000D01*
X125910971Y-126240330D01*
X125586115Y-126726511D01*
X125472041Y-127300000D01*
X125586115Y-127873489D01*
X125910971Y-128359670D01*
X126225752Y-128570000D01*
X125910971Y-128780330D01*
X125586115Y-129266511D01*
X125472041Y-129840000D01*
X125586115Y-130413489D01*
X125910971Y-130899670D01*
X126225752Y-131110000D01*
X125910971Y-131320330D01*
X125586115Y-131806511D01*
X125472041Y-132380000D01*
X125586115Y-132953489D01*
X125910971Y-133439670D01*
X126225752Y-133650000D01*
X125910971Y-133860330D01*
X125586115Y-134346511D01*
X125472041Y-134920000D01*
X125586115Y-135493489D01*
X125910971Y-135979670D01*
X126225752Y-136190000D01*
X125910971Y-136400330D01*
X125586115Y-136886511D01*
X125472041Y-137460000D01*
X125586115Y-138033489D01*
X125910971Y-138519670D01*
X126225752Y-138730000D01*
X125910971Y-138940330D01*
X125586115Y-139426511D01*
X125472041Y-140000000D01*
X125586115Y-140573489D01*
X125910971Y-141059670D01*
X126397152Y-141384526D01*
X126970641Y-141498600D01*
X127029359Y-141498600D01*
X127602848Y-141384526D01*
X128068442Y-141073426D01*
X128073238Y-141098917D01*
X128212310Y-141315041D01*
X128424510Y-141460031D01*
X128676400Y-141511040D01*
X130403600Y-141511040D01*
X130638917Y-141466762D01*
X130855041Y-141327690D01*
X131000031Y-141115490D01*
X131051040Y-140863600D01*
X131051040Y-139136400D01*
X131006762Y-138901083D01*
X130867690Y-138684959D01*
X130655490Y-138539969D01*
X130611869Y-138531136D01*
X130629029Y-138519670D01*
X130953885Y-138033489D01*
X131067959Y-137460000D01*
X130953885Y-136886511D01*
X130629029Y-136400330D01*
X130314248Y-136190000D01*
X130629029Y-135979670D01*
X130953885Y-135493489D01*
X131067959Y-134920000D01*
X130953885Y-134346511D01*
X130629029Y-133860330D01*
X130314248Y-133650000D01*
X130629029Y-133439670D01*
X130953885Y-132953489D01*
X131067959Y-132380000D01*
X130953885Y-131806511D01*
X130629029Y-131320330D01*
X130314248Y-131110000D01*
X130629029Y-130899670D01*
X130953885Y-130413489D01*
X131067959Y-129840000D01*
X130953885Y-129266511D01*
X130629029Y-128780330D01*
X130314248Y-128570000D01*
X130629029Y-128359670D01*
X130953885Y-127873489D01*
X131067959Y-127300000D01*
X130953885Y-126726511D01*
X130629029Y-126240330D01*
X130314248Y-126030000D01*
X130629029Y-125819670D01*
X130953885Y-125333489D01*
X131067959Y-124760000D01*
X130953885Y-124186511D01*
X130629029Y-123700330D01*
X130314248Y-123490000D01*
X130629029Y-123279670D01*
X130953885Y-122793489D01*
X131067959Y-122220000D01*
X130953885Y-121646511D01*
X130629029Y-121160330D01*
X130314248Y-120950000D01*
X130629029Y-120739670D01*
X130953885Y-120253489D01*
X131067959Y-119680000D01*
X130953885Y-119106511D01*
X130629029Y-118620330D01*
X130314248Y-118410000D01*
X130629029Y-118199670D01*
X130953885Y-117713489D01*
X131067959Y-117140000D01*
X130953885Y-116566511D01*
X130629029Y-116080330D01*
X130314248Y-115870000D01*
X130629029Y-115659670D01*
X130953885Y-115173489D01*
X131067959Y-114600000D01*
X130953885Y-114026511D01*
X130629029Y-113540330D01*
X130314248Y-113330000D01*
X130629029Y-113119670D01*
X130953885Y-112633489D01*
X131067959Y-112060000D01*
X130953885Y-111486511D01*
X130629029Y-111000330D01*
X130314248Y-110790000D01*
X130629029Y-110579670D01*
X130953885Y-110093489D01*
X131067959Y-109520000D01*
X130953885Y-108946511D01*
X130629029Y-108460330D01*
X130314248Y-108250000D01*
X130629029Y-108039670D01*
X130953885Y-107553489D01*
X131067959Y-106980000D01*
X130953885Y-106406511D01*
X130629029Y-105920330D01*
X130314248Y-105710000D01*
X130629029Y-105499670D01*
X130953885Y-105013489D01*
X131067959Y-104440000D01*
X130953885Y-103866511D01*
X130629029Y-103380330D01*
X130314248Y-103170000D01*
X130629029Y-102959670D01*
X130953885Y-102473489D01*
X131067959Y-101900000D01*
X130953885Y-101326511D01*
X130629029Y-100840330D01*
X130314248Y-100630000D01*
X130629029Y-100419670D01*
X130953885Y-99933489D01*
X131067959Y-99360000D01*
X130953885Y-98786511D01*
X130629029Y-98300330D01*
X130314248Y-98090000D01*
X130629029Y-97879670D01*
X130953885Y-97393489D01*
X131067959Y-96820000D01*
X130953885Y-96246511D01*
X130629029Y-95760330D01*
X130314248Y-95550000D01*
X130629029Y-95339670D01*
X130953885Y-94853489D01*
X131067959Y-94280000D01*
X130953885Y-93706511D01*
X130629029Y-93220330D01*
X130314248Y-93010000D01*
X130629029Y-92799670D01*
X130953885Y-92313489D01*
X131067959Y-91740000D01*
X130953885Y-91166511D01*
X130629029Y-90680330D01*
X130314248Y-90470000D01*
X130629029Y-90259670D01*
X130953885Y-89773489D01*
X131067959Y-89200000D01*
X130953885Y-88626511D01*
X130629029Y-88140330D01*
X130314248Y-87930000D01*
X130629029Y-87719670D01*
X130953885Y-87233489D01*
X131067959Y-86660000D01*
X130953885Y-86086511D01*
X130629029Y-85600330D01*
X130314248Y-85390000D01*
X130629029Y-85179670D01*
X130953885Y-84693489D01*
X131067959Y-84120000D01*
X130953885Y-83546511D01*
X130629029Y-83060330D01*
X130314248Y-82850000D01*
X130629029Y-82639670D01*
X130953885Y-82153489D01*
X131067959Y-81580000D01*
X130953885Y-81006511D01*
X130629029Y-80520330D01*
X130314248Y-80310000D01*
X130629029Y-80099670D01*
X130953885Y-79613489D01*
X131067959Y-79040000D01*
X176272041Y-79040000D01*
X176386115Y-79613489D01*
X176710971Y-80099670D01*
X177025752Y-80310000D01*
X176710971Y-80520330D01*
X176386115Y-81006511D01*
X176272041Y-81580000D01*
X176386115Y-82153489D01*
X176710971Y-82639670D01*
X177025752Y-82850000D01*
X176710971Y-83060330D01*
X176386115Y-83546511D01*
X176272041Y-84120000D01*
X176386115Y-84693489D01*
X176710971Y-85179670D01*
X177025752Y-85390000D01*
X176710971Y-85600330D01*
X176386115Y-86086511D01*
X176272041Y-86660000D01*
X176386115Y-87233489D01*
X176710971Y-87719670D01*
X177025752Y-87930000D01*
X176710971Y-88140330D01*
X176386115Y-88626511D01*
X176272041Y-89200000D01*
X176386115Y-89773489D01*
X176710971Y-90259670D01*
X177025752Y-90470000D01*
X176710971Y-90680330D01*
X176386115Y-91166511D01*
X176272041Y-91740000D01*
X176386115Y-92313489D01*
X176710971Y-92799670D01*
X177025752Y-93010000D01*
X176710971Y-93220330D01*
X176386115Y-93706511D01*
X176272041Y-94280000D01*
X176386115Y-94853489D01*
X176710971Y-95339670D01*
X177025752Y-95550000D01*
X176710971Y-95760330D01*
X176386115Y-96246511D01*
X176272041Y-96820000D01*
X176386115Y-97393489D01*
X176710971Y-97879670D01*
X177025752Y-98090000D01*
X176710971Y-98300330D01*
X176386115Y-98786511D01*
X176272041Y-99360000D01*
X176386115Y-99933489D01*
X176710971Y-100419670D01*
X177025752Y-100630000D01*
X176710971Y-100840330D01*
X176386115Y-101326511D01*
X176272041Y-101900000D01*
X176386115Y-102473489D01*
X176710971Y-102959670D01*
X177025752Y-103170000D01*
X176710971Y-103380330D01*
X176386115Y-103866511D01*
X176272041Y-104440000D01*
X176386115Y-105013489D01*
X176710971Y-105499670D01*
X177025752Y-105710000D01*
X176710971Y-105920330D01*
X176386115Y-106406511D01*
X176272041Y-106980000D01*
X176386115Y-107553489D01*
X176710971Y-108039670D01*
X177025752Y-108250000D01*
X176710971Y-108460330D01*
X176386115Y-108946511D01*
X176272041Y-109520000D01*
X176386115Y-110093489D01*
X176710971Y-110579670D01*
X177025752Y-110790000D01*
X176710971Y-111000330D01*
X176386115Y-111486511D01*
X176272041Y-112060000D01*
X176386115Y-112633489D01*
X176710971Y-113119670D01*
X177025752Y-113330000D01*
X176710971Y-113540330D01*
X176386115Y-114026511D01*
X176272041Y-114600000D01*
X176386115Y-115173489D01*
X176710971Y-115659670D01*
X177025752Y-115870000D01*
X176710971Y-116080330D01*
X176386115Y-116566511D01*
X176272041Y-117140000D01*
X176386115Y-117713489D01*
X176710971Y-118199670D01*
X177025752Y-118410000D01*
X176710971Y-118620330D01*
X176386115Y-119106511D01*
X176272041Y-119680000D01*
X176386115Y-120253489D01*
X176710971Y-120739670D01*
X177025752Y-120950000D01*
X176710971Y-121160330D01*
X176386115Y-121646511D01*
X176272041Y-122220000D01*
X176386115Y-122793489D01*
X176710971Y-123279670D01*
X177025752Y-123490000D01*
X176710971Y-123700330D01*
X176386115Y-124186511D01*
X176272041Y-124760000D01*
X176386115Y-125333489D01*
X176710971Y-125819670D01*
X177025752Y-126030000D01*
X176710971Y-126240330D01*
X176386115Y-126726511D01*
X176272041Y-127300000D01*
X176386115Y-127873489D01*
X176710971Y-128359670D01*
X177025752Y-128570000D01*
X176710971Y-128780330D01*
X176386115Y-129266511D01*
X176272041Y-129840000D01*
X176386115Y-130413489D01*
X176710971Y-130899670D01*
X177025752Y-131110000D01*
X176710971Y-131320330D01*
X176386115Y-131806511D01*
X176272041Y-132380000D01*
X176386115Y-132953489D01*
X176710971Y-133439670D01*
X177025752Y-133650000D01*
X176710971Y-133860330D01*
X176386115Y-134346511D01*
X176272041Y-134920000D01*
X176386115Y-135493489D01*
X176710971Y-135979670D01*
X177025752Y-136190000D01*
X176710971Y-136400330D01*
X176386115Y-136886511D01*
X176272041Y-137460000D01*
X176386115Y-138033489D01*
X176710971Y-138519670D01*
X177025752Y-138730000D01*
X176710971Y-138940330D01*
X176386115Y-139426511D01*
X176272041Y-140000000D01*
X176386115Y-140573489D01*
X176710971Y-141059670D01*
X177197152Y-141384526D01*
X177770641Y-141498600D01*
X177829359Y-141498600D01*
X178402848Y-141384526D01*
X178868442Y-141073426D01*
X178873238Y-141098917D01*
X179012310Y-141315041D01*
X179224510Y-141460031D01*
X179476400Y-141511040D01*
X181203600Y-141511040D01*
X181438917Y-141466762D01*
X181655041Y-141327690D01*
X181800031Y-141115490D01*
X181851040Y-140863600D01*
X181851040Y-139136400D01*
X181806762Y-138901083D01*
X181667690Y-138684959D01*
X181455490Y-138539969D01*
X181411869Y-138531136D01*
X181429029Y-138519670D01*
X181753885Y-138033489D01*
X181867959Y-137460000D01*
X181753885Y-136886511D01*
X181429029Y-136400330D01*
X181114248Y-136190000D01*
X181429029Y-135979670D01*
X181753885Y-135493489D01*
X181867959Y-134920000D01*
X181753885Y-134346511D01*
X181429029Y-133860330D01*
X181114248Y-133650000D01*
X181429029Y-133439670D01*
X181753885Y-132953489D01*
X181867959Y-132380000D01*
X181753885Y-131806511D01*
X181429029Y-131320330D01*
X181114248Y-131110000D01*
X181429029Y-130899670D01*
X181753885Y-130413489D01*
X181867959Y-129840000D01*
X181753885Y-129266511D01*
X181429029Y-128780330D01*
X181114248Y-128570000D01*
X181429029Y-128359670D01*
X181753885Y-127873489D01*
X181867959Y-127300000D01*
X181753885Y-126726511D01*
X181429029Y-126240330D01*
X181114248Y-126030000D01*
X181429029Y-125819670D01*
X181753885Y-125333489D01*
X181867959Y-124760000D01*
X181753885Y-124186511D01*
X181429029Y-123700330D01*
X181114248Y-123490000D01*
X181429029Y-123279670D01*
X181753885Y-122793489D01*
X181867959Y-122220000D01*
X181753885Y-121646511D01*
X181429029Y-121160330D01*
X181114248Y-120950000D01*
X181429029Y-120739670D01*
X181753885Y-120253489D01*
X181867959Y-119680000D01*
X181753885Y-119106511D01*
X181429029Y-118620330D01*
X181114248Y-118410000D01*
X181429029Y-118199670D01*
X181753885Y-117713489D01*
X181867959Y-117140000D01*
X181753885Y-116566511D01*
X181429029Y-116080330D01*
X181114248Y-115870000D01*
X181429029Y-115659670D01*
X181753885Y-115173489D01*
X181867959Y-114600000D01*
X181753885Y-114026511D01*
X181429029Y-113540330D01*
X181114248Y-113330000D01*
X181429029Y-113119670D01*
X181753885Y-112633489D01*
X181867959Y-112060000D01*
X181753885Y-111486511D01*
X181429029Y-111000330D01*
X181114248Y-110790000D01*
X181429029Y-110579670D01*
X181753885Y-110093489D01*
X181867959Y-109520000D01*
X181753885Y-108946511D01*
X181429029Y-108460330D01*
X181114248Y-108250000D01*
X181429029Y-108039670D01*
X181753885Y-107553489D01*
X181867959Y-106980000D01*
X181753885Y-106406511D01*
X181429029Y-105920330D01*
X181114248Y-105710000D01*
X181429029Y-105499670D01*
X181753885Y-105013489D01*
X181867959Y-104440000D01*
X181753885Y-103866511D01*
X181429029Y-103380330D01*
X181114248Y-103170000D01*
X181429029Y-102959670D01*
X181753885Y-102473489D01*
X181867959Y-101900000D01*
X181753885Y-101326511D01*
X181429029Y-100840330D01*
X181114248Y-100630000D01*
X181429029Y-100419670D01*
X181753885Y-99933489D01*
X181867959Y-99360000D01*
X181753885Y-98786511D01*
X181429029Y-98300330D01*
X181114248Y-98090000D01*
X181429029Y-97879670D01*
X181753885Y-97393489D01*
X181867959Y-96820000D01*
X181753885Y-96246511D01*
X181429029Y-95760330D01*
X181114248Y-95550000D01*
X181429029Y-95339670D01*
X181753885Y-94853489D01*
X181867959Y-94280000D01*
X181753885Y-93706511D01*
X181429029Y-93220330D01*
X181114248Y-93010000D01*
X181429029Y-92799670D01*
X181753885Y-92313489D01*
X181867959Y-91740000D01*
X181753885Y-91166511D01*
X181429029Y-90680330D01*
X181114248Y-90470000D01*
X181429029Y-90259670D01*
X181753885Y-89773489D01*
X181867959Y-89200000D01*
X181753885Y-88626511D01*
X181429029Y-88140330D01*
X181114248Y-87930000D01*
X181429029Y-87719670D01*
X181753885Y-87233489D01*
X181867959Y-86660000D01*
X181753885Y-86086511D01*
X181429029Y-85600330D01*
X181114248Y-85390000D01*
X181429029Y-85179670D01*
X181753885Y-84693489D01*
X181867959Y-84120000D01*
X181753885Y-83546511D01*
X181429029Y-83060330D01*
X181114248Y-82850000D01*
X181429029Y-82639670D01*
X181753885Y-82153489D01*
X181867959Y-81580000D01*
X181753885Y-81006511D01*
X181429029Y-80520330D01*
X181114248Y-80310000D01*
X181429029Y-80099670D01*
X181753885Y-79613489D01*
X181867959Y-79040000D01*
X181753885Y-78466511D01*
X181429029Y-77980330D01*
X180942848Y-77655474D01*
X180369359Y-77541400D01*
X180310641Y-77541400D01*
X179737152Y-77655474D01*
X179250971Y-77980330D01*
X179070000Y-78251172D01*
X178889029Y-77980330D01*
X178402848Y-77655474D01*
X177829359Y-77541400D01*
X177770641Y-77541400D01*
X177197152Y-77655474D01*
X176710971Y-77980330D01*
X176386115Y-78466511D01*
X176272041Y-79040000D01*
X131067959Y-79040000D01*
X130953885Y-78466511D01*
X130629029Y-77980330D01*
X130142848Y-77655474D01*
X129569359Y-77541400D01*
X129510641Y-77541400D01*
X128937152Y-77655474D01*
X128450971Y-77980330D01*
X128270000Y-78251172D01*
X128089029Y-77980330D01*
X127602848Y-77655474D01*
X127029359Y-77541400D01*
X126970641Y-77541400D01*
X126397152Y-77655474D01*
X125910971Y-77980330D01*
X125586115Y-78466511D01*
X125472041Y-79040000D01*
X118257049Y-79040000D01*
X117955147Y-78309342D01*
X117214557Y-77567458D01*
X116246433Y-77165458D01*
X115198166Y-77164543D01*
X114229342Y-77564853D01*
X113487458Y-78305443D01*
X113085458Y-79273567D01*
X113084543Y-80321834D01*
X110127000Y-80321834D01*
X110127000Y-77000000D01*
X110116994Y-76950590D01*
X110088553Y-76908965D01*
X110046159Y-76881685D01*
X110000000Y-76873000D01*
X107853528Y-76873000D01*
X107935000Y-76676309D01*
X107935000Y-74085750D01*
X107776250Y-73927000D01*
X102427000Y-73927000D01*
X102427000Y-73947000D01*
X102173000Y-73947000D01*
X102173000Y-73927000D01*
X102153000Y-73927000D01*
X102153000Y-73673000D01*
X102173000Y-73673000D01*
X102173000Y-70573750D01*
X102427000Y-70573750D01*
X102427000Y-73673000D01*
X107776250Y-73673000D01*
X107935000Y-73514250D01*
X107935000Y-70923691D01*
X107838327Y-70690302D01*
X107659699Y-70511673D01*
X107426310Y-70415000D01*
X102585750Y-70415000D01*
X102427000Y-70573750D01*
X102173000Y-70573750D01*
X102014250Y-70415000D01*
X99877000Y-70415000D01*
X99877000Y-68627000D01*
X110700000Y-68627000D01*
X110749410Y-68616994D01*
X110791035Y-68588553D01*
X110818315Y-68546159D01*
X110827000Y-68500000D01*
X110827000Y-56515619D01*
X110965246Y-56850200D01*
X111447262Y-57333059D01*
X112077369Y-57594702D01*
X112759638Y-57595297D01*
X113390200Y-57334754D01*
X113873059Y-56852738D01*
X114134702Y-56222631D01*
X114135297Y-55540362D01*
X113874754Y-54909800D01*
X113392738Y-54426941D01*
X112762631Y-54165298D01*
X112080362Y-54164703D01*
X111449800Y-54425246D01*
X110966941Y-54907262D01*
X110827000Y-55244278D01*
X110827000Y-52010403D01*
X111389202Y-52010403D01*
X111497658Y-52285559D01*
X112136367Y-52525442D01*
X112818255Y-52502642D01*
X113342342Y-52285559D01*
X113450798Y-52010403D01*
X112420000Y-50979605D01*
X111389202Y-52010403D01*
X110827000Y-52010403D01*
X110827000Y-51462955D01*
X110934441Y-51722342D01*
X111209597Y-51830798D01*
X112240395Y-50800000D01*
X112599605Y-50800000D01*
X113630403Y-51830798D01*
X113905559Y-51722342D01*
X114125868Y-51135750D01*
X116140000Y-51135750D01*
X116140000Y-51726309D01*
X116236673Y-51959698D01*
X116415301Y-52138327D01*
X116648690Y-52235000D01*
X117114250Y-52235000D01*
X117273000Y-52076250D01*
X117273000Y-50977000D01*
X117527000Y-50977000D01*
X117527000Y-52076250D01*
X117685750Y-52235000D01*
X118151310Y-52235000D01*
X118384699Y-52138327D01*
X118563327Y-51959698D01*
X118660000Y-51726309D01*
X118660000Y-51485750D01*
X121015000Y-51485750D01*
X121015000Y-51976309D01*
X121111673Y-52209698D01*
X121290301Y-52388327D01*
X121523690Y-52485000D01*
X122014250Y-52485000D01*
X122173000Y-52326250D01*
X122173000Y-51327000D01*
X122427000Y-51327000D01*
X122427000Y-52326250D01*
X122585750Y-52485000D01*
X123076310Y-52485000D01*
X123309699Y-52388327D01*
X123488327Y-52209698D01*
X123585000Y-51976309D01*
X123585000Y-51485750D01*
X134015000Y-51485750D01*
X134015000Y-51976309D01*
X134111673Y-52209698D01*
X134290301Y-52388327D01*
X134523690Y-52485000D01*
X135014250Y-52485000D01*
X135173000Y-52326250D01*
X135173000Y-51327000D01*
X134173750Y-51327000D01*
X134015000Y-51485750D01*
X123585000Y-51485750D01*
X123426250Y-51327000D01*
X122427000Y-51327000D01*
X122173000Y-51327000D01*
X121173750Y-51327000D01*
X121015000Y-51485750D01*
X118660000Y-51485750D01*
X118660000Y-51135750D01*
X118501250Y-50977000D01*
X117527000Y-50977000D01*
X117273000Y-50977000D01*
X116298750Y-50977000D01*
X116140000Y-51135750D01*
X114125868Y-51135750D01*
X114145442Y-51083633D01*
X114122642Y-50401745D01*
X113905559Y-49877658D01*
X113630403Y-49769202D01*
X112599605Y-50800000D01*
X112240395Y-50800000D01*
X111209597Y-49769202D01*
X110934441Y-49877658D01*
X110827000Y-50163729D01*
X110827000Y-49589597D01*
X111389202Y-49589597D01*
X112420000Y-50620395D01*
X113450798Y-49589597D01*
X113342342Y-49314441D01*
X112703633Y-49074558D01*
X112021745Y-49097358D01*
X111497658Y-49314441D01*
X111389202Y-49589597D01*
X110827000Y-49589597D01*
X110827000Y-48877000D01*
X114447394Y-48877000D01*
X115660197Y-50089803D01*
X115660197Y-50089803D01*
G37*
X115660197Y-50089803D02*
X115702211Y-50117666D01*
X115750000Y-50127000D01*
X116140000Y-50127000D01*
X116140000Y-50564250D01*
X116298750Y-50723000D01*
X117273000Y-50723000D01*
X117273000Y-50703000D01*
X117527000Y-50703000D01*
X117527000Y-50723000D01*
X118501250Y-50723000D01*
X118660000Y-50564250D01*
X118660000Y-50127000D01*
X121174975Y-50127000D01*
X121111673Y-50190302D01*
X121015000Y-50423691D01*
X121015000Y-50914250D01*
X121173750Y-51073000D01*
X122173000Y-51073000D01*
X122173000Y-51053000D01*
X122427000Y-51053000D01*
X122427000Y-51073000D01*
X123426250Y-51073000D01*
X123585000Y-50914250D01*
X123585000Y-50423691D01*
X123488327Y-50190302D01*
X123425025Y-50127000D01*
X134174975Y-50127000D01*
X134111673Y-50190302D01*
X134015000Y-50423691D01*
X134015000Y-50914250D01*
X134173750Y-51073000D01*
X135173000Y-51073000D01*
X135173000Y-51053000D01*
X135427000Y-51053000D01*
X135427000Y-51073000D01*
X135447000Y-51073000D01*
X135447000Y-51327000D01*
X135427000Y-51327000D01*
X135427000Y-52326250D01*
X135585750Y-52485000D01*
X135673000Y-52485000D01*
X135673000Y-62300000D01*
X135683006Y-62349410D01*
X135711447Y-62391035D01*
X135753841Y-62418315D01*
X135800000Y-62427000D01*
X159673000Y-62427000D01*
X159673000Y-64550000D01*
X159683006Y-64599410D01*
X159711447Y-64641035D01*
X159753841Y-64668315D01*
X159800000Y-64677000D01*
X167050000Y-64677000D01*
X167099410Y-64666994D01*
X167141035Y-64638553D01*
X167168315Y-64596159D01*
X167177000Y-64550000D01*
X167177000Y-63285750D01*
X167615000Y-63285750D01*
X167615000Y-64626309D01*
X167711673Y-64859698D01*
X167890301Y-65038327D01*
X168123690Y-65135000D01*
X172964250Y-65135000D01*
X173123000Y-64976250D01*
X173123000Y-63127000D01*
X167773750Y-63127000D01*
X167615000Y-63285750D01*
X167177000Y-63285750D01*
X167177000Y-62677000D01*
X167615000Y-62677000D01*
X167615000Y-62714250D01*
X167773750Y-62873000D01*
X173123000Y-62873000D01*
X173123000Y-62853000D01*
X173377000Y-62853000D01*
X173377000Y-62873000D01*
X173397000Y-62873000D01*
X173397000Y-63127000D01*
X173377000Y-63127000D01*
X173377000Y-64976250D01*
X173535750Y-65135000D01*
X178376310Y-65135000D01*
X178609699Y-65038327D01*
X178673000Y-64975026D01*
X178673000Y-65550000D01*
X178683006Y-65599410D01*
X178711447Y-65641035D01*
X178753841Y-65668315D01*
X178800000Y-65677000D01*
X200173000Y-65677000D01*
X200173000Y-76673000D01*
X191000000Y-76673000D01*
X190950590Y-76683006D01*
X190908965Y-76711447D01*
X190881685Y-76753841D01*
X190873000Y-76800000D01*
X190873000Y-95000000D01*
X190883006Y-95049410D01*
X190911447Y-95091035D01*
X190953841Y-95118315D01*
X191000000Y-95127000D01*
X203873000Y-95127000D01*
X203873000Y-116773000D01*
X191500000Y-116773000D01*
X191450590Y-116783006D01*
X191408965Y-116811447D01*
X191381685Y-116853841D01*
X191373000Y-116900000D01*
X191373000Y-142073000D01*
X177899908Y-142073000D01*
X117011720Y-142117346D01*
X117210658Y-142035147D01*
X117952542Y-141294557D01*
X118354542Y-140326433D01*
X118355457Y-139278166D01*
X117955147Y-138309342D01*
X117214557Y-137567458D01*
X116246433Y-137165458D01*
X115198166Y-137164543D01*
X114229342Y-137564853D01*
X113487458Y-138305443D01*
X113085458Y-139273567D01*
X113084543Y-140321834D01*
X113484853Y-141290658D01*
X114225443Y-142032542D01*
X114434196Y-142119224D01*
X109377000Y-142122907D01*
X109377000Y-141250000D01*
X109366994Y-141200590D01*
X109338553Y-141158965D01*
X109296159Y-141131685D01*
X109250000Y-141123000D01*
X107935000Y-141123000D01*
X107935000Y-139085750D01*
X107776250Y-138927000D01*
X102427000Y-138927000D01*
X102427000Y-138947000D01*
X102173000Y-138947000D01*
X102173000Y-138927000D01*
X102153000Y-138927000D01*
X102153000Y-138673000D01*
X102173000Y-138673000D01*
X102173000Y-135573750D01*
X102427000Y-135573750D01*
X102427000Y-138673000D01*
X107776250Y-138673000D01*
X107935000Y-138514250D01*
X107935000Y-135923691D01*
X107838327Y-135690302D01*
X107659699Y-135511673D01*
X107426310Y-135415000D01*
X102585750Y-135415000D01*
X102427000Y-135573750D01*
X102173000Y-135573750D01*
X102014250Y-135415000D01*
X100867664Y-135415000D01*
X100859516Y-130321834D01*
X113084543Y-130321834D01*
X113484853Y-131290658D01*
X114225443Y-132032542D01*
X115193567Y-132434542D01*
X116241834Y-132435457D01*
X117210658Y-132035147D01*
X117952542Y-131294557D01*
X118354542Y-130326433D01*
X118355457Y-129278166D01*
X117955147Y-128309342D01*
X117214557Y-127567458D01*
X116246433Y-127165458D01*
X115198166Y-127164543D01*
X114229342Y-127564853D01*
X113487458Y-128305443D01*
X113085458Y-129273567D01*
X113084543Y-130321834D01*
X100859516Y-130321834D01*
X100843516Y-120321834D01*
X113084543Y-120321834D01*
X113484853Y-121290658D01*
X114225443Y-122032542D01*
X115193567Y-122434542D01*
X116241834Y-122435457D01*
X117210658Y-122035147D01*
X117952542Y-121294557D01*
X118354542Y-120326433D01*
X118355457Y-119278166D01*
X117955147Y-118309342D01*
X117214557Y-117567458D01*
X116246433Y-117165458D01*
X115198166Y-117164543D01*
X114229342Y-117564853D01*
X113487458Y-118305443D01*
X113085458Y-119273567D01*
X113084543Y-120321834D01*
X100843516Y-120321834D01*
X100827204Y-110127000D01*
X110000000Y-110127000D01*
X110049410Y-110116994D01*
X110091035Y-110088553D01*
X110118315Y-110046159D01*
X110127000Y-110000000D01*
X110127000Y-90321834D01*
X113084543Y-90321834D01*
X113484853Y-91290658D01*
X114225443Y-92032542D01*
X115193567Y-92434542D01*
X116241834Y-92435457D01*
X117210658Y-92035147D01*
X117952542Y-91294557D01*
X118354542Y-90326433D01*
X118355457Y-89278166D01*
X117955147Y-88309342D01*
X117214557Y-87567458D01*
X116246433Y-87165458D01*
X115198166Y-87164543D01*
X114229342Y-87564853D01*
X113487458Y-88305443D01*
X113085458Y-89273567D01*
X113084543Y-90321834D01*
X110127000Y-90321834D01*
X110127000Y-80321834D01*
X113084543Y-80321834D01*
X113484853Y-81290658D01*
X114225443Y-82032542D01*
X115193567Y-82434542D01*
X116241834Y-82435457D01*
X117210658Y-82035147D01*
X117952542Y-81294557D01*
X118354542Y-80326433D01*
X118355457Y-79278166D01*
X118257049Y-79040000D01*
X125472041Y-79040000D01*
X125586115Y-79613489D01*
X125910971Y-80099670D01*
X126225752Y-80310000D01*
X125910971Y-80520330D01*
X125586115Y-81006511D01*
X125472041Y-81580000D01*
X125586115Y-82153489D01*
X125910971Y-82639670D01*
X126225752Y-82850000D01*
X125910971Y-83060330D01*
X125586115Y-83546511D01*
X125472041Y-84120000D01*
X125586115Y-84693489D01*
X125910971Y-85179670D01*
X126225752Y-85390000D01*
X125910971Y-85600330D01*
X125586115Y-86086511D01*
X125472041Y-86660000D01*
X125586115Y-87233489D01*
X125910971Y-87719670D01*
X126225752Y-87930000D01*
X125910971Y-88140330D01*
X125586115Y-88626511D01*
X125472041Y-89200000D01*
X125586115Y-89773489D01*
X125910971Y-90259670D01*
X126225752Y-90470000D01*
X125910971Y-90680330D01*
X125586115Y-91166511D01*
X125472041Y-91740000D01*
X125586115Y-92313489D01*
X125910971Y-92799670D01*
X126225752Y-93010000D01*
X125910971Y-93220330D01*
X125586115Y-93706511D01*
X125472041Y-94280000D01*
X125586115Y-94853489D01*
X125910971Y-95339670D01*
X126225752Y-95550000D01*
X125910971Y-95760330D01*
X125586115Y-96246511D01*
X125472041Y-96820000D01*
X125586115Y-97393489D01*
X125910971Y-97879670D01*
X126225752Y-98090000D01*
X125910971Y-98300330D01*
X125586115Y-98786511D01*
X125472041Y-99360000D01*
X125586115Y-99933489D01*
X125910971Y-100419670D01*
X126225752Y-100630000D01*
X125910971Y-100840330D01*
X125586115Y-101326511D01*
X125472041Y-101900000D01*
X125586115Y-102473489D01*
X125910971Y-102959670D01*
X126225752Y-103170000D01*
X125910971Y-103380330D01*
X125586115Y-103866511D01*
X125472041Y-104440000D01*
X125586115Y-105013489D01*
X125910971Y-105499670D01*
X126225752Y-105710000D01*
X125910971Y-105920330D01*
X125586115Y-106406511D01*
X125472041Y-106980000D01*
X125586115Y-107553489D01*
X125910971Y-108039670D01*
X126225752Y-108250000D01*
X125910971Y-108460330D01*
X125586115Y-108946511D01*
X125472041Y-109520000D01*
X125586115Y-110093489D01*
X125910971Y-110579670D01*
X126225752Y-110790000D01*
X125910971Y-111000330D01*
X125586115Y-111486511D01*
X125472041Y-112060000D01*
X125586115Y-112633489D01*
X125910971Y-113119670D01*
X126225752Y-113330000D01*
X125910971Y-113540330D01*
X125586115Y-114026511D01*
X125472041Y-114600000D01*
X125586115Y-115173489D01*
X125910971Y-115659670D01*
X126225752Y-115870000D01*
X125910971Y-116080330D01*
X125586115Y-116566511D01*
X125472041Y-117140000D01*
X125586115Y-117713489D01*
X125910971Y-118199670D01*
X126225752Y-118410000D01*
X125910971Y-118620330D01*
X125586115Y-119106511D01*
X125472041Y-119680000D01*
X125586115Y-120253489D01*
X125910971Y-120739670D01*
X126225752Y-120950000D01*
X125910971Y-121160330D01*
X125586115Y-121646511D01*
X125472041Y-122220000D01*
X125586115Y-122793489D01*
X125910971Y-123279670D01*
X126225752Y-123490000D01*
X125910971Y-123700330D01*
X125586115Y-124186511D01*
X125472041Y-124760000D01*
X125586115Y-125333489D01*
X125910971Y-125819670D01*
X126225752Y-126030000D01*
X125910971Y-126240330D01*
X125586115Y-126726511D01*
X125472041Y-127300000D01*
X125586115Y-127873489D01*
X125910971Y-128359670D01*
X126225752Y-128570000D01*
X125910971Y-128780330D01*
X125586115Y-129266511D01*
X125472041Y-129840000D01*
X125586115Y-130413489D01*
X125910971Y-130899670D01*
X126225752Y-131110000D01*
X125910971Y-131320330D01*
X125586115Y-131806511D01*
X125472041Y-132380000D01*
X125586115Y-132953489D01*
X125910971Y-133439670D01*
X126225752Y-133650000D01*
X125910971Y-133860330D01*
X125586115Y-134346511D01*
X125472041Y-134920000D01*
X125586115Y-135493489D01*
X125910971Y-135979670D01*
X126225752Y-136190000D01*
X125910971Y-136400330D01*
X125586115Y-136886511D01*
X125472041Y-137460000D01*
X125586115Y-138033489D01*
X125910971Y-138519670D01*
X126225752Y-138730000D01*
X125910971Y-138940330D01*
X125586115Y-139426511D01*
X125472041Y-140000000D01*
X125586115Y-140573489D01*
X125910971Y-141059670D01*
X126397152Y-141384526D01*
X126970641Y-141498600D01*
X127029359Y-141498600D01*
X127602848Y-141384526D01*
X128068442Y-141073426D01*
X128073238Y-141098917D01*
X128212310Y-141315041D01*
X128424510Y-141460031D01*
X128676400Y-141511040D01*
X130403600Y-141511040D01*
X130638917Y-141466762D01*
X130855041Y-141327690D01*
X131000031Y-141115490D01*
X131051040Y-140863600D01*
X131051040Y-139136400D01*
X131006762Y-138901083D01*
X130867690Y-138684959D01*
X130655490Y-138539969D01*
X130611869Y-138531136D01*
X130629029Y-138519670D01*
X130953885Y-138033489D01*
X131067959Y-137460000D01*
X130953885Y-136886511D01*
X130629029Y-136400330D01*
X130314248Y-136190000D01*
X130629029Y-135979670D01*
X130953885Y-135493489D01*
X131067959Y-134920000D01*
X130953885Y-134346511D01*
X130629029Y-133860330D01*
X130314248Y-133650000D01*
X130629029Y-133439670D01*
X130953885Y-132953489D01*
X131067959Y-132380000D01*
X130953885Y-131806511D01*
X130629029Y-131320330D01*
X130314248Y-131110000D01*
X130629029Y-130899670D01*
X130953885Y-130413489D01*
X131067959Y-129840000D01*
X130953885Y-129266511D01*
X130629029Y-128780330D01*
X130314248Y-128570000D01*
X130629029Y-128359670D01*
X130953885Y-127873489D01*
X131067959Y-127300000D01*
X130953885Y-126726511D01*
X130629029Y-126240330D01*
X130314248Y-126030000D01*
X130629029Y-125819670D01*
X130953885Y-125333489D01*
X131067959Y-124760000D01*
X130953885Y-124186511D01*
X130629029Y-123700330D01*
X130314248Y-123490000D01*
X130629029Y-123279670D01*
X130953885Y-122793489D01*
X131067959Y-122220000D01*
X130953885Y-121646511D01*
X130629029Y-121160330D01*
X130314248Y-120950000D01*
X130629029Y-120739670D01*
X130953885Y-120253489D01*
X131067959Y-119680000D01*
X130953885Y-119106511D01*
X130629029Y-118620330D01*
X130314248Y-118410000D01*
X130629029Y-118199670D01*
X130953885Y-117713489D01*
X131067959Y-117140000D01*
X130953885Y-116566511D01*
X130629029Y-116080330D01*
X130314248Y-115870000D01*
X130629029Y-115659670D01*
X130953885Y-115173489D01*
X131067959Y-114600000D01*
X130953885Y-114026511D01*
X130629029Y-113540330D01*
X130314248Y-113330000D01*
X130629029Y-113119670D01*
X130953885Y-112633489D01*
X131067959Y-112060000D01*
X130953885Y-111486511D01*
X130629029Y-111000330D01*
X130314248Y-110790000D01*
X130629029Y-110579670D01*
X130953885Y-110093489D01*
X131067959Y-109520000D01*
X130953885Y-108946511D01*
X130629029Y-108460330D01*
X130314248Y-108250000D01*
X130629029Y-108039670D01*
X130953885Y-107553489D01*
X131067959Y-106980000D01*
X130953885Y-106406511D01*
X130629029Y-105920330D01*
X130314248Y-105710000D01*
X130629029Y-105499670D01*
X130953885Y-105013489D01*
X131067959Y-104440000D01*
X130953885Y-103866511D01*
X130629029Y-103380330D01*
X130314248Y-103170000D01*
X130629029Y-102959670D01*
X130953885Y-102473489D01*
X131067959Y-101900000D01*
X130953885Y-101326511D01*
X130629029Y-100840330D01*
X130314248Y-100630000D01*
X130629029Y-100419670D01*
X130953885Y-99933489D01*
X131067959Y-99360000D01*
X130953885Y-98786511D01*
X130629029Y-98300330D01*
X130314248Y-98090000D01*
X130629029Y-97879670D01*
X130953885Y-97393489D01*
X131067959Y-96820000D01*
X130953885Y-96246511D01*
X130629029Y-95760330D01*
X130314248Y-95550000D01*
X130629029Y-95339670D01*
X130953885Y-94853489D01*
X131067959Y-94280000D01*
X130953885Y-93706511D01*
X130629029Y-93220330D01*
X130314248Y-93010000D01*
X130629029Y-92799670D01*
X130953885Y-92313489D01*
X131067959Y-91740000D01*
X130953885Y-91166511D01*
X130629029Y-90680330D01*
X130314248Y-90470000D01*
X130629029Y-90259670D01*
X130953885Y-89773489D01*
X131067959Y-89200000D01*
X130953885Y-88626511D01*
X130629029Y-88140330D01*
X130314248Y-87930000D01*
X130629029Y-87719670D01*
X130953885Y-87233489D01*
X131067959Y-86660000D01*
X130953885Y-86086511D01*
X130629029Y-85600330D01*
X130314248Y-85390000D01*
X130629029Y-85179670D01*
X130953885Y-84693489D01*
X131067959Y-84120000D01*
X130953885Y-83546511D01*
X130629029Y-83060330D01*
X130314248Y-82850000D01*
X130629029Y-82639670D01*
X130953885Y-82153489D01*
X131067959Y-81580000D01*
X130953885Y-81006511D01*
X130629029Y-80520330D01*
X130314248Y-80310000D01*
X130629029Y-80099670D01*
X130953885Y-79613489D01*
X131067959Y-79040000D01*
X176272041Y-79040000D01*
X176386115Y-79613489D01*
X176710971Y-80099670D01*
X177025752Y-80310000D01*
X176710971Y-80520330D01*
X176386115Y-81006511D01*
X176272041Y-81580000D01*
X176386115Y-82153489D01*
X176710971Y-82639670D01*
X177025752Y-82850000D01*
X176710971Y-83060330D01*
X176386115Y-83546511D01*
X176272041Y-84120000D01*
X176386115Y-84693489D01*
X176710971Y-85179670D01*
X177025752Y-85390000D01*
X176710971Y-85600330D01*
X176386115Y-86086511D01*
X176272041Y-86660000D01*
X176386115Y-87233489D01*
X176710971Y-87719670D01*
X177025752Y-87930000D01*
X176710971Y-88140330D01*
X176386115Y-88626511D01*
X176272041Y-89200000D01*
X176386115Y-89773489D01*
X176710971Y-90259670D01*
X177025752Y-90470000D01*
X176710971Y-90680330D01*
X176386115Y-91166511D01*
X176272041Y-91740000D01*
X176386115Y-92313489D01*
X176710971Y-92799670D01*
X177025752Y-93010000D01*
X176710971Y-93220330D01*
X176386115Y-93706511D01*
X176272041Y-94280000D01*
X176386115Y-94853489D01*
X176710971Y-95339670D01*
X177025752Y-95550000D01*
X176710971Y-95760330D01*
X176386115Y-96246511D01*
X176272041Y-96820000D01*
X176386115Y-97393489D01*
X176710971Y-97879670D01*
X177025752Y-98090000D01*
X176710971Y-98300330D01*
X176386115Y-98786511D01*
X176272041Y-99360000D01*
X176386115Y-99933489D01*
X176710971Y-100419670D01*
X177025752Y-100630000D01*
X176710971Y-100840330D01*
X176386115Y-101326511D01*
X176272041Y-101900000D01*
X176386115Y-102473489D01*
X176710971Y-102959670D01*
X177025752Y-103170000D01*
X176710971Y-103380330D01*
X176386115Y-103866511D01*
X176272041Y-104440000D01*
X176386115Y-105013489D01*
X176710971Y-105499670D01*
X177025752Y-105710000D01*
X176710971Y-105920330D01*
X176386115Y-106406511D01*
X176272041Y-106980000D01*
X176386115Y-107553489D01*
X176710971Y-108039670D01*
X177025752Y-108250000D01*
X176710971Y-108460330D01*
X176386115Y-108946511D01*
X176272041Y-109520000D01*
X176386115Y-110093489D01*
X176710971Y-110579670D01*
X177025752Y-110790000D01*
X176710971Y-111000330D01*
X176386115Y-111486511D01*
X176272041Y-112060000D01*
X176386115Y-112633489D01*
X176710971Y-113119670D01*
X177025752Y-113330000D01*
X176710971Y-113540330D01*
X176386115Y-114026511D01*
X176272041Y-114600000D01*
X176386115Y-115173489D01*
X176710971Y-115659670D01*
X177025752Y-115870000D01*
X176710971Y-116080330D01*
X176386115Y-116566511D01*
X176272041Y-117140000D01*
X176386115Y-117713489D01*
X176710971Y-118199670D01*
X177025752Y-118410000D01*
X176710971Y-118620330D01*
X176386115Y-119106511D01*
X176272041Y-119680000D01*
X176386115Y-120253489D01*
X176710971Y-120739670D01*
X177025752Y-120950000D01*
X176710971Y-121160330D01*
X176386115Y-121646511D01*
X176272041Y-122220000D01*
X176386115Y-122793489D01*
X176710971Y-123279670D01*
X177025752Y-123490000D01*
X176710971Y-123700330D01*
X176386115Y-124186511D01*
X176272041Y-124760000D01*
X176386115Y-125333489D01*
X176710971Y-125819670D01*
X177025752Y-126030000D01*
X176710971Y-126240330D01*
X176386115Y-126726511D01*
X176272041Y-127300000D01*
X176386115Y-127873489D01*
X176710971Y-128359670D01*
X177025752Y-128570000D01*
X176710971Y-128780330D01*
X176386115Y-129266511D01*
X176272041Y-129840000D01*
X176386115Y-130413489D01*
X176710971Y-130899670D01*
X177025752Y-131110000D01*
X176710971Y-131320330D01*
X176386115Y-131806511D01*
X176272041Y-132380000D01*
X176386115Y-132953489D01*
X176710971Y-133439670D01*
X177025752Y-133650000D01*
X176710971Y-133860330D01*
X176386115Y-134346511D01*
X176272041Y-134920000D01*
X176386115Y-135493489D01*
X176710971Y-135979670D01*
X177025752Y-136190000D01*
X176710971Y-136400330D01*
X176386115Y-136886511D01*
X176272041Y-137460000D01*
X176386115Y-138033489D01*
X176710971Y-138519670D01*
X177025752Y-138730000D01*
X176710971Y-138940330D01*
X176386115Y-139426511D01*
X176272041Y-140000000D01*
X176386115Y-140573489D01*
X176710971Y-141059670D01*
X177197152Y-141384526D01*
X177770641Y-141498600D01*
X177829359Y-141498600D01*
X178402848Y-141384526D01*
X178868442Y-141073426D01*
X178873238Y-141098917D01*
X179012310Y-141315041D01*
X179224510Y-141460031D01*
X179476400Y-141511040D01*
X181203600Y-141511040D01*
X181438917Y-141466762D01*
X181655041Y-141327690D01*
X181800031Y-141115490D01*
X181851040Y-140863600D01*
X181851040Y-139136400D01*
X181806762Y-138901083D01*
X181667690Y-138684959D01*
X181455490Y-138539969D01*
X181411869Y-138531136D01*
X181429029Y-138519670D01*
X181753885Y-138033489D01*
X181867959Y-137460000D01*
X181753885Y-136886511D01*
X181429029Y-136400330D01*
X181114248Y-136190000D01*
X181429029Y-135979670D01*
X181753885Y-135493489D01*
X181867959Y-134920000D01*
X181753885Y-134346511D01*
X181429029Y-133860330D01*
X181114248Y-133650000D01*
X181429029Y-133439670D01*
X181753885Y-132953489D01*
X181867959Y-132380000D01*
X181753885Y-131806511D01*
X181429029Y-131320330D01*
X181114248Y-131110000D01*
X181429029Y-130899670D01*
X181753885Y-130413489D01*
X181867959Y-129840000D01*
X181753885Y-129266511D01*
X181429029Y-128780330D01*
X181114248Y-128570000D01*
X181429029Y-128359670D01*
X181753885Y-127873489D01*
X181867959Y-127300000D01*
X181753885Y-126726511D01*
X181429029Y-126240330D01*
X181114248Y-126030000D01*
X181429029Y-125819670D01*
X181753885Y-125333489D01*
X181867959Y-124760000D01*
X181753885Y-124186511D01*
X181429029Y-123700330D01*
X181114248Y-123490000D01*
X181429029Y-123279670D01*
X181753885Y-122793489D01*
X181867959Y-122220000D01*
X181753885Y-121646511D01*
X181429029Y-121160330D01*
X181114248Y-120950000D01*
X181429029Y-120739670D01*
X181753885Y-120253489D01*
X181867959Y-119680000D01*
X181753885Y-119106511D01*
X181429029Y-118620330D01*
X181114248Y-118410000D01*
X181429029Y-118199670D01*
X181753885Y-117713489D01*
X181867959Y-117140000D01*
X181753885Y-116566511D01*
X181429029Y-116080330D01*
X181114248Y-115870000D01*
X181429029Y-115659670D01*
X181753885Y-115173489D01*
X181867959Y-114600000D01*
X181753885Y-114026511D01*
X181429029Y-113540330D01*
X181114248Y-113330000D01*
X181429029Y-113119670D01*
X181753885Y-112633489D01*
X181867959Y-112060000D01*
X181753885Y-111486511D01*
X181429029Y-111000330D01*
X181114248Y-110790000D01*
X181429029Y-110579670D01*
X181753885Y-110093489D01*
X181867959Y-109520000D01*
X181753885Y-108946511D01*
X181429029Y-108460330D01*
X181114248Y-108250000D01*
X181429029Y-108039670D01*
X181753885Y-107553489D01*
X181867959Y-106980000D01*
X181753885Y-106406511D01*
X181429029Y-105920330D01*
X181114248Y-105710000D01*
X181429029Y-105499670D01*
X181753885Y-105013489D01*
X181867959Y-104440000D01*
X181753885Y-103866511D01*
X181429029Y-103380330D01*
X181114248Y-103170000D01*
X181429029Y-102959670D01*
X181753885Y-102473489D01*
X181867959Y-101900000D01*
X181753885Y-101326511D01*
X181429029Y-100840330D01*
X181114248Y-100630000D01*
X181429029Y-100419670D01*
X181753885Y-99933489D01*
X181867959Y-99360000D01*
X181753885Y-98786511D01*
X181429029Y-98300330D01*
X181114248Y-98090000D01*
X181429029Y-97879670D01*
X181753885Y-97393489D01*
X181867959Y-96820000D01*
X181753885Y-96246511D01*
X181429029Y-95760330D01*
X181114248Y-95550000D01*
X181429029Y-95339670D01*
X181753885Y-94853489D01*
X181867959Y-94280000D01*
X181753885Y-93706511D01*
X181429029Y-93220330D01*
X181114248Y-93010000D01*
X181429029Y-92799670D01*
X181753885Y-92313489D01*
X181867959Y-91740000D01*
X181753885Y-91166511D01*
X181429029Y-90680330D01*
X181114248Y-90470000D01*
X181429029Y-90259670D01*
X181753885Y-89773489D01*
X181867959Y-89200000D01*
X181753885Y-88626511D01*
X181429029Y-88140330D01*
X181114248Y-87930000D01*
X181429029Y-87719670D01*
X181753885Y-87233489D01*
X181867959Y-86660000D01*
X181753885Y-86086511D01*
X181429029Y-85600330D01*
X181114248Y-85390000D01*
X181429029Y-85179670D01*
X181753885Y-84693489D01*
X181867959Y-84120000D01*
X181753885Y-83546511D01*
X181429029Y-83060330D01*
X181114248Y-82850000D01*
X181429029Y-82639670D01*
X181753885Y-82153489D01*
X181867959Y-81580000D01*
X181753885Y-81006511D01*
X181429029Y-80520330D01*
X181114248Y-80310000D01*
X181429029Y-80099670D01*
X181753885Y-79613489D01*
X181867959Y-79040000D01*
X181753885Y-78466511D01*
X181429029Y-77980330D01*
X180942848Y-77655474D01*
X180369359Y-77541400D01*
X180310641Y-77541400D01*
X179737152Y-77655474D01*
X179250971Y-77980330D01*
X179070000Y-78251172D01*
X178889029Y-77980330D01*
X178402848Y-77655474D01*
X177829359Y-77541400D01*
X177770641Y-77541400D01*
X177197152Y-77655474D01*
X176710971Y-77980330D01*
X176386115Y-78466511D01*
X176272041Y-79040000D01*
X131067959Y-79040000D01*
X130953885Y-78466511D01*
X130629029Y-77980330D01*
X130142848Y-77655474D01*
X129569359Y-77541400D01*
X129510641Y-77541400D01*
X128937152Y-77655474D01*
X128450971Y-77980330D01*
X128270000Y-78251172D01*
X128089029Y-77980330D01*
X127602848Y-77655474D01*
X127029359Y-77541400D01*
X126970641Y-77541400D01*
X126397152Y-77655474D01*
X125910971Y-77980330D01*
X125586115Y-78466511D01*
X125472041Y-79040000D01*
X118257049Y-79040000D01*
X117955147Y-78309342D01*
X117214557Y-77567458D01*
X116246433Y-77165458D01*
X115198166Y-77164543D01*
X114229342Y-77564853D01*
X113487458Y-78305443D01*
X113085458Y-79273567D01*
X113084543Y-80321834D01*
X110127000Y-80321834D01*
X110127000Y-77000000D01*
X110116994Y-76950590D01*
X110088553Y-76908965D01*
X110046159Y-76881685D01*
X110000000Y-76873000D01*
X107853528Y-76873000D01*
X107935000Y-76676309D01*
X107935000Y-74085750D01*
X107776250Y-73927000D01*
X102427000Y-73927000D01*
X102427000Y-73947000D01*
X102173000Y-73947000D01*
X102173000Y-73927000D01*
X102153000Y-73927000D01*
X102153000Y-73673000D01*
X102173000Y-73673000D01*
X102173000Y-70573750D01*
X102427000Y-70573750D01*
X102427000Y-73673000D01*
X107776250Y-73673000D01*
X107935000Y-73514250D01*
X107935000Y-70923691D01*
X107838327Y-70690302D01*
X107659699Y-70511673D01*
X107426310Y-70415000D01*
X102585750Y-70415000D01*
X102427000Y-70573750D01*
X102173000Y-70573750D01*
X102014250Y-70415000D01*
X99877000Y-70415000D01*
X99877000Y-68627000D01*
X110700000Y-68627000D01*
X110749410Y-68616994D01*
X110791035Y-68588553D01*
X110818315Y-68546159D01*
X110827000Y-68500000D01*
X110827000Y-56515619D01*
X110965246Y-56850200D01*
X111447262Y-57333059D01*
X112077369Y-57594702D01*
X112759638Y-57595297D01*
X113390200Y-57334754D01*
X113873059Y-56852738D01*
X114134702Y-56222631D01*
X114135297Y-55540362D01*
X113874754Y-54909800D01*
X113392738Y-54426941D01*
X112762631Y-54165298D01*
X112080362Y-54164703D01*
X111449800Y-54425246D01*
X110966941Y-54907262D01*
X110827000Y-55244278D01*
X110827000Y-52010403D01*
X111389202Y-52010403D01*
X111497658Y-52285559D01*
X112136367Y-52525442D01*
X112818255Y-52502642D01*
X113342342Y-52285559D01*
X113450798Y-52010403D01*
X112420000Y-50979605D01*
X111389202Y-52010403D01*
X110827000Y-52010403D01*
X110827000Y-51462955D01*
X110934441Y-51722342D01*
X111209597Y-51830798D01*
X112240395Y-50800000D01*
X112599605Y-50800000D01*
X113630403Y-51830798D01*
X113905559Y-51722342D01*
X114125868Y-51135750D01*
X116140000Y-51135750D01*
X116140000Y-51726309D01*
X116236673Y-51959698D01*
X116415301Y-52138327D01*
X116648690Y-52235000D01*
X117114250Y-52235000D01*
X117273000Y-52076250D01*
X117273000Y-50977000D01*
X117527000Y-50977000D01*
X117527000Y-52076250D01*
X117685750Y-52235000D01*
X118151310Y-52235000D01*
X118384699Y-52138327D01*
X118563327Y-51959698D01*
X118660000Y-51726309D01*
X118660000Y-51485750D01*
X121015000Y-51485750D01*
X121015000Y-51976309D01*
X121111673Y-52209698D01*
X121290301Y-52388327D01*
X121523690Y-52485000D01*
X122014250Y-52485000D01*
X122173000Y-52326250D01*
X122173000Y-51327000D01*
X122427000Y-51327000D01*
X122427000Y-52326250D01*
X122585750Y-52485000D01*
X123076310Y-52485000D01*
X123309699Y-52388327D01*
X123488327Y-52209698D01*
X123585000Y-51976309D01*
X123585000Y-51485750D01*
X134015000Y-51485750D01*
X134015000Y-51976309D01*
X134111673Y-52209698D01*
X134290301Y-52388327D01*
X134523690Y-52485000D01*
X135014250Y-52485000D01*
X135173000Y-52326250D01*
X135173000Y-51327000D01*
X134173750Y-51327000D01*
X134015000Y-51485750D01*
X123585000Y-51485750D01*
X123426250Y-51327000D01*
X122427000Y-51327000D01*
X122173000Y-51327000D01*
X121173750Y-51327000D01*
X121015000Y-51485750D01*
X118660000Y-51485750D01*
X118660000Y-51135750D01*
X118501250Y-50977000D01*
X117527000Y-50977000D01*
X117273000Y-50977000D01*
X116298750Y-50977000D01*
X116140000Y-51135750D01*
X114125868Y-51135750D01*
X114145442Y-51083633D01*
X114122642Y-50401745D01*
X113905559Y-49877658D01*
X113630403Y-49769202D01*
X112599605Y-50800000D01*
X112240395Y-50800000D01*
X111209597Y-49769202D01*
X110934441Y-49877658D01*
X110827000Y-50163729D01*
X110827000Y-49589597D01*
X111389202Y-49589597D01*
X112420000Y-50620395D01*
X113450798Y-49589597D01*
X113342342Y-49314441D01*
X112703633Y-49074558D01*
X112021745Y-49097358D01*
X111497658Y-49314441D01*
X111389202Y-49589597D01*
X110827000Y-49589597D01*
X110827000Y-48877000D01*
X114447394Y-48877000D01*
X115660197Y-50089803D01*
G36*
X137473000Y-49273000D02*
X136461184Y-49273000D01*
X136597622Y-48880922D01*
X136568083Y-48370572D01*
X136429611Y-48036271D01*
X136199016Y-47980590D01*
X135479605Y-48700000D01*
X135493748Y-48714142D01*
X135314142Y-48893748D01*
X135300000Y-48879605D01*
X135285858Y-48893748D01*
X135106252Y-48714142D01*
X135120395Y-48700000D01*
X134400984Y-47980590D01*
X134170389Y-48036271D01*
X134002378Y-48519078D01*
X134031917Y-49029428D01*
X134132808Y-49273000D01*
X129809892Y-49273000D01*
X129901441Y-49214090D01*
X130046431Y-49001890D01*
X130097440Y-48750000D01*
X130097440Y-47800984D01*
X134580590Y-47800984D01*
X135300000Y-48520395D01*
X136019410Y-47800984D01*
X135963729Y-47570389D01*
X135480922Y-47402378D01*
X134970572Y-47431917D01*
X134636271Y-47570389D01*
X134580590Y-47800984D01*
X130097440Y-47800984D01*
X130097440Y-47450000D01*
X130053162Y-47214683D01*
X129914090Y-46998559D01*
X129701890Y-46853569D01*
X129450000Y-46802560D01*
X129287615Y-46802560D01*
X129463729Y-46729611D01*
X129519410Y-46499016D01*
X128800000Y-45779605D01*
X128080590Y-46499016D01*
X128136271Y-46729611D01*
X128345902Y-46802560D01*
X128150000Y-46802560D01*
X127914683Y-46846838D01*
X127698559Y-46985910D01*
X127553569Y-47198110D01*
X127502560Y-47450000D01*
X127502560Y-48750000D01*
X127546838Y-48985317D01*
X127685910Y-49201441D01*
X127790640Y-49273000D01*
X123461184Y-49273000D01*
X123597622Y-48880922D01*
X123568083Y-48370572D01*
X123429611Y-48036271D01*
X123199016Y-47980590D01*
X122479605Y-48700000D01*
X122493748Y-48714142D01*
X122314142Y-48893748D01*
X122300000Y-48879605D01*
X122285858Y-48893748D01*
X122106252Y-48714142D01*
X122120395Y-48700000D01*
X121400984Y-47980590D01*
X121170389Y-48036271D01*
X121002378Y-48519078D01*
X121031917Y-49029428D01*
X121132808Y-49273000D01*
X118640660Y-49273000D01*
X118660000Y-49226309D01*
X118660000Y-48635750D01*
X118501250Y-48477000D01*
X117527000Y-48477000D01*
X117527000Y-48497000D01*
X117273000Y-48497000D01*
X117273000Y-48477000D01*
X117253000Y-48477000D01*
X117253000Y-48223000D01*
X117273000Y-48223000D01*
X117273000Y-47123750D01*
X117527000Y-47123750D01*
X117527000Y-48223000D01*
X118501250Y-48223000D01*
X118660000Y-48064250D01*
X118660000Y-47800984D01*
X121580590Y-47800984D01*
X122300000Y-48520395D01*
X123019410Y-47800984D01*
X122963729Y-47570389D01*
X122480922Y-47402378D01*
X121970572Y-47431917D01*
X121636271Y-47570389D01*
X121580590Y-47800984D01*
X118660000Y-47800984D01*
X118660000Y-47473691D01*
X118563327Y-47240302D01*
X118384699Y-47061673D01*
X118151310Y-46965000D01*
X117685750Y-46965000D01*
X117527000Y-47123750D01*
X117273000Y-47123750D01*
X117114250Y-46965000D01*
X116648690Y-46965000D01*
X116415301Y-47061673D01*
X116236673Y-47240302D01*
X116140000Y-47473691D01*
X116140000Y-48064250D01*
X116298748Y-48222998D01*
X116202604Y-48222998D01*
X113398684Y-45419078D01*
X127502378Y-45419078D01*
X127531917Y-45929428D01*
X127670389Y-46263729D01*
X127900984Y-46319410D01*
X128620395Y-45600000D01*
X128979605Y-45600000D01*
X129699016Y-46319410D01*
X129929611Y-46263729D01*
X130097622Y-45780922D01*
X130068083Y-45270572D01*
X129929611Y-44936271D01*
X129699016Y-44880590D01*
X128979605Y-45600000D01*
X128620395Y-45600000D01*
X127900984Y-44880590D01*
X127670389Y-44936271D01*
X127502378Y-45419078D01*
X113398684Y-45419078D01*
X113389803Y-45410197D01*
X113347789Y-45382334D01*
X113300000Y-45373000D01*
X109027000Y-45373000D01*
X109027000Y-44390403D01*
X111389202Y-44390403D01*
X111497658Y-44665559D01*
X112136367Y-44905442D01*
X112818255Y-44882642D01*
X113256818Y-44700984D01*
X128080590Y-44700984D01*
X128800000Y-45420395D01*
X129519410Y-44700984D01*
X129463729Y-44470389D01*
X128980922Y-44302378D01*
X128470572Y-44331917D01*
X128136271Y-44470389D01*
X128080590Y-44700984D01*
X113256818Y-44700984D01*
X113342342Y-44665559D01*
X113450798Y-44390403D01*
X112420000Y-43359605D01*
X111389202Y-44390403D01*
X109027000Y-44390403D01*
X109027000Y-42896367D01*
X110694558Y-42896367D01*
X110717358Y-43578255D01*
X110934441Y-44102342D01*
X111209597Y-44210798D01*
X112240395Y-43180000D01*
X112599605Y-43180000D01*
X113630403Y-44210798D01*
X113905559Y-44102342D01*
X114145442Y-43463633D01*
X114122642Y-42781745D01*
X113905559Y-42257658D01*
X113630403Y-42149202D01*
X112599605Y-43180000D01*
X112240395Y-43180000D01*
X111209597Y-42149202D01*
X110934441Y-42257658D01*
X110694558Y-42896367D01*
X109027000Y-42896367D01*
X109027000Y-41969597D01*
X111389202Y-41969597D01*
X112420000Y-43000395D01*
X113450798Y-41969597D01*
X113342342Y-41694441D01*
X112703633Y-41454558D01*
X112021745Y-41477358D01*
X111497658Y-41694441D01*
X111389202Y-41969597D01*
X109027000Y-41969597D01*
X109027000Y-39827000D01*
X137473000Y-39827000D01*
X137473000Y-49273000D01*
X137473000Y-49273000D01*
G37*
X137473000Y-49273000D02*
X136461184Y-49273000D01*
X136597622Y-48880922D01*
X136568083Y-48370572D01*
X136429611Y-48036271D01*
X136199016Y-47980590D01*
X135479605Y-48700000D01*
X135493748Y-48714142D01*
X135314142Y-48893748D01*
X135300000Y-48879605D01*
X135285858Y-48893748D01*
X135106252Y-48714142D01*
X135120395Y-48700000D01*
X134400984Y-47980590D01*
X134170389Y-48036271D01*
X134002378Y-48519078D01*
X134031917Y-49029428D01*
X134132808Y-49273000D01*
X129809892Y-49273000D01*
X129901441Y-49214090D01*
X130046431Y-49001890D01*
X130097440Y-48750000D01*
X130097440Y-47800984D01*
X134580590Y-47800984D01*
X135300000Y-48520395D01*
X136019410Y-47800984D01*
X135963729Y-47570389D01*
X135480922Y-47402378D01*
X134970572Y-47431917D01*
X134636271Y-47570389D01*
X134580590Y-47800984D01*
X130097440Y-47800984D01*
X130097440Y-47450000D01*
X130053162Y-47214683D01*
X129914090Y-46998559D01*
X129701890Y-46853569D01*
X129450000Y-46802560D01*
X129287615Y-46802560D01*
X129463729Y-46729611D01*
X129519410Y-46499016D01*
X128800000Y-45779605D01*
X128080590Y-46499016D01*
X128136271Y-46729611D01*
X128345902Y-46802560D01*
X128150000Y-46802560D01*
X127914683Y-46846838D01*
X127698559Y-46985910D01*
X127553569Y-47198110D01*
X127502560Y-47450000D01*
X127502560Y-48750000D01*
X127546838Y-48985317D01*
X127685910Y-49201441D01*
X127790640Y-49273000D01*
X123461184Y-49273000D01*
X123597622Y-48880922D01*
X123568083Y-48370572D01*
X123429611Y-48036271D01*
X123199016Y-47980590D01*
X122479605Y-48700000D01*
X122493748Y-48714142D01*
X122314142Y-48893748D01*
X122300000Y-48879605D01*
X122285858Y-48893748D01*
X122106252Y-48714142D01*
X122120395Y-48700000D01*
X121400984Y-47980590D01*
X121170389Y-48036271D01*
X121002378Y-48519078D01*
X121031917Y-49029428D01*
X121132808Y-49273000D01*
X118640660Y-49273000D01*
X118660000Y-49226309D01*
X118660000Y-48635750D01*
X118501250Y-48477000D01*
X117527000Y-48477000D01*
X117527000Y-48497000D01*
X117273000Y-48497000D01*
X117273000Y-48477000D01*
X117253000Y-48477000D01*
X117253000Y-48223000D01*
X117273000Y-48223000D01*
X117273000Y-47123750D01*
X117527000Y-47123750D01*
X117527000Y-48223000D01*
X118501250Y-48223000D01*
X118660000Y-48064250D01*
X118660000Y-47800984D01*
X121580590Y-47800984D01*
X122300000Y-48520395D01*
X123019410Y-47800984D01*
X122963729Y-47570389D01*
X122480922Y-47402378D01*
X121970572Y-47431917D01*
X121636271Y-47570389D01*
X121580590Y-47800984D01*
X118660000Y-47800984D01*
X118660000Y-47473691D01*
X118563327Y-47240302D01*
X118384699Y-47061673D01*
X118151310Y-46965000D01*
X117685750Y-46965000D01*
X117527000Y-47123750D01*
X117273000Y-47123750D01*
X117114250Y-46965000D01*
X116648690Y-46965000D01*
X116415301Y-47061673D01*
X116236673Y-47240302D01*
X116140000Y-47473691D01*
X116140000Y-48064250D01*
X116298748Y-48222998D01*
X116202604Y-48222998D01*
X113398684Y-45419078D01*
X127502378Y-45419078D01*
X127531917Y-45929428D01*
X127670389Y-46263729D01*
X127900984Y-46319410D01*
X128620395Y-45600000D01*
X128979605Y-45600000D01*
X129699016Y-46319410D01*
X129929611Y-46263729D01*
X130097622Y-45780922D01*
X130068083Y-45270572D01*
X129929611Y-44936271D01*
X129699016Y-44880590D01*
X128979605Y-45600000D01*
X128620395Y-45600000D01*
X127900984Y-44880590D01*
X127670389Y-44936271D01*
X127502378Y-45419078D01*
X113398684Y-45419078D01*
X113389803Y-45410197D01*
X113347789Y-45382334D01*
X113300000Y-45373000D01*
X109027000Y-45373000D01*
X109027000Y-44390403D01*
X111389202Y-44390403D01*
X111497658Y-44665559D01*
X112136367Y-44905442D01*
X112818255Y-44882642D01*
X113256818Y-44700984D01*
X128080590Y-44700984D01*
X128800000Y-45420395D01*
X129519410Y-44700984D01*
X129463729Y-44470389D01*
X128980922Y-44302378D01*
X128470572Y-44331917D01*
X128136271Y-44470389D01*
X128080590Y-44700984D01*
X113256818Y-44700984D01*
X113342342Y-44665559D01*
X113450798Y-44390403D01*
X112420000Y-43359605D01*
X111389202Y-44390403D01*
X109027000Y-44390403D01*
X109027000Y-42896367D01*
X110694558Y-42896367D01*
X110717358Y-43578255D01*
X110934441Y-44102342D01*
X111209597Y-44210798D01*
X112240395Y-43180000D01*
X112599605Y-43180000D01*
X113630403Y-44210798D01*
X113905559Y-44102342D01*
X114145442Y-43463633D01*
X114122642Y-42781745D01*
X113905559Y-42257658D01*
X113630403Y-42149202D01*
X112599605Y-43180000D01*
X112240395Y-43180000D01*
X111209597Y-42149202D01*
X110934441Y-42257658D01*
X110694558Y-42896367D01*
X109027000Y-42896367D01*
X109027000Y-41969597D01*
X111389202Y-41969597D01*
X112420000Y-43000395D01*
X113450798Y-41969597D01*
X113342342Y-41694441D01*
X112703633Y-41454558D01*
X112021745Y-41477358D01*
X111497658Y-41694441D01*
X111389202Y-41969597D01*
X109027000Y-41969597D01*
X109027000Y-39827000D01*
X137473000Y-39827000D01*
X137473000Y-49273000D01*
G36*
X221373000Y-152623000D02*
X201528982Y-152623000D01*
X194805095Y-149385573D01*
X194750000Y-149373000D01*
X116000000Y-149373000D01*
X115944905Y-149385573D01*
X109393403Y-152540000D01*
X89710000Y-152540000D01*
X89710000Y-146085750D01*
X96665000Y-146085750D01*
X96665000Y-148676309D01*
X96761673Y-148909698D01*
X96940301Y-149088327D01*
X97173690Y-149185000D01*
X102014250Y-149185000D01*
X102173000Y-149026250D01*
X102173000Y-145927000D01*
X102427000Y-145927000D01*
X102427000Y-149026250D01*
X102585750Y-149185000D01*
X107426310Y-149185000D01*
X107659699Y-149088327D01*
X107838327Y-148909698D01*
X107935000Y-148676309D01*
X107935000Y-146085750D01*
X202915000Y-146085750D01*
X202915000Y-148676309D01*
X203011673Y-148909698D01*
X203190301Y-149088327D01*
X203423690Y-149185000D01*
X208264250Y-149185000D01*
X208423000Y-149026250D01*
X208423000Y-145927000D01*
X208677000Y-145927000D01*
X208677000Y-149026250D01*
X208835750Y-149185000D01*
X213676310Y-149185000D01*
X213909699Y-149088327D01*
X214088327Y-148909698D01*
X214185000Y-148676309D01*
X214185000Y-146085750D01*
X214026250Y-145927000D01*
X208677000Y-145927000D01*
X208423000Y-145927000D01*
X203073750Y-145927000D01*
X202915000Y-146085750D01*
X107935000Y-146085750D01*
X107776250Y-145927000D01*
X102427000Y-145927000D01*
X102173000Y-145927000D01*
X96823750Y-145927000D01*
X96665000Y-146085750D01*
X89710000Y-146085750D01*
X89710000Y-143377000D01*
X96665000Y-143377000D01*
X96665000Y-145514250D01*
X96823750Y-145673000D01*
X102173000Y-145673000D01*
X102173000Y-145653000D01*
X102427000Y-145653000D01*
X102427000Y-145673000D01*
X107776250Y-145673000D01*
X107935000Y-145514250D01*
X107935000Y-143377000D01*
X200750000Y-143377000D01*
X200799410Y-143366994D01*
X200841035Y-143338553D01*
X200868315Y-143296159D01*
X200877000Y-143250000D01*
X200877000Y-142627000D01*
X203074975Y-142627000D01*
X203011673Y-142690302D01*
X202915000Y-142923691D01*
X202915000Y-145514250D01*
X203073750Y-145673000D01*
X208423000Y-145673000D01*
X208423000Y-145653000D01*
X208677000Y-145653000D01*
X208677000Y-145673000D01*
X214026250Y-145673000D01*
X214185000Y-145514250D01*
X214185000Y-142923691D01*
X214088327Y-142690302D01*
X214025025Y-142627000D01*
X215000000Y-142627000D01*
X215049410Y-142616994D01*
X215091035Y-142588553D01*
X215118315Y-142546159D01*
X215127000Y-142500000D01*
X215127000Y-133750000D01*
X215116994Y-133700590D01*
X215088553Y-133658965D01*
X215046159Y-133631685D01*
X215000000Y-133623000D01*
X210627000Y-133623000D01*
X210627000Y-124750000D01*
X210616994Y-124700590D01*
X210588553Y-124658965D01*
X210546159Y-124631685D01*
X210500000Y-124623000D01*
X204951000Y-124623000D01*
X204951000Y-123835750D01*
X204792250Y-123677000D01*
X203427000Y-123677000D01*
X203427000Y-123697000D01*
X203173000Y-123697000D01*
X203173000Y-123677000D01*
X201807750Y-123677000D01*
X201649000Y-123835750D01*
X201649000Y-124623000D01*
X198877000Y-124623000D01*
X198877000Y-122407690D01*
X201649000Y-122407690D01*
X201649000Y-123264250D01*
X201807750Y-123423000D01*
X203173000Y-123423000D01*
X203173000Y-122057750D01*
X203427000Y-122057750D01*
X203427000Y-123423000D01*
X204792250Y-123423000D01*
X204951000Y-123264250D01*
X204951000Y-123260000D01*
X217316655Y-123260000D01*
X217430729Y-123833489D01*
X217755585Y-124319670D01*
X218070366Y-124530000D01*
X217755585Y-124740330D01*
X217430729Y-125226511D01*
X217316655Y-125800000D01*
X217430729Y-126373489D01*
X217755585Y-126859670D01*
X218241766Y-127184526D01*
X218815255Y-127298600D01*
X219184745Y-127298600D01*
X219758234Y-127184526D01*
X220244415Y-126859670D01*
X220569271Y-126373489D01*
X220683345Y-125800000D01*
X220569271Y-125226511D01*
X220244415Y-124740330D01*
X219929634Y-124530000D01*
X220244415Y-124319670D01*
X220569271Y-123833489D01*
X220683345Y-123260000D01*
X220569271Y-122686511D01*
X220244415Y-122200330D01*
X220222220Y-122185500D01*
X220375698Y-122121927D01*
X220554327Y-121943299D01*
X220651000Y-121709910D01*
X220651000Y-121005750D01*
X220492250Y-120847000D01*
X219127000Y-120847000D01*
X219127000Y-120867000D01*
X218873000Y-120867000D01*
X218873000Y-120847000D01*
X217507750Y-120847000D01*
X217349000Y-121005750D01*
X217349000Y-121709910D01*
X217445673Y-121943299D01*
X217624302Y-122121927D01*
X217777780Y-122185500D01*
X217755585Y-122200330D01*
X217430729Y-122686511D01*
X217316655Y-123260000D01*
X204951000Y-123260000D01*
X204951000Y-122407690D01*
X204854327Y-122174301D01*
X204675698Y-121995673D01*
X204442309Y-121899000D01*
X203585750Y-121899000D01*
X203427000Y-122057750D01*
X203173000Y-122057750D01*
X203014250Y-121899000D01*
X202157691Y-121899000D01*
X201924302Y-121995673D01*
X201745673Y-122174301D01*
X201649000Y-122407690D01*
X198877000Y-122407690D01*
X198877000Y-121377000D01*
X210500000Y-121377000D01*
X210549410Y-121366994D01*
X210591035Y-121338553D01*
X210618315Y-121296159D01*
X210627000Y-121250000D01*
X210627000Y-119730090D01*
X217349000Y-119730090D01*
X217349000Y-120434250D01*
X217507750Y-120593000D01*
X218873000Y-120593000D01*
X218873000Y-119380150D01*
X219127000Y-119380150D01*
X219127000Y-120593000D01*
X220492250Y-120593000D01*
X220651000Y-120434250D01*
X220651000Y-119730090D01*
X220554327Y-119496701D01*
X220375698Y-119318073D01*
X220142309Y-119221400D01*
X219285750Y-119221400D01*
X219127000Y-119380150D01*
X218873000Y-119380150D01*
X218714250Y-119221400D01*
X217857691Y-119221400D01*
X217624302Y-119318073D01*
X217445673Y-119496701D01*
X217349000Y-119730090D01*
X210627000Y-119730090D01*
X210627000Y-94200000D01*
X217216655Y-94200000D01*
X217330729Y-94773489D01*
X217655585Y-95259670D01*
X217970366Y-95470000D01*
X217655585Y-95680330D01*
X217330729Y-96166511D01*
X217216655Y-96740000D01*
X217330729Y-97313489D01*
X217655585Y-97799670D01*
X218141766Y-98124526D01*
X218715255Y-98238600D01*
X219084745Y-98238600D01*
X219658234Y-98124526D01*
X220144415Y-97799670D01*
X220469271Y-97313489D01*
X220583345Y-96740000D01*
X220469271Y-96166511D01*
X220144415Y-95680330D01*
X219829634Y-95470000D01*
X220144415Y-95259670D01*
X220469271Y-94773489D01*
X220583345Y-94200000D01*
X220469271Y-93626511D01*
X220144415Y-93140330D01*
X220122220Y-93125500D01*
X220275698Y-93061927D01*
X220454327Y-92883299D01*
X220551000Y-92649910D01*
X220551000Y-91945750D01*
X220392250Y-91787000D01*
X219027000Y-91787000D01*
X219027000Y-91807000D01*
X218773000Y-91807000D01*
X218773000Y-91787000D01*
X217407750Y-91787000D01*
X217249000Y-91945750D01*
X217249000Y-92649910D01*
X217345673Y-92883299D01*
X217524302Y-93061927D01*
X217677780Y-93125500D01*
X217655585Y-93140330D01*
X217330729Y-93626511D01*
X217216655Y-94200000D01*
X210627000Y-94200000D01*
X210616994Y-94150590D01*
X210588553Y-94108965D01*
X210546159Y-94081685D01*
X210500000Y-94073000D01*
X200627000Y-94073000D01*
X200627000Y-90670090D01*
X217249000Y-90670090D01*
X217249000Y-91374250D01*
X217407750Y-91533000D01*
X218773000Y-91533000D01*
X218773000Y-90320150D01*
X219027000Y-90320150D01*
X219027000Y-91533000D01*
X220392250Y-91533000D01*
X220551000Y-91374250D01*
X220551000Y-90670090D01*
X220454327Y-90436701D01*
X220275698Y-90258073D01*
X220042309Y-90161400D01*
X219185750Y-90161400D01*
X219027000Y-90320150D01*
X218773000Y-90320150D01*
X218614250Y-90161400D01*
X217757691Y-90161400D01*
X217524302Y-90258073D01*
X217345673Y-90436701D01*
X217249000Y-90670090D01*
X200627000Y-90670090D01*
X200627000Y-81085750D01*
X202915000Y-81085750D01*
X202915000Y-83676309D01*
X203011673Y-83909698D01*
X203190301Y-84088327D01*
X203423690Y-84185000D01*
X208264250Y-84185000D01*
X208423000Y-84026250D01*
X208423000Y-80927000D01*
X208677000Y-80927000D01*
X208677000Y-84026250D01*
X208835750Y-84185000D01*
X213676310Y-84185000D01*
X213909699Y-84088327D01*
X214088327Y-83909698D01*
X214185000Y-83676309D01*
X214185000Y-81085750D01*
X214026250Y-80927000D01*
X208677000Y-80927000D01*
X208423000Y-80927000D01*
X203073750Y-80927000D01*
X202915000Y-81085750D01*
X200627000Y-81085750D01*
X200627000Y-77877000D01*
X202934340Y-77877000D01*
X202915000Y-77923691D01*
X202915000Y-80514250D01*
X203073750Y-80673000D01*
X208423000Y-80673000D01*
X208423000Y-80653000D01*
X208677000Y-80653000D01*
X208677000Y-80673000D01*
X214026250Y-80673000D01*
X214185000Y-80514250D01*
X214185000Y-77923691D01*
X214165660Y-77877000D01*
X215000000Y-77877000D01*
X215049410Y-77866994D01*
X215091035Y-77838553D01*
X215118315Y-77796159D01*
X215127000Y-77750000D01*
X215127000Y-70000000D01*
X215116994Y-69950590D01*
X215088553Y-69908965D01*
X215046159Y-69881685D01*
X215000000Y-69873000D01*
X201627000Y-69873000D01*
X201627000Y-64250000D01*
X201616994Y-64200590D01*
X201588553Y-64158965D01*
X201546159Y-64131685D01*
X201500000Y-64123000D01*
X179627000Y-64123000D01*
X179627000Y-61115660D01*
X179673691Y-61135000D01*
X181014250Y-61135000D01*
X181173000Y-60976250D01*
X181173000Y-55627000D01*
X181427000Y-55627000D01*
X181427000Y-60976250D01*
X181585750Y-61135000D01*
X182926309Y-61135000D01*
X183159698Y-61038327D01*
X183338327Y-60859699D01*
X183435000Y-60626310D01*
X183435000Y-55785750D01*
X183276250Y-55627000D01*
X181427000Y-55627000D01*
X181173000Y-55627000D01*
X181153000Y-55627000D01*
X181153000Y-55373000D01*
X181173000Y-55373000D01*
X181173000Y-55353000D01*
X181427000Y-55353000D01*
X181427000Y-55373000D01*
X183276250Y-55373000D01*
X183435000Y-55214250D01*
X183435000Y-52127000D01*
X183852198Y-52127000D01*
X184212599Y-52487401D01*
X184459161Y-52652148D01*
X184750000Y-52710000D01*
X188094791Y-52710000D01*
X188148110Y-52746431D01*
X188400000Y-52797440D01*
X189000000Y-52797440D01*
X189235317Y-52753162D01*
X189451441Y-52614090D01*
X189596431Y-52401890D01*
X189647440Y-52150000D01*
X189647440Y-52127000D01*
X200500000Y-52127000D01*
X200549410Y-52116994D01*
X200591035Y-52088553D01*
X200618315Y-52046159D01*
X200627000Y-52000000D01*
X200627000Y-51525025D01*
X200690302Y-51588327D01*
X200923691Y-51685000D01*
X203514250Y-51685000D01*
X203673000Y-51526250D01*
X203673000Y-46177000D01*
X203927000Y-46177000D01*
X203927000Y-51526250D01*
X204085750Y-51685000D01*
X206676309Y-51685000D01*
X206909698Y-51588327D01*
X207088327Y-51409699D01*
X207185000Y-51176310D01*
X207185000Y-47760000D01*
X215716655Y-47760000D01*
X215830729Y-48333489D01*
X216155585Y-48819670D01*
X216470366Y-49030000D01*
X216155585Y-49240330D01*
X215830729Y-49726511D01*
X215716655Y-50300000D01*
X215830729Y-50873489D01*
X216155585Y-51359670D01*
X216470366Y-51570000D01*
X216155585Y-51780330D01*
X215830729Y-52266511D01*
X215716655Y-52840000D01*
X215830729Y-53413489D01*
X216155585Y-53899670D01*
X216470366Y-54110000D01*
X216155585Y-54320330D01*
X215830729Y-54806511D01*
X215716655Y-55380000D01*
X215830729Y-55953489D01*
X216155585Y-56439670D01*
X216470366Y-56650000D01*
X216155585Y-56860330D01*
X215830729Y-57346511D01*
X215716655Y-57920000D01*
X215830729Y-58493489D01*
X216155585Y-58979670D01*
X216470366Y-59190000D01*
X216155585Y-59400330D01*
X215830729Y-59886511D01*
X215716655Y-60460000D01*
X215830729Y-61033489D01*
X216155585Y-61519670D01*
X216641766Y-61844526D01*
X217215255Y-61958600D01*
X217584745Y-61958600D01*
X218158234Y-61844526D01*
X218644415Y-61519670D01*
X218969271Y-61033489D01*
X219083345Y-60460000D01*
X218969271Y-59886511D01*
X218644415Y-59400330D01*
X218329634Y-59190000D01*
X218644415Y-58979670D01*
X218969271Y-58493489D01*
X219083345Y-57920000D01*
X218969271Y-57346511D01*
X218644415Y-56860330D01*
X218329634Y-56650000D01*
X218644415Y-56439670D01*
X218969271Y-55953489D01*
X219083345Y-55380000D01*
X218969271Y-54806511D01*
X218644415Y-54320330D01*
X218329634Y-54110000D01*
X218644415Y-53899670D01*
X218969271Y-53413489D01*
X219083345Y-52840000D01*
X218969271Y-52266511D01*
X218644415Y-51780330D01*
X218329634Y-51570000D01*
X218644415Y-51359670D01*
X218969271Y-50873489D01*
X219083345Y-50300000D01*
X218969271Y-49726511D01*
X218644415Y-49240330D01*
X218329634Y-49030000D01*
X218644415Y-48819670D01*
X218969271Y-48333489D01*
X219083345Y-47760000D01*
X218969271Y-47186511D01*
X218644415Y-46700330D01*
X218622220Y-46685500D01*
X218775698Y-46621927D01*
X218954327Y-46443299D01*
X219051000Y-46209910D01*
X219051000Y-45505750D01*
X218892250Y-45347000D01*
X217527000Y-45347000D01*
X217527000Y-45367000D01*
X217273000Y-45367000D01*
X217273000Y-45347000D01*
X215907750Y-45347000D01*
X215749000Y-45505750D01*
X215749000Y-46209910D01*
X215845673Y-46443299D01*
X216024302Y-46621927D01*
X216177780Y-46685500D01*
X216155585Y-46700330D01*
X215830729Y-47186511D01*
X215716655Y-47760000D01*
X207185000Y-47760000D01*
X207185000Y-46335750D01*
X207026250Y-46177000D01*
X203927000Y-46177000D01*
X203673000Y-46177000D01*
X203653000Y-46177000D01*
X203653000Y-45923000D01*
X203673000Y-45923000D01*
X203673000Y-40573750D01*
X203927000Y-40573750D01*
X203927000Y-45923000D01*
X207026250Y-45923000D01*
X207185000Y-45764250D01*
X207185000Y-44230090D01*
X215749000Y-44230090D01*
X215749000Y-44934250D01*
X215907750Y-45093000D01*
X217273000Y-45093000D01*
X217273000Y-43880150D01*
X217527000Y-43880150D01*
X217527000Y-45093000D01*
X218892250Y-45093000D01*
X219051000Y-44934250D01*
X219051000Y-44230090D01*
X218954327Y-43996701D01*
X218775698Y-43818073D01*
X218542309Y-43721400D01*
X217685750Y-43721400D01*
X217527000Y-43880150D01*
X217273000Y-43880150D01*
X217114250Y-43721400D01*
X216257691Y-43721400D01*
X216024302Y-43818073D01*
X215845673Y-43996701D01*
X215749000Y-44230090D01*
X207185000Y-44230090D01*
X207185000Y-40923690D01*
X207088327Y-40690301D01*
X206909698Y-40511673D01*
X206676309Y-40415000D01*
X204085750Y-40415000D01*
X203927000Y-40573750D01*
X203673000Y-40573750D01*
X203514250Y-40415000D01*
X200923691Y-40415000D01*
X200690302Y-40511673D01*
X200627000Y-40574975D01*
X200627000Y-40377000D01*
X221373000Y-40377000D01*
X221373000Y-152623000D01*
X221373000Y-152623000D01*
G37*
X221373000Y-152623000D02*
X201528982Y-152623000D01*
X194805095Y-149385573D01*
X194750000Y-149373000D01*
X116000000Y-149373000D01*
X115944905Y-149385573D01*
X109393403Y-152540000D01*
X89710000Y-152540000D01*
X89710000Y-146085750D01*
X96665000Y-146085750D01*
X96665000Y-148676309D01*
X96761673Y-148909698D01*
X96940301Y-149088327D01*
X97173690Y-149185000D01*
X102014250Y-149185000D01*
X102173000Y-149026250D01*
X102173000Y-145927000D01*
X102427000Y-145927000D01*
X102427000Y-149026250D01*
X102585750Y-149185000D01*
X107426310Y-149185000D01*
X107659699Y-149088327D01*
X107838327Y-148909698D01*
X107935000Y-148676309D01*
X107935000Y-146085750D01*
X202915000Y-146085750D01*
X202915000Y-148676309D01*
X203011673Y-148909698D01*
X203190301Y-149088327D01*
X203423690Y-149185000D01*
X208264250Y-149185000D01*
X208423000Y-149026250D01*
X208423000Y-145927000D01*
X208677000Y-145927000D01*
X208677000Y-149026250D01*
X208835750Y-149185000D01*
X213676310Y-149185000D01*
X213909699Y-149088327D01*
X214088327Y-148909698D01*
X214185000Y-148676309D01*
X214185000Y-146085750D01*
X214026250Y-145927000D01*
X208677000Y-145927000D01*
X208423000Y-145927000D01*
X203073750Y-145927000D01*
X202915000Y-146085750D01*
X107935000Y-146085750D01*
X107776250Y-145927000D01*
X102427000Y-145927000D01*
X102173000Y-145927000D01*
X96823750Y-145927000D01*
X96665000Y-146085750D01*
X89710000Y-146085750D01*
X89710000Y-143377000D01*
X96665000Y-143377000D01*
X96665000Y-145514250D01*
X96823750Y-145673000D01*
X102173000Y-145673000D01*
X102173000Y-145653000D01*
X102427000Y-145653000D01*
X102427000Y-145673000D01*
X107776250Y-145673000D01*
X107935000Y-145514250D01*
X107935000Y-143377000D01*
X200750000Y-143377000D01*
X200799410Y-143366994D01*
X200841035Y-143338553D01*
X200868315Y-143296159D01*
X200877000Y-143250000D01*
X200877000Y-142627000D01*
X203074975Y-142627000D01*
X203011673Y-142690302D01*
X202915000Y-142923691D01*
X202915000Y-145514250D01*
X203073750Y-145673000D01*
X208423000Y-145673000D01*
X208423000Y-145653000D01*
X208677000Y-145653000D01*
X208677000Y-145673000D01*
X214026250Y-145673000D01*
X214185000Y-145514250D01*
X214185000Y-142923691D01*
X214088327Y-142690302D01*
X214025025Y-142627000D01*
X215000000Y-142627000D01*
X215049410Y-142616994D01*
X215091035Y-142588553D01*
X215118315Y-142546159D01*
X215127000Y-142500000D01*
X215127000Y-133750000D01*
X215116994Y-133700590D01*
X215088553Y-133658965D01*
X215046159Y-133631685D01*
X215000000Y-133623000D01*
X210627000Y-133623000D01*
X210627000Y-124750000D01*
X210616994Y-124700590D01*
X210588553Y-124658965D01*
X210546159Y-124631685D01*
X210500000Y-124623000D01*
X204951000Y-124623000D01*
X204951000Y-123835750D01*
X204792250Y-123677000D01*
X203427000Y-123677000D01*
X203427000Y-123697000D01*
X203173000Y-123697000D01*
X203173000Y-123677000D01*
X201807750Y-123677000D01*
X201649000Y-123835750D01*
X201649000Y-124623000D01*
X198877000Y-124623000D01*
X198877000Y-122407690D01*
X201649000Y-122407690D01*
X201649000Y-123264250D01*
X201807750Y-123423000D01*
X203173000Y-123423000D01*
X203173000Y-122057750D01*
X203427000Y-122057750D01*
X203427000Y-123423000D01*
X204792250Y-123423000D01*
X204951000Y-123264250D01*
X204951000Y-123260000D01*
X217316655Y-123260000D01*
X217430729Y-123833489D01*
X217755585Y-124319670D01*
X218070366Y-124530000D01*
X217755585Y-124740330D01*
X217430729Y-125226511D01*
X217316655Y-125800000D01*
X217430729Y-126373489D01*
X217755585Y-126859670D01*
X218241766Y-127184526D01*
X218815255Y-127298600D01*
X219184745Y-127298600D01*
X219758234Y-127184526D01*
X220244415Y-126859670D01*
X220569271Y-126373489D01*
X220683345Y-125800000D01*
X220569271Y-125226511D01*
X220244415Y-124740330D01*
X219929634Y-124530000D01*
X220244415Y-124319670D01*
X220569271Y-123833489D01*
X220683345Y-123260000D01*
X220569271Y-122686511D01*
X220244415Y-122200330D01*
X220222220Y-122185500D01*
X220375698Y-122121927D01*
X220554327Y-121943299D01*
X220651000Y-121709910D01*
X220651000Y-121005750D01*
X220492250Y-120847000D01*
X219127000Y-120847000D01*
X219127000Y-120867000D01*
X218873000Y-120867000D01*
X218873000Y-120847000D01*
X217507750Y-120847000D01*
X217349000Y-121005750D01*
X217349000Y-121709910D01*
X217445673Y-121943299D01*
X217624302Y-122121927D01*
X217777780Y-122185500D01*
X217755585Y-122200330D01*
X217430729Y-122686511D01*
X217316655Y-123260000D01*
X204951000Y-123260000D01*
X204951000Y-122407690D01*
X204854327Y-122174301D01*
X204675698Y-121995673D01*
X204442309Y-121899000D01*
X203585750Y-121899000D01*
X203427000Y-122057750D01*
X203173000Y-122057750D01*
X203014250Y-121899000D01*
X202157691Y-121899000D01*
X201924302Y-121995673D01*
X201745673Y-122174301D01*
X201649000Y-122407690D01*
X198877000Y-122407690D01*
X198877000Y-121377000D01*
X210500000Y-121377000D01*
X210549410Y-121366994D01*
X210591035Y-121338553D01*
X210618315Y-121296159D01*
X210627000Y-121250000D01*
X210627000Y-119730090D01*
X217349000Y-119730090D01*
X217349000Y-120434250D01*
X217507750Y-120593000D01*
X218873000Y-120593000D01*
X218873000Y-119380150D01*
X219127000Y-119380150D01*
X219127000Y-120593000D01*
X220492250Y-120593000D01*
X220651000Y-120434250D01*
X220651000Y-119730090D01*
X220554327Y-119496701D01*
X220375698Y-119318073D01*
X220142309Y-119221400D01*
X219285750Y-119221400D01*
X219127000Y-119380150D01*
X218873000Y-119380150D01*
X218714250Y-119221400D01*
X217857691Y-119221400D01*
X217624302Y-119318073D01*
X217445673Y-119496701D01*
X217349000Y-119730090D01*
X210627000Y-119730090D01*
X210627000Y-94200000D01*
X217216655Y-94200000D01*
X217330729Y-94773489D01*
X217655585Y-95259670D01*
X217970366Y-95470000D01*
X217655585Y-95680330D01*
X217330729Y-96166511D01*
X217216655Y-96740000D01*
X217330729Y-97313489D01*
X217655585Y-97799670D01*
X218141766Y-98124526D01*
X218715255Y-98238600D01*
X219084745Y-98238600D01*
X219658234Y-98124526D01*
X220144415Y-97799670D01*
X220469271Y-97313489D01*
X220583345Y-96740000D01*
X220469271Y-96166511D01*
X220144415Y-95680330D01*
X219829634Y-95470000D01*
X220144415Y-95259670D01*
X220469271Y-94773489D01*
X220583345Y-94200000D01*
X220469271Y-93626511D01*
X220144415Y-93140330D01*
X220122220Y-93125500D01*
X220275698Y-93061927D01*
X220454327Y-92883299D01*
X220551000Y-92649910D01*
X220551000Y-91945750D01*
X220392250Y-91787000D01*
X219027000Y-91787000D01*
X219027000Y-91807000D01*
X218773000Y-91807000D01*
X218773000Y-91787000D01*
X217407750Y-91787000D01*
X217249000Y-91945750D01*
X217249000Y-92649910D01*
X217345673Y-92883299D01*
X217524302Y-93061927D01*
X217677780Y-93125500D01*
X217655585Y-93140330D01*
X217330729Y-93626511D01*
X217216655Y-94200000D01*
X210627000Y-94200000D01*
X210616994Y-94150590D01*
X210588553Y-94108965D01*
X210546159Y-94081685D01*
X210500000Y-94073000D01*
X200627000Y-94073000D01*
X200627000Y-90670090D01*
X217249000Y-90670090D01*
X217249000Y-91374250D01*
X217407750Y-91533000D01*
X218773000Y-91533000D01*
X218773000Y-90320150D01*
X219027000Y-90320150D01*
X219027000Y-91533000D01*
X220392250Y-91533000D01*
X220551000Y-91374250D01*
X220551000Y-90670090D01*
X220454327Y-90436701D01*
X220275698Y-90258073D01*
X220042309Y-90161400D01*
X219185750Y-90161400D01*
X219027000Y-90320150D01*
X218773000Y-90320150D01*
X218614250Y-90161400D01*
X217757691Y-90161400D01*
X217524302Y-90258073D01*
X217345673Y-90436701D01*
X217249000Y-90670090D01*
X200627000Y-90670090D01*
X200627000Y-81085750D01*
X202915000Y-81085750D01*
X202915000Y-83676309D01*
X203011673Y-83909698D01*
X203190301Y-84088327D01*
X203423690Y-84185000D01*
X208264250Y-84185000D01*
X208423000Y-84026250D01*
X208423000Y-80927000D01*
X208677000Y-80927000D01*
X208677000Y-84026250D01*
X208835750Y-84185000D01*
X213676310Y-84185000D01*
X213909699Y-84088327D01*
X214088327Y-83909698D01*
X214185000Y-83676309D01*
X214185000Y-81085750D01*
X214026250Y-80927000D01*
X208677000Y-80927000D01*
X208423000Y-80927000D01*
X203073750Y-80927000D01*
X202915000Y-81085750D01*
X200627000Y-81085750D01*
X200627000Y-77877000D01*
X202934340Y-77877000D01*
X202915000Y-77923691D01*
X202915000Y-80514250D01*
X203073750Y-80673000D01*
X208423000Y-80673000D01*
X208423000Y-80653000D01*
X208677000Y-80653000D01*
X208677000Y-80673000D01*
X214026250Y-80673000D01*
X214185000Y-80514250D01*
X214185000Y-77923691D01*
X214165660Y-77877000D01*
X215000000Y-77877000D01*
X215049410Y-77866994D01*
X215091035Y-77838553D01*
X215118315Y-77796159D01*
X215127000Y-77750000D01*
X215127000Y-70000000D01*
X215116994Y-69950590D01*
X215088553Y-69908965D01*
X215046159Y-69881685D01*
X215000000Y-69873000D01*
X201627000Y-69873000D01*
X201627000Y-64250000D01*
X201616994Y-64200590D01*
X201588553Y-64158965D01*
X201546159Y-64131685D01*
X201500000Y-64123000D01*
X179627000Y-64123000D01*
X179627000Y-61115660D01*
X179673691Y-61135000D01*
X181014250Y-61135000D01*
X181173000Y-60976250D01*
X181173000Y-55627000D01*
X181427000Y-55627000D01*
X181427000Y-60976250D01*
X181585750Y-61135000D01*
X182926309Y-61135000D01*
X183159698Y-61038327D01*
X183338327Y-60859699D01*
X183435000Y-60626310D01*
X183435000Y-55785750D01*
X183276250Y-55627000D01*
X181427000Y-55627000D01*
X181173000Y-55627000D01*
X181153000Y-55627000D01*
X181153000Y-55373000D01*
X181173000Y-55373000D01*
X181173000Y-55353000D01*
X181427000Y-55353000D01*
X181427000Y-55373000D01*
X183276250Y-55373000D01*
X183435000Y-55214250D01*
X183435000Y-52127000D01*
X183852198Y-52127000D01*
X184212599Y-52487401D01*
X184459161Y-52652148D01*
X184750000Y-52710000D01*
X188094791Y-52710000D01*
X188148110Y-52746431D01*
X188400000Y-52797440D01*
X189000000Y-52797440D01*
X189235317Y-52753162D01*
X189451441Y-52614090D01*
X189596431Y-52401890D01*
X189647440Y-52150000D01*
X189647440Y-52127000D01*
X200500000Y-52127000D01*
X200549410Y-52116994D01*
X200591035Y-52088553D01*
X200618315Y-52046159D01*
X200627000Y-52000000D01*
X200627000Y-51525025D01*
X200690302Y-51588327D01*
X200923691Y-51685000D01*
X203514250Y-51685000D01*
X203673000Y-51526250D01*
X203673000Y-46177000D01*
X203927000Y-46177000D01*
X203927000Y-51526250D01*
X204085750Y-51685000D01*
X206676309Y-51685000D01*
X206909698Y-51588327D01*
X207088327Y-51409699D01*
X207185000Y-51176310D01*
X207185000Y-47760000D01*
X215716655Y-47760000D01*
X215830729Y-48333489D01*
X216155585Y-48819670D01*
X216470366Y-49030000D01*
X216155585Y-49240330D01*
X215830729Y-49726511D01*
X215716655Y-50300000D01*
X215830729Y-50873489D01*
X216155585Y-51359670D01*
X216470366Y-51570000D01*
X216155585Y-51780330D01*
X215830729Y-52266511D01*
X215716655Y-52840000D01*
X215830729Y-53413489D01*
X216155585Y-53899670D01*
X216470366Y-54110000D01*
X216155585Y-54320330D01*
X215830729Y-54806511D01*
X215716655Y-55380000D01*
X215830729Y-55953489D01*
X216155585Y-56439670D01*
X216470366Y-56650000D01*
X216155585Y-56860330D01*
X215830729Y-57346511D01*
X215716655Y-57920000D01*
X215830729Y-58493489D01*
X216155585Y-58979670D01*
X216470366Y-59190000D01*
X216155585Y-59400330D01*
X215830729Y-59886511D01*
X215716655Y-60460000D01*
X215830729Y-61033489D01*
X216155585Y-61519670D01*
X216641766Y-61844526D01*
X217215255Y-61958600D01*
X217584745Y-61958600D01*
X218158234Y-61844526D01*
X218644415Y-61519670D01*
X218969271Y-61033489D01*
X219083345Y-60460000D01*
X218969271Y-59886511D01*
X218644415Y-59400330D01*
X218329634Y-59190000D01*
X218644415Y-58979670D01*
X218969271Y-58493489D01*
X219083345Y-57920000D01*
X218969271Y-57346511D01*
X218644415Y-56860330D01*
X218329634Y-56650000D01*
X218644415Y-56439670D01*
X218969271Y-55953489D01*
X219083345Y-55380000D01*
X218969271Y-54806511D01*
X218644415Y-54320330D01*
X218329634Y-54110000D01*
X218644415Y-53899670D01*
X218969271Y-53413489D01*
X219083345Y-52840000D01*
X218969271Y-52266511D01*
X218644415Y-51780330D01*
X218329634Y-51570000D01*
X218644415Y-51359670D01*
X218969271Y-50873489D01*
X219083345Y-50300000D01*
X218969271Y-49726511D01*
X218644415Y-49240330D01*
X218329634Y-49030000D01*
X218644415Y-48819670D01*
X218969271Y-48333489D01*
X219083345Y-47760000D01*
X218969271Y-47186511D01*
X218644415Y-46700330D01*
X218622220Y-46685500D01*
X218775698Y-46621927D01*
X218954327Y-46443299D01*
X219051000Y-46209910D01*
X219051000Y-45505750D01*
X218892250Y-45347000D01*
X217527000Y-45347000D01*
X217527000Y-45367000D01*
X217273000Y-45367000D01*
X217273000Y-45347000D01*
X215907750Y-45347000D01*
X215749000Y-45505750D01*
X215749000Y-46209910D01*
X215845673Y-46443299D01*
X216024302Y-46621927D01*
X216177780Y-46685500D01*
X216155585Y-46700330D01*
X215830729Y-47186511D01*
X215716655Y-47760000D01*
X207185000Y-47760000D01*
X207185000Y-46335750D01*
X207026250Y-46177000D01*
X203927000Y-46177000D01*
X203673000Y-46177000D01*
X203653000Y-46177000D01*
X203653000Y-45923000D01*
X203673000Y-45923000D01*
X203673000Y-40573750D01*
X203927000Y-40573750D01*
X203927000Y-45923000D01*
X207026250Y-45923000D01*
X207185000Y-45764250D01*
X207185000Y-44230090D01*
X215749000Y-44230090D01*
X215749000Y-44934250D01*
X215907750Y-45093000D01*
X217273000Y-45093000D01*
X217273000Y-43880150D01*
X217527000Y-43880150D01*
X217527000Y-45093000D01*
X218892250Y-45093000D01*
X219051000Y-44934250D01*
X219051000Y-44230090D01*
X218954327Y-43996701D01*
X218775698Y-43818073D01*
X218542309Y-43721400D01*
X217685750Y-43721400D01*
X217527000Y-43880150D01*
X217273000Y-43880150D01*
X217114250Y-43721400D01*
X216257691Y-43721400D01*
X216024302Y-43818073D01*
X215845673Y-43996701D01*
X215749000Y-44230090D01*
X207185000Y-44230090D01*
X207185000Y-40923690D01*
X207088327Y-40690301D01*
X206909698Y-40511673D01*
X206676309Y-40415000D01*
X204085750Y-40415000D01*
X203927000Y-40573750D01*
X203673000Y-40573750D01*
X203514250Y-40415000D01*
X200923691Y-40415000D01*
X200690302Y-40511673D01*
X200627000Y-40574975D01*
X200627000Y-40377000D01*
X221373000Y-40377000D01*
X221373000Y-152623000D01*
G36*
X113773000Y-42205408D02*
X113630403Y-42149202D01*
X112599605Y-43180000D01*
X113630403Y-44210798D01*
X113773000Y-44154592D01*
X113773000Y-45373000D01*
X109750000Y-45373000D01*
X109700590Y-45383006D01*
X109658965Y-45411447D01*
X109631685Y-45453841D01*
X109623000Y-45500000D01*
X109623000Y-67623000D01*
X96250000Y-67623000D01*
X96200590Y-67633006D01*
X96158965Y-67661447D01*
X96131685Y-67703841D01*
X96123000Y-67750000D01*
X96123000Y-77750000D01*
X96133006Y-77799410D01*
X96161447Y-77841035D01*
X96203841Y-77868315D01*
X96250000Y-77877000D01*
X96684340Y-77877000D01*
X96665000Y-77923691D01*
X96665000Y-80514250D01*
X96823750Y-80673000D01*
X102173000Y-80673000D01*
X102173000Y-80653000D01*
X102427000Y-80653000D01*
X102427000Y-80673000D01*
X107776250Y-80673000D01*
X107935000Y-80514250D01*
X107935000Y-77923691D01*
X107915660Y-77877000D01*
X108873000Y-77877000D01*
X108873000Y-108873000D01*
X99750000Y-108873000D01*
X99700590Y-108883006D01*
X99658965Y-108911447D01*
X99631685Y-108953841D01*
X99623000Y-109000000D01*
X99623000Y-134873000D01*
X96500000Y-134873000D01*
X96450590Y-134883006D01*
X96408965Y-134911447D01*
X96381685Y-134953841D01*
X96373000Y-135000000D01*
X96373000Y-142800000D01*
X96383006Y-142849410D01*
X96411447Y-142891035D01*
X96453841Y-142918315D01*
X96500000Y-142927000D01*
X96665000Y-142927000D01*
X96665000Y-145514250D01*
X96823750Y-145673000D01*
X102173000Y-145673000D01*
X102173000Y-145653000D01*
X102427000Y-145653000D01*
X102427000Y-145673000D01*
X102447000Y-145673000D01*
X102447000Y-145927000D01*
X102427000Y-145927000D01*
X102427000Y-149026250D01*
X102585750Y-149185000D01*
X107426310Y-149185000D01*
X107659699Y-149088327D01*
X107673000Y-149075026D01*
X107673000Y-149397826D01*
X89710000Y-149373286D01*
X89710000Y-146085750D01*
X96665000Y-146085750D01*
X96665000Y-148676309D01*
X96761673Y-148909698D01*
X96940301Y-149088327D01*
X97173690Y-149185000D01*
X102014250Y-149185000D01*
X102173000Y-149026250D01*
X102173000Y-145927000D01*
X96823750Y-145927000D01*
X96665000Y-146085750D01*
X89710000Y-146085750D01*
X89710000Y-123100000D01*
X90216655Y-123100000D01*
X90330729Y-123673489D01*
X90655585Y-124159670D01*
X90970366Y-124370000D01*
X90655585Y-124580330D01*
X90330729Y-125066511D01*
X90216655Y-125640000D01*
X90330729Y-126213489D01*
X90655585Y-126699670D01*
X91141766Y-127024526D01*
X91715255Y-127138600D01*
X92084745Y-127138600D01*
X92658234Y-127024526D01*
X93144415Y-126699670D01*
X93469271Y-126213489D01*
X93583345Y-125640000D01*
X93469271Y-125066511D01*
X93144415Y-124580330D01*
X92829634Y-124370000D01*
X93144415Y-124159670D01*
X93469271Y-123673489D01*
X93583345Y-123100000D01*
X93469271Y-122526511D01*
X93144415Y-122040330D01*
X93122220Y-122025500D01*
X93275698Y-121961927D01*
X93454327Y-121783299D01*
X93551000Y-121549910D01*
X93551000Y-120845750D01*
X93392250Y-120687000D01*
X92027000Y-120687000D01*
X92027000Y-120707000D01*
X91773000Y-120707000D01*
X91773000Y-120687000D01*
X90407750Y-120687000D01*
X90249000Y-120845750D01*
X90249000Y-121549910D01*
X90345673Y-121783299D01*
X90524302Y-121961927D01*
X90677780Y-122025500D01*
X90655585Y-122040330D01*
X90330729Y-122526511D01*
X90216655Y-123100000D01*
X89710000Y-123100000D01*
X89710000Y-119570090D01*
X90249000Y-119570090D01*
X90249000Y-120274250D01*
X90407750Y-120433000D01*
X91773000Y-120433000D01*
X91773000Y-119220150D01*
X92027000Y-119220150D01*
X92027000Y-120433000D01*
X93392250Y-120433000D01*
X93551000Y-120274250D01*
X93551000Y-119570090D01*
X93454327Y-119336701D01*
X93275698Y-119158073D01*
X93042309Y-119061400D01*
X92185750Y-119061400D01*
X92027000Y-119220150D01*
X91773000Y-119220150D01*
X91614250Y-119061400D01*
X90757691Y-119061400D01*
X90524302Y-119158073D01*
X90345673Y-119336701D01*
X90249000Y-119570090D01*
X89710000Y-119570090D01*
X89710000Y-109294092D01*
X93802046Y-105202046D01*
X93955954Y-104971705D01*
X94010000Y-104700000D01*
X94010000Y-93200000D01*
X94616655Y-93200000D01*
X94730729Y-93773489D01*
X95055585Y-94259670D01*
X95370366Y-94470000D01*
X95055585Y-94680330D01*
X94730729Y-95166511D01*
X94616655Y-95740000D01*
X94730729Y-96313489D01*
X95055585Y-96799670D01*
X95541766Y-97124526D01*
X96115255Y-97238600D01*
X96484745Y-97238600D01*
X97058234Y-97124526D01*
X97544415Y-96799670D01*
X97869271Y-96313489D01*
X97983345Y-95740000D01*
X97869271Y-95166511D01*
X97544415Y-94680330D01*
X97229634Y-94470000D01*
X97544415Y-94259670D01*
X97869271Y-93773489D01*
X97983345Y-93200000D01*
X97869271Y-92626511D01*
X97544415Y-92140330D01*
X97522220Y-92125500D01*
X97675698Y-92061927D01*
X97854327Y-91883299D01*
X97951000Y-91649910D01*
X97951000Y-90945750D01*
X97792250Y-90787000D01*
X96427000Y-90787000D01*
X96427000Y-90807000D01*
X96173000Y-90807000D01*
X96173000Y-90787000D01*
X94807750Y-90787000D01*
X94649000Y-90945750D01*
X94649000Y-91649910D01*
X94745673Y-91883299D01*
X94924302Y-92061927D01*
X95077780Y-92125500D01*
X95055585Y-92140330D01*
X94730729Y-92626511D01*
X94616655Y-93200000D01*
X94010000Y-93200000D01*
X94010000Y-89670090D01*
X94649000Y-89670090D01*
X94649000Y-90374250D01*
X94807750Y-90533000D01*
X96173000Y-90533000D01*
X96173000Y-89320150D01*
X96427000Y-89320150D01*
X96427000Y-90533000D01*
X97792250Y-90533000D01*
X97951000Y-90374250D01*
X97951000Y-89670090D01*
X97854327Y-89436701D01*
X97675698Y-89258073D01*
X97442309Y-89161400D01*
X96585750Y-89161400D01*
X96427000Y-89320150D01*
X96173000Y-89320150D01*
X96014250Y-89161400D01*
X95157691Y-89161400D01*
X94924302Y-89258073D01*
X94745673Y-89436701D01*
X94649000Y-89670090D01*
X94010000Y-89670090D01*
X94010000Y-81085750D01*
X96665000Y-81085750D01*
X96665000Y-83676309D01*
X96761673Y-83909698D01*
X96940301Y-84088327D01*
X97173690Y-84185000D01*
X102014250Y-84185000D01*
X102173000Y-84026250D01*
X102173000Y-80927000D01*
X102427000Y-80927000D01*
X102427000Y-84026250D01*
X102585750Y-84185000D01*
X107426310Y-84185000D01*
X107659699Y-84088327D01*
X107838327Y-83909698D01*
X107935000Y-83676309D01*
X107935000Y-81085750D01*
X107776250Y-80927000D01*
X102427000Y-80927000D01*
X102173000Y-80927000D01*
X96823750Y-80927000D01*
X96665000Y-81085750D01*
X94010000Y-81085750D01*
X94010000Y-69000000D01*
X93955954Y-68728295D01*
X93877000Y-68610131D01*
X93877000Y-68500000D01*
X93866994Y-68450590D01*
X93838553Y-68408965D01*
X93796159Y-68381685D01*
X93750000Y-68373000D01*
X93615038Y-68373000D01*
X93571705Y-68344046D01*
X93300000Y-68290000D01*
X86377000Y-68290000D01*
X86377000Y-65875750D01*
X86899000Y-65875750D01*
X86899000Y-66732310D01*
X86995673Y-66965699D01*
X87174302Y-67144327D01*
X87407691Y-67241000D01*
X88264250Y-67241000D01*
X88423000Y-67082250D01*
X88423000Y-65717000D01*
X88677000Y-65717000D01*
X88677000Y-67082250D01*
X88835750Y-67241000D01*
X89692309Y-67241000D01*
X89925698Y-67144327D01*
X90104327Y-66965699D01*
X90201000Y-66732310D01*
X90201000Y-65875750D01*
X90042250Y-65717000D01*
X88677000Y-65717000D01*
X88423000Y-65717000D01*
X87057750Y-65717000D01*
X86899000Y-65875750D01*
X86377000Y-65875750D01*
X86377000Y-64627000D01*
X86899000Y-64627000D01*
X86899000Y-65304250D01*
X87057750Y-65463000D01*
X88423000Y-65463000D01*
X88423000Y-65443000D01*
X88677000Y-65443000D01*
X88677000Y-65463000D01*
X90042250Y-65463000D01*
X90201000Y-65304250D01*
X90201000Y-64627000D01*
X91100000Y-64627000D01*
X91149410Y-64616994D01*
X91191035Y-64588553D01*
X91218315Y-64546159D01*
X91227000Y-64500000D01*
X91227000Y-60700000D01*
X91216994Y-60650590D01*
X91189803Y-60610197D01*
X88189803Y-57610197D01*
X88147789Y-57582334D01*
X88100000Y-57573000D01*
X87803306Y-57573000D01*
X87690839Y-57497852D01*
X87400000Y-57440000D01*
X80809669Y-57440000D01*
X77460000Y-54276424D01*
X77460000Y-54099016D01*
X78080590Y-54099016D01*
X78136271Y-54329611D01*
X78619078Y-54497622D01*
X79129428Y-54468083D01*
X79463729Y-54329611D01*
X79519410Y-54099016D01*
X78800000Y-53379605D01*
X78080590Y-54099016D01*
X77460000Y-54099016D01*
X77460000Y-52860000D01*
X77557735Y-52860000D01*
X77502378Y-53019078D01*
X77531917Y-53529428D01*
X77670389Y-53863729D01*
X77900984Y-53919410D01*
X78620395Y-53200000D01*
X78606253Y-53185858D01*
X78785858Y-53006253D01*
X78800000Y-53020395D01*
X78814143Y-53006253D01*
X78993748Y-53185858D01*
X78979605Y-53200000D01*
X79699016Y-53919410D01*
X79929611Y-53863729D01*
X80097622Y-53380922D01*
X80068083Y-52870572D01*
X80063704Y-52860000D01*
X80380394Y-52860000D01*
X80673000Y-53152606D01*
X80673000Y-55000000D01*
X80683006Y-55049410D01*
X80711447Y-55091035D01*
X80753841Y-55118315D01*
X80800000Y-55127000D01*
X91123000Y-55127000D01*
X91123000Y-57500000D01*
X91133006Y-57549410D01*
X91161447Y-57591035D01*
X91203841Y-57618315D01*
X91250000Y-57627000D01*
X102500000Y-57627000D01*
X102549410Y-57616994D01*
X102591035Y-57588553D01*
X102618315Y-57546159D01*
X102627000Y-57500000D01*
X102627000Y-47000000D01*
X102616994Y-46950590D01*
X102588553Y-46908965D01*
X102546159Y-46881685D01*
X102500000Y-46873000D01*
X99227000Y-46873000D01*
X99227000Y-44927000D01*
X102500000Y-44927000D01*
X102549410Y-44916994D01*
X102591035Y-44888553D01*
X102618315Y-44846159D01*
X102627000Y-44800000D01*
X102627000Y-44390403D01*
X111389202Y-44390403D01*
X111497658Y-44665559D01*
X112136367Y-44905442D01*
X112818255Y-44882642D01*
X113342342Y-44665559D01*
X113450798Y-44390403D01*
X112420000Y-43359605D01*
X111389202Y-44390403D01*
X102627000Y-44390403D01*
X102627000Y-42896367D01*
X110694558Y-42896367D01*
X110717358Y-43578255D01*
X110934441Y-44102342D01*
X111209597Y-44210798D01*
X112240395Y-43180000D01*
X111209597Y-42149202D01*
X110934441Y-42257658D01*
X110694558Y-42896367D01*
X102627000Y-42896367D01*
X102627000Y-41969597D01*
X111389202Y-41969597D01*
X112420000Y-43000395D01*
X113450798Y-41969597D01*
X113342342Y-41694441D01*
X112703633Y-41454558D01*
X112021745Y-41477358D01*
X111497658Y-41694441D01*
X111389202Y-41969597D01*
X102627000Y-41969597D01*
X102627000Y-41000000D01*
X102616994Y-40950590D01*
X102588553Y-40908965D01*
X102546159Y-40881685D01*
X102500000Y-40873000D01*
X100223979Y-40873000D01*
X99938675Y-40682367D01*
X99882484Y-40671190D01*
X99600000Y-40614999D01*
X99599995Y-40615000D01*
X94600005Y-40615000D01*
X94600000Y-40614999D01*
X94261325Y-40682367D01*
X93976021Y-40873000D01*
X93260000Y-40873000D01*
X93260000Y-40473691D01*
X93163327Y-40240302D01*
X92984699Y-40061673D01*
X92751310Y-39965000D01*
X92285750Y-39965000D01*
X92127000Y-40123750D01*
X92127000Y-41223000D01*
X92147000Y-41223000D01*
X92147000Y-41477000D01*
X92127000Y-41477000D01*
X92127000Y-41497000D01*
X91873000Y-41497000D01*
X91873000Y-41477000D01*
X90898750Y-41477000D01*
X90740000Y-41635750D01*
X90740000Y-42226309D01*
X90836673Y-42459698D01*
X90949974Y-42573000D01*
X90326012Y-42573000D01*
X90309611Y-40473691D01*
X90740000Y-40473691D01*
X90740000Y-41064250D01*
X90898750Y-41223000D01*
X91873000Y-41223000D01*
X91873000Y-40123750D01*
X91714250Y-39965000D01*
X91248690Y-39965000D01*
X91015301Y-40061673D01*
X90836673Y-40240302D01*
X90740000Y-40473691D01*
X90309611Y-40473691D01*
X90303644Y-39710000D01*
X113773000Y-39710000D01*
X113773000Y-42205408D01*
X113773000Y-42205408D01*
G37*
X113773000Y-42205408D02*
X113630403Y-42149202D01*
X112599605Y-43180000D01*
X113630403Y-44210798D01*
X113773000Y-44154592D01*
X113773000Y-45373000D01*
X109750000Y-45373000D01*
X109700590Y-45383006D01*
X109658965Y-45411447D01*
X109631685Y-45453841D01*
X109623000Y-45500000D01*
X109623000Y-67623000D01*
X96250000Y-67623000D01*
X96200590Y-67633006D01*
X96158965Y-67661447D01*
X96131685Y-67703841D01*
X96123000Y-67750000D01*
X96123000Y-77750000D01*
X96133006Y-77799410D01*
X96161447Y-77841035D01*
X96203841Y-77868315D01*
X96250000Y-77877000D01*
X96684340Y-77877000D01*
X96665000Y-77923691D01*
X96665000Y-80514250D01*
X96823750Y-80673000D01*
X102173000Y-80673000D01*
X102173000Y-80653000D01*
X102427000Y-80653000D01*
X102427000Y-80673000D01*
X107776250Y-80673000D01*
X107935000Y-80514250D01*
X107935000Y-77923691D01*
X107915660Y-77877000D01*
X108873000Y-77877000D01*
X108873000Y-108873000D01*
X99750000Y-108873000D01*
X99700590Y-108883006D01*
X99658965Y-108911447D01*
X99631685Y-108953841D01*
X99623000Y-109000000D01*
X99623000Y-134873000D01*
X96500000Y-134873000D01*
X96450590Y-134883006D01*
X96408965Y-134911447D01*
X96381685Y-134953841D01*
X96373000Y-135000000D01*
X96373000Y-142800000D01*
X96383006Y-142849410D01*
X96411447Y-142891035D01*
X96453841Y-142918315D01*
X96500000Y-142927000D01*
X96665000Y-142927000D01*
X96665000Y-145514250D01*
X96823750Y-145673000D01*
X102173000Y-145673000D01*
X102173000Y-145653000D01*
X102427000Y-145653000D01*
X102427000Y-145673000D01*
X102447000Y-145673000D01*
X102447000Y-145927000D01*
X102427000Y-145927000D01*
X102427000Y-149026250D01*
X102585750Y-149185000D01*
X107426310Y-149185000D01*
X107659699Y-149088327D01*
X107673000Y-149075026D01*
X107673000Y-149397826D01*
X89710000Y-149373286D01*
X89710000Y-146085750D01*
X96665000Y-146085750D01*
X96665000Y-148676309D01*
X96761673Y-148909698D01*
X96940301Y-149088327D01*
X97173690Y-149185000D01*
X102014250Y-149185000D01*
X102173000Y-149026250D01*
X102173000Y-145927000D01*
X96823750Y-145927000D01*
X96665000Y-146085750D01*
X89710000Y-146085750D01*
X89710000Y-123100000D01*
X90216655Y-123100000D01*
X90330729Y-123673489D01*
X90655585Y-124159670D01*
X90970366Y-124370000D01*
X90655585Y-124580330D01*
X90330729Y-125066511D01*
X90216655Y-125640000D01*
X90330729Y-126213489D01*
X90655585Y-126699670D01*
X91141766Y-127024526D01*
X91715255Y-127138600D01*
X92084745Y-127138600D01*
X92658234Y-127024526D01*
X93144415Y-126699670D01*
X93469271Y-126213489D01*
X93583345Y-125640000D01*
X93469271Y-125066511D01*
X93144415Y-124580330D01*
X92829634Y-124370000D01*
X93144415Y-124159670D01*
X93469271Y-123673489D01*
X93583345Y-123100000D01*
X93469271Y-122526511D01*
X93144415Y-122040330D01*
X93122220Y-122025500D01*
X93275698Y-121961927D01*
X93454327Y-121783299D01*
X93551000Y-121549910D01*
X93551000Y-120845750D01*
X93392250Y-120687000D01*
X92027000Y-120687000D01*
X92027000Y-120707000D01*
X91773000Y-120707000D01*
X91773000Y-120687000D01*
X90407750Y-120687000D01*
X90249000Y-120845750D01*
X90249000Y-121549910D01*
X90345673Y-121783299D01*
X90524302Y-121961927D01*
X90677780Y-122025500D01*
X90655585Y-122040330D01*
X90330729Y-122526511D01*
X90216655Y-123100000D01*
X89710000Y-123100000D01*
X89710000Y-119570090D01*
X90249000Y-119570090D01*
X90249000Y-120274250D01*
X90407750Y-120433000D01*
X91773000Y-120433000D01*
X91773000Y-119220150D01*
X92027000Y-119220150D01*
X92027000Y-120433000D01*
X93392250Y-120433000D01*
X93551000Y-120274250D01*
X93551000Y-119570090D01*
X93454327Y-119336701D01*
X93275698Y-119158073D01*
X93042309Y-119061400D01*
X92185750Y-119061400D01*
X92027000Y-119220150D01*
X91773000Y-119220150D01*
X91614250Y-119061400D01*
X90757691Y-119061400D01*
X90524302Y-119158073D01*
X90345673Y-119336701D01*
X90249000Y-119570090D01*
X89710000Y-119570090D01*
X89710000Y-109294092D01*
X93802046Y-105202046D01*
X93955954Y-104971705D01*
X94010000Y-104700000D01*
X94010000Y-93200000D01*
X94616655Y-93200000D01*
X94730729Y-93773489D01*
X95055585Y-94259670D01*
X95370366Y-94470000D01*
X95055585Y-94680330D01*
X94730729Y-95166511D01*
X94616655Y-95740000D01*
X94730729Y-96313489D01*
X95055585Y-96799670D01*
X95541766Y-97124526D01*
X96115255Y-97238600D01*
X96484745Y-97238600D01*
X97058234Y-97124526D01*
X97544415Y-96799670D01*
X97869271Y-96313489D01*
X97983345Y-95740000D01*
X97869271Y-95166511D01*
X97544415Y-94680330D01*
X97229634Y-94470000D01*
X97544415Y-94259670D01*
X97869271Y-93773489D01*
X97983345Y-93200000D01*
X97869271Y-92626511D01*
X97544415Y-92140330D01*
X97522220Y-92125500D01*
X97675698Y-92061927D01*
X97854327Y-91883299D01*
X97951000Y-91649910D01*
X97951000Y-90945750D01*
X97792250Y-90787000D01*
X96427000Y-90787000D01*
X96427000Y-90807000D01*
X96173000Y-90807000D01*
X96173000Y-90787000D01*
X94807750Y-90787000D01*
X94649000Y-90945750D01*
X94649000Y-91649910D01*
X94745673Y-91883299D01*
X94924302Y-92061927D01*
X95077780Y-92125500D01*
X95055585Y-92140330D01*
X94730729Y-92626511D01*
X94616655Y-93200000D01*
X94010000Y-93200000D01*
X94010000Y-89670090D01*
X94649000Y-89670090D01*
X94649000Y-90374250D01*
X94807750Y-90533000D01*
X96173000Y-90533000D01*
X96173000Y-89320150D01*
X96427000Y-89320150D01*
X96427000Y-90533000D01*
X97792250Y-90533000D01*
X97951000Y-90374250D01*
X97951000Y-89670090D01*
X97854327Y-89436701D01*
X97675698Y-89258073D01*
X97442309Y-89161400D01*
X96585750Y-89161400D01*
X96427000Y-89320150D01*
X96173000Y-89320150D01*
X96014250Y-89161400D01*
X95157691Y-89161400D01*
X94924302Y-89258073D01*
X94745673Y-89436701D01*
X94649000Y-89670090D01*
X94010000Y-89670090D01*
X94010000Y-81085750D01*
X96665000Y-81085750D01*
X96665000Y-83676309D01*
X96761673Y-83909698D01*
X96940301Y-84088327D01*
X97173690Y-84185000D01*
X102014250Y-84185000D01*
X102173000Y-84026250D01*
X102173000Y-80927000D01*
X102427000Y-80927000D01*
X102427000Y-84026250D01*
X102585750Y-84185000D01*
X107426310Y-84185000D01*
X107659699Y-84088327D01*
X107838327Y-83909698D01*
X107935000Y-83676309D01*
X107935000Y-81085750D01*
X107776250Y-80927000D01*
X102427000Y-80927000D01*
X102173000Y-80927000D01*
X96823750Y-80927000D01*
X96665000Y-81085750D01*
X94010000Y-81085750D01*
X94010000Y-69000000D01*
X93955954Y-68728295D01*
X93877000Y-68610131D01*
X93877000Y-68500000D01*
X93866994Y-68450590D01*
X93838553Y-68408965D01*
X93796159Y-68381685D01*
X93750000Y-68373000D01*
X93615038Y-68373000D01*
X93571705Y-68344046D01*
X93300000Y-68290000D01*
X86377000Y-68290000D01*
X86377000Y-65875750D01*
X86899000Y-65875750D01*
X86899000Y-66732310D01*
X86995673Y-66965699D01*
X87174302Y-67144327D01*
X87407691Y-67241000D01*
X88264250Y-67241000D01*
X88423000Y-67082250D01*
X88423000Y-65717000D01*
X88677000Y-65717000D01*
X88677000Y-67082250D01*
X88835750Y-67241000D01*
X89692309Y-67241000D01*
X89925698Y-67144327D01*
X90104327Y-66965699D01*
X90201000Y-66732310D01*
X90201000Y-65875750D01*
X90042250Y-65717000D01*
X88677000Y-65717000D01*
X88423000Y-65717000D01*
X87057750Y-65717000D01*
X86899000Y-65875750D01*
X86377000Y-65875750D01*
X86377000Y-64627000D01*
X86899000Y-64627000D01*
X86899000Y-65304250D01*
X87057750Y-65463000D01*
X88423000Y-65463000D01*
X88423000Y-65443000D01*
X88677000Y-65443000D01*
X88677000Y-65463000D01*
X90042250Y-65463000D01*
X90201000Y-65304250D01*
X90201000Y-64627000D01*
X91100000Y-64627000D01*
X91149410Y-64616994D01*
X91191035Y-64588553D01*
X91218315Y-64546159D01*
X91227000Y-64500000D01*
X91227000Y-60700000D01*
X91216994Y-60650590D01*
X91189803Y-60610197D01*
X88189803Y-57610197D01*
X88147789Y-57582334D01*
X88100000Y-57573000D01*
X87803306Y-57573000D01*
X87690839Y-57497852D01*
X87400000Y-57440000D01*
X80809669Y-57440000D01*
X77460000Y-54276424D01*
X77460000Y-54099016D01*
X78080590Y-54099016D01*
X78136271Y-54329611D01*
X78619078Y-54497622D01*
X79129428Y-54468083D01*
X79463729Y-54329611D01*
X79519410Y-54099016D01*
X78800000Y-53379605D01*
X78080590Y-54099016D01*
X77460000Y-54099016D01*
X77460000Y-52860000D01*
X77557735Y-52860000D01*
X77502378Y-53019078D01*
X77531917Y-53529428D01*
X77670389Y-53863729D01*
X77900984Y-53919410D01*
X78620395Y-53200000D01*
X78606253Y-53185858D01*
X78785858Y-53006253D01*
X78800000Y-53020395D01*
X78814143Y-53006253D01*
X78993748Y-53185858D01*
X78979605Y-53200000D01*
X79699016Y-53919410D01*
X79929611Y-53863729D01*
X80097622Y-53380922D01*
X80068083Y-52870572D01*
X80063704Y-52860000D01*
X80380394Y-52860000D01*
X80673000Y-53152606D01*
X80673000Y-55000000D01*
X80683006Y-55049410D01*
X80711447Y-55091035D01*
X80753841Y-55118315D01*
X80800000Y-55127000D01*
X91123000Y-55127000D01*
X91123000Y-57500000D01*
X91133006Y-57549410D01*
X91161447Y-57591035D01*
X91203841Y-57618315D01*
X91250000Y-57627000D01*
X102500000Y-57627000D01*
X102549410Y-57616994D01*
X102591035Y-57588553D01*
X102618315Y-57546159D01*
X102627000Y-57500000D01*
X102627000Y-47000000D01*
X102616994Y-46950590D01*
X102588553Y-46908965D01*
X102546159Y-46881685D01*
X102500000Y-46873000D01*
X99227000Y-46873000D01*
X99227000Y-44927000D01*
X102500000Y-44927000D01*
X102549410Y-44916994D01*
X102591035Y-44888553D01*
X102618315Y-44846159D01*
X102627000Y-44800000D01*
X102627000Y-44390403D01*
X111389202Y-44390403D01*
X111497658Y-44665559D01*
X112136367Y-44905442D01*
X112818255Y-44882642D01*
X113342342Y-44665559D01*
X113450798Y-44390403D01*
X112420000Y-43359605D01*
X111389202Y-44390403D01*
X102627000Y-44390403D01*
X102627000Y-42896367D01*
X110694558Y-42896367D01*
X110717358Y-43578255D01*
X110934441Y-44102342D01*
X111209597Y-44210798D01*
X112240395Y-43180000D01*
X111209597Y-42149202D01*
X110934441Y-42257658D01*
X110694558Y-42896367D01*
X102627000Y-42896367D01*
X102627000Y-41969597D01*
X111389202Y-41969597D01*
X112420000Y-43000395D01*
X113450798Y-41969597D01*
X113342342Y-41694441D01*
X112703633Y-41454558D01*
X112021745Y-41477358D01*
X111497658Y-41694441D01*
X111389202Y-41969597D01*
X102627000Y-41969597D01*
X102627000Y-41000000D01*
X102616994Y-40950590D01*
X102588553Y-40908965D01*
X102546159Y-40881685D01*
X102500000Y-40873000D01*
X100223979Y-40873000D01*
X99938675Y-40682367D01*
X99882484Y-40671190D01*
X99600000Y-40614999D01*
X99599995Y-40615000D01*
X94600005Y-40615000D01*
X94600000Y-40614999D01*
X94261325Y-40682367D01*
X93976021Y-40873000D01*
X93260000Y-40873000D01*
X93260000Y-40473691D01*
X93163327Y-40240302D01*
X92984699Y-40061673D01*
X92751310Y-39965000D01*
X92285750Y-39965000D01*
X92127000Y-40123750D01*
X92127000Y-41223000D01*
X92147000Y-41223000D01*
X92147000Y-41477000D01*
X92127000Y-41477000D01*
X92127000Y-41497000D01*
X91873000Y-41497000D01*
X91873000Y-41477000D01*
X90898750Y-41477000D01*
X90740000Y-41635750D01*
X90740000Y-42226309D01*
X90836673Y-42459698D01*
X90949974Y-42573000D01*
X90326012Y-42573000D01*
X90309611Y-40473691D01*
X90740000Y-40473691D01*
X90740000Y-41064250D01*
X90898750Y-41223000D01*
X91873000Y-41223000D01*
X91873000Y-40123750D01*
X91714250Y-39965000D01*
X91248690Y-39965000D01*
X91015301Y-40061673D01*
X90836673Y-40240302D01*
X90740000Y-40473691D01*
X90309611Y-40473691D01*
X90303644Y-39710000D01*
X113773000Y-39710000D01*
X113773000Y-42205408D01*
G36*
X199123000Y-40415000D02*
X197085750Y-40415000D01*
X196927000Y-40573750D01*
X196927000Y-45923000D01*
X196947000Y-45923000D01*
X196947000Y-46177000D01*
X196927000Y-46177000D01*
X196927000Y-46197000D01*
X196673000Y-46197000D01*
X196673000Y-46177000D01*
X193573750Y-46177000D01*
X193415000Y-46335750D01*
X193415000Y-51123000D01*
X189100936Y-51123000D01*
X189000000Y-51102560D01*
X188400000Y-51102560D01*
X188291371Y-51123000D01*
X184997802Y-51123000D01*
X184660000Y-50785198D01*
X184660000Y-50723691D01*
X187765000Y-50723691D01*
X187765000Y-50791250D01*
X187923750Y-50950000D01*
X188573000Y-50950000D01*
X188573000Y-50373750D01*
X188827000Y-50373750D01*
X188827000Y-50950000D01*
X189476250Y-50950000D01*
X189635000Y-50791250D01*
X189635000Y-50723691D01*
X189538327Y-50490302D01*
X189359699Y-50311673D01*
X189126310Y-50215000D01*
X188985750Y-50215000D01*
X188827000Y-50373750D01*
X188573000Y-50373750D01*
X188414250Y-50215000D01*
X188273690Y-50215000D01*
X188040301Y-50311673D01*
X187861673Y-50490302D01*
X187765000Y-50723691D01*
X184660000Y-50723691D01*
X184660000Y-50700000D01*
X184602148Y-50409161D01*
X184437401Y-50162599D01*
X184360000Y-50085198D01*
X184360000Y-50000000D01*
X184302148Y-49709161D01*
X184137401Y-49462599D01*
X183537401Y-48862599D01*
X183290839Y-48697852D01*
X183000000Y-48640000D01*
X179400000Y-48640000D01*
X179109160Y-48697852D01*
X178862599Y-48862599D01*
X177662599Y-50062599D01*
X177497852Y-50309161D01*
X177440000Y-50600000D01*
X177440000Y-51140242D01*
X177408965Y-51161447D01*
X177381685Y-51203841D01*
X177373000Y-51250000D01*
X177373000Y-55123000D01*
X168877000Y-55123000D01*
X168877000Y-52000000D01*
X168866994Y-51950590D01*
X168838553Y-51908965D01*
X168796159Y-51881685D01*
X168750000Y-51873000D01*
X167347440Y-51873000D01*
X167347440Y-50500000D01*
X167303162Y-50264683D01*
X167164090Y-50048559D01*
X166951890Y-49903569D01*
X166700000Y-49852560D01*
X163700000Y-49852560D01*
X163464683Y-49896838D01*
X163248559Y-50035910D01*
X163103569Y-50248110D01*
X163052560Y-50500000D01*
X163052560Y-51873000D01*
X156552606Y-51873000D01*
X155089803Y-50410197D01*
X155047789Y-50382334D01*
X155000000Y-50373000D01*
X152927516Y-50373000D01*
X153062118Y-50091723D01*
X151800000Y-48829604D01*
X150537882Y-50091723D01*
X150672484Y-50373000D01*
X149627000Y-50373000D01*
X149627000Y-48290030D01*
X149756595Y-48290030D01*
X149774386Y-49099408D01*
X150049894Y-49764544D01*
X150358276Y-49912117D01*
X151620395Y-48649999D01*
X151979605Y-48649999D01*
X153241724Y-49912117D01*
X153550106Y-49764544D01*
X153843405Y-49009968D01*
X153825614Y-48200590D01*
X153550106Y-47535454D01*
X153241724Y-47387881D01*
X151979605Y-48649999D01*
X151620395Y-48649999D01*
X150358276Y-47387881D01*
X150049894Y-47535454D01*
X149756595Y-48290030D01*
X149627000Y-48290030D01*
X149627000Y-46877000D01*
X150740724Y-46877000D01*
X150685455Y-46899893D01*
X150537882Y-47208275D01*
X151800000Y-48470394D01*
X153062118Y-47208275D01*
X152914545Y-46899893D01*
X152855648Y-46877000D01*
X155000000Y-46877000D01*
X155049410Y-46866994D01*
X155091035Y-46838553D01*
X155118315Y-46796159D01*
X155127000Y-46750000D01*
X155127000Y-45985750D01*
X171115000Y-45985750D01*
X171115000Y-50826310D01*
X171211673Y-51059699D01*
X171390302Y-51238327D01*
X171623691Y-51335000D01*
X172964250Y-51335000D01*
X173123000Y-51176250D01*
X173123000Y-45827000D01*
X173377000Y-45827000D01*
X173377000Y-51176250D01*
X173535750Y-51335000D01*
X174876309Y-51335000D01*
X175109698Y-51238327D01*
X175288327Y-51059699D01*
X175385000Y-50826310D01*
X175385000Y-45985750D01*
X175226250Y-45827000D01*
X173377000Y-45827000D01*
X173123000Y-45827000D01*
X171273750Y-45827000D01*
X171115000Y-45985750D01*
X155127000Y-45985750D01*
X155127000Y-40573690D01*
X171115000Y-40573690D01*
X171115000Y-45414250D01*
X171273750Y-45573000D01*
X173123000Y-45573000D01*
X173123000Y-40223750D01*
X173377000Y-40223750D01*
X173377000Y-45573000D01*
X175226250Y-45573000D01*
X175385000Y-45414250D01*
X175385000Y-40923690D01*
X193415000Y-40923690D01*
X193415000Y-45764250D01*
X193573750Y-45923000D01*
X196673000Y-45923000D01*
X196673000Y-40573750D01*
X196514250Y-40415000D01*
X193923691Y-40415000D01*
X193690302Y-40511673D01*
X193511673Y-40690301D01*
X193415000Y-40923690D01*
X175385000Y-40923690D01*
X175385000Y-40573690D01*
X175288327Y-40340301D01*
X175109698Y-40161673D01*
X174876309Y-40065000D01*
X173535750Y-40065000D01*
X173377000Y-40223750D01*
X173123000Y-40223750D01*
X172964250Y-40065000D01*
X171623691Y-40065000D01*
X171390302Y-40161673D01*
X171211673Y-40340301D01*
X171115000Y-40573690D01*
X155127000Y-40573690D01*
X155127000Y-39710000D01*
X199123000Y-39710000D01*
X199123000Y-40415000D01*
X199123000Y-40415000D01*
G37*
X199123000Y-40415000D02*
X197085750Y-40415000D01*
X196927000Y-40573750D01*
X196927000Y-45923000D01*
X196947000Y-45923000D01*
X196947000Y-46177000D01*
X196927000Y-46177000D01*
X196927000Y-46197000D01*
X196673000Y-46197000D01*
X196673000Y-46177000D01*
X193573750Y-46177000D01*
X193415000Y-46335750D01*
X193415000Y-51123000D01*
X189100936Y-51123000D01*
X189000000Y-51102560D01*
X188400000Y-51102560D01*
X188291371Y-51123000D01*
X184997802Y-51123000D01*
X184660000Y-50785198D01*
X184660000Y-50723691D01*
X187765000Y-50723691D01*
X187765000Y-50791250D01*
X187923750Y-50950000D01*
X188573000Y-50950000D01*
X188573000Y-50373750D01*
X188827000Y-50373750D01*
X188827000Y-50950000D01*
X189476250Y-50950000D01*
X189635000Y-50791250D01*
X189635000Y-50723691D01*
X189538327Y-50490302D01*
X189359699Y-50311673D01*
X189126310Y-50215000D01*
X188985750Y-50215000D01*
X188827000Y-50373750D01*
X188573000Y-50373750D01*
X188414250Y-50215000D01*
X188273690Y-50215000D01*
X188040301Y-50311673D01*
X187861673Y-50490302D01*
X187765000Y-50723691D01*
X184660000Y-50723691D01*
X184660000Y-50700000D01*
X184602148Y-50409161D01*
X184437401Y-50162599D01*
X184360000Y-50085198D01*
X184360000Y-50000000D01*
X184302148Y-49709161D01*
X184137401Y-49462599D01*
X183537401Y-48862599D01*
X183290839Y-48697852D01*
X183000000Y-48640000D01*
X179400000Y-48640000D01*
X179109160Y-48697852D01*
X178862599Y-48862599D01*
X177662599Y-50062599D01*
X177497852Y-50309161D01*
X177440000Y-50600000D01*
X177440000Y-51140242D01*
X177408965Y-51161447D01*
X177381685Y-51203841D01*
X177373000Y-51250000D01*
X177373000Y-55123000D01*
X168877000Y-55123000D01*
X168877000Y-52000000D01*
X168866994Y-51950590D01*
X168838553Y-51908965D01*
X168796159Y-51881685D01*
X168750000Y-51873000D01*
X167347440Y-51873000D01*
X167347440Y-50500000D01*
X167303162Y-50264683D01*
X167164090Y-50048559D01*
X166951890Y-49903569D01*
X166700000Y-49852560D01*
X163700000Y-49852560D01*
X163464683Y-49896838D01*
X163248559Y-50035910D01*
X163103569Y-50248110D01*
X163052560Y-50500000D01*
X163052560Y-51873000D01*
X156552606Y-51873000D01*
X155089803Y-50410197D01*
X155047789Y-50382334D01*
X155000000Y-50373000D01*
X152927516Y-50373000D01*
X153062118Y-50091723D01*
X151800000Y-48829604D01*
X150537882Y-50091723D01*
X150672484Y-50373000D01*
X149627000Y-50373000D01*
X149627000Y-48290030D01*
X149756595Y-48290030D01*
X149774386Y-49099408D01*
X150049894Y-49764544D01*
X150358276Y-49912117D01*
X151620395Y-48649999D01*
X151979605Y-48649999D01*
X153241724Y-49912117D01*
X153550106Y-49764544D01*
X153843405Y-49009968D01*
X153825614Y-48200590D01*
X153550106Y-47535454D01*
X153241724Y-47387881D01*
X151979605Y-48649999D01*
X151620395Y-48649999D01*
X150358276Y-47387881D01*
X150049894Y-47535454D01*
X149756595Y-48290030D01*
X149627000Y-48290030D01*
X149627000Y-46877000D01*
X150740724Y-46877000D01*
X150685455Y-46899893D01*
X150537882Y-47208275D01*
X151800000Y-48470394D01*
X153062118Y-47208275D01*
X152914545Y-46899893D01*
X152855648Y-46877000D01*
X155000000Y-46877000D01*
X155049410Y-46866994D01*
X155091035Y-46838553D01*
X155118315Y-46796159D01*
X155127000Y-46750000D01*
X155127000Y-45985750D01*
X171115000Y-45985750D01*
X171115000Y-50826310D01*
X171211673Y-51059699D01*
X171390302Y-51238327D01*
X171623691Y-51335000D01*
X172964250Y-51335000D01*
X173123000Y-51176250D01*
X173123000Y-45827000D01*
X173377000Y-45827000D01*
X173377000Y-51176250D01*
X173535750Y-51335000D01*
X174876309Y-51335000D01*
X175109698Y-51238327D01*
X175288327Y-51059699D01*
X175385000Y-50826310D01*
X175385000Y-45985750D01*
X175226250Y-45827000D01*
X173377000Y-45827000D01*
X173123000Y-45827000D01*
X171273750Y-45827000D01*
X171115000Y-45985750D01*
X155127000Y-45985750D01*
X155127000Y-40573690D01*
X171115000Y-40573690D01*
X171115000Y-45414250D01*
X171273750Y-45573000D01*
X173123000Y-45573000D01*
X173123000Y-40223750D01*
X173377000Y-40223750D01*
X173377000Y-45573000D01*
X175226250Y-45573000D01*
X175385000Y-45414250D01*
X175385000Y-40923690D01*
X193415000Y-40923690D01*
X193415000Y-45764250D01*
X193573750Y-45923000D01*
X196673000Y-45923000D01*
X196673000Y-40573750D01*
X196514250Y-40415000D01*
X193923691Y-40415000D01*
X193690302Y-40511673D01*
X193511673Y-40690301D01*
X193415000Y-40923690D01*
X175385000Y-40923690D01*
X175385000Y-40573690D01*
X175288327Y-40340301D01*
X175109698Y-40161673D01*
X174876309Y-40065000D01*
X173535750Y-40065000D01*
X173377000Y-40223750D01*
X173123000Y-40223750D01*
X172964250Y-40065000D01*
X171623691Y-40065000D01*
X171390302Y-40161673D01*
X171211673Y-40340301D01*
X171115000Y-40573690D01*
X155127000Y-40573690D01*
X155127000Y-39710000D01*
X199123000Y-39710000D01*
X199123000Y-40415000D01*
M02*
