G04 #@! TF.FileFunction,Paste,Top*
%FSLAX46Y46*%
G04 Gerber Fmt 4.6, Leading zero omitted, Abs format (unit mm)*
G04 Created by KiCad (PCBNEW 4.0.4-stable) date Fri Nov 25 15:40:38 2016*
%MOMM*%
%LPD*%
G01*
G04 APERTURE LIST*
%ADD10C,0.100000*%
%ADD11R,1.200000X0.400000*%
%ADD12R,1.200000X0.750000*%
%ADD13R,0.750000X1.200000*%
%ADD14R,1.600000X0.550000*%
%ADD15R,0.550000X1.600000*%
%ADD16R,1.250000X1.500000*%
%ADD17R,0.400000X1.350000*%
%ADD18R,0.900000X1.200000*%
G04 APERTURE END LIST*
D10*
D11*
X159900000Y-93777500D03*
X159900000Y-94412500D03*
X159900000Y-95047500D03*
X159900000Y-95682500D03*
X159900000Y-96317500D03*
X159900000Y-96952500D03*
X159900000Y-97587500D03*
X159900000Y-98222500D03*
X165100000Y-98222500D03*
X165100000Y-97587500D03*
X165100000Y-96952500D03*
X165100000Y-96317500D03*
X165100000Y-95682500D03*
X165100000Y-95047500D03*
X165100000Y-94412500D03*
X165100000Y-93777500D03*
D12*
X162250000Y-102700000D03*
X164150000Y-102700000D03*
X158450000Y-87000000D03*
X156550000Y-87000000D03*
X166500000Y-89000000D03*
X168400000Y-89000000D03*
X168650000Y-98200000D03*
X170550000Y-98200000D03*
D13*
X152900000Y-117700000D03*
X152900000Y-115800000D03*
D14*
X160750000Y-109700000D03*
X160750000Y-110500000D03*
X160750000Y-111300000D03*
X160750000Y-112100000D03*
X160750000Y-112900000D03*
X160750000Y-113700000D03*
X160750000Y-114500000D03*
X160750000Y-115300000D03*
D15*
X162200000Y-116750000D03*
X163000000Y-116750000D03*
X163800000Y-116750000D03*
X164600000Y-116750000D03*
X165400000Y-116750000D03*
X166200000Y-116750000D03*
X167000000Y-116750000D03*
X167800000Y-116750000D03*
D14*
X169250000Y-115300000D03*
X169250000Y-114500000D03*
X169250000Y-113700000D03*
X169250000Y-112900000D03*
X169250000Y-112100000D03*
X169250000Y-111300000D03*
X169250000Y-110500000D03*
X169250000Y-109700000D03*
D15*
X167800000Y-108250000D03*
X167000000Y-108250000D03*
X166200000Y-108250000D03*
X165400000Y-108250000D03*
X164600000Y-108250000D03*
X163800000Y-108250000D03*
X163000000Y-108250000D03*
X162200000Y-108250000D03*
D16*
X171000000Y-90250000D03*
X171000000Y-87750000D03*
D17*
X163200900Y-83362540D03*
X162550900Y-83362540D03*
X161900900Y-83362540D03*
X161250900Y-83362540D03*
X160600900Y-83362540D03*
D18*
X163500000Y-89600000D03*
X163500000Y-87400000D03*
X161500000Y-89600000D03*
X161500000Y-87400000D03*
M02*
