G04 #@! TF.FileFunction,Copper,L2,Bot,Signal*
%FSLAX46Y46*%
G04 Gerber Fmt 4.6, Leading zero omitted, Abs format (unit mm)*
G04 Created by KiCad (PCBNEW 4.0.4-stable) date Fri Nov 25 15:40:38 2016*
%MOMM*%
%LPD*%
G01*
G04 APERTURE LIST*
%ADD10C,0.100000*%
%ADD11R,1.200000X0.750000*%
%ADD12O,1.250000X0.950000*%
%ADD13O,1.000000X1.550000*%
%ADD14R,1.727200X2.032000*%
%ADD15O,1.727200X2.032000*%
%ADD16R,2.032000X1.727200*%
%ADD17O,2.032000X1.727200*%
%ADD18C,0.600000*%
%ADD19C,0.250000*%
%ADD20C,0.254000*%
G04 APERTURE END LIST*
D10*
D11*
X156850000Y-92300000D03*
X154950000Y-92300000D03*
D12*
X164400900Y-83362540D03*
X159400900Y-83362540D03*
D13*
X165400900Y-80662540D03*
X158400900Y-80662540D03*
D14*
X159800000Y-127500000D03*
D15*
X162340000Y-127500000D03*
X164880000Y-127500000D03*
X167420000Y-127500000D03*
X169960000Y-127500000D03*
X172500000Y-127500000D03*
X175040000Y-127500000D03*
X177580000Y-127500000D03*
D16*
X177100000Y-100400000D03*
D17*
X177100000Y-97860000D03*
X177100000Y-95320000D03*
X177100000Y-92780000D03*
X177100000Y-90240000D03*
X177100000Y-87700000D03*
X177100000Y-85160000D03*
X177100000Y-82620000D03*
D16*
X177500000Y-104800000D03*
D17*
X177500000Y-107340000D03*
X177500000Y-109880000D03*
X177500000Y-112420000D03*
X177500000Y-114960000D03*
X177500000Y-117500000D03*
X177500000Y-120040000D03*
X177500000Y-122580000D03*
D18*
X166700000Y-110200000D03*
X172600000Y-108200000D03*
X160400000Y-85700000D03*
X152800000Y-113700000D03*
X171900000Y-111000000D03*
X155700000Y-114900000D03*
X155700000Y-113600000D03*
X165800000Y-102700000D03*
X172200000Y-98200000D03*
X158100000Y-96700000D03*
X167500000Y-95800000D03*
X168500000Y-91000000D03*
X154500000Y-87000000D03*
X166900000Y-99500000D03*
X159700000Y-92000000D03*
X157000000Y-110000000D03*
X158500000Y-112600000D03*
X157500000Y-122000000D03*
X159000000Y-120000000D03*
X163000000Y-114800000D03*
X162600000Y-118900000D03*
X165000000Y-114600000D03*
X151800000Y-93700000D03*
X158500000Y-106500000D03*
X158500000Y-100000000D03*
X162200000Y-109900000D03*
D19*
X168700000Y-108200000D02*
X166700000Y-110200000D01*
X169500000Y-108200000D02*
X168700000Y-108200000D01*
X169500000Y-108200000D02*
X172600000Y-108200000D01*
X166900000Y-99500000D02*
X160500000Y-99500000D01*
X160500000Y-99500000D02*
X159700000Y-98700000D01*
X159700000Y-98700000D02*
X159700000Y-92000000D01*
X159700000Y-92000000D02*
X157150000Y-92000000D01*
X157150000Y-92000000D02*
X156850000Y-92300000D01*
X157299999Y-110299999D02*
X157000000Y-110000000D01*
X159000000Y-112000000D02*
X157299999Y-110299999D01*
X174114000Y-112000000D02*
X159000000Y-112000000D01*
X176234000Y-109880000D02*
X174114000Y-112000000D01*
X177500000Y-109880000D02*
X176234000Y-109880000D01*
X176154000Y-112500000D02*
X158600000Y-112500000D01*
X158600000Y-112500000D02*
X158500000Y-112600000D01*
X177500000Y-112420000D02*
X176234000Y-112420000D01*
X176234000Y-112420000D02*
X176154000Y-112500000D01*
X157500000Y-123136411D02*
X157500000Y-122424264D01*
X157500000Y-122424264D02*
X157500000Y-122000000D01*
X158813600Y-124450011D02*
X157500000Y-123136411D01*
X172142411Y-124450011D02*
X158813600Y-124450011D01*
X175040000Y-127347600D02*
X172142411Y-124450011D01*
X175040000Y-127500000D02*
X175040000Y-127347600D01*
X177580000Y-127500000D02*
X177580000Y-126234000D01*
X177580000Y-126234000D02*
X175346000Y-124000000D01*
X175346000Y-124000000D02*
X160000000Y-124000000D01*
X159000000Y-121700000D02*
X159000000Y-120000000D01*
X160000000Y-124000000D02*
X159000000Y-123000000D01*
X159000000Y-123000000D02*
X159000000Y-121700000D01*
X177347600Y-114960000D02*
X177500000Y-114960000D01*
X176234000Y-113846400D02*
X177347600Y-114960000D01*
X163953600Y-113846400D02*
X176234000Y-113846400D01*
X163000000Y-114800000D02*
X163953600Y-113846400D01*
X165700000Y-118900000D02*
X167100000Y-117500000D01*
X167100000Y-117500000D02*
X177500000Y-117500000D01*
X162600000Y-118900000D02*
X165700000Y-118900000D01*
X174100000Y-114600000D02*
X165000000Y-114600000D01*
X175811390Y-116311390D02*
X174100000Y-114600000D01*
X179200000Y-116800000D02*
X178711390Y-116311390D01*
X178711390Y-116311390D02*
X175811390Y-116311390D01*
X179200000Y-119606000D02*
X179200000Y-116800000D01*
X177500000Y-120040000D02*
X178766000Y-120040000D01*
X178766000Y-120040000D02*
X179200000Y-119606000D01*
X151700000Y-92100000D02*
X151700000Y-93600000D01*
X151700000Y-93600000D02*
X151800000Y-93700000D01*
X153600000Y-90200000D02*
X151700000Y-92100000D01*
X165000000Y-90200000D02*
X153600000Y-90200000D01*
X172580000Y-82620000D02*
X165000000Y-90200000D01*
X177100000Y-82620000D02*
X172580000Y-82620000D01*
X158500000Y-100000000D02*
X158500000Y-103200000D01*
X158500000Y-103200000D02*
X158500000Y-106500000D01*
X161500000Y-104800000D02*
X159900000Y-103200000D01*
X159900000Y-103200000D02*
X158500000Y-103200000D01*
X177500000Y-104800000D02*
X162200000Y-104800000D01*
X162200000Y-104800000D02*
X161500000Y-104800000D01*
X164400000Y-109900000D02*
X166960000Y-107340000D01*
X166960000Y-107340000D02*
X169160000Y-107340000D01*
X162200000Y-109900000D02*
X164400000Y-109900000D01*
X177500000Y-107340000D02*
X169160000Y-107340000D01*
D20*
G36*
X179873000Y-116465538D02*
X179737401Y-116262599D01*
X179248791Y-115773989D01*
X179013585Y-115616830D01*
X179069271Y-115533489D01*
X179183345Y-114960000D01*
X179069271Y-114386511D01*
X178744415Y-113900330D01*
X178429634Y-113690000D01*
X178744415Y-113479670D01*
X179069271Y-112993489D01*
X179183345Y-112420000D01*
X179069271Y-111846511D01*
X178744415Y-111360330D01*
X178429634Y-111150000D01*
X178744415Y-110939670D01*
X179069271Y-110453489D01*
X179183345Y-109880000D01*
X179069271Y-109306511D01*
X178744415Y-108820330D01*
X178429634Y-108610000D01*
X178744415Y-108399670D01*
X179069271Y-107913489D01*
X179183345Y-107340000D01*
X179069271Y-106766511D01*
X178744415Y-106280330D01*
X178730087Y-106270757D01*
X178751317Y-106266762D01*
X178967441Y-106127690D01*
X179112431Y-105915490D01*
X179163440Y-105663600D01*
X179163440Y-103936400D01*
X179119162Y-103701083D01*
X178980090Y-103484959D01*
X178767890Y-103339969D01*
X178516000Y-103288960D01*
X176484000Y-103288960D01*
X176248683Y-103333238D01*
X176032559Y-103472310D01*
X175887569Y-103684510D01*
X175836560Y-103936400D01*
X175836560Y-104040000D01*
X161814802Y-104040000D01*
X160437401Y-102662599D01*
X160190839Y-102497852D01*
X159900000Y-102440000D01*
X159260000Y-102440000D01*
X159260000Y-100562463D01*
X159292192Y-100530327D01*
X159434838Y-100186799D01*
X159435162Y-99814833D01*
X159293117Y-99471057D01*
X159030327Y-99207808D01*
X158686799Y-99065162D01*
X158314833Y-99064838D01*
X157971057Y-99206883D01*
X157707808Y-99469673D01*
X157565162Y-99813201D01*
X157564838Y-100185167D01*
X157706883Y-100528943D01*
X157740000Y-100562118D01*
X157740000Y-105937537D01*
X157707808Y-105969673D01*
X157565162Y-106313201D01*
X157564838Y-106685167D01*
X157706883Y-107028943D01*
X157969673Y-107292192D01*
X158313201Y-107434838D01*
X158685167Y-107435162D01*
X159028943Y-107293117D01*
X159292192Y-107030327D01*
X159434838Y-106686799D01*
X159435162Y-106314833D01*
X159293117Y-105971057D01*
X159260000Y-105937882D01*
X159260000Y-103960000D01*
X159585198Y-103960000D01*
X160962599Y-105337401D01*
X161209161Y-105502148D01*
X161500000Y-105560000D01*
X175836560Y-105560000D01*
X175836560Y-105663600D01*
X175880838Y-105898917D01*
X176019910Y-106115041D01*
X176232110Y-106260031D01*
X176273439Y-106268400D01*
X176255585Y-106280330D01*
X176055352Y-106580000D01*
X166960000Y-106580000D01*
X166669161Y-106637852D01*
X166422599Y-106802599D01*
X164085198Y-109140000D01*
X162762463Y-109140000D01*
X162730327Y-109107808D01*
X162386799Y-108965162D01*
X162014833Y-108964838D01*
X161671057Y-109106883D01*
X161407808Y-109369673D01*
X161265162Y-109713201D01*
X161264838Y-110085167D01*
X161406883Y-110428943D01*
X161669673Y-110692192D01*
X162013201Y-110834838D01*
X162385167Y-110835162D01*
X162728943Y-110693117D01*
X162762118Y-110660000D01*
X164400000Y-110660000D01*
X164690839Y-110602148D01*
X164937401Y-110437401D01*
X167274802Y-108100000D01*
X167725198Y-108100000D01*
X166560320Y-109264878D01*
X166514833Y-109264838D01*
X166171057Y-109406883D01*
X165907808Y-109669673D01*
X165765162Y-110013201D01*
X165764838Y-110385167D01*
X165906883Y-110728943D01*
X166169673Y-110992192D01*
X166513201Y-111134838D01*
X166885167Y-111135162D01*
X167228943Y-110993117D01*
X167492192Y-110730327D01*
X167634838Y-110386799D01*
X167634879Y-110339923D01*
X169014802Y-108960000D01*
X172037537Y-108960000D01*
X172069673Y-108992192D01*
X172413201Y-109134838D01*
X172785167Y-109135162D01*
X173128943Y-108993117D01*
X173392192Y-108730327D01*
X173534838Y-108386799D01*
X173535088Y-108100000D01*
X176055352Y-108100000D01*
X176255585Y-108399670D01*
X176570366Y-108610000D01*
X176255585Y-108820330D01*
X176027968Y-109160983D01*
X175943161Y-109177852D01*
X175696599Y-109342599D01*
X173799198Y-111240000D01*
X159314802Y-111240000D01*
X157935122Y-109860320D01*
X157935162Y-109814833D01*
X157793117Y-109471057D01*
X157530327Y-109207808D01*
X157186799Y-109065162D01*
X156814833Y-109064838D01*
X156471057Y-109206883D01*
X156207808Y-109469673D01*
X156065162Y-109813201D01*
X156064838Y-110185167D01*
X156206883Y-110528943D01*
X156469673Y-110792192D01*
X156813201Y-110934838D01*
X156860077Y-110934879D01*
X157851465Y-111926267D01*
X157707808Y-112069673D01*
X157565162Y-112413201D01*
X157564838Y-112785167D01*
X157706883Y-113128943D01*
X157969673Y-113392192D01*
X158313201Y-113534838D01*
X158685167Y-113535162D01*
X159028943Y-113393117D01*
X159162293Y-113260000D01*
X163489531Y-113260000D01*
X163416199Y-113308999D01*
X162860320Y-113864878D01*
X162814833Y-113864838D01*
X162471057Y-114006883D01*
X162207808Y-114269673D01*
X162065162Y-114613201D01*
X162064838Y-114985167D01*
X162206883Y-115328943D01*
X162469673Y-115592192D01*
X162813201Y-115734838D01*
X163185167Y-115735162D01*
X163528943Y-115593117D01*
X163792192Y-115330327D01*
X163934838Y-114986799D01*
X163934879Y-114939923D01*
X164072088Y-114802714D01*
X164206883Y-115128943D01*
X164469673Y-115392192D01*
X164813201Y-115534838D01*
X165185167Y-115535162D01*
X165528943Y-115393117D01*
X165562118Y-115360000D01*
X173785198Y-115360000D01*
X175165198Y-116740000D01*
X167100000Y-116740000D01*
X166809161Y-116797852D01*
X166562599Y-116962599D01*
X165385198Y-118140000D01*
X163162463Y-118140000D01*
X163130327Y-118107808D01*
X162786799Y-117965162D01*
X162414833Y-117964838D01*
X162071057Y-118106883D01*
X161807808Y-118369673D01*
X161665162Y-118713201D01*
X161664838Y-119085167D01*
X161806883Y-119428943D01*
X162069673Y-119692192D01*
X162413201Y-119834838D01*
X162785167Y-119835162D01*
X163128943Y-119693117D01*
X163162118Y-119660000D01*
X165700000Y-119660000D01*
X165990839Y-119602148D01*
X166237401Y-119437401D01*
X167414802Y-118260000D01*
X176055352Y-118260000D01*
X176255585Y-118559670D01*
X176570366Y-118770000D01*
X176255585Y-118980330D01*
X175930729Y-119466511D01*
X175816655Y-120040000D01*
X175930729Y-120613489D01*
X176255585Y-121099670D01*
X176565069Y-121306461D01*
X176149268Y-121677964D01*
X175895291Y-122205209D01*
X175892642Y-122220974D01*
X176013783Y-122453000D01*
X177373000Y-122453000D01*
X177373000Y-122433000D01*
X177627000Y-122433000D01*
X177627000Y-122453000D01*
X178986217Y-122453000D01*
X179107358Y-122220974D01*
X179104709Y-122205209D01*
X178850732Y-121677964D01*
X178434931Y-121306461D01*
X178744415Y-121099670D01*
X178972032Y-120759017D01*
X179056839Y-120742148D01*
X179303401Y-120577401D01*
X179737401Y-120143401D01*
X179873000Y-119940462D01*
X179873000Y-129873000D01*
X150127000Y-129873000D01*
X150127000Y-122185167D01*
X156564838Y-122185167D01*
X156706883Y-122528943D01*
X156740000Y-122562118D01*
X156740000Y-123136411D01*
X156797852Y-123427250D01*
X156962599Y-123673812D01*
X158276199Y-124987412D01*
X158522761Y-125152159D01*
X158813600Y-125210011D01*
X171827609Y-125210011D01*
X172445161Y-125827563D01*
X171926511Y-125930729D01*
X171440330Y-126255585D01*
X171230000Y-126570366D01*
X171019670Y-126255585D01*
X170533489Y-125930729D01*
X169960000Y-125816655D01*
X169386511Y-125930729D01*
X168900330Y-126255585D01*
X168690000Y-126570366D01*
X168479670Y-126255585D01*
X167993489Y-125930729D01*
X167420000Y-125816655D01*
X166846511Y-125930729D01*
X166360330Y-126255585D01*
X166150000Y-126570366D01*
X165939670Y-126255585D01*
X165453489Y-125930729D01*
X164880000Y-125816655D01*
X164306511Y-125930729D01*
X163820330Y-126255585D01*
X163610000Y-126570366D01*
X163399670Y-126255585D01*
X162913489Y-125930729D01*
X162340000Y-125816655D01*
X161766511Y-125930729D01*
X161280330Y-126255585D01*
X161270757Y-126269913D01*
X161266762Y-126248683D01*
X161127690Y-126032559D01*
X160915490Y-125887569D01*
X160663600Y-125836560D01*
X158936400Y-125836560D01*
X158701083Y-125880838D01*
X158484959Y-126019910D01*
X158339969Y-126232110D01*
X158288960Y-126484000D01*
X158288960Y-128516000D01*
X158333238Y-128751317D01*
X158472310Y-128967441D01*
X158684510Y-129112431D01*
X158936400Y-129163440D01*
X160663600Y-129163440D01*
X160898917Y-129119162D01*
X161115041Y-128980090D01*
X161260031Y-128767890D01*
X161268400Y-128726561D01*
X161280330Y-128744415D01*
X161766511Y-129069271D01*
X162340000Y-129183345D01*
X162913489Y-129069271D01*
X163399670Y-128744415D01*
X163610000Y-128429634D01*
X163820330Y-128744415D01*
X164306511Y-129069271D01*
X164880000Y-129183345D01*
X165453489Y-129069271D01*
X165939670Y-128744415D01*
X166150000Y-128429634D01*
X166360330Y-128744415D01*
X166846511Y-129069271D01*
X167420000Y-129183345D01*
X167993489Y-129069271D01*
X168479670Y-128744415D01*
X168690000Y-128429634D01*
X168900330Y-128744415D01*
X169386511Y-129069271D01*
X169960000Y-129183345D01*
X170533489Y-129069271D01*
X171019670Y-128744415D01*
X171230000Y-128429634D01*
X171440330Y-128744415D01*
X171926511Y-129069271D01*
X172500000Y-129183345D01*
X173073489Y-129069271D01*
X173559670Y-128744415D01*
X173770000Y-128429634D01*
X173980330Y-128744415D01*
X174466511Y-129069271D01*
X175040000Y-129183345D01*
X175613489Y-129069271D01*
X176099670Y-128744415D01*
X176310000Y-128429634D01*
X176520330Y-128744415D01*
X177006511Y-129069271D01*
X177580000Y-129183345D01*
X178153489Y-129069271D01*
X178639670Y-128744415D01*
X178964526Y-128258234D01*
X179078600Y-127684745D01*
X179078600Y-127315255D01*
X178964526Y-126741766D01*
X178639670Y-126255585D01*
X178299017Y-126027968D01*
X178282148Y-125943161D01*
X178117401Y-125696599D01*
X175883401Y-123462599D01*
X175636839Y-123297852D01*
X175346000Y-123240000D01*
X160314802Y-123240000D01*
X160013828Y-122939026D01*
X175892642Y-122939026D01*
X175895291Y-122954791D01*
X176149268Y-123482036D01*
X176585680Y-123871954D01*
X177138087Y-124065184D01*
X177373000Y-123920924D01*
X177373000Y-122707000D01*
X177627000Y-122707000D01*
X177627000Y-123920924D01*
X177861913Y-124065184D01*
X178414320Y-123871954D01*
X178850732Y-123482036D01*
X179104709Y-122954791D01*
X179107358Y-122939026D01*
X178986217Y-122707000D01*
X177627000Y-122707000D01*
X177373000Y-122707000D01*
X176013783Y-122707000D01*
X175892642Y-122939026D01*
X160013828Y-122939026D01*
X159760000Y-122685198D01*
X159760000Y-120562463D01*
X159792192Y-120530327D01*
X159934838Y-120186799D01*
X159935162Y-119814833D01*
X159793117Y-119471057D01*
X159530327Y-119207808D01*
X159186799Y-119065162D01*
X158814833Y-119064838D01*
X158471057Y-119206883D01*
X158207808Y-119469673D01*
X158065162Y-119813201D01*
X158064838Y-120185167D01*
X158206883Y-120528943D01*
X158240000Y-120562118D01*
X158240000Y-121417847D01*
X158030327Y-121207808D01*
X157686799Y-121065162D01*
X157314833Y-121064838D01*
X156971057Y-121206883D01*
X156707808Y-121469673D01*
X156565162Y-121813201D01*
X156564838Y-122185167D01*
X150127000Y-122185167D01*
X150127000Y-93885167D01*
X150864838Y-93885167D01*
X151006883Y-94228943D01*
X151269673Y-94492192D01*
X151613201Y-94634838D01*
X151985167Y-94635162D01*
X152328943Y-94493117D01*
X152592192Y-94230327D01*
X152734838Y-93886799D01*
X152735162Y-93514833D01*
X152593117Y-93171057D01*
X152460000Y-93037707D01*
X152460000Y-92585750D01*
X153715000Y-92585750D01*
X153715000Y-92801310D01*
X153811673Y-93034699D01*
X153990302Y-93213327D01*
X154223691Y-93310000D01*
X154664250Y-93310000D01*
X154823000Y-93151250D01*
X154823000Y-92427000D01*
X153873750Y-92427000D01*
X153715000Y-92585750D01*
X152460000Y-92585750D01*
X152460000Y-92414802D01*
X153076112Y-91798690D01*
X153715000Y-91798690D01*
X153715000Y-92014250D01*
X153873750Y-92173000D01*
X154823000Y-92173000D01*
X154823000Y-91448750D01*
X155077000Y-91448750D01*
X155077000Y-92173000D01*
X155097000Y-92173000D01*
X155097000Y-92427000D01*
X155077000Y-92427000D01*
X155077000Y-93151250D01*
X155235750Y-93310000D01*
X155676309Y-93310000D01*
X155909698Y-93213327D01*
X155911068Y-93211957D01*
X155998110Y-93271431D01*
X156250000Y-93322440D01*
X157450000Y-93322440D01*
X157685317Y-93278162D01*
X157901441Y-93139090D01*
X158046431Y-92926890D01*
X158080227Y-92760000D01*
X158940000Y-92760000D01*
X158940000Y-98700000D01*
X158997852Y-98990839D01*
X159162599Y-99237401D01*
X159962599Y-100037401D01*
X160209161Y-100202148D01*
X160500000Y-100260000D01*
X166337537Y-100260000D01*
X166369673Y-100292192D01*
X166713201Y-100434838D01*
X167085167Y-100435162D01*
X167428943Y-100293117D01*
X167692192Y-100030327D01*
X167834838Y-99686799D01*
X167835162Y-99314833D01*
X167693117Y-98971057D01*
X167430327Y-98707808D01*
X167086799Y-98565162D01*
X166714833Y-98564838D01*
X166371057Y-98706883D01*
X166337882Y-98740000D01*
X160814802Y-98740000D01*
X160460000Y-98385198D01*
X160460000Y-92562463D01*
X160492192Y-92530327D01*
X160634838Y-92186799D01*
X160635162Y-91814833D01*
X160493117Y-91471057D01*
X160230327Y-91207808D01*
X159886799Y-91065162D01*
X159514833Y-91064838D01*
X159171057Y-91206883D01*
X159137882Y-91240000D01*
X157150000Y-91240000D01*
X156961175Y-91277560D01*
X156250000Y-91277560D01*
X156014683Y-91321838D01*
X155911354Y-91388329D01*
X155909698Y-91386673D01*
X155676309Y-91290000D01*
X155235750Y-91290000D01*
X155077000Y-91448750D01*
X154823000Y-91448750D01*
X154664250Y-91290000D01*
X154223691Y-91290000D01*
X153990302Y-91386673D01*
X153811673Y-91565301D01*
X153715000Y-91798690D01*
X153076112Y-91798690D01*
X153914802Y-90960000D01*
X165000000Y-90960000D01*
X165290839Y-90902148D01*
X165537401Y-90737401D01*
X172894802Y-83380000D01*
X175655352Y-83380000D01*
X175855585Y-83679670D01*
X176170366Y-83890000D01*
X175855585Y-84100330D01*
X175530729Y-84586511D01*
X175416655Y-85160000D01*
X175530729Y-85733489D01*
X175855585Y-86219670D01*
X176170366Y-86430000D01*
X175855585Y-86640330D01*
X175530729Y-87126511D01*
X175416655Y-87700000D01*
X175530729Y-88273489D01*
X175855585Y-88759670D01*
X176170366Y-88970000D01*
X175855585Y-89180330D01*
X175530729Y-89666511D01*
X175416655Y-90240000D01*
X175530729Y-90813489D01*
X175855585Y-91299670D01*
X176170366Y-91510000D01*
X175855585Y-91720330D01*
X175530729Y-92206511D01*
X175416655Y-92780000D01*
X175530729Y-93353489D01*
X175855585Y-93839670D01*
X176170366Y-94050000D01*
X175855585Y-94260330D01*
X175530729Y-94746511D01*
X175416655Y-95320000D01*
X175530729Y-95893489D01*
X175855585Y-96379670D01*
X176170366Y-96590000D01*
X175855585Y-96800330D01*
X175530729Y-97286511D01*
X175416655Y-97860000D01*
X175530729Y-98433489D01*
X175855585Y-98919670D01*
X175869913Y-98929243D01*
X175848683Y-98933238D01*
X175632559Y-99072310D01*
X175487569Y-99284510D01*
X175436560Y-99536400D01*
X175436560Y-101263600D01*
X175480838Y-101498917D01*
X175619910Y-101715041D01*
X175832110Y-101860031D01*
X176084000Y-101911040D01*
X178116000Y-101911040D01*
X178351317Y-101866762D01*
X178567441Y-101727690D01*
X178712431Y-101515490D01*
X178763440Y-101263600D01*
X178763440Y-99536400D01*
X178719162Y-99301083D01*
X178580090Y-99084959D01*
X178367890Y-98939969D01*
X178326561Y-98931600D01*
X178344415Y-98919670D01*
X178669271Y-98433489D01*
X178783345Y-97860000D01*
X178669271Y-97286511D01*
X178344415Y-96800330D01*
X178029634Y-96590000D01*
X178344415Y-96379670D01*
X178669271Y-95893489D01*
X178783345Y-95320000D01*
X178669271Y-94746511D01*
X178344415Y-94260330D01*
X178029634Y-94050000D01*
X178344415Y-93839670D01*
X178669271Y-93353489D01*
X178783345Y-92780000D01*
X178669271Y-92206511D01*
X178344415Y-91720330D01*
X178029634Y-91510000D01*
X178344415Y-91299670D01*
X178669271Y-90813489D01*
X178783345Y-90240000D01*
X178669271Y-89666511D01*
X178344415Y-89180330D01*
X178029634Y-88970000D01*
X178344415Y-88759670D01*
X178669271Y-88273489D01*
X178783345Y-87700000D01*
X178669271Y-87126511D01*
X178344415Y-86640330D01*
X178029634Y-86430000D01*
X178344415Y-86219670D01*
X178669271Y-85733489D01*
X178783345Y-85160000D01*
X178669271Y-84586511D01*
X178344415Y-84100330D01*
X178029634Y-83890000D01*
X178344415Y-83679670D01*
X178669271Y-83193489D01*
X178783345Y-82620000D01*
X178669271Y-82046511D01*
X178344415Y-81560330D01*
X177858234Y-81235474D01*
X177284745Y-81121400D01*
X176915255Y-81121400D01*
X176341766Y-81235474D01*
X175855585Y-81560330D01*
X175655352Y-81860000D01*
X172580000Y-81860000D01*
X172289161Y-81917852D01*
X172042599Y-82082599D01*
X164685198Y-89440000D01*
X153600000Y-89440000D01*
X153309161Y-89497852D01*
X153062599Y-89662599D01*
X151162599Y-91562599D01*
X150997852Y-91809161D01*
X150940000Y-92100000D01*
X150940000Y-93332972D01*
X150865162Y-93513201D01*
X150864838Y-93885167D01*
X150127000Y-93885167D01*
X150127000Y-83660478D01*
X158181632Y-83660478D01*
X158365348Y-84034361D01*
X158689851Y-84322108D01*
X159099769Y-84463769D01*
X159273900Y-84315103D01*
X159273900Y-83489540D01*
X159527900Y-83489540D01*
X159527900Y-84315103D01*
X159702031Y-84463769D01*
X160111949Y-84322108D01*
X160436452Y-84034361D01*
X160620168Y-83660478D01*
X163181632Y-83660478D01*
X163365348Y-84034361D01*
X163689851Y-84322108D01*
X164099769Y-84463769D01*
X164273900Y-84315103D01*
X164273900Y-83489540D01*
X164527900Y-83489540D01*
X164527900Y-84315103D01*
X164702031Y-84463769D01*
X165111949Y-84322108D01*
X165436452Y-84034361D01*
X165620168Y-83660478D01*
X165493634Y-83489540D01*
X164527900Y-83489540D01*
X164273900Y-83489540D01*
X163308166Y-83489540D01*
X163181632Y-83660478D01*
X160620168Y-83660478D01*
X160493634Y-83489540D01*
X159527900Y-83489540D01*
X159273900Y-83489540D01*
X158308166Y-83489540D01*
X158181632Y-83660478D01*
X150127000Y-83660478D01*
X150127000Y-83064602D01*
X158181632Y-83064602D01*
X158308166Y-83235540D01*
X159273900Y-83235540D01*
X159273900Y-82409977D01*
X159527900Y-82409977D01*
X159527900Y-83235540D01*
X160493634Y-83235540D01*
X160620168Y-83064602D01*
X163181632Y-83064602D01*
X163308166Y-83235540D01*
X164273900Y-83235540D01*
X164273900Y-82409977D01*
X164527900Y-82409977D01*
X164527900Y-83235540D01*
X165493634Y-83235540D01*
X165620168Y-83064602D01*
X165436452Y-82690719D01*
X165111949Y-82402972D01*
X164702031Y-82261311D01*
X164527900Y-82409977D01*
X164273900Y-82409977D01*
X164099769Y-82261311D01*
X163689851Y-82402972D01*
X163365348Y-82690719D01*
X163181632Y-83064602D01*
X160620168Y-83064602D01*
X160436452Y-82690719D01*
X160111949Y-82402972D01*
X159702031Y-82261311D01*
X159527900Y-82409977D01*
X159273900Y-82409977D01*
X159099769Y-82261311D01*
X158689851Y-82402972D01*
X158365348Y-82690719D01*
X158181632Y-83064602D01*
X150127000Y-83064602D01*
X150127000Y-80789540D01*
X157265900Y-80789540D01*
X157265900Y-81064540D01*
X157400898Y-81489218D01*
X157688137Y-81829908D01*
X158099026Y-82031659D01*
X158273900Y-81905494D01*
X158273900Y-80789540D01*
X158527900Y-80789540D01*
X158527900Y-81905494D01*
X158702774Y-82031659D01*
X159113663Y-81829908D01*
X159400902Y-81489218D01*
X159535900Y-81064540D01*
X159535900Y-80789540D01*
X164265900Y-80789540D01*
X164265900Y-81064540D01*
X164400898Y-81489218D01*
X164688137Y-81829908D01*
X165099026Y-82031659D01*
X165273900Y-81905494D01*
X165273900Y-80789540D01*
X165527900Y-80789540D01*
X165527900Y-81905494D01*
X165702774Y-82031659D01*
X166113663Y-81829908D01*
X166400902Y-81489218D01*
X166535900Y-81064540D01*
X166535900Y-80789540D01*
X165527900Y-80789540D01*
X165273900Y-80789540D01*
X164265900Y-80789540D01*
X159535900Y-80789540D01*
X158527900Y-80789540D01*
X158273900Y-80789540D01*
X157265900Y-80789540D01*
X150127000Y-80789540D01*
X150127000Y-80260540D01*
X157265900Y-80260540D01*
X157265900Y-80535540D01*
X158273900Y-80535540D01*
X158273900Y-79419586D01*
X158527900Y-79419586D01*
X158527900Y-80535540D01*
X159535900Y-80535540D01*
X159535900Y-80260540D01*
X164265900Y-80260540D01*
X164265900Y-80535540D01*
X165273900Y-80535540D01*
X165273900Y-79419586D01*
X165527900Y-79419586D01*
X165527900Y-80535540D01*
X166535900Y-80535540D01*
X166535900Y-80260540D01*
X166400902Y-79835862D01*
X166113663Y-79495172D01*
X165702774Y-79293421D01*
X165527900Y-79419586D01*
X165273900Y-79419586D01*
X165099026Y-79293421D01*
X164688137Y-79495172D01*
X164400898Y-79835862D01*
X164265900Y-80260540D01*
X159535900Y-80260540D01*
X159400902Y-79835862D01*
X159113663Y-79495172D01*
X158702774Y-79293421D01*
X158527900Y-79419586D01*
X158273900Y-79419586D01*
X158099026Y-79293421D01*
X157688137Y-79495172D01*
X157400898Y-79835862D01*
X157265900Y-80260540D01*
X150127000Y-80260540D01*
X150127000Y-78127000D01*
X179873000Y-78127000D01*
X179873000Y-116465538D01*
X179873000Y-116465538D01*
G37*
X179873000Y-116465538D02*
X179737401Y-116262599D01*
X179248791Y-115773989D01*
X179013585Y-115616830D01*
X179069271Y-115533489D01*
X179183345Y-114960000D01*
X179069271Y-114386511D01*
X178744415Y-113900330D01*
X178429634Y-113690000D01*
X178744415Y-113479670D01*
X179069271Y-112993489D01*
X179183345Y-112420000D01*
X179069271Y-111846511D01*
X178744415Y-111360330D01*
X178429634Y-111150000D01*
X178744415Y-110939670D01*
X179069271Y-110453489D01*
X179183345Y-109880000D01*
X179069271Y-109306511D01*
X178744415Y-108820330D01*
X178429634Y-108610000D01*
X178744415Y-108399670D01*
X179069271Y-107913489D01*
X179183345Y-107340000D01*
X179069271Y-106766511D01*
X178744415Y-106280330D01*
X178730087Y-106270757D01*
X178751317Y-106266762D01*
X178967441Y-106127690D01*
X179112431Y-105915490D01*
X179163440Y-105663600D01*
X179163440Y-103936400D01*
X179119162Y-103701083D01*
X178980090Y-103484959D01*
X178767890Y-103339969D01*
X178516000Y-103288960D01*
X176484000Y-103288960D01*
X176248683Y-103333238D01*
X176032559Y-103472310D01*
X175887569Y-103684510D01*
X175836560Y-103936400D01*
X175836560Y-104040000D01*
X161814802Y-104040000D01*
X160437401Y-102662599D01*
X160190839Y-102497852D01*
X159900000Y-102440000D01*
X159260000Y-102440000D01*
X159260000Y-100562463D01*
X159292192Y-100530327D01*
X159434838Y-100186799D01*
X159435162Y-99814833D01*
X159293117Y-99471057D01*
X159030327Y-99207808D01*
X158686799Y-99065162D01*
X158314833Y-99064838D01*
X157971057Y-99206883D01*
X157707808Y-99469673D01*
X157565162Y-99813201D01*
X157564838Y-100185167D01*
X157706883Y-100528943D01*
X157740000Y-100562118D01*
X157740000Y-105937537D01*
X157707808Y-105969673D01*
X157565162Y-106313201D01*
X157564838Y-106685167D01*
X157706883Y-107028943D01*
X157969673Y-107292192D01*
X158313201Y-107434838D01*
X158685167Y-107435162D01*
X159028943Y-107293117D01*
X159292192Y-107030327D01*
X159434838Y-106686799D01*
X159435162Y-106314833D01*
X159293117Y-105971057D01*
X159260000Y-105937882D01*
X159260000Y-103960000D01*
X159585198Y-103960000D01*
X160962599Y-105337401D01*
X161209161Y-105502148D01*
X161500000Y-105560000D01*
X175836560Y-105560000D01*
X175836560Y-105663600D01*
X175880838Y-105898917D01*
X176019910Y-106115041D01*
X176232110Y-106260031D01*
X176273439Y-106268400D01*
X176255585Y-106280330D01*
X176055352Y-106580000D01*
X166960000Y-106580000D01*
X166669161Y-106637852D01*
X166422599Y-106802599D01*
X164085198Y-109140000D01*
X162762463Y-109140000D01*
X162730327Y-109107808D01*
X162386799Y-108965162D01*
X162014833Y-108964838D01*
X161671057Y-109106883D01*
X161407808Y-109369673D01*
X161265162Y-109713201D01*
X161264838Y-110085167D01*
X161406883Y-110428943D01*
X161669673Y-110692192D01*
X162013201Y-110834838D01*
X162385167Y-110835162D01*
X162728943Y-110693117D01*
X162762118Y-110660000D01*
X164400000Y-110660000D01*
X164690839Y-110602148D01*
X164937401Y-110437401D01*
X167274802Y-108100000D01*
X167725198Y-108100000D01*
X166560320Y-109264878D01*
X166514833Y-109264838D01*
X166171057Y-109406883D01*
X165907808Y-109669673D01*
X165765162Y-110013201D01*
X165764838Y-110385167D01*
X165906883Y-110728943D01*
X166169673Y-110992192D01*
X166513201Y-111134838D01*
X166885167Y-111135162D01*
X167228943Y-110993117D01*
X167492192Y-110730327D01*
X167634838Y-110386799D01*
X167634879Y-110339923D01*
X169014802Y-108960000D01*
X172037537Y-108960000D01*
X172069673Y-108992192D01*
X172413201Y-109134838D01*
X172785167Y-109135162D01*
X173128943Y-108993117D01*
X173392192Y-108730327D01*
X173534838Y-108386799D01*
X173535088Y-108100000D01*
X176055352Y-108100000D01*
X176255585Y-108399670D01*
X176570366Y-108610000D01*
X176255585Y-108820330D01*
X176027968Y-109160983D01*
X175943161Y-109177852D01*
X175696599Y-109342599D01*
X173799198Y-111240000D01*
X159314802Y-111240000D01*
X157935122Y-109860320D01*
X157935162Y-109814833D01*
X157793117Y-109471057D01*
X157530327Y-109207808D01*
X157186799Y-109065162D01*
X156814833Y-109064838D01*
X156471057Y-109206883D01*
X156207808Y-109469673D01*
X156065162Y-109813201D01*
X156064838Y-110185167D01*
X156206883Y-110528943D01*
X156469673Y-110792192D01*
X156813201Y-110934838D01*
X156860077Y-110934879D01*
X157851465Y-111926267D01*
X157707808Y-112069673D01*
X157565162Y-112413201D01*
X157564838Y-112785167D01*
X157706883Y-113128943D01*
X157969673Y-113392192D01*
X158313201Y-113534838D01*
X158685167Y-113535162D01*
X159028943Y-113393117D01*
X159162293Y-113260000D01*
X163489531Y-113260000D01*
X163416199Y-113308999D01*
X162860320Y-113864878D01*
X162814833Y-113864838D01*
X162471057Y-114006883D01*
X162207808Y-114269673D01*
X162065162Y-114613201D01*
X162064838Y-114985167D01*
X162206883Y-115328943D01*
X162469673Y-115592192D01*
X162813201Y-115734838D01*
X163185167Y-115735162D01*
X163528943Y-115593117D01*
X163792192Y-115330327D01*
X163934838Y-114986799D01*
X163934879Y-114939923D01*
X164072088Y-114802714D01*
X164206883Y-115128943D01*
X164469673Y-115392192D01*
X164813201Y-115534838D01*
X165185167Y-115535162D01*
X165528943Y-115393117D01*
X165562118Y-115360000D01*
X173785198Y-115360000D01*
X175165198Y-116740000D01*
X167100000Y-116740000D01*
X166809161Y-116797852D01*
X166562599Y-116962599D01*
X165385198Y-118140000D01*
X163162463Y-118140000D01*
X163130327Y-118107808D01*
X162786799Y-117965162D01*
X162414833Y-117964838D01*
X162071057Y-118106883D01*
X161807808Y-118369673D01*
X161665162Y-118713201D01*
X161664838Y-119085167D01*
X161806883Y-119428943D01*
X162069673Y-119692192D01*
X162413201Y-119834838D01*
X162785167Y-119835162D01*
X163128943Y-119693117D01*
X163162118Y-119660000D01*
X165700000Y-119660000D01*
X165990839Y-119602148D01*
X166237401Y-119437401D01*
X167414802Y-118260000D01*
X176055352Y-118260000D01*
X176255585Y-118559670D01*
X176570366Y-118770000D01*
X176255585Y-118980330D01*
X175930729Y-119466511D01*
X175816655Y-120040000D01*
X175930729Y-120613489D01*
X176255585Y-121099670D01*
X176565069Y-121306461D01*
X176149268Y-121677964D01*
X175895291Y-122205209D01*
X175892642Y-122220974D01*
X176013783Y-122453000D01*
X177373000Y-122453000D01*
X177373000Y-122433000D01*
X177627000Y-122433000D01*
X177627000Y-122453000D01*
X178986217Y-122453000D01*
X179107358Y-122220974D01*
X179104709Y-122205209D01*
X178850732Y-121677964D01*
X178434931Y-121306461D01*
X178744415Y-121099670D01*
X178972032Y-120759017D01*
X179056839Y-120742148D01*
X179303401Y-120577401D01*
X179737401Y-120143401D01*
X179873000Y-119940462D01*
X179873000Y-129873000D01*
X150127000Y-129873000D01*
X150127000Y-122185167D01*
X156564838Y-122185167D01*
X156706883Y-122528943D01*
X156740000Y-122562118D01*
X156740000Y-123136411D01*
X156797852Y-123427250D01*
X156962599Y-123673812D01*
X158276199Y-124987412D01*
X158522761Y-125152159D01*
X158813600Y-125210011D01*
X171827609Y-125210011D01*
X172445161Y-125827563D01*
X171926511Y-125930729D01*
X171440330Y-126255585D01*
X171230000Y-126570366D01*
X171019670Y-126255585D01*
X170533489Y-125930729D01*
X169960000Y-125816655D01*
X169386511Y-125930729D01*
X168900330Y-126255585D01*
X168690000Y-126570366D01*
X168479670Y-126255585D01*
X167993489Y-125930729D01*
X167420000Y-125816655D01*
X166846511Y-125930729D01*
X166360330Y-126255585D01*
X166150000Y-126570366D01*
X165939670Y-126255585D01*
X165453489Y-125930729D01*
X164880000Y-125816655D01*
X164306511Y-125930729D01*
X163820330Y-126255585D01*
X163610000Y-126570366D01*
X163399670Y-126255585D01*
X162913489Y-125930729D01*
X162340000Y-125816655D01*
X161766511Y-125930729D01*
X161280330Y-126255585D01*
X161270757Y-126269913D01*
X161266762Y-126248683D01*
X161127690Y-126032559D01*
X160915490Y-125887569D01*
X160663600Y-125836560D01*
X158936400Y-125836560D01*
X158701083Y-125880838D01*
X158484959Y-126019910D01*
X158339969Y-126232110D01*
X158288960Y-126484000D01*
X158288960Y-128516000D01*
X158333238Y-128751317D01*
X158472310Y-128967441D01*
X158684510Y-129112431D01*
X158936400Y-129163440D01*
X160663600Y-129163440D01*
X160898917Y-129119162D01*
X161115041Y-128980090D01*
X161260031Y-128767890D01*
X161268400Y-128726561D01*
X161280330Y-128744415D01*
X161766511Y-129069271D01*
X162340000Y-129183345D01*
X162913489Y-129069271D01*
X163399670Y-128744415D01*
X163610000Y-128429634D01*
X163820330Y-128744415D01*
X164306511Y-129069271D01*
X164880000Y-129183345D01*
X165453489Y-129069271D01*
X165939670Y-128744415D01*
X166150000Y-128429634D01*
X166360330Y-128744415D01*
X166846511Y-129069271D01*
X167420000Y-129183345D01*
X167993489Y-129069271D01*
X168479670Y-128744415D01*
X168690000Y-128429634D01*
X168900330Y-128744415D01*
X169386511Y-129069271D01*
X169960000Y-129183345D01*
X170533489Y-129069271D01*
X171019670Y-128744415D01*
X171230000Y-128429634D01*
X171440330Y-128744415D01*
X171926511Y-129069271D01*
X172500000Y-129183345D01*
X173073489Y-129069271D01*
X173559670Y-128744415D01*
X173770000Y-128429634D01*
X173980330Y-128744415D01*
X174466511Y-129069271D01*
X175040000Y-129183345D01*
X175613489Y-129069271D01*
X176099670Y-128744415D01*
X176310000Y-128429634D01*
X176520330Y-128744415D01*
X177006511Y-129069271D01*
X177580000Y-129183345D01*
X178153489Y-129069271D01*
X178639670Y-128744415D01*
X178964526Y-128258234D01*
X179078600Y-127684745D01*
X179078600Y-127315255D01*
X178964526Y-126741766D01*
X178639670Y-126255585D01*
X178299017Y-126027968D01*
X178282148Y-125943161D01*
X178117401Y-125696599D01*
X175883401Y-123462599D01*
X175636839Y-123297852D01*
X175346000Y-123240000D01*
X160314802Y-123240000D01*
X160013828Y-122939026D01*
X175892642Y-122939026D01*
X175895291Y-122954791D01*
X176149268Y-123482036D01*
X176585680Y-123871954D01*
X177138087Y-124065184D01*
X177373000Y-123920924D01*
X177373000Y-122707000D01*
X177627000Y-122707000D01*
X177627000Y-123920924D01*
X177861913Y-124065184D01*
X178414320Y-123871954D01*
X178850732Y-123482036D01*
X179104709Y-122954791D01*
X179107358Y-122939026D01*
X178986217Y-122707000D01*
X177627000Y-122707000D01*
X177373000Y-122707000D01*
X176013783Y-122707000D01*
X175892642Y-122939026D01*
X160013828Y-122939026D01*
X159760000Y-122685198D01*
X159760000Y-120562463D01*
X159792192Y-120530327D01*
X159934838Y-120186799D01*
X159935162Y-119814833D01*
X159793117Y-119471057D01*
X159530327Y-119207808D01*
X159186799Y-119065162D01*
X158814833Y-119064838D01*
X158471057Y-119206883D01*
X158207808Y-119469673D01*
X158065162Y-119813201D01*
X158064838Y-120185167D01*
X158206883Y-120528943D01*
X158240000Y-120562118D01*
X158240000Y-121417847D01*
X158030327Y-121207808D01*
X157686799Y-121065162D01*
X157314833Y-121064838D01*
X156971057Y-121206883D01*
X156707808Y-121469673D01*
X156565162Y-121813201D01*
X156564838Y-122185167D01*
X150127000Y-122185167D01*
X150127000Y-93885167D01*
X150864838Y-93885167D01*
X151006883Y-94228943D01*
X151269673Y-94492192D01*
X151613201Y-94634838D01*
X151985167Y-94635162D01*
X152328943Y-94493117D01*
X152592192Y-94230327D01*
X152734838Y-93886799D01*
X152735162Y-93514833D01*
X152593117Y-93171057D01*
X152460000Y-93037707D01*
X152460000Y-92585750D01*
X153715000Y-92585750D01*
X153715000Y-92801310D01*
X153811673Y-93034699D01*
X153990302Y-93213327D01*
X154223691Y-93310000D01*
X154664250Y-93310000D01*
X154823000Y-93151250D01*
X154823000Y-92427000D01*
X153873750Y-92427000D01*
X153715000Y-92585750D01*
X152460000Y-92585750D01*
X152460000Y-92414802D01*
X153076112Y-91798690D01*
X153715000Y-91798690D01*
X153715000Y-92014250D01*
X153873750Y-92173000D01*
X154823000Y-92173000D01*
X154823000Y-91448750D01*
X155077000Y-91448750D01*
X155077000Y-92173000D01*
X155097000Y-92173000D01*
X155097000Y-92427000D01*
X155077000Y-92427000D01*
X155077000Y-93151250D01*
X155235750Y-93310000D01*
X155676309Y-93310000D01*
X155909698Y-93213327D01*
X155911068Y-93211957D01*
X155998110Y-93271431D01*
X156250000Y-93322440D01*
X157450000Y-93322440D01*
X157685317Y-93278162D01*
X157901441Y-93139090D01*
X158046431Y-92926890D01*
X158080227Y-92760000D01*
X158940000Y-92760000D01*
X158940000Y-98700000D01*
X158997852Y-98990839D01*
X159162599Y-99237401D01*
X159962599Y-100037401D01*
X160209161Y-100202148D01*
X160500000Y-100260000D01*
X166337537Y-100260000D01*
X166369673Y-100292192D01*
X166713201Y-100434838D01*
X167085167Y-100435162D01*
X167428943Y-100293117D01*
X167692192Y-100030327D01*
X167834838Y-99686799D01*
X167835162Y-99314833D01*
X167693117Y-98971057D01*
X167430327Y-98707808D01*
X167086799Y-98565162D01*
X166714833Y-98564838D01*
X166371057Y-98706883D01*
X166337882Y-98740000D01*
X160814802Y-98740000D01*
X160460000Y-98385198D01*
X160460000Y-92562463D01*
X160492192Y-92530327D01*
X160634838Y-92186799D01*
X160635162Y-91814833D01*
X160493117Y-91471057D01*
X160230327Y-91207808D01*
X159886799Y-91065162D01*
X159514833Y-91064838D01*
X159171057Y-91206883D01*
X159137882Y-91240000D01*
X157150000Y-91240000D01*
X156961175Y-91277560D01*
X156250000Y-91277560D01*
X156014683Y-91321838D01*
X155911354Y-91388329D01*
X155909698Y-91386673D01*
X155676309Y-91290000D01*
X155235750Y-91290000D01*
X155077000Y-91448750D01*
X154823000Y-91448750D01*
X154664250Y-91290000D01*
X154223691Y-91290000D01*
X153990302Y-91386673D01*
X153811673Y-91565301D01*
X153715000Y-91798690D01*
X153076112Y-91798690D01*
X153914802Y-90960000D01*
X165000000Y-90960000D01*
X165290839Y-90902148D01*
X165537401Y-90737401D01*
X172894802Y-83380000D01*
X175655352Y-83380000D01*
X175855585Y-83679670D01*
X176170366Y-83890000D01*
X175855585Y-84100330D01*
X175530729Y-84586511D01*
X175416655Y-85160000D01*
X175530729Y-85733489D01*
X175855585Y-86219670D01*
X176170366Y-86430000D01*
X175855585Y-86640330D01*
X175530729Y-87126511D01*
X175416655Y-87700000D01*
X175530729Y-88273489D01*
X175855585Y-88759670D01*
X176170366Y-88970000D01*
X175855585Y-89180330D01*
X175530729Y-89666511D01*
X175416655Y-90240000D01*
X175530729Y-90813489D01*
X175855585Y-91299670D01*
X176170366Y-91510000D01*
X175855585Y-91720330D01*
X175530729Y-92206511D01*
X175416655Y-92780000D01*
X175530729Y-93353489D01*
X175855585Y-93839670D01*
X176170366Y-94050000D01*
X175855585Y-94260330D01*
X175530729Y-94746511D01*
X175416655Y-95320000D01*
X175530729Y-95893489D01*
X175855585Y-96379670D01*
X176170366Y-96590000D01*
X175855585Y-96800330D01*
X175530729Y-97286511D01*
X175416655Y-97860000D01*
X175530729Y-98433489D01*
X175855585Y-98919670D01*
X175869913Y-98929243D01*
X175848683Y-98933238D01*
X175632559Y-99072310D01*
X175487569Y-99284510D01*
X175436560Y-99536400D01*
X175436560Y-101263600D01*
X175480838Y-101498917D01*
X175619910Y-101715041D01*
X175832110Y-101860031D01*
X176084000Y-101911040D01*
X178116000Y-101911040D01*
X178351317Y-101866762D01*
X178567441Y-101727690D01*
X178712431Y-101515490D01*
X178763440Y-101263600D01*
X178763440Y-99536400D01*
X178719162Y-99301083D01*
X178580090Y-99084959D01*
X178367890Y-98939969D01*
X178326561Y-98931600D01*
X178344415Y-98919670D01*
X178669271Y-98433489D01*
X178783345Y-97860000D01*
X178669271Y-97286511D01*
X178344415Y-96800330D01*
X178029634Y-96590000D01*
X178344415Y-96379670D01*
X178669271Y-95893489D01*
X178783345Y-95320000D01*
X178669271Y-94746511D01*
X178344415Y-94260330D01*
X178029634Y-94050000D01*
X178344415Y-93839670D01*
X178669271Y-93353489D01*
X178783345Y-92780000D01*
X178669271Y-92206511D01*
X178344415Y-91720330D01*
X178029634Y-91510000D01*
X178344415Y-91299670D01*
X178669271Y-90813489D01*
X178783345Y-90240000D01*
X178669271Y-89666511D01*
X178344415Y-89180330D01*
X178029634Y-88970000D01*
X178344415Y-88759670D01*
X178669271Y-88273489D01*
X178783345Y-87700000D01*
X178669271Y-87126511D01*
X178344415Y-86640330D01*
X178029634Y-86430000D01*
X178344415Y-86219670D01*
X178669271Y-85733489D01*
X178783345Y-85160000D01*
X178669271Y-84586511D01*
X178344415Y-84100330D01*
X178029634Y-83890000D01*
X178344415Y-83679670D01*
X178669271Y-83193489D01*
X178783345Y-82620000D01*
X178669271Y-82046511D01*
X178344415Y-81560330D01*
X177858234Y-81235474D01*
X177284745Y-81121400D01*
X176915255Y-81121400D01*
X176341766Y-81235474D01*
X175855585Y-81560330D01*
X175655352Y-81860000D01*
X172580000Y-81860000D01*
X172289161Y-81917852D01*
X172042599Y-82082599D01*
X164685198Y-89440000D01*
X153600000Y-89440000D01*
X153309161Y-89497852D01*
X153062599Y-89662599D01*
X151162599Y-91562599D01*
X150997852Y-91809161D01*
X150940000Y-92100000D01*
X150940000Y-93332972D01*
X150865162Y-93513201D01*
X150864838Y-93885167D01*
X150127000Y-93885167D01*
X150127000Y-83660478D01*
X158181632Y-83660478D01*
X158365348Y-84034361D01*
X158689851Y-84322108D01*
X159099769Y-84463769D01*
X159273900Y-84315103D01*
X159273900Y-83489540D01*
X159527900Y-83489540D01*
X159527900Y-84315103D01*
X159702031Y-84463769D01*
X160111949Y-84322108D01*
X160436452Y-84034361D01*
X160620168Y-83660478D01*
X163181632Y-83660478D01*
X163365348Y-84034361D01*
X163689851Y-84322108D01*
X164099769Y-84463769D01*
X164273900Y-84315103D01*
X164273900Y-83489540D01*
X164527900Y-83489540D01*
X164527900Y-84315103D01*
X164702031Y-84463769D01*
X165111949Y-84322108D01*
X165436452Y-84034361D01*
X165620168Y-83660478D01*
X165493634Y-83489540D01*
X164527900Y-83489540D01*
X164273900Y-83489540D01*
X163308166Y-83489540D01*
X163181632Y-83660478D01*
X160620168Y-83660478D01*
X160493634Y-83489540D01*
X159527900Y-83489540D01*
X159273900Y-83489540D01*
X158308166Y-83489540D01*
X158181632Y-83660478D01*
X150127000Y-83660478D01*
X150127000Y-83064602D01*
X158181632Y-83064602D01*
X158308166Y-83235540D01*
X159273900Y-83235540D01*
X159273900Y-82409977D01*
X159527900Y-82409977D01*
X159527900Y-83235540D01*
X160493634Y-83235540D01*
X160620168Y-83064602D01*
X163181632Y-83064602D01*
X163308166Y-83235540D01*
X164273900Y-83235540D01*
X164273900Y-82409977D01*
X164527900Y-82409977D01*
X164527900Y-83235540D01*
X165493634Y-83235540D01*
X165620168Y-83064602D01*
X165436452Y-82690719D01*
X165111949Y-82402972D01*
X164702031Y-82261311D01*
X164527900Y-82409977D01*
X164273900Y-82409977D01*
X164099769Y-82261311D01*
X163689851Y-82402972D01*
X163365348Y-82690719D01*
X163181632Y-83064602D01*
X160620168Y-83064602D01*
X160436452Y-82690719D01*
X160111949Y-82402972D01*
X159702031Y-82261311D01*
X159527900Y-82409977D01*
X159273900Y-82409977D01*
X159099769Y-82261311D01*
X158689851Y-82402972D01*
X158365348Y-82690719D01*
X158181632Y-83064602D01*
X150127000Y-83064602D01*
X150127000Y-80789540D01*
X157265900Y-80789540D01*
X157265900Y-81064540D01*
X157400898Y-81489218D01*
X157688137Y-81829908D01*
X158099026Y-82031659D01*
X158273900Y-81905494D01*
X158273900Y-80789540D01*
X158527900Y-80789540D01*
X158527900Y-81905494D01*
X158702774Y-82031659D01*
X159113663Y-81829908D01*
X159400902Y-81489218D01*
X159535900Y-81064540D01*
X159535900Y-80789540D01*
X164265900Y-80789540D01*
X164265900Y-81064540D01*
X164400898Y-81489218D01*
X164688137Y-81829908D01*
X165099026Y-82031659D01*
X165273900Y-81905494D01*
X165273900Y-80789540D01*
X165527900Y-80789540D01*
X165527900Y-81905494D01*
X165702774Y-82031659D01*
X166113663Y-81829908D01*
X166400902Y-81489218D01*
X166535900Y-81064540D01*
X166535900Y-80789540D01*
X165527900Y-80789540D01*
X165273900Y-80789540D01*
X164265900Y-80789540D01*
X159535900Y-80789540D01*
X158527900Y-80789540D01*
X158273900Y-80789540D01*
X157265900Y-80789540D01*
X150127000Y-80789540D01*
X150127000Y-80260540D01*
X157265900Y-80260540D01*
X157265900Y-80535540D01*
X158273900Y-80535540D01*
X158273900Y-79419586D01*
X158527900Y-79419586D01*
X158527900Y-80535540D01*
X159535900Y-80535540D01*
X159535900Y-80260540D01*
X164265900Y-80260540D01*
X164265900Y-80535540D01*
X165273900Y-80535540D01*
X165273900Y-79419586D01*
X165527900Y-79419586D01*
X165527900Y-80535540D01*
X166535900Y-80535540D01*
X166535900Y-80260540D01*
X166400902Y-79835862D01*
X166113663Y-79495172D01*
X165702774Y-79293421D01*
X165527900Y-79419586D01*
X165273900Y-79419586D01*
X165099026Y-79293421D01*
X164688137Y-79495172D01*
X164400898Y-79835862D01*
X164265900Y-80260540D01*
X159535900Y-80260540D01*
X159400902Y-79835862D01*
X159113663Y-79495172D01*
X158702774Y-79293421D01*
X158527900Y-79419586D01*
X158273900Y-79419586D01*
X158099026Y-79293421D01*
X157688137Y-79495172D01*
X157400898Y-79835862D01*
X157265900Y-80260540D01*
X150127000Y-80260540D01*
X150127000Y-78127000D01*
X179873000Y-78127000D01*
X179873000Y-116465538D01*
M02*
