G04 #@! TF.FileFunction,Legend,Top*
%FSLAX46Y46*%
G04 Gerber Fmt 4.6, Leading zero omitted, Abs format (unit mm)*
G04 Created by KiCad (PCBNEW 4.0.4-stable) date Fri Nov 25 15:40:38 2016*
%MOMM*%
%LPD*%
G01*
G04 APERTURE LIST*
%ADD10C,0.100000*%
%ADD11C,0.150000*%
G04 APERTURE END LIST*
D10*
D11*
X160500000Y-98647500D02*
X164500000Y-98647500D01*
X159225000Y-93352500D02*
X164500000Y-93352500D01*
X162850000Y-102100000D02*
X163550000Y-102100000D01*
X163550000Y-103300000D02*
X162850000Y-103300000D01*
X157850000Y-87600000D02*
X157150000Y-87600000D01*
X157150000Y-86400000D02*
X157850000Y-86400000D01*
X167100000Y-88400000D02*
X167800000Y-88400000D01*
X167800000Y-89600000D02*
X167100000Y-89600000D01*
X169250000Y-97600000D02*
X169950000Y-97600000D01*
X169950000Y-98800000D02*
X169250000Y-98800000D01*
X152300000Y-117100000D02*
X152300000Y-116400000D01*
X153500000Y-116400000D02*
X153500000Y-117100000D01*
X161375000Y-108875000D02*
X161375000Y-109200000D01*
X168625000Y-108875000D02*
X168625000Y-109200000D01*
X168625000Y-116125000D02*
X168625000Y-115800000D01*
X161375000Y-116125000D02*
X161375000Y-115800000D01*
X161375000Y-108875000D02*
X161700000Y-108875000D01*
X161375000Y-116125000D02*
X161700000Y-116125000D01*
X168625000Y-116125000D02*
X168300000Y-116125000D01*
X168625000Y-108875000D02*
X168300000Y-108875000D01*
X161375000Y-109200000D02*
X159950000Y-109200000D01*
X170150000Y-88500000D02*
X170150000Y-89500000D01*
X171850000Y-89500000D02*
X171850000Y-88500000D01*
X166250900Y-77982540D02*
X157550900Y-77982540D01*
X166250900Y-84387540D02*
X157550900Y-84387540D01*
X157550900Y-84387540D02*
X157550900Y-77982540D01*
X157550900Y-79212540D02*
X166250900Y-79212540D01*
X166250900Y-77982540D02*
X166250900Y-84387540D01*
X161070000Y-128770000D02*
X178850000Y-128770000D01*
X178850000Y-128770000D02*
X178850000Y-126230000D01*
X178850000Y-126230000D02*
X161070000Y-126230000D01*
X158250000Y-129050000D02*
X159800000Y-129050000D01*
X161070000Y-128770000D02*
X161070000Y-126230000D01*
X159800000Y-125950000D02*
X158250000Y-125950000D01*
X158250000Y-125950000D02*
X158250000Y-129050000D01*
X178370000Y-99130000D02*
X178370000Y-81350000D01*
X178370000Y-81350000D02*
X175830000Y-81350000D01*
X175830000Y-81350000D02*
X175830000Y-99130000D01*
X178650000Y-101950000D02*
X178650000Y-100400000D01*
X178370000Y-99130000D02*
X175830000Y-99130000D01*
X175550000Y-100400000D02*
X175550000Y-101950000D01*
X175550000Y-101950000D02*
X178650000Y-101950000D01*
X176230000Y-106070000D02*
X176230000Y-123850000D01*
X176230000Y-123850000D02*
X178770000Y-123850000D01*
X178770000Y-123850000D02*
X178770000Y-106070000D01*
X175950000Y-103250000D02*
X175950000Y-104800000D01*
X176230000Y-106070000D02*
X178770000Y-106070000D01*
X179050000Y-104800000D02*
X179050000Y-103250000D01*
X179050000Y-103250000D02*
X175950000Y-103250000D01*
X164175000Y-88000000D02*
X164175000Y-89000000D01*
X162825000Y-89000000D02*
X162825000Y-88000000D01*
X162175000Y-88000000D02*
X162175000Y-89000000D01*
X160825000Y-89000000D02*
X160825000Y-88000000D01*
X161738095Y-91952381D02*
X161738095Y-92761905D01*
X161785714Y-92857143D01*
X161833333Y-92904762D01*
X161928571Y-92952381D01*
X162119048Y-92952381D01*
X162214286Y-92904762D01*
X162261905Y-92857143D01*
X162309524Y-92761905D01*
X162309524Y-91952381D01*
X163309524Y-92952381D02*
X162738095Y-92952381D01*
X163023809Y-92952381D02*
X163023809Y-91952381D01*
X162928571Y-92095238D01*
X162833333Y-92190476D01*
X162738095Y-92238095D01*
X163033334Y-101157143D02*
X162985715Y-101204762D01*
X162842858Y-101252381D01*
X162747620Y-101252381D01*
X162604762Y-101204762D01*
X162509524Y-101109524D01*
X162461905Y-101014286D01*
X162414286Y-100823810D01*
X162414286Y-100680952D01*
X162461905Y-100490476D01*
X162509524Y-100395238D01*
X162604762Y-100300000D01*
X162747620Y-100252381D01*
X162842858Y-100252381D01*
X162985715Y-100300000D01*
X163033334Y-100347619D01*
X163985715Y-101252381D02*
X163414286Y-101252381D01*
X163700000Y-101252381D02*
X163700000Y-100252381D01*
X163604762Y-100395238D01*
X163509524Y-100490476D01*
X163414286Y-100538095D01*
X156833334Y-88957143D02*
X156785715Y-89004762D01*
X156642858Y-89052381D01*
X156547620Y-89052381D01*
X156404762Y-89004762D01*
X156309524Y-88909524D01*
X156261905Y-88814286D01*
X156214286Y-88623810D01*
X156214286Y-88480952D01*
X156261905Y-88290476D01*
X156309524Y-88195238D01*
X156404762Y-88100000D01*
X156547620Y-88052381D01*
X156642858Y-88052381D01*
X156785715Y-88100000D01*
X156833334Y-88147619D01*
X157214286Y-88147619D02*
X157261905Y-88100000D01*
X157357143Y-88052381D01*
X157595239Y-88052381D01*
X157690477Y-88100000D01*
X157738096Y-88147619D01*
X157785715Y-88242857D01*
X157785715Y-88338095D01*
X157738096Y-88480952D01*
X157166667Y-89052381D01*
X157785715Y-89052381D01*
X167283334Y-87457143D02*
X167235715Y-87504762D01*
X167092858Y-87552381D01*
X166997620Y-87552381D01*
X166854762Y-87504762D01*
X166759524Y-87409524D01*
X166711905Y-87314286D01*
X166664286Y-87123810D01*
X166664286Y-86980952D01*
X166711905Y-86790476D01*
X166759524Y-86695238D01*
X166854762Y-86600000D01*
X166997620Y-86552381D01*
X167092858Y-86552381D01*
X167235715Y-86600000D01*
X167283334Y-86647619D01*
X168140477Y-86885714D02*
X168140477Y-87552381D01*
X167902381Y-86504762D02*
X167664286Y-87219048D01*
X168283334Y-87219048D01*
X169433334Y-96657143D02*
X169385715Y-96704762D01*
X169242858Y-96752381D01*
X169147620Y-96752381D01*
X169004762Y-96704762D01*
X168909524Y-96609524D01*
X168861905Y-96514286D01*
X168814286Y-96323810D01*
X168814286Y-96180952D01*
X168861905Y-95990476D01*
X168909524Y-95895238D01*
X169004762Y-95800000D01*
X169147620Y-95752381D01*
X169242858Y-95752381D01*
X169385715Y-95800000D01*
X169433334Y-95847619D01*
X170338096Y-95752381D02*
X169861905Y-95752381D01*
X169814286Y-96228571D01*
X169861905Y-96180952D01*
X169957143Y-96133333D01*
X170195239Y-96133333D01*
X170290477Y-96180952D01*
X170338096Y-96228571D01*
X170385715Y-96323810D01*
X170385715Y-96561905D01*
X170338096Y-96657143D01*
X170290477Y-96704762D01*
X170195239Y-96752381D01*
X169957143Y-96752381D01*
X169861905Y-96704762D01*
X169814286Y-96657143D01*
X151357143Y-116916666D02*
X151404762Y-116964285D01*
X151452381Y-117107142D01*
X151452381Y-117202380D01*
X151404762Y-117345238D01*
X151309524Y-117440476D01*
X151214286Y-117488095D01*
X151023810Y-117535714D01*
X150880952Y-117535714D01*
X150690476Y-117488095D01*
X150595238Y-117440476D01*
X150500000Y-117345238D01*
X150452381Y-117202380D01*
X150452381Y-117107142D01*
X150500000Y-116964285D01*
X150547619Y-116916666D01*
X150452381Y-116059523D02*
X150452381Y-116250000D01*
X150500000Y-116345238D01*
X150547619Y-116392857D01*
X150690476Y-116488095D01*
X150880952Y-116535714D01*
X151261905Y-116535714D01*
X151357143Y-116488095D01*
X151404762Y-116440476D01*
X151452381Y-116345238D01*
X151452381Y-116154761D01*
X151404762Y-116059523D01*
X151357143Y-116011904D01*
X151261905Y-115964285D01*
X151023810Y-115964285D01*
X150928571Y-116011904D01*
X150880952Y-116059523D01*
X150833333Y-116154761D01*
X150833333Y-116345238D01*
X150880952Y-116440476D01*
X150928571Y-116488095D01*
X151023810Y-116535714D01*
X164023810Y-106902381D02*
X164023810Y-105902381D01*
X165071429Y-106807143D02*
X165023810Y-106854762D01*
X164880953Y-106902381D01*
X164785715Y-106902381D01*
X164642857Y-106854762D01*
X164547619Y-106759524D01*
X164500000Y-106664286D01*
X164452381Y-106473810D01*
X164452381Y-106330952D01*
X164500000Y-106140476D01*
X164547619Y-106045238D01*
X164642857Y-105950000D01*
X164785715Y-105902381D01*
X164880953Y-105902381D01*
X165023810Y-105950000D01*
X165071429Y-105997619D01*
X166023810Y-106902381D02*
X165452381Y-106902381D01*
X165738095Y-106902381D02*
X165738095Y-105902381D01*
X165642857Y-106045238D01*
X165547619Y-106140476D01*
X165452381Y-106188095D01*
X173452381Y-89166666D02*
X173452381Y-89642857D01*
X172452381Y-89642857D01*
X173452381Y-88309523D02*
X173452381Y-88880952D01*
X173452381Y-88595238D02*
X172452381Y-88595238D01*
X172595238Y-88690476D01*
X172690476Y-88785714D01*
X172738095Y-88880952D01*
X161161905Y-85902381D02*
X161161905Y-84902381D01*
X161542858Y-84902381D01*
X161638096Y-84950000D01*
X161685715Y-84997619D01*
X161733334Y-85092857D01*
X161733334Y-85235714D01*
X161685715Y-85330952D01*
X161638096Y-85378571D01*
X161542858Y-85426190D01*
X161161905Y-85426190D01*
X162685715Y-85902381D02*
X162114286Y-85902381D01*
X162400000Y-85902381D02*
X162400000Y-84902381D01*
X162304762Y-85045238D01*
X162209524Y-85140476D01*
X162114286Y-85188095D01*
X159061905Y-124952381D02*
X159061905Y-123952381D01*
X159442858Y-123952381D01*
X159538096Y-124000000D01*
X159585715Y-124047619D01*
X159633334Y-124142857D01*
X159633334Y-124285714D01*
X159585715Y-124380952D01*
X159538096Y-124428571D01*
X159442858Y-124476190D01*
X159061905Y-124476190D01*
X160014286Y-124047619D02*
X160061905Y-124000000D01*
X160157143Y-123952381D01*
X160395239Y-123952381D01*
X160490477Y-124000000D01*
X160538096Y-124047619D01*
X160585715Y-124142857D01*
X160585715Y-124238095D01*
X160538096Y-124380952D01*
X159966667Y-124952381D01*
X160585715Y-124952381D01*
X176311905Y-80352381D02*
X176311905Y-79352381D01*
X176692858Y-79352381D01*
X176788096Y-79400000D01*
X176835715Y-79447619D01*
X176883334Y-79542857D01*
X176883334Y-79685714D01*
X176835715Y-79780952D01*
X176788096Y-79828571D01*
X176692858Y-79876190D01*
X176311905Y-79876190D01*
X177216667Y-79352381D02*
X177835715Y-79352381D01*
X177502381Y-79733333D01*
X177645239Y-79733333D01*
X177740477Y-79780952D01*
X177788096Y-79828571D01*
X177835715Y-79923810D01*
X177835715Y-80161905D01*
X177788096Y-80257143D01*
X177740477Y-80304762D01*
X177645239Y-80352381D01*
X177359524Y-80352381D01*
X177264286Y-80304762D01*
X177216667Y-80257143D01*
X175152381Y-105388095D02*
X174152381Y-105388095D01*
X174152381Y-105007142D01*
X174200000Y-104911904D01*
X174247619Y-104864285D01*
X174342857Y-104816666D01*
X174485714Y-104816666D01*
X174580952Y-104864285D01*
X174628571Y-104911904D01*
X174676190Y-105007142D01*
X174676190Y-105388095D01*
X174485714Y-103959523D02*
X175152381Y-103959523D01*
X174104762Y-104197619D02*
X174819048Y-104435714D01*
X174819048Y-103816666D01*
X165402381Y-90516666D02*
X164926190Y-90850000D01*
X165402381Y-91088095D02*
X164402381Y-91088095D01*
X164402381Y-90707142D01*
X164450000Y-90611904D01*
X164497619Y-90564285D01*
X164592857Y-90516666D01*
X164735714Y-90516666D01*
X164830952Y-90564285D01*
X164878571Y-90611904D01*
X164926190Y-90707142D01*
X164926190Y-91088095D01*
X165402381Y-89564285D02*
X165402381Y-90135714D01*
X165402381Y-89850000D02*
X164402381Y-89850000D01*
X164545238Y-89945238D01*
X164640476Y-90040476D01*
X164688095Y-90135714D01*
X160152381Y-90616666D02*
X159676190Y-90950000D01*
X160152381Y-91188095D02*
X159152381Y-91188095D01*
X159152381Y-90807142D01*
X159200000Y-90711904D01*
X159247619Y-90664285D01*
X159342857Y-90616666D01*
X159485714Y-90616666D01*
X159580952Y-90664285D01*
X159628571Y-90711904D01*
X159676190Y-90807142D01*
X159676190Y-91188095D01*
X159247619Y-90235714D02*
X159200000Y-90188095D01*
X159152381Y-90092857D01*
X159152381Y-89854761D01*
X159200000Y-89759523D01*
X159247619Y-89711904D01*
X159342857Y-89664285D01*
X159438095Y-89664285D01*
X159580952Y-89711904D01*
X160152381Y-90283333D01*
X160152381Y-89664285D01*
M02*
