M48
;DRILL file {KiCad 4.0.4-stable} date Fri Nov 25 15:40:43 2016
;FORMAT={-:-/ absolute / inch / decimal}
FMAT,2
INCH,TZ
T1C0.016
T2C0.020
T3C0.022
T4C0.040
%
G90
G05
M72
T1
X5.9764Y-3.689
X6.0157Y-4.4764
X6.0827Y-3.4252
X6.1299Y-4.4724
X6.1299Y-4.5236
X6.1811Y-4.3307
X6.2008Y-4.8031
X6.2244Y-3.8071
X6.2402Y-3.937
X6.2402Y-4.1929
X6.2402Y-4.4331
X6.2598Y-4.7244
X6.2874Y-3.622
X6.315Y-3.374
X6.3858Y-4.3268
X6.4016Y-4.6811
X6.4173Y-4.5197
X6.4961Y-4.5118
X6.5276Y-4.0433
X6.563Y-4.3386
X6.5709Y-3.9173
X6.5945Y-3.7717
X6.6339Y-3.5827
X6.7677Y-4.3701
X6.7795Y-3.8661
X6.7953Y-4.2598
T4
X6.2913Y-5.0197
X6.3913Y-5.0197
X6.4913Y-5.0197
X6.5913Y-5.0197
X6.6913Y-5.0197
X6.7913Y-5.0197
X6.8913Y-5.0197
X6.9724Y-3.2528
X6.9724Y-3.3528
X6.9724Y-3.4528
X6.9724Y-3.5528
X6.9724Y-3.6528
X6.9724Y-3.7528
X6.9724Y-3.8528
X6.9724Y-3.9528
X6.9882Y-4.126
X6.9882Y-4.226
X6.9882Y-4.326
X6.9882Y-4.426
X6.9882Y-4.526
X6.9882Y-4.626
X6.9882Y-4.726
X6.9882Y-4.826
X6.9913Y-5.0197
T2
X6.2363Y-3.1629G85X6.2363Y-3.1885
G05
X6.5118Y-3.1629G85X6.5118Y-3.1885
G05
T3
X6.2815Y-3.282G85X6.2697Y-3.282
G05
X6.4784Y-3.282G85X6.4666Y-3.282
G05
T0
M30
