G04 #@! TF.FileFunction,Legend,Bot*
%FSLAX46Y46*%
G04 Gerber Fmt 4.6, Leading zero omitted, Abs format (unit mm)*
G04 Created by KiCad (PCBNEW 4.0.4-stable) date Fri Dec  2 08:04:54 2016*
%MOMM*%
%LPD*%
G01*
G04 APERTURE LIST*
%ADD10C,0.100000*%
%ADD11C,0.150000*%
G04 APERTURE END LIST*
D10*
D11*
X212140000Y-108730000D02*
X212840000Y-108730000D01*
X212840000Y-107530000D02*
X212140000Y-107530000D01*
X213890000Y-120670000D02*
X214590000Y-120670000D01*
X214590000Y-119470000D02*
X213890000Y-119470000D01*
X212656666Y-110387143D02*
X212704285Y-110434762D01*
X212847142Y-110482381D01*
X212942380Y-110482381D01*
X213085238Y-110434762D01*
X213180476Y-110339524D01*
X213228095Y-110244286D01*
X213275714Y-110053810D01*
X213275714Y-109910952D01*
X213228095Y-109720476D01*
X213180476Y-109625238D01*
X213085238Y-109530000D01*
X212942380Y-109482381D01*
X212847142Y-109482381D01*
X212704285Y-109530000D01*
X212656666Y-109577619D01*
X212085238Y-109910952D02*
X212180476Y-109863333D01*
X212228095Y-109815714D01*
X212275714Y-109720476D01*
X212275714Y-109672857D01*
X212228095Y-109577619D01*
X212180476Y-109530000D01*
X212085238Y-109482381D01*
X211894761Y-109482381D01*
X211799523Y-109530000D01*
X211751904Y-109577619D01*
X211704285Y-109672857D01*
X211704285Y-109720476D01*
X211751904Y-109815714D01*
X211799523Y-109863333D01*
X211894761Y-109910952D01*
X212085238Y-109910952D01*
X212180476Y-109958571D01*
X212228095Y-110006190D01*
X212275714Y-110101429D01*
X212275714Y-110291905D01*
X212228095Y-110387143D01*
X212180476Y-110434762D01*
X212085238Y-110482381D01*
X211894761Y-110482381D01*
X211799523Y-110434762D01*
X211751904Y-110387143D01*
X211704285Y-110291905D01*
X211704285Y-110101429D01*
X211751904Y-110006190D01*
X211799523Y-109958571D01*
X211894761Y-109910952D01*
X215882857Y-118827143D02*
X215930476Y-118874762D01*
X216073333Y-118922381D01*
X216168571Y-118922381D01*
X216311429Y-118874762D01*
X216406667Y-118779524D01*
X216454286Y-118684286D01*
X216501905Y-118493810D01*
X216501905Y-118350952D01*
X216454286Y-118160476D01*
X216406667Y-118065238D01*
X216311429Y-117970000D01*
X216168571Y-117922381D01*
X216073333Y-117922381D01*
X215930476Y-117970000D01*
X215882857Y-118017619D01*
X214930476Y-118922381D02*
X215501905Y-118922381D01*
X215216191Y-118922381D02*
X215216191Y-117922381D01*
X215311429Y-118065238D01*
X215406667Y-118160476D01*
X215501905Y-118208095D01*
X214311429Y-117922381D02*
X214216190Y-117922381D01*
X214120952Y-117970000D01*
X214073333Y-118017619D01*
X214025714Y-118112857D01*
X213978095Y-118303333D01*
X213978095Y-118541429D01*
X214025714Y-118731905D01*
X214073333Y-118827143D01*
X214120952Y-118874762D01*
X214216190Y-118922381D01*
X214311429Y-118922381D01*
X214406667Y-118874762D01*
X214454286Y-118827143D01*
X214501905Y-118731905D01*
X214549524Y-118541429D01*
X214549524Y-118303333D01*
X214501905Y-118112857D01*
X214454286Y-118017619D01*
X214406667Y-117970000D01*
X214311429Y-117922381D01*
M02*
