G04 #@! TF.FileFunction,Soldermask,Bot*
%FSLAX46Y46*%
G04 Gerber Fmt 4.6, Leading zero omitted, Abs format (unit mm)*
G04 Created by KiCad (PCBNEW 4.0.4-stable) date Fri Nov 25 14:59:31 2016*
%MOMM*%
%LPD*%
G01*
G04 APERTURE LIST*
%ADD10C,0.100000*%
%ADD11C,1.901140*%
%ADD12R,1.600000X1.150000*%
%ADD13R,1.150000X1.600000*%
%ADD14R,2.300000X2.400000*%
%ADD15C,2.300000*%
%ADD16O,2.000000X2.000000*%
%ADD17C,1.924000*%
%ADD18C,3.100020*%
%ADD19R,2.432000X2.127200*%
%ADD20O,2.432000X2.127200*%
%ADD21R,2.127200X2.127200*%
%ADD22O,2.127200X2.127200*%
G04 APERTURE END LIST*
D10*
D11*
X214740000Y-98398120D03*
X214740000Y-103280000D03*
D12*
X211540000Y-108130000D03*
X213440000Y-108130000D03*
D13*
X207290000Y-125180000D03*
X207290000Y-127080000D03*
D14*
X229190000Y-94930000D03*
D15*
X226650000Y-94930000D03*
D16*
X206490000Y-122480000D03*
X206490000Y-119940000D03*
X206490000Y-117400000D03*
X206490000Y-114860000D03*
X206490000Y-112320000D03*
X206490000Y-109780000D03*
X206490000Y-107240000D03*
X206490000Y-104700000D03*
X206490000Y-102160000D03*
X206490000Y-99620000D03*
X206490000Y-97080000D03*
X206490000Y-94540000D03*
X206490000Y-92000000D03*
X206490000Y-89460000D03*
X198870000Y-89460000D03*
X198870000Y-92000000D03*
X198870000Y-94540000D03*
X198870000Y-97080000D03*
X198870000Y-99620000D03*
X198870000Y-102160000D03*
X198870000Y-104700000D03*
X198870000Y-107240000D03*
X198870000Y-109780000D03*
X198870000Y-112320000D03*
X198870000Y-114860000D03*
X198870000Y-117400000D03*
X198870000Y-119940000D03*
X198870000Y-122480000D03*
D17*
X223290000Y-76128980D03*
X220750000Y-76128980D03*
X220750000Y-74130000D03*
X223290000Y-74130000D03*
D18*
X228019480Y-71429980D03*
X216020520Y-71429980D03*
D19*
X235950000Y-132030000D03*
D20*
X235950000Y-129490000D03*
X235950000Y-126950000D03*
X235950000Y-124410000D03*
X235950000Y-121870000D03*
X235950000Y-119330000D03*
X235950000Y-116790000D03*
X235950000Y-114250000D03*
D19*
X235950000Y-110186000D03*
D20*
X235950000Y-107646000D03*
X235950000Y-105106000D03*
X235950000Y-102566000D03*
X235950000Y-100026000D03*
X235950000Y-97486000D03*
X235950000Y-94946000D03*
X235950000Y-92406000D03*
X235950000Y-89866000D03*
X235950000Y-87326000D03*
D19*
X187690000Y-119330000D03*
D20*
X187690000Y-121870000D03*
X187690000Y-124410000D03*
X187690000Y-126950000D03*
X187690000Y-129490000D03*
X187690000Y-132030000D03*
D19*
X187690000Y-114250000D03*
D20*
X187690000Y-111710000D03*
X187690000Y-109170000D03*
X187690000Y-106630000D03*
X187690000Y-104090000D03*
X187690000Y-101550000D03*
X187690000Y-99010000D03*
X187690000Y-96470000D03*
D21*
X207990000Y-130990000D03*
D22*
X207990000Y-133530000D03*
X205450000Y-130990000D03*
X205450000Y-133530000D03*
X202910000Y-130990000D03*
X202910000Y-133530000D03*
M02*
