G04 #@! TF.FileFunction,Paste,Top*
%FSLAX46Y46*%
G04 Gerber Fmt 4.6, Leading zero omitted, Abs format (unit mm)*
G04 Created by KiCad (PCBNEW 4.0.4-stable) date Fri Dec  2 08:53:02 2016*
%MOMM*%
%LPD*%
G01*
G04 APERTURE LIST*
%ADD10C,0.100000*%
%ADD11R,0.750000X1.200000*%
%ADD12R,1.200000X0.750000*%
%ADD13R,1.500000X1.250000*%
%ADD14R,0.900000X1.200000*%
%ADD15R,1.200000X0.900000*%
%ADD16R,0.350000X1.700000*%
G04 APERTURE END LIST*
D10*
D11*
X236290000Y-73480000D03*
X236290000Y-71580000D03*
D12*
X229840000Y-79130000D03*
X227940000Y-79130000D03*
D11*
X214490000Y-84680000D03*
X214490000Y-82780000D03*
X210890000Y-80180000D03*
X210890000Y-82080000D03*
X226190000Y-85980000D03*
X226190000Y-87880000D03*
D12*
X212540000Y-112530000D03*
X214440000Y-112530000D03*
X210940000Y-109930000D03*
X212840000Y-109930000D03*
D11*
X194090000Y-104580000D03*
X194090000Y-106480000D03*
D13*
X208040000Y-76130000D03*
X210540000Y-76130000D03*
D14*
X232690000Y-79030000D03*
X232690000Y-76830000D03*
X235490000Y-79030000D03*
X235490000Y-76830000D03*
X210290000Y-126830000D03*
X210290000Y-124630000D03*
D15*
X221990000Y-92530000D03*
X224190000Y-92530000D03*
D16*
X217432500Y-88030000D03*
X218067500Y-88030000D03*
X218702500Y-88030000D03*
X219337500Y-88030000D03*
X219972500Y-88030000D03*
X220607500Y-88030000D03*
X221242500Y-88030000D03*
X221877500Y-88030000D03*
X222512500Y-88030000D03*
X223147500Y-88030000D03*
X223147500Y-82630000D03*
X222512500Y-82630000D03*
X221877500Y-82630000D03*
X221242500Y-82630000D03*
X220607500Y-82630000D03*
X219972500Y-82630000D03*
X219337500Y-82630000D03*
X218702500Y-82630000D03*
X218067500Y-82630000D03*
X217432500Y-82630000D03*
M02*
