G04 #@! TF.FileFunction,Copper,L1,Top,Signal*
%FSLAX46Y46*%
G04 Gerber Fmt 4.6, Leading zero omitted, Abs format (unit mm)*
G04 Created by KiCad (PCBNEW 4.0.4-stable) date Fri Dec  2 08:04:54 2016*
%MOMM*%
%LPD*%
G01*
G04 APERTURE LIST*
%ADD10C,0.100000*%
%ADD11C,1.501140*%
%ADD12R,0.750000X1.200000*%
%ADD13R,1.200000X0.750000*%
%ADD14R,0.500000X0.600000*%
%ADD15R,1.900000X2.000000*%
%ADD16C,1.900000*%
%ADD17O,1.600000X1.600000*%
%ADD18R,1.500000X1.250000*%
%ADD19C,1.524000*%
%ADD20C,2.700020*%
%ADD21R,2.032000X1.727200*%
%ADD22O,2.032000X1.727200*%
%ADD23R,1.727200X1.727200*%
%ADD24O,1.727200X1.727200*%
%ADD25R,0.900000X1.200000*%
%ADD26R,1.200000X0.900000*%
%ADD27R,0.350000X1.700000*%
%ADD28C,0.600000*%
%ADD29C,0.250000*%
%ADD30C,0.254000*%
G04 APERTURE END LIST*
D10*
D11*
X214740000Y-98398120D03*
X214740000Y-103280000D03*
D12*
X236290000Y-73480000D03*
X236290000Y-71580000D03*
D13*
X229840000Y-79130000D03*
X227940000Y-79130000D03*
D12*
X214490000Y-84680000D03*
X214490000Y-82780000D03*
X210890000Y-80180000D03*
X210890000Y-82080000D03*
X226190000Y-85980000D03*
X226190000Y-87880000D03*
D13*
X212540000Y-112530000D03*
X214440000Y-112530000D03*
X210940000Y-109930000D03*
X212840000Y-109930000D03*
D12*
X194090000Y-104580000D03*
X194090000Y-106480000D03*
D14*
X211490000Y-105780000D03*
X211490000Y-106880000D03*
X218290000Y-100980000D03*
X218290000Y-102080000D03*
D15*
X229190000Y-94930000D03*
D16*
X226650000Y-94930000D03*
D17*
X206490000Y-122480000D03*
X206490000Y-119940000D03*
X206490000Y-117400000D03*
X206490000Y-114860000D03*
X206490000Y-112320000D03*
X206490000Y-109780000D03*
X206490000Y-107240000D03*
X206490000Y-104700000D03*
X206490000Y-102160000D03*
X206490000Y-99620000D03*
X206490000Y-97080000D03*
X206490000Y-94540000D03*
X206490000Y-92000000D03*
X206490000Y-89460000D03*
X198870000Y-89460000D03*
X198870000Y-92000000D03*
X198870000Y-94540000D03*
X198870000Y-97080000D03*
X198870000Y-99620000D03*
X198870000Y-102160000D03*
X198870000Y-104700000D03*
X198870000Y-107240000D03*
X198870000Y-109780000D03*
X198870000Y-112320000D03*
X198870000Y-114860000D03*
X198870000Y-117400000D03*
X198870000Y-119940000D03*
X198870000Y-122480000D03*
D18*
X208040000Y-76130000D03*
X210540000Y-76130000D03*
D19*
X223290000Y-76128980D03*
X220750000Y-76128980D03*
X220750000Y-74130000D03*
X223290000Y-74130000D03*
D20*
X228019480Y-71429980D03*
X216020520Y-71429980D03*
D21*
X235950000Y-132030000D03*
D22*
X235950000Y-129490000D03*
X235950000Y-126950000D03*
X235950000Y-124410000D03*
X235950000Y-121870000D03*
X235950000Y-119330000D03*
X235950000Y-116790000D03*
X235950000Y-114250000D03*
D21*
X235950000Y-110186000D03*
D22*
X235950000Y-107646000D03*
X235950000Y-105106000D03*
X235950000Y-102566000D03*
X235950000Y-100026000D03*
X235950000Y-97486000D03*
X235950000Y-94946000D03*
X235950000Y-92406000D03*
X235950000Y-89866000D03*
X235950000Y-87326000D03*
D21*
X187690000Y-119330000D03*
D22*
X187690000Y-121870000D03*
X187690000Y-124410000D03*
X187690000Y-126950000D03*
X187690000Y-129490000D03*
X187690000Y-132030000D03*
D21*
X187690000Y-114250000D03*
D22*
X187690000Y-111710000D03*
X187690000Y-109170000D03*
X187690000Y-106630000D03*
X187690000Y-104090000D03*
X187690000Y-101550000D03*
X187690000Y-99010000D03*
X187690000Y-96470000D03*
D23*
X207990000Y-130990000D03*
D24*
X207990000Y-133530000D03*
X205450000Y-130990000D03*
X205450000Y-133530000D03*
X202910000Y-130990000D03*
X202910000Y-133530000D03*
D25*
X232690000Y-79030000D03*
X232690000Y-76830000D03*
X235490000Y-79030000D03*
X235490000Y-76830000D03*
X210290000Y-126830000D03*
X210290000Y-124630000D03*
D26*
X221990000Y-92530000D03*
X224190000Y-92530000D03*
D27*
X217432500Y-88030000D03*
X218067500Y-88030000D03*
X218702500Y-88030000D03*
X219337500Y-88030000D03*
X219972500Y-88030000D03*
X220607500Y-88030000D03*
X221242500Y-88030000D03*
X221877500Y-88030000D03*
X222512500Y-88030000D03*
X223147500Y-88030000D03*
X223147500Y-82630000D03*
X222512500Y-82630000D03*
X221877500Y-82630000D03*
X221242500Y-82630000D03*
X220607500Y-82630000D03*
X219972500Y-82630000D03*
X219337500Y-82630000D03*
X218702500Y-82630000D03*
X218067500Y-82630000D03*
X217432500Y-82630000D03*
D28*
X224690000Y-87880000D03*
X214490000Y-81030000D03*
X218290000Y-103330000D03*
X195890000Y-106530000D03*
X216290000Y-112530000D03*
X219490000Y-80930000D03*
X212640000Y-82080000D03*
X226290000Y-78530000D03*
X233890000Y-71730000D03*
X220890000Y-89730000D03*
X214490000Y-109930000D03*
X209690000Y-106730000D03*
X193890000Y-98730000D03*
X218090000Y-84930000D03*
X233490000Y-99730000D03*
X225890000Y-106730000D03*
X219890000Y-85930000D03*
X231490000Y-99530000D03*
X224690000Y-105930000D03*
X205090000Y-126730000D03*
X227030000Y-90030000D03*
X227100000Y-98930000D03*
X227660000Y-108540000D03*
D29*
X235890000Y-74730000D02*
X236290000Y-74330000D01*
X236290000Y-74330000D02*
X236290000Y-73480000D01*
X234490000Y-74730000D02*
X234490000Y-76530000D01*
X234490000Y-74130000D02*
X234490000Y-74730000D01*
X234490000Y-74730000D02*
X235890000Y-74730000D01*
X223290000Y-74130000D02*
X224051999Y-74891999D01*
X224051999Y-74891999D02*
X229528001Y-74891999D01*
X229528001Y-74891999D02*
X230890000Y-73530000D01*
X234790000Y-76830000D02*
X235490000Y-76830000D01*
X230890000Y-73530000D02*
X233890000Y-73530000D01*
X233890000Y-73530000D02*
X234490000Y-74130000D01*
X234490000Y-76530000D02*
X234790000Y-76830000D01*
X225565000Y-87880000D02*
X224690000Y-87880000D01*
X226190000Y-87880000D02*
X225565000Y-87880000D01*
X214490000Y-82780000D02*
X214490000Y-81030000D01*
X218290000Y-102080000D02*
X218290000Y-103330000D01*
X194765000Y-106530000D02*
X195890000Y-106530000D01*
X194090000Y-106480000D02*
X194715000Y-106480000D01*
X194715000Y-106480000D02*
X194765000Y-106530000D01*
X214440000Y-112530000D02*
X216290000Y-112530000D01*
X219972500Y-81412500D02*
X219490000Y-80930000D01*
X219972500Y-82630000D02*
X219972500Y-81412500D01*
X210890000Y-82080000D02*
X212640000Y-82080000D01*
X226890000Y-79130000D02*
X226290000Y-78530000D01*
X227940000Y-79130000D02*
X226890000Y-79130000D01*
X235515000Y-71730000D02*
X233890000Y-71730000D01*
X236290000Y-71580000D02*
X235665000Y-71580000D01*
X235665000Y-71580000D02*
X235515000Y-71730000D01*
X220607500Y-89447500D02*
X220890000Y-89730000D01*
X220607500Y-88030000D02*
X220607500Y-89447500D01*
X212840000Y-109930000D02*
X214490000Y-109930000D01*
X214690000Y-109930000D02*
X214490000Y-109930000D01*
X209840000Y-106880000D02*
X209690000Y-106730000D01*
X211490000Y-106880000D02*
X209840000Y-106880000D01*
X231290000Y-78530000D02*
X231290000Y-77330000D01*
X229840000Y-79130000D02*
X230690000Y-79130000D01*
X230690000Y-79130000D02*
X231290000Y-78530000D01*
X231290000Y-77330000D02*
X231790000Y-76830000D01*
X231790000Y-76830000D02*
X232690000Y-76830000D01*
X229890000Y-75330000D02*
X231090000Y-74130000D01*
X223290000Y-76128980D02*
X224051999Y-75366981D01*
X224051999Y-75366981D02*
X229853019Y-75366981D01*
X229853019Y-75366981D02*
X229890000Y-75330000D01*
X233690000Y-74130000D02*
X233890000Y-74330000D01*
X231090000Y-74130000D02*
X233690000Y-74130000D01*
X233890000Y-74330000D02*
X233890000Y-76530000D01*
X233890000Y-76530000D02*
X233590000Y-76830000D01*
X233590000Y-76830000D02*
X232690000Y-76830000D01*
X224865000Y-85980000D02*
X226190000Y-85980000D01*
X214490000Y-84680000D02*
X214490000Y-85530000D01*
X214490000Y-85530000D02*
X215290000Y-86330000D01*
X215290000Y-86330000D02*
X218102500Y-86330000D01*
X218102500Y-86330000D02*
X218302500Y-86530000D01*
X224015000Y-85130000D02*
X223290000Y-85130000D01*
X223290000Y-85130000D02*
X222490000Y-85130000D01*
X223090000Y-85930000D02*
X223290000Y-85730000D01*
X223290000Y-85730000D02*
X223290000Y-85130000D01*
X221690000Y-85930000D02*
X223090000Y-85930000D01*
X220890000Y-85130000D02*
X221690000Y-85930000D01*
X219290000Y-85130000D02*
X220890000Y-85130000D01*
X218890000Y-85530000D02*
X219290000Y-85130000D01*
X218890000Y-85930000D02*
X218890000Y-85530000D01*
X218302500Y-86517500D02*
X218890000Y-85930000D01*
X218302500Y-86530000D02*
X218702500Y-86930000D01*
X218302500Y-86530000D02*
X218302500Y-86517500D01*
X221877500Y-83930000D02*
X221442500Y-83930000D01*
X221442500Y-83930000D02*
X221242500Y-83730000D01*
X221242500Y-83730000D02*
X221242500Y-82630000D01*
X221877500Y-83930000D02*
X221877500Y-82630000D01*
X221877500Y-84517500D02*
X221877500Y-83930000D01*
X222490000Y-85130000D02*
X221877500Y-84517500D01*
X224865000Y-85980000D02*
X224015000Y-85130000D01*
X218702500Y-86930000D02*
X218702500Y-88030000D01*
X210890000Y-77355000D02*
X210890000Y-80180000D01*
X210540000Y-76130000D02*
X210540000Y-77005000D01*
X210540000Y-77005000D02*
X210890000Y-77355000D01*
X210540000Y-76130000D02*
X220748980Y-76130000D01*
X220748980Y-76130000D02*
X220750000Y-76128980D01*
X194090000Y-104580000D02*
X198750000Y-104580000D01*
X198750000Y-104580000D02*
X198870000Y-104700000D01*
X193890000Y-98730000D02*
X193890000Y-88730000D01*
X193890000Y-88730000D02*
X196390000Y-86230000D01*
X196390000Y-86230000D02*
X212990000Y-86230000D01*
X212990000Y-86230000D02*
X218490000Y-91730000D01*
X218490000Y-91730000D02*
X234008000Y-91730000D01*
X234684000Y-92406000D02*
X235950000Y-92406000D01*
X234008000Y-91730000D02*
X234684000Y-92406000D01*
X209640000Y-122480000D02*
X210290000Y-123130000D01*
X210290000Y-123130000D02*
X210290000Y-124630000D01*
X206490000Y-122480000D02*
X209640000Y-122480000D01*
X211790000Y-103280000D02*
X212290000Y-103280000D01*
X212290000Y-103280000D02*
X212590000Y-103280000D01*
X211490000Y-105780000D02*
X211490000Y-105230000D01*
X211490000Y-105230000D02*
X212290000Y-104430000D01*
X212290000Y-104430000D02*
X212290000Y-103280000D01*
X212590000Y-103280000D02*
X214740000Y-103280000D01*
X206490000Y-102160000D02*
X207621370Y-102160000D01*
X207621370Y-102160000D02*
X207651370Y-102130000D01*
X207651370Y-102130000D02*
X210640000Y-102130000D01*
X210640000Y-102130000D02*
X211790000Y-103280000D01*
X215640000Y-100980000D02*
X218290000Y-100980000D01*
X215640000Y-100980000D02*
X214740000Y-100080000D01*
X214740000Y-100080000D02*
X214740000Y-98398120D01*
X214740000Y-98398120D02*
X212690000Y-98398120D01*
X212690000Y-98398120D02*
X211621880Y-98398120D01*
X210400000Y-99620000D02*
X206490000Y-99620000D01*
X211621880Y-98398120D02*
X210400000Y-99620000D01*
X225890000Y-92530000D02*
X226650000Y-93290000D01*
X226650000Y-93290000D02*
X226650000Y-94930000D01*
X224190000Y-92530000D02*
X225890000Y-92530000D01*
X218090000Y-84930000D02*
X217432500Y-84272500D01*
X217432500Y-84272500D02*
X217432500Y-82630000D01*
X232290000Y-100930000D02*
X233490000Y-99730000D01*
X230490000Y-100930000D02*
X232290000Y-100930000D01*
X225890000Y-105530000D02*
X230490000Y-100930000D01*
X225890000Y-106730000D02*
X225890000Y-105530000D01*
X210000000Y-119940000D02*
X222090000Y-132030000D01*
X222090000Y-132030000D02*
X235950000Y-132030000D01*
X206490000Y-119940000D02*
X210000000Y-119940000D01*
X219890000Y-85930000D02*
X219490000Y-86330000D01*
X219490000Y-86330000D02*
X219490000Y-86425000D01*
X219490000Y-86425000D02*
X219337500Y-86577500D01*
X219337500Y-86577500D02*
X219337500Y-88030000D01*
X228490000Y-99530000D02*
X231490000Y-99530000D01*
X224989999Y-103030001D02*
X228490000Y-99530000D01*
X224690000Y-105930000D02*
X224989999Y-105630001D01*
X224989999Y-105630001D02*
X224989999Y-103030001D01*
X209659999Y-118199999D02*
X220950000Y-129490000D01*
X220950000Y-129490000D02*
X235950000Y-129490000D01*
X206490000Y-117400000D02*
X207289999Y-118199999D01*
X207289999Y-118199999D02*
X209659999Y-118199999D01*
X208619999Y-115659999D02*
X219910000Y-126950000D01*
X219910000Y-126950000D02*
X235950000Y-126950000D01*
X206490000Y-114860000D02*
X207289999Y-115659999D01*
X207289999Y-115659999D02*
X208619999Y-115659999D01*
X215700000Y-121540000D02*
X218570000Y-124410000D01*
X218570000Y-124410000D02*
X235950000Y-124410000D01*
X215700000Y-121530000D02*
X215700000Y-121540000D01*
X206490000Y-112320000D02*
X215700000Y-121530000D01*
X207339999Y-110579999D02*
X218630000Y-121870000D01*
X218630000Y-121870000D02*
X235950000Y-121870000D01*
X206490000Y-109780000D02*
X207289999Y-110579999D01*
X207289999Y-110579999D02*
X207339999Y-110579999D01*
X219790000Y-108430000D02*
X221546000Y-110186000D01*
X221546000Y-110186000D02*
X235950000Y-110186000D01*
X219790000Y-97530000D02*
X219790000Y-108430000D01*
X211720000Y-89460000D02*
X219790000Y-97530000D01*
X206490000Y-89460000D02*
X211720000Y-89460000D01*
X201490000Y-94530000D02*
X201480000Y-94540000D01*
X201480000Y-94540000D02*
X198870000Y-94540000D01*
X202490000Y-95530000D02*
X201490000Y-94530000D01*
X202490000Y-124130000D02*
X202490000Y-95530000D01*
X205090000Y-126730000D02*
X202490000Y-124130000D01*
X201690000Y-97730000D02*
X201040000Y-97080000D01*
X201040000Y-97080000D02*
X198870000Y-97080000D01*
X201690000Y-124930000D02*
X201690000Y-97730000D01*
X205890000Y-129130000D02*
X201690000Y-124930000D01*
X207243600Y-129130000D02*
X205890000Y-129130000D01*
X207990000Y-130990000D02*
X207990000Y-129876400D01*
X207990000Y-129876400D02*
X207243600Y-129130000D01*
X198870000Y-99620000D02*
X200001370Y-99620000D01*
X200001370Y-99620000D02*
X201090000Y-100708630D01*
X201090000Y-100708630D02*
X201090000Y-125408686D01*
X205450000Y-129768686D02*
X205450000Y-130990000D01*
X201090000Y-125408686D02*
X205450000Y-129768686D01*
X235950000Y-97486000D02*
X224090000Y-97486000D01*
X224090000Y-97486000D02*
X222846000Y-97486000D01*
X221990000Y-93830000D02*
X224090000Y-95930000D01*
X224090000Y-95930000D02*
X224090000Y-97486000D01*
X221990000Y-92530000D02*
X221990000Y-93830000D01*
X222846000Y-97486000D02*
X217890000Y-92530000D01*
X217890000Y-92530000D02*
X212190000Y-86830000D01*
X212190000Y-86830000D02*
X196990000Y-86830000D01*
X196480000Y-99620000D02*
X198870000Y-99620000D01*
X196990000Y-86830000D02*
X194890000Y-88930000D01*
X194890000Y-88930000D02*
X194890000Y-98030000D01*
X194890000Y-98030000D02*
X196480000Y-99620000D01*
X193290000Y-113530000D02*
X197040000Y-109780000D01*
X197040000Y-109780000D02*
X198870000Y-109780000D01*
X193290000Y-114996000D02*
X193290000Y-113530000D01*
X187690000Y-119330000D02*
X188956000Y-119330000D01*
X188956000Y-119330000D02*
X193290000Y-114996000D01*
X194190000Y-115230000D02*
X197100000Y-112320000D01*
X197100000Y-112320000D02*
X198870000Y-112320000D01*
X194190000Y-116636000D02*
X194190000Y-115230000D01*
X187690000Y-121870000D02*
X188956000Y-121870000D01*
X188956000Y-121870000D02*
X194190000Y-116636000D01*
X195390000Y-116230000D02*
X196760000Y-114860000D01*
X196760000Y-114860000D02*
X198870000Y-114860000D01*
X195390000Y-117976000D02*
X195390000Y-116230000D01*
X187690000Y-124410000D02*
X188956000Y-124410000D01*
X188956000Y-124410000D02*
X195390000Y-117976000D01*
X187690000Y-126950000D02*
X188956000Y-126950000D01*
X188956000Y-126950000D02*
X196390000Y-119516000D01*
X196390000Y-119516000D02*
X196390000Y-118530000D01*
X196390000Y-118530000D02*
X197520000Y-117400000D01*
X197520000Y-117400000D02*
X198870000Y-117400000D01*
X191690000Y-125030000D02*
X196780000Y-119940000D01*
X196780000Y-119940000D02*
X198870000Y-119940000D01*
X191690000Y-126756000D02*
X191690000Y-125030000D01*
X187690000Y-129490000D02*
X188956000Y-129490000D01*
X188956000Y-129490000D02*
X191690000Y-126756000D01*
X192490000Y-125330000D02*
X195340000Y-122480000D01*
X195340000Y-122480000D02*
X198870000Y-122480000D01*
X192490000Y-128496000D02*
X192490000Y-125330000D01*
X187690000Y-132030000D02*
X188956000Y-132030000D01*
X188956000Y-132030000D02*
X192490000Y-128496000D01*
X223090000Y-80130000D02*
X222512500Y-80707500D01*
X222512500Y-80707500D02*
X222512500Y-82630000D01*
X225690000Y-80130000D02*
X223090000Y-80130000D01*
X226290000Y-80730000D02*
X225690000Y-80130000D01*
X233290000Y-80730000D02*
X226290000Y-80730000D01*
X233690000Y-80330000D02*
X233290000Y-80730000D01*
X233690000Y-79330000D02*
X233690000Y-80330000D01*
X232690000Y-79030000D02*
X233390000Y-79030000D01*
X233390000Y-79030000D02*
X233690000Y-79330000D01*
X223490000Y-80730000D02*
X223147500Y-81072500D01*
X223147500Y-81072500D02*
X223147500Y-82630000D01*
X225490000Y-80730000D02*
X223490000Y-80730000D01*
X226090000Y-81330000D02*
X225490000Y-80730000D01*
X233690000Y-81330000D02*
X226090000Y-81330000D01*
X234490000Y-80530000D02*
X233690000Y-81330000D01*
X234490000Y-79330000D02*
X234490000Y-80530000D01*
X235490000Y-79030000D02*
X234790000Y-79030000D01*
X234790000Y-79030000D02*
X234490000Y-79330000D01*
X222730000Y-90030000D02*
X221820000Y-90940000D01*
X221820000Y-90940000D02*
X220580000Y-90940000D01*
X227030000Y-90030000D02*
X222730000Y-90030000D01*
X222680000Y-103350000D02*
X227100000Y-98930000D01*
X222680000Y-106270000D02*
X222680000Y-103350000D01*
X224520000Y-108110000D02*
X222680000Y-106270000D01*
X227230000Y-108110000D02*
X224520000Y-108110000D01*
X227660000Y-108540000D02*
X227230000Y-108110000D01*
X219780000Y-90140000D02*
X220580000Y-90940000D01*
X218442500Y-90140000D02*
X219780000Y-90140000D01*
X217432500Y-88030000D02*
X217432500Y-89130000D01*
X217432500Y-89130000D02*
X218442500Y-90140000D01*
D30*
G36*
X237363000Y-87268844D02*
X237279629Y-86849712D01*
X237009834Y-86445935D01*
X236606057Y-86176140D01*
X236129769Y-86081400D01*
X235770231Y-86081400D01*
X235293943Y-86176140D01*
X234890166Y-86445935D01*
X234620371Y-86849712D01*
X234525631Y-87326000D01*
X234620371Y-87802288D01*
X234890166Y-88206065D01*
X235293943Y-88475860D01*
X235770231Y-88570600D01*
X236129769Y-88570600D01*
X236606057Y-88475860D01*
X237009834Y-88206065D01*
X237279629Y-87802288D01*
X237363000Y-87383156D01*
X237363000Y-89808844D01*
X237279629Y-89389712D01*
X237009834Y-88985935D01*
X236606057Y-88716140D01*
X236129769Y-88621400D01*
X235770231Y-88621400D01*
X235293943Y-88716140D01*
X234890166Y-88985935D01*
X234620371Y-89389712D01*
X234525631Y-89866000D01*
X234620371Y-90342288D01*
X234890166Y-90746065D01*
X235293943Y-91015860D01*
X235770231Y-91110600D01*
X236129769Y-91110600D01*
X236606057Y-91015860D01*
X237009834Y-90746065D01*
X237279629Y-90342288D01*
X237363000Y-89923156D01*
X237363000Y-92348844D01*
X237279629Y-91929712D01*
X237009834Y-91525935D01*
X236606057Y-91256140D01*
X236129769Y-91161400D01*
X235770231Y-91161400D01*
X235293943Y-91256140D01*
X234890166Y-91525935D01*
X234741709Y-91748117D01*
X234365796Y-91372204D01*
X234201638Y-91262517D01*
X234008000Y-91224000D01*
X222251592Y-91224000D01*
X222939592Y-90536000D01*
X226572877Y-90536000D01*
X226643741Y-90606987D01*
X226893946Y-90710882D01*
X227164865Y-90711118D01*
X227415252Y-90607661D01*
X227606987Y-90416259D01*
X227710882Y-90166054D01*
X227711118Y-89895135D01*
X227607661Y-89644748D01*
X227416259Y-89453013D01*
X227166054Y-89349118D01*
X226895135Y-89348882D01*
X226644748Y-89452339D01*
X226572962Y-89524000D01*
X222730000Y-89524000D01*
X222536362Y-89562517D01*
X222372204Y-89672204D01*
X221610408Y-90434000D01*
X220789592Y-90434000D01*
X220766485Y-90410893D01*
X221024865Y-90411118D01*
X221275252Y-90307661D01*
X221466987Y-90116259D01*
X221570882Y-89866054D01*
X221571118Y-89595135D01*
X221467661Y-89344748D01*
X221391509Y-89268464D01*
X221417500Y-89268464D01*
X221558690Y-89241897D01*
X221561710Y-89239954D01*
X221702500Y-89268464D01*
X222052500Y-89268464D01*
X222193690Y-89241897D01*
X222196710Y-89239954D01*
X222337500Y-89268464D01*
X222687500Y-89268464D01*
X222828690Y-89241897D01*
X222831710Y-89239954D01*
X222972500Y-89268464D01*
X223322500Y-89268464D01*
X223463690Y-89241897D01*
X223593365Y-89158454D01*
X223680359Y-89031134D01*
X223710964Y-88880000D01*
X223710964Y-87180000D01*
X223684397Y-87038810D01*
X223600954Y-86909135D01*
X223473634Y-86822141D01*
X223322500Y-86791536D01*
X222972500Y-86791536D01*
X222831310Y-86818103D01*
X222828290Y-86820046D01*
X222687500Y-86791536D01*
X222337500Y-86791536D01*
X222196310Y-86818103D01*
X222193290Y-86820046D01*
X222052500Y-86791536D01*
X221702500Y-86791536D01*
X221561310Y-86818103D01*
X221558290Y-86820046D01*
X221417500Y-86791536D01*
X221067500Y-86791536D01*
X220926310Y-86818103D01*
X220923290Y-86820046D01*
X220782500Y-86791536D01*
X220432500Y-86791536D01*
X220291310Y-86818103D01*
X220288290Y-86820046D01*
X220147500Y-86791536D01*
X219843500Y-86791536D01*
X219843500Y-86787092D01*
X219847796Y-86782796D01*
X219911273Y-86687796D01*
X219957483Y-86618638D01*
X219958990Y-86611061D01*
X220024865Y-86611118D01*
X220275252Y-86507661D01*
X220466987Y-86316259D01*
X220570882Y-86066054D01*
X220571118Y-85795135D01*
X220505365Y-85636000D01*
X220680408Y-85636000D01*
X221332204Y-86287796D01*
X221496362Y-86397483D01*
X221690000Y-86436000D01*
X223090000Y-86436000D01*
X223283638Y-86397483D01*
X223447796Y-86287796D01*
X223647796Y-86087796D01*
X223661555Y-86067204D01*
X223757483Y-85923638D01*
X223796000Y-85730000D01*
X223796000Y-85636000D01*
X223805408Y-85636000D01*
X224507204Y-86337796D01*
X224671362Y-86447483D01*
X224865000Y-86486000D01*
X225426536Y-86486000D01*
X225426536Y-86580000D01*
X225453103Y-86721190D01*
X225536546Y-86850865D01*
X225653798Y-86930980D01*
X225544135Y-87001546D01*
X225457141Y-87128866D01*
X225426536Y-87280000D01*
X225426536Y-87374000D01*
X225147123Y-87374000D01*
X225076259Y-87303013D01*
X224826054Y-87199118D01*
X224555135Y-87198882D01*
X224304748Y-87302339D01*
X224113013Y-87493741D01*
X224009118Y-87743946D01*
X224008882Y-88014865D01*
X224112339Y-88265252D01*
X224303741Y-88456987D01*
X224553946Y-88560882D01*
X224824865Y-88561118D01*
X225075252Y-88457661D01*
X225147038Y-88386000D01*
X225426536Y-88386000D01*
X225426536Y-88480000D01*
X225453103Y-88621190D01*
X225536546Y-88750865D01*
X225663866Y-88837859D01*
X225815000Y-88868464D01*
X226565000Y-88868464D01*
X226706190Y-88841897D01*
X226835865Y-88758454D01*
X226922859Y-88631134D01*
X226953464Y-88480000D01*
X226953464Y-87280000D01*
X226926897Y-87138810D01*
X226843454Y-87009135D01*
X226726202Y-86929020D01*
X226835865Y-86858454D01*
X226922859Y-86731134D01*
X226953464Y-86580000D01*
X226953464Y-85380000D01*
X226926897Y-85238810D01*
X226843454Y-85109135D01*
X226716134Y-85022141D01*
X226565000Y-84991536D01*
X225815000Y-84991536D01*
X225673810Y-85018103D01*
X225544135Y-85101546D01*
X225457141Y-85228866D01*
X225426536Y-85380000D01*
X225426536Y-85474000D01*
X225074592Y-85474000D01*
X224372796Y-84772204D01*
X224208638Y-84662517D01*
X224015000Y-84624000D01*
X222699592Y-84624000D01*
X222383500Y-84307908D01*
X222383500Y-83868464D01*
X222687500Y-83868464D01*
X222828690Y-83841897D01*
X222831710Y-83839954D01*
X222972500Y-83868464D01*
X223322500Y-83868464D01*
X223463690Y-83841897D01*
X223593365Y-83758454D01*
X223680359Y-83631134D01*
X223710964Y-83480000D01*
X223710964Y-81780000D01*
X223684397Y-81638810D01*
X223653500Y-81590794D01*
X223653500Y-81282092D01*
X223699592Y-81236000D01*
X225280408Y-81236000D01*
X225732204Y-81687796D01*
X225896362Y-81797483D01*
X226090000Y-81836000D01*
X233690000Y-81836000D01*
X233883638Y-81797483D01*
X234047796Y-81687796D01*
X234847796Y-80887796D01*
X234957483Y-80723638D01*
X234996000Y-80530000D01*
X234996000Y-80009554D01*
X235040000Y-80018464D01*
X235940000Y-80018464D01*
X236081190Y-79991897D01*
X236210865Y-79908454D01*
X236297859Y-79781134D01*
X236328464Y-79630000D01*
X236328464Y-78430000D01*
X236301897Y-78288810D01*
X236218454Y-78159135D01*
X236091134Y-78072141D01*
X235940000Y-78041536D01*
X235040000Y-78041536D01*
X234898810Y-78068103D01*
X234769135Y-78151546D01*
X234682141Y-78278866D01*
X234651536Y-78430000D01*
X234651536Y-78551542D01*
X234596362Y-78562517D01*
X234432204Y-78672204D01*
X234132204Y-78972204D01*
X234090000Y-79035367D01*
X234047796Y-78972204D01*
X233747796Y-78672204D01*
X233583638Y-78562517D01*
X233528464Y-78551542D01*
X233528464Y-78430000D01*
X233501897Y-78288810D01*
X233418454Y-78159135D01*
X233291134Y-78072141D01*
X233140000Y-78041536D01*
X232240000Y-78041536D01*
X232098810Y-78068103D01*
X231969135Y-78151546D01*
X231882141Y-78278866D01*
X231851536Y-78430000D01*
X231851536Y-79630000D01*
X231878103Y-79771190D01*
X231961546Y-79900865D01*
X232088866Y-79987859D01*
X232240000Y-80018464D01*
X233140000Y-80018464D01*
X233184000Y-80010185D01*
X233184000Y-80120408D01*
X233080408Y-80224000D01*
X226499592Y-80224000D01*
X226047796Y-79772204D01*
X225883638Y-79662517D01*
X225690000Y-79624000D01*
X223090000Y-79624000D01*
X222896362Y-79662517D01*
X222732204Y-79772204D01*
X222154704Y-80349704D01*
X222045017Y-80513862D01*
X222006500Y-80707500D01*
X222006500Y-81391536D01*
X221702500Y-81391536D01*
X221561310Y-81418103D01*
X221558290Y-81420046D01*
X221417500Y-81391536D01*
X221292062Y-81391536D01*
X221142198Y-81241673D01*
X220908809Y-81145000D01*
X220853750Y-81145000D01*
X220695000Y-81303750D01*
X220695000Y-81701166D01*
X220679036Y-81780000D01*
X220679036Y-83480000D01*
X220695000Y-83564840D01*
X220695000Y-83956250D01*
X220853750Y-84115000D01*
X220908809Y-84115000D01*
X220911000Y-84114092D01*
X221084704Y-84287796D01*
X221248862Y-84397483D01*
X221371500Y-84421877D01*
X221371500Y-84517500D01*
X221410017Y-84711138D01*
X221519704Y-84875296D01*
X222068408Y-85424000D01*
X221899592Y-85424000D01*
X221247796Y-84772204D01*
X221083638Y-84662517D01*
X220890000Y-84624000D01*
X219290000Y-84624000D01*
X219096362Y-84662517D01*
X218932204Y-84772204D01*
X218770998Y-84933410D01*
X218771118Y-84795135D01*
X218667661Y-84544748D01*
X218476259Y-84353013D01*
X218226054Y-84249118D01*
X218124622Y-84249030D01*
X217938500Y-84062908D01*
X217938500Y-83868464D01*
X218242500Y-83868464D01*
X218383690Y-83841897D01*
X218386710Y-83839954D01*
X218527500Y-83868464D01*
X218877500Y-83868464D01*
X219018690Y-83841897D01*
X219021710Y-83839954D01*
X219162500Y-83868464D01*
X219512500Y-83868464D01*
X219653690Y-83841897D01*
X219656710Y-83839954D01*
X219797500Y-83868464D01*
X219922938Y-83868464D01*
X220072802Y-84018327D01*
X220306191Y-84115000D01*
X220361250Y-84115000D01*
X220520000Y-83956250D01*
X220520000Y-83558834D01*
X220535964Y-83480000D01*
X220535964Y-81780000D01*
X220520000Y-81695160D01*
X220520000Y-81303750D01*
X220441192Y-81224942D01*
X220439983Y-81218862D01*
X220330296Y-81054704D01*
X220171031Y-80895439D01*
X220171118Y-80795135D01*
X220067661Y-80544748D01*
X219876259Y-80353013D01*
X219626054Y-80249118D01*
X219355135Y-80248882D01*
X219104748Y-80352339D01*
X218913013Y-80543741D01*
X218809118Y-80793946D01*
X218808882Y-81064865D01*
X218912339Y-81315252D01*
X219016612Y-81419707D01*
X218877500Y-81391536D01*
X218527500Y-81391536D01*
X218386310Y-81418103D01*
X218383290Y-81420046D01*
X218242500Y-81391536D01*
X217892500Y-81391536D01*
X217751310Y-81418103D01*
X217748290Y-81420046D01*
X217607500Y-81391536D01*
X217257500Y-81391536D01*
X217116310Y-81418103D01*
X216986635Y-81501546D01*
X216899641Y-81628866D01*
X216869036Y-81780000D01*
X216869036Y-83480000D01*
X216895603Y-83621190D01*
X216926500Y-83669206D01*
X216926500Y-84272500D01*
X216965017Y-84466138D01*
X217074704Y-84630296D01*
X217408969Y-84964561D01*
X217408882Y-85064865D01*
X217512339Y-85315252D01*
X217703741Y-85506987D01*
X217953946Y-85610882D01*
X218224865Y-85611118D01*
X218384000Y-85545365D01*
X218384000Y-85720408D01*
X218250891Y-85853517D01*
X218102500Y-85824000D01*
X215499592Y-85824000D01*
X215175718Y-85500126D01*
X215222859Y-85431134D01*
X215253464Y-85280000D01*
X215253464Y-84080000D01*
X215226897Y-83938810D01*
X215143454Y-83809135D01*
X215026202Y-83729020D01*
X215135865Y-83658454D01*
X215222859Y-83531134D01*
X215253464Y-83380000D01*
X215253464Y-82180000D01*
X215226897Y-82038810D01*
X215143454Y-81909135D01*
X215016134Y-81822141D01*
X214996000Y-81818064D01*
X214996000Y-81487123D01*
X215066987Y-81416259D01*
X215170882Y-81166054D01*
X215171118Y-80895135D01*
X215067661Y-80644748D01*
X214876259Y-80453013D01*
X214626054Y-80349118D01*
X214355135Y-80348882D01*
X214104748Y-80452339D01*
X213913013Y-80643741D01*
X213809118Y-80893946D01*
X213808882Y-81164865D01*
X213912339Y-81415252D01*
X213984000Y-81487038D01*
X213984000Y-81816186D01*
X213973810Y-81818103D01*
X213844135Y-81901546D01*
X213757141Y-82028866D01*
X213726536Y-82180000D01*
X213726536Y-83380000D01*
X213753103Y-83521190D01*
X213836546Y-83650865D01*
X213953798Y-83730980D01*
X213844135Y-83801546D01*
X213757141Y-83928866D01*
X213726536Y-84080000D01*
X213726536Y-85280000D01*
X213753103Y-85421190D01*
X213836546Y-85550865D01*
X213963866Y-85637859D01*
X214007200Y-85646634D01*
X214022517Y-85723638D01*
X214132204Y-85887796D01*
X214932204Y-86687796D01*
X215096362Y-86797483D01*
X215290000Y-86836000D01*
X217088497Y-86836000D01*
X216986635Y-86901546D01*
X216899641Y-87028866D01*
X216869036Y-87180000D01*
X216869036Y-88880000D01*
X216895603Y-89021190D01*
X216926500Y-89069206D01*
X216926500Y-89130000D01*
X216965017Y-89323638D01*
X217074704Y-89487796D01*
X218084704Y-90497796D01*
X218248862Y-90607483D01*
X218442500Y-90646000D01*
X219570408Y-90646000D01*
X220148408Y-91224000D01*
X218699592Y-91224000D01*
X213347796Y-85872204D01*
X213183638Y-85762517D01*
X212990000Y-85724000D01*
X196390000Y-85724000D01*
X196196362Y-85762517D01*
X196032204Y-85872204D01*
X193532204Y-88372204D01*
X193422517Y-88536362D01*
X193384000Y-88730000D01*
X193384000Y-98272877D01*
X193313013Y-98343741D01*
X193209118Y-98593946D01*
X193208882Y-98864865D01*
X193312339Y-99115252D01*
X193503741Y-99306987D01*
X193753946Y-99410882D01*
X194024865Y-99411118D01*
X194275252Y-99307661D01*
X194466987Y-99116259D01*
X194570882Y-98866054D01*
X194571118Y-98595135D01*
X194467661Y-98344748D01*
X194396000Y-98272962D01*
X194396000Y-98090328D01*
X194422517Y-98223638D01*
X194532204Y-98387796D01*
X196122204Y-99977796D01*
X196286362Y-100087483D01*
X196480000Y-100126000D01*
X197791877Y-100126000D01*
X198011770Y-100455093D01*
X198394914Y-100711102D01*
X198742998Y-100780340D01*
X198742998Y-100889370D01*
X198520959Y-100768086D01*
X198014866Y-101007611D01*
X197638959Y-101422577D01*
X197478096Y-101810961D01*
X197600085Y-102033000D01*
X198743000Y-102033000D01*
X198743000Y-102013000D01*
X198997000Y-102013000D01*
X198997000Y-102033000D01*
X200139915Y-102033000D01*
X200261904Y-101810961D01*
X200101041Y-101422577D01*
X199725134Y-101007611D01*
X199219041Y-100768086D01*
X198997002Y-100889370D01*
X198997002Y-100780340D01*
X199345086Y-100711102D01*
X199728230Y-100455093D01*
X199885500Y-100219722D01*
X200584000Y-100918222D01*
X200584000Y-125408686D01*
X200622517Y-125602324D01*
X200732204Y-125766482D01*
X204858477Y-129892755D01*
X204569935Y-130085552D01*
X204300140Y-130489329D01*
X204205400Y-130965617D01*
X204205400Y-131014383D01*
X204300140Y-131490671D01*
X204569935Y-131894448D01*
X204973712Y-132164243D01*
X205450000Y-132258983D01*
X205926288Y-132164243D01*
X206330065Y-131894448D01*
X206599860Y-131490671D01*
X206694600Y-131014383D01*
X206694600Y-130965617D01*
X206599860Y-130489329D01*
X206330065Y-130085552D01*
X205956000Y-129835610D01*
X205956000Y-129768686D01*
X205929607Y-129636000D01*
X207034008Y-129636000D01*
X207135944Y-129737936D01*
X207126400Y-129737936D01*
X206985210Y-129764503D01*
X206855535Y-129847946D01*
X206768541Y-129975266D01*
X206737936Y-130126400D01*
X206737936Y-131853600D01*
X206764503Y-131994790D01*
X206847946Y-132124465D01*
X206975266Y-132211459D01*
X207126400Y-132242064D01*
X207227724Y-132242064D01*
X207215053Y-132247312D01*
X206783179Y-132641510D01*
X206600324Y-133031662D01*
X206599860Y-133029329D01*
X206330065Y-132625552D01*
X205926288Y-132355757D01*
X205450000Y-132261017D01*
X204973712Y-132355757D01*
X204569935Y-132625552D01*
X204300140Y-133029329D01*
X204205400Y-133505617D01*
X204205400Y-133554383D01*
X204300140Y-134030671D01*
X204569935Y-134434448D01*
X204973712Y-134704243D01*
X205450000Y-134798983D01*
X205926288Y-134704243D01*
X206330065Y-134434448D01*
X206599860Y-134030671D01*
X206600324Y-134028338D01*
X206783179Y-134418490D01*
X207215053Y-134812688D01*
X207630974Y-134984958D01*
X207863000Y-134863817D01*
X207863000Y-133657000D01*
X208117000Y-133657000D01*
X208117000Y-134863817D01*
X208349026Y-134984958D01*
X208764947Y-134812688D01*
X209196821Y-134418490D01*
X209444968Y-133889027D01*
X209324469Y-133657000D01*
X208117000Y-133657000D01*
X207863000Y-133657000D01*
X207843000Y-133657000D01*
X207843000Y-133403000D01*
X207863000Y-133403000D01*
X207863000Y-133383000D01*
X208117000Y-133383000D01*
X208117000Y-133403000D01*
X209324469Y-133403000D01*
X209444968Y-133170973D01*
X209196821Y-132641510D01*
X208764947Y-132247312D01*
X208752276Y-132242064D01*
X208853600Y-132242064D01*
X208994790Y-132215497D01*
X209124465Y-132132054D01*
X209211459Y-132004734D01*
X209242064Y-131853600D01*
X209242064Y-130126400D01*
X209215497Y-129985210D01*
X209132054Y-129855535D01*
X209004734Y-129768541D01*
X208853600Y-129737936D01*
X208468458Y-129737936D01*
X208457483Y-129682762D01*
X208347796Y-129518604D01*
X207601396Y-128772204D01*
X207437238Y-128662517D01*
X207243600Y-128624000D01*
X206099592Y-128624000D01*
X204838562Y-127362970D01*
X204953946Y-127410882D01*
X205224865Y-127411118D01*
X205475252Y-127307661D01*
X205666987Y-127116259D01*
X205667198Y-127115750D01*
X209205000Y-127115750D01*
X209205000Y-127556309D01*
X209301673Y-127789698D01*
X209480301Y-127968327D01*
X209713690Y-128065000D01*
X210004250Y-128065000D01*
X210163000Y-127906250D01*
X210163000Y-126957000D01*
X210417000Y-126957000D01*
X210417000Y-127906250D01*
X210575750Y-128065000D01*
X210866310Y-128065000D01*
X211099699Y-127968327D01*
X211278327Y-127789698D01*
X211375000Y-127556309D01*
X211375000Y-127115750D01*
X211216250Y-126957000D01*
X210417000Y-126957000D01*
X210163000Y-126957000D01*
X209363750Y-126957000D01*
X209205000Y-127115750D01*
X205667198Y-127115750D01*
X205770882Y-126866054D01*
X205771118Y-126595135D01*
X205667661Y-126344748D01*
X205476259Y-126153013D01*
X205226054Y-126049118D01*
X205124622Y-126049030D01*
X202996000Y-123920408D01*
X202996000Y-122480000D01*
X205285863Y-122480000D01*
X205375761Y-122931949D01*
X205631770Y-123315093D01*
X206014914Y-123571102D01*
X206466863Y-123661000D01*
X206513137Y-123661000D01*
X206965086Y-123571102D01*
X207348230Y-123315093D01*
X207568123Y-122986000D01*
X209430408Y-122986000D01*
X209784000Y-123339592D01*
X209784000Y-123652073D01*
X209698810Y-123668103D01*
X209569135Y-123751546D01*
X209482141Y-123878866D01*
X209451536Y-124030000D01*
X209451536Y-125230000D01*
X209478103Y-125371190D01*
X209561546Y-125500865D01*
X209688866Y-125587859D01*
X209724130Y-125595000D01*
X209713690Y-125595000D01*
X209480301Y-125691673D01*
X209301673Y-125870302D01*
X209205000Y-126103691D01*
X209205000Y-126544250D01*
X209363750Y-126703000D01*
X210163000Y-126703000D01*
X210163000Y-126683000D01*
X210417000Y-126683000D01*
X210417000Y-126703000D01*
X211216250Y-126703000D01*
X211375000Y-126544250D01*
X211375000Y-126103691D01*
X211278327Y-125870302D01*
X211099699Y-125691673D01*
X210866310Y-125595000D01*
X210864699Y-125595000D01*
X210881190Y-125591897D01*
X211010865Y-125508454D01*
X211097859Y-125381134D01*
X211128464Y-125230000D01*
X211128464Y-124030000D01*
X211101897Y-123888810D01*
X211018454Y-123759135D01*
X210891134Y-123672141D01*
X210796000Y-123652876D01*
X210796000Y-123130000D01*
X210757483Y-122936362D01*
X210647796Y-122772204D01*
X209997796Y-122122204D01*
X209833638Y-122012517D01*
X209640000Y-121974000D01*
X207568123Y-121974000D01*
X207348230Y-121644907D01*
X206965086Y-121388898D01*
X206513137Y-121299000D01*
X206466863Y-121299000D01*
X206014914Y-121388898D01*
X205631770Y-121644907D01*
X205375761Y-122028051D01*
X205285863Y-122480000D01*
X202996000Y-122480000D01*
X202996000Y-106890961D01*
X205098096Y-106890961D01*
X205220085Y-107113000D01*
X206363000Y-107113000D01*
X206363000Y-107093000D01*
X206617000Y-107093000D01*
X206617000Y-107113000D01*
X207759915Y-107113000D01*
X207881904Y-106890961D01*
X207721041Y-106502577D01*
X207345134Y-106087611D01*
X206839041Y-105848086D01*
X206617002Y-105969370D01*
X206617002Y-105860340D01*
X206965086Y-105791102D01*
X207348230Y-105535093D01*
X207604239Y-105151949D01*
X207694137Y-104700000D01*
X207604239Y-104248051D01*
X207348230Y-103864907D01*
X206965086Y-103608898D01*
X206513137Y-103519000D01*
X206466863Y-103519000D01*
X206014914Y-103608898D01*
X205631770Y-103864907D01*
X205375761Y-104248051D01*
X205285863Y-104700000D01*
X205375761Y-105151949D01*
X205631770Y-105535093D01*
X206014914Y-105791102D01*
X206362998Y-105860340D01*
X206362998Y-105969370D01*
X206140959Y-105848086D01*
X205634866Y-106087611D01*
X205258959Y-106502577D01*
X205098096Y-106890961D01*
X202996000Y-106890961D01*
X202996000Y-102160000D01*
X205285863Y-102160000D01*
X205375761Y-102611949D01*
X205631770Y-102995093D01*
X206014914Y-103251102D01*
X206466863Y-103341000D01*
X206513137Y-103341000D01*
X206965086Y-103251102D01*
X207348230Y-102995093D01*
X207568123Y-102666000D01*
X207621370Y-102666000D01*
X207772190Y-102636000D01*
X210430408Y-102636000D01*
X211432204Y-103637796D01*
X211596362Y-103747483D01*
X211784000Y-103784807D01*
X211784000Y-104220408D01*
X211132204Y-104872204D01*
X211022517Y-105036362D01*
X210992673Y-105186400D01*
X210969135Y-105201546D01*
X210882141Y-105328866D01*
X210851536Y-105480000D01*
X210851536Y-106080000D01*
X210878103Y-106221190D01*
X210948883Y-106331186D01*
X210919629Y-106374000D01*
X210279748Y-106374000D01*
X210267661Y-106344748D01*
X210076259Y-106153013D01*
X209826054Y-106049118D01*
X209555135Y-106048882D01*
X209304748Y-106152339D01*
X209113013Y-106343741D01*
X209009118Y-106593946D01*
X209008882Y-106864865D01*
X209112339Y-107115252D01*
X209303741Y-107306987D01*
X209553946Y-107410882D01*
X209824865Y-107411118D01*
X209885656Y-107386000D01*
X210919807Y-107386000D01*
X210961546Y-107450865D01*
X211088866Y-107537859D01*
X211240000Y-107568464D01*
X211740000Y-107568464D01*
X211881190Y-107541897D01*
X212010865Y-107458454D01*
X212097859Y-107331134D01*
X212128464Y-107180000D01*
X212128464Y-106580000D01*
X212101897Y-106438810D01*
X212031117Y-106328814D01*
X212097859Y-106231134D01*
X212128464Y-106080000D01*
X212128464Y-105480000D01*
X212101897Y-105338810D01*
X212099894Y-105335698D01*
X212647796Y-104787796D01*
X212757483Y-104623638D01*
X212796000Y-104430000D01*
X212796000Y-103786000D01*
X213724714Y-103786000D01*
X213780142Y-103920146D01*
X214098180Y-104238739D01*
X214513929Y-104411373D01*
X214964096Y-104411766D01*
X215380146Y-104239858D01*
X215698739Y-103921820D01*
X215871373Y-103506071D01*
X215871766Y-103055904D01*
X215699858Y-102639854D01*
X215381820Y-102321261D01*
X214966071Y-102148627D01*
X214515904Y-102148234D01*
X214099854Y-102320142D01*
X213781261Y-102638180D01*
X213724864Y-102774000D01*
X211999592Y-102774000D01*
X210997796Y-101772204D01*
X210833638Y-101662517D01*
X210640000Y-101624000D01*
X207651370Y-101624000D01*
X207560196Y-101642136D01*
X207348230Y-101324907D01*
X206965086Y-101068898D01*
X206513137Y-100979000D01*
X206466863Y-100979000D01*
X206014914Y-101068898D01*
X205631770Y-101324907D01*
X205375761Y-101708051D01*
X205285863Y-102160000D01*
X202996000Y-102160000D01*
X202996000Y-99620000D01*
X205285863Y-99620000D01*
X205375761Y-100071949D01*
X205631770Y-100455093D01*
X206014914Y-100711102D01*
X206466863Y-100801000D01*
X206513137Y-100801000D01*
X206965086Y-100711102D01*
X207348230Y-100455093D01*
X207568123Y-100126000D01*
X210400000Y-100126000D01*
X210593638Y-100087483D01*
X210757796Y-99977796D01*
X211831472Y-98904120D01*
X213724714Y-98904120D01*
X213780142Y-99038266D01*
X214098180Y-99356859D01*
X214234000Y-99413256D01*
X214234000Y-100080000D01*
X214272517Y-100273638D01*
X214382204Y-100437796D01*
X215282204Y-101337796D01*
X215446362Y-101447483D01*
X215640000Y-101486000D01*
X217719807Y-101486000D01*
X217748883Y-101531186D01*
X217682141Y-101628866D01*
X217651536Y-101780000D01*
X217651536Y-102380000D01*
X217678103Y-102521190D01*
X217761546Y-102650865D01*
X217784000Y-102666207D01*
X217784000Y-102872877D01*
X217713013Y-102943741D01*
X217609118Y-103193946D01*
X217608882Y-103464865D01*
X217712339Y-103715252D01*
X217903741Y-103906987D01*
X218153946Y-104010882D01*
X218424865Y-104011118D01*
X218675252Y-103907661D01*
X218866987Y-103716259D01*
X218970882Y-103466054D01*
X218971118Y-103195135D01*
X218867661Y-102944748D01*
X218796000Y-102872962D01*
X218796000Y-102668019D01*
X218810865Y-102658454D01*
X218897859Y-102531134D01*
X218928464Y-102380000D01*
X218928464Y-101780000D01*
X218901897Y-101638810D01*
X218831117Y-101528814D01*
X218897859Y-101431134D01*
X218928464Y-101280000D01*
X218928464Y-100680000D01*
X218901897Y-100538810D01*
X218818454Y-100409135D01*
X218691134Y-100322141D01*
X218540000Y-100291536D01*
X218040000Y-100291536D01*
X217898810Y-100318103D01*
X217769135Y-100401546D01*
X217719629Y-100474000D01*
X215849592Y-100474000D01*
X215246000Y-99870408D01*
X215246000Y-99413406D01*
X215380146Y-99357978D01*
X215698739Y-99039940D01*
X215871373Y-98624191D01*
X215871766Y-98174024D01*
X215699858Y-97757974D01*
X215381820Y-97439381D01*
X214966071Y-97266747D01*
X214515904Y-97266354D01*
X214099854Y-97438262D01*
X213781261Y-97756300D01*
X213724864Y-97892120D01*
X211621880Y-97892120D01*
X211428242Y-97930637D01*
X211264084Y-98040324D01*
X210190408Y-99114000D01*
X207568123Y-99114000D01*
X207348230Y-98784907D01*
X206965086Y-98528898D01*
X206513137Y-98439000D01*
X206466863Y-98439000D01*
X206014914Y-98528898D01*
X205631770Y-98784907D01*
X205375761Y-99168051D01*
X205285863Y-99620000D01*
X202996000Y-99620000D01*
X202996000Y-97080000D01*
X205285863Y-97080000D01*
X205375761Y-97531949D01*
X205631770Y-97915093D01*
X206014914Y-98171102D01*
X206466863Y-98261000D01*
X206513137Y-98261000D01*
X206965086Y-98171102D01*
X207348230Y-97915093D01*
X207604239Y-97531949D01*
X207694137Y-97080000D01*
X207604239Y-96628051D01*
X207348230Y-96244907D01*
X206965086Y-95988898D01*
X206513137Y-95899000D01*
X206466863Y-95899000D01*
X206014914Y-95988898D01*
X205631770Y-96244907D01*
X205375761Y-96628051D01*
X205285863Y-97080000D01*
X202996000Y-97080000D01*
X202996000Y-95530000D01*
X202957483Y-95336362D01*
X202847796Y-95172204D01*
X202215592Y-94540000D01*
X205285863Y-94540000D01*
X205375761Y-94991949D01*
X205631770Y-95375093D01*
X206014914Y-95631102D01*
X206466863Y-95721000D01*
X206513137Y-95721000D01*
X206965086Y-95631102D01*
X207348230Y-95375093D01*
X207604239Y-94991949D01*
X207694137Y-94540000D01*
X207604239Y-94088051D01*
X207348230Y-93704907D01*
X206965086Y-93448898D01*
X206513137Y-93359000D01*
X206466863Y-93359000D01*
X206014914Y-93448898D01*
X205631770Y-93704907D01*
X205375761Y-94088051D01*
X205285863Y-94540000D01*
X202215592Y-94540000D01*
X201847796Y-94172204D01*
X201683638Y-94062517D01*
X201490000Y-94024000D01*
X201439727Y-94034000D01*
X199948123Y-94034000D01*
X199728230Y-93704907D01*
X199345086Y-93448898D01*
X198893137Y-93359000D01*
X198846863Y-93359000D01*
X198394914Y-93448898D01*
X198011770Y-93704907D01*
X197755761Y-94088051D01*
X197665863Y-94540000D01*
X197755761Y-94991949D01*
X198011770Y-95375093D01*
X198394914Y-95631102D01*
X198846863Y-95721000D01*
X198893137Y-95721000D01*
X199345086Y-95631102D01*
X199728230Y-95375093D01*
X199948123Y-95046000D01*
X201290408Y-95046000D01*
X201984000Y-95739592D01*
X201984000Y-97308408D01*
X201397796Y-96722204D01*
X201233638Y-96612517D01*
X201040000Y-96574000D01*
X199948123Y-96574000D01*
X199728230Y-96244907D01*
X199345086Y-95988898D01*
X198893137Y-95899000D01*
X198846863Y-95899000D01*
X198394914Y-95988898D01*
X198011770Y-96244907D01*
X197755761Y-96628051D01*
X197665863Y-97080000D01*
X197755761Y-97531949D01*
X198011770Y-97915093D01*
X198394914Y-98171102D01*
X198846863Y-98261000D01*
X198893137Y-98261000D01*
X199345086Y-98171102D01*
X199728230Y-97915093D01*
X199948123Y-97586000D01*
X200830408Y-97586000D01*
X201184000Y-97939592D01*
X201184000Y-100087038D01*
X200359166Y-99262204D01*
X200195008Y-99152517D01*
X200001370Y-99114000D01*
X199948123Y-99114000D01*
X199728230Y-98784907D01*
X199345086Y-98528898D01*
X198893137Y-98439000D01*
X198846863Y-98439000D01*
X198394914Y-98528898D01*
X198011770Y-98784907D01*
X197791877Y-99114000D01*
X196689592Y-99114000D01*
X195396000Y-97820408D01*
X195396000Y-92000000D01*
X197665863Y-92000000D01*
X197755761Y-92451949D01*
X198011770Y-92835093D01*
X198394914Y-93091102D01*
X198846863Y-93181000D01*
X198893137Y-93181000D01*
X199345086Y-93091102D01*
X199728230Y-92835093D01*
X199984239Y-92451949D01*
X200074137Y-92000000D01*
X205285863Y-92000000D01*
X205375761Y-92451949D01*
X205631770Y-92835093D01*
X206014914Y-93091102D01*
X206466863Y-93181000D01*
X206513137Y-93181000D01*
X206965086Y-93091102D01*
X207348230Y-92835093D01*
X207604239Y-92451949D01*
X207694137Y-92000000D01*
X207604239Y-91548051D01*
X207348230Y-91164907D01*
X206965086Y-90908898D01*
X206513137Y-90819000D01*
X206466863Y-90819000D01*
X206014914Y-90908898D01*
X205631770Y-91164907D01*
X205375761Y-91548051D01*
X205285863Y-92000000D01*
X200074137Y-92000000D01*
X199984239Y-91548051D01*
X199728230Y-91164907D01*
X199345086Y-90908898D01*
X198893137Y-90819000D01*
X198846863Y-90819000D01*
X198394914Y-90908898D01*
X198011770Y-91164907D01*
X197755761Y-91548051D01*
X197665863Y-92000000D01*
X195396000Y-92000000D01*
X195396000Y-89460000D01*
X197665863Y-89460000D01*
X197755761Y-89911949D01*
X198011770Y-90295093D01*
X198394914Y-90551102D01*
X198846863Y-90641000D01*
X198893137Y-90641000D01*
X199345086Y-90551102D01*
X199728230Y-90295093D01*
X199984239Y-89911949D01*
X200074137Y-89460000D01*
X205285863Y-89460000D01*
X205375761Y-89911949D01*
X205631770Y-90295093D01*
X206014914Y-90551102D01*
X206466863Y-90641000D01*
X206513137Y-90641000D01*
X206965086Y-90551102D01*
X207348230Y-90295093D01*
X207568123Y-89966000D01*
X211510408Y-89966000D01*
X219284000Y-97739592D01*
X219284000Y-108430000D01*
X219322517Y-108623638D01*
X219432204Y-108787796D01*
X221188204Y-110543796D01*
X221352362Y-110653483D01*
X221546000Y-110692000D01*
X234545536Y-110692000D01*
X234545536Y-111049600D01*
X234572103Y-111190790D01*
X234655546Y-111320465D01*
X234782866Y-111407459D01*
X234934000Y-111438064D01*
X236966000Y-111438064D01*
X237107190Y-111411497D01*
X237236865Y-111328054D01*
X237323859Y-111200734D01*
X237354464Y-111049600D01*
X237354464Y-109322400D01*
X237327897Y-109181210D01*
X237244454Y-109051535D01*
X237117134Y-108964541D01*
X236966000Y-108933936D01*
X234934000Y-108933936D01*
X234792810Y-108960503D01*
X234663135Y-109043946D01*
X234576141Y-109171266D01*
X234545536Y-109322400D01*
X234545536Y-109680000D01*
X221755592Y-109680000D01*
X220296000Y-108220408D01*
X220296000Y-103350000D01*
X222174000Y-103350000D01*
X222174000Y-106270000D01*
X222212517Y-106463638D01*
X222322204Y-106627796D01*
X224162204Y-108467796D01*
X224326362Y-108577483D01*
X224520000Y-108616000D01*
X226978933Y-108616000D01*
X226978882Y-108674865D01*
X227082339Y-108925252D01*
X227273741Y-109116987D01*
X227523946Y-109220882D01*
X227794865Y-109221118D01*
X228045252Y-109117661D01*
X228236987Y-108926259D01*
X228340882Y-108676054D01*
X228341118Y-108405135D01*
X228237661Y-108154748D01*
X228046259Y-107963013D01*
X227796054Y-107859118D01*
X227694622Y-107859030D01*
X227587796Y-107752204D01*
X227423638Y-107642517D01*
X227230000Y-107604000D01*
X224729592Y-107604000D01*
X223190457Y-106064865D01*
X224008882Y-106064865D01*
X224112339Y-106315252D01*
X224303741Y-106506987D01*
X224553946Y-106610882D01*
X224824865Y-106611118D01*
X225075252Y-106507661D01*
X225266987Y-106316259D01*
X225370882Y-106066054D01*
X225370980Y-105953097D01*
X225384000Y-105933612D01*
X225384000Y-106272877D01*
X225313013Y-106343741D01*
X225209118Y-106593946D01*
X225208882Y-106864865D01*
X225312339Y-107115252D01*
X225503741Y-107306987D01*
X225753946Y-107410882D01*
X226024865Y-107411118D01*
X226275252Y-107307661D01*
X226466987Y-107116259D01*
X226570882Y-106866054D01*
X226571118Y-106595135D01*
X226467661Y-106344748D01*
X226396000Y-106272962D01*
X226396000Y-105739592D01*
X230699592Y-101436000D01*
X232290000Y-101436000D01*
X232483638Y-101397483D01*
X232647796Y-101287796D01*
X233524561Y-100411031D01*
X233624865Y-100411118D01*
X233875252Y-100307661D01*
X234066987Y-100116259D01*
X234170882Y-99866054D01*
X234171118Y-99595135D01*
X234067661Y-99344748D01*
X233876259Y-99153013D01*
X233626054Y-99049118D01*
X233355135Y-99048882D01*
X233104748Y-99152339D01*
X232913013Y-99343741D01*
X232809118Y-99593946D01*
X232809030Y-99695378D01*
X232080408Y-100424000D01*
X230490000Y-100424000D01*
X230296362Y-100462517D01*
X230132204Y-100572204D01*
X225532204Y-105172204D01*
X225495999Y-105226389D01*
X225495999Y-103239593D01*
X228699592Y-100036000D01*
X231032877Y-100036000D01*
X231103741Y-100106987D01*
X231353946Y-100210882D01*
X231624865Y-100211118D01*
X231875252Y-100107661D01*
X232066987Y-99916259D01*
X232170882Y-99666054D01*
X232171118Y-99395135D01*
X232067661Y-99144748D01*
X231876259Y-98953013D01*
X231626054Y-98849118D01*
X231355135Y-98848882D01*
X231104748Y-98952339D01*
X231032962Y-99024000D01*
X228490000Y-99024000D01*
X228296362Y-99062517D01*
X228132204Y-99172204D01*
X224632203Y-102672205D01*
X224522516Y-102836363D01*
X224483999Y-103030001D01*
X224483999Y-105278275D01*
X224304748Y-105352339D01*
X224113013Y-105543741D01*
X224009118Y-105793946D01*
X224008882Y-106064865D01*
X223190457Y-106064865D01*
X223186000Y-106060408D01*
X223186000Y-103559592D01*
X227134561Y-99611031D01*
X227234865Y-99611118D01*
X227485252Y-99507661D01*
X227676987Y-99316259D01*
X227780882Y-99066054D01*
X227781118Y-98795135D01*
X227677661Y-98544748D01*
X227486259Y-98353013D01*
X227236054Y-98249118D01*
X226965135Y-98248882D01*
X226714748Y-98352339D01*
X226523013Y-98543741D01*
X226419118Y-98793946D01*
X226419030Y-98895378D01*
X222322204Y-102992204D01*
X222212517Y-103156362D01*
X222174000Y-103350000D01*
X220296000Y-103350000D01*
X220296000Y-97530000D01*
X220257483Y-97336362D01*
X220147796Y-97172204D01*
X212077796Y-89102204D01*
X211913638Y-88992517D01*
X211720000Y-88954000D01*
X207568123Y-88954000D01*
X207348230Y-88624907D01*
X206965086Y-88368898D01*
X206513137Y-88279000D01*
X206466863Y-88279000D01*
X206014914Y-88368898D01*
X205631770Y-88624907D01*
X205375761Y-89008051D01*
X205285863Y-89460000D01*
X200074137Y-89460000D01*
X199984239Y-89008051D01*
X199728230Y-88624907D01*
X199345086Y-88368898D01*
X198893137Y-88279000D01*
X198846863Y-88279000D01*
X198394914Y-88368898D01*
X198011770Y-88624907D01*
X197755761Y-89008051D01*
X197665863Y-89460000D01*
X195396000Y-89460000D01*
X195396000Y-89139592D01*
X197199592Y-87336000D01*
X211980408Y-87336000D01*
X222488204Y-97843796D01*
X222652362Y-97953483D01*
X222846000Y-97992000D01*
X234640224Y-97992000D01*
X234890166Y-98366065D01*
X235293943Y-98635860D01*
X235770231Y-98730600D01*
X236129769Y-98730600D01*
X236606057Y-98635860D01*
X237009834Y-98366065D01*
X237279629Y-97962288D01*
X237363000Y-97543156D01*
X237363000Y-99968844D01*
X237279629Y-99549712D01*
X237009834Y-99145935D01*
X236606057Y-98876140D01*
X236129769Y-98781400D01*
X235770231Y-98781400D01*
X235293943Y-98876140D01*
X234890166Y-99145935D01*
X234620371Y-99549712D01*
X234525631Y-100026000D01*
X234620371Y-100502288D01*
X234890166Y-100906065D01*
X235293943Y-101175860D01*
X235770231Y-101270600D01*
X236129769Y-101270600D01*
X236606057Y-101175860D01*
X237009834Y-100906065D01*
X237279629Y-100502288D01*
X237363000Y-100083156D01*
X237363000Y-102508844D01*
X237279629Y-102089712D01*
X237009834Y-101685935D01*
X236606057Y-101416140D01*
X236129769Y-101321400D01*
X235770231Y-101321400D01*
X235293943Y-101416140D01*
X234890166Y-101685935D01*
X234620371Y-102089712D01*
X234525631Y-102566000D01*
X234620371Y-103042288D01*
X234890166Y-103446065D01*
X235293943Y-103715860D01*
X235770231Y-103810600D01*
X236129769Y-103810600D01*
X236606057Y-103715860D01*
X237009834Y-103446065D01*
X237279629Y-103042288D01*
X237363000Y-102623156D01*
X237363000Y-105048844D01*
X237279629Y-104629712D01*
X237009834Y-104225935D01*
X236606057Y-103956140D01*
X236129769Y-103861400D01*
X235770231Y-103861400D01*
X235293943Y-103956140D01*
X234890166Y-104225935D01*
X234620371Y-104629712D01*
X234525631Y-105106000D01*
X234620371Y-105582288D01*
X234890166Y-105986065D01*
X235293943Y-106255860D01*
X235770231Y-106350600D01*
X236129769Y-106350600D01*
X236606057Y-106255860D01*
X237009834Y-105986065D01*
X237279629Y-105582288D01*
X237363000Y-105163156D01*
X237363000Y-107588844D01*
X237279629Y-107169712D01*
X237009834Y-106765935D01*
X236606057Y-106496140D01*
X236129769Y-106401400D01*
X235770231Y-106401400D01*
X235293943Y-106496140D01*
X234890166Y-106765935D01*
X234620371Y-107169712D01*
X234525631Y-107646000D01*
X234620371Y-108122288D01*
X234890166Y-108526065D01*
X235293943Y-108795860D01*
X235770231Y-108890600D01*
X236129769Y-108890600D01*
X236606057Y-108795860D01*
X237009834Y-108526065D01*
X237279629Y-108122288D01*
X237363000Y-107703156D01*
X237363000Y-114192844D01*
X237279629Y-113773712D01*
X237009834Y-113369935D01*
X236606057Y-113100140D01*
X236129769Y-113005400D01*
X235770231Y-113005400D01*
X235293943Y-113100140D01*
X234890166Y-113369935D01*
X234620371Y-113773712D01*
X234525631Y-114250000D01*
X234620371Y-114726288D01*
X234890166Y-115130065D01*
X235293943Y-115399860D01*
X235770231Y-115494600D01*
X236129769Y-115494600D01*
X236606057Y-115399860D01*
X237009834Y-115130065D01*
X237279629Y-114726288D01*
X237363000Y-114307156D01*
X237363000Y-116732844D01*
X237279629Y-116313712D01*
X237009834Y-115909935D01*
X236606057Y-115640140D01*
X236129769Y-115545400D01*
X235770231Y-115545400D01*
X235293943Y-115640140D01*
X234890166Y-115909935D01*
X234620371Y-116313712D01*
X234525631Y-116790000D01*
X234620371Y-117266288D01*
X234890166Y-117670065D01*
X235293943Y-117939860D01*
X235770231Y-118034600D01*
X236129769Y-118034600D01*
X236606057Y-117939860D01*
X237009834Y-117670065D01*
X237279629Y-117266288D01*
X237363000Y-116847156D01*
X237363000Y-119272844D01*
X237279629Y-118853712D01*
X237009834Y-118449935D01*
X236606057Y-118180140D01*
X236129769Y-118085400D01*
X235770231Y-118085400D01*
X235293943Y-118180140D01*
X234890166Y-118449935D01*
X234620371Y-118853712D01*
X234525631Y-119330000D01*
X234620371Y-119806288D01*
X234890166Y-120210065D01*
X235293943Y-120479860D01*
X235770231Y-120574600D01*
X236129769Y-120574600D01*
X236606057Y-120479860D01*
X237009834Y-120210065D01*
X237279629Y-119806288D01*
X237363000Y-119387156D01*
X237363000Y-121812844D01*
X237279629Y-121393712D01*
X237009834Y-120989935D01*
X236606057Y-120720140D01*
X236129769Y-120625400D01*
X235770231Y-120625400D01*
X235293943Y-120720140D01*
X234890166Y-120989935D01*
X234640224Y-121364000D01*
X218839592Y-121364000D01*
X210291342Y-112815750D01*
X211305000Y-112815750D01*
X211305000Y-113031310D01*
X211401673Y-113264699D01*
X211580302Y-113443327D01*
X211813691Y-113540000D01*
X212254250Y-113540000D01*
X212413000Y-113381250D01*
X212413000Y-112657000D01*
X211463750Y-112657000D01*
X211305000Y-112815750D01*
X210291342Y-112815750D01*
X209504282Y-112028690D01*
X211305000Y-112028690D01*
X211305000Y-112244250D01*
X211463750Y-112403000D01*
X212413000Y-112403000D01*
X212413000Y-111678750D01*
X212667000Y-111678750D01*
X212667000Y-112403000D01*
X212687000Y-112403000D01*
X212687000Y-112657000D01*
X212667000Y-112657000D01*
X212667000Y-113381250D01*
X212825750Y-113540000D01*
X213266309Y-113540000D01*
X213499698Y-113443327D01*
X213678327Y-113264699D01*
X213681246Y-113257652D01*
X213688866Y-113262859D01*
X213840000Y-113293464D01*
X215040000Y-113293464D01*
X215181190Y-113266897D01*
X215310865Y-113183454D01*
X215397859Y-113056134D01*
X215401936Y-113036000D01*
X215832877Y-113036000D01*
X215903741Y-113106987D01*
X216153946Y-113210882D01*
X216424865Y-113211118D01*
X216675252Y-113107661D01*
X216866987Y-112916259D01*
X216970882Y-112666054D01*
X216971118Y-112395135D01*
X216867661Y-112144748D01*
X216676259Y-111953013D01*
X216426054Y-111849118D01*
X216155135Y-111848882D01*
X215904748Y-111952339D01*
X215832962Y-112024000D01*
X215403814Y-112024000D01*
X215401897Y-112013810D01*
X215318454Y-111884135D01*
X215191134Y-111797141D01*
X215040000Y-111766536D01*
X213840000Y-111766536D01*
X213698810Y-111793103D01*
X213681919Y-111803972D01*
X213678327Y-111795301D01*
X213499698Y-111616673D01*
X213266309Y-111520000D01*
X212825750Y-111520000D01*
X212667000Y-111678750D01*
X212413000Y-111678750D01*
X212254250Y-111520000D01*
X211813691Y-111520000D01*
X211580302Y-111616673D01*
X211401673Y-111795301D01*
X211305000Y-112028690D01*
X209504282Y-112028690D01*
X207697795Y-110222203D01*
X207688138Y-110215750D01*
X209705000Y-110215750D01*
X209705000Y-110431310D01*
X209801673Y-110664699D01*
X209980302Y-110843327D01*
X210213691Y-110940000D01*
X210654250Y-110940000D01*
X210813000Y-110781250D01*
X210813000Y-110057000D01*
X209863750Y-110057000D01*
X209705000Y-110215750D01*
X207688138Y-110215750D01*
X207616926Y-110168168D01*
X207694137Y-109780000D01*
X207624258Y-109428690D01*
X209705000Y-109428690D01*
X209705000Y-109644250D01*
X209863750Y-109803000D01*
X210813000Y-109803000D01*
X210813000Y-109078750D01*
X211067000Y-109078750D01*
X211067000Y-109803000D01*
X211087000Y-109803000D01*
X211087000Y-110057000D01*
X211067000Y-110057000D01*
X211067000Y-110781250D01*
X211225750Y-110940000D01*
X211666309Y-110940000D01*
X211899698Y-110843327D01*
X212078327Y-110664699D01*
X212081246Y-110657652D01*
X212088866Y-110662859D01*
X212240000Y-110693464D01*
X213440000Y-110693464D01*
X213581190Y-110666897D01*
X213710865Y-110583454D01*
X213797859Y-110456134D01*
X213801936Y-110436000D01*
X214032877Y-110436000D01*
X214103741Y-110506987D01*
X214353946Y-110610882D01*
X214624865Y-110611118D01*
X214875252Y-110507661D01*
X215066987Y-110316259D01*
X215129714Y-110165198D01*
X215157483Y-110123638D01*
X215167149Y-110075044D01*
X215170882Y-110066054D01*
X215170891Y-110056234D01*
X215196000Y-109930000D01*
X215171110Y-109804867D01*
X215171118Y-109795135D01*
X215167369Y-109786061D01*
X215157483Y-109736362D01*
X215129577Y-109694598D01*
X215067661Y-109544748D01*
X214876259Y-109353013D01*
X214626054Y-109249118D01*
X214355135Y-109248882D01*
X214104748Y-109352339D01*
X214032962Y-109424000D01*
X213803814Y-109424000D01*
X213801897Y-109413810D01*
X213718454Y-109284135D01*
X213591134Y-109197141D01*
X213440000Y-109166536D01*
X212240000Y-109166536D01*
X212098810Y-109193103D01*
X212081919Y-109203972D01*
X212078327Y-109195301D01*
X211899698Y-109016673D01*
X211666309Y-108920000D01*
X211225750Y-108920000D01*
X211067000Y-109078750D01*
X210813000Y-109078750D01*
X210654250Y-108920000D01*
X210213691Y-108920000D01*
X209980302Y-109016673D01*
X209801673Y-109195301D01*
X209705000Y-109428690D01*
X207624258Y-109428690D01*
X207604239Y-109328051D01*
X207348230Y-108944907D01*
X206965086Y-108688898D01*
X206617002Y-108619660D01*
X206617002Y-108510630D01*
X206839041Y-108631914D01*
X207345134Y-108392389D01*
X207721041Y-107977423D01*
X207881904Y-107589039D01*
X207759915Y-107367000D01*
X206617000Y-107367000D01*
X206617000Y-107387000D01*
X206363000Y-107387000D01*
X206363000Y-107367000D01*
X205220085Y-107367000D01*
X205098096Y-107589039D01*
X205258959Y-107977423D01*
X205634866Y-108392389D01*
X206140959Y-108631914D01*
X206362998Y-108510630D01*
X206362998Y-108619660D01*
X206014914Y-108688898D01*
X205631770Y-108944907D01*
X205375761Y-109328051D01*
X205285863Y-109780000D01*
X205375761Y-110231949D01*
X205631770Y-110615093D01*
X206014914Y-110871102D01*
X206466863Y-110961000D01*
X206513137Y-110961000D01*
X206882031Y-110887623D01*
X206932203Y-110937795D01*
X207082887Y-111038479D01*
X218272204Y-122227796D01*
X218436362Y-122337483D01*
X218630000Y-122376000D01*
X234640224Y-122376000D01*
X234890166Y-122750065D01*
X235293943Y-123019860D01*
X235770231Y-123114600D01*
X236129769Y-123114600D01*
X236606057Y-123019860D01*
X237009834Y-122750065D01*
X237279629Y-122346288D01*
X237363000Y-121927156D01*
X237363000Y-124352844D01*
X237279629Y-123933712D01*
X237009834Y-123529935D01*
X236606057Y-123260140D01*
X236129769Y-123165400D01*
X235770231Y-123165400D01*
X235293943Y-123260140D01*
X234890166Y-123529935D01*
X234640224Y-123904000D01*
X218779592Y-123904000D01*
X216077933Y-121202341D01*
X216057796Y-121172204D01*
X207613082Y-112727490D01*
X207694137Y-112320000D01*
X207604239Y-111868051D01*
X207348230Y-111484907D01*
X206965086Y-111228898D01*
X206513137Y-111139000D01*
X206466863Y-111139000D01*
X206014914Y-111228898D01*
X205631770Y-111484907D01*
X205375761Y-111868051D01*
X205285863Y-112320000D01*
X205375761Y-112771949D01*
X205631770Y-113155093D01*
X206014914Y-113411102D01*
X206466863Y-113501000D01*
X206513137Y-113501000D01*
X206882031Y-113427623D01*
X208608407Y-115153999D01*
X207635657Y-115153999D01*
X207694137Y-114860000D01*
X207604239Y-114408051D01*
X207348230Y-114024907D01*
X206965086Y-113768898D01*
X206513137Y-113679000D01*
X206466863Y-113679000D01*
X206014914Y-113768898D01*
X205631770Y-114024907D01*
X205375761Y-114408051D01*
X205285863Y-114860000D01*
X205375761Y-115311949D01*
X205631770Y-115695093D01*
X206014914Y-115951102D01*
X206466863Y-116041000D01*
X206513137Y-116041000D01*
X206882031Y-115967623D01*
X206932203Y-116017795D01*
X207096361Y-116127482D01*
X207289999Y-116165999D01*
X208410407Y-116165999D01*
X219552204Y-127307796D01*
X219716362Y-127417483D01*
X219910000Y-127456000D01*
X234640224Y-127456000D01*
X234890166Y-127830065D01*
X235293943Y-128099860D01*
X235770231Y-128194600D01*
X236129769Y-128194600D01*
X236606057Y-128099860D01*
X237009834Y-127830065D01*
X237279629Y-127426288D01*
X237363000Y-127007156D01*
X237363000Y-129432844D01*
X237279629Y-129013712D01*
X237009834Y-128609935D01*
X236606057Y-128340140D01*
X236129769Y-128245400D01*
X235770231Y-128245400D01*
X235293943Y-128340140D01*
X234890166Y-128609935D01*
X234640224Y-128984000D01*
X221159592Y-128984000D01*
X210017795Y-117842203D01*
X209853637Y-117732516D01*
X209659999Y-117693999D01*
X207635657Y-117693999D01*
X207694137Y-117400000D01*
X207604239Y-116948051D01*
X207348230Y-116564907D01*
X206965086Y-116308898D01*
X206513137Y-116219000D01*
X206466863Y-116219000D01*
X206014914Y-116308898D01*
X205631770Y-116564907D01*
X205375761Y-116948051D01*
X205285863Y-117400000D01*
X205375761Y-117851949D01*
X205631770Y-118235093D01*
X206014914Y-118491102D01*
X206466863Y-118581000D01*
X206513137Y-118581000D01*
X206882031Y-118507623D01*
X206932203Y-118557795D01*
X207096361Y-118667482D01*
X207289999Y-118705999D01*
X209450407Y-118705999D01*
X210263817Y-119519409D01*
X210193638Y-119472517D01*
X210000000Y-119434000D01*
X207568123Y-119434000D01*
X207348230Y-119104907D01*
X206965086Y-118848898D01*
X206513137Y-118759000D01*
X206466863Y-118759000D01*
X206014914Y-118848898D01*
X205631770Y-119104907D01*
X205375761Y-119488051D01*
X205285863Y-119940000D01*
X205375761Y-120391949D01*
X205631770Y-120775093D01*
X206014914Y-121031102D01*
X206466863Y-121121000D01*
X206513137Y-121121000D01*
X206965086Y-121031102D01*
X207348230Y-120775093D01*
X207568123Y-120446000D01*
X209790408Y-120446000D01*
X221732204Y-132387796D01*
X221896362Y-132497483D01*
X222090000Y-132536000D01*
X234545536Y-132536000D01*
X234545536Y-132893600D01*
X234572103Y-133034790D01*
X234655546Y-133164465D01*
X234782866Y-133251459D01*
X234934000Y-133282064D01*
X236966000Y-133282064D01*
X237107190Y-133255497D01*
X237236865Y-133172054D01*
X237323859Y-133044734D01*
X237354464Y-132893600D01*
X237354464Y-131166400D01*
X237327897Y-131025210D01*
X237244454Y-130895535D01*
X237117134Y-130808541D01*
X236966000Y-130777936D01*
X234934000Y-130777936D01*
X234792810Y-130804503D01*
X234663135Y-130887946D01*
X234576141Y-131015266D01*
X234545536Y-131166400D01*
X234545536Y-131524000D01*
X222299592Y-131524000D01*
X220686183Y-129910591D01*
X220756362Y-129957483D01*
X220950000Y-129996000D01*
X234640224Y-129996000D01*
X234890166Y-130370065D01*
X235293943Y-130639860D01*
X235770231Y-130734600D01*
X236129769Y-130734600D01*
X236606057Y-130639860D01*
X237009834Y-130370065D01*
X237279629Y-129966288D01*
X237363000Y-129547156D01*
X237363000Y-136403000D01*
X186617000Y-136403000D01*
X186617000Y-133505617D01*
X201665400Y-133505617D01*
X201665400Y-133554383D01*
X201760140Y-134030671D01*
X202029935Y-134434448D01*
X202433712Y-134704243D01*
X202910000Y-134798983D01*
X203386288Y-134704243D01*
X203790065Y-134434448D01*
X204059860Y-134030671D01*
X204154600Y-133554383D01*
X204154600Y-133505617D01*
X204059860Y-133029329D01*
X203790065Y-132625552D01*
X203386288Y-132355757D01*
X202910000Y-132261017D01*
X202433712Y-132355757D01*
X202029935Y-132625552D01*
X201760140Y-133029329D01*
X201665400Y-133505617D01*
X186617000Y-133505617D01*
X186617000Y-132890361D01*
X186630166Y-132910065D01*
X187033943Y-133179860D01*
X187510231Y-133274600D01*
X187869769Y-133274600D01*
X188346057Y-133179860D01*
X188749834Y-132910065D01*
X189006486Y-132525958D01*
X189149638Y-132497483D01*
X189313796Y-132387796D01*
X190735975Y-130965617D01*
X201665400Y-130965617D01*
X201665400Y-131014383D01*
X201760140Y-131490671D01*
X202029935Y-131894448D01*
X202433712Y-132164243D01*
X202910000Y-132258983D01*
X203386288Y-132164243D01*
X203790065Y-131894448D01*
X204059860Y-131490671D01*
X204154600Y-131014383D01*
X204154600Y-130965617D01*
X204059860Y-130489329D01*
X203790065Y-130085552D01*
X203386288Y-129815757D01*
X202910000Y-129721017D01*
X202433712Y-129815757D01*
X202029935Y-130085552D01*
X201760140Y-130489329D01*
X201665400Y-130965617D01*
X190735975Y-130965617D01*
X192847796Y-128853796D01*
X192902314Y-128772204D01*
X192957483Y-128689638D01*
X192996000Y-128496000D01*
X192996000Y-125539592D01*
X195549592Y-122986000D01*
X197791877Y-122986000D01*
X198011770Y-123315093D01*
X198394914Y-123571102D01*
X198846863Y-123661000D01*
X198893137Y-123661000D01*
X199345086Y-123571102D01*
X199728230Y-123315093D01*
X199984239Y-122931949D01*
X200074137Y-122480000D01*
X199984239Y-122028051D01*
X199728230Y-121644907D01*
X199345086Y-121388898D01*
X198893137Y-121299000D01*
X198846863Y-121299000D01*
X198394914Y-121388898D01*
X198011770Y-121644907D01*
X197791877Y-121974000D01*
X195461592Y-121974000D01*
X196989592Y-120446000D01*
X197791877Y-120446000D01*
X198011770Y-120775093D01*
X198394914Y-121031102D01*
X198846863Y-121121000D01*
X198893137Y-121121000D01*
X199345086Y-121031102D01*
X199728230Y-120775093D01*
X199984239Y-120391949D01*
X200074137Y-119940000D01*
X199984239Y-119488051D01*
X199728230Y-119104907D01*
X199345086Y-118848898D01*
X198893137Y-118759000D01*
X198846863Y-118759000D01*
X198394914Y-118848898D01*
X198011770Y-119104907D01*
X197791877Y-119434000D01*
X196896000Y-119434000D01*
X196896000Y-118739592D01*
X197729592Y-117906000D01*
X197791877Y-117906000D01*
X198011770Y-118235093D01*
X198394914Y-118491102D01*
X198846863Y-118581000D01*
X198893137Y-118581000D01*
X199345086Y-118491102D01*
X199728230Y-118235093D01*
X199984239Y-117851949D01*
X200074137Y-117400000D01*
X199984239Y-116948051D01*
X199728230Y-116564907D01*
X199345086Y-116308898D01*
X198893137Y-116219000D01*
X198846863Y-116219000D01*
X198394914Y-116308898D01*
X198011770Y-116564907D01*
X197791877Y-116894000D01*
X197520000Y-116894000D01*
X197326362Y-116932517D01*
X197162204Y-117042204D01*
X196032204Y-118172204D01*
X195922517Y-118336362D01*
X195884000Y-118530000D01*
X195884000Y-119306408D01*
X188898291Y-126292117D01*
X188749834Y-126069935D01*
X188346057Y-125800140D01*
X187869769Y-125705400D01*
X187510231Y-125705400D01*
X187033943Y-125800140D01*
X186630166Y-126069935D01*
X186617000Y-126089639D01*
X186617000Y-125270361D01*
X186630166Y-125290065D01*
X187033943Y-125559860D01*
X187510231Y-125654600D01*
X187869769Y-125654600D01*
X188346057Y-125559860D01*
X188749834Y-125290065D01*
X189006486Y-124905958D01*
X189149638Y-124877483D01*
X189313796Y-124767796D01*
X195747796Y-118333796D01*
X195857483Y-118169638D01*
X195896000Y-117976000D01*
X195896000Y-116439592D01*
X196969592Y-115366000D01*
X197791877Y-115366000D01*
X198011770Y-115695093D01*
X198394914Y-115951102D01*
X198846863Y-116041000D01*
X198893137Y-116041000D01*
X199345086Y-115951102D01*
X199728230Y-115695093D01*
X199984239Y-115311949D01*
X200074137Y-114860000D01*
X199984239Y-114408051D01*
X199728230Y-114024907D01*
X199345086Y-113768898D01*
X198893137Y-113679000D01*
X198846863Y-113679000D01*
X198394914Y-113768898D01*
X198011770Y-114024907D01*
X197791877Y-114354000D01*
X196760000Y-114354000D01*
X196566362Y-114392517D01*
X196420469Y-114490000D01*
X196402204Y-114502204D01*
X195032204Y-115872204D01*
X194922517Y-116036362D01*
X194884000Y-116230000D01*
X194884000Y-117766408D01*
X188898291Y-123752117D01*
X188749834Y-123529935D01*
X188346057Y-123260140D01*
X187869769Y-123165400D01*
X187510231Y-123165400D01*
X187033943Y-123260140D01*
X186630166Y-123529935D01*
X186617000Y-123549639D01*
X186617000Y-122730361D01*
X186630166Y-122750065D01*
X187033943Y-123019860D01*
X187510231Y-123114600D01*
X187869769Y-123114600D01*
X188346057Y-123019860D01*
X188749834Y-122750065D01*
X189006486Y-122365958D01*
X189149638Y-122337483D01*
X189313796Y-122227796D01*
X194547796Y-116993796D01*
X194657483Y-116829638D01*
X194696000Y-116636000D01*
X194696000Y-115439592D01*
X197309592Y-112826000D01*
X197791877Y-112826000D01*
X198011770Y-113155093D01*
X198394914Y-113411102D01*
X198846863Y-113501000D01*
X198893137Y-113501000D01*
X199345086Y-113411102D01*
X199728230Y-113155093D01*
X199984239Y-112771949D01*
X200074137Y-112320000D01*
X199984239Y-111868051D01*
X199728230Y-111484907D01*
X199345086Y-111228898D01*
X198893137Y-111139000D01*
X198846863Y-111139000D01*
X198394914Y-111228898D01*
X198011770Y-111484907D01*
X197791877Y-111814000D01*
X197100000Y-111814000D01*
X196906362Y-111852517D01*
X196742204Y-111962204D01*
X193832204Y-114872204D01*
X193796000Y-114926387D01*
X193796000Y-113739592D01*
X197249592Y-110286000D01*
X197791877Y-110286000D01*
X198011770Y-110615093D01*
X198394914Y-110871102D01*
X198846863Y-110961000D01*
X198893137Y-110961000D01*
X199345086Y-110871102D01*
X199728230Y-110615093D01*
X199984239Y-110231949D01*
X200074137Y-109780000D01*
X199984239Y-109328051D01*
X199728230Y-108944907D01*
X199345086Y-108688898D01*
X198893137Y-108599000D01*
X198846863Y-108599000D01*
X198394914Y-108688898D01*
X198011770Y-108944907D01*
X197791877Y-109274000D01*
X197040000Y-109274000D01*
X196846362Y-109312517D01*
X196682204Y-109422204D01*
X192932204Y-113172204D01*
X192822517Y-113336362D01*
X192784000Y-113530000D01*
X192784000Y-114786408D01*
X189094464Y-118475944D01*
X189094464Y-118466400D01*
X189067897Y-118325210D01*
X188984454Y-118195535D01*
X188857134Y-118108541D01*
X188706000Y-118077936D01*
X186674000Y-118077936D01*
X186617000Y-118088661D01*
X186617000Y-115490521D01*
X186674000Y-115502064D01*
X188706000Y-115502064D01*
X188847190Y-115475497D01*
X188976865Y-115392054D01*
X189063859Y-115264734D01*
X189094464Y-115113600D01*
X189094464Y-113386400D01*
X189067897Y-113245210D01*
X188984454Y-113115535D01*
X188857134Y-113028541D01*
X188706000Y-112997936D01*
X186674000Y-112997936D01*
X186617000Y-113008661D01*
X186617000Y-112570361D01*
X186630166Y-112590065D01*
X187033943Y-112859860D01*
X187510231Y-112954600D01*
X187869769Y-112954600D01*
X188346057Y-112859860D01*
X188749834Y-112590065D01*
X189019629Y-112186288D01*
X189114369Y-111710000D01*
X189019629Y-111233712D01*
X188749834Y-110829935D01*
X188346057Y-110560140D01*
X187869769Y-110465400D01*
X187510231Y-110465400D01*
X187033943Y-110560140D01*
X186630166Y-110829935D01*
X186617000Y-110849639D01*
X186617000Y-110030361D01*
X186630166Y-110050065D01*
X187033943Y-110319860D01*
X187510231Y-110414600D01*
X187869769Y-110414600D01*
X188346057Y-110319860D01*
X188749834Y-110050065D01*
X189019629Y-109646288D01*
X189114369Y-109170000D01*
X189019629Y-108693712D01*
X188749834Y-108289935D01*
X188346057Y-108020140D01*
X188331757Y-108017296D01*
X188604320Y-107921954D01*
X189040732Y-107532036D01*
X189294709Y-107004791D01*
X189297358Y-106989026D01*
X189176217Y-106757000D01*
X187817000Y-106757000D01*
X187817000Y-106777000D01*
X187563000Y-106777000D01*
X187563000Y-106757000D01*
X187543000Y-106757000D01*
X187543000Y-106503000D01*
X187563000Y-106503000D01*
X187563000Y-106483000D01*
X187817000Y-106483000D01*
X187817000Y-106503000D01*
X189176217Y-106503000D01*
X189297358Y-106270974D01*
X189294709Y-106255209D01*
X189040732Y-105727964D01*
X188604320Y-105338046D01*
X188331757Y-105242704D01*
X188346057Y-105239860D01*
X188749834Y-104970065D01*
X189019629Y-104566288D01*
X189114369Y-104090000D01*
X189092489Y-103980000D01*
X193326536Y-103980000D01*
X193326536Y-105180000D01*
X193353103Y-105321190D01*
X193436546Y-105450865D01*
X193553798Y-105530980D01*
X193444135Y-105601546D01*
X193357141Y-105728866D01*
X193326536Y-105880000D01*
X193326536Y-107080000D01*
X193353103Y-107221190D01*
X193436546Y-107350865D01*
X193563866Y-107437859D01*
X193715000Y-107468464D01*
X194465000Y-107468464D01*
X194606190Y-107441897D01*
X194735865Y-107358454D01*
X194816801Y-107240000D01*
X197665863Y-107240000D01*
X197755761Y-107691949D01*
X198011770Y-108075093D01*
X198394914Y-108331102D01*
X198846863Y-108421000D01*
X198893137Y-108421000D01*
X199345086Y-108331102D01*
X199728230Y-108075093D01*
X199984239Y-107691949D01*
X200074137Y-107240000D01*
X199984239Y-106788051D01*
X199728230Y-106404907D01*
X199345086Y-106148898D01*
X198893137Y-106059000D01*
X198846863Y-106059000D01*
X198394914Y-106148898D01*
X198011770Y-106404907D01*
X197755761Y-106788051D01*
X197665863Y-107240000D01*
X194816801Y-107240000D01*
X194822859Y-107231134D01*
X194853464Y-107080000D01*
X194853464Y-107036000D01*
X195432877Y-107036000D01*
X195503741Y-107106987D01*
X195753946Y-107210882D01*
X196024865Y-107211118D01*
X196275252Y-107107661D01*
X196466987Y-106916259D01*
X196570882Y-106666054D01*
X196571118Y-106395135D01*
X196467661Y-106144748D01*
X196276259Y-105953013D01*
X196026054Y-105849118D01*
X195755135Y-105848882D01*
X195504748Y-105952339D01*
X195432962Y-106024000D01*
X194925824Y-106024000D01*
X194908638Y-106012517D01*
X194853464Y-106001542D01*
X194853464Y-105880000D01*
X194826897Y-105738810D01*
X194743454Y-105609135D01*
X194626202Y-105529020D01*
X194735865Y-105458454D01*
X194822859Y-105331134D01*
X194853464Y-105180000D01*
X194853464Y-105086000D01*
X197742643Y-105086000D01*
X197755761Y-105151949D01*
X198011770Y-105535093D01*
X198394914Y-105791102D01*
X198846863Y-105881000D01*
X198893137Y-105881000D01*
X199345086Y-105791102D01*
X199728230Y-105535093D01*
X199984239Y-105151949D01*
X200074137Y-104700000D01*
X199984239Y-104248051D01*
X199728230Y-103864907D01*
X199345086Y-103608898D01*
X198997002Y-103539660D01*
X198997002Y-103430630D01*
X199219041Y-103551914D01*
X199725134Y-103312389D01*
X200101041Y-102897423D01*
X200261904Y-102509039D01*
X200139915Y-102287000D01*
X198997000Y-102287000D01*
X198997000Y-102307000D01*
X198743000Y-102307000D01*
X198743000Y-102287000D01*
X197600085Y-102287000D01*
X197478096Y-102509039D01*
X197638959Y-102897423D01*
X198014866Y-103312389D01*
X198520959Y-103551914D01*
X198742998Y-103430630D01*
X198742998Y-103539660D01*
X198394914Y-103608898D01*
X198011770Y-103864907D01*
X197872058Y-104074000D01*
X194853464Y-104074000D01*
X194853464Y-103980000D01*
X194826897Y-103838810D01*
X194743454Y-103709135D01*
X194616134Y-103622141D01*
X194465000Y-103591536D01*
X193715000Y-103591536D01*
X193573810Y-103618103D01*
X193444135Y-103701546D01*
X193357141Y-103828866D01*
X193326536Y-103980000D01*
X189092489Y-103980000D01*
X189019629Y-103613712D01*
X188749834Y-103209935D01*
X188346057Y-102940140D01*
X187869769Y-102845400D01*
X187510231Y-102845400D01*
X187033943Y-102940140D01*
X186630166Y-103209935D01*
X186617000Y-103229639D01*
X186617000Y-102410361D01*
X186630166Y-102430065D01*
X187033943Y-102699860D01*
X187510231Y-102794600D01*
X187869769Y-102794600D01*
X188346057Y-102699860D01*
X188749834Y-102430065D01*
X189019629Y-102026288D01*
X189114369Y-101550000D01*
X189019629Y-101073712D01*
X188749834Y-100669935D01*
X188346057Y-100400140D01*
X187869769Y-100305400D01*
X187510231Y-100305400D01*
X187033943Y-100400140D01*
X186630166Y-100669935D01*
X186617000Y-100689639D01*
X186617000Y-99870361D01*
X186630166Y-99890065D01*
X187033943Y-100159860D01*
X187510231Y-100254600D01*
X187869769Y-100254600D01*
X188346057Y-100159860D01*
X188749834Y-99890065D01*
X189019629Y-99486288D01*
X189114369Y-99010000D01*
X189019629Y-98533712D01*
X188749834Y-98129935D01*
X188346057Y-97860140D01*
X187869769Y-97765400D01*
X187510231Y-97765400D01*
X187033943Y-97860140D01*
X186630166Y-98129935D01*
X186617000Y-98149639D01*
X186617000Y-97330361D01*
X186630166Y-97350065D01*
X187033943Y-97619860D01*
X187510231Y-97714600D01*
X187869769Y-97714600D01*
X188346057Y-97619860D01*
X188749834Y-97350065D01*
X189019629Y-96946288D01*
X189114369Y-96470000D01*
X189019629Y-95993712D01*
X188749834Y-95589935D01*
X188346057Y-95320140D01*
X187869769Y-95225400D01*
X187510231Y-95225400D01*
X187033943Y-95320140D01*
X186630166Y-95589935D01*
X186617000Y-95609639D01*
X186617000Y-76415750D01*
X206655000Y-76415750D01*
X206655000Y-76881310D01*
X206751673Y-77114699D01*
X206930302Y-77293327D01*
X207163691Y-77390000D01*
X207754250Y-77390000D01*
X207913000Y-77231250D01*
X207913000Y-76257000D01*
X206813750Y-76257000D01*
X206655000Y-76415750D01*
X186617000Y-76415750D01*
X186617000Y-75378690D01*
X206655000Y-75378690D01*
X206655000Y-75844250D01*
X206813750Y-76003000D01*
X207913000Y-76003000D01*
X207913000Y-75028750D01*
X208167000Y-75028750D01*
X208167000Y-76003000D01*
X208187000Y-76003000D01*
X208187000Y-76257000D01*
X208167000Y-76257000D01*
X208167000Y-77231250D01*
X208325750Y-77390000D01*
X208916309Y-77390000D01*
X209149698Y-77293327D01*
X209328327Y-77114699D01*
X209425000Y-76881310D01*
X209425000Y-76879699D01*
X209428103Y-76896190D01*
X209511546Y-77025865D01*
X209638866Y-77112859D01*
X209790000Y-77143464D01*
X210061542Y-77143464D01*
X210072517Y-77198638D01*
X210182204Y-77362796D01*
X210384000Y-77564592D01*
X210384000Y-79216186D01*
X210373810Y-79218103D01*
X210244135Y-79301546D01*
X210157141Y-79428866D01*
X210126536Y-79580000D01*
X210126536Y-80780000D01*
X210153103Y-80921190D01*
X210236546Y-81050865D01*
X210353798Y-81130980D01*
X210244135Y-81201546D01*
X210157141Y-81328866D01*
X210126536Y-81480000D01*
X210126536Y-82680000D01*
X210153103Y-82821190D01*
X210236546Y-82950865D01*
X210363866Y-83037859D01*
X210515000Y-83068464D01*
X211265000Y-83068464D01*
X211406190Y-83041897D01*
X211535865Y-82958454D01*
X211622859Y-82831134D01*
X211653464Y-82680000D01*
X211653464Y-82586000D01*
X212182877Y-82586000D01*
X212253741Y-82656987D01*
X212503946Y-82760882D01*
X212774865Y-82761118D01*
X213025252Y-82657661D01*
X213216987Y-82466259D01*
X213320882Y-82216054D01*
X213321118Y-81945135D01*
X213217661Y-81694748D01*
X213026259Y-81503013D01*
X212776054Y-81399118D01*
X212505135Y-81398882D01*
X212254748Y-81502339D01*
X212182962Y-81574000D01*
X211653464Y-81574000D01*
X211653464Y-81480000D01*
X211626897Y-81338810D01*
X211543454Y-81209135D01*
X211426202Y-81129020D01*
X211535865Y-81058454D01*
X211622859Y-80931134D01*
X211653464Y-80780000D01*
X211653464Y-79580000D01*
X211626897Y-79438810D01*
X211543454Y-79309135D01*
X211416134Y-79222141D01*
X211396000Y-79218064D01*
X211396000Y-77355000D01*
X211357483Y-77161362D01*
X211339323Y-77134183D01*
X211431190Y-77116897D01*
X211560865Y-77033454D01*
X211647859Y-76906134D01*
X211678464Y-76755000D01*
X211678464Y-76636000D01*
X219722768Y-76636000D01*
X219780446Y-76775592D01*
X220101697Y-77097403D01*
X220521646Y-77271781D01*
X220976359Y-77272178D01*
X221396612Y-77098534D01*
X221718423Y-76777283D01*
X221892801Y-76357334D01*
X221893198Y-75902621D01*
X221719554Y-75482368D01*
X221398303Y-75160557D01*
X221323822Y-75129630D01*
X221396612Y-75099554D01*
X221718423Y-74778303D01*
X221892801Y-74358354D01*
X221892802Y-74356359D01*
X222146802Y-74356359D01*
X222320446Y-74776612D01*
X222641697Y-75098423D01*
X222716178Y-75129350D01*
X222643388Y-75159426D01*
X222321577Y-75480677D01*
X222147199Y-75900626D01*
X222146802Y-76355339D01*
X222320446Y-76775592D01*
X222641697Y-77097403D01*
X223061646Y-77271781D01*
X223516359Y-77272178D01*
X223936612Y-77098534D01*
X224258423Y-76777283D01*
X224432801Y-76357334D01*
X224433198Y-75902621D01*
X224420951Y-75872981D01*
X229853019Y-75872981D01*
X230046657Y-75834464D01*
X230210815Y-75724777D01*
X231299592Y-74636000D01*
X233384000Y-74636000D01*
X233384000Y-75935594D01*
X233291134Y-75872141D01*
X233140000Y-75841536D01*
X232240000Y-75841536D01*
X232098810Y-75868103D01*
X231969135Y-75951546D01*
X231882141Y-76078866D01*
X231851536Y-76230000D01*
X231851536Y-76324000D01*
X231790000Y-76324000D01*
X231596362Y-76362517D01*
X231432204Y-76472204D01*
X230932204Y-76972204D01*
X230822517Y-77136362D01*
X230784000Y-77330000D01*
X230784000Y-78320408D01*
X230660126Y-78444282D01*
X230591134Y-78397141D01*
X230440000Y-78366536D01*
X229240000Y-78366536D01*
X229098810Y-78393103D01*
X228969135Y-78476546D01*
X228889020Y-78593798D01*
X228818454Y-78484135D01*
X228691134Y-78397141D01*
X228540000Y-78366536D01*
X227340000Y-78366536D01*
X227198810Y-78393103D01*
X227069135Y-78476546D01*
X227021644Y-78546052D01*
X226971031Y-78495439D01*
X226971118Y-78395135D01*
X226867661Y-78144748D01*
X226676259Y-77953013D01*
X226426054Y-77849118D01*
X226155135Y-77848882D01*
X225904748Y-77952339D01*
X225713013Y-78143741D01*
X225609118Y-78393946D01*
X225608882Y-78664865D01*
X225712339Y-78915252D01*
X225903741Y-79106987D01*
X226153946Y-79210882D01*
X226255378Y-79210970D01*
X226532204Y-79487796D01*
X226696362Y-79597483D01*
X226890000Y-79636000D01*
X226976186Y-79636000D01*
X226978103Y-79646190D01*
X227061546Y-79775865D01*
X227188866Y-79862859D01*
X227340000Y-79893464D01*
X228540000Y-79893464D01*
X228681190Y-79866897D01*
X228810865Y-79783454D01*
X228890980Y-79666202D01*
X228961546Y-79775865D01*
X229088866Y-79862859D01*
X229240000Y-79893464D01*
X230440000Y-79893464D01*
X230581190Y-79866897D01*
X230710865Y-79783454D01*
X230797859Y-79656134D01*
X230806634Y-79612800D01*
X230883638Y-79597483D01*
X231047796Y-79487796D01*
X231647796Y-78887796D01*
X231757483Y-78723638D01*
X231796000Y-78530000D01*
X231796000Y-77539592D01*
X231860097Y-77475495D01*
X231878103Y-77571190D01*
X231961546Y-77700865D01*
X232088866Y-77787859D01*
X232240000Y-77818464D01*
X233140000Y-77818464D01*
X233281190Y-77791897D01*
X233410865Y-77708454D01*
X233497859Y-77581134D01*
X233528464Y-77430000D01*
X233528464Y-77336000D01*
X233590000Y-77336000D01*
X233783638Y-77297483D01*
X233947796Y-77187796D01*
X234190000Y-76945592D01*
X234432204Y-77187796D01*
X234596362Y-77297483D01*
X234651536Y-77308458D01*
X234651536Y-77430000D01*
X234678103Y-77571190D01*
X234761546Y-77700865D01*
X234888866Y-77787859D01*
X235040000Y-77818464D01*
X235940000Y-77818464D01*
X236081190Y-77791897D01*
X236210865Y-77708454D01*
X236297859Y-77581134D01*
X236328464Y-77430000D01*
X236328464Y-76230000D01*
X236301897Y-76088810D01*
X236218454Y-75959135D01*
X236091134Y-75872141D01*
X235940000Y-75841536D01*
X235040000Y-75841536D01*
X234996000Y-75849815D01*
X234996000Y-75236000D01*
X235890000Y-75236000D01*
X236083638Y-75197483D01*
X236247796Y-75087796D01*
X236647796Y-74687796D01*
X236757483Y-74523638D01*
X236772481Y-74448240D01*
X236806190Y-74441897D01*
X236935865Y-74358454D01*
X237022859Y-74231134D01*
X237053464Y-74080000D01*
X237053464Y-72880000D01*
X237026897Y-72738810D01*
X236943454Y-72609135D01*
X236826202Y-72529020D01*
X236935865Y-72458454D01*
X237022859Y-72331134D01*
X237053464Y-72180000D01*
X237053464Y-70980000D01*
X237026897Y-70838810D01*
X236943454Y-70709135D01*
X236816134Y-70622141D01*
X236665000Y-70591536D01*
X235915000Y-70591536D01*
X235773810Y-70618103D01*
X235644135Y-70701546D01*
X235557141Y-70828866D01*
X235526536Y-70980000D01*
X235526536Y-71101542D01*
X235471362Y-71112517D01*
X235307204Y-71222204D01*
X235305408Y-71224000D01*
X234347123Y-71224000D01*
X234276259Y-71153013D01*
X234026054Y-71049118D01*
X233755135Y-71048882D01*
X233504748Y-71152339D01*
X233313013Y-71343741D01*
X233209118Y-71593946D01*
X233208882Y-71864865D01*
X233312339Y-72115252D01*
X233503741Y-72306987D01*
X233753946Y-72410882D01*
X234024865Y-72411118D01*
X234275252Y-72307661D01*
X234347038Y-72236000D01*
X235515000Y-72236000D01*
X235536277Y-72231768D01*
X235553103Y-72321190D01*
X235636546Y-72450865D01*
X235753798Y-72530980D01*
X235644135Y-72601546D01*
X235557141Y-72728866D01*
X235526536Y-72880000D01*
X235526536Y-74080000D01*
X235553103Y-74221190D01*
X235554911Y-74224000D01*
X234996000Y-74224000D01*
X234996000Y-74130000D01*
X234957483Y-73936362D01*
X234847796Y-73772204D01*
X234247796Y-73172204D01*
X234083638Y-73062517D01*
X233890000Y-73024000D01*
X230890000Y-73024000D01*
X230696362Y-73062517D01*
X230532204Y-73172204D01*
X229318409Y-74385999D01*
X224421322Y-74385999D01*
X224432801Y-74358354D01*
X224433198Y-73903641D01*
X224259554Y-73483388D01*
X223938303Y-73161577D01*
X223518354Y-72987199D01*
X223063641Y-72986802D01*
X222643388Y-73160446D01*
X222321577Y-73481697D01*
X222147199Y-73901646D01*
X222146802Y-74356359D01*
X221892802Y-74356359D01*
X221893198Y-73903641D01*
X221719554Y-73483388D01*
X221398303Y-73161577D01*
X220978354Y-72987199D01*
X220523641Y-72986802D01*
X220103388Y-73160446D01*
X219781577Y-73481697D01*
X219607199Y-73901646D01*
X219606802Y-74356359D01*
X219780446Y-74776612D01*
X220101697Y-75098423D01*
X220176178Y-75129350D01*
X220103388Y-75159426D01*
X219781577Y-75480677D01*
X219722064Y-75624000D01*
X211678464Y-75624000D01*
X211678464Y-75505000D01*
X211651897Y-75363810D01*
X211568454Y-75234135D01*
X211441134Y-75147141D01*
X211290000Y-75116536D01*
X209790000Y-75116536D01*
X209648810Y-75143103D01*
X209519135Y-75226546D01*
X209432141Y-75353866D01*
X209425000Y-75389130D01*
X209425000Y-75378690D01*
X209328327Y-75145301D01*
X209149698Y-74966673D01*
X208916309Y-74870000D01*
X208325750Y-74870000D01*
X208167000Y-75028750D01*
X207913000Y-75028750D01*
X207754250Y-74870000D01*
X207163691Y-74870000D01*
X206930302Y-74966673D01*
X206751673Y-75145301D01*
X206655000Y-75378690D01*
X186617000Y-75378690D01*
X186617000Y-71772788D01*
X214289211Y-71772788D01*
X214552186Y-72409237D01*
X215038702Y-72896603D01*
X215674690Y-73160688D01*
X216363328Y-73161289D01*
X216999777Y-72898314D01*
X217487143Y-72411798D01*
X217751228Y-71775810D01*
X217751230Y-71772788D01*
X226288171Y-71772788D01*
X226551146Y-72409237D01*
X227037662Y-72896603D01*
X227673650Y-73160688D01*
X228362288Y-73161289D01*
X228998737Y-72898314D01*
X229486103Y-72411798D01*
X229750188Y-71775810D01*
X229750789Y-71087172D01*
X229487814Y-70450723D01*
X229001298Y-69963357D01*
X228365310Y-69699272D01*
X227676672Y-69698671D01*
X227040223Y-69961646D01*
X226552857Y-70448162D01*
X226288772Y-71084150D01*
X226288171Y-71772788D01*
X217751230Y-71772788D01*
X217751829Y-71087172D01*
X217488854Y-70450723D01*
X217002338Y-69963357D01*
X216366350Y-69699272D01*
X215677712Y-69698671D01*
X215041263Y-69961646D01*
X214553897Y-70448162D01*
X214289812Y-71084150D01*
X214289211Y-71772788D01*
X186617000Y-71772788D01*
X186617000Y-69657000D01*
X237363000Y-69657000D01*
X237363000Y-87268844D01*
X237363000Y-87268844D01*
G37*
X237363000Y-87268844D02*
X237279629Y-86849712D01*
X237009834Y-86445935D01*
X236606057Y-86176140D01*
X236129769Y-86081400D01*
X235770231Y-86081400D01*
X235293943Y-86176140D01*
X234890166Y-86445935D01*
X234620371Y-86849712D01*
X234525631Y-87326000D01*
X234620371Y-87802288D01*
X234890166Y-88206065D01*
X235293943Y-88475860D01*
X235770231Y-88570600D01*
X236129769Y-88570600D01*
X236606057Y-88475860D01*
X237009834Y-88206065D01*
X237279629Y-87802288D01*
X237363000Y-87383156D01*
X237363000Y-89808844D01*
X237279629Y-89389712D01*
X237009834Y-88985935D01*
X236606057Y-88716140D01*
X236129769Y-88621400D01*
X235770231Y-88621400D01*
X235293943Y-88716140D01*
X234890166Y-88985935D01*
X234620371Y-89389712D01*
X234525631Y-89866000D01*
X234620371Y-90342288D01*
X234890166Y-90746065D01*
X235293943Y-91015860D01*
X235770231Y-91110600D01*
X236129769Y-91110600D01*
X236606057Y-91015860D01*
X237009834Y-90746065D01*
X237279629Y-90342288D01*
X237363000Y-89923156D01*
X237363000Y-92348844D01*
X237279629Y-91929712D01*
X237009834Y-91525935D01*
X236606057Y-91256140D01*
X236129769Y-91161400D01*
X235770231Y-91161400D01*
X235293943Y-91256140D01*
X234890166Y-91525935D01*
X234741709Y-91748117D01*
X234365796Y-91372204D01*
X234201638Y-91262517D01*
X234008000Y-91224000D01*
X222251592Y-91224000D01*
X222939592Y-90536000D01*
X226572877Y-90536000D01*
X226643741Y-90606987D01*
X226893946Y-90710882D01*
X227164865Y-90711118D01*
X227415252Y-90607661D01*
X227606987Y-90416259D01*
X227710882Y-90166054D01*
X227711118Y-89895135D01*
X227607661Y-89644748D01*
X227416259Y-89453013D01*
X227166054Y-89349118D01*
X226895135Y-89348882D01*
X226644748Y-89452339D01*
X226572962Y-89524000D01*
X222730000Y-89524000D01*
X222536362Y-89562517D01*
X222372204Y-89672204D01*
X221610408Y-90434000D01*
X220789592Y-90434000D01*
X220766485Y-90410893D01*
X221024865Y-90411118D01*
X221275252Y-90307661D01*
X221466987Y-90116259D01*
X221570882Y-89866054D01*
X221571118Y-89595135D01*
X221467661Y-89344748D01*
X221391509Y-89268464D01*
X221417500Y-89268464D01*
X221558690Y-89241897D01*
X221561710Y-89239954D01*
X221702500Y-89268464D01*
X222052500Y-89268464D01*
X222193690Y-89241897D01*
X222196710Y-89239954D01*
X222337500Y-89268464D01*
X222687500Y-89268464D01*
X222828690Y-89241897D01*
X222831710Y-89239954D01*
X222972500Y-89268464D01*
X223322500Y-89268464D01*
X223463690Y-89241897D01*
X223593365Y-89158454D01*
X223680359Y-89031134D01*
X223710964Y-88880000D01*
X223710964Y-87180000D01*
X223684397Y-87038810D01*
X223600954Y-86909135D01*
X223473634Y-86822141D01*
X223322500Y-86791536D01*
X222972500Y-86791536D01*
X222831310Y-86818103D01*
X222828290Y-86820046D01*
X222687500Y-86791536D01*
X222337500Y-86791536D01*
X222196310Y-86818103D01*
X222193290Y-86820046D01*
X222052500Y-86791536D01*
X221702500Y-86791536D01*
X221561310Y-86818103D01*
X221558290Y-86820046D01*
X221417500Y-86791536D01*
X221067500Y-86791536D01*
X220926310Y-86818103D01*
X220923290Y-86820046D01*
X220782500Y-86791536D01*
X220432500Y-86791536D01*
X220291310Y-86818103D01*
X220288290Y-86820046D01*
X220147500Y-86791536D01*
X219843500Y-86791536D01*
X219843500Y-86787092D01*
X219847796Y-86782796D01*
X219911273Y-86687796D01*
X219957483Y-86618638D01*
X219958990Y-86611061D01*
X220024865Y-86611118D01*
X220275252Y-86507661D01*
X220466987Y-86316259D01*
X220570882Y-86066054D01*
X220571118Y-85795135D01*
X220505365Y-85636000D01*
X220680408Y-85636000D01*
X221332204Y-86287796D01*
X221496362Y-86397483D01*
X221690000Y-86436000D01*
X223090000Y-86436000D01*
X223283638Y-86397483D01*
X223447796Y-86287796D01*
X223647796Y-86087796D01*
X223661555Y-86067204D01*
X223757483Y-85923638D01*
X223796000Y-85730000D01*
X223796000Y-85636000D01*
X223805408Y-85636000D01*
X224507204Y-86337796D01*
X224671362Y-86447483D01*
X224865000Y-86486000D01*
X225426536Y-86486000D01*
X225426536Y-86580000D01*
X225453103Y-86721190D01*
X225536546Y-86850865D01*
X225653798Y-86930980D01*
X225544135Y-87001546D01*
X225457141Y-87128866D01*
X225426536Y-87280000D01*
X225426536Y-87374000D01*
X225147123Y-87374000D01*
X225076259Y-87303013D01*
X224826054Y-87199118D01*
X224555135Y-87198882D01*
X224304748Y-87302339D01*
X224113013Y-87493741D01*
X224009118Y-87743946D01*
X224008882Y-88014865D01*
X224112339Y-88265252D01*
X224303741Y-88456987D01*
X224553946Y-88560882D01*
X224824865Y-88561118D01*
X225075252Y-88457661D01*
X225147038Y-88386000D01*
X225426536Y-88386000D01*
X225426536Y-88480000D01*
X225453103Y-88621190D01*
X225536546Y-88750865D01*
X225663866Y-88837859D01*
X225815000Y-88868464D01*
X226565000Y-88868464D01*
X226706190Y-88841897D01*
X226835865Y-88758454D01*
X226922859Y-88631134D01*
X226953464Y-88480000D01*
X226953464Y-87280000D01*
X226926897Y-87138810D01*
X226843454Y-87009135D01*
X226726202Y-86929020D01*
X226835865Y-86858454D01*
X226922859Y-86731134D01*
X226953464Y-86580000D01*
X226953464Y-85380000D01*
X226926897Y-85238810D01*
X226843454Y-85109135D01*
X226716134Y-85022141D01*
X226565000Y-84991536D01*
X225815000Y-84991536D01*
X225673810Y-85018103D01*
X225544135Y-85101546D01*
X225457141Y-85228866D01*
X225426536Y-85380000D01*
X225426536Y-85474000D01*
X225074592Y-85474000D01*
X224372796Y-84772204D01*
X224208638Y-84662517D01*
X224015000Y-84624000D01*
X222699592Y-84624000D01*
X222383500Y-84307908D01*
X222383500Y-83868464D01*
X222687500Y-83868464D01*
X222828690Y-83841897D01*
X222831710Y-83839954D01*
X222972500Y-83868464D01*
X223322500Y-83868464D01*
X223463690Y-83841897D01*
X223593365Y-83758454D01*
X223680359Y-83631134D01*
X223710964Y-83480000D01*
X223710964Y-81780000D01*
X223684397Y-81638810D01*
X223653500Y-81590794D01*
X223653500Y-81282092D01*
X223699592Y-81236000D01*
X225280408Y-81236000D01*
X225732204Y-81687796D01*
X225896362Y-81797483D01*
X226090000Y-81836000D01*
X233690000Y-81836000D01*
X233883638Y-81797483D01*
X234047796Y-81687796D01*
X234847796Y-80887796D01*
X234957483Y-80723638D01*
X234996000Y-80530000D01*
X234996000Y-80009554D01*
X235040000Y-80018464D01*
X235940000Y-80018464D01*
X236081190Y-79991897D01*
X236210865Y-79908454D01*
X236297859Y-79781134D01*
X236328464Y-79630000D01*
X236328464Y-78430000D01*
X236301897Y-78288810D01*
X236218454Y-78159135D01*
X236091134Y-78072141D01*
X235940000Y-78041536D01*
X235040000Y-78041536D01*
X234898810Y-78068103D01*
X234769135Y-78151546D01*
X234682141Y-78278866D01*
X234651536Y-78430000D01*
X234651536Y-78551542D01*
X234596362Y-78562517D01*
X234432204Y-78672204D01*
X234132204Y-78972204D01*
X234090000Y-79035367D01*
X234047796Y-78972204D01*
X233747796Y-78672204D01*
X233583638Y-78562517D01*
X233528464Y-78551542D01*
X233528464Y-78430000D01*
X233501897Y-78288810D01*
X233418454Y-78159135D01*
X233291134Y-78072141D01*
X233140000Y-78041536D01*
X232240000Y-78041536D01*
X232098810Y-78068103D01*
X231969135Y-78151546D01*
X231882141Y-78278866D01*
X231851536Y-78430000D01*
X231851536Y-79630000D01*
X231878103Y-79771190D01*
X231961546Y-79900865D01*
X232088866Y-79987859D01*
X232240000Y-80018464D01*
X233140000Y-80018464D01*
X233184000Y-80010185D01*
X233184000Y-80120408D01*
X233080408Y-80224000D01*
X226499592Y-80224000D01*
X226047796Y-79772204D01*
X225883638Y-79662517D01*
X225690000Y-79624000D01*
X223090000Y-79624000D01*
X222896362Y-79662517D01*
X222732204Y-79772204D01*
X222154704Y-80349704D01*
X222045017Y-80513862D01*
X222006500Y-80707500D01*
X222006500Y-81391536D01*
X221702500Y-81391536D01*
X221561310Y-81418103D01*
X221558290Y-81420046D01*
X221417500Y-81391536D01*
X221292062Y-81391536D01*
X221142198Y-81241673D01*
X220908809Y-81145000D01*
X220853750Y-81145000D01*
X220695000Y-81303750D01*
X220695000Y-81701166D01*
X220679036Y-81780000D01*
X220679036Y-83480000D01*
X220695000Y-83564840D01*
X220695000Y-83956250D01*
X220853750Y-84115000D01*
X220908809Y-84115000D01*
X220911000Y-84114092D01*
X221084704Y-84287796D01*
X221248862Y-84397483D01*
X221371500Y-84421877D01*
X221371500Y-84517500D01*
X221410017Y-84711138D01*
X221519704Y-84875296D01*
X222068408Y-85424000D01*
X221899592Y-85424000D01*
X221247796Y-84772204D01*
X221083638Y-84662517D01*
X220890000Y-84624000D01*
X219290000Y-84624000D01*
X219096362Y-84662517D01*
X218932204Y-84772204D01*
X218770998Y-84933410D01*
X218771118Y-84795135D01*
X218667661Y-84544748D01*
X218476259Y-84353013D01*
X218226054Y-84249118D01*
X218124622Y-84249030D01*
X217938500Y-84062908D01*
X217938500Y-83868464D01*
X218242500Y-83868464D01*
X218383690Y-83841897D01*
X218386710Y-83839954D01*
X218527500Y-83868464D01*
X218877500Y-83868464D01*
X219018690Y-83841897D01*
X219021710Y-83839954D01*
X219162500Y-83868464D01*
X219512500Y-83868464D01*
X219653690Y-83841897D01*
X219656710Y-83839954D01*
X219797500Y-83868464D01*
X219922938Y-83868464D01*
X220072802Y-84018327D01*
X220306191Y-84115000D01*
X220361250Y-84115000D01*
X220520000Y-83956250D01*
X220520000Y-83558834D01*
X220535964Y-83480000D01*
X220535964Y-81780000D01*
X220520000Y-81695160D01*
X220520000Y-81303750D01*
X220441192Y-81224942D01*
X220439983Y-81218862D01*
X220330296Y-81054704D01*
X220171031Y-80895439D01*
X220171118Y-80795135D01*
X220067661Y-80544748D01*
X219876259Y-80353013D01*
X219626054Y-80249118D01*
X219355135Y-80248882D01*
X219104748Y-80352339D01*
X218913013Y-80543741D01*
X218809118Y-80793946D01*
X218808882Y-81064865D01*
X218912339Y-81315252D01*
X219016612Y-81419707D01*
X218877500Y-81391536D01*
X218527500Y-81391536D01*
X218386310Y-81418103D01*
X218383290Y-81420046D01*
X218242500Y-81391536D01*
X217892500Y-81391536D01*
X217751310Y-81418103D01*
X217748290Y-81420046D01*
X217607500Y-81391536D01*
X217257500Y-81391536D01*
X217116310Y-81418103D01*
X216986635Y-81501546D01*
X216899641Y-81628866D01*
X216869036Y-81780000D01*
X216869036Y-83480000D01*
X216895603Y-83621190D01*
X216926500Y-83669206D01*
X216926500Y-84272500D01*
X216965017Y-84466138D01*
X217074704Y-84630296D01*
X217408969Y-84964561D01*
X217408882Y-85064865D01*
X217512339Y-85315252D01*
X217703741Y-85506987D01*
X217953946Y-85610882D01*
X218224865Y-85611118D01*
X218384000Y-85545365D01*
X218384000Y-85720408D01*
X218250891Y-85853517D01*
X218102500Y-85824000D01*
X215499592Y-85824000D01*
X215175718Y-85500126D01*
X215222859Y-85431134D01*
X215253464Y-85280000D01*
X215253464Y-84080000D01*
X215226897Y-83938810D01*
X215143454Y-83809135D01*
X215026202Y-83729020D01*
X215135865Y-83658454D01*
X215222859Y-83531134D01*
X215253464Y-83380000D01*
X215253464Y-82180000D01*
X215226897Y-82038810D01*
X215143454Y-81909135D01*
X215016134Y-81822141D01*
X214996000Y-81818064D01*
X214996000Y-81487123D01*
X215066987Y-81416259D01*
X215170882Y-81166054D01*
X215171118Y-80895135D01*
X215067661Y-80644748D01*
X214876259Y-80453013D01*
X214626054Y-80349118D01*
X214355135Y-80348882D01*
X214104748Y-80452339D01*
X213913013Y-80643741D01*
X213809118Y-80893946D01*
X213808882Y-81164865D01*
X213912339Y-81415252D01*
X213984000Y-81487038D01*
X213984000Y-81816186D01*
X213973810Y-81818103D01*
X213844135Y-81901546D01*
X213757141Y-82028866D01*
X213726536Y-82180000D01*
X213726536Y-83380000D01*
X213753103Y-83521190D01*
X213836546Y-83650865D01*
X213953798Y-83730980D01*
X213844135Y-83801546D01*
X213757141Y-83928866D01*
X213726536Y-84080000D01*
X213726536Y-85280000D01*
X213753103Y-85421190D01*
X213836546Y-85550865D01*
X213963866Y-85637859D01*
X214007200Y-85646634D01*
X214022517Y-85723638D01*
X214132204Y-85887796D01*
X214932204Y-86687796D01*
X215096362Y-86797483D01*
X215290000Y-86836000D01*
X217088497Y-86836000D01*
X216986635Y-86901546D01*
X216899641Y-87028866D01*
X216869036Y-87180000D01*
X216869036Y-88880000D01*
X216895603Y-89021190D01*
X216926500Y-89069206D01*
X216926500Y-89130000D01*
X216965017Y-89323638D01*
X217074704Y-89487796D01*
X218084704Y-90497796D01*
X218248862Y-90607483D01*
X218442500Y-90646000D01*
X219570408Y-90646000D01*
X220148408Y-91224000D01*
X218699592Y-91224000D01*
X213347796Y-85872204D01*
X213183638Y-85762517D01*
X212990000Y-85724000D01*
X196390000Y-85724000D01*
X196196362Y-85762517D01*
X196032204Y-85872204D01*
X193532204Y-88372204D01*
X193422517Y-88536362D01*
X193384000Y-88730000D01*
X193384000Y-98272877D01*
X193313013Y-98343741D01*
X193209118Y-98593946D01*
X193208882Y-98864865D01*
X193312339Y-99115252D01*
X193503741Y-99306987D01*
X193753946Y-99410882D01*
X194024865Y-99411118D01*
X194275252Y-99307661D01*
X194466987Y-99116259D01*
X194570882Y-98866054D01*
X194571118Y-98595135D01*
X194467661Y-98344748D01*
X194396000Y-98272962D01*
X194396000Y-98090328D01*
X194422517Y-98223638D01*
X194532204Y-98387796D01*
X196122204Y-99977796D01*
X196286362Y-100087483D01*
X196480000Y-100126000D01*
X197791877Y-100126000D01*
X198011770Y-100455093D01*
X198394914Y-100711102D01*
X198742998Y-100780340D01*
X198742998Y-100889370D01*
X198520959Y-100768086D01*
X198014866Y-101007611D01*
X197638959Y-101422577D01*
X197478096Y-101810961D01*
X197600085Y-102033000D01*
X198743000Y-102033000D01*
X198743000Y-102013000D01*
X198997000Y-102013000D01*
X198997000Y-102033000D01*
X200139915Y-102033000D01*
X200261904Y-101810961D01*
X200101041Y-101422577D01*
X199725134Y-101007611D01*
X199219041Y-100768086D01*
X198997002Y-100889370D01*
X198997002Y-100780340D01*
X199345086Y-100711102D01*
X199728230Y-100455093D01*
X199885500Y-100219722D01*
X200584000Y-100918222D01*
X200584000Y-125408686D01*
X200622517Y-125602324D01*
X200732204Y-125766482D01*
X204858477Y-129892755D01*
X204569935Y-130085552D01*
X204300140Y-130489329D01*
X204205400Y-130965617D01*
X204205400Y-131014383D01*
X204300140Y-131490671D01*
X204569935Y-131894448D01*
X204973712Y-132164243D01*
X205450000Y-132258983D01*
X205926288Y-132164243D01*
X206330065Y-131894448D01*
X206599860Y-131490671D01*
X206694600Y-131014383D01*
X206694600Y-130965617D01*
X206599860Y-130489329D01*
X206330065Y-130085552D01*
X205956000Y-129835610D01*
X205956000Y-129768686D01*
X205929607Y-129636000D01*
X207034008Y-129636000D01*
X207135944Y-129737936D01*
X207126400Y-129737936D01*
X206985210Y-129764503D01*
X206855535Y-129847946D01*
X206768541Y-129975266D01*
X206737936Y-130126400D01*
X206737936Y-131853600D01*
X206764503Y-131994790D01*
X206847946Y-132124465D01*
X206975266Y-132211459D01*
X207126400Y-132242064D01*
X207227724Y-132242064D01*
X207215053Y-132247312D01*
X206783179Y-132641510D01*
X206600324Y-133031662D01*
X206599860Y-133029329D01*
X206330065Y-132625552D01*
X205926288Y-132355757D01*
X205450000Y-132261017D01*
X204973712Y-132355757D01*
X204569935Y-132625552D01*
X204300140Y-133029329D01*
X204205400Y-133505617D01*
X204205400Y-133554383D01*
X204300140Y-134030671D01*
X204569935Y-134434448D01*
X204973712Y-134704243D01*
X205450000Y-134798983D01*
X205926288Y-134704243D01*
X206330065Y-134434448D01*
X206599860Y-134030671D01*
X206600324Y-134028338D01*
X206783179Y-134418490D01*
X207215053Y-134812688D01*
X207630974Y-134984958D01*
X207863000Y-134863817D01*
X207863000Y-133657000D01*
X208117000Y-133657000D01*
X208117000Y-134863817D01*
X208349026Y-134984958D01*
X208764947Y-134812688D01*
X209196821Y-134418490D01*
X209444968Y-133889027D01*
X209324469Y-133657000D01*
X208117000Y-133657000D01*
X207863000Y-133657000D01*
X207843000Y-133657000D01*
X207843000Y-133403000D01*
X207863000Y-133403000D01*
X207863000Y-133383000D01*
X208117000Y-133383000D01*
X208117000Y-133403000D01*
X209324469Y-133403000D01*
X209444968Y-133170973D01*
X209196821Y-132641510D01*
X208764947Y-132247312D01*
X208752276Y-132242064D01*
X208853600Y-132242064D01*
X208994790Y-132215497D01*
X209124465Y-132132054D01*
X209211459Y-132004734D01*
X209242064Y-131853600D01*
X209242064Y-130126400D01*
X209215497Y-129985210D01*
X209132054Y-129855535D01*
X209004734Y-129768541D01*
X208853600Y-129737936D01*
X208468458Y-129737936D01*
X208457483Y-129682762D01*
X208347796Y-129518604D01*
X207601396Y-128772204D01*
X207437238Y-128662517D01*
X207243600Y-128624000D01*
X206099592Y-128624000D01*
X204838562Y-127362970D01*
X204953946Y-127410882D01*
X205224865Y-127411118D01*
X205475252Y-127307661D01*
X205666987Y-127116259D01*
X205667198Y-127115750D01*
X209205000Y-127115750D01*
X209205000Y-127556309D01*
X209301673Y-127789698D01*
X209480301Y-127968327D01*
X209713690Y-128065000D01*
X210004250Y-128065000D01*
X210163000Y-127906250D01*
X210163000Y-126957000D01*
X210417000Y-126957000D01*
X210417000Y-127906250D01*
X210575750Y-128065000D01*
X210866310Y-128065000D01*
X211099699Y-127968327D01*
X211278327Y-127789698D01*
X211375000Y-127556309D01*
X211375000Y-127115750D01*
X211216250Y-126957000D01*
X210417000Y-126957000D01*
X210163000Y-126957000D01*
X209363750Y-126957000D01*
X209205000Y-127115750D01*
X205667198Y-127115750D01*
X205770882Y-126866054D01*
X205771118Y-126595135D01*
X205667661Y-126344748D01*
X205476259Y-126153013D01*
X205226054Y-126049118D01*
X205124622Y-126049030D01*
X202996000Y-123920408D01*
X202996000Y-122480000D01*
X205285863Y-122480000D01*
X205375761Y-122931949D01*
X205631770Y-123315093D01*
X206014914Y-123571102D01*
X206466863Y-123661000D01*
X206513137Y-123661000D01*
X206965086Y-123571102D01*
X207348230Y-123315093D01*
X207568123Y-122986000D01*
X209430408Y-122986000D01*
X209784000Y-123339592D01*
X209784000Y-123652073D01*
X209698810Y-123668103D01*
X209569135Y-123751546D01*
X209482141Y-123878866D01*
X209451536Y-124030000D01*
X209451536Y-125230000D01*
X209478103Y-125371190D01*
X209561546Y-125500865D01*
X209688866Y-125587859D01*
X209724130Y-125595000D01*
X209713690Y-125595000D01*
X209480301Y-125691673D01*
X209301673Y-125870302D01*
X209205000Y-126103691D01*
X209205000Y-126544250D01*
X209363750Y-126703000D01*
X210163000Y-126703000D01*
X210163000Y-126683000D01*
X210417000Y-126683000D01*
X210417000Y-126703000D01*
X211216250Y-126703000D01*
X211375000Y-126544250D01*
X211375000Y-126103691D01*
X211278327Y-125870302D01*
X211099699Y-125691673D01*
X210866310Y-125595000D01*
X210864699Y-125595000D01*
X210881190Y-125591897D01*
X211010865Y-125508454D01*
X211097859Y-125381134D01*
X211128464Y-125230000D01*
X211128464Y-124030000D01*
X211101897Y-123888810D01*
X211018454Y-123759135D01*
X210891134Y-123672141D01*
X210796000Y-123652876D01*
X210796000Y-123130000D01*
X210757483Y-122936362D01*
X210647796Y-122772204D01*
X209997796Y-122122204D01*
X209833638Y-122012517D01*
X209640000Y-121974000D01*
X207568123Y-121974000D01*
X207348230Y-121644907D01*
X206965086Y-121388898D01*
X206513137Y-121299000D01*
X206466863Y-121299000D01*
X206014914Y-121388898D01*
X205631770Y-121644907D01*
X205375761Y-122028051D01*
X205285863Y-122480000D01*
X202996000Y-122480000D01*
X202996000Y-106890961D01*
X205098096Y-106890961D01*
X205220085Y-107113000D01*
X206363000Y-107113000D01*
X206363000Y-107093000D01*
X206617000Y-107093000D01*
X206617000Y-107113000D01*
X207759915Y-107113000D01*
X207881904Y-106890961D01*
X207721041Y-106502577D01*
X207345134Y-106087611D01*
X206839041Y-105848086D01*
X206617002Y-105969370D01*
X206617002Y-105860340D01*
X206965086Y-105791102D01*
X207348230Y-105535093D01*
X207604239Y-105151949D01*
X207694137Y-104700000D01*
X207604239Y-104248051D01*
X207348230Y-103864907D01*
X206965086Y-103608898D01*
X206513137Y-103519000D01*
X206466863Y-103519000D01*
X206014914Y-103608898D01*
X205631770Y-103864907D01*
X205375761Y-104248051D01*
X205285863Y-104700000D01*
X205375761Y-105151949D01*
X205631770Y-105535093D01*
X206014914Y-105791102D01*
X206362998Y-105860340D01*
X206362998Y-105969370D01*
X206140959Y-105848086D01*
X205634866Y-106087611D01*
X205258959Y-106502577D01*
X205098096Y-106890961D01*
X202996000Y-106890961D01*
X202996000Y-102160000D01*
X205285863Y-102160000D01*
X205375761Y-102611949D01*
X205631770Y-102995093D01*
X206014914Y-103251102D01*
X206466863Y-103341000D01*
X206513137Y-103341000D01*
X206965086Y-103251102D01*
X207348230Y-102995093D01*
X207568123Y-102666000D01*
X207621370Y-102666000D01*
X207772190Y-102636000D01*
X210430408Y-102636000D01*
X211432204Y-103637796D01*
X211596362Y-103747483D01*
X211784000Y-103784807D01*
X211784000Y-104220408D01*
X211132204Y-104872204D01*
X211022517Y-105036362D01*
X210992673Y-105186400D01*
X210969135Y-105201546D01*
X210882141Y-105328866D01*
X210851536Y-105480000D01*
X210851536Y-106080000D01*
X210878103Y-106221190D01*
X210948883Y-106331186D01*
X210919629Y-106374000D01*
X210279748Y-106374000D01*
X210267661Y-106344748D01*
X210076259Y-106153013D01*
X209826054Y-106049118D01*
X209555135Y-106048882D01*
X209304748Y-106152339D01*
X209113013Y-106343741D01*
X209009118Y-106593946D01*
X209008882Y-106864865D01*
X209112339Y-107115252D01*
X209303741Y-107306987D01*
X209553946Y-107410882D01*
X209824865Y-107411118D01*
X209885656Y-107386000D01*
X210919807Y-107386000D01*
X210961546Y-107450865D01*
X211088866Y-107537859D01*
X211240000Y-107568464D01*
X211740000Y-107568464D01*
X211881190Y-107541897D01*
X212010865Y-107458454D01*
X212097859Y-107331134D01*
X212128464Y-107180000D01*
X212128464Y-106580000D01*
X212101897Y-106438810D01*
X212031117Y-106328814D01*
X212097859Y-106231134D01*
X212128464Y-106080000D01*
X212128464Y-105480000D01*
X212101897Y-105338810D01*
X212099894Y-105335698D01*
X212647796Y-104787796D01*
X212757483Y-104623638D01*
X212796000Y-104430000D01*
X212796000Y-103786000D01*
X213724714Y-103786000D01*
X213780142Y-103920146D01*
X214098180Y-104238739D01*
X214513929Y-104411373D01*
X214964096Y-104411766D01*
X215380146Y-104239858D01*
X215698739Y-103921820D01*
X215871373Y-103506071D01*
X215871766Y-103055904D01*
X215699858Y-102639854D01*
X215381820Y-102321261D01*
X214966071Y-102148627D01*
X214515904Y-102148234D01*
X214099854Y-102320142D01*
X213781261Y-102638180D01*
X213724864Y-102774000D01*
X211999592Y-102774000D01*
X210997796Y-101772204D01*
X210833638Y-101662517D01*
X210640000Y-101624000D01*
X207651370Y-101624000D01*
X207560196Y-101642136D01*
X207348230Y-101324907D01*
X206965086Y-101068898D01*
X206513137Y-100979000D01*
X206466863Y-100979000D01*
X206014914Y-101068898D01*
X205631770Y-101324907D01*
X205375761Y-101708051D01*
X205285863Y-102160000D01*
X202996000Y-102160000D01*
X202996000Y-99620000D01*
X205285863Y-99620000D01*
X205375761Y-100071949D01*
X205631770Y-100455093D01*
X206014914Y-100711102D01*
X206466863Y-100801000D01*
X206513137Y-100801000D01*
X206965086Y-100711102D01*
X207348230Y-100455093D01*
X207568123Y-100126000D01*
X210400000Y-100126000D01*
X210593638Y-100087483D01*
X210757796Y-99977796D01*
X211831472Y-98904120D01*
X213724714Y-98904120D01*
X213780142Y-99038266D01*
X214098180Y-99356859D01*
X214234000Y-99413256D01*
X214234000Y-100080000D01*
X214272517Y-100273638D01*
X214382204Y-100437796D01*
X215282204Y-101337796D01*
X215446362Y-101447483D01*
X215640000Y-101486000D01*
X217719807Y-101486000D01*
X217748883Y-101531186D01*
X217682141Y-101628866D01*
X217651536Y-101780000D01*
X217651536Y-102380000D01*
X217678103Y-102521190D01*
X217761546Y-102650865D01*
X217784000Y-102666207D01*
X217784000Y-102872877D01*
X217713013Y-102943741D01*
X217609118Y-103193946D01*
X217608882Y-103464865D01*
X217712339Y-103715252D01*
X217903741Y-103906987D01*
X218153946Y-104010882D01*
X218424865Y-104011118D01*
X218675252Y-103907661D01*
X218866987Y-103716259D01*
X218970882Y-103466054D01*
X218971118Y-103195135D01*
X218867661Y-102944748D01*
X218796000Y-102872962D01*
X218796000Y-102668019D01*
X218810865Y-102658454D01*
X218897859Y-102531134D01*
X218928464Y-102380000D01*
X218928464Y-101780000D01*
X218901897Y-101638810D01*
X218831117Y-101528814D01*
X218897859Y-101431134D01*
X218928464Y-101280000D01*
X218928464Y-100680000D01*
X218901897Y-100538810D01*
X218818454Y-100409135D01*
X218691134Y-100322141D01*
X218540000Y-100291536D01*
X218040000Y-100291536D01*
X217898810Y-100318103D01*
X217769135Y-100401546D01*
X217719629Y-100474000D01*
X215849592Y-100474000D01*
X215246000Y-99870408D01*
X215246000Y-99413406D01*
X215380146Y-99357978D01*
X215698739Y-99039940D01*
X215871373Y-98624191D01*
X215871766Y-98174024D01*
X215699858Y-97757974D01*
X215381820Y-97439381D01*
X214966071Y-97266747D01*
X214515904Y-97266354D01*
X214099854Y-97438262D01*
X213781261Y-97756300D01*
X213724864Y-97892120D01*
X211621880Y-97892120D01*
X211428242Y-97930637D01*
X211264084Y-98040324D01*
X210190408Y-99114000D01*
X207568123Y-99114000D01*
X207348230Y-98784907D01*
X206965086Y-98528898D01*
X206513137Y-98439000D01*
X206466863Y-98439000D01*
X206014914Y-98528898D01*
X205631770Y-98784907D01*
X205375761Y-99168051D01*
X205285863Y-99620000D01*
X202996000Y-99620000D01*
X202996000Y-97080000D01*
X205285863Y-97080000D01*
X205375761Y-97531949D01*
X205631770Y-97915093D01*
X206014914Y-98171102D01*
X206466863Y-98261000D01*
X206513137Y-98261000D01*
X206965086Y-98171102D01*
X207348230Y-97915093D01*
X207604239Y-97531949D01*
X207694137Y-97080000D01*
X207604239Y-96628051D01*
X207348230Y-96244907D01*
X206965086Y-95988898D01*
X206513137Y-95899000D01*
X206466863Y-95899000D01*
X206014914Y-95988898D01*
X205631770Y-96244907D01*
X205375761Y-96628051D01*
X205285863Y-97080000D01*
X202996000Y-97080000D01*
X202996000Y-95530000D01*
X202957483Y-95336362D01*
X202847796Y-95172204D01*
X202215592Y-94540000D01*
X205285863Y-94540000D01*
X205375761Y-94991949D01*
X205631770Y-95375093D01*
X206014914Y-95631102D01*
X206466863Y-95721000D01*
X206513137Y-95721000D01*
X206965086Y-95631102D01*
X207348230Y-95375093D01*
X207604239Y-94991949D01*
X207694137Y-94540000D01*
X207604239Y-94088051D01*
X207348230Y-93704907D01*
X206965086Y-93448898D01*
X206513137Y-93359000D01*
X206466863Y-93359000D01*
X206014914Y-93448898D01*
X205631770Y-93704907D01*
X205375761Y-94088051D01*
X205285863Y-94540000D01*
X202215592Y-94540000D01*
X201847796Y-94172204D01*
X201683638Y-94062517D01*
X201490000Y-94024000D01*
X201439727Y-94034000D01*
X199948123Y-94034000D01*
X199728230Y-93704907D01*
X199345086Y-93448898D01*
X198893137Y-93359000D01*
X198846863Y-93359000D01*
X198394914Y-93448898D01*
X198011770Y-93704907D01*
X197755761Y-94088051D01*
X197665863Y-94540000D01*
X197755761Y-94991949D01*
X198011770Y-95375093D01*
X198394914Y-95631102D01*
X198846863Y-95721000D01*
X198893137Y-95721000D01*
X199345086Y-95631102D01*
X199728230Y-95375093D01*
X199948123Y-95046000D01*
X201290408Y-95046000D01*
X201984000Y-95739592D01*
X201984000Y-97308408D01*
X201397796Y-96722204D01*
X201233638Y-96612517D01*
X201040000Y-96574000D01*
X199948123Y-96574000D01*
X199728230Y-96244907D01*
X199345086Y-95988898D01*
X198893137Y-95899000D01*
X198846863Y-95899000D01*
X198394914Y-95988898D01*
X198011770Y-96244907D01*
X197755761Y-96628051D01*
X197665863Y-97080000D01*
X197755761Y-97531949D01*
X198011770Y-97915093D01*
X198394914Y-98171102D01*
X198846863Y-98261000D01*
X198893137Y-98261000D01*
X199345086Y-98171102D01*
X199728230Y-97915093D01*
X199948123Y-97586000D01*
X200830408Y-97586000D01*
X201184000Y-97939592D01*
X201184000Y-100087038D01*
X200359166Y-99262204D01*
X200195008Y-99152517D01*
X200001370Y-99114000D01*
X199948123Y-99114000D01*
X199728230Y-98784907D01*
X199345086Y-98528898D01*
X198893137Y-98439000D01*
X198846863Y-98439000D01*
X198394914Y-98528898D01*
X198011770Y-98784907D01*
X197791877Y-99114000D01*
X196689592Y-99114000D01*
X195396000Y-97820408D01*
X195396000Y-92000000D01*
X197665863Y-92000000D01*
X197755761Y-92451949D01*
X198011770Y-92835093D01*
X198394914Y-93091102D01*
X198846863Y-93181000D01*
X198893137Y-93181000D01*
X199345086Y-93091102D01*
X199728230Y-92835093D01*
X199984239Y-92451949D01*
X200074137Y-92000000D01*
X205285863Y-92000000D01*
X205375761Y-92451949D01*
X205631770Y-92835093D01*
X206014914Y-93091102D01*
X206466863Y-93181000D01*
X206513137Y-93181000D01*
X206965086Y-93091102D01*
X207348230Y-92835093D01*
X207604239Y-92451949D01*
X207694137Y-92000000D01*
X207604239Y-91548051D01*
X207348230Y-91164907D01*
X206965086Y-90908898D01*
X206513137Y-90819000D01*
X206466863Y-90819000D01*
X206014914Y-90908898D01*
X205631770Y-91164907D01*
X205375761Y-91548051D01*
X205285863Y-92000000D01*
X200074137Y-92000000D01*
X199984239Y-91548051D01*
X199728230Y-91164907D01*
X199345086Y-90908898D01*
X198893137Y-90819000D01*
X198846863Y-90819000D01*
X198394914Y-90908898D01*
X198011770Y-91164907D01*
X197755761Y-91548051D01*
X197665863Y-92000000D01*
X195396000Y-92000000D01*
X195396000Y-89460000D01*
X197665863Y-89460000D01*
X197755761Y-89911949D01*
X198011770Y-90295093D01*
X198394914Y-90551102D01*
X198846863Y-90641000D01*
X198893137Y-90641000D01*
X199345086Y-90551102D01*
X199728230Y-90295093D01*
X199984239Y-89911949D01*
X200074137Y-89460000D01*
X205285863Y-89460000D01*
X205375761Y-89911949D01*
X205631770Y-90295093D01*
X206014914Y-90551102D01*
X206466863Y-90641000D01*
X206513137Y-90641000D01*
X206965086Y-90551102D01*
X207348230Y-90295093D01*
X207568123Y-89966000D01*
X211510408Y-89966000D01*
X219284000Y-97739592D01*
X219284000Y-108430000D01*
X219322517Y-108623638D01*
X219432204Y-108787796D01*
X221188204Y-110543796D01*
X221352362Y-110653483D01*
X221546000Y-110692000D01*
X234545536Y-110692000D01*
X234545536Y-111049600D01*
X234572103Y-111190790D01*
X234655546Y-111320465D01*
X234782866Y-111407459D01*
X234934000Y-111438064D01*
X236966000Y-111438064D01*
X237107190Y-111411497D01*
X237236865Y-111328054D01*
X237323859Y-111200734D01*
X237354464Y-111049600D01*
X237354464Y-109322400D01*
X237327897Y-109181210D01*
X237244454Y-109051535D01*
X237117134Y-108964541D01*
X236966000Y-108933936D01*
X234934000Y-108933936D01*
X234792810Y-108960503D01*
X234663135Y-109043946D01*
X234576141Y-109171266D01*
X234545536Y-109322400D01*
X234545536Y-109680000D01*
X221755592Y-109680000D01*
X220296000Y-108220408D01*
X220296000Y-103350000D01*
X222174000Y-103350000D01*
X222174000Y-106270000D01*
X222212517Y-106463638D01*
X222322204Y-106627796D01*
X224162204Y-108467796D01*
X224326362Y-108577483D01*
X224520000Y-108616000D01*
X226978933Y-108616000D01*
X226978882Y-108674865D01*
X227082339Y-108925252D01*
X227273741Y-109116987D01*
X227523946Y-109220882D01*
X227794865Y-109221118D01*
X228045252Y-109117661D01*
X228236987Y-108926259D01*
X228340882Y-108676054D01*
X228341118Y-108405135D01*
X228237661Y-108154748D01*
X228046259Y-107963013D01*
X227796054Y-107859118D01*
X227694622Y-107859030D01*
X227587796Y-107752204D01*
X227423638Y-107642517D01*
X227230000Y-107604000D01*
X224729592Y-107604000D01*
X223190457Y-106064865D01*
X224008882Y-106064865D01*
X224112339Y-106315252D01*
X224303741Y-106506987D01*
X224553946Y-106610882D01*
X224824865Y-106611118D01*
X225075252Y-106507661D01*
X225266987Y-106316259D01*
X225370882Y-106066054D01*
X225370980Y-105953097D01*
X225384000Y-105933612D01*
X225384000Y-106272877D01*
X225313013Y-106343741D01*
X225209118Y-106593946D01*
X225208882Y-106864865D01*
X225312339Y-107115252D01*
X225503741Y-107306987D01*
X225753946Y-107410882D01*
X226024865Y-107411118D01*
X226275252Y-107307661D01*
X226466987Y-107116259D01*
X226570882Y-106866054D01*
X226571118Y-106595135D01*
X226467661Y-106344748D01*
X226396000Y-106272962D01*
X226396000Y-105739592D01*
X230699592Y-101436000D01*
X232290000Y-101436000D01*
X232483638Y-101397483D01*
X232647796Y-101287796D01*
X233524561Y-100411031D01*
X233624865Y-100411118D01*
X233875252Y-100307661D01*
X234066987Y-100116259D01*
X234170882Y-99866054D01*
X234171118Y-99595135D01*
X234067661Y-99344748D01*
X233876259Y-99153013D01*
X233626054Y-99049118D01*
X233355135Y-99048882D01*
X233104748Y-99152339D01*
X232913013Y-99343741D01*
X232809118Y-99593946D01*
X232809030Y-99695378D01*
X232080408Y-100424000D01*
X230490000Y-100424000D01*
X230296362Y-100462517D01*
X230132204Y-100572204D01*
X225532204Y-105172204D01*
X225495999Y-105226389D01*
X225495999Y-103239593D01*
X228699592Y-100036000D01*
X231032877Y-100036000D01*
X231103741Y-100106987D01*
X231353946Y-100210882D01*
X231624865Y-100211118D01*
X231875252Y-100107661D01*
X232066987Y-99916259D01*
X232170882Y-99666054D01*
X232171118Y-99395135D01*
X232067661Y-99144748D01*
X231876259Y-98953013D01*
X231626054Y-98849118D01*
X231355135Y-98848882D01*
X231104748Y-98952339D01*
X231032962Y-99024000D01*
X228490000Y-99024000D01*
X228296362Y-99062517D01*
X228132204Y-99172204D01*
X224632203Y-102672205D01*
X224522516Y-102836363D01*
X224483999Y-103030001D01*
X224483999Y-105278275D01*
X224304748Y-105352339D01*
X224113013Y-105543741D01*
X224009118Y-105793946D01*
X224008882Y-106064865D01*
X223190457Y-106064865D01*
X223186000Y-106060408D01*
X223186000Y-103559592D01*
X227134561Y-99611031D01*
X227234865Y-99611118D01*
X227485252Y-99507661D01*
X227676987Y-99316259D01*
X227780882Y-99066054D01*
X227781118Y-98795135D01*
X227677661Y-98544748D01*
X227486259Y-98353013D01*
X227236054Y-98249118D01*
X226965135Y-98248882D01*
X226714748Y-98352339D01*
X226523013Y-98543741D01*
X226419118Y-98793946D01*
X226419030Y-98895378D01*
X222322204Y-102992204D01*
X222212517Y-103156362D01*
X222174000Y-103350000D01*
X220296000Y-103350000D01*
X220296000Y-97530000D01*
X220257483Y-97336362D01*
X220147796Y-97172204D01*
X212077796Y-89102204D01*
X211913638Y-88992517D01*
X211720000Y-88954000D01*
X207568123Y-88954000D01*
X207348230Y-88624907D01*
X206965086Y-88368898D01*
X206513137Y-88279000D01*
X206466863Y-88279000D01*
X206014914Y-88368898D01*
X205631770Y-88624907D01*
X205375761Y-89008051D01*
X205285863Y-89460000D01*
X200074137Y-89460000D01*
X199984239Y-89008051D01*
X199728230Y-88624907D01*
X199345086Y-88368898D01*
X198893137Y-88279000D01*
X198846863Y-88279000D01*
X198394914Y-88368898D01*
X198011770Y-88624907D01*
X197755761Y-89008051D01*
X197665863Y-89460000D01*
X195396000Y-89460000D01*
X195396000Y-89139592D01*
X197199592Y-87336000D01*
X211980408Y-87336000D01*
X222488204Y-97843796D01*
X222652362Y-97953483D01*
X222846000Y-97992000D01*
X234640224Y-97992000D01*
X234890166Y-98366065D01*
X235293943Y-98635860D01*
X235770231Y-98730600D01*
X236129769Y-98730600D01*
X236606057Y-98635860D01*
X237009834Y-98366065D01*
X237279629Y-97962288D01*
X237363000Y-97543156D01*
X237363000Y-99968844D01*
X237279629Y-99549712D01*
X237009834Y-99145935D01*
X236606057Y-98876140D01*
X236129769Y-98781400D01*
X235770231Y-98781400D01*
X235293943Y-98876140D01*
X234890166Y-99145935D01*
X234620371Y-99549712D01*
X234525631Y-100026000D01*
X234620371Y-100502288D01*
X234890166Y-100906065D01*
X235293943Y-101175860D01*
X235770231Y-101270600D01*
X236129769Y-101270600D01*
X236606057Y-101175860D01*
X237009834Y-100906065D01*
X237279629Y-100502288D01*
X237363000Y-100083156D01*
X237363000Y-102508844D01*
X237279629Y-102089712D01*
X237009834Y-101685935D01*
X236606057Y-101416140D01*
X236129769Y-101321400D01*
X235770231Y-101321400D01*
X235293943Y-101416140D01*
X234890166Y-101685935D01*
X234620371Y-102089712D01*
X234525631Y-102566000D01*
X234620371Y-103042288D01*
X234890166Y-103446065D01*
X235293943Y-103715860D01*
X235770231Y-103810600D01*
X236129769Y-103810600D01*
X236606057Y-103715860D01*
X237009834Y-103446065D01*
X237279629Y-103042288D01*
X237363000Y-102623156D01*
X237363000Y-105048844D01*
X237279629Y-104629712D01*
X237009834Y-104225935D01*
X236606057Y-103956140D01*
X236129769Y-103861400D01*
X235770231Y-103861400D01*
X235293943Y-103956140D01*
X234890166Y-104225935D01*
X234620371Y-104629712D01*
X234525631Y-105106000D01*
X234620371Y-105582288D01*
X234890166Y-105986065D01*
X235293943Y-106255860D01*
X235770231Y-106350600D01*
X236129769Y-106350600D01*
X236606057Y-106255860D01*
X237009834Y-105986065D01*
X237279629Y-105582288D01*
X237363000Y-105163156D01*
X237363000Y-107588844D01*
X237279629Y-107169712D01*
X237009834Y-106765935D01*
X236606057Y-106496140D01*
X236129769Y-106401400D01*
X235770231Y-106401400D01*
X235293943Y-106496140D01*
X234890166Y-106765935D01*
X234620371Y-107169712D01*
X234525631Y-107646000D01*
X234620371Y-108122288D01*
X234890166Y-108526065D01*
X235293943Y-108795860D01*
X235770231Y-108890600D01*
X236129769Y-108890600D01*
X236606057Y-108795860D01*
X237009834Y-108526065D01*
X237279629Y-108122288D01*
X237363000Y-107703156D01*
X237363000Y-114192844D01*
X237279629Y-113773712D01*
X237009834Y-113369935D01*
X236606057Y-113100140D01*
X236129769Y-113005400D01*
X235770231Y-113005400D01*
X235293943Y-113100140D01*
X234890166Y-113369935D01*
X234620371Y-113773712D01*
X234525631Y-114250000D01*
X234620371Y-114726288D01*
X234890166Y-115130065D01*
X235293943Y-115399860D01*
X235770231Y-115494600D01*
X236129769Y-115494600D01*
X236606057Y-115399860D01*
X237009834Y-115130065D01*
X237279629Y-114726288D01*
X237363000Y-114307156D01*
X237363000Y-116732844D01*
X237279629Y-116313712D01*
X237009834Y-115909935D01*
X236606057Y-115640140D01*
X236129769Y-115545400D01*
X235770231Y-115545400D01*
X235293943Y-115640140D01*
X234890166Y-115909935D01*
X234620371Y-116313712D01*
X234525631Y-116790000D01*
X234620371Y-117266288D01*
X234890166Y-117670065D01*
X235293943Y-117939860D01*
X235770231Y-118034600D01*
X236129769Y-118034600D01*
X236606057Y-117939860D01*
X237009834Y-117670065D01*
X237279629Y-117266288D01*
X237363000Y-116847156D01*
X237363000Y-119272844D01*
X237279629Y-118853712D01*
X237009834Y-118449935D01*
X236606057Y-118180140D01*
X236129769Y-118085400D01*
X235770231Y-118085400D01*
X235293943Y-118180140D01*
X234890166Y-118449935D01*
X234620371Y-118853712D01*
X234525631Y-119330000D01*
X234620371Y-119806288D01*
X234890166Y-120210065D01*
X235293943Y-120479860D01*
X235770231Y-120574600D01*
X236129769Y-120574600D01*
X236606057Y-120479860D01*
X237009834Y-120210065D01*
X237279629Y-119806288D01*
X237363000Y-119387156D01*
X237363000Y-121812844D01*
X237279629Y-121393712D01*
X237009834Y-120989935D01*
X236606057Y-120720140D01*
X236129769Y-120625400D01*
X235770231Y-120625400D01*
X235293943Y-120720140D01*
X234890166Y-120989935D01*
X234640224Y-121364000D01*
X218839592Y-121364000D01*
X210291342Y-112815750D01*
X211305000Y-112815750D01*
X211305000Y-113031310D01*
X211401673Y-113264699D01*
X211580302Y-113443327D01*
X211813691Y-113540000D01*
X212254250Y-113540000D01*
X212413000Y-113381250D01*
X212413000Y-112657000D01*
X211463750Y-112657000D01*
X211305000Y-112815750D01*
X210291342Y-112815750D01*
X209504282Y-112028690D01*
X211305000Y-112028690D01*
X211305000Y-112244250D01*
X211463750Y-112403000D01*
X212413000Y-112403000D01*
X212413000Y-111678750D01*
X212667000Y-111678750D01*
X212667000Y-112403000D01*
X212687000Y-112403000D01*
X212687000Y-112657000D01*
X212667000Y-112657000D01*
X212667000Y-113381250D01*
X212825750Y-113540000D01*
X213266309Y-113540000D01*
X213499698Y-113443327D01*
X213678327Y-113264699D01*
X213681246Y-113257652D01*
X213688866Y-113262859D01*
X213840000Y-113293464D01*
X215040000Y-113293464D01*
X215181190Y-113266897D01*
X215310865Y-113183454D01*
X215397859Y-113056134D01*
X215401936Y-113036000D01*
X215832877Y-113036000D01*
X215903741Y-113106987D01*
X216153946Y-113210882D01*
X216424865Y-113211118D01*
X216675252Y-113107661D01*
X216866987Y-112916259D01*
X216970882Y-112666054D01*
X216971118Y-112395135D01*
X216867661Y-112144748D01*
X216676259Y-111953013D01*
X216426054Y-111849118D01*
X216155135Y-111848882D01*
X215904748Y-111952339D01*
X215832962Y-112024000D01*
X215403814Y-112024000D01*
X215401897Y-112013810D01*
X215318454Y-111884135D01*
X215191134Y-111797141D01*
X215040000Y-111766536D01*
X213840000Y-111766536D01*
X213698810Y-111793103D01*
X213681919Y-111803972D01*
X213678327Y-111795301D01*
X213499698Y-111616673D01*
X213266309Y-111520000D01*
X212825750Y-111520000D01*
X212667000Y-111678750D01*
X212413000Y-111678750D01*
X212254250Y-111520000D01*
X211813691Y-111520000D01*
X211580302Y-111616673D01*
X211401673Y-111795301D01*
X211305000Y-112028690D01*
X209504282Y-112028690D01*
X207697795Y-110222203D01*
X207688138Y-110215750D01*
X209705000Y-110215750D01*
X209705000Y-110431310D01*
X209801673Y-110664699D01*
X209980302Y-110843327D01*
X210213691Y-110940000D01*
X210654250Y-110940000D01*
X210813000Y-110781250D01*
X210813000Y-110057000D01*
X209863750Y-110057000D01*
X209705000Y-110215750D01*
X207688138Y-110215750D01*
X207616926Y-110168168D01*
X207694137Y-109780000D01*
X207624258Y-109428690D01*
X209705000Y-109428690D01*
X209705000Y-109644250D01*
X209863750Y-109803000D01*
X210813000Y-109803000D01*
X210813000Y-109078750D01*
X211067000Y-109078750D01*
X211067000Y-109803000D01*
X211087000Y-109803000D01*
X211087000Y-110057000D01*
X211067000Y-110057000D01*
X211067000Y-110781250D01*
X211225750Y-110940000D01*
X211666309Y-110940000D01*
X211899698Y-110843327D01*
X212078327Y-110664699D01*
X212081246Y-110657652D01*
X212088866Y-110662859D01*
X212240000Y-110693464D01*
X213440000Y-110693464D01*
X213581190Y-110666897D01*
X213710865Y-110583454D01*
X213797859Y-110456134D01*
X213801936Y-110436000D01*
X214032877Y-110436000D01*
X214103741Y-110506987D01*
X214353946Y-110610882D01*
X214624865Y-110611118D01*
X214875252Y-110507661D01*
X215066987Y-110316259D01*
X215129714Y-110165198D01*
X215157483Y-110123638D01*
X215167149Y-110075044D01*
X215170882Y-110066054D01*
X215170891Y-110056234D01*
X215196000Y-109930000D01*
X215171110Y-109804867D01*
X215171118Y-109795135D01*
X215167369Y-109786061D01*
X215157483Y-109736362D01*
X215129577Y-109694598D01*
X215067661Y-109544748D01*
X214876259Y-109353013D01*
X214626054Y-109249118D01*
X214355135Y-109248882D01*
X214104748Y-109352339D01*
X214032962Y-109424000D01*
X213803814Y-109424000D01*
X213801897Y-109413810D01*
X213718454Y-109284135D01*
X213591134Y-109197141D01*
X213440000Y-109166536D01*
X212240000Y-109166536D01*
X212098810Y-109193103D01*
X212081919Y-109203972D01*
X212078327Y-109195301D01*
X211899698Y-109016673D01*
X211666309Y-108920000D01*
X211225750Y-108920000D01*
X211067000Y-109078750D01*
X210813000Y-109078750D01*
X210654250Y-108920000D01*
X210213691Y-108920000D01*
X209980302Y-109016673D01*
X209801673Y-109195301D01*
X209705000Y-109428690D01*
X207624258Y-109428690D01*
X207604239Y-109328051D01*
X207348230Y-108944907D01*
X206965086Y-108688898D01*
X206617002Y-108619660D01*
X206617002Y-108510630D01*
X206839041Y-108631914D01*
X207345134Y-108392389D01*
X207721041Y-107977423D01*
X207881904Y-107589039D01*
X207759915Y-107367000D01*
X206617000Y-107367000D01*
X206617000Y-107387000D01*
X206363000Y-107387000D01*
X206363000Y-107367000D01*
X205220085Y-107367000D01*
X205098096Y-107589039D01*
X205258959Y-107977423D01*
X205634866Y-108392389D01*
X206140959Y-108631914D01*
X206362998Y-108510630D01*
X206362998Y-108619660D01*
X206014914Y-108688898D01*
X205631770Y-108944907D01*
X205375761Y-109328051D01*
X205285863Y-109780000D01*
X205375761Y-110231949D01*
X205631770Y-110615093D01*
X206014914Y-110871102D01*
X206466863Y-110961000D01*
X206513137Y-110961000D01*
X206882031Y-110887623D01*
X206932203Y-110937795D01*
X207082887Y-111038479D01*
X218272204Y-122227796D01*
X218436362Y-122337483D01*
X218630000Y-122376000D01*
X234640224Y-122376000D01*
X234890166Y-122750065D01*
X235293943Y-123019860D01*
X235770231Y-123114600D01*
X236129769Y-123114600D01*
X236606057Y-123019860D01*
X237009834Y-122750065D01*
X237279629Y-122346288D01*
X237363000Y-121927156D01*
X237363000Y-124352844D01*
X237279629Y-123933712D01*
X237009834Y-123529935D01*
X236606057Y-123260140D01*
X236129769Y-123165400D01*
X235770231Y-123165400D01*
X235293943Y-123260140D01*
X234890166Y-123529935D01*
X234640224Y-123904000D01*
X218779592Y-123904000D01*
X216077933Y-121202341D01*
X216057796Y-121172204D01*
X207613082Y-112727490D01*
X207694137Y-112320000D01*
X207604239Y-111868051D01*
X207348230Y-111484907D01*
X206965086Y-111228898D01*
X206513137Y-111139000D01*
X206466863Y-111139000D01*
X206014914Y-111228898D01*
X205631770Y-111484907D01*
X205375761Y-111868051D01*
X205285863Y-112320000D01*
X205375761Y-112771949D01*
X205631770Y-113155093D01*
X206014914Y-113411102D01*
X206466863Y-113501000D01*
X206513137Y-113501000D01*
X206882031Y-113427623D01*
X208608407Y-115153999D01*
X207635657Y-115153999D01*
X207694137Y-114860000D01*
X207604239Y-114408051D01*
X207348230Y-114024907D01*
X206965086Y-113768898D01*
X206513137Y-113679000D01*
X206466863Y-113679000D01*
X206014914Y-113768898D01*
X205631770Y-114024907D01*
X205375761Y-114408051D01*
X205285863Y-114860000D01*
X205375761Y-115311949D01*
X205631770Y-115695093D01*
X206014914Y-115951102D01*
X206466863Y-116041000D01*
X206513137Y-116041000D01*
X206882031Y-115967623D01*
X206932203Y-116017795D01*
X207096361Y-116127482D01*
X207289999Y-116165999D01*
X208410407Y-116165999D01*
X219552204Y-127307796D01*
X219716362Y-127417483D01*
X219910000Y-127456000D01*
X234640224Y-127456000D01*
X234890166Y-127830065D01*
X235293943Y-128099860D01*
X235770231Y-128194600D01*
X236129769Y-128194600D01*
X236606057Y-128099860D01*
X237009834Y-127830065D01*
X237279629Y-127426288D01*
X237363000Y-127007156D01*
X237363000Y-129432844D01*
X237279629Y-129013712D01*
X237009834Y-128609935D01*
X236606057Y-128340140D01*
X236129769Y-128245400D01*
X235770231Y-128245400D01*
X235293943Y-128340140D01*
X234890166Y-128609935D01*
X234640224Y-128984000D01*
X221159592Y-128984000D01*
X210017795Y-117842203D01*
X209853637Y-117732516D01*
X209659999Y-117693999D01*
X207635657Y-117693999D01*
X207694137Y-117400000D01*
X207604239Y-116948051D01*
X207348230Y-116564907D01*
X206965086Y-116308898D01*
X206513137Y-116219000D01*
X206466863Y-116219000D01*
X206014914Y-116308898D01*
X205631770Y-116564907D01*
X205375761Y-116948051D01*
X205285863Y-117400000D01*
X205375761Y-117851949D01*
X205631770Y-118235093D01*
X206014914Y-118491102D01*
X206466863Y-118581000D01*
X206513137Y-118581000D01*
X206882031Y-118507623D01*
X206932203Y-118557795D01*
X207096361Y-118667482D01*
X207289999Y-118705999D01*
X209450407Y-118705999D01*
X210263817Y-119519409D01*
X210193638Y-119472517D01*
X210000000Y-119434000D01*
X207568123Y-119434000D01*
X207348230Y-119104907D01*
X206965086Y-118848898D01*
X206513137Y-118759000D01*
X206466863Y-118759000D01*
X206014914Y-118848898D01*
X205631770Y-119104907D01*
X205375761Y-119488051D01*
X205285863Y-119940000D01*
X205375761Y-120391949D01*
X205631770Y-120775093D01*
X206014914Y-121031102D01*
X206466863Y-121121000D01*
X206513137Y-121121000D01*
X206965086Y-121031102D01*
X207348230Y-120775093D01*
X207568123Y-120446000D01*
X209790408Y-120446000D01*
X221732204Y-132387796D01*
X221896362Y-132497483D01*
X222090000Y-132536000D01*
X234545536Y-132536000D01*
X234545536Y-132893600D01*
X234572103Y-133034790D01*
X234655546Y-133164465D01*
X234782866Y-133251459D01*
X234934000Y-133282064D01*
X236966000Y-133282064D01*
X237107190Y-133255497D01*
X237236865Y-133172054D01*
X237323859Y-133044734D01*
X237354464Y-132893600D01*
X237354464Y-131166400D01*
X237327897Y-131025210D01*
X237244454Y-130895535D01*
X237117134Y-130808541D01*
X236966000Y-130777936D01*
X234934000Y-130777936D01*
X234792810Y-130804503D01*
X234663135Y-130887946D01*
X234576141Y-131015266D01*
X234545536Y-131166400D01*
X234545536Y-131524000D01*
X222299592Y-131524000D01*
X220686183Y-129910591D01*
X220756362Y-129957483D01*
X220950000Y-129996000D01*
X234640224Y-129996000D01*
X234890166Y-130370065D01*
X235293943Y-130639860D01*
X235770231Y-130734600D01*
X236129769Y-130734600D01*
X236606057Y-130639860D01*
X237009834Y-130370065D01*
X237279629Y-129966288D01*
X237363000Y-129547156D01*
X237363000Y-136403000D01*
X186617000Y-136403000D01*
X186617000Y-133505617D01*
X201665400Y-133505617D01*
X201665400Y-133554383D01*
X201760140Y-134030671D01*
X202029935Y-134434448D01*
X202433712Y-134704243D01*
X202910000Y-134798983D01*
X203386288Y-134704243D01*
X203790065Y-134434448D01*
X204059860Y-134030671D01*
X204154600Y-133554383D01*
X204154600Y-133505617D01*
X204059860Y-133029329D01*
X203790065Y-132625552D01*
X203386288Y-132355757D01*
X202910000Y-132261017D01*
X202433712Y-132355757D01*
X202029935Y-132625552D01*
X201760140Y-133029329D01*
X201665400Y-133505617D01*
X186617000Y-133505617D01*
X186617000Y-132890361D01*
X186630166Y-132910065D01*
X187033943Y-133179860D01*
X187510231Y-133274600D01*
X187869769Y-133274600D01*
X188346057Y-133179860D01*
X188749834Y-132910065D01*
X189006486Y-132525958D01*
X189149638Y-132497483D01*
X189313796Y-132387796D01*
X190735975Y-130965617D01*
X201665400Y-130965617D01*
X201665400Y-131014383D01*
X201760140Y-131490671D01*
X202029935Y-131894448D01*
X202433712Y-132164243D01*
X202910000Y-132258983D01*
X203386288Y-132164243D01*
X203790065Y-131894448D01*
X204059860Y-131490671D01*
X204154600Y-131014383D01*
X204154600Y-130965617D01*
X204059860Y-130489329D01*
X203790065Y-130085552D01*
X203386288Y-129815757D01*
X202910000Y-129721017D01*
X202433712Y-129815757D01*
X202029935Y-130085552D01*
X201760140Y-130489329D01*
X201665400Y-130965617D01*
X190735975Y-130965617D01*
X192847796Y-128853796D01*
X192902314Y-128772204D01*
X192957483Y-128689638D01*
X192996000Y-128496000D01*
X192996000Y-125539592D01*
X195549592Y-122986000D01*
X197791877Y-122986000D01*
X198011770Y-123315093D01*
X198394914Y-123571102D01*
X198846863Y-123661000D01*
X198893137Y-123661000D01*
X199345086Y-123571102D01*
X199728230Y-123315093D01*
X199984239Y-122931949D01*
X200074137Y-122480000D01*
X199984239Y-122028051D01*
X199728230Y-121644907D01*
X199345086Y-121388898D01*
X198893137Y-121299000D01*
X198846863Y-121299000D01*
X198394914Y-121388898D01*
X198011770Y-121644907D01*
X197791877Y-121974000D01*
X195461592Y-121974000D01*
X196989592Y-120446000D01*
X197791877Y-120446000D01*
X198011770Y-120775093D01*
X198394914Y-121031102D01*
X198846863Y-121121000D01*
X198893137Y-121121000D01*
X199345086Y-121031102D01*
X199728230Y-120775093D01*
X199984239Y-120391949D01*
X200074137Y-119940000D01*
X199984239Y-119488051D01*
X199728230Y-119104907D01*
X199345086Y-118848898D01*
X198893137Y-118759000D01*
X198846863Y-118759000D01*
X198394914Y-118848898D01*
X198011770Y-119104907D01*
X197791877Y-119434000D01*
X196896000Y-119434000D01*
X196896000Y-118739592D01*
X197729592Y-117906000D01*
X197791877Y-117906000D01*
X198011770Y-118235093D01*
X198394914Y-118491102D01*
X198846863Y-118581000D01*
X198893137Y-118581000D01*
X199345086Y-118491102D01*
X199728230Y-118235093D01*
X199984239Y-117851949D01*
X200074137Y-117400000D01*
X199984239Y-116948051D01*
X199728230Y-116564907D01*
X199345086Y-116308898D01*
X198893137Y-116219000D01*
X198846863Y-116219000D01*
X198394914Y-116308898D01*
X198011770Y-116564907D01*
X197791877Y-116894000D01*
X197520000Y-116894000D01*
X197326362Y-116932517D01*
X197162204Y-117042204D01*
X196032204Y-118172204D01*
X195922517Y-118336362D01*
X195884000Y-118530000D01*
X195884000Y-119306408D01*
X188898291Y-126292117D01*
X188749834Y-126069935D01*
X188346057Y-125800140D01*
X187869769Y-125705400D01*
X187510231Y-125705400D01*
X187033943Y-125800140D01*
X186630166Y-126069935D01*
X186617000Y-126089639D01*
X186617000Y-125270361D01*
X186630166Y-125290065D01*
X187033943Y-125559860D01*
X187510231Y-125654600D01*
X187869769Y-125654600D01*
X188346057Y-125559860D01*
X188749834Y-125290065D01*
X189006486Y-124905958D01*
X189149638Y-124877483D01*
X189313796Y-124767796D01*
X195747796Y-118333796D01*
X195857483Y-118169638D01*
X195896000Y-117976000D01*
X195896000Y-116439592D01*
X196969592Y-115366000D01*
X197791877Y-115366000D01*
X198011770Y-115695093D01*
X198394914Y-115951102D01*
X198846863Y-116041000D01*
X198893137Y-116041000D01*
X199345086Y-115951102D01*
X199728230Y-115695093D01*
X199984239Y-115311949D01*
X200074137Y-114860000D01*
X199984239Y-114408051D01*
X199728230Y-114024907D01*
X199345086Y-113768898D01*
X198893137Y-113679000D01*
X198846863Y-113679000D01*
X198394914Y-113768898D01*
X198011770Y-114024907D01*
X197791877Y-114354000D01*
X196760000Y-114354000D01*
X196566362Y-114392517D01*
X196420469Y-114490000D01*
X196402204Y-114502204D01*
X195032204Y-115872204D01*
X194922517Y-116036362D01*
X194884000Y-116230000D01*
X194884000Y-117766408D01*
X188898291Y-123752117D01*
X188749834Y-123529935D01*
X188346057Y-123260140D01*
X187869769Y-123165400D01*
X187510231Y-123165400D01*
X187033943Y-123260140D01*
X186630166Y-123529935D01*
X186617000Y-123549639D01*
X186617000Y-122730361D01*
X186630166Y-122750065D01*
X187033943Y-123019860D01*
X187510231Y-123114600D01*
X187869769Y-123114600D01*
X188346057Y-123019860D01*
X188749834Y-122750065D01*
X189006486Y-122365958D01*
X189149638Y-122337483D01*
X189313796Y-122227796D01*
X194547796Y-116993796D01*
X194657483Y-116829638D01*
X194696000Y-116636000D01*
X194696000Y-115439592D01*
X197309592Y-112826000D01*
X197791877Y-112826000D01*
X198011770Y-113155093D01*
X198394914Y-113411102D01*
X198846863Y-113501000D01*
X198893137Y-113501000D01*
X199345086Y-113411102D01*
X199728230Y-113155093D01*
X199984239Y-112771949D01*
X200074137Y-112320000D01*
X199984239Y-111868051D01*
X199728230Y-111484907D01*
X199345086Y-111228898D01*
X198893137Y-111139000D01*
X198846863Y-111139000D01*
X198394914Y-111228898D01*
X198011770Y-111484907D01*
X197791877Y-111814000D01*
X197100000Y-111814000D01*
X196906362Y-111852517D01*
X196742204Y-111962204D01*
X193832204Y-114872204D01*
X193796000Y-114926387D01*
X193796000Y-113739592D01*
X197249592Y-110286000D01*
X197791877Y-110286000D01*
X198011770Y-110615093D01*
X198394914Y-110871102D01*
X198846863Y-110961000D01*
X198893137Y-110961000D01*
X199345086Y-110871102D01*
X199728230Y-110615093D01*
X199984239Y-110231949D01*
X200074137Y-109780000D01*
X199984239Y-109328051D01*
X199728230Y-108944907D01*
X199345086Y-108688898D01*
X198893137Y-108599000D01*
X198846863Y-108599000D01*
X198394914Y-108688898D01*
X198011770Y-108944907D01*
X197791877Y-109274000D01*
X197040000Y-109274000D01*
X196846362Y-109312517D01*
X196682204Y-109422204D01*
X192932204Y-113172204D01*
X192822517Y-113336362D01*
X192784000Y-113530000D01*
X192784000Y-114786408D01*
X189094464Y-118475944D01*
X189094464Y-118466400D01*
X189067897Y-118325210D01*
X188984454Y-118195535D01*
X188857134Y-118108541D01*
X188706000Y-118077936D01*
X186674000Y-118077936D01*
X186617000Y-118088661D01*
X186617000Y-115490521D01*
X186674000Y-115502064D01*
X188706000Y-115502064D01*
X188847190Y-115475497D01*
X188976865Y-115392054D01*
X189063859Y-115264734D01*
X189094464Y-115113600D01*
X189094464Y-113386400D01*
X189067897Y-113245210D01*
X188984454Y-113115535D01*
X188857134Y-113028541D01*
X188706000Y-112997936D01*
X186674000Y-112997936D01*
X186617000Y-113008661D01*
X186617000Y-112570361D01*
X186630166Y-112590065D01*
X187033943Y-112859860D01*
X187510231Y-112954600D01*
X187869769Y-112954600D01*
X188346057Y-112859860D01*
X188749834Y-112590065D01*
X189019629Y-112186288D01*
X189114369Y-111710000D01*
X189019629Y-111233712D01*
X188749834Y-110829935D01*
X188346057Y-110560140D01*
X187869769Y-110465400D01*
X187510231Y-110465400D01*
X187033943Y-110560140D01*
X186630166Y-110829935D01*
X186617000Y-110849639D01*
X186617000Y-110030361D01*
X186630166Y-110050065D01*
X187033943Y-110319860D01*
X187510231Y-110414600D01*
X187869769Y-110414600D01*
X188346057Y-110319860D01*
X188749834Y-110050065D01*
X189019629Y-109646288D01*
X189114369Y-109170000D01*
X189019629Y-108693712D01*
X188749834Y-108289935D01*
X188346057Y-108020140D01*
X188331757Y-108017296D01*
X188604320Y-107921954D01*
X189040732Y-107532036D01*
X189294709Y-107004791D01*
X189297358Y-106989026D01*
X189176217Y-106757000D01*
X187817000Y-106757000D01*
X187817000Y-106777000D01*
X187563000Y-106777000D01*
X187563000Y-106757000D01*
X187543000Y-106757000D01*
X187543000Y-106503000D01*
X187563000Y-106503000D01*
X187563000Y-106483000D01*
X187817000Y-106483000D01*
X187817000Y-106503000D01*
X189176217Y-106503000D01*
X189297358Y-106270974D01*
X189294709Y-106255209D01*
X189040732Y-105727964D01*
X188604320Y-105338046D01*
X188331757Y-105242704D01*
X188346057Y-105239860D01*
X188749834Y-104970065D01*
X189019629Y-104566288D01*
X189114369Y-104090000D01*
X189092489Y-103980000D01*
X193326536Y-103980000D01*
X193326536Y-105180000D01*
X193353103Y-105321190D01*
X193436546Y-105450865D01*
X193553798Y-105530980D01*
X193444135Y-105601546D01*
X193357141Y-105728866D01*
X193326536Y-105880000D01*
X193326536Y-107080000D01*
X193353103Y-107221190D01*
X193436546Y-107350865D01*
X193563866Y-107437859D01*
X193715000Y-107468464D01*
X194465000Y-107468464D01*
X194606190Y-107441897D01*
X194735865Y-107358454D01*
X194816801Y-107240000D01*
X197665863Y-107240000D01*
X197755761Y-107691949D01*
X198011770Y-108075093D01*
X198394914Y-108331102D01*
X198846863Y-108421000D01*
X198893137Y-108421000D01*
X199345086Y-108331102D01*
X199728230Y-108075093D01*
X199984239Y-107691949D01*
X200074137Y-107240000D01*
X199984239Y-106788051D01*
X199728230Y-106404907D01*
X199345086Y-106148898D01*
X198893137Y-106059000D01*
X198846863Y-106059000D01*
X198394914Y-106148898D01*
X198011770Y-106404907D01*
X197755761Y-106788051D01*
X197665863Y-107240000D01*
X194816801Y-107240000D01*
X194822859Y-107231134D01*
X194853464Y-107080000D01*
X194853464Y-107036000D01*
X195432877Y-107036000D01*
X195503741Y-107106987D01*
X195753946Y-107210882D01*
X196024865Y-107211118D01*
X196275252Y-107107661D01*
X196466987Y-106916259D01*
X196570882Y-106666054D01*
X196571118Y-106395135D01*
X196467661Y-106144748D01*
X196276259Y-105953013D01*
X196026054Y-105849118D01*
X195755135Y-105848882D01*
X195504748Y-105952339D01*
X195432962Y-106024000D01*
X194925824Y-106024000D01*
X194908638Y-106012517D01*
X194853464Y-106001542D01*
X194853464Y-105880000D01*
X194826897Y-105738810D01*
X194743454Y-105609135D01*
X194626202Y-105529020D01*
X194735865Y-105458454D01*
X194822859Y-105331134D01*
X194853464Y-105180000D01*
X194853464Y-105086000D01*
X197742643Y-105086000D01*
X197755761Y-105151949D01*
X198011770Y-105535093D01*
X198394914Y-105791102D01*
X198846863Y-105881000D01*
X198893137Y-105881000D01*
X199345086Y-105791102D01*
X199728230Y-105535093D01*
X199984239Y-105151949D01*
X200074137Y-104700000D01*
X199984239Y-104248051D01*
X199728230Y-103864907D01*
X199345086Y-103608898D01*
X198997002Y-103539660D01*
X198997002Y-103430630D01*
X199219041Y-103551914D01*
X199725134Y-103312389D01*
X200101041Y-102897423D01*
X200261904Y-102509039D01*
X200139915Y-102287000D01*
X198997000Y-102287000D01*
X198997000Y-102307000D01*
X198743000Y-102307000D01*
X198743000Y-102287000D01*
X197600085Y-102287000D01*
X197478096Y-102509039D01*
X197638959Y-102897423D01*
X198014866Y-103312389D01*
X198520959Y-103551914D01*
X198742998Y-103430630D01*
X198742998Y-103539660D01*
X198394914Y-103608898D01*
X198011770Y-103864907D01*
X197872058Y-104074000D01*
X194853464Y-104074000D01*
X194853464Y-103980000D01*
X194826897Y-103838810D01*
X194743454Y-103709135D01*
X194616134Y-103622141D01*
X194465000Y-103591536D01*
X193715000Y-103591536D01*
X193573810Y-103618103D01*
X193444135Y-103701546D01*
X193357141Y-103828866D01*
X193326536Y-103980000D01*
X189092489Y-103980000D01*
X189019629Y-103613712D01*
X188749834Y-103209935D01*
X188346057Y-102940140D01*
X187869769Y-102845400D01*
X187510231Y-102845400D01*
X187033943Y-102940140D01*
X186630166Y-103209935D01*
X186617000Y-103229639D01*
X186617000Y-102410361D01*
X186630166Y-102430065D01*
X187033943Y-102699860D01*
X187510231Y-102794600D01*
X187869769Y-102794600D01*
X188346057Y-102699860D01*
X188749834Y-102430065D01*
X189019629Y-102026288D01*
X189114369Y-101550000D01*
X189019629Y-101073712D01*
X188749834Y-100669935D01*
X188346057Y-100400140D01*
X187869769Y-100305400D01*
X187510231Y-100305400D01*
X187033943Y-100400140D01*
X186630166Y-100669935D01*
X186617000Y-100689639D01*
X186617000Y-99870361D01*
X186630166Y-99890065D01*
X187033943Y-100159860D01*
X187510231Y-100254600D01*
X187869769Y-100254600D01*
X188346057Y-100159860D01*
X188749834Y-99890065D01*
X189019629Y-99486288D01*
X189114369Y-99010000D01*
X189019629Y-98533712D01*
X188749834Y-98129935D01*
X188346057Y-97860140D01*
X187869769Y-97765400D01*
X187510231Y-97765400D01*
X187033943Y-97860140D01*
X186630166Y-98129935D01*
X186617000Y-98149639D01*
X186617000Y-97330361D01*
X186630166Y-97350065D01*
X187033943Y-97619860D01*
X187510231Y-97714600D01*
X187869769Y-97714600D01*
X188346057Y-97619860D01*
X188749834Y-97350065D01*
X189019629Y-96946288D01*
X189114369Y-96470000D01*
X189019629Y-95993712D01*
X188749834Y-95589935D01*
X188346057Y-95320140D01*
X187869769Y-95225400D01*
X187510231Y-95225400D01*
X187033943Y-95320140D01*
X186630166Y-95589935D01*
X186617000Y-95609639D01*
X186617000Y-76415750D01*
X206655000Y-76415750D01*
X206655000Y-76881310D01*
X206751673Y-77114699D01*
X206930302Y-77293327D01*
X207163691Y-77390000D01*
X207754250Y-77390000D01*
X207913000Y-77231250D01*
X207913000Y-76257000D01*
X206813750Y-76257000D01*
X206655000Y-76415750D01*
X186617000Y-76415750D01*
X186617000Y-75378690D01*
X206655000Y-75378690D01*
X206655000Y-75844250D01*
X206813750Y-76003000D01*
X207913000Y-76003000D01*
X207913000Y-75028750D01*
X208167000Y-75028750D01*
X208167000Y-76003000D01*
X208187000Y-76003000D01*
X208187000Y-76257000D01*
X208167000Y-76257000D01*
X208167000Y-77231250D01*
X208325750Y-77390000D01*
X208916309Y-77390000D01*
X209149698Y-77293327D01*
X209328327Y-77114699D01*
X209425000Y-76881310D01*
X209425000Y-76879699D01*
X209428103Y-76896190D01*
X209511546Y-77025865D01*
X209638866Y-77112859D01*
X209790000Y-77143464D01*
X210061542Y-77143464D01*
X210072517Y-77198638D01*
X210182204Y-77362796D01*
X210384000Y-77564592D01*
X210384000Y-79216186D01*
X210373810Y-79218103D01*
X210244135Y-79301546D01*
X210157141Y-79428866D01*
X210126536Y-79580000D01*
X210126536Y-80780000D01*
X210153103Y-80921190D01*
X210236546Y-81050865D01*
X210353798Y-81130980D01*
X210244135Y-81201546D01*
X210157141Y-81328866D01*
X210126536Y-81480000D01*
X210126536Y-82680000D01*
X210153103Y-82821190D01*
X210236546Y-82950865D01*
X210363866Y-83037859D01*
X210515000Y-83068464D01*
X211265000Y-83068464D01*
X211406190Y-83041897D01*
X211535865Y-82958454D01*
X211622859Y-82831134D01*
X211653464Y-82680000D01*
X211653464Y-82586000D01*
X212182877Y-82586000D01*
X212253741Y-82656987D01*
X212503946Y-82760882D01*
X212774865Y-82761118D01*
X213025252Y-82657661D01*
X213216987Y-82466259D01*
X213320882Y-82216054D01*
X213321118Y-81945135D01*
X213217661Y-81694748D01*
X213026259Y-81503013D01*
X212776054Y-81399118D01*
X212505135Y-81398882D01*
X212254748Y-81502339D01*
X212182962Y-81574000D01*
X211653464Y-81574000D01*
X211653464Y-81480000D01*
X211626897Y-81338810D01*
X211543454Y-81209135D01*
X211426202Y-81129020D01*
X211535865Y-81058454D01*
X211622859Y-80931134D01*
X211653464Y-80780000D01*
X211653464Y-79580000D01*
X211626897Y-79438810D01*
X211543454Y-79309135D01*
X211416134Y-79222141D01*
X211396000Y-79218064D01*
X211396000Y-77355000D01*
X211357483Y-77161362D01*
X211339323Y-77134183D01*
X211431190Y-77116897D01*
X211560865Y-77033454D01*
X211647859Y-76906134D01*
X211678464Y-76755000D01*
X211678464Y-76636000D01*
X219722768Y-76636000D01*
X219780446Y-76775592D01*
X220101697Y-77097403D01*
X220521646Y-77271781D01*
X220976359Y-77272178D01*
X221396612Y-77098534D01*
X221718423Y-76777283D01*
X221892801Y-76357334D01*
X221893198Y-75902621D01*
X221719554Y-75482368D01*
X221398303Y-75160557D01*
X221323822Y-75129630D01*
X221396612Y-75099554D01*
X221718423Y-74778303D01*
X221892801Y-74358354D01*
X221892802Y-74356359D01*
X222146802Y-74356359D01*
X222320446Y-74776612D01*
X222641697Y-75098423D01*
X222716178Y-75129350D01*
X222643388Y-75159426D01*
X222321577Y-75480677D01*
X222147199Y-75900626D01*
X222146802Y-76355339D01*
X222320446Y-76775592D01*
X222641697Y-77097403D01*
X223061646Y-77271781D01*
X223516359Y-77272178D01*
X223936612Y-77098534D01*
X224258423Y-76777283D01*
X224432801Y-76357334D01*
X224433198Y-75902621D01*
X224420951Y-75872981D01*
X229853019Y-75872981D01*
X230046657Y-75834464D01*
X230210815Y-75724777D01*
X231299592Y-74636000D01*
X233384000Y-74636000D01*
X233384000Y-75935594D01*
X233291134Y-75872141D01*
X233140000Y-75841536D01*
X232240000Y-75841536D01*
X232098810Y-75868103D01*
X231969135Y-75951546D01*
X231882141Y-76078866D01*
X231851536Y-76230000D01*
X231851536Y-76324000D01*
X231790000Y-76324000D01*
X231596362Y-76362517D01*
X231432204Y-76472204D01*
X230932204Y-76972204D01*
X230822517Y-77136362D01*
X230784000Y-77330000D01*
X230784000Y-78320408D01*
X230660126Y-78444282D01*
X230591134Y-78397141D01*
X230440000Y-78366536D01*
X229240000Y-78366536D01*
X229098810Y-78393103D01*
X228969135Y-78476546D01*
X228889020Y-78593798D01*
X228818454Y-78484135D01*
X228691134Y-78397141D01*
X228540000Y-78366536D01*
X227340000Y-78366536D01*
X227198810Y-78393103D01*
X227069135Y-78476546D01*
X227021644Y-78546052D01*
X226971031Y-78495439D01*
X226971118Y-78395135D01*
X226867661Y-78144748D01*
X226676259Y-77953013D01*
X226426054Y-77849118D01*
X226155135Y-77848882D01*
X225904748Y-77952339D01*
X225713013Y-78143741D01*
X225609118Y-78393946D01*
X225608882Y-78664865D01*
X225712339Y-78915252D01*
X225903741Y-79106987D01*
X226153946Y-79210882D01*
X226255378Y-79210970D01*
X226532204Y-79487796D01*
X226696362Y-79597483D01*
X226890000Y-79636000D01*
X226976186Y-79636000D01*
X226978103Y-79646190D01*
X227061546Y-79775865D01*
X227188866Y-79862859D01*
X227340000Y-79893464D01*
X228540000Y-79893464D01*
X228681190Y-79866897D01*
X228810865Y-79783454D01*
X228890980Y-79666202D01*
X228961546Y-79775865D01*
X229088866Y-79862859D01*
X229240000Y-79893464D01*
X230440000Y-79893464D01*
X230581190Y-79866897D01*
X230710865Y-79783454D01*
X230797859Y-79656134D01*
X230806634Y-79612800D01*
X230883638Y-79597483D01*
X231047796Y-79487796D01*
X231647796Y-78887796D01*
X231757483Y-78723638D01*
X231796000Y-78530000D01*
X231796000Y-77539592D01*
X231860097Y-77475495D01*
X231878103Y-77571190D01*
X231961546Y-77700865D01*
X232088866Y-77787859D01*
X232240000Y-77818464D01*
X233140000Y-77818464D01*
X233281190Y-77791897D01*
X233410865Y-77708454D01*
X233497859Y-77581134D01*
X233528464Y-77430000D01*
X233528464Y-77336000D01*
X233590000Y-77336000D01*
X233783638Y-77297483D01*
X233947796Y-77187796D01*
X234190000Y-76945592D01*
X234432204Y-77187796D01*
X234596362Y-77297483D01*
X234651536Y-77308458D01*
X234651536Y-77430000D01*
X234678103Y-77571190D01*
X234761546Y-77700865D01*
X234888866Y-77787859D01*
X235040000Y-77818464D01*
X235940000Y-77818464D01*
X236081190Y-77791897D01*
X236210865Y-77708454D01*
X236297859Y-77581134D01*
X236328464Y-77430000D01*
X236328464Y-76230000D01*
X236301897Y-76088810D01*
X236218454Y-75959135D01*
X236091134Y-75872141D01*
X235940000Y-75841536D01*
X235040000Y-75841536D01*
X234996000Y-75849815D01*
X234996000Y-75236000D01*
X235890000Y-75236000D01*
X236083638Y-75197483D01*
X236247796Y-75087796D01*
X236647796Y-74687796D01*
X236757483Y-74523638D01*
X236772481Y-74448240D01*
X236806190Y-74441897D01*
X236935865Y-74358454D01*
X237022859Y-74231134D01*
X237053464Y-74080000D01*
X237053464Y-72880000D01*
X237026897Y-72738810D01*
X236943454Y-72609135D01*
X236826202Y-72529020D01*
X236935865Y-72458454D01*
X237022859Y-72331134D01*
X237053464Y-72180000D01*
X237053464Y-70980000D01*
X237026897Y-70838810D01*
X236943454Y-70709135D01*
X236816134Y-70622141D01*
X236665000Y-70591536D01*
X235915000Y-70591536D01*
X235773810Y-70618103D01*
X235644135Y-70701546D01*
X235557141Y-70828866D01*
X235526536Y-70980000D01*
X235526536Y-71101542D01*
X235471362Y-71112517D01*
X235307204Y-71222204D01*
X235305408Y-71224000D01*
X234347123Y-71224000D01*
X234276259Y-71153013D01*
X234026054Y-71049118D01*
X233755135Y-71048882D01*
X233504748Y-71152339D01*
X233313013Y-71343741D01*
X233209118Y-71593946D01*
X233208882Y-71864865D01*
X233312339Y-72115252D01*
X233503741Y-72306987D01*
X233753946Y-72410882D01*
X234024865Y-72411118D01*
X234275252Y-72307661D01*
X234347038Y-72236000D01*
X235515000Y-72236000D01*
X235536277Y-72231768D01*
X235553103Y-72321190D01*
X235636546Y-72450865D01*
X235753798Y-72530980D01*
X235644135Y-72601546D01*
X235557141Y-72728866D01*
X235526536Y-72880000D01*
X235526536Y-74080000D01*
X235553103Y-74221190D01*
X235554911Y-74224000D01*
X234996000Y-74224000D01*
X234996000Y-74130000D01*
X234957483Y-73936362D01*
X234847796Y-73772204D01*
X234247796Y-73172204D01*
X234083638Y-73062517D01*
X233890000Y-73024000D01*
X230890000Y-73024000D01*
X230696362Y-73062517D01*
X230532204Y-73172204D01*
X229318409Y-74385999D01*
X224421322Y-74385999D01*
X224432801Y-74358354D01*
X224433198Y-73903641D01*
X224259554Y-73483388D01*
X223938303Y-73161577D01*
X223518354Y-72987199D01*
X223063641Y-72986802D01*
X222643388Y-73160446D01*
X222321577Y-73481697D01*
X222147199Y-73901646D01*
X222146802Y-74356359D01*
X221892802Y-74356359D01*
X221893198Y-73903641D01*
X221719554Y-73483388D01*
X221398303Y-73161577D01*
X220978354Y-72987199D01*
X220523641Y-72986802D01*
X220103388Y-73160446D01*
X219781577Y-73481697D01*
X219607199Y-73901646D01*
X219606802Y-74356359D01*
X219780446Y-74776612D01*
X220101697Y-75098423D01*
X220176178Y-75129350D01*
X220103388Y-75159426D01*
X219781577Y-75480677D01*
X219722064Y-75624000D01*
X211678464Y-75624000D01*
X211678464Y-75505000D01*
X211651897Y-75363810D01*
X211568454Y-75234135D01*
X211441134Y-75147141D01*
X211290000Y-75116536D01*
X209790000Y-75116536D01*
X209648810Y-75143103D01*
X209519135Y-75226546D01*
X209432141Y-75353866D01*
X209425000Y-75389130D01*
X209425000Y-75378690D01*
X209328327Y-75145301D01*
X209149698Y-74966673D01*
X208916309Y-74870000D01*
X208325750Y-74870000D01*
X208167000Y-75028750D01*
X207913000Y-75028750D01*
X207754250Y-74870000D01*
X207163691Y-74870000D01*
X206930302Y-74966673D01*
X206751673Y-75145301D01*
X206655000Y-75378690D01*
X186617000Y-75378690D01*
X186617000Y-71772788D01*
X214289211Y-71772788D01*
X214552186Y-72409237D01*
X215038702Y-72896603D01*
X215674690Y-73160688D01*
X216363328Y-73161289D01*
X216999777Y-72898314D01*
X217487143Y-72411798D01*
X217751228Y-71775810D01*
X217751230Y-71772788D01*
X226288171Y-71772788D01*
X226551146Y-72409237D01*
X227037662Y-72896603D01*
X227673650Y-73160688D01*
X228362288Y-73161289D01*
X228998737Y-72898314D01*
X229486103Y-72411798D01*
X229750188Y-71775810D01*
X229750789Y-71087172D01*
X229487814Y-70450723D01*
X229001298Y-69963357D01*
X228365310Y-69699272D01*
X227676672Y-69698671D01*
X227040223Y-69961646D01*
X226552857Y-70448162D01*
X226288772Y-71084150D01*
X226288171Y-71772788D01*
X217751230Y-71772788D01*
X217751829Y-71087172D01*
X217488854Y-70450723D01*
X217002338Y-69963357D01*
X216366350Y-69699272D01*
X215677712Y-69698671D01*
X215041263Y-69961646D01*
X214553897Y-70448162D01*
X214289812Y-71084150D01*
X214289211Y-71772788D01*
X186617000Y-71772788D01*
X186617000Y-69657000D01*
X237363000Y-69657000D01*
X237363000Y-87268844D01*
M02*
