%FSLAX45Y45*%
G04 Gerber Fmt 4.5, Leading zero omitted, Abs format (unit mm)*
G04 Created by KiCad (PCBNEW 4.0.5) date Mon Mar 20 13:50:45 2017*
%MOMM*%
%LPD*%
G01*
G04 APERTURE LIST*
%ADD10C,0.127000*%
%ADD11C,0.150000*%
%ADD12C,0.200000*%
%ADD13C,0.300000*%
G04 APERTURE END LIST*
D10*
D11*
X22240000Y-15000000D02*
X22240000Y-15350000D01*
X20125000Y-15350000D02*
X22240000Y-15350000D01*
X19475000Y-15025000D02*
X20125000Y-15350000D01*
X11600000Y-15025000D02*
X19475000Y-15025000D01*
X10975000Y-15325000D02*
X11600000Y-15025000D01*
X8900000Y-15325000D02*
X10975000Y-15325000D01*
X8900000Y-15000000D02*
X8900000Y-15325000D01*
X22240000Y-15000000D02*
X22240000Y-3900000D01*
X9330000Y-10470000D02*
X9330000Y-6900000D01*
X7500000Y-6900000D02*
X7500000Y-4000000D01*
X7600000Y-6900000D02*
X7500000Y-6900000D01*
X9330000Y-6900000D02*
X7600000Y-6900000D01*
X8900000Y-10900000D02*
X9330000Y-10470000D01*
X8900000Y-15000000D02*
X8900000Y-10900000D01*
X7500000Y-3900000D02*
X22240000Y-3900000D01*
X7500000Y-4000000D02*
X7500000Y-3900000D01*
D12*
X7840000Y-5030000D02*
X7920000Y-5110000D01*
X7920000Y-5030000D02*
X7840000Y-5110000D01*
X7840000Y-5280000D02*
X7920000Y-5360000D01*
X7920000Y-5280000D02*
X7840000Y-5360000D01*
X8330000Y-4090000D02*
X8410000Y-4170000D01*
X8410000Y-4090000D02*
X8330000Y-4170000D01*
X8330000Y-4340000D02*
X8410000Y-4420000D01*
X8410000Y-4340000D02*
X8330000Y-4420000D01*
X12190000Y-4830000D02*
X12270000Y-4910000D01*
X12270000Y-4830000D02*
X12190000Y-4910000D01*
X12190000Y-5080000D02*
X12270000Y-5160000D01*
X12270000Y-5080000D02*
X12190000Y-5160000D01*
X12840000Y-4520000D02*
X12920000Y-4600000D01*
X12920000Y-4520000D02*
X12840000Y-4600000D01*
X12840000Y-4770000D02*
X12920000Y-4850000D01*
X12920000Y-4770000D02*
X12840000Y-4850000D01*
X13490000Y-4830000D02*
X13570000Y-4910000D01*
X13570000Y-4830000D02*
X13490000Y-4910000D01*
X13490000Y-5080000D02*
X13570000Y-5160000D01*
X13570000Y-5080000D02*
X13490000Y-5160000D01*
X14135000Y-4335000D02*
X14215000Y-4415000D01*
X14215000Y-4335000D02*
X14135000Y-4415000D01*
X14385000Y-4335000D02*
X14465000Y-4415000D01*
X14465000Y-4335000D02*
X14385000Y-4415000D01*
X16570000Y-5550000D02*
G75*
G03X16570000Y-5550000I-50000J0D01*
G01*
X16480000Y-5250000D02*
X16480000Y-5850000D01*
X16560000Y-5250000D02*
X16560000Y-5850000D01*
X16480000Y-5850000D02*
G75*
G03X16560000Y-5850000I40000J0D01*
G01*
X16560000Y-5250000D02*
G75*
G03X16480000Y-5250000I-40000J0D01*
G01*
X17375000Y-4570000D02*
G75*
G03X17375000Y-4570000I-50000J0D01*
G01*
X17285000Y-4270000D02*
X17285000Y-4870000D01*
X17365000Y-4270000D02*
X17365000Y-4870000D01*
X17285000Y-4870000D02*
G75*
G03X17365000Y-4870000I40000J0D01*
G01*
X17365000Y-4270000D02*
G75*
G03X17285000Y-4270000I-40000J0D01*
G01*
X17375000Y-6300000D02*
G75*
G03X17375000Y-6300000I-50000J0D01*
G01*
X17025000Y-6340000D02*
X17625000Y-6340000D01*
X17025000Y-6260000D02*
X17625000Y-6260000D01*
X17625000Y-6340000D02*
G75*
G03X17625000Y-6260000I0J40000D01*
G01*
X17025000Y-6260000D02*
G75*
G03X17025000Y-6340000I0J-40000D01*
G01*
X18180000Y-5550000D02*
G75*
G03X18180000Y-5550000I-50000J0D01*
G01*
X18090000Y-5250000D02*
X18090000Y-5850000D01*
X18170000Y-5250000D02*
X18170000Y-5850000D01*
X18090000Y-5850000D02*
G75*
G03X18170000Y-5850000I40000J0D01*
G01*
X18170000Y-5250000D02*
G75*
G03X18090000Y-5250000I-40000J0D01*
G01*
X13812000Y-5589962D02*
X13812000Y-5690038D01*
X13761962Y-5640000D02*
X13862038Y-5640000D01*
X14828000Y-5589962D02*
X14828000Y-5690038D01*
X14777962Y-5640000D02*
X14878038Y-5640000D01*
X8890921Y-6340921D02*
X8890921Y-6269079D01*
X8819079Y-6269079D01*
X8819079Y-6340921D01*
X8890921Y-6340921D01*
X8890921Y-6594921D02*
X8890921Y-6523079D01*
X8819079Y-6523079D01*
X8819079Y-6594921D01*
X8890921Y-6594921D01*
X9225921Y-12091921D02*
X9225921Y-12020079D01*
X9154079Y-12020079D01*
X9154079Y-12091921D01*
X9225921Y-12091921D01*
X9225921Y-12345921D02*
X9225921Y-12274079D01*
X9154079Y-12274079D01*
X9154079Y-12345921D01*
X9225921Y-12345921D01*
X9225921Y-12599921D02*
X9225921Y-12528079D01*
X9154079Y-12528079D01*
X9154079Y-12599921D01*
X9225921Y-12599921D01*
X9665921Y-9101921D02*
X9665921Y-9030079D01*
X9594079Y-9030079D01*
X9594079Y-9101921D01*
X9665921Y-9101921D01*
X9665921Y-9355921D02*
X9665921Y-9284079D01*
X9594079Y-9284079D01*
X9594079Y-9355921D01*
X9665921Y-9355921D01*
X9665921Y-9609921D02*
X9665921Y-9538079D01*
X9594079Y-9538079D01*
X9594079Y-9609921D01*
X9665921Y-9609921D01*
X12735921Y-7939921D02*
X12735921Y-7868079D01*
X12664079Y-7868079D01*
X12664079Y-7939921D01*
X12735921Y-7939921D01*
X12735921Y-8193921D02*
X12735921Y-8122079D01*
X12664079Y-8122079D01*
X12664079Y-8193921D01*
X12735921Y-8193921D01*
X12735921Y-8447921D02*
X12735921Y-8376079D01*
X12664079Y-8376079D01*
X12664079Y-8447921D01*
X12735921Y-8447921D01*
X12735921Y-8701921D02*
X12735921Y-8630079D01*
X12664079Y-8630079D01*
X12664079Y-8701921D01*
X12735921Y-8701921D01*
X12735921Y-8955921D02*
X12735921Y-8884079D01*
X12664079Y-8884079D01*
X12664079Y-8955921D01*
X12735921Y-8955921D01*
X12735921Y-9209921D02*
X12735921Y-9138079D01*
X12664079Y-9138079D01*
X12664079Y-9209921D01*
X12735921Y-9209921D01*
X12735921Y-9463921D02*
X12735921Y-9392079D01*
X12664079Y-9392079D01*
X12664079Y-9463921D01*
X12735921Y-9463921D01*
X12735921Y-9717921D02*
X12735921Y-9646079D01*
X12664079Y-9646079D01*
X12664079Y-9717921D01*
X12735921Y-9717921D01*
X12735921Y-9971921D02*
X12735921Y-9900079D01*
X12664079Y-9900079D01*
X12664079Y-9971921D01*
X12735921Y-9971921D01*
X12735921Y-10225921D02*
X12735921Y-10154079D01*
X12664079Y-10154079D01*
X12664079Y-10225921D01*
X12735921Y-10225921D01*
X12735921Y-10479921D02*
X12735921Y-10408079D01*
X12664079Y-10408079D01*
X12664079Y-10479921D01*
X12735921Y-10479921D01*
X12735921Y-10733921D02*
X12735921Y-10662079D01*
X12664079Y-10662079D01*
X12664079Y-10733921D01*
X12735921Y-10733921D01*
X12735921Y-10987921D02*
X12735921Y-10916079D01*
X12664079Y-10916079D01*
X12664079Y-10987921D01*
X12735921Y-10987921D01*
X12735921Y-11241921D02*
X12735921Y-11170079D01*
X12664079Y-11170079D01*
X12664079Y-11241921D01*
X12735921Y-11241921D01*
X12735921Y-11495921D02*
X12735921Y-11424079D01*
X12664079Y-11424079D01*
X12664079Y-11495921D01*
X12735921Y-11495921D01*
X12735921Y-11749921D02*
X12735921Y-11678079D01*
X12664079Y-11678079D01*
X12664079Y-11749921D01*
X12735921Y-11749921D01*
X12735921Y-12003921D02*
X12735921Y-11932079D01*
X12664079Y-11932079D01*
X12664079Y-12003921D01*
X12735921Y-12003921D01*
X12735921Y-12257921D02*
X12735921Y-12186079D01*
X12664079Y-12186079D01*
X12664079Y-12257921D01*
X12735921Y-12257921D01*
X12735921Y-12511921D02*
X12735921Y-12440079D01*
X12664079Y-12440079D01*
X12664079Y-12511921D01*
X12735921Y-12511921D01*
X12735921Y-12765921D02*
X12735921Y-12694079D01*
X12664079Y-12694079D01*
X12664079Y-12765921D01*
X12735921Y-12765921D01*
X12735921Y-13019921D02*
X12735921Y-12948079D01*
X12664079Y-12948079D01*
X12664079Y-13019921D01*
X12735921Y-13019921D01*
X12735921Y-13273921D02*
X12735921Y-13202079D01*
X12664079Y-13202079D01*
X12664079Y-13273921D01*
X12735921Y-13273921D01*
X12735921Y-13527921D02*
X12735921Y-13456079D01*
X12664079Y-13456079D01*
X12664079Y-13527921D01*
X12735921Y-13527921D01*
X12735921Y-13781921D02*
X12735921Y-13710079D01*
X12664079Y-13710079D01*
X12664079Y-13781921D01*
X12735921Y-13781921D01*
X12735921Y-14035921D02*
X12735921Y-13964079D01*
X12664079Y-13964079D01*
X12664079Y-14035921D01*
X12735921Y-14035921D01*
X12989921Y-7939921D02*
X12989921Y-7868079D01*
X12918079Y-7868079D01*
X12918079Y-7939921D01*
X12989921Y-7939921D01*
X12989921Y-8193921D02*
X12989921Y-8122079D01*
X12918079Y-8122079D01*
X12918079Y-8193921D01*
X12989921Y-8193921D01*
X12989921Y-8447921D02*
X12989921Y-8376079D01*
X12918079Y-8376079D01*
X12918079Y-8447921D01*
X12989921Y-8447921D01*
X12989921Y-8701921D02*
X12989921Y-8630079D01*
X12918079Y-8630079D01*
X12918079Y-8701921D01*
X12989921Y-8701921D01*
X12989921Y-8955921D02*
X12989921Y-8884079D01*
X12918079Y-8884079D01*
X12918079Y-8955921D01*
X12989921Y-8955921D01*
X12989921Y-9209921D02*
X12989921Y-9138079D01*
X12918079Y-9138079D01*
X12918079Y-9209921D01*
X12989921Y-9209921D01*
X12989921Y-9463921D02*
X12989921Y-9392079D01*
X12918079Y-9392079D01*
X12918079Y-9463921D01*
X12989921Y-9463921D01*
X12989921Y-9717921D02*
X12989921Y-9646079D01*
X12918079Y-9646079D01*
X12918079Y-9717921D01*
X12989921Y-9717921D01*
X12989921Y-9971921D02*
X12989921Y-9900079D01*
X12918079Y-9900079D01*
X12918079Y-9971921D01*
X12989921Y-9971921D01*
X12989921Y-10225921D02*
X12989921Y-10154079D01*
X12918079Y-10154079D01*
X12918079Y-10225921D01*
X12989921Y-10225921D01*
X12989921Y-10479921D02*
X12989921Y-10408079D01*
X12918079Y-10408079D01*
X12918079Y-10479921D01*
X12989921Y-10479921D01*
X12989921Y-10733921D02*
X12989921Y-10662079D01*
X12918079Y-10662079D01*
X12918079Y-10733921D01*
X12989921Y-10733921D01*
X12989921Y-10987921D02*
X12989921Y-10916079D01*
X12918079Y-10916079D01*
X12918079Y-10987921D01*
X12989921Y-10987921D01*
X12989921Y-11241921D02*
X12989921Y-11170079D01*
X12918079Y-11170079D01*
X12918079Y-11241921D01*
X12989921Y-11241921D01*
X12989921Y-11495921D02*
X12989921Y-11424079D01*
X12918079Y-11424079D01*
X12918079Y-11495921D01*
X12989921Y-11495921D01*
X12989921Y-11749921D02*
X12989921Y-11678079D01*
X12918079Y-11678079D01*
X12918079Y-11749921D01*
X12989921Y-11749921D01*
X12989921Y-12003921D02*
X12989921Y-11932079D01*
X12918079Y-11932079D01*
X12918079Y-12003921D01*
X12989921Y-12003921D01*
X12989921Y-12257921D02*
X12989921Y-12186079D01*
X12918079Y-12186079D01*
X12918079Y-12257921D01*
X12989921Y-12257921D01*
X12989921Y-12511921D02*
X12989921Y-12440079D01*
X12918079Y-12440079D01*
X12918079Y-12511921D01*
X12989921Y-12511921D01*
X12989921Y-12765921D02*
X12989921Y-12694079D01*
X12918079Y-12694079D01*
X12918079Y-12765921D01*
X12989921Y-12765921D01*
X12989921Y-13019921D02*
X12989921Y-12948079D01*
X12918079Y-12948079D01*
X12918079Y-13019921D01*
X12989921Y-13019921D01*
X12989921Y-13273921D02*
X12989921Y-13202079D01*
X12918079Y-13202079D01*
X12918079Y-13273921D01*
X12989921Y-13273921D01*
X12989921Y-13527921D02*
X12989921Y-13456079D01*
X12918079Y-13456079D01*
X12918079Y-13527921D01*
X12989921Y-13527921D01*
X12989921Y-13781921D02*
X12989921Y-13710079D01*
X12918079Y-13710079D01*
X12918079Y-13781921D01*
X12989921Y-13781921D01*
X12989921Y-14035921D02*
X12989921Y-13964079D01*
X12918079Y-13964079D01*
X12918079Y-14035921D01*
X12989921Y-14035921D01*
X17815921Y-7939921D02*
X17815921Y-7868079D01*
X17744079Y-7868079D01*
X17744079Y-7939921D01*
X17815921Y-7939921D01*
X17815921Y-8193921D02*
X17815921Y-8122079D01*
X17744079Y-8122079D01*
X17744079Y-8193921D01*
X17815921Y-8193921D01*
X17815921Y-8447921D02*
X17815921Y-8376079D01*
X17744079Y-8376079D01*
X17744079Y-8447921D01*
X17815921Y-8447921D01*
X17815921Y-8701921D02*
X17815921Y-8630079D01*
X17744079Y-8630079D01*
X17744079Y-8701921D01*
X17815921Y-8701921D01*
X17815921Y-8955921D02*
X17815921Y-8884079D01*
X17744079Y-8884079D01*
X17744079Y-8955921D01*
X17815921Y-8955921D01*
X17815921Y-9209921D02*
X17815921Y-9138079D01*
X17744079Y-9138079D01*
X17744079Y-9209921D01*
X17815921Y-9209921D01*
X17815921Y-9463921D02*
X17815921Y-9392079D01*
X17744079Y-9392079D01*
X17744079Y-9463921D01*
X17815921Y-9463921D01*
X17815921Y-9717921D02*
X17815921Y-9646079D01*
X17744079Y-9646079D01*
X17744079Y-9717921D01*
X17815921Y-9717921D01*
X17815921Y-9971921D02*
X17815921Y-9900079D01*
X17744079Y-9900079D01*
X17744079Y-9971921D01*
X17815921Y-9971921D01*
X17815921Y-10225921D02*
X17815921Y-10154079D01*
X17744079Y-10154079D01*
X17744079Y-10225921D01*
X17815921Y-10225921D01*
X17815921Y-10479921D02*
X17815921Y-10408079D01*
X17744079Y-10408079D01*
X17744079Y-10479921D01*
X17815921Y-10479921D01*
X17815921Y-10733921D02*
X17815921Y-10662079D01*
X17744079Y-10662079D01*
X17744079Y-10733921D01*
X17815921Y-10733921D01*
X17815921Y-10987921D02*
X17815921Y-10916079D01*
X17744079Y-10916079D01*
X17744079Y-10987921D01*
X17815921Y-10987921D01*
X17815921Y-11241921D02*
X17815921Y-11170079D01*
X17744079Y-11170079D01*
X17744079Y-11241921D01*
X17815921Y-11241921D01*
X17815921Y-11495921D02*
X17815921Y-11424079D01*
X17744079Y-11424079D01*
X17744079Y-11495921D01*
X17815921Y-11495921D01*
X17815921Y-11749921D02*
X17815921Y-11678079D01*
X17744079Y-11678079D01*
X17744079Y-11749921D01*
X17815921Y-11749921D01*
X17815921Y-12003921D02*
X17815921Y-11932079D01*
X17744079Y-11932079D01*
X17744079Y-12003921D01*
X17815921Y-12003921D01*
X17815921Y-12257921D02*
X17815921Y-12186079D01*
X17744079Y-12186079D01*
X17744079Y-12257921D01*
X17815921Y-12257921D01*
X17815921Y-12511921D02*
X17815921Y-12440079D01*
X17744079Y-12440079D01*
X17744079Y-12511921D01*
X17815921Y-12511921D01*
X17815921Y-12765921D02*
X17815921Y-12694079D01*
X17744079Y-12694079D01*
X17744079Y-12765921D01*
X17815921Y-12765921D01*
X17815921Y-13019921D02*
X17815921Y-12948079D01*
X17744079Y-12948079D01*
X17744079Y-13019921D01*
X17815921Y-13019921D01*
X17815921Y-13273921D02*
X17815921Y-13202079D01*
X17744079Y-13202079D01*
X17744079Y-13273921D01*
X17815921Y-13273921D01*
X17815921Y-13527921D02*
X17815921Y-13456079D01*
X17744079Y-13456079D01*
X17744079Y-13527921D01*
X17815921Y-13527921D01*
X17815921Y-13781921D02*
X17815921Y-13710079D01*
X17744079Y-13710079D01*
X17744079Y-13781921D01*
X17815921Y-13781921D01*
X17815921Y-14035921D02*
X17815921Y-13964079D01*
X17744079Y-13964079D01*
X17744079Y-14035921D01*
X17815921Y-14035921D01*
X18069921Y-7939921D02*
X18069921Y-7868079D01*
X17998079Y-7868079D01*
X17998079Y-7939921D01*
X18069921Y-7939921D01*
X18069921Y-8193921D02*
X18069921Y-8122079D01*
X17998079Y-8122079D01*
X17998079Y-8193921D01*
X18069921Y-8193921D01*
X18069921Y-8447921D02*
X18069921Y-8376079D01*
X17998079Y-8376079D01*
X17998079Y-8447921D01*
X18069921Y-8447921D01*
X18069921Y-8701921D02*
X18069921Y-8630079D01*
X17998079Y-8630079D01*
X17998079Y-8701921D01*
X18069921Y-8701921D01*
X18069921Y-8955921D02*
X18069921Y-8884079D01*
X17998079Y-8884079D01*
X17998079Y-8955921D01*
X18069921Y-8955921D01*
X18069921Y-9209921D02*
X18069921Y-9138079D01*
X17998079Y-9138079D01*
X17998079Y-9209921D01*
X18069921Y-9209921D01*
X18069921Y-9463921D02*
X18069921Y-9392079D01*
X17998079Y-9392079D01*
X17998079Y-9463921D01*
X18069921Y-9463921D01*
X18069921Y-9717921D02*
X18069921Y-9646079D01*
X17998079Y-9646079D01*
X17998079Y-9717921D01*
X18069921Y-9717921D01*
X18069921Y-9971921D02*
X18069921Y-9900079D01*
X17998079Y-9900079D01*
X17998079Y-9971921D01*
X18069921Y-9971921D01*
X18069921Y-10225921D02*
X18069921Y-10154079D01*
X17998079Y-10154079D01*
X17998079Y-10225921D01*
X18069921Y-10225921D01*
X18069921Y-10479921D02*
X18069921Y-10408079D01*
X17998079Y-10408079D01*
X17998079Y-10479921D01*
X18069921Y-10479921D01*
X18069921Y-10733921D02*
X18069921Y-10662079D01*
X17998079Y-10662079D01*
X17998079Y-10733921D01*
X18069921Y-10733921D01*
X18069921Y-10987921D02*
X18069921Y-10916079D01*
X17998079Y-10916079D01*
X17998079Y-10987921D01*
X18069921Y-10987921D01*
X18069921Y-11241921D02*
X18069921Y-11170079D01*
X17998079Y-11170079D01*
X17998079Y-11241921D01*
X18069921Y-11241921D01*
X18069921Y-11495921D02*
X18069921Y-11424079D01*
X17998079Y-11424079D01*
X17998079Y-11495921D01*
X18069921Y-11495921D01*
X18069921Y-11749921D02*
X18069921Y-11678079D01*
X17998079Y-11678079D01*
X17998079Y-11749921D01*
X18069921Y-11749921D01*
X18069921Y-12003921D02*
X18069921Y-11932079D01*
X17998079Y-11932079D01*
X17998079Y-12003921D01*
X18069921Y-12003921D01*
X18069921Y-12257921D02*
X18069921Y-12186079D01*
X17998079Y-12186079D01*
X17998079Y-12257921D01*
X18069921Y-12257921D01*
X18069921Y-12511921D02*
X18069921Y-12440079D01*
X17998079Y-12440079D01*
X17998079Y-12511921D01*
X18069921Y-12511921D01*
X18069921Y-12765921D02*
X18069921Y-12694079D01*
X17998079Y-12694079D01*
X17998079Y-12765921D01*
X18069921Y-12765921D01*
X18069921Y-13019921D02*
X18069921Y-12948079D01*
X17998079Y-12948079D01*
X17998079Y-13019921D01*
X18069921Y-13019921D01*
X18069921Y-13273921D02*
X18069921Y-13202079D01*
X17998079Y-13202079D01*
X17998079Y-13273921D01*
X18069921Y-13273921D01*
X18069921Y-13527921D02*
X18069921Y-13456079D01*
X17998079Y-13456079D01*
X17998079Y-13527921D01*
X18069921Y-13527921D01*
X18069921Y-13781921D02*
X18069921Y-13710079D01*
X17998079Y-13710079D01*
X17998079Y-13781921D01*
X18069921Y-13781921D01*
X18069921Y-14035921D02*
X18069921Y-13964079D01*
X17998079Y-13964079D01*
X17998079Y-14035921D01*
X18069921Y-14035921D01*
X20365921Y-12390921D02*
X20365921Y-12319079D01*
X20294079Y-12319079D01*
X20294079Y-12390921D01*
X20365921Y-12390921D01*
X20365921Y-12644921D02*
X20365921Y-12573079D01*
X20294079Y-12573079D01*
X20294079Y-12644921D01*
X20365921Y-12644921D01*
X21775921Y-4557921D02*
X21775921Y-4486079D01*
X21704079Y-4486079D01*
X21704079Y-4557921D01*
X21775921Y-4557921D01*
X21775921Y-4811921D02*
X21775921Y-4740079D01*
X21704079Y-4740079D01*
X21704079Y-4811921D01*
X21775921Y-4811921D01*
X21775921Y-5065921D02*
X21775921Y-4994079D01*
X21704079Y-4994079D01*
X21704079Y-5065921D01*
X21775921Y-5065921D01*
X21775921Y-5319921D02*
X21775921Y-5248079D01*
X21704079Y-5248079D01*
X21704079Y-5319921D01*
X21775921Y-5319921D01*
X21775921Y-5573921D02*
X21775921Y-5502079D01*
X21704079Y-5502079D01*
X21704079Y-5573921D01*
X21775921Y-5573921D01*
X21775921Y-5827921D02*
X21775921Y-5756079D01*
X21704079Y-5756079D01*
X21704079Y-5827921D01*
X21775921Y-5827921D01*
X21775921Y-6081921D02*
X21775921Y-6010079D01*
X21704079Y-6010079D01*
X21704079Y-6081921D01*
X21775921Y-6081921D01*
X21925921Y-9201921D02*
X21925921Y-9130079D01*
X21854079Y-9130079D01*
X21854079Y-9201921D01*
X21925921Y-9201921D01*
X21925921Y-9455921D02*
X21925921Y-9384079D01*
X21854079Y-9384079D01*
X21854079Y-9455921D01*
X21925921Y-9455921D01*
X21925921Y-9709921D02*
X21925921Y-9638079D01*
X21854079Y-9638079D01*
X21854079Y-9709921D01*
X21925921Y-9709921D01*
X21935921Y-12107921D02*
X21935921Y-12036079D01*
X21864079Y-12036079D01*
X21864079Y-12107921D01*
X21935921Y-12107921D01*
X21935921Y-12361921D02*
X21935921Y-12290079D01*
X21864079Y-12290079D01*
X21864079Y-12361921D01*
X21935921Y-12361921D01*
X21935921Y-12615921D02*
X21935921Y-12544079D01*
X21864079Y-12544079D01*
X21864079Y-12615921D01*
X21935921Y-12615921D01*
X15180000Y-4555000D02*
X15280000Y-4455000D01*
X15180000Y-4355000D01*
X15080000Y-4455000D01*
X15180000Y-4555000D01*
X15180000Y-4965000D02*
X15280000Y-4865000D01*
X15180000Y-4765000D01*
X15080000Y-4865000D01*
X15180000Y-4965000D01*
X15180000Y-5375000D02*
X15280000Y-5275000D01*
X15180000Y-5175000D01*
X15080000Y-5275000D01*
X15180000Y-5375000D01*
X11402000Y-7810000D02*
X11742000Y-8150000D01*
X11742000Y-7810000D02*
X11402000Y-8150000D01*
X11742000Y-7980000D02*
G75*
G03X11742000Y-7980000I-170000J0D01*
G01*
X11402000Y-8810000D02*
X11742000Y-9150000D01*
X11742000Y-8810000D02*
X11402000Y-9150000D01*
X11742000Y-8980000D02*
G75*
G03X11742000Y-8980000I-170000J0D01*
G01*
X11402000Y-11810000D02*
X11742000Y-12150000D01*
X11742000Y-11810000D02*
X11402000Y-12150000D01*
X11742000Y-11980000D02*
G75*
G03X11742000Y-11980000I-170000J0D01*
G01*
X11402000Y-12810000D02*
X11742000Y-13150000D01*
X11742000Y-12810000D02*
X11402000Y-13150000D01*
X11742000Y-12980000D02*
G75*
G03X11742000Y-12980000I-170000J0D01*
G01*
X11402000Y-13810000D02*
X11742000Y-14150000D01*
X11742000Y-13810000D02*
X11402000Y-14150000D01*
X11742000Y-13980000D02*
G75*
G03X11742000Y-13980000I-170000J0D01*
G01*
X19298000Y-7810000D02*
X19638000Y-8150000D01*
X19638000Y-7810000D02*
X19298000Y-8150000D01*
X19638000Y-7980000D02*
G75*
G03X19638000Y-7980000I-170000J0D01*
G01*
X19298000Y-8810000D02*
X19638000Y-9150000D01*
X19638000Y-8810000D02*
X19298000Y-9150000D01*
X19638000Y-8980000D02*
G75*
G03X19638000Y-8980000I-170000J0D01*
G01*
X19298000Y-11810000D02*
X19638000Y-12150000D01*
X19638000Y-11810000D02*
X19298000Y-12150000D01*
X19638000Y-11980000D02*
G75*
G03X19638000Y-11980000I-170000J0D01*
G01*
X19298000Y-12810000D02*
X19638000Y-13150000D01*
X19638000Y-12810000D02*
X19298000Y-13150000D01*
X19638000Y-12980000D02*
G75*
G03X19638000Y-12980000I-170000J0D01*
G01*
X19298000Y-13810000D02*
X19638000Y-14150000D01*
X19638000Y-13810000D02*
X19298000Y-14150000D01*
X19638000Y-13980000D02*
G75*
G03X19638000Y-13980000I-170000J0D01*
G01*
D13*
X7763928Y-15823214D02*
X7763928Y-15523214D01*
X7835357Y-15523214D01*
X7878214Y-15537500D01*
X7906786Y-15566071D01*
X7921071Y-15594643D01*
X7935357Y-15651786D01*
X7935357Y-15694643D01*
X7921071Y-15751786D01*
X7906786Y-15780357D01*
X7878214Y-15808929D01*
X7835357Y-15823214D01*
X7763928Y-15823214D01*
X8063928Y-15823214D02*
X8063928Y-15623214D01*
X8063928Y-15680357D02*
X8078214Y-15651786D01*
X8092500Y-15637500D01*
X8121071Y-15623214D01*
X8149643Y-15623214D01*
X8249643Y-15823214D02*
X8249643Y-15623214D01*
X8249643Y-15523214D02*
X8235357Y-15537500D01*
X8249643Y-15551786D01*
X8263928Y-15537500D01*
X8249643Y-15523214D01*
X8249643Y-15551786D01*
X8435357Y-15823214D02*
X8406786Y-15808929D01*
X8392500Y-15780357D01*
X8392500Y-15523214D01*
X8592500Y-15823214D02*
X8563929Y-15808929D01*
X8549643Y-15780357D01*
X8549643Y-15523214D01*
X8935357Y-15823214D02*
X8935357Y-15523214D01*
X9035357Y-15737500D01*
X9135357Y-15523214D01*
X9135357Y-15823214D01*
X9406786Y-15823214D02*
X9406786Y-15666071D01*
X9392500Y-15637500D01*
X9363929Y-15623214D01*
X9306786Y-15623214D01*
X9278214Y-15637500D01*
X9406786Y-15808929D02*
X9378214Y-15823214D01*
X9306786Y-15823214D01*
X9278214Y-15808929D01*
X9263929Y-15780357D01*
X9263929Y-15751786D01*
X9278214Y-15723214D01*
X9306786Y-15708929D01*
X9378214Y-15708929D01*
X9406786Y-15694643D01*
X9549643Y-15623214D02*
X9549643Y-15923214D01*
X9549643Y-15637500D02*
X9578214Y-15623214D01*
X9635357Y-15623214D01*
X9663929Y-15637500D01*
X9678214Y-15651786D01*
X9692500Y-15680357D01*
X9692500Y-15766071D01*
X9678214Y-15794643D01*
X9663929Y-15808929D01*
X9635357Y-15823214D01*
X9578214Y-15823214D01*
X9549643Y-15808929D01*
X9821071Y-15794643D02*
X9835357Y-15808929D01*
X9821071Y-15823214D01*
X9806786Y-15808929D01*
X9821071Y-15794643D01*
X9821071Y-15823214D01*
X9821071Y-15637500D02*
X9835357Y-15651786D01*
X9821071Y-15666071D01*
X9806786Y-15651786D01*
X9821071Y-15637500D01*
X9821071Y-15666071D01*
X7412500Y-16277500D02*
X7492500Y-16357500D01*
X7492500Y-16277500D02*
X7412500Y-16357500D01*
X7821071Y-16153214D02*
X7849643Y-16153214D01*
X7878214Y-16167500D01*
X7892500Y-16181786D01*
X7906786Y-16210357D01*
X7921071Y-16267500D01*
X7921071Y-16338929D01*
X7906786Y-16396071D01*
X7892500Y-16424643D01*
X7878214Y-16438929D01*
X7849643Y-16453214D01*
X7821071Y-16453214D01*
X7792500Y-16438929D01*
X7778214Y-16424643D01*
X7763928Y-16396071D01*
X7749643Y-16338929D01*
X7749643Y-16267500D01*
X7763928Y-16210357D01*
X7778214Y-16181786D01*
X7792500Y-16167500D01*
X7821071Y-16153214D01*
X8049643Y-16424643D02*
X8063928Y-16438929D01*
X8049643Y-16453214D01*
X8035357Y-16438929D01*
X8049643Y-16424643D01*
X8049643Y-16453214D01*
X8235357Y-16281786D02*
X8206786Y-16267500D01*
X8192500Y-16253214D01*
X8178214Y-16224643D01*
X8178214Y-16210357D01*
X8192500Y-16181786D01*
X8206786Y-16167500D01*
X8235357Y-16153214D01*
X8292500Y-16153214D01*
X8321071Y-16167500D01*
X8335357Y-16181786D01*
X8349643Y-16210357D01*
X8349643Y-16224643D01*
X8335357Y-16253214D01*
X8321071Y-16267500D01*
X8292500Y-16281786D01*
X8235357Y-16281786D01*
X8206786Y-16296071D01*
X8192500Y-16310357D01*
X8178214Y-16338929D01*
X8178214Y-16396071D01*
X8192500Y-16424643D01*
X8206786Y-16438929D01*
X8235357Y-16453214D01*
X8292500Y-16453214D01*
X8321071Y-16438929D01*
X8335357Y-16424643D01*
X8349643Y-16396071D01*
X8349643Y-16338929D01*
X8335357Y-16310357D01*
X8321071Y-16296071D01*
X8292500Y-16281786D01*
X8535357Y-16153214D02*
X8563929Y-16153214D01*
X8592500Y-16167500D01*
X8606786Y-16181786D01*
X8621071Y-16210357D01*
X8635357Y-16267500D01*
X8635357Y-16338929D01*
X8621071Y-16396071D01*
X8606786Y-16424643D01*
X8592500Y-16438929D01*
X8563929Y-16453214D01*
X8535357Y-16453214D01*
X8506786Y-16438929D01*
X8492500Y-16424643D01*
X8478214Y-16396071D01*
X8463929Y-16338929D01*
X8463929Y-16267500D01*
X8478214Y-16210357D01*
X8492500Y-16181786D01*
X8506786Y-16167500D01*
X8535357Y-16153214D01*
X8763929Y-16453214D02*
X8763929Y-16253214D01*
X8763929Y-16281786D02*
X8778214Y-16267500D01*
X8806786Y-16253214D01*
X8849643Y-16253214D01*
X8878214Y-16267500D01*
X8892500Y-16296071D01*
X8892500Y-16453214D01*
X8892500Y-16296071D02*
X8906786Y-16267500D01*
X8935357Y-16253214D01*
X8978214Y-16253214D01*
X9006786Y-16267500D01*
X9021071Y-16296071D01*
X9021071Y-16453214D01*
X9163929Y-16453214D02*
X9163929Y-16253214D01*
X9163929Y-16281786D02*
X9178214Y-16267500D01*
X9206786Y-16253214D01*
X9249643Y-16253214D01*
X9278214Y-16267500D01*
X9292500Y-16296071D01*
X9292500Y-16453214D01*
X9292500Y-16296071D02*
X9306786Y-16267500D01*
X9335357Y-16253214D01*
X9378214Y-16253214D01*
X9406786Y-16267500D01*
X9421071Y-16296071D01*
X9421071Y-16453214D01*
X10006786Y-16138929D02*
X9749643Y-16524643D01*
X10392500Y-16153214D02*
X10421071Y-16153214D01*
X10449643Y-16167500D01*
X10463928Y-16181786D01*
X10478214Y-16210357D01*
X10492500Y-16267500D01*
X10492500Y-16338929D01*
X10478214Y-16396071D01*
X10463928Y-16424643D01*
X10449643Y-16438929D01*
X10421071Y-16453214D01*
X10392500Y-16453214D01*
X10363928Y-16438929D01*
X10349643Y-16424643D01*
X10335357Y-16396071D01*
X10321071Y-16338929D01*
X10321071Y-16267500D01*
X10335357Y-16210357D01*
X10349643Y-16181786D01*
X10363928Y-16167500D01*
X10392500Y-16153214D01*
X10621071Y-16424643D02*
X10635357Y-16438929D01*
X10621071Y-16453214D01*
X10606786Y-16438929D01*
X10621071Y-16424643D01*
X10621071Y-16453214D01*
X10821071Y-16153214D02*
X10849643Y-16153214D01*
X10878214Y-16167500D01*
X10892500Y-16181786D01*
X10906786Y-16210357D01*
X10921071Y-16267500D01*
X10921071Y-16338929D01*
X10906786Y-16396071D01*
X10892500Y-16424643D01*
X10878214Y-16438929D01*
X10849643Y-16453214D01*
X10821071Y-16453214D01*
X10792500Y-16438929D01*
X10778214Y-16424643D01*
X10763928Y-16396071D01*
X10749643Y-16338929D01*
X10749643Y-16267500D01*
X10763928Y-16210357D01*
X10778214Y-16181786D01*
X10792500Y-16167500D01*
X10821071Y-16153214D01*
X11021071Y-16153214D02*
X11206785Y-16153214D01*
X11106786Y-16267500D01*
X11149643Y-16267500D01*
X11178214Y-16281786D01*
X11192500Y-16296071D01*
X11206785Y-16324643D01*
X11206785Y-16396071D01*
X11192500Y-16424643D01*
X11178214Y-16438929D01*
X11149643Y-16453214D01*
X11063928Y-16453214D01*
X11035357Y-16438929D01*
X11021071Y-16424643D01*
X11492500Y-16453214D02*
X11321071Y-16453214D01*
X11406785Y-16453214D02*
X11406785Y-16153214D01*
X11378214Y-16196071D01*
X11349643Y-16224643D01*
X11321071Y-16238929D01*
X11606786Y-16153214D02*
X11606786Y-16210357D01*
X11721071Y-16153214D02*
X11721071Y-16210357D01*
X12163928Y-16567500D02*
X12149643Y-16553214D01*
X12121071Y-16510357D01*
X12106785Y-16481786D01*
X12092500Y-16438929D01*
X12078214Y-16367500D01*
X12078214Y-16310357D01*
X12092500Y-16238929D01*
X12106785Y-16196071D01*
X12121071Y-16167500D01*
X12149643Y-16124643D01*
X12163928Y-16110357D01*
X12435357Y-16453214D02*
X12263928Y-16453214D01*
X12349643Y-16453214D02*
X12349643Y-16153214D01*
X12321071Y-16196071D01*
X12292500Y-16224643D01*
X12263928Y-16238929D01*
X12549643Y-16181786D02*
X12563928Y-16167500D01*
X12592500Y-16153214D01*
X12663928Y-16153214D01*
X12692500Y-16167500D01*
X12706785Y-16181786D01*
X12721071Y-16210357D01*
X12721071Y-16238929D01*
X12706785Y-16281786D01*
X12535357Y-16453214D01*
X12721071Y-16453214D01*
X13078214Y-16453214D02*
X13078214Y-16153214D01*
X13206785Y-16453214D02*
X13206785Y-16296071D01*
X13192500Y-16267500D01*
X13163928Y-16253214D01*
X13121071Y-16253214D01*
X13092500Y-16267500D01*
X13078214Y-16281786D01*
X13392500Y-16453214D02*
X13363928Y-16438929D01*
X13349643Y-16424643D01*
X13335357Y-16396071D01*
X13335357Y-16310357D01*
X13349643Y-16281786D01*
X13363928Y-16267500D01*
X13392500Y-16253214D01*
X13435357Y-16253214D01*
X13463928Y-16267500D01*
X13478214Y-16281786D01*
X13492500Y-16310357D01*
X13492500Y-16396071D01*
X13478214Y-16424643D01*
X13463928Y-16438929D01*
X13435357Y-16453214D01*
X13392500Y-16453214D01*
X13663928Y-16453214D02*
X13635357Y-16438929D01*
X13621071Y-16410357D01*
X13621071Y-16153214D01*
X13892500Y-16438929D02*
X13863928Y-16453214D01*
X13806786Y-16453214D01*
X13778214Y-16438929D01*
X13763928Y-16410357D01*
X13763928Y-16296071D01*
X13778214Y-16267500D01*
X13806786Y-16253214D01*
X13863928Y-16253214D01*
X13892500Y-16267500D01*
X13906786Y-16296071D01*
X13906786Y-16324643D01*
X13763928Y-16353214D01*
X14021071Y-16438929D02*
X14049643Y-16453214D01*
X14106786Y-16453214D01*
X14135357Y-16438929D01*
X14149643Y-16410357D01*
X14149643Y-16396071D01*
X14135357Y-16367500D01*
X14106786Y-16353214D01*
X14063928Y-16353214D01*
X14035357Y-16338929D01*
X14021071Y-16310357D01*
X14021071Y-16296071D01*
X14035357Y-16267500D01*
X14063928Y-16253214D01*
X14106786Y-16253214D01*
X14135357Y-16267500D01*
X14249643Y-16567500D02*
X14263928Y-16553214D01*
X14292500Y-16510357D01*
X14306786Y-16481786D01*
X14321071Y-16438929D01*
X14335357Y-16367500D01*
X14335357Y-16310357D01*
X14321071Y-16238929D01*
X14306786Y-16196071D01*
X14292500Y-16167500D01*
X14263928Y-16124643D01*
X14249643Y-16110357D01*
X7492500Y-16713500D02*
G75*
G03X7492500Y-16713500I-50000J0D01*
G01*
X7921071Y-16849214D02*
X7749643Y-16849214D01*
X7835357Y-16849214D02*
X7835357Y-16549214D01*
X7806786Y-16592071D01*
X7778214Y-16620643D01*
X7749643Y-16634929D01*
X8049643Y-16820643D02*
X8063928Y-16834929D01*
X8049643Y-16849214D01*
X8035357Y-16834929D01*
X8049643Y-16820643D01*
X8049643Y-16849214D01*
X8249643Y-16549214D02*
X8278214Y-16549214D01*
X8306786Y-16563500D01*
X8321071Y-16577786D01*
X8335357Y-16606357D01*
X8349643Y-16663500D01*
X8349643Y-16734929D01*
X8335357Y-16792072D01*
X8321071Y-16820643D01*
X8306786Y-16834929D01*
X8278214Y-16849214D01*
X8249643Y-16849214D01*
X8221071Y-16834929D01*
X8206786Y-16820643D01*
X8192500Y-16792072D01*
X8178214Y-16734929D01*
X8178214Y-16663500D01*
X8192500Y-16606357D01*
X8206786Y-16577786D01*
X8221071Y-16563500D01*
X8249643Y-16549214D01*
X8535357Y-16549214D02*
X8563929Y-16549214D01*
X8592500Y-16563500D01*
X8606786Y-16577786D01*
X8621071Y-16606357D01*
X8635357Y-16663500D01*
X8635357Y-16734929D01*
X8621071Y-16792072D01*
X8606786Y-16820643D01*
X8592500Y-16834929D01*
X8563929Y-16849214D01*
X8535357Y-16849214D01*
X8506786Y-16834929D01*
X8492500Y-16820643D01*
X8478214Y-16792072D01*
X8463929Y-16734929D01*
X8463929Y-16663500D01*
X8478214Y-16606357D01*
X8492500Y-16577786D01*
X8506786Y-16563500D01*
X8535357Y-16549214D01*
X8763929Y-16849214D02*
X8763929Y-16649214D01*
X8763929Y-16677786D02*
X8778214Y-16663500D01*
X8806786Y-16649214D01*
X8849643Y-16649214D01*
X8878214Y-16663500D01*
X8892500Y-16692071D01*
X8892500Y-16849214D01*
X8892500Y-16692071D02*
X8906786Y-16663500D01*
X8935357Y-16649214D01*
X8978214Y-16649214D01*
X9006786Y-16663500D01*
X9021071Y-16692071D01*
X9021071Y-16849214D01*
X9163929Y-16849214D02*
X9163929Y-16649214D01*
X9163929Y-16677786D02*
X9178214Y-16663500D01*
X9206786Y-16649214D01*
X9249643Y-16649214D01*
X9278214Y-16663500D01*
X9292500Y-16692071D01*
X9292500Y-16849214D01*
X9292500Y-16692071D02*
X9306786Y-16663500D01*
X9335357Y-16649214D01*
X9378214Y-16649214D01*
X9406786Y-16663500D01*
X9421071Y-16692071D01*
X9421071Y-16849214D01*
X10006786Y-16534929D02*
X9749643Y-16920643D01*
X10392500Y-16549214D02*
X10421071Y-16549214D01*
X10449643Y-16563500D01*
X10463928Y-16577786D01*
X10478214Y-16606357D01*
X10492500Y-16663500D01*
X10492500Y-16734929D01*
X10478214Y-16792072D01*
X10463928Y-16820643D01*
X10449643Y-16834929D01*
X10421071Y-16849214D01*
X10392500Y-16849214D01*
X10363928Y-16834929D01*
X10349643Y-16820643D01*
X10335357Y-16792072D01*
X10321071Y-16734929D01*
X10321071Y-16663500D01*
X10335357Y-16606357D01*
X10349643Y-16577786D01*
X10363928Y-16563500D01*
X10392500Y-16549214D01*
X10621071Y-16820643D02*
X10635357Y-16834929D01*
X10621071Y-16849214D01*
X10606786Y-16834929D01*
X10621071Y-16820643D01*
X10621071Y-16849214D01*
X10821071Y-16549214D02*
X10849643Y-16549214D01*
X10878214Y-16563500D01*
X10892500Y-16577786D01*
X10906786Y-16606357D01*
X10921071Y-16663500D01*
X10921071Y-16734929D01*
X10906786Y-16792072D01*
X10892500Y-16820643D01*
X10878214Y-16834929D01*
X10849643Y-16849214D01*
X10821071Y-16849214D01*
X10792500Y-16834929D01*
X10778214Y-16820643D01*
X10763928Y-16792072D01*
X10749643Y-16734929D01*
X10749643Y-16663500D01*
X10763928Y-16606357D01*
X10778214Y-16577786D01*
X10792500Y-16563500D01*
X10821071Y-16549214D01*
X11021071Y-16549214D02*
X11206785Y-16549214D01*
X11106786Y-16663500D01*
X11149643Y-16663500D01*
X11178214Y-16677786D01*
X11192500Y-16692071D01*
X11206785Y-16720643D01*
X11206785Y-16792072D01*
X11192500Y-16820643D01*
X11178214Y-16834929D01*
X11149643Y-16849214D01*
X11063928Y-16849214D01*
X11035357Y-16834929D01*
X11021071Y-16820643D01*
X11349643Y-16849214D02*
X11406785Y-16849214D01*
X11435357Y-16834929D01*
X11449643Y-16820643D01*
X11478214Y-16777786D01*
X11492500Y-16720643D01*
X11492500Y-16606357D01*
X11478214Y-16577786D01*
X11463928Y-16563500D01*
X11435357Y-16549214D01*
X11378214Y-16549214D01*
X11349643Y-16563500D01*
X11335357Y-16577786D01*
X11321071Y-16606357D01*
X11321071Y-16677786D01*
X11335357Y-16706357D01*
X11349643Y-16720643D01*
X11378214Y-16734929D01*
X11435357Y-16734929D01*
X11463928Y-16720643D01*
X11478214Y-16706357D01*
X11492500Y-16677786D01*
X11606786Y-16549214D02*
X11606786Y-16606357D01*
X11721071Y-16549214D02*
X11721071Y-16606357D01*
X12163928Y-16963500D02*
X12149643Y-16949214D01*
X12121071Y-16906357D01*
X12106785Y-16877786D01*
X12092500Y-16834929D01*
X12078214Y-16763500D01*
X12078214Y-16706357D01*
X12092500Y-16634929D01*
X12106785Y-16592071D01*
X12121071Y-16563500D01*
X12149643Y-16520643D01*
X12163928Y-16506357D01*
X12335357Y-16549214D02*
X12363928Y-16549214D01*
X12392500Y-16563500D01*
X12406785Y-16577786D01*
X12421071Y-16606357D01*
X12435357Y-16663500D01*
X12435357Y-16734929D01*
X12421071Y-16792072D01*
X12406785Y-16820643D01*
X12392500Y-16834929D01*
X12363928Y-16849214D01*
X12335357Y-16849214D01*
X12306785Y-16834929D01*
X12292500Y-16820643D01*
X12278214Y-16792072D01*
X12263928Y-16734929D01*
X12263928Y-16663500D01*
X12278214Y-16606357D01*
X12292500Y-16577786D01*
X12306785Y-16563500D01*
X12335357Y-16549214D01*
X12792500Y-16849214D02*
X12792500Y-16549214D01*
X12921071Y-16849214D02*
X12921071Y-16692071D01*
X12906785Y-16663500D01*
X12878214Y-16649214D01*
X12835357Y-16649214D01*
X12806785Y-16663500D01*
X12792500Y-16677786D01*
X13106785Y-16849214D02*
X13078214Y-16834929D01*
X13063928Y-16820643D01*
X13049643Y-16792072D01*
X13049643Y-16706357D01*
X13063928Y-16677786D01*
X13078214Y-16663500D01*
X13106785Y-16649214D01*
X13149643Y-16649214D01*
X13178214Y-16663500D01*
X13192500Y-16677786D01*
X13206785Y-16706357D01*
X13206785Y-16792072D01*
X13192500Y-16820643D01*
X13178214Y-16834929D01*
X13149643Y-16849214D01*
X13106785Y-16849214D01*
X13378214Y-16849214D02*
X13349643Y-16834929D01*
X13335357Y-16806357D01*
X13335357Y-16549214D01*
X13606786Y-16834929D02*
X13578214Y-16849214D01*
X13521071Y-16849214D01*
X13492500Y-16834929D01*
X13478214Y-16806357D01*
X13478214Y-16692071D01*
X13492500Y-16663500D01*
X13521071Y-16649214D01*
X13578214Y-16649214D01*
X13606786Y-16663500D01*
X13621071Y-16692071D01*
X13621071Y-16720643D01*
X13478214Y-16749214D01*
X13735357Y-16834929D02*
X13763928Y-16849214D01*
X13821071Y-16849214D01*
X13849643Y-16834929D01*
X13863928Y-16806357D01*
X13863928Y-16792072D01*
X13849643Y-16763500D01*
X13821071Y-16749214D01*
X13778214Y-16749214D01*
X13749643Y-16734929D01*
X13735357Y-16706357D01*
X13735357Y-16692071D01*
X13749643Y-16663500D01*
X13778214Y-16649214D01*
X13821071Y-16649214D01*
X13849643Y-16663500D01*
X14221071Y-16734929D02*
X14449643Y-16734929D01*
X14335357Y-16849214D02*
X14335357Y-16620643D01*
X14949643Y-16649214D02*
X14949643Y-16849214D01*
X14878214Y-16534929D02*
X14806786Y-16749214D01*
X14992500Y-16749214D01*
X15321071Y-16834929D02*
X15349643Y-16849214D01*
X15406785Y-16849214D01*
X15435357Y-16834929D01*
X15449643Y-16806357D01*
X15449643Y-16792072D01*
X15435357Y-16763500D01*
X15406785Y-16749214D01*
X15363928Y-16749214D01*
X15335357Y-16734929D01*
X15321071Y-16706357D01*
X15321071Y-16692071D01*
X15335357Y-16663500D01*
X15363928Y-16649214D01*
X15406785Y-16649214D01*
X15435357Y-16663500D01*
X15621071Y-16849214D02*
X15592500Y-16834929D01*
X15578214Y-16806357D01*
X15578214Y-16549214D01*
X15778214Y-16849214D02*
X15749643Y-16834929D01*
X15735357Y-16820643D01*
X15721071Y-16792072D01*
X15721071Y-16706357D01*
X15735357Y-16677786D01*
X15749643Y-16663500D01*
X15778214Y-16649214D01*
X15821071Y-16649214D01*
X15849643Y-16663500D01*
X15863928Y-16677786D01*
X15878214Y-16706357D01*
X15878214Y-16792072D01*
X15863928Y-16820643D01*
X15849643Y-16834929D01*
X15821071Y-16849214D01*
X15778214Y-16849214D01*
X15963928Y-16649214D02*
X16078214Y-16649214D01*
X16006786Y-16549214D02*
X16006786Y-16806357D01*
X16021071Y-16834929D01*
X16049643Y-16849214D01*
X16078214Y-16849214D01*
X16163928Y-16834929D02*
X16192500Y-16849214D01*
X16249643Y-16849214D01*
X16278214Y-16834929D01*
X16292500Y-16806357D01*
X16292500Y-16792072D01*
X16278214Y-16763500D01*
X16249643Y-16749214D01*
X16206786Y-16749214D01*
X16178214Y-16734929D01*
X16163928Y-16706357D01*
X16163928Y-16692071D01*
X16178214Y-16663500D01*
X16206786Y-16649214D01*
X16249643Y-16649214D01*
X16278214Y-16663500D01*
X16392500Y-16963500D02*
X16406786Y-16949214D01*
X16435357Y-16906357D01*
X16449643Y-16877786D01*
X16463928Y-16834929D01*
X16478214Y-16763500D01*
X16478214Y-16706357D01*
X16463928Y-16634929D01*
X16449643Y-16592071D01*
X16435357Y-16563500D01*
X16406786Y-16520643D01*
X16392500Y-16506357D01*
X7442462Y-17059462D02*
X7442462Y-17159538D01*
X7392424Y-17109500D02*
X7492500Y-17109500D01*
X7921071Y-17245214D02*
X7749643Y-17245214D01*
X7835357Y-17245214D02*
X7835357Y-16945214D01*
X7806786Y-16988072D01*
X7778214Y-17016643D01*
X7749643Y-17030929D01*
X8049643Y-17216643D02*
X8063928Y-17230929D01*
X8049643Y-17245214D01*
X8035357Y-17230929D01*
X8049643Y-17216643D01*
X8049643Y-17245214D01*
X8249643Y-16945214D02*
X8278214Y-16945214D01*
X8306786Y-16959500D01*
X8321071Y-16973786D01*
X8335357Y-17002357D01*
X8349643Y-17059500D01*
X8349643Y-17130929D01*
X8335357Y-17188072D01*
X8321071Y-17216643D01*
X8306786Y-17230929D01*
X8278214Y-17245214D01*
X8249643Y-17245214D01*
X8221071Y-17230929D01*
X8206786Y-17216643D01*
X8192500Y-17188072D01*
X8178214Y-17130929D01*
X8178214Y-17059500D01*
X8192500Y-17002357D01*
X8206786Y-16973786D01*
X8221071Y-16959500D01*
X8249643Y-16945214D01*
X8535357Y-16945214D02*
X8563929Y-16945214D01*
X8592500Y-16959500D01*
X8606786Y-16973786D01*
X8621071Y-17002357D01*
X8635357Y-17059500D01*
X8635357Y-17130929D01*
X8621071Y-17188072D01*
X8606786Y-17216643D01*
X8592500Y-17230929D01*
X8563929Y-17245214D01*
X8535357Y-17245214D01*
X8506786Y-17230929D01*
X8492500Y-17216643D01*
X8478214Y-17188072D01*
X8463929Y-17130929D01*
X8463929Y-17059500D01*
X8478214Y-17002357D01*
X8492500Y-16973786D01*
X8506786Y-16959500D01*
X8535357Y-16945214D01*
X8763929Y-17245214D02*
X8763929Y-17045214D01*
X8763929Y-17073786D02*
X8778214Y-17059500D01*
X8806786Y-17045214D01*
X8849643Y-17045214D01*
X8878214Y-17059500D01*
X8892500Y-17088072D01*
X8892500Y-17245214D01*
X8892500Y-17088072D02*
X8906786Y-17059500D01*
X8935357Y-17045214D01*
X8978214Y-17045214D01*
X9006786Y-17059500D01*
X9021071Y-17088072D01*
X9021071Y-17245214D01*
X9163929Y-17245214D02*
X9163929Y-17045214D01*
X9163929Y-17073786D02*
X9178214Y-17059500D01*
X9206786Y-17045214D01*
X9249643Y-17045214D01*
X9278214Y-17059500D01*
X9292500Y-17088072D01*
X9292500Y-17245214D01*
X9292500Y-17088072D02*
X9306786Y-17059500D01*
X9335357Y-17045214D01*
X9378214Y-17045214D01*
X9406786Y-17059500D01*
X9421071Y-17088072D01*
X9421071Y-17245214D01*
X10006786Y-16930929D02*
X9749643Y-17316643D01*
X10392500Y-16945214D02*
X10421071Y-16945214D01*
X10449643Y-16959500D01*
X10463928Y-16973786D01*
X10478214Y-17002357D01*
X10492500Y-17059500D01*
X10492500Y-17130929D01*
X10478214Y-17188072D01*
X10463928Y-17216643D01*
X10449643Y-17230929D01*
X10421071Y-17245214D01*
X10392500Y-17245214D01*
X10363928Y-17230929D01*
X10349643Y-17216643D01*
X10335357Y-17188072D01*
X10321071Y-17130929D01*
X10321071Y-17059500D01*
X10335357Y-17002357D01*
X10349643Y-16973786D01*
X10363928Y-16959500D01*
X10392500Y-16945214D01*
X10621071Y-17216643D02*
X10635357Y-17230929D01*
X10621071Y-17245214D01*
X10606786Y-17230929D01*
X10621071Y-17216643D01*
X10621071Y-17245214D01*
X10821071Y-16945214D02*
X10849643Y-16945214D01*
X10878214Y-16959500D01*
X10892500Y-16973786D01*
X10906786Y-17002357D01*
X10921071Y-17059500D01*
X10921071Y-17130929D01*
X10906786Y-17188072D01*
X10892500Y-17216643D01*
X10878214Y-17230929D01*
X10849643Y-17245214D01*
X10821071Y-17245214D01*
X10792500Y-17230929D01*
X10778214Y-17216643D01*
X10763928Y-17188072D01*
X10749643Y-17130929D01*
X10749643Y-17059500D01*
X10763928Y-17002357D01*
X10778214Y-16973786D01*
X10792500Y-16959500D01*
X10821071Y-16945214D01*
X11021071Y-16945214D02*
X11206785Y-16945214D01*
X11106786Y-17059500D01*
X11149643Y-17059500D01*
X11178214Y-17073786D01*
X11192500Y-17088072D01*
X11206785Y-17116643D01*
X11206785Y-17188072D01*
X11192500Y-17216643D01*
X11178214Y-17230929D01*
X11149643Y-17245214D01*
X11063928Y-17245214D01*
X11035357Y-17230929D01*
X11021071Y-17216643D01*
X11349643Y-17245214D02*
X11406785Y-17245214D01*
X11435357Y-17230929D01*
X11449643Y-17216643D01*
X11478214Y-17173786D01*
X11492500Y-17116643D01*
X11492500Y-17002357D01*
X11478214Y-16973786D01*
X11463928Y-16959500D01*
X11435357Y-16945214D01*
X11378214Y-16945214D01*
X11349643Y-16959500D01*
X11335357Y-16973786D01*
X11321071Y-17002357D01*
X11321071Y-17073786D01*
X11335357Y-17102357D01*
X11349643Y-17116643D01*
X11378214Y-17130929D01*
X11435357Y-17130929D01*
X11463928Y-17116643D01*
X11478214Y-17102357D01*
X11492500Y-17073786D01*
X11606786Y-16945214D02*
X11606786Y-17002357D01*
X11721071Y-16945214D02*
X11721071Y-17002357D01*
X12163928Y-17359500D02*
X12149643Y-17345214D01*
X12121071Y-17302357D01*
X12106785Y-17273786D01*
X12092500Y-17230929D01*
X12078214Y-17159500D01*
X12078214Y-17102357D01*
X12092500Y-17030929D01*
X12106785Y-16988072D01*
X12121071Y-16959500D01*
X12149643Y-16916643D01*
X12163928Y-16902357D01*
X12263928Y-16973786D02*
X12278214Y-16959500D01*
X12306785Y-16945214D01*
X12378214Y-16945214D01*
X12406785Y-16959500D01*
X12421071Y-16973786D01*
X12435357Y-17002357D01*
X12435357Y-17030929D01*
X12421071Y-17073786D01*
X12249643Y-17245214D01*
X12435357Y-17245214D01*
X12792500Y-17245214D02*
X12792500Y-16945214D01*
X12921071Y-17245214D02*
X12921071Y-17088072D01*
X12906785Y-17059500D01*
X12878214Y-17045214D01*
X12835357Y-17045214D01*
X12806785Y-17059500D01*
X12792500Y-17073786D01*
X13106785Y-17245214D02*
X13078214Y-17230929D01*
X13063928Y-17216643D01*
X13049643Y-17188072D01*
X13049643Y-17102357D01*
X13063928Y-17073786D01*
X13078214Y-17059500D01*
X13106785Y-17045214D01*
X13149643Y-17045214D01*
X13178214Y-17059500D01*
X13192500Y-17073786D01*
X13206785Y-17102357D01*
X13206785Y-17188072D01*
X13192500Y-17216643D01*
X13178214Y-17230929D01*
X13149643Y-17245214D01*
X13106785Y-17245214D01*
X13378214Y-17245214D02*
X13349643Y-17230929D01*
X13335357Y-17202357D01*
X13335357Y-16945214D01*
X13606786Y-17230929D02*
X13578214Y-17245214D01*
X13521071Y-17245214D01*
X13492500Y-17230929D01*
X13478214Y-17202357D01*
X13478214Y-17088072D01*
X13492500Y-17059500D01*
X13521071Y-17045214D01*
X13578214Y-17045214D01*
X13606786Y-17059500D01*
X13621071Y-17088072D01*
X13621071Y-17116643D01*
X13478214Y-17145214D01*
X13735357Y-17230929D02*
X13763928Y-17245214D01*
X13821071Y-17245214D01*
X13849643Y-17230929D01*
X13863928Y-17202357D01*
X13863928Y-17188072D01*
X13849643Y-17159500D01*
X13821071Y-17145214D01*
X13778214Y-17145214D01*
X13749643Y-17130929D01*
X13735357Y-17102357D01*
X13735357Y-17088072D01*
X13749643Y-17059500D01*
X13778214Y-17045214D01*
X13821071Y-17045214D01*
X13849643Y-17059500D01*
X13963928Y-17359500D02*
X13978214Y-17345214D01*
X14006786Y-17302357D01*
X14021071Y-17273786D01*
X14035357Y-17230929D01*
X14049643Y-17159500D01*
X14049643Y-17102357D01*
X14035357Y-17030929D01*
X14021071Y-16988072D01*
X14006786Y-16959500D01*
X13978214Y-16916643D01*
X13963928Y-16902357D01*
X7477621Y-17541422D02*
X7477621Y-17469579D01*
X7405778Y-17469579D01*
X7405778Y-17541422D01*
X7477621Y-17541422D01*
X7921071Y-17641214D02*
X7749643Y-17641214D01*
X7835357Y-17641214D02*
X7835357Y-17341214D01*
X7806786Y-17384072D01*
X7778214Y-17412643D01*
X7749643Y-17426929D01*
X8049643Y-17612643D02*
X8063928Y-17626929D01*
X8049643Y-17641214D01*
X8035357Y-17626929D01*
X8049643Y-17612643D01*
X8049643Y-17641214D01*
X8249643Y-17341214D02*
X8278214Y-17341214D01*
X8306786Y-17355500D01*
X8321071Y-17369786D01*
X8335357Y-17398357D01*
X8349643Y-17455500D01*
X8349643Y-17526929D01*
X8335357Y-17584072D01*
X8321071Y-17612643D01*
X8306786Y-17626929D01*
X8278214Y-17641214D01*
X8249643Y-17641214D01*
X8221071Y-17626929D01*
X8206786Y-17612643D01*
X8192500Y-17584072D01*
X8178214Y-17526929D01*
X8178214Y-17455500D01*
X8192500Y-17398357D01*
X8206786Y-17369786D01*
X8221071Y-17355500D01*
X8249643Y-17341214D01*
X8463929Y-17369786D02*
X8478214Y-17355500D01*
X8506786Y-17341214D01*
X8578214Y-17341214D01*
X8606786Y-17355500D01*
X8621071Y-17369786D01*
X8635357Y-17398357D01*
X8635357Y-17426929D01*
X8621071Y-17469786D01*
X8449643Y-17641214D01*
X8635357Y-17641214D01*
X8763929Y-17641214D02*
X8763929Y-17441214D01*
X8763929Y-17469786D02*
X8778214Y-17455500D01*
X8806786Y-17441214D01*
X8849643Y-17441214D01*
X8878214Y-17455500D01*
X8892500Y-17484072D01*
X8892500Y-17641214D01*
X8892500Y-17484072D02*
X8906786Y-17455500D01*
X8935357Y-17441214D01*
X8978214Y-17441214D01*
X9006786Y-17455500D01*
X9021071Y-17484072D01*
X9021071Y-17641214D01*
X9163929Y-17641214D02*
X9163929Y-17441214D01*
X9163929Y-17469786D02*
X9178214Y-17455500D01*
X9206786Y-17441214D01*
X9249643Y-17441214D01*
X9278214Y-17455500D01*
X9292500Y-17484072D01*
X9292500Y-17641214D01*
X9292500Y-17484072D02*
X9306786Y-17455500D01*
X9335357Y-17441214D01*
X9378214Y-17441214D01*
X9406786Y-17455500D01*
X9421071Y-17484072D01*
X9421071Y-17641214D01*
X10006786Y-17326929D02*
X9749643Y-17712643D01*
X10392500Y-17341214D02*
X10421071Y-17341214D01*
X10449643Y-17355500D01*
X10463928Y-17369786D01*
X10478214Y-17398357D01*
X10492500Y-17455500D01*
X10492500Y-17526929D01*
X10478214Y-17584072D01*
X10463928Y-17612643D01*
X10449643Y-17626929D01*
X10421071Y-17641214D01*
X10392500Y-17641214D01*
X10363928Y-17626929D01*
X10349643Y-17612643D01*
X10335357Y-17584072D01*
X10321071Y-17526929D01*
X10321071Y-17455500D01*
X10335357Y-17398357D01*
X10349643Y-17369786D01*
X10363928Y-17355500D01*
X10392500Y-17341214D01*
X10621071Y-17612643D02*
X10635357Y-17626929D01*
X10621071Y-17641214D01*
X10606786Y-17626929D01*
X10621071Y-17612643D01*
X10621071Y-17641214D01*
X10821071Y-17341214D02*
X10849643Y-17341214D01*
X10878214Y-17355500D01*
X10892500Y-17369786D01*
X10906786Y-17398357D01*
X10921071Y-17455500D01*
X10921071Y-17526929D01*
X10906786Y-17584072D01*
X10892500Y-17612643D01*
X10878214Y-17626929D01*
X10849643Y-17641214D01*
X10821071Y-17641214D01*
X10792500Y-17626929D01*
X10778214Y-17612643D01*
X10763928Y-17584072D01*
X10749643Y-17526929D01*
X10749643Y-17455500D01*
X10763928Y-17398357D01*
X10778214Y-17369786D01*
X10792500Y-17355500D01*
X10821071Y-17341214D01*
X11178214Y-17441214D02*
X11178214Y-17641214D01*
X11106786Y-17326929D02*
X11035357Y-17541214D01*
X11221071Y-17541214D01*
X11392500Y-17341214D02*
X11421071Y-17341214D01*
X11449643Y-17355500D01*
X11463928Y-17369786D01*
X11478214Y-17398357D01*
X11492500Y-17455500D01*
X11492500Y-17526929D01*
X11478214Y-17584072D01*
X11463928Y-17612643D01*
X11449643Y-17626929D01*
X11421071Y-17641214D01*
X11392500Y-17641214D01*
X11363928Y-17626929D01*
X11349643Y-17612643D01*
X11335357Y-17584072D01*
X11321071Y-17526929D01*
X11321071Y-17455500D01*
X11335357Y-17398357D01*
X11349643Y-17369786D01*
X11363928Y-17355500D01*
X11392500Y-17341214D01*
X11606786Y-17341214D02*
X11606786Y-17398357D01*
X11721071Y-17341214D02*
X11721071Y-17398357D01*
X12163928Y-17755500D02*
X12149643Y-17741214D01*
X12121071Y-17698357D01*
X12106785Y-17669786D01*
X12092500Y-17626929D01*
X12078214Y-17555500D01*
X12078214Y-17498357D01*
X12092500Y-17426929D01*
X12106785Y-17384072D01*
X12121071Y-17355500D01*
X12149643Y-17312643D01*
X12163928Y-17298357D01*
X12435357Y-17641214D02*
X12263928Y-17641214D01*
X12349643Y-17641214D02*
X12349643Y-17341214D01*
X12321071Y-17384072D01*
X12292500Y-17412643D01*
X12263928Y-17426929D01*
X12549643Y-17369786D02*
X12563928Y-17355500D01*
X12592500Y-17341214D01*
X12663928Y-17341214D01*
X12692500Y-17355500D01*
X12706785Y-17369786D01*
X12721071Y-17398357D01*
X12721071Y-17426929D01*
X12706785Y-17469786D01*
X12535357Y-17641214D01*
X12721071Y-17641214D01*
X12821071Y-17341214D02*
X13006785Y-17341214D01*
X12906785Y-17455500D01*
X12949643Y-17455500D01*
X12978214Y-17469786D01*
X12992500Y-17484072D01*
X13006785Y-17512643D01*
X13006785Y-17584072D01*
X12992500Y-17612643D01*
X12978214Y-17626929D01*
X12949643Y-17641214D01*
X12863928Y-17641214D01*
X12835357Y-17626929D01*
X12821071Y-17612643D01*
X13363928Y-17641214D02*
X13363928Y-17341214D01*
X13492500Y-17641214D02*
X13492500Y-17484072D01*
X13478214Y-17455500D01*
X13449643Y-17441214D01*
X13406785Y-17441214D01*
X13378214Y-17455500D01*
X13363928Y-17469786D01*
X13678214Y-17641214D02*
X13649643Y-17626929D01*
X13635357Y-17612643D01*
X13621071Y-17584072D01*
X13621071Y-17498357D01*
X13635357Y-17469786D01*
X13649643Y-17455500D01*
X13678214Y-17441214D01*
X13721071Y-17441214D01*
X13749643Y-17455500D01*
X13763928Y-17469786D01*
X13778214Y-17498357D01*
X13778214Y-17584072D01*
X13763928Y-17612643D01*
X13749643Y-17626929D01*
X13721071Y-17641214D01*
X13678214Y-17641214D01*
X13949643Y-17641214D02*
X13921071Y-17626929D01*
X13906786Y-17598357D01*
X13906786Y-17341214D01*
X14178214Y-17626929D02*
X14149643Y-17641214D01*
X14092500Y-17641214D01*
X14063928Y-17626929D01*
X14049643Y-17598357D01*
X14049643Y-17484072D01*
X14063928Y-17455500D01*
X14092500Y-17441214D01*
X14149643Y-17441214D01*
X14178214Y-17455500D01*
X14192500Y-17484072D01*
X14192500Y-17512643D01*
X14049643Y-17541214D01*
X14306786Y-17626929D02*
X14335357Y-17641214D01*
X14392500Y-17641214D01*
X14421071Y-17626929D01*
X14435357Y-17598357D01*
X14435357Y-17584072D01*
X14421071Y-17555500D01*
X14392500Y-17541214D01*
X14349643Y-17541214D01*
X14321071Y-17526929D01*
X14306786Y-17498357D01*
X14306786Y-17484072D01*
X14321071Y-17455500D01*
X14349643Y-17441214D01*
X14392500Y-17441214D01*
X14421071Y-17455500D01*
X14535357Y-17755500D02*
X14549643Y-17741214D01*
X14578214Y-17698357D01*
X14592500Y-17669786D01*
X14606786Y-17626929D01*
X14621071Y-17555500D01*
X14621071Y-17498357D01*
X14606786Y-17426929D01*
X14592500Y-17384072D01*
X14578214Y-17355500D01*
X14549643Y-17312643D01*
X14535357Y-17298357D01*
X7392500Y-18001500D02*
X7492500Y-17901500D01*
X7392500Y-17801500D01*
X7292500Y-17901500D01*
X7392500Y-18001500D01*
X7749643Y-17765786D02*
X7763928Y-17751500D01*
X7792500Y-17737214D01*
X7863928Y-17737214D01*
X7892500Y-17751500D01*
X7906786Y-17765786D01*
X7921071Y-17794357D01*
X7921071Y-17822929D01*
X7906786Y-17865786D01*
X7735357Y-18037214D01*
X7921071Y-18037214D01*
X8049643Y-18008643D02*
X8063928Y-18022929D01*
X8049643Y-18037214D01*
X8035357Y-18022929D01*
X8049643Y-18008643D01*
X8049643Y-18037214D01*
X8249643Y-17737214D02*
X8278214Y-17737214D01*
X8306786Y-17751500D01*
X8321071Y-17765786D01*
X8335357Y-17794357D01*
X8349643Y-17851500D01*
X8349643Y-17922929D01*
X8335357Y-17980072D01*
X8321071Y-18008643D01*
X8306786Y-18022929D01*
X8278214Y-18037214D01*
X8249643Y-18037214D01*
X8221071Y-18022929D01*
X8206786Y-18008643D01*
X8192500Y-17980072D01*
X8178214Y-17922929D01*
X8178214Y-17851500D01*
X8192500Y-17794357D01*
X8206786Y-17765786D01*
X8221071Y-17751500D01*
X8249643Y-17737214D01*
X8535357Y-17737214D02*
X8563929Y-17737214D01*
X8592500Y-17751500D01*
X8606786Y-17765786D01*
X8621071Y-17794357D01*
X8635357Y-17851500D01*
X8635357Y-17922929D01*
X8621071Y-17980072D01*
X8606786Y-18008643D01*
X8592500Y-18022929D01*
X8563929Y-18037214D01*
X8535357Y-18037214D01*
X8506786Y-18022929D01*
X8492500Y-18008643D01*
X8478214Y-17980072D01*
X8463929Y-17922929D01*
X8463929Y-17851500D01*
X8478214Y-17794357D01*
X8492500Y-17765786D01*
X8506786Y-17751500D01*
X8535357Y-17737214D01*
X8763929Y-18037214D02*
X8763929Y-17837214D01*
X8763929Y-17865786D02*
X8778214Y-17851500D01*
X8806786Y-17837214D01*
X8849643Y-17837214D01*
X8878214Y-17851500D01*
X8892500Y-17880072D01*
X8892500Y-18037214D01*
X8892500Y-17880072D02*
X8906786Y-17851500D01*
X8935357Y-17837214D01*
X8978214Y-17837214D01*
X9006786Y-17851500D01*
X9021071Y-17880072D01*
X9021071Y-18037214D01*
X9163929Y-18037214D02*
X9163929Y-17837214D01*
X9163929Y-17865786D02*
X9178214Y-17851500D01*
X9206786Y-17837214D01*
X9249643Y-17837214D01*
X9278214Y-17851500D01*
X9292500Y-17880072D01*
X9292500Y-18037214D01*
X9292500Y-17880072D02*
X9306786Y-17851500D01*
X9335357Y-17837214D01*
X9378214Y-17837214D01*
X9406786Y-17851500D01*
X9421071Y-17880072D01*
X9421071Y-18037214D01*
X10006786Y-17722929D02*
X9749643Y-18108643D01*
X10392500Y-17737214D02*
X10421071Y-17737214D01*
X10449643Y-17751500D01*
X10463928Y-17765786D01*
X10478214Y-17794357D01*
X10492500Y-17851500D01*
X10492500Y-17922929D01*
X10478214Y-17980072D01*
X10463928Y-18008643D01*
X10449643Y-18022929D01*
X10421071Y-18037214D01*
X10392500Y-18037214D01*
X10363928Y-18022929D01*
X10349643Y-18008643D01*
X10335357Y-17980072D01*
X10321071Y-17922929D01*
X10321071Y-17851500D01*
X10335357Y-17794357D01*
X10349643Y-17765786D01*
X10363928Y-17751500D01*
X10392500Y-17737214D01*
X10621071Y-18008643D02*
X10635357Y-18022929D01*
X10621071Y-18037214D01*
X10606786Y-18022929D01*
X10621071Y-18008643D01*
X10621071Y-18037214D01*
X10821071Y-17737214D02*
X10849643Y-17737214D01*
X10878214Y-17751500D01*
X10892500Y-17765786D01*
X10906786Y-17794357D01*
X10921071Y-17851500D01*
X10921071Y-17922929D01*
X10906786Y-17980072D01*
X10892500Y-18008643D01*
X10878214Y-18022929D01*
X10849643Y-18037214D01*
X10821071Y-18037214D01*
X10792500Y-18022929D01*
X10778214Y-18008643D01*
X10763928Y-17980072D01*
X10749643Y-17922929D01*
X10749643Y-17851500D01*
X10763928Y-17794357D01*
X10778214Y-17765786D01*
X10792500Y-17751500D01*
X10821071Y-17737214D01*
X11021071Y-17737214D02*
X11221071Y-17737214D01*
X11092500Y-18037214D01*
X11349643Y-18037214D02*
X11406785Y-18037214D01*
X11435357Y-18022929D01*
X11449643Y-18008643D01*
X11478214Y-17965786D01*
X11492500Y-17908643D01*
X11492500Y-17794357D01*
X11478214Y-17765786D01*
X11463928Y-17751500D01*
X11435357Y-17737214D01*
X11378214Y-17737214D01*
X11349643Y-17751500D01*
X11335357Y-17765786D01*
X11321071Y-17794357D01*
X11321071Y-17865786D01*
X11335357Y-17894357D01*
X11349643Y-17908643D01*
X11378214Y-17922929D01*
X11435357Y-17922929D01*
X11463928Y-17908643D01*
X11478214Y-17894357D01*
X11492500Y-17865786D01*
X11606786Y-17737214D02*
X11606786Y-17794357D01*
X11721071Y-17737214D02*
X11721071Y-17794357D01*
X12163928Y-18151500D02*
X12149643Y-18137214D01*
X12121071Y-18094357D01*
X12106785Y-18065786D01*
X12092500Y-18022929D01*
X12078214Y-17951500D01*
X12078214Y-17894357D01*
X12092500Y-17822929D01*
X12106785Y-17780072D01*
X12121071Y-17751500D01*
X12149643Y-17708643D01*
X12163928Y-17694357D01*
X12249643Y-17737214D02*
X12435357Y-17737214D01*
X12335357Y-17851500D01*
X12378214Y-17851500D01*
X12406785Y-17865786D01*
X12421071Y-17880072D01*
X12435357Y-17908643D01*
X12435357Y-17980072D01*
X12421071Y-18008643D01*
X12406785Y-18022929D01*
X12378214Y-18037214D01*
X12292500Y-18037214D01*
X12263928Y-18022929D01*
X12249643Y-18008643D01*
X12792500Y-18037214D02*
X12792500Y-17737214D01*
X12921071Y-18037214D02*
X12921071Y-17880072D01*
X12906785Y-17851500D01*
X12878214Y-17837214D01*
X12835357Y-17837214D01*
X12806785Y-17851500D01*
X12792500Y-17865786D01*
X13106785Y-18037214D02*
X13078214Y-18022929D01*
X13063928Y-18008643D01*
X13049643Y-17980072D01*
X13049643Y-17894357D01*
X13063928Y-17865786D01*
X13078214Y-17851500D01*
X13106785Y-17837214D01*
X13149643Y-17837214D01*
X13178214Y-17851500D01*
X13192500Y-17865786D01*
X13206785Y-17894357D01*
X13206785Y-17980072D01*
X13192500Y-18008643D01*
X13178214Y-18022929D01*
X13149643Y-18037214D01*
X13106785Y-18037214D01*
X13378214Y-18037214D02*
X13349643Y-18022929D01*
X13335357Y-17994357D01*
X13335357Y-17737214D01*
X13606786Y-18022929D02*
X13578214Y-18037214D01*
X13521071Y-18037214D01*
X13492500Y-18022929D01*
X13478214Y-17994357D01*
X13478214Y-17880072D01*
X13492500Y-17851500D01*
X13521071Y-17837214D01*
X13578214Y-17837214D01*
X13606786Y-17851500D01*
X13621071Y-17880072D01*
X13621071Y-17908643D01*
X13478214Y-17937214D01*
X13735357Y-18022929D02*
X13763928Y-18037214D01*
X13821071Y-18037214D01*
X13849643Y-18022929D01*
X13863928Y-17994357D01*
X13863928Y-17980072D01*
X13849643Y-17951500D01*
X13821071Y-17937214D01*
X13778214Y-17937214D01*
X13749643Y-17922929D01*
X13735357Y-17894357D01*
X13735357Y-17880072D01*
X13749643Y-17851500D01*
X13778214Y-17837214D01*
X13821071Y-17837214D01*
X13849643Y-17851500D01*
X13963928Y-18151500D02*
X13978214Y-18137214D01*
X14006786Y-18094357D01*
X14021071Y-18065786D01*
X14035357Y-18022929D01*
X14049643Y-17951500D01*
X14049643Y-17894357D01*
X14035357Y-17822929D01*
X14021071Y-17780072D01*
X14006786Y-17751500D01*
X13978214Y-17708643D01*
X13963928Y-17694357D01*
X7152500Y-18127500D02*
X7492500Y-18467500D01*
X7492500Y-18127500D02*
X7152500Y-18467500D01*
X7492500Y-18297500D02*
G75*
G03X7492500Y-18297500I-170000J0D01*
G01*
X7735357Y-18133214D02*
X7921071Y-18133214D01*
X7821071Y-18247500D01*
X7863928Y-18247500D01*
X7892500Y-18261786D01*
X7906786Y-18276072D01*
X7921071Y-18304643D01*
X7921071Y-18376072D01*
X7906786Y-18404643D01*
X7892500Y-18418929D01*
X7863928Y-18433214D01*
X7778214Y-18433214D01*
X7749643Y-18418929D01*
X7735357Y-18404643D01*
X8049643Y-18404643D02*
X8063928Y-18418929D01*
X8049643Y-18433214D01*
X8035357Y-18418929D01*
X8049643Y-18404643D01*
X8049643Y-18433214D01*
X8321071Y-18233214D02*
X8321071Y-18433214D01*
X8249643Y-18118929D02*
X8178214Y-18333214D01*
X8363928Y-18333214D01*
X8535357Y-18133214D02*
X8563929Y-18133214D01*
X8592500Y-18147500D01*
X8606786Y-18161786D01*
X8621071Y-18190357D01*
X8635357Y-18247500D01*
X8635357Y-18318929D01*
X8621071Y-18376072D01*
X8606786Y-18404643D01*
X8592500Y-18418929D01*
X8563929Y-18433214D01*
X8535357Y-18433214D01*
X8506786Y-18418929D01*
X8492500Y-18404643D01*
X8478214Y-18376072D01*
X8463929Y-18318929D01*
X8463929Y-18247500D01*
X8478214Y-18190357D01*
X8492500Y-18161786D01*
X8506786Y-18147500D01*
X8535357Y-18133214D01*
X8763929Y-18433214D02*
X8763929Y-18233214D01*
X8763929Y-18261786D02*
X8778214Y-18247500D01*
X8806786Y-18233214D01*
X8849643Y-18233214D01*
X8878214Y-18247500D01*
X8892500Y-18276072D01*
X8892500Y-18433214D01*
X8892500Y-18276072D02*
X8906786Y-18247500D01*
X8935357Y-18233214D01*
X8978214Y-18233214D01*
X9006786Y-18247500D01*
X9021071Y-18276072D01*
X9021071Y-18433214D01*
X9163929Y-18433214D02*
X9163929Y-18233214D01*
X9163929Y-18261786D02*
X9178214Y-18247500D01*
X9206786Y-18233214D01*
X9249643Y-18233214D01*
X9278214Y-18247500D01*
X9292500Y-18276072D01*
X9292500Y-18433214D01*
X9292500Y-18276072D02*
X9306786Y-18247500D01*
X9335357Y-18233214D01*
X9378214Y-18233214D01*
X9406786Y-18247500D01*
X9421071Y-18276072D01*
X9421071Y-18433214D01*
X10006786Y-18118929D02*
X9749643Y-18504643D01*
X10392500Y-18133214D02*
X10421071Y-18133214D01*
X10449643Y-18147500D01*
X10463928Y-18161786D01*
X10478214Y-18190357D01*
X10492500Y-18247500D01*
X10492500Y-18318929D01*
X10478214Y-18376072D01*
X10463928Y-18404643D01*
X10449643Y-18418929D01*
X10421071Y-18433214D01*
X10392500Y-18433214D01*
X10363928Y-18418929D01*
X10349643Y-18404643D01*
X10335357Y-18376072D01*
X10321071Y-18318929D01*
X10321071Y-18247500D01*
X10335357Y-18190357D01*
X10349643Y-18161786D01*
X10363928Y-18147500D01*
X10392500Y-18133214D01*
X10621071Y-18404643D02*
X10635357Y-18418929D01*
X10621071Y-18433214D01*
X10606786Y-18418929D01*
X10621071Y-18404643D01*
X10621071Y-18433214D01*
X10921071Y-18433214D02*
X10749643Y-18433214D01*
X10835357Y-18433214D02*
X10835357Y-18133214D01*
X10806786Y-18176072D01*
X10778214Y-18204643D01*
X10749643Y-18218929D01*
X11021071Y-18133214D02*
X11206785Y-18133214D01*
X11106786Y-18247500D01*
X11149643Y-18247500D01*
X11178214Y-18261786D01*
X11192500Y-18276072D01*
X11206785Y-18304643D01*
X11206785Y-18376072D01*
X11192500Y-18404643D01*
X11178214Y-18418929D01*
X11149643Y-18433214D01*
X11063928Y-18433214D01*
X11035357Y-18418929D01*
X11021071Y-18404643D01*
X11463928Y-18233214D02*
X11463928Y-18433214D01*
X11392500Y-18118929D02*
X11321071Y-18333214D01*
X11506785Y-18333214D01*
X11606786Y-18133214D02*
X11606786Y-18190357D01*
X11721071Y-18133214D02*
X11721071Y-18190357D01*
X12163928Y-18547500D02*
X12149643Y-18533214D01*
X12121071Y-18490357D01*
X12106785Y-18461786D01*
X12092500Y-18418929D01*
X12078214Y-18347500D01*
X12078214Y-18290357D01*
X12092500Y-18218929D01*
X12106785Y-18176072D01*
X12121071Y-18147500D01*
X12149643Y-18104643D01*
X12163928Y-18090357D01*
X12435357Y-18433214D02*
X12263928Y-18433214D01*
X12349643Y-18433214D02*
X12349643Y-18133214D01*
X12321071Y-18176072D01*
X12292500Y-18204643D01*
X12263928Y-18218929D01*
X12621071Y-18133214D02*
X12649643Y-18133214D01*
X12678214Y-18147500D01*
X12692500Y-18161786D01*
X12706785Y-18190357D01*
X12721071Y-18247500D01*
X12721071Y-18318929D01*
X12706785Y-18376072D01*
X12692500Y-18404643D01*
X12678214Y-18418929D01*
X12649643Y-18433214D01*
X12621071Y-18433214D01*
X12592500Y-18418929D01*
X12578214Y-18404643D01*
X12563928Y-18376072D01*
X12549643Y-18318929D01*
X12549643Y-18247500D01*
X12563928Y-18190357D01*
X12578214Y-18161786D01*
X12592500Y-18147500D01*
X12621071Y-18133214D01*
X13078214Y-18433214D02*
X13078214Y-18133214D01*
X13206785Y-18433214D02*
X13206785Y-18276072D01*
X13192500Y-18247500D01*
X13163928Y-18233214D01*
X13121071Y-18233214D01*
X13092500Y-18247500D01*
X13078214Y-18261786D01*
X13392500Y-18433214D02*
X13363928Y-18418929D01*
X13349643Y-18404643D01*
X13335357Y-18376072D01*
X13335357Y-18290357D01*
X13349643Y-18261786D01*
X13363928Y-18247500D01*
X13392500Y-18233214D01*
X13435357Y-18233214D01*
X13463928Y-18247500D01*
X13478214Y-18261786D01*
X13492500Y-18290357D01*
X13492500Y-18376072D01*
X13478214Y-18404643D01*
X13463928Y-18418929D01*
X13435357Y-18433214D01*
X13392500Y-18433214D01*
X13663928Y-18433214D02*
X13635357Y-18418929D01*
X13621071Y-18390357D01*
X13621071Y-18133214D01*
X13892500Y-18418929D02*
X13863928Y-18433214D01*
X13806786Y-18433214D01*
X13778214Y-18418929D01*
X13763928Y-18390357D01*
X13763928Y-18276072D01*
X13778214Y-18247500D01*
X13806786Y-18233214D01*
X13863928Y-18233214D01*
X13892500Y-18247500D01*
X13906786Y-18276072D01*
X13906786Y-18304643D01*
X13763928Y-18333214D01*
X14021071Y-18418929D02*
X14049643Y-18433214D01*
X14106786Y-18433214D01*
X14135357Y-18418929D01*
X14149643Y-18390357D01*
X14149643Y-18376072D01*
X14135357Y-18347500D01*
X14106786Y-18333214D01*
X14063928Y-18333214D01*
X14035357Y-18318929D01*
X14021071Y-18290357D01*
X14021071Y-18276072D01*
X14035357Y-18247500D01*
X14063928Y-18233214D01*
X14106786Y-18233214D01*
X14135357Y-18247500D01*
X14249643Y-18547500D02*
X14263928Y-18533214D01*
X14292500Y-18490357D01*
X14306786Y-18461786D01*
X14321071Y-18418929D01*
X14335357Y-18347500D01*
X14335357Y-18290357D01*
X14321071Y-18218929D01*
X14306786Y-18176072D01*
X14292500Y-18147500D01*
X14263928Y-18104643D01*
X14249643Y-18090357D01*
M02*
