M48
;DRILL file {KiCad 4.0.5} date Tue Mar 21 18:47:23 2017
;FORMAT={-:-/ absolute / inch / decimal}
FMAT,2
INCH,TZ
T1C0.016
T2C0.020
T3C0.022
T4C0.031
T5C0.040
%
G90
G05
M72
T1
X3.6673Y-4.3996
X3.6732Y-1.5315
X3.9173Y-4.874
X4.1083Y-3.4173
X4.2697Y-3.9803
X4.2913Y-4.1634
X4.3524Y-4.4134
X4.4272Y-4.5906
X4.4685Y-3.3268
X4.5098Y-4.4134
X4.8878Y-3.315
X4.9783Y-1.5551
X5.0886Y-4.7441
X5.1122Y-4.1713
X5.248Y-4.5315
X5.2933Y-3.9744
X5.3071Y-4.2244
X5.3307Y-4.
X5.563Y-4.6457
X5.6654Y-4.1929
X5.7874Y-4.1516
X5.7894Y-4.4685
T4
X3.6457Y-4.1791
X3.6457Y-4.2776
T5
X3.5354Y-2.9083
X3.5354Y-3.0083
X3.5354Y-3.1083
X3.5354Y-3.4433
X3.5354Y-3.5433
X3.5354Y-3.6433
X3.5374Y-1.6441
X3.5374Y-1.7441
X3.5374Y-1.8441
X3.5374Y-1.9441
X3.5811Y-4.8228
X3.6811Y-4.8228
X3.9Y-1.9433
X3.9Y-2.0433
X3.9Y-2.1433
X3.9Y-2.2433
X3.9Y-2.3433
X3.9Y-2.4433
X3.9Y-2.5433
X3.9Y-2.6433
X3.9Y-2.7433
X3.9Y-2.8433
X3.9Y-2.9433
X3.9Y-3.0433
X3.9Y-3.1433
X3.9Y-3.2433
X3.9Y-3.3433
X3.9Y-3.4433
X3.9Y-3.5433
X3.9Y-3.6433
X3.9Y-3.7433
X3.9Y-3.8433
X3.9Y-3.9433
X3.9Y-4.0433
X3.9Y-4.1433
X3.9Y-4.2433
X3.9Y-4.3433
X4.Y-1.9433
X4.Y-2.0433
X4.Y-2.1433
X4.Y-2.2433
X4.Y-2.3433
X4.Y-2.4433
X4.Y-2.5433
X4.Y-2.6433
X4.Y-2.7433
X4.Y-2.8433
X4.Y-2.9433
X4.Y-3.0433
X4.Y-3.1433
X4.Y-3.2433
X4.Y-3.3433
X4.Y-3.4433
X4.Y-3.5433
X4.Y-3.6433
X4.Y-3.7433
X4.Y-3.8433
X4.Y-3.9433
X4.Y-4.0433
X4.Y-4.1433
X4.Y-4.2433
X4.Y-4.3433
X4.1732Y-4.8307
X4.2732Y-4.8307
X4.5713Y-4.8406
X4.6713Y-4.8406
X4.8409Y-1.6732
X4.9409Y-1.6732
X5.0409Y-1.6732
X5.1409Y-1.6732
X5.9Y-1.9307
X5.9Y-2.0307
X5.9Y-2.1307
X5.9Y-2.2307
X5.9Y-2.3307
X5.9Y-2.4307
X5.9Y-2.5307
X5.9Y-2.6307
X5.9Y-2.7307
X5.9Y-2.8307
X5.9Y-2.9307
X5.9Y-3.0307
X5.9Y-3.1307
X5.9Y-3.2307
X5.9Y-3.3307
X5.9Y-3.4307
X5.9Y-3.5307
X5.9Y-3.6307
X5.9Y-3.7307
X5.9Y-3.8307
X5.9Y-3.9307
X5.9Y-4.0307
X5.9Y-4.1307
X5.9Y-4.2307
X5.9Y-4.3307
X6.Y-1.9307
X6.Y-2.0307
X6.Y-2.1307
X6.Y-2.2307
X6.Y-2.3307
X6.Y-2.4307
X6.Y-2.5307
X6.Y-2.6307
X6.Y-2.7307
X6.Y-2.8307
X6.Y-2.9307
X6.Y-3.0307
X6.Y-3.1307
X6.Y-3.2307
X6.Y-3.3307
X6.Y-3.4307
X6.Y-3.5307
X6.Y-3.6307
X6.Y-3.7307
X6.Y-3.8307
X6.Y-3.9307
X6.Y-4.0307
X6.Y-4.1307
X6.Y-4.2307
X6.Y-4.3307
X6.311Y-1.6268
X6.311Y-1.7268
X6.311Y-1.8268
X6.311Y-1.9268
T2
X5.374Y-4.841G85X5.374Y-4.8155
G05
X5.6496Y-4.841G85X5.6496Y-4.8155
G05
T3
X5.4074Y-4.7219G85X5.4193Y-4.7219
G05
X5.6043Y-4.7219G85X5.6161Y-4.7219
G05
T0
M30
