G04 #@! TF.FileFunction,Copper,L1,Top,Signal*
%FSLAX46Y46*%
G04 Gerber Fmt 4.6, Leading zero omitted, Abs format (unit mm)*
G04 Created by KiCad (PCBNEW 4.0.5) date Thu Apr  6 07:48:33 2017*
%MOMM*%
%LPD*%
G01*
G04 APERTURE LIST*
%ADD10C,0.100000*%
%ADD11R,1.727200X1.727200*%
%ADD12O,1.727200X1.727200*%
%ADD13R,2.000000X1.600000*%
%ADD14R,1.200000X0.750000*%
%ADD15R,0.750000X1.200000*%
%ADD16C,1.300000*%
%ADD17R,1.300000X1.300000*%
%ADD18R,1.500000X1.250000*%
%ADD19R,0.400000X1.350000*%
%ADD20O,1.250000X0.950000*%
%ADD21O,1.000000X1.550000*%
%ADD22R,2.032000X1.727200*%
%ADD23O,2.032000X1.727200*%
%ADD24R,1.727200X2.032000*%
%ADD25O,1.727200X2.032000*%
%ADD26R,2.032000X2.032000*%
%ADD27O,2.032000X2.032000*%
%ADD28R,1.200000X0.900000*%
%ADD29R,0.900000X1.200000*%
%ADD30R,0.300000X1.650000*%
%ADD31R,1.980000X1.730000*%
%ADD32R,1.700000X0.350000*%
%ADD33R,1.651000X3.048000*%
%ADD34R,6.096000X6.096000*%
%ADD35C,4.000000*%
%ADD36C,0.700000*%
%ADD37C,0.500000*%
%ADD38C,0.280000*%
%ADD39C,0.250000*%
%ADD40C,0.400000*%
%ADD41C,0.254000*%
G04 APERTURE END LIST*
D10*
D11*
X101600000Y-110320000D03*
D12*
X99060000Y-110320000D03*
X101600000Y-107780000D03*
X99060000Y-107780000D03*
X101600000Y-105240000D03*
X99060000Y-105240000D03*
X101600000Y-102700000D03*
X99060000Y-102700000D03*
X101600000Y-100160000D03*
X99060000Y-100160000D03*
X101600000Y-97620000D03*
X99060000Y-97620000D03*
X101600000Y-95080000D03*
X99060000Y-95080000D03*
X101600000Y-92540000D03*
X99060000Y-92540000D03*
X101600000Y-90000000D03*
X99060000Y-90000000D03*
X101600000Y-87460000D03*
X99060000Y-87460000D03*
X101600000Y-84920000D03*
X99060000Y-84920000D03*
X101600000Y-82380000D03*
X99060000Y-82380000D03*
X101600000Y-79840000D03*
X99060000Y-79840000D03*
X101600000Y-77300000D03*
X99060000Y-77300000D03*
X101600000Y-74760000D03*
X99060000Y-74760000D03*
X101600000Y-72220000D03*
X99060000Y-72220000D03*
X101600000Y-69680000D03*
X99060000Y-69680000D03*
X101600000Y-67140000D03*
X99060000Y-67140000D03*
X101600000Y-64600000D03*
X99060000Y-64600000D03*
X101600000Y-62060000D03*
X99060000Y-62060000D03*
X101600000Y-59520000D03*
X99060000Y-59520000D03*
X101600000Y-56980000D03*
X99060000Y-56980000D03*
X101600000Y-54440000D03*
X99060000Y-54440000D03*
X101600000Y-51900000D03*
X99060000Y-51900000D03*
X101600000Y-49360000D03*
X99060000Y-49360000D03*
D13*
X112450000Y-106700000D03*
X108450000Y-106700000D03*
D14*
X112450000Y-109450000D03*
X114350000Y-109450000D03*
X132450000Y-120500000D03*
X130550000Y-120500000D03*
X133050000Y-106900000D03*
X131150000Y-106900000D03*
X143500000Y-113500000D03*
X145400000Y-113500000D03*
X135200000Y-113750000D03*
X133300000Y-113750000D03*
D15*
X145700000Y-107350000D03*
X145700000Y-105450000D03*
X133100000Y-102850000D03*
X133100000Y-100950000D03*
D14*
X133150000Y-105000000D03*
X131250000Y-105000000D03*
X89050000Y-107700000D03*
X90950000Y-107700000D03*
D16*
X90950000Y-114350000D03*
D17*
X90950000Y-111850000D03*
D15*
X155050000Y-43250000D03*
X155050000Y-41350000D03*
D14*
X130350000Y-39500000D03*
X128450000Y-39500000D03*
X89850000Y-38900000D03*
X91750000Y-38900000D03*
D18*
X133500000Y-117250000D03*
X136000000Y-117250000D03*
D19*
X138699100Y-119937460D03*
X139349100Y-119937460D03*
X139999100Y-119937460D03*
X140649100Y-119937460D03*
X141299100Y-119937460D03*
D20*
X137499100Y-119937460D03*
X142499100Y-119937460D03*
D21*
X136499100Y-122637460D03*
X143499100Y-122637460D03*
D11*
X152400000Y-110000000D03*
D12*
X149860000Y-110000000D03*
X152400000Y-107460000D03*
X149860000Y-107460000D03*
X152400000Y-104920000D03*
X149860000Y-104920000D03*
X152400000Y-102380000D03*
X149860000Y-102380000D03*
X152400000Y-99840000D03*
X149860000Y-99840000D03*
X152400000Y-97300000D03*
X149860000Y-97300000D03*
X152400000Y-94760000D03*
X149860000Y-94760000D03*
X152400000Y-92220000D03*
X149860000Y-92220000D03*
X152400000Y-89680000D03*
X149860000Y-89680000D03*
X152400000Y-87140000D03*
X149860000Y-87140000D03*
X152400000Y-84600000D03*
X149860000Y-84600000D03*
X152400000Y-82060000D03*
X149860000Y-82060000D03*
X152400000Y-79520000D03*
X149860000Y-79520000D03*
X152400000Y-76980000D03*
X149860000Y-76980000D03*
X152400000Y-74440000D03*
X149860000Y-74440000D03*
X152400000Y-71900000D03*
X149860000Y-71900000D03*
X152400000Y-69360000D03*
X149860000Y-69360000D03*
X152400000Y-66820000D03*
X149860000Y-66820000D03*
X152400000Y-64280000D03*
X149860000Y-64280000D03*
X152400000Y-61740000D03*
X149860000Y-61740000D03*
X152400000Y-59200000D03*
X149860000Y-59200000D03*
X152400000Y-56660000D03*
X149860000Y-56660000D03*
X152400000Y-54120000D03*
X149860000Y-54120000D03*
X152400000Y-51580000D03*
X149860000Y-51580000D03*
X152400000Y-49040000D03*
X149860000Y-49040000D03*
D22*
X160300000Y-41320000D03*
D23*
X160300000Y-43860000D03*
X160300000Y-46400000D03*
X160300000Y-48940000D03*
D24*
X122960000Y-42500000D03*
D25*
X125500000Y-42500000D03*
X128040000Y-42500000D03*
X130580000Y-42500000D03*
D22*
X89850000Y-49380000D03*
D23*
X89850000Y-46840000D03*
X89850000Y-44300000D03*
X89850000Y-41760000D03*
D26*
X119900000Y-118000000D03*
D27*
X122440000Y-118000000D03*
D26*
X102800000Y-118000000D03*
D27*
X105340000Y-118000000D03*
D22*
X160300000Y-105310000D03*
D23*
X160300000Y-107850000D03*
X160300000Y-110390000D03*
D22*
X160300000Y-94760000D03*
D23*
X160300000Y-97300000D03*
X160300000Y-99840000D03*
D28*
X107795000Y-98669000D03*
X105595000Y-98669000D03*
X112595000Y-98569000D03*
X114795000Y-98569000D03*
X116545000Y-103819000D03*
X114345000Y-103819000D03*
X118845000Y-113169000D03*
X121045000Y-113169000D03*
D29*
X138250000Y-113650000D03*
X138250000Y-115850000D03*
X140950000Y-113650000D03*
X140950000Y-115850000D03*
D30*
X113450000Y-113950000D03*
X112950000Y-113950000D03*
X112450000Y-113950000D03*
X111950000Y-113950000D03*
X111450000Y-113950000D03*
X111450000Y-118550000D03*
X111950000Y-118550000D03*
X112450000Y-118550000D03*
X112950000Y-118550000D03*
X113450000Y-118550000D03*
D31*
X112450000Y-116250000D03*
D32*
X141950000Y-108607500D03*
X141950000Y-107972500D03*
X141950000Y-107337500D03*
X141950000Y-106702500D03*
X141950000Y-106067500D03*
X141950000Y-105432500D03*
X141950000Y-104797500D03*
X141950000Y-104162500D03*
X141950000Y-103527500D03*
X141950000Y-102892500D03*
X136550000Y-102892500D03*
X136550000Y-103527500D03*
X136550000Y-104162500D03*
X136550000Y-104797500D03*
X136550000Y-105432500D03*
X136550000Y-106067500D03*
X136550000Y-106702500D03*
X136550000Y-107337500D03*
X136550000Y-107972500D03*
X136550000Y-108607500D03*
D33*
X89014000Y-104500000D03*
D34*
X91300000Y-98150000D03*
D33*
X93586000Y-104500000D03*
D26*
X93500000Y-122500000D03*
D27*
X90960000Y-122500000D03*
D35*
X109695000Y-50169000D03*
X139995000Y-50169000D03*
X139995000Y-74479000D03*
X109695000Y-74479000D03*
D36*
X112545000Y-103819000D03*
X122445000Y-113169000D03*
X114795000Y-100269000D03*
X105595000Y-100469000D03*
X108450000Y-104950000D03*
X115650000Y-109450000D03*
X112450000Y-120450000D03*
X114550000Y-116250000D03*
X110500000Y-116250000D03*
X129600000Y-105000000D03*
X129600000Y-106900000D03*
X95300000Y-98150000D03*
X90950000Y-106250000D03*
X126450000Y-39500000D03*
X93300000Y-38900000D03*
X134450000Y-100950000D03*
X141300000Y-118000000D03*
X129250000Y-120500000D03*
X147050000Y-113500000D03*
X133300000Y-115100000D03*
X147000000Y-105450000D03*
X134800000Y-107300000D03*
X135400000Y-101600000D03*
X143900000Y-106500000D03*
X126950000Y-96600000D03*
X128600000Y-97600000D03*
X104700000Y-62050000D03*
X137100000Y-45600000D03*
X104950000Y-40950000D03*
X106595000Y-108269000D03*
X109495000Y-109519000D03*
X105645000Y-108269000D03*
X108995000Y-110319000D03*
D37*
X109000000Y-108700000D02*
X107814000Y-108700000D01*
X107814000Y-108700000D02*
X105495000Y-111019000D01*
X105495000Y-112269000D02*
X104045000Y-113719000D01*
X105495000Y-111019000D02*
X105495000Y-112269000D01*
X104045000Y-113719000D02*
X97545000Y-113719000D01*
X97545000Y-113719000D02*
X90960000Y-120304000D01*
X90960000Y-120304000D02*
X90960000Y-122500000D01*
X112450000Y-107750000D02*
X112450000Y-108300000D01*
X112450000Y-108300000D02*
X112450000Y-109450000D01*
X110450000Y-108700000D02*
X110850000Y-108300000D01*
X110850000Y-108300000D02*
X112450000Y-108300000D01*
X109000000Y-108700000D02*
X110450000Y-108700000D01*
D38*
X112450000Y-109450000D02*
X112450000Y-110075000D01*
X112450000Y-110075000D02*
X112450000Y-113950000D01*
D37*
X112450000Y-106700000D02*
X112450000Y-107750000D01*
X89050000Y-107700000D02*
X89050000Y-104536000D01*
D39*
X89050000Y-104536000D02*
X89014000Y-104500000D01*
D37*
X89050000Y-119900000D02*
X89050000Y-107700000D01*
X90960000Y-122500000D02*
X89523160Y-122500000D01*
X89523160Y-122500000D02*
X89050000Y-122026840D01*
X89050000Y-122026840D02*
X89050000Y-119900000D01*
D39*
X113495000Y-103819000D02*
X112545000Y-103819000D01*
X114345000Y-103819000D02*
X113495000Y-103819000D01*
X121045000Y-113169000D02*
X122445000Y-113169000D01*
X114795000Y-99269000D02*
X114795000Y-100269000D01*
X114795000Y-98569000D02*
X114795000Y-99269000D01*
X105595000Y-99369000D02*
X105595000Y-100469000D01*
X105595000Y-98669000D02*
X105595000Y-99369000D01*
D37*
X108450000Y-105650000D02*
X108450000Y-104950000D01*
X108450000Y-106700000D02*
X108450000Y-105650000D01*
X114350000Y-109450000D02*
X115650000Y-109450000D01*
D39*
X112450000Y-119625000D02*
X112450000Y-120450000D01*
X112450000Y-118550000D02*
X112450000Y-119625000D01*
X113690000Y-116250000D02*
X114550000Y-116250000D01*
X112450000Y-116250000D02*
X113690000Y-116250000D01*
X112450000Y-116250000D02*
X110500000Y-116250000D01*
X130400000Y-105000000D02*
X129600000Y-105000000D01*
X131250000Y-105000000D02*
X130400000Y-105000000D01*
X130300000Y-106900000D02*
X129600000Y-106900000D01*
X131150000Y-106900000D02*
X130300000Y-106900000D01*
X91300000Y-98150000D02*
X95300000Y-98150000D01*
X90950000Y-107075000D02*
X90950000Y-106250000D01*
X90950000Y-107700000D02*
X90950000Y-107075000D01*
X128450000Y-39500000D02*
X126450000Y-39500000D01*
X91750000Y-38900000D02*
X93300000Y-38900000D01*
X159120000Y-41350000D02*
X160270000Y-41350000D01*
X160270000Y-41350000D02*
X160300000Y-41320000D01*
X133725000Y-100950000D02*
X134450000Y-100950000D01*
X133100000Y-100950000D02*
X133725000Y-100950000D01*
X141300000Y-119011560D02*
X141300000Y-118000000D01*
X141299100Y-119937460D02*
X141299100Y-119012460D01*
X141299100Y-119012460D02*
X141300000Y-119011560D01*
X130550000Y-120500000D02*
X129250000Y-120500000D01*
X146250000Y-113500000D02*
X147050000Y-113500000D01*
X145400000Y-113500000D02*
X146250000Y-113500000D01*
X133300000Y-114375000D02*
X133300000Y-115100000D01*
X133300000Y-113750000D02*
X133300000Y-114375000D01*
X146325000Y-105450000D02*
X147000000Y-105450000D01*
X145700000Y-105450000D02*
X146325000Y-105450000D01*
X134800000Y-106717500D02*
X134800000Y-107300000D01*
X136550000Y-106067500D02*
X135450000Y-106067500D01*
X135450000Y-106067500D02*
X134800000Y-106717500D01*
X155050000Y-41350000D02*
X159120000Y-41350000D01*
X131250000Y-106800000D02*
X131150000Y-106900000D01*
X141950000Y-105432500D02*
X145682500Y-105432500D01*
X145682500Y-105432500D02*
X145700000Y-105450000D01*
D40*
X114400000Y-118550000D02*
X116200000Y-118550000D01*
D39*
X113450000Y-118550000D02*
X114400000Y-118550000D01*
D40*
X116200000Y-118550000D02*
X116750000Y-118000000D01*
X116750000Y-118000000D02*
X119900000Y-118000000D01*
X114350000Y-119850000D02*
X122200000Y-119850000D01*
D39*
X112950000Y-119850000D02*
X114350000Y-119850000D01*
D40*
X122200000Y-119850000D02*
X122440000Y-119610000D01*
X122440000Y-119610000D02*
X122440000Y-118000000D01*
D39*
X112950000Y-118550000D02*
X112950000Y-119850000D01*
D40*
X110600000Y-119750000D02*
X103200000Y-119750000D01*
D39*
X111950000Y-119750000D02*
X110600000Y-119750000D01*
D40*
X103200000Y-119750000D02*
X102800000Y-119350000D01*
X102800000Y-119350000D02*
X102800000Y-118000000D01*
D39*
X111950000Y-119750000D02*
X111950000Y-118550000D01*
D40*
X110650000Y-118550000D02*
X108650000Y-118550000D01*
D39*
X111450000Y-118550000D02*
X110650000Y-118550000D01*
D40*
X108650000Y-118550000D02*
X108100000Y-118000000D01*
X108100000Y-118000000D02*
X105340000Y-118000000D01*
D39*
X135850000Y-118550000D02*
X136000000Y-118400000D01*
X136000000Y-118400000D02*
X136000000Y-117250000D01*
X135250000Y-118550000D02*
X135850000Y-118550000D01*
X132450000Y-120500000D02*
X133300000Y-120500000D01*
X133300000Y-120500000D02*
X135250000Y-118550000D01*
X138000000Y-117800000D02*
X138699100Y-118499100D01*
X138699100Y-118499100D02*
X138699100Y-119937460D01*
X137550000Y-117800000D02*
X138000000Y-117800000D01*
X136000000Y-117250000D02*
X137000000Y-117250000D01*
X137000000Y-117250000D02*
X137550000Y-117800000D01*
X136550000Y-105432500D02*
X137682500Y-105432500D01*
X137682500Y-105432500D02*
X138150000Y-105900000D01*
X131250000Y-113250000D02*
X131250000Y-116800000D01*
X138150000Y-105900000D02*
X138150000Y-110150000D01*
X131250000Y-116800000D02*
X131700000Y-117250000D01*
X138150000Y-110150000D02*
X136100000Y-112200000D01*
X136100000Y-112200000D02*
X132300000Y-112200000D01*
X132300000Y-112200000D02*
X131250000Y-113250000D01*
X131700000Y-117250000D02*
X133500000Y-117250000D01*
X133050000Y-106900000D02*
X133900000Y-106900000D01*
X133900000Y-106900000D02*
X135367500Y-105432500D01*
X135367500Y-105432500D02*
X136550000Y-105432500D01*
X139800000Y-103750000D02*
X138942500Y-102892500D01*
X138942500Y-102892500D02*
X136550000Y-102892500D01*
X139800000Y-113200000D02*
X139800000Y-103750000D01*
X140250000Y-113650000D02*
X139800000Y-113200000D01*
X140950000Y-113650000D02*
X140250000Y-113650000D01*
X140950000Y-113650000D02*
X143350000Y-113650000D01*
X143350000Y-113650000D02*
X143500000Y-113500000D01*
X139200000Y-103950000D02*
X138777500Y-103527500D01*
X138777500Y-103527500D02*
X136550000Y-103527500D01*
X139200000Y-113400000D02*
X139200000Y-103950000D01*
X138250000Y-113650000D02*
X138950000Y-113650000D01*
X138950000Y-113650000D02*
X139200000Y-113400000D01*
X135200000Y-113750000D02*
X138150000Y-113750000D01*
X138150000Y-113750000D02*
X138250000Y-113650000D01*
X133725000Y-102850000D02*
X134450000Y-103575000D01*
X134450000Y-103575000D02*
X135037500Y-104162500D01*
X134900000Y-102100000D02*
X134900000Y-103125000D01*
X134900000Y-103125000D02*
X134450000Y-103575000D01*
X135400000Y-101600000D02*
X134900000Y-102100000D01*
X143900000Y-107350000D02*
X141962500Y-107350000D01*
X145700000Y-107350000D02*
X143900000Y-107350000D01*
X143900000Y-107350000D02*
X143900000Y-106500000D01*
X134650000Y-104797500D02*
X136550000Y-104797500D01*
X133150000Y-105000000D02*
X134447500Y-105000000D01*
X134447500Y-105000000D02*
X134650000Y-104797500D01*
X136550000Y-104162500D02*
X136550000Y-104797500D01*
X133100000Y-102850000D02*
X133725000Y-102850000D01*
X135037500Y-104162500D02*
X136550000Y-104162500D01*
X141962500Y-107350000D02*
X141950000Y-107337500D01*
X89850000Y-41760000D02*
X89850000Y-40646400D01*
X89850000Y-40646400D02*
X89850000Y-38900000D01*
X130350000Y-42270000D02*
X130580000Y-42500000D01*
X89840000Y-41750000D02*
X89850000Y-41760000D01*
X139349100Y-119937460D02*
X139349100Y-119012460D01*
X139349100Y-119012460D02*
X139350000Y-119011560D01*
X139350000Y-118550000D02*
X139250000Y-118450000D01*
X139350000Y-119011560D02*
X139350000Y-118550000D01*
X139250000Y-118450000D02*
X139250000Y-116150000D01*
X139250000Y-116150000D02*
X138950000Y-115850000D01*
X138950000Y-115850000D02*
X138250000Y-115850000D01*
X139999100Y-119937460D02*
X139999100Y-116100900D01*
X139999100Y-116100900D02*
X140250000Y-115850000D01*
X140250000Y-115850000D02*
X140950000Y-115850000D01*
X136550000Y-108607500D02*
X128650000Y-108607500D01*
X127900000Y-98044974D02*
X127900000Y-107857500D01*
X127900000Y-107857500D02*
X128650000Y-108607500D01*
X126950000Y-96600000D02*
X126950000Y-97094974D01*
X126950000Y-97094974D02*
X127900000Y-98044974D01*
X128600000Y-98800000D02*
X128600000Y-97600000D01*
X141950000Y-106702500D02*
X140850000Y-106702500D01*
X140850000Y-106702500D02*
X140450000Y-106302500D01*
X140450000Y-106302500D02*
X140450000Y-100550000D01*
X140450000Y-100550000D02*
X139800000Y-99900000D01*
X129700000Y-99900000D02*
X128600000Y-98800000D01*
X139800000Y-99900000D02*
X129700000Y-99900000D01*
X104700000Y-62050000D02*
X104700000Y-47000000D01*
X104700000Y-47000000D02*
X109550000Y-42150000D01*
X109550000Y-42150000D02*
X119900000Y-42150000D01*
X119900000Y-42150000D02*
X121000000Y-43250000D01*
X121000000Y-43250000D02*
X121000000Y-43850000D01*
X121000000Y-43850000D02*
X121700000Y-44550000D01*
X121700000Y-44550000D02*
X123602400Y-44550000D01*
X123602400Y-44550000D02*
X125500000Y-42652400D01*
X125500000Y-42652400D02*
X125500000Y-42500000D01*
X89850000Y-46840000D02*
X95890000Y-46840000D01*
X97050000Y-83850000D02*
X97500000Y-84300000D01*
X95890000Y-46840000D02*
X97450000Y-48400000D01*
X97500000Y-106000000D02*
X98000000Y-106500000D01*
X100320000Y-106500000D02*
X101600000Y-107780000D01*
X97450000Y-48400000D02*
X97450000Y-75600000D01*
X97450000Y-75600000D02*
X96550000Y-76500000D01*
X96550000Y-76500000D02*
X96550000Y-78950000D01*
X97500000Y-84300000D02*
X97500000Y-106000000D01*
X96550000Y-78950000D02*
X97050000Y-79450000D01*
X97050000Y-79450000D02*
X97050000Y-83850000D01*
X98000000Y-106500000D02*
X100320000Y-106500000D01*
X103150000Y-68350000D02*
X100390000Y-68350000D01*
X100390000Y-68350000D02*
X99060000Y-69680000D01*
X103650000Y-67850000D02*
X103150000Y-68350000D01*
X103650000Y-46850000D02*
X103650000Y-67850000D01*
X108900000Y-41600000D02*
X103650000Y-46850000D01*
X127506000Y-40700000D02*
X121150000Y-40700000D01*
X108900000Y-41600000D02*
X120250000Y-41600000D01*
X120250000Y-41600000D02*
X121150000Y-40700000D01*
X128040000Y-42500000D02*
X128040000Y-41234000D01*
X128040000Y-41234000D02*
X127506000Y-40700000D01*
X137100000Y-45600000D02*
X145100000Y-45600000D01*
X145100000Y-45600000D02*
X146500000Y-47000000D01*
X146500000Y-47000000D02*
X147400000Y-47000000D01*
X148350000Y-84450000D02*
X148500000Y-84600000D01*
X147400000Y-47000000D02*
X148350000Y-47950000D01*
X148350000Y-47950000D02*
X148350000Y-84450000D01*
X148500000Y-84600000D02*
X149860000Y-84600000D01*
X104800000Y-40950000D02*
X104950000Y-40950000D01*
X100050000Y-45700000D02*
X104800000Y-40950000D01*
X92516000Y-45700000D02*
X100050000Y-45700000D01*
X89850000Y-44300000D02*
X91116000Y-44300000D01*
X91116000Y-44300000D02*
X92516000Y-45700000D01*
X102890000Y-79840000D02*
X102821314Y-79840000D01*
X105808590Y-93669000D02*
X104649989Y-92510400D01*
X110545000Y-93669000D02*
X105808590Y-93669000D01*
X111245000Y-94369000D02*
X110545000Y-93669000D01*
X111245000Y-96069000D02*
X111245000Y-94369000D01*
X112145000Y-96969000D02*
X111245000Y-96069000D01*
X102821314Y-79840000D02*
X101600000Y-79840000D01*
X115395000Y-96969000D02*
X112145000Y-96969000D01*
X104649989Y-92510400D02*
X104649989Y-81599989D01*
X116545000Y-98119000D02*
X115395000Y-96969000D01*
X104649989Y-81599989D02*
X102890000Y-79840000D01*
X116545000Y-103819000D02*
X116545000Y-98119000D01*
X112950000Y-113950000D02*
X112950000Y-111450000D01*
X112950000Y-111450000D02*
X113800000Y-110600000D01*
X113800000Y-110600000D02*
X115864000Y-110600000D01*
X116545000Y-109919000D02*
X116545000Y-103819000D01*
X115864000Y-110600000D02*
X116545000Y-109919000D01*
X115295000Y-112419000D02*
X116045000Y-113169000D01*
X116045000Y-113169000D02*
X118845000Y-113169000D01*
X115295000Y-111100000D02*
X114250000Y-111100000D01*
X116145000Y-111100000D02*
X115295000Y-111100000D01*
X115295000Y-111100000D02*
X115295000Y-112419000D01*
X105100000Y-92324000D02*
X105100000Y-81000000D01*
X105745000Y-92969000D02*
X105100000Y-92324000D01*
X110895000Y-92969000D02*
X105745000Y-92969000D01*
X111895000Y-93969000D02*
X110895000Y-92969000D01*
X111895000Y-95769000D02*
X111895000Y-93969000D01*
X112445000Y-96319000D02*
X111895000Y-95769000D01*
X115795000Y-96319000D02*
X112445000Y-96319000D01*
X117095000Y-97619000D02*
X115795000Y-96319000D01*
X117095000Y-101369000D02*
X117095000Y-97619000D01*
X117445000Y-101719000D02*
X117095000Y-101369000D01*
X117445000Y-102719000D02*
X117445000Y-101719000D01*
X117945000Y-103219000D02*
X117445000Y-102719000D01*
X117945000Y-104519000D02*
X117945000Y-103219000D01*
X117145000Y-105319000D02*
X117945000Y-104519000D01*
X117145000Y-110319000D02*
X117145000Y-105319000D01*
X116364000Y-111100000D02*
X117145000Y-110319000D01*
X116145000Y-111100000D02*
X116364000Y-111100000D01*
X114250000Y-111100000D02*
X113450000Y-111900000D01*
X113450000Y-111900000D02*
X113450000Y-113950000D01*
X100363599Y-78163599D02*
X99923599Y-78163599D01*
X105100000Y-81000000D02*
X102700000Y-78600000D01*
X102700000Y-78600000D02*
X100800000Y-78600000D01*
X100800000Y-78600000D02*
X100363599Y-78163599D01*
X99923599Y-78163599D02*
X99060000Y-77300000D01*
X106595000Y-108269000D02*
X106595000Y-104305000D01*
X106595000Y-104305000D02*
X107800000Y-103100000D01*
X107800000Y-103100000D02*
X110350000Y-103100000D01*
X110350000Y-103100000D02*
X111150000Y-102300000D01*
X111150000Y-102300000D02*
X111150000Y-98669000D01*
X109800000Y-109600000D02*
X109576000Y-109600000D01*
X109576000Y-109600000D02*
X109495000Y-109519000D01*
X111150000Y-97619000D02*
X111150000Y-98669000D01*
X110095000Y-97319000D02*
X110850000Y-97319000D01*
X110850000Y-97319000D02*
X111150000Y-97619000D01*
X109545000Y-96769000D02*
X110095000Y-97319000D01*
X105195000Y-96769000D02*
X109545000Y-96769000D01*
X104395000Y-95969000D02*
X105195000Y-96769000D01*
X104145000Y-95669000D02*
X104395000Y-95919000D01*
X104395000Y-95919000D02*
X104395000Y-95969000D01*
X111150000Y-98669000D02*
X111250000Y-98569000D01*
X111250000Y-98569000D02*
X112595000Y-98569000D01*
X104145000Y-86219000D02*
X104145000Y-95669000D01*
X103695000Y-85769000D02*
X104145000Y-86219000D01*
X103050000Y-81100000D02*
X103695000Y-81745000D01*
X103695000Y-81745000D02*
X103695000Y-85769000D01*
X101600000Y-74760000D02*
X100310000Y-76050000D01*
X100350000Y-80850000D02*
X100600000Y-81100000D01*
X99900000Y-78650000D02*
X100350000Y-79100000D01*
X100310000Y-76050000D02*
X98550869Y-76050000D01*
X100350000Y-79100000D02*
X100350000Y-80850000D01*
X98550869Y-76050000D02*
X97672802Y-76928067D01*
X98100000Y-78650000D02*
X99900000Y-78650000D01*
X100600000Y-81100000D02*
X103050000Y-81100000D01*
X97672802Y-76928067D02*
X97672802Y-78222802D01*
X111950000Y-111750000D02*
X111950000Y-113950000D01*
X97672802Y-78222802D02*
X98100000Y-78650000D01*
X109800000Y-109600000D02*
X111950000Y-111750000D01*
X105645000Y-108269000D02*
X105645000Y-107705000D01*
X105645000Y-107705000D02*
X105650000Y-107700000D01*
X109750000Y-110300000D02*
X109014000Y-110300000D01*
X109014000Y-110300000D02*
X108995000Y-110319000D01*
X110550000Y-98669000D02*
X110550000Y-97869000D01*
X97100000Y-76864459D02*
X98196401Y-75768058D01*
X110550000Y-97869000D02*
X109845000Y-97869000D01*
X109845000Y-97869000D02*
X109345000Y-97369000D01*
X104845000Y-97369000D02*
X103595000Y-96119000D01*
X109345000Y-97369000D02*
X104845000Y-97369000D01*
X97650000Y-79250000D02*
X97100000Y-78700000D01*
X98196401Y-75768058D02*
X98196401Y-75623599D01*
X103595000Y-96119000D02*
X103595000Y-86569000D01*
X103595000Y-86569000D02*
X103245000Y-86219000D01*
X103245000Y-86219000D02*
X100795000Y-86219000D01*
X97650000Y-83200000D02*
X97650000Y-79250000D01*
X100795000Y-86219000D02*
X100395000Y-85819000D01*
X97100000Y-78700000D02*
X97100000Y-76864459D01*
X100395000Y-85819000D02*
X100395000Y-84169000D01*
X100395000Y-84169000D02*
X99957399Y-83731399D01*
X99957399Y-83731399D02*
X98181399Y-83731399D01*
X98181399Y-83731399D02*
X97650000Y-83200000D01*
X98196401Y-75623599D02*
X99060000Y-74760000D01*
X110550000Y-102000000D02*
X110550000Y-98669000D01*
X107795000Y-98669000D02*
X108645000Y-98669000D01*
X108645000Y-98669000D02*
X110550000Y-98669000D01*
X111450000Y-113950000D02*
X111450000Y-112000000D01*
X111450000Y-112000000D02*
X109750000Y-110300000D01*
X105650000Y-104250000D02*
X107450000Y-102450000D01*
X105650000Y-107700000D02*
X105650000Y-104250000D01*
X107450000Y-102450000D02*
X110100000Y-102450000D01*
X110100000Y-102450000D02*
X110550000Y-102000000D01*
D41*
G36*
X88615000Y-38398690D02*
X88615000Y-38614250D01*
X88773750Y-38773000D01*
X89723000Y-38773000D01*
X89723000Y-38753000D01*
X89977000Y-38753000D01*
X89977000Y-38773000D01*
X89997000Y-38773000D01*
X89997000Y-39027000D01*
X89977000Y-39027000D01*
X89977000Y-39751250D01*
X90135750Y-39910000D01*
X90576309Y-39910000D01*
X90809698Y-39813327D01*
X90811068Y-39811957D01*
X90898110Y-39871431D01*
X91150000Y-39922440D01*
X92350000Y-39922440D01*
X92585317Y-39878162D01*
X92782142Y-39751508D01*
X93103212Y-39884828D01*
X93495069Y-39885170D01*
X93857229Y-39735529D01*
X94134555Y-39458686D01*
X94284828Y-39096788D01*
X94285170Y-38704931D01*
X94135529Y-38342771D01*
X94002989Y-38210000D01*
X161540000Y-38210000D01*
X161540000Y-39854321D01*
X161316000Y-39808960D01*
X159284000Y-39808960D01*
X159048683Y-39853238D01*
X158832559Y-39992310D01*
X158687569Y-40204510D01*
X158636560Y-40456400D01*
X158636560Y-40590000D01*
X156042334Y-40590000D01*
X156028162Y-40514683D01*
X155889090Y-40298559D01*
X155676890Y-40153569D01*
X155425000Y-40102560D01*
X154675000Y-40102560D01*
X154439683Y-40146838D01*
X154223559Y-40285910D01*
X154078569Y-40498110D01*
X154027560Y-40750000D01*
X154027560Y-41950000D01*
X154071838Y-42185317D01*
X154138329Y-42288646D01*
X154136673Y-42290302D01*
X154040000Y-42523691D01*
X154040000Y-42964250D01*
X154198750Y-43123000D01*
X154923000Y-43123000D01*
X154923000Y-43103000D01*
X155177000Y-43103000D01*
X155177000Y-43123000D01*
X155901250Y-43123000D01*
X156060000Y-42964250D01*
X156060000Y-42523691D01*
X155963327Y-42290302D01*
X155961957Y-42288932D01*
X156021431Y-42201890D01*
X156040039Y-42110000D01*
X158636560Y-42110000D01*
X158636560Y-42183600D01*
X158680838Y-42418917D01*
X158819910Y-42635041D01*
X159032110Y-42780031D01*
X159073439Y-42788400D01*
X159055585Y-42800330D01*
X158730729Y-43286511D01*
X158616655Y-43860000D01*
X158730729Y-44433489D01*
X159055585Y-44919670D01*
X159370366Y-45130000D01*
X159055585Y-45340330D01*
X158730729Y-45826511D01*
X158616655Y-46400000D01*
X158730729Y-46973489D01*
X159055585Y-47459670D01*
X159365069Y-47666461D01*
X158949268Y-48037964D01*
X158695291Y-48565209D01*
X158692642Y-48580974D01*
X158813783Y-48813000D01*
X160173000Y-48813000D01*
X160173000Y-48793000D01*
X160427000Y-48793000D01*
X160427000Y-48813000D01*
X160447000Y-48813000D01*
X160447000Y-49067000D01*
X160427000Y-49067000D01*
X160427000Y-50280924D01*
X160661913Y-50425184D01*
X161214320Y-50231954D01*
X161540000Y-49940971D01*
X161540000Y-93294321D01*
X161316000Y-93248960D01*
X159284000Y-93248960D01*
X159048683Y-93293238D01*
X158832559Y-93432310D01*
X158687569Y-93644510D01*
X158636560Y-93896400D01*
X158636560Y-95623600D01*
X158680838Y-95858917D01*
X158819910Y-96075041D01*
X159032110Y-96220031D01*
X159073439Y-96228400D01*
X159055585Y-96240330D01*
X158730729Y-96726511D01*
X158616655Y-97300000D01*
X158730729Y-97873489D01*
X159055585Y-98359670D01*
X159365069Y-98566461D01*
X158949268Y-98937964D01*
X158695291Y-99465209D01*
X158692642Y-99480974D01*
X158813783Y-99713000D01*
X160173000Y-99713000D01*
X160173000Y-99693000D01*
X160427000Y-99693000D01*
X160427000Y-99713000D01*
X160447000Y-99713000D01*
X160447000Y-99967000D01*
X160427000Y-99967000D01*
X160427000Y-101180924D01*
X160661913Y-101325184D01*
X161214320Y-101131954D01*
X161540000Y-100840971D01*
X161540000Y-103844321D01*
X161316000Y-103798960D01*
X159284000Y-103798960D01*
X159048683Y-103843238D01*
X158832559Y-103982310D01*
X158687569Y-104194510D01*
X158636560Y-104446400D01*
X158636560Y-106173600D01*
X158680838Y-106408917D01*
X158819910Y-106625041D01*
X159032110Y-106770031D01*
X159073439Y-106778400D01*
X159055585Y-106790330D01*
X158730729Y-107276511D01*
X158616655Y-107850000D01*
X158730729Y-108423489D01*
X159055585Y-108909670D01*
X159365069Y-109116461D01*
X158949268Y-109487964D01*
X158695291Y-110015209D01*
X158692642Y-110030974D01*
X158813783Y-110263000D01*
X160173000Y-110263000D01*
X160173000Y-110243000D01*
X160427000Y-110243000D01*
X160427000Y-110263000D01*
X160447000Y-110263000D01*
X160447000Y-110517000D01*
X160427000Y-110517000D01*
X160427000Y-111730924D01*
X160661913Y-111875184D01*
X161214320Y-111681954D01*
X161540000Y-111390971D01*
X161540000Y-124790000D01*
X88127000Y-124790000D01*
X88127000Y-108622844D01*
X88165000Y-108648808D01*
X88165000Y-122026835D01*
X88164999Y-122026840D01*
X88221190Y-122309324D01*
X88232367Y-122365515D01*
X88343839Y-122532345D01*
X88424210Y-122652630D01*
X88897368Y-123125787D01*
X88897370Y-123125790D01*
X89184485Y-123317633D01*
X89523160Y-123385001D01*
X89523165Y-123385000D01*
X89582239Y-123385000D01*
X89792567Y-123699778D01*
X90328190Y-124057670D01*
X90960000Y-124183345D01*
X91591810Y-124057670D01*
X91931792Y-123830501D01*
X92019910Y-123967441D01*
X92232110Y-124112431D01*
X92484000Y-124163440D01*
X94516000Y-124163440D01*
X94751317Y-124119162D01*
X94967441Y-123980090D01*
X95112431Y-123767890D01*
X95163440Y-123516000D01*
X95163440Y-122334836D01*
X135364100Y-122334836D01*
X135364100Y-122940084D01*
X135450497Y-123374430D01*
X135696534Y-123742650D01*
X136064754Y-123988687D01*
X136499100Y-124075084D01*
X136933446Y-123988687D01*
X137301666Y-123742650D01*
X137547703Y-123374430D01*
X137634100Y-122940084D01*
X137634100Y-122334836D01*
X142364100Y-122334836D01*
X142364100Y-122940084D01*
X142450497Y-123374430D01*
X142696534Y-123742650D01*
X143064754Y-123988687D01*
X143499100Y-124075084D01*
X143933446Y-123988687D01*
X144301666Y-123742650D01*
X144547703Y-123374430D01*
X144634100Y-122940084D01*
X144634100Y-122334836D01*
X144547703Y-121900490D01*
X144301666Y-121532270D01*
X143933446Y-121286233D01*
X143499100Y-121199836D01*
X143064754Y-121286233D01*
X142696534Y-121532270D01*
X142450497Y-121900490D01*
X142364100Y-122334836D01*
X137634100Y-122334836D01*
X137547703Y-121900490D01*
X137301666Y-121532270D01*
X136933446Y-121286233D01*
X136499100Y-121199836D01*
X136064754Y-121286233D01*
X135696534Y-121532270D01*
X135450497Y-121900490D01*
X135364100Y-122334836D01*
X95163440Y-122334836D01*
X95163440Y-121484000D01*
X95119162Y-121248683D01*
X94980090Y-121032559D01*
X94767890Y-120887569D01*
X94516000Y-120836560D01*
X92484000Y-120836560D01*
X92248683Y-120880838D01*
X92032559Y-121019910D01*
X91930802Y-121168837D01*
X91845000Y-121111506D01*
X91845000Y-120670580D01*
X97911579Y-114604000D01*
X104044995Y-114604000D01*
X104045000Y-114604001D01*
X104360142Y-114541314D01*
X104383675Y-114536633D01*
X104670790Y-114344790D01*
X106120787Y-112894792D01*
X106120790Y-112894790D01*
X106312633Y-112607675D01*
X106338515Y-112477560D01*
X106380001Y-112269000D01*
X106380000Y-112268995D01*
X106380000Y-111385580D01*
X108180579Y-109585000D01*
X108336065Y-109585000D01*
X108160445Y-109760314D01*
X108010172Y-110122212D01*
X108009830Y-110514069D01*
X108159471Y-110876229D01*
X108436314Y-111153555D01*
X108798212Y-111303828D01*
X109190069Y-111304170D01*
X109536306Y-111161108D01*
X110690000Y-112314802D01*
X110690000Y-112940116D01*
X110652560Y-113125000D01*
X110652560Y-114775000D01*
X110696838Y-115010317D01*
X110835910Y-115226441D01*
X110843604Y-115231698D01*
X110825964Y-115318810D01*
X110696788Y-115265172D01*
X110304931Y-115264830D01*
X109942771Y-115414471D01*
X109665445Y-115691314D01*
X109515172Y-116053212D01*
X109514830Y-116445069D01*
X109664471Y-116807229D01*
X109941314Y-117084555D01*
X110303212Y-117234828D01*
X110695069Y-117235170D01*
X110825065Y-117181457D01*
X110841860Y-117270715D01*
X110703569Y-117473110D01*
X110654408Y-117715877D01*
X110650000Y-117715000D01*
X108995868Y-117715000D01*
X108690434Y-117409566D01*
X108626565Y-117366890D01*
X108419541Y-117228561D01*
X108100000Y-117165000D01*
X106751170Y-117165000D01*
X106507433Y-116800222D01*
X105971810Y-116442330D01*
X105340000Y-116316655D01*
X104708190Y-116442330D01*
X104368208Y-116669499D01*
X104280090Y-116532559D01*
X104067890Y-116387569D01*
X103816000Y-116336560D01*
X101784000Y-116336560D01*
X101548683Y-116380838D01*
X101332559Y-116519910D01*
X101187569Y-116732110D01*
X101136560Y-116984000D01*
X101136560Y-119016000D01*
X101180838Y-119251317D01*
X101319910Y-119467441D01*
X101532110Y-119612431D01*
X101784000Y-119663440D01*
X102027347Y-119663440D01*
X102028561Y-119669541D01*
X102141850Y-119839090D01*
X102209566Y-119940434D01*
X102609566Y-120340434D01*
X102880459Y-120521439D01*
X103200000Y-120585000D01*
X110600000Y-120585000D01*
X110919541Y-120521439D01*
X110936661Y-120510000D01*
X111464948Y-120510000D01*
X111464830Y-120645069D01*
X111614471Y-121007229D01*
X111891314Y-121284555D01*
X112253212Y-121434828D01*
X112645069Y-121435170D01*
X113007229Y-121285529D01*
X113284555Y-121008686D01*
X113434828Y-120646788D01*
X113434860Y-120610000D01*
X114013339Y-120610000D01*
X114030459Y-120621439D01*
X114350000Y-120685000D01*
X122200000Y-120685000D01*
X122519541Y-120621439D01*
X122790434Y-120440434D01*
X123030434Y-120200434D01*
X123117894Y-120069541D01*
X123211439Y-119929541D01*
X123275000Y-119610000D01*
X123275000Y-119421903D01*
X123607433Y-119199778D01*
X123965325Y-118664155D01*
X124091000Y-118032345D01*
X124091000Y-117967655D01*
X123965325Y-117335845D01*
X123607433Y-116800222D01*
X123071810Y-116442330D01*
X122440000Y-116316655D01*
X121808190Y-116442330D01*
X121468208Y-116669499D01*
X121380090Y-116532559D01*
X121167890Y-116387569D01*
X120916000Y-116336560D01*
X118884000Y-116336560D01*
X118648683Y-116380838D01*
X118432559Y-116519910D01*
X118287569Y-116732110D01*
X118236560Y-116984000D01*
X118236560Y-117165000D01*
X116750000Y-117165000D01*
X116430459Y-117228561D01*
X116223435Y-117366890D01*
X116159566Y-117409566D01*
X115854132Y-117715000D01*
X114400000Y-117715000D01*
X114247440Y-117745346D01*
X114247440Y-117725000D01*
X114203162Y-117489683D01*
X114064090Y-117273559D01*
X114056396Y-117268302D01*
X114085671Y-117123735D01*
X114353212Y-117234828D01*
X114745069Y-117235170D01*
X115107229Y-117085529D01*
X115384555Y-116808686D01*
X115534828Y-116446788D01*
X115535170Y-116054931D01*
X115385529Y-115692771D01*
X115108686Y-115415445D01*
X114746788Y-115265172D01*
X114354931Y-115264830D01*
X114085756Y-115376050D01*
X114058140Y-115229285D01*
X114196431Y-115026890D01*
X114247440Y-114775000D01*
X114247440Y-113125000D01*
X114210000Y-112926024D01*
X114210000Y-112214802D01*
X114535000Y-111889802D01*
X114535000Y-112419000D01*
X114592852Y-112709839D01*
X114757599Y-112956401D01*
X115507599Y-113706401D01*
X115754160Y-113871148D01*
X116045000Y-113929000D01*
X117689895Y-113929000D01*
X117780910Y-114070441D01*
X117993110Y-114215431D01*
X118245000Y-114266440D01*
X119445000Y-114266440D01*
X119680317Y-114222162D01*
X119896441Y-114083090D01*
X119944134Y-114013289D01*
X119980910Y-114070441D01*
X120193110Y-114215431D01*
X120445000Y-114266440D01*
X121645000Y-114266440D01*
X121880317Y-114222162D01*
X122089152Y-114087780D01*
X122248212Y-114153828D01*
X122640069Y-114154170D01*
X123002229Y-114004529D01*
X123279555Y-113727686D01*
X123429828Y-113365788D01*
X123430170Y-112973931D01*
X123280529Y-112611771D01*
X123003686Y-112334445D01*
X122641788Y-112184172D01*
X122249931Y-112183830D01*
X122085802Y-112251647D01*
X121896890Y-112122569D01*
X121645000Y-112071560D01*
X120445000Y-112071560D01*
X120209683Y-112115838D01*
X119993559Y-112254910D01*
X119945866Y-112324711D01*
X119909090Y-112267559D01*
X119696890Y-112122569D01*
X119445000Y-112071560D01*
X118245000Y-112071560D01*
X118009683Y-112115838D01*
X117793559Y-112254910D01*
X117688274Y-112409000D01*
X116359802Y-112409000D01*
X116055000Y-112104198D01*
X116055000Y-111860000D01*
X116364000Y-111860000D01*
X116654839Y-111802148D01*
X116901401Y-111637401D01*
X117682401Y-110856401D01*
X117847148Y-110609839D01*
X117905000Y-110319000D01*
X117905000Y-105633802D01*
X118482401Y-105056401D01*
X118647148Y-104809839D01*
X118705000Y-104519000D01*
X118705000Y-103219000D01*
X118647148Y-102928161D01*
X118482401Y-102681599D01*
X118205000Y-102404198D01*
X118205000Y-101719000D01*
X118147148Y-101428161D01*
X117982401Y-101181599D01*
X117855000Y-101054198D01*
X117855000Y-97619000D01*
X117797148Y-97328161D01*
X117632401Y-97081599D01*
X117345871Y-96795069D01*
X125964830Y-96795069D01*
X126114471Y-97157229D01*
X126224260Y-97267210D01*
X126247852Y-97385813D01*
X126412599Y-97632375D01*
X127140000Y-98359776D01*
X127140000Y-107857500D01*
X127197852Y-108148339D01*
X127362599Y-108394901D01*
X128112599Y-109144901D01*
X128359160Y-109309648D01*
X128650000Y-109367500D01*
X135431380Y-109367500D01*
X135448110Y-109378931D01*
X135700000Y-109429940D01*
X137390000Y-109429940D01*
X137390000Y-109835198D01*
X135785198Y-111440000D01*
X132300000Y-111440000D01*
X132009160Y-111497852D01*
X131762599Y-111662599D01*
X130712599Y-112712599D01*
X130547852Y-112959161D01*
X130490000Y-113250000D01*
X130490000Y-116800000D01*
X130547852Y-117090839D01*
X130712599Y-117337401D01*
X131162599Y-117787401D01*
X131409161Y-117952148D01*
X131700000Y-118010000D01*
X132127962Y-118010000D01*
X132146838Y-118110317D01*
X132285910Y-118326441D01*
X132498110Y-118471431D01*
X132750000Y-118522440D01*
X134202758Y-118522440D01*
X133214355Y-119510843D01*
X133050000Y-119477560D01*
X131850000Y-119477560D01*
X131614683Y-119521838D01*
X131500022Y-119595620D01*
X131401890Y-119528569D01*
X131150000Y-119477560D01*
X129950000Y-119477560D01*
X129714683Y-119521838D01*
X129615909Y-119585397D01*
X129446788Y-119515172D01*
X129054931Y-119514830D01*
X128692771Y-119664471D01*
X128415445Y-119941314D01*
X128265172Y-120303212D01*
X128264830Y-120695069D01*
X128414471Y-121057229D01*
X128691314Y-121334555D01*
X129053212Y-121484828D01*
X129445069Y-121485170D01*
X129615284Y-121414839D01*
X129698110Y-121471431D01*
X129950000Y-121522440D01*
X131150000Y-121522440D01*
X131385317Y-121478162D01*
X131499978Y-121404380D01*
X131598110Y-121471431D01*
X131850000Y-121522440D01*
X133050000Y-121522440D01*
X133285317Y-121478162D01*
X133501441Y-121339090D01*
X133598513Y-121197020D01*
X133837401Y-121037401D01*
X135564802Y-119310000D01*
X135850000Y-119310000D01*
X136140839Y-119252148D01*
X136387401Y-119087401D01*
X136537401Y-118937401D01*
X136702148Y-118690839D01*
X136735645Y-118522440D01*
X136750000Y-118522440D01*
X136985317Y-118478162D01*
X137106530Y-118400164D01*
X137259160Y-118502148D01*
X137307414Y-118511746D01*
X137550000Y-118560000D01*
X137685198Y-118560000D01*
X137939100Y-118813902D01*
X137939100Y-118880235D01*
X137673785Y-118827460D01*
X137324415Y-118827460D01*
X136899636Y-118911954D01*
X136539526Y-119152571D01*
X136298909Y-119512681D01*
X136214415Y-119937460D01*
X136298909Y-120362239D01*
X136539526Y-120722349D01*
X136899636Y-120962966D01*
X137324415Y-121047460D01*
X137673785Y-121047460D01*
X137984642Y-120985627D01*
X138035010Y-121063901D01*
X138247210Y-121208891D01*
X138499100Y-121259900D01*
X138899100Y-121259900D01*
X139028689Y-121235516D01*
X139149100Y-121259900D01*
X139549100Y-121259900D01*
X139678689Y-121235516D01*
X139799100Y-121259900D01*
X140199100Y-121259900D01*
X140328689Y-121235516D01*
X140449100Y-121259900D01*
X140849100Y-121259900D01*
X140978689Y-121235516D01*
X141099100Y-121259900D01*
X141499100Y-121259900D01*
X141734417Y-121215622D01*
X141950541Y-121076550D01*
X142012773Y-120985470D01*
X142324415Y-121047460D01*
X142673785Y-121047460D01*
X143098564Y-120962966D01*
X143458674Y-120722349D01*
X143699291Y-120362239D01*
X143783785Y-119937460D01*
X143699291Y-119512681D01*
X143458674Y-119152571D01*
X143098564Y-118911954D01*
X142673785Y-118827460D01*
X142324415Y-118827460D01*
X142060000Y-118880056D01*
X142060000Y-118633111D01*
X142134555Y-118558686D01*
X142284828Y-118196788D01*
X142285170Y-117804931D01*
X142135529Y-117442771D01*
X141858686Y-117165445D01*
X141602947Y-117059253D01*
X141635317Y-117053162D01*
X141851441Y-116914090D01*
X141996431Y-116701890D01*
X142047440Y-116450000D01*
X142047440Y-115250000D01*
X142003162Y-115014683D01*
X141864090Y-114798559D01*
X141794289Y-114750866D01*
X141851441Y-114714090D01*
X141996431Y-114501890D01*
X142015039Y-114410000D01*
X142558203Y-114410000D01*
X142648110Y-114471431D01*
X142900000Y-114522440D01*
X144100000Y-114522440D01*
X144335317Y-114478162D01*
X144449978Y-114404380D01*
X144548110Y-114471431D01*
X144800000Y-114522440D01*
X146000000Y-114522440D01*
X146235317Y-114478162D01*
X146451441Y-114339090D01*
X146469482Y-114312685D01*
X146491314Y-114334555D01*
X146853212Y-114484828D01*
X147245069Y-114485170D01*
X147607229Y-114335529D01*
X147884555Y-114058686D01*
X148034828Y-113696788D01*
X148035170Y-113304931D01*
X147885529Y-112942771D01*
X147608686Y-112665445D01*
X147246788Y-112515172D01*
X146854931Y-112514830D01*
X146492771Y-112664471D01*
X146471747Y-112685458D01*
X146464090Y-112673559D01*
X146251890Y-112528569D01*
X146000000Y-112477560D01*
X144800000Y-112477560D01*
X144564683Y-112521838D01*
X144450022Y-112595620D01*
X144351890Y-112528569D01*
X144100000Y-112477560D01*
X142900000Y-112477560D01*
X142664683Y-112521838D01*
X142448559Y-112660910D01*
X142303569Y-112873110D01*
X142300149Y-112890000D01*
X142017334Y-112890000D01*
X142003162Y-112814683D01*
X141864090Y-112598559D01*
X141651890Y-112453569D01*
X141400000Y-112402560D01*
X140560000Y-112402560D01*
X140560000Y-109115974D01*
X140635910Y-109233941D01*
X140848110Y-109378931D01*
X141100000Y-109429940D01*
X142800000Y-109429940D01*
X143035317Y-109385662D01*
X143251441Y-109246590D01*
X143396431Y-109034390D01*
X143447440Y-108782500D01*
X143447440Y-108432500D01*
X143419642Y-108284769D01*
X143447440Y-108147500D01*
X143447440Y-108110000D01*
X144707666Y-108110000D01*
X144721838Y-108185317D01*
X144860910Y-108401441D01*
X145073110Y-108546431D01*
X145325000Y-108597440D01*
X146075000Y-108597440D01*
X146310317Y-108553162D01*
X146526441Y-108414090D01*
X146671431Y-108201890D01*
X146722440Y-107950000D01*
X146722440Y-106750000D01*
X146678162Y-106514683D01*
X146604380Y-106400022D01*
X146629799Y-106362821D01*
X146803212Y-106434828D01*
X147195069Y-106435170D01*
X147557229Y-106285529D01*
X147834555Y-106008686D01*
X147984828Y-105646788D01*
X147985170Y-105254931D01*
X147835529Y-104892771D01*
X147558686Y-104615445D01*
X147196788Y-104465172D01*
X146804931Y-104464830D01*
X146628614Y-104537683D01*
X146539090Y-104398559D01*
X146326890Y-104253569D01*
X146075000Y-104202560D01*
X145325000Y-104202560D01*
X145089683Y-104246838D01*
X144873559Y-104385910D01*
X144728569Y-104598110D01*
X144713505Y-104672500D01*
X143447440Y-104672500D01*
X143447440Y-104622500D01*
X143419642Y-104474769D01*
X143447440Y-104337500D01*
X143447440Y-103987500D01*
X143419642Y-103839769D01*
X143447440Y-103702500D01*
X143447440Y-103352500D01*
X143419642Y-103204769D01*
X143447440Y-103067500D01*
X143447440Y-102717500D01*
X143403162Y-102482183D01*
X143264090Y-102266059D01*
X143051890Y-102121069D01*
X142800000Y-102070060D01*
X141210000Y-102070060D01*
X141210000Y-100550000D01*
X141152148Y-100259161D01*
X140987401Y-100012599D01*
X140337401Y-99362599D01*
X140090839Y-99197852D01*
X139800000Y-99140000D01*
X130014802Y-99140000D01*
X129360000Y-98485198D01*
X129360000Y-98233111D01*
X129434555Y-98158686D01*
X129584828Y-97796788D01*
X129585170Y-97404931D01*
X129435529Y-97042771D01*
X129158686Y-96765445D01*
X128796788Y-96615172D01*
X128404931Y-96614830D01*
X128042771Y-96764471D01*
X127881326Y-96925635D01*
X127934828Y-96796788D01*
X127935170Y-96404931D01*
X127785529Y-96042771D01*
X127508686Y-95765445D01*
X127146788Y-95615172D01*
X126754931Y-95614830D01*
X126392771Y-95764471D01*
X126115445Y-96041314D01*
X125965172Y-96403212D01*
X125964830Y-96795069D01*
X117345871Y-96795069D01*
X116332401Y-95781599D01*
X116085839Y-95616852D01*
X115795000Y-95559000D01*
X112759802Y-95559000D01*
X112655000Y-95454198D01*
X112655000Y-93969000D01*
X112597148Y-93678161D01*
X112432401Y-93431599D01*
X111432401Y-92431599D01*
X111185839Y-92266852D01*
X110895000Y-92209000D01*
X106059802Y-92209000D01*
X105860000Y-92009198D01*
X105860000Y-81000000D01*
X105802148Y-80709161D01*
X105637401Y-80462599D01*
X103237401Y-78062599D01*
X102995517Y-77900978D01*
X103013885Y-77873489D01*
X103127959Y-77300000D01*
X103013885Y-76726511D01*
X102689029Y-76240330D01*
X102374248Y-76030000D01*
X102689029Y-75819670D01*
X103013885Y-75333489D01*
X103080054Y-75000834D01*
X107059543Y-75000834D01*
X107459853Y-75969658D01*
X108200443Y-76711542D01*
X109168567Y-77113542D01*
X110216834Y-77114457D01*
X111185658Y-76714147D01*
X111927542Y-75973557D01*
X112329542Y-75005433D01*
X112329546Y-75000834D01*
X137359543Y-75000834D01*
X137759853Y-75969658D01*
X138500443Y-76711542D01*
X139468567Y-77113542D01*
X140516834Y-77114457D01*
X141485658Y-76714147D01*
X142227542Y-75973557D01*
X142629542Y-75005433D01*
X142630457Y-73957166D01*
X142230147Y-72988342D01*
X141489557Y-72246458D01*
X140521433Y-71844458D01*
X139473166Y-71843543D01*
X138504342Y-72243853D01*
X137762458Y-72984443D01*
X137360458Y-73952567D01*
X137359543Y-75000834D01*
X112329546Y-75000834D01*
X112330457Y-73957166D01*
X111930147Y-72988342D01*
X111189557Y-72246458D01*
X110221433Y-71844458D01*
X109173166Y-71843543D01*
X108204342Y-72243853D01*
X107462458Y-72984443D01*
X107060458Y-73952567D01*
X107059543Y-75000834D01*
X103080054Y-75000834D01*
X103127959Y-74760000D01*
X103013885Y-74186511D01*
X102689029Y-73700330D01*
X102374248Y-73490000D01*
X102689029Y-73279670D01*
X103013885Y-72793489D01*
X103127959Y-72220000D01*
X103013885Y-71646511D01*
X102689029Y-71160330D01*
X102374248Y-70950000D01*
X102689029Y-70739670D01*
X103013885Y-70253489D01*
X103127959Y-69680000D01*
X103014579Y-69110000D01*
X103150000Y-69110000D01*
X103440839Y-69052148D01*
X103687401Y-68887401D01*
X104187401Y-68387401D01*
X104352148Y-68140839D01*
X104410000Y-67850000D01*
X104410000Y-62996123D01*
X104503212Y-63034828D01*
X104895069Y-63035170D01*
X105257229Y-62885529D01*
X105534555Y-62608686D01*
X105684828Y-62246788D01*
X105685170Y-61854931D01*
X105535529Y-61492771D01*
X105460000Y-61417110D01*
X105460000Y-50690834D01*
X107059543Y-50690834D01*
X107459853Y-51659658D01*
X108200443Y-52401542D01*
X109168567Y-52803542D01*
X110216834Y-52804457D01*
X111185658Y-52404147D01*
X111927542Y-51663557D01*
X112329542Y-50695433D01*
X112329546Y-50690834D01*
X137359543Y-50690834D01*
X137759853Y-51659658D01*
X138500443Y-52401542D01*
X139468567Y-52803542D01*
X140516834Y-52804457D01*
X141485658Y-52404147D01*
X142227542Y-51663557D01*
X142629542Y-50695433D01*
X142630457Y-49647166D01*
X142230147Y-48678342D01*
X141489557Y-47936458D01*
X140521433Y-47534458D01*
X139473166Y-47533543D01*
X138504342Y-47933853D01*
X137762458Y-48674443D01*
X137360458Y-49642567D01*
X137359543Y-50690834D01*
X112329546Y-50690834D01*
X112330457Y-49647166D01*
X111930147Y-48678342D01*
X111189557Y-47936458D01*
X110221433Y-47534458D01*
X109173166Y-47533543D01*
X108204342Y-47933853D01*
X107462458Y-48674443D01*
X107060458Y-49642567D01*
X107059543Y-50690834D01*
X105460000Y-50690834D01*
X105460000Y-47314802D01*
X106979733Y-45795069D01*
X136114830Y-45795069D01*
X136264471Y-46157229D01*
X136541314Y-46434555D01*
X136903212Y-46584828D01*
X137295069Y-46585170D01*
X137657229Y-46435529D01*
X137732890Y-46360000D01*
X144785198Y-46360000D01*
X145962599Y-47537401D01*
X146209161Y-47702148D01*
X146500000Y-47760000D01*
X147085198Y-47760000D01*
X147590000Y-48264802D01*
X147590000Y-84450000D01*
X147647852Y-84740839D01*
X147812599Y-84987401D01*
X147962599Y-85137401D01*
X148209161Y-85302148D01*
X148500000Y-85360000D01*
X148570738Y-85360000D01*
X148770971Y-85659670D01*
X149085752Y-85870000D01*
X148770971Y-86080330D01*
X148446115Y-86566511D01*
X148332041Y-87140000D01*
X148446115Y-87713489D01*
X148770971Y-88199670D01*
X149085752Y-88410000D01*
X148770971Y-88620330D01*
X148446115Y-89106511D01*
X148332041Y-89680000D01*
X148446115Y-90253489D01*
X148770971Y-90739670D01*
X149085752Y-90950000D01*
X148770971Y-91160330D01*
X148446115Y-91646511D01*
X148332041Y-92220000D01*
X148446115Y-92793489D01*
X148770971Y-93279670D01*
X149085752Y-93490000D01*
X148770971Y-93700330D01*
X148446115Y-94186511D01*
X148332041Y-94760000D01*
X148446115Y-95333489D01*
X148770971Y-95819670D01*
X149085752Y-96030000D01*
X148770971Y-96240330D01*
X148446115Y-96726511D01*
X148332041Y-97300000D01*
X148446115Y-97873489D01*
X148770971Y-98359670D01*
X149085752Y-98570000D01*
X148770971Y-98780330D01*
X148446115Y-99266511D01*
X148332041Y-99840000D01*
X148446115Y-100413489D01*
X148770971Y-100899670D01*
X149085752Y-101110000D01*
X148770971Y-101320330D01*
X148446115Y-101806511D01*
X148332041Y-102380000D01*
X148446115Y-102953489D01*
X148770971Y-103439670D01*
X149085752Y-103650000D01*
X148770971Y-103860330D01*
X148446115Y-104346511D01*
X148332041Y-104920000D01*
X148446115Y-105493489D01*
X148770971Y-105979670D01*
X149085752Y-106190000D01*
X148770971Y-106400330D01*
X148446115Y-106886511D01*
X148332041Y-107460000D01*
X148446115Y-108033489D01*
X148770971Y-108519670D01*
X149085752Y-108730000D01*
X148770971Y-108940330D01*
X148446115Y-109426511D01*
X148332041Y-110000000D01*
X148446115Y-110573489D01*
X148770971Y-111059670D01*
X149257152Y-111384526D01*
X149830641Y-111498600D01*
X149889359Y-111498600D01*
X150462848Y-111384526D01*
X150928442Y-111073426D01*
X150933238Y-111098917D01*
X151072310Y-111315041D01*
X151284510Y-111460031D01*
X151536400Y-111511040D01*
X153263600Y-111511040D01*
X153498917Y-111466762D01*
X153715041Y-111327690D01*
X153860031Y-111115490D01*
X153911040Y-110863600D01*
X153911040Y-110749026D01*
X158692642Y-110749026D01*
X158695291Y-110764791D01*
X158949268Y-111292036D01*
X159385680Y-111681954D01*
X159938087Y-111875184D01*
X160173000Y-111730924D01*
X160173000Y-110517000D01*
X158813783Y-110517000D01*
X158692642Y-110749026D01*
X153911040Y-110749026D01*
X153911040Y-109136400D01*
X153866762Y-108901083D01*
X153727690Y-108684959D01*
X153515490Y-108539969D01*
X153471869Y-108531136D01*
X153489029Y-108519670D01*
X153813885Y-108033489D01*
X153927959Y-107460000D01*
X153813885Y-106886511D01*
X153489029Y-106400330D01*
X153174248Y-106190000D01*
X153489029Y-105979670D01*
X153813885Y-105493489D01*
X153927959Y-104920000D01*
X153813885Y-104346511D01*
X153489029Y-103860330D01*
X153174248Y-103650000D01*
X153489029Y-103439670D01*
X153813885Y-102953489D01*
X153927959Y-102380000D01*
X153813885Y-101806511D01*
X153489029Y-101320330D01*
X153174248Y-101110000D01*
X153489029Y-100899670D01*
X153813885Y-100413489D01*
X153856544Y-100199026D01*
X158692642Y-100199026D01*
X158695291Y-100214791D01*
X158949268Y-100742036D01*
X159385680Y-101131954D01*
X159938087Y-101325184D01*
X160173000Y-101180924D01*
X160173000Y-99967000D01*
X158813783Y-99967000D01*
X158692642Y-100199026D01*
X153856544Y-100199026D01*
X153927959Y-99840000D01*
X153813885Y-99266511D01*
X153489029Y-98780330D01*
X153174248Y-98570000D01*
X153489029Y-98359670D01*
X153813885Y-97873489D01*
X153927959Y-97300000D01*
X153813885Y-96726511D01*
X153489029Y-96240330D01*
X153174248Y-96030000D01*
X153489029Y-95819670D01*
X153813885Y-95333489D01*
X153927959Y-94760000D01*
X153813885Y-94186511D01*
X153489029Y-93700330D01*
X153174248Y-93490000D01*
X153489029Y-93279670D01*
X153813885Y-92793489D01*
X153927959Y-92220000D01*
X153813885Y-91646511D01*
X153489029Y-91160330D01*
X153174248Y-90950000D01*
X153489029Y-90739670D01*
X153813885Y-90253489D01*
X153927959Y-89680000D01*
X153813885Y-89106511D01*
X153489029Y-88620330D01*
X153174248Y-88410000D01*
X153489029Y-88199670D01*
X153813885Y-87713489D01*
X153927959Y-87140000D01*
X153813885Y-86566511D01*
X153489029Y-86080330D01*
X153174248Y-85870000D01*
X153489029Y-85659670D01*
X153813885Y-85173489D01*
X153927959Y-84600000D01*
X153813885Y-84026511D01*
X153489029Y-83540330D01*
X153174248Y-83330000D01*
X153489029Y-83119670D01*
X153813885Y-82633489D01*
X153927959Y-82060000D01*
X153813885Y-81486511D01*
X153489029Y-81000330D01*
X153174248Y-80790000D01*
X153489029Y-80579670D01*
X153813885Y-80093489D01*
X153927959Y-79520000D01*
X153813885Y-78946511D01*
X153489029Y-78460330D01*
X153174248Y-78250000D01*
X153489029Y-78039670D01*
X153813885Y-77553489D01*
X153927959Y-76980000D01*
X153813885Y-76406511D01*
X153489029Y-75920330D01*
X153174248Y-75710000D01*
X153489029Y-75499670D01*
X153813885Y-75013489D01*
X153927959Y-74440000D01*
X153813885Y-73866511D01*
X153489029Y-73380330D01*
X153174248Y-73170000D01*
X153489029Y-72959670D01*
X153813885Y-72473489D01*
X153927959Y-71900000D01*
X153813885Y-71326511D01*
X153489029Y-70840330D01*
X153174248Y-70630000D01*
X153489029Y-70419670D01*
X153813885Y-69933489D01*
X153927959Y-69360000D01*
X153813885Y-68786511D01*
X153489029Y-68300330D01*
X153174248Y-68090000D01*
X153489029Y-67879670D01*
X153813885Y-67393489D01*
X153927959Y-66820000D01*
X153813885Y-66246511D01*
X153489029Y-65760330D01*
X153174248Y-65550000D01*
X153489029Y-65339670D01*
X153813885Y-64853489D01*
X153927959Y-64280000D01*
X153813885Y-63706511D01*
X153489029Y-63220330D01*
X153174248Y-63010000D01*
X153489029Y-62799670D01*
X153813885Y-62313489D01*
X153927959Y-61740000D01*
X153813885Y-61166511D01*
X153489029Y-60680330D01*
X153174248Y-60470000D01*
X153489029Y-60259670D01*
X153813885Y-59773489D01*
X153927959Y-59200000D01*
X153813885Y-58626511D01*
X153489029Y-58140330D01*
X153174248Y-57930000D01*
X153489029Y-57719670D01*
X153813885Y-57233489D01*
X153927959Y-56660000D01*
X153813885Y-56086511D01*
X153489029Y-55600330D01*
X153174248Y-55390000D01*
X153489029Y-55179670D01*
X153813885Y-54693489D01*
X153927959Y-54120000D01*
X153813885Y-53546511D01*
X153489029Y-53060330D01*
X153174248Y-52850000D01*
X153489029Y-52639670D01*
X153813885Y-52153489D01*
X153927959Y-51580000D01*
X153813885Y-51006511D01*
X153489029Y-50520330D01*
X153174248Y-50310000D01*
X153489029Y-50099670D01*
X153813885Y-49613489D01*
X153876435Y-49299026D01*
X158692642Y-49299026D01*
X158695291Y-49314791D01*
X158949268Y-49842036D01*
X159385680Y-50231954D01*
X159938087Y-50425184D01*
X160173000Y-50280924D01*
X160173000Y-49067000D01*
X158813783Y-49067000D01*
X158692642Y-49299026D01*
X153876435Y-49299026D01*
X153927959Y-49040000D01*
X153813885Y-48466511D01*
X153489029Y-47980330D01*
X153002848Y-47655474D01*
X152429359Y-47541400D01*
X152370641Y-47541400D01*
X151797152Y-47655474D01*
X151310971Y-47980330D01*
X151130000Y-48251172D01*
X150949029Y-47980330D01*
X150462848Y-47655474D01*
X149889359Y-47541400D01*
X149830641Y-47541400D01*
X149257152Y-47655474D01*
X149075551Y-47776816D01*
X149052148Y-47659161D01*
X148887401Y-47412599D01*
X147937401Y-46462599D01*
X147690839Y-46297852D01*
X147400000Y-46240000D01*
X146814802Y-46240000D01*
X145637401Y-45062599D01*
X145390839Y-44897852D01*
X145100000Y-44840000D01*
X137733111Y-44840000D01*
X137658686Y-44765445D01*
X137296788Y-44615172D01*
X136904931Y-44614830D01*
X136542771Y-44764471D01*
X136265445Y-45041314D01*
X136115172Y-45403212D01*
X136114830Y-45795069D01*
X106979733Y-45795069D01*
X109864802Y-42910000D01*
X119585198Y-42910000D01*
X120240000Y-43564802D01*
X120240000Y-43850000D01*
X120297852Y-44140839D01*
X120462599Y-44387401D01*
X121162598Y-45087401D01*
X121275141Y-45162599D01*
X121409161Y-45252148D01*
X121700000Y-45310000D01*
X123602400Y-45310000D01*
X123893239Y-45252148D01*
X124139801Y-45087401D01*
X125119536Y-44107666D01*
X125500000Y-44183345D01*
X126073489Y-44069271D01*
X126559670Y-43744415D01*
X126770000Y-43429634D01*
X126980330Y-43744415D01*
X127466511Y-44069271D01*
X128040000Y-44183345D01*
X128613489Y-44069271D01*
X129099670Y-43744415D01*
X129306461Y-43434931D01*
X129677964Y-43850732D01*
X130205209Y-44104709D01*
X130220974Y-44107358D01*
X130453000Y-43986217D01*
X130453000Y-42627000D01*
X130707000Y-42627000D01*
X130707000Y-43986217D01*
X130939026Y-44107358D01*
X130954791Y-44104709D01*
X131482036Y-43850732D01*
X131763460Y-43535750D01*
X154040000Y-43535750D01*
X154040000Y-43976309D01*
X154136673Y-44209698D01*
X154315301Y-44388327D01*
X154548690Y-44485000D01*
X154764250Y-44485000D01*
X154923000Y-44326250D01*
X154923000Y-43377000D01*
X155177000Y-43377000D01*
X155177000Y-44326250D01*
X155335750Y-44485000D01*
X155551310Y-44485000D01*
X155784699Y-44388327D01*
X155963327Y-44209698D01*
X156060000Y-43976309D01*
X156060000Y-43535750D01*
X155901250Y-43377000D01*
X155177000Y-43377000D01*
X154923000Y-43377000D01*
X154198750Y-43377000D01*
X154040000Y-43535750D01*
X131763460Y-43535750D01*
X131871954Y-43414320D01*
X132065184Y-42861913D01*
X131920924Y-42627000D01*
X130707000Y-42627000D01*
X130453000Y-42627000D01*
X130433000Y-42627000D01*
X130433000Y-42373000D01*
X130453000Y-42373000D01*
X130453000Y-41013783D01*
X130707000Y-41013783D01*
X130707000Y-42373000D01*
X131920924Y-42373000D01*
X132065184Y-42138087D01*
X131871954Y-41585680D01*
X131482036Y-41149268D01*
X130954791Y-40895291D01*
X130939026Y-40892642D01*
X130707000Y-41013783D01*
X130453000Y-41013783D01*
X130220974Y-40892642D01*
X130205209Y-40895291D01*
X129677964Y-41149268D01*
X129306461Y-41565069D01*
X129099670Y-41255585D01*
X128759017Y-41027968D01*
X128742148Y-40943161D01*
X128577401Y-40696599D01*
X128403242Y-40522440D01*
X129050000Y-40522440D01*
X129285317Y-40478162D01*
X129388646Y-40411671D01*
X129390302Y-40413327D01*
X129623691Y-40510000D01*
X130064250Y-40510000D01*
X130223000Y-40351250D01*
X130223000Y-39627000D01*
X130477000Y-39627000D01*
X130477000Y-40351250D01*
X130635750Y-40510000D01*
X131076309Y-40510000D01*
X131309698Y-40413327D01*
X131488327Y-40234699D01*
X131585000Y-40001310D01*
X131585000Y-39785750D01*
X131426250Y-39627000D01*
X130477000Y-39627000D01*
X130223000Y-39627000D01*
X130203000Y-39627000D01*
X130203000Y-39373000D01*
X130223000Y-39373000D01*
X130223000Y-38648750D01*
X130477000Y-38648750D01*
X130477000Y-39373000D01*
X131426250Y-39373000D01*
X131585000Y-39214250D01*
X131585000Y-38998690D01*
X131488327Y-38765301D01*
X131309698Y-38586673D01*
X131076309Y-38490000D01*
X130635750Y-38490000D01*
X130477000Y-38648750D01*
X130223000Y-38648750D01*
X130064250Y-38490000D01*
X129623691Y-38490000D01*
X129390302Y-38586673D01*
X129388932Y-38588043D01*
X129301890Y-38528569D01*
X129050000Y-38477560D01*
X127850000Y-38477560D01*
X127614683Y-38521838D01*
X127398559Y-38660910D01*
X127344519Y-38740000D01*
X127083111Y-38740000D01*
X127008686Y-38665445D01*
X126646788Y-38515172D01*
X126254931Y-38514830D01*
X125892771Y-38664471D01*
X125615445Y-38941314D01*
X125465172Y-39303212D01*
X125464830Y-39695069D01*
X125566033Y-39940000D01*
X121150000Y-39940000D01*
X120859160Y-39997852D01*
X120612599Y-40162599D01*
X119935198Y-40840000D01*
X108900000Y-40840000D01*
X108609160Y-40897852D01*
X108362599Y-41062599D01*
X103112599Y-46312599D01*
X102947852Y-46559161D01*
X102890000Y-46850000D01*
X102890000Y-48601104D01*
X102689029Y-48300330D01*
X102202848Y-47975474D01*
X101629359Y-47861400D01*
X101570641Y-47861400D01*
X100997152Y-47975474D01*
X100510971Y-48300330D01*
X100330000Y-48571172D01*
X100149029Y-48300330D01*
X99662848Y-47975474D01*
X99089359Y-47861400D01*
X99030641Y-47861400D01*
X98457152Y-47975474D01*
X98164458Y-48171046D01*
X98152148Y-48109161D01*
X97987401Y-47862599D01*
X96584802Y-46460000D01*
X100050000Y-46460000D01*
X100340839Y-46402148D01*
X100587401Y-46237401D01*
X104889855Y-41934947D01*
X105145069Y-41935170D01*
X105507229Y-41785529D01*
X105784555Y-41508686D01*
X105934828Y-41146788D01*
X105935170Y-40754931D01*
X105785529Y-40392771D01*
X105508686Y-40115445D01*
X105146788Y-39965172D01*
X104754931Y-39964830D01*
X104392771Y-40114471D01*
X104115445Y-40391314D01*
X103995838Y-40679360D01*
X99735198Y-44940000D01*
X92830802Y-44940000D01*
X91653401Y-43762599D01*
X91406839Y-43597852D01*
X91322032Y-43580983D01*
X91094415Y-43240330D01*
X90784931Y-43033539D01*
X91200732Y-42662036D01*
X91454709Y-42134791D01*
X91457358Y-42119026D01*
X91336217Y-41887000D01*
X89977000Y-41887000D01*
X89977000Y-41907000D01*
X89723000Y-41907000D01*
X89723000Y-41887000D01*
X88363783Y-41887000D01*
X88242642Y-42119026D01*
X88245291Y-42134791D01*
X88499268Y-42662036D01*
X88915069Y-43033539D01*
X88605585Y-43240330D01*
X88280729Y-43726511D01*
X88166655Y-44300000D01*
X88280729Y-44873489D01*
X88605585Y-45359670D01*
X88920366Y-45570000D01*
X88605585Y-45780330D01*
X88280729Y-46266511D01*
X88166655Y-46840000D01*
X88280729Y-47413489D01*
X88605585Y-47899670D01*
X88619913Y-47909243D01*
X88598683Y-47913238D01*
X88382559Y-48052310D01*
X88237569Y-48264510D01*
X88186560Y-48516400D01*
X88186560Y-50243600D01*
X88230838Y-50478917D01*
X88369910Y-50695041D01*
X88582110Y-50840031D01*
X88834000Y-50891040D01*
X90866000Y-50891040D01*
X91101317Y-50846762D01*
X91317441Y-50707690D01*
X91462431Y-50495490D01*
X91513440Y-50243600D01*
X91513440Y-48516400D01*
X91469162Y-48281083D01*
X91330090Y-48064959D01*
X91117890Y-47919969D01*
X91076561Y-47911600D01*
X91094415Y-47899670D01*
X91294648Y-47600000D01*
X95575198Y-47600000D01*
X96690000Y-48714802D01*
X96690000Y-75285198D01*
X96012599Y-75962599D01*
X95847852Y-76209161D01*
X95790000Y-76500000D01*
X95790000Y-78950000D01*
X95847852Y-79240839D01*
X96012599Y-79487401D01*
X96290000Y-79764802D01*
X96290000Y-83850000D01*
X96347852Y-84140839D01*
X96512599Y-84387401D01*
X96740000Y-84614802D01*
X96740000Y-106000000D01*
X96797852Y-106290839D01*
X96962599Y-106537401D01*
X97462599Y-107037401D01*
X97667590Y-107174371D01*
X97646115Y-107206511D01*
X97532041Y-107780000D01*
X97646115Y-108353489D01*
X97970971Y-108839670D01*
X98294228Y-109055664D01*
X98171510Y-109113179D01*
X97777312Y-109545053D01*
X97605042Y-109960974D01*
X97726183Y-110193000D01*
X98933000Y-110193000D01*
X98933000Y-110173000D01*
X99187000Y-110173000D01*
X99187000Y-110193000D01*
X101473000Y-110193000D01*
X101473000Y-110173000D01*
X101727000Y-110173000D01*
X101727000Y-110193000D01*
X102939850Y-110193000D01*
X103098600Y-110034250D01*
X103098600Y-109330090D01*
X103001927Y-109096701D01*
X102823298Y-108918073D01*
X102667977Y-108853737D01*
X102689029Y-108839670D01*
X103013885Y-108353489D01*
X103127959Y-107780000D01*
X103013885Y-107206511D01*
X102689029Y-106720330D01*
X102374248Y-106510000D01*
X102689029Y-106299670D01*
X103013885Y-105813489D01*
X103127959Y-105240000D01*
X103013885Y-104666511D01*
X102689029Y-104180330D01*
X102374248Y-103970000D01*
X102689029Y-103759670D01*
X103013885Y-103273489D01*
X103127959Y-102700000D01*
X103013885Y-102126511D01*
X102689029Y-101640330D01*
X102374248Y-101430000D01*
X102689029Y-101219670D01*
X103013885Y-100733489D01*
X103127959Y-100160000D01*
X103013885Y-99586511D01*
X102689029Y-99100330D01*
X102374248Y-98890000D01*
X102689029Y-98679670D01*
X103013885Y-98193489D01*
X103127959Y-97620000D01*
X103013885Y-97046511D01*
X102689029Y-96560330D01*
X102374248Y-96350000D01*
X102689029Y-96139670D01*
X102835000Y-95921209D01*
X102835000Y-96119000D01*
X102892852Y-96409839D01*
X103057599Y-96656401D01*
X104307599Y-97906401D01*
X104398556Y-97967176D01*
X104347560Y-98219000D01*
X104347560Y-99119000D01*
X104391838Y-99354317D01*
X104530910Y-99570441D01*
X104743110Y-99715431D01*
X104835000Y-99734039D01*
X104835000Y-99835889D01*
X104760445Y-99910314D01*
X104610172Y-100272212D01*
X104609830Y-100664069D01*
X104759471Y-101026229D01*
X105036314Y-101303555D01*
X105398212Y-101453828D01*
X105790069Y-101454170D01*
X106152229Y-101304529D01*
X106429555Y-101027686D01*
X106579828Y-100665788D01*
X106580170Y-100273931D01*
X106430529Y-99911771D01*
X106355000Y-99836110D01*
X106355000Y-99736334D01*
X106430317Y-99722162D01*
X106646441Y-99583090D01*
X106694134Y-99513289D01*
X106730910Y-99570441D01*
X106943110Y-99715431D01*
X107195000Y-99766440D01*
X108395000Y-99766440D01*
X108630317Y-99722162D01*
X108846441Y-99583090D01*
X108951726Y-99429000D01*
X109790000Y-99429000D01*
X109790000Y-101685198D01*
X109785198Y-101690000D01*
X107450000Y-101690000D01*
X107207414Y-101738254D01*
X107159160Y-101747852D01*
X106912599Y-101912599D01*
X105112599Y-103712599D01*
X104947852Y-103959161D01*
X104890000Y-104250000D01*
X104890000Y-107630898D01*
X104810445Y-107710314D01*
X104660172Y-108072212D01*
X104659830Y-108464069D01*
X104809471Y-108826229D01*
X105086314Y-109103555D01*
X105448212Y-109253828D01*
X105840069Y-109254170D01*
X106120242Y-109138405D01*
X106122908Y-109139512D01*
X104869210Y-110393210D01*
X104677367Y-110680325D01*
X104675443Y-110690000D01*
X104609999Y-111019000D01*
X104610000Y-111019005D01*
X104610000Y-111902421D01*
X103678420Y-112834000D01*
X97545000Y-112834000D01*
X97206325Y-112901367D01*
X96919210Y-113093210D01*
X96919208Y-113093213D01*
X90334210Y-119678210D01*
X90142367Y-119965325D01*
X90139814Y-119978162D01*
X90074999Y-120304000D01*
X90075000Y-120304005D01*
X90075000Y-121111506D01*
X89935000Y-121205051D01*
X89935000Y-115152079D01*
X90221155Y-115438735D01*
X90693276Y-115634777D01*
X91204481Y-115635223D01*
X91676943Y-115440005D01*
X92038735Y-115078845D01*
X92234777Y-114606724D01*
X92235223Y-114095519D01*
X92040005Y-113623057D01*
X91678845Y-113261265D01*
X91374765Y-113135000D01*
X91726310Y-113135000D01*
X91959699Y-113038327D01*
X92138327Y-112859698D01*
X92235000Y-112626309D01*
X92235000Y-112135750D01*
X92076250Y-111977000D01*
X91077000Y-111977000D01*
X91077000Y-111997000D01*
X90823000Y-111997000D01*
X90823000Y-111977000D01*
X90803000Y-111977000D01*
X90803000Y-111723000D01*
X90823000Y-111723000D01*
X90823000Y-110723750D01*
X91077000Y-110723750D01*
X91077000Y-111723000D01*
X92076250Y-111723000D01*
X92235000Y-111564250D01*
X92235000Y-111073691D01*
X92138327Y-110840302D01*
X91977052Y-110679026D01*
X97605042Y-110679026D01*
X97777312Y-111094947D01*
X98171510Y-111526821D01*
X98700973Y-111774968D01*
X98933000Y-111654469D01*
X98933000Y-110447000D01*
X99187000Y-110447000D01*
X99187000Y-111654469D01*
X99419027Y-111774968D01*
X99948490Y-111526821D01*
X100115471Y-111343881D01*
X100198073Y-111543299D01*
X100376702Y-111721927D01*
X100610091Y-111818600D01*
X101314250Y-111818600D01*
X101473000Y-111659850D01*
X101473000Y-110447000D01*
X101727000Y-110447000D01*
X101727000Y-111659850D01*
X101885750Y-111818600D01*
X102589909Y-111818600D01*
X102823298Y-111721927D01*
X103001927Y-111543299D01*
X103098600Y-111309910D01*
X103098600Y-110605750D01*
X102939850Y-110447000D01*
X101727000Y-110447000D01*
X101473000Y-110447000D01*
X99187000Y-110447000D01*
X98933000Y-110447000D01*
X97726183Y-110447000D01*
X97605042Y-110679026D01*
X91977052Y-110679026D01*
X91959699Y-110661673D01*
X91726310Y-110565000D01*
X91235750Y-110565000D01*
X91077000Y-110723750D01*
X90823000Y-110723750D01*
X90664250Y-110565000D01*
X90173690Y-110565000D01*
X89940301Y-110661673D01*
X89935000Y-110666974D01*
X89935000Y-108646192D01*
X89999978Y-108604380D01*
X90098110Y-108671431D01*
X90350000Y-108722440D01*
X91550000Y-108722440D01*
X91785317Y-108678162D01*
X92001441Y-108539090D01*
X92146431Y-108326890D01*
X92197440Y-108075000D01*
X92197440Y-107325000D01*
X92153162Y-107089683D01*
X92014090Y-106873559D01*
X91814301Y-106737049D01*
X91934828Y-106446788D01*
X91935170Y-106054931D01*
X91785529Y-105692771D01*
X91508686Y-105415445D01*
X91146788Y-105265172D01*
X90754931Y-105264830D01*
X90486940Y-105375561D01*
X90486940Y-104785750D01*
X92125500Y-104785750D01*
X92125500Y-106150310D01*
X92222173Y-106383699D01*
X92400802Y-106562327D01*
X92634191Y-106659000D01*
X93300250Y-106659000D01*
X93459000Y-106500250D01*
X93459000Y-104627000D01*
X93713000Y-104627000D01*
X93713000Y-106500250D01*
X93871750Y-106659000D01*
X94537809Y-106659000D01*
X94771198Y-106562327D01*
X94949827Y-106383699D01*
X95046500Y-106150310D01*
X95046500Y-104785750D01*
X94887750Y-104627000D01*
X93713000Y-104627000D01*
X93459000Y-104627000D01*
X92284250Y-104627000D01*
X92125500Y-104785750D01*
X90486940Y-104785750D01*
X90486940Y-102976000D01*
X90463174Y-102849690D01*
X92125500Y-102849690D01*
X92125500Y-104214250D01*
X92284250Y-104373000D01*
X93459000Y-104373000D01*
X93459000Y-102499750D01*
X93713000Y-102499750D01*
X93713000Y-104373000D01*
X94887750Y-104373000D01*
X95046500Y-104214250D01*
X95046500Y-102849690D01*
X94949827Y-102616301D01*
X94771198Y-102437673D01*
X94537809Y-102341000D01*
X93871750Y-102341000D01*
X93713000Y-102499750D01*
X93459000Y-102499750D01*
X93300250Y-102341000D01*
X92634191Y-102341000D01*
X92400802Y-102437673D01*
X92222173Y-102616301D01*
X92125500Y-102849690D01*
X90463174Y-102849690D01*
X90442662Y-102740683D01*
X90303590Y-102524559D01*
X90091390Y-102379569D01*
X89839500Y-102328560D01*
X88188500Y-102328560D01*
X88127000Y-102340132D01*
X88127000Y-101820127D01*
X88252000Y-101845440D01*
X94348000Y-101845440D01*
X94583317Y-101801162D01*
X94799441Y-101662090D01*
X94944431Y-101449890D01*
X94995440Y-101198000D01*
X94995440Y-99090077D01*
X95103212Y-99134828D01*
X95495069Y-99135170D01*
X95857229Y-98985529D01*
X96134555Y-98708686D01*
X96284828Y-98346788D01*
X96285170Y-97954931D01*
X96135529Y-97592771D01*
X95858686Y-97315445D01*
X95496788Y-97165172D01*
X95104931Y-97164830D01*
X94995440Y-97210071D01*
X94995440Y-95102000D01*
X94951162Y-94866683D01*
X94812090Y-94650559D01*
X94599890Y-94505569D01*
X94348000Y-94454560D01*
X88252000Y-94454560D01*
X88127000Y-94478080D01*
X88127000Y-41400974D01*
X88242642Y-41400974D01*
X88363783Y-41633000D01*
X89723000Y-41633000D01*
X89723000Y-40419076D01*
X89977000Y-40419076D01*
X89977000Y-41633000D01*
X91336217Y-41633000D01*
X91457358Y-41400974D01*
X91454709Y-41385209D01*
X91200732Y-40857964D01*
X90764320Y-40468046D01*
X90211913Y-40274816D01*
X89977000Y-40419076D01*
X89723000Y-40419076D01*
X89488087Y-40274816D01*
X88935680Y-40468046D01*
X88499268Y-40857964D01*
X88245291Y-41385209D01*
X88242642Y-41400974D01*
X88127000Y-41400974D01*
X88127000Y-39185750D01*
X88615000Y-39185750D01*
X88615000Y-39401310D01*
X88711673Y-39634699D01*
X88890302Y-39813327D01*
X89123691Y-39910000D01*
X89564250Y-39910000D01*
X89723000Y-39751250D01*
X89723000Y-39027000D01*
X88773750Y-39027000D01*
X88615000Y-39185750D01*
X88127000Y-39185750D01*
X88127000Y-38210000D01*
X88693158Y-38210000D01*
X88615000Y-38398690D01*
X88615000Y-38398690D01*
G37*
X88615000Y-38398690D02*
X88615000Y-38614250D01*
X88773750Y-38773000D01*
X89723000Y-38773000D01*
X89723000Y-38753000D01*
X89977000Y-38753000D01*
X89977000Y-38773000D01*
X89997000Y-38773000D01*
X89997000Y-39027000D01*
X89977000Y-39027000D01*
X89977000Y-39751250D01*
X90135750Y-39910000D01*
X90576309Y-39910000D01*
X90809698Y-39813327D01*
X90811068Y-39811957D01*
X90898110Y-39871431D01*
X91150000Y-39922440D01*
X92350000Y-39922440D01*
X92585317Y-39878162D01*
X92782142Y-39751508D01*
X93103212Y-39884828D01*
X93495069Y-39885170D01*
X93857229Y-39735529D01*
X94134555Y-39458686D01*
X94284828Y-39096788D01*
X94285170Y-38704931D01*
X94135529Y-38342771D01*
X94002989Y-38210000D01*
X161540000Y-38210000D01*
X161540000Y-39854321D01*
X161316000Y-39808960D01*
X159284000Y-39808960D01*
X159048683Y-39853238D01*
X158832559Y-39992310D01*
X158687569Y-40204510D01*
X158636560Y-40456400D01*
X158636560Y-40590000D01*
X156042334Y-40590000D01*
X156028162Y-40514683D01*
X155889090Y-40298559D01*
X155676890Y-40153569D01*
X155425000Y-40102560D01*
X154675000Y-40102560D01*
X154439683Y-40146838D01*
X154223559Y-40285910D01*
X154078569Y-40498110D01*
X154027560Y-40750000D01*
X154027560Y-41950000D01*
X154071838Y-42185317D01*
X154138329Y-42288646D01*
X154136673Y-42290302D01*
X154040000Y-42523691D01*
X154040000Y-42964250D01*
X154198750Y-43123000D01*
X154923000Y-43123000D01*
X154923000Y-43103000D01*
X155177000Y-43103000D01*
X155177000Y-43123000D01*
X155901250Y-43123000D01*
X156060000Y-42964250D01*
X156060000Y-42523691D01*
X155963327Y-42290302D01*
X155961957Y-42288932D01*
X156021431Y-42201890D01*
X156040039Y-42110000D01*
X158636560Y-42110000D01*
X158636560Y-42183600D01*
X158680838Y-42418917D01*
X158819910Y-42635041D01*
X159032110Y-42780031D01*
X159073439Y-42788400D01*
X159055585Y-42800330D01*
X158730729Y-43286511D01*
X158616655Y-43860000D01*
X158730729Y-44433489D01*
X159055585Y-44919670D01*
X159370366Y-45130000D01*
X159055585Y-45340330D01*
X158730729Y-45826511D01*
X158616655Y-46400000D01*
X158730729Y-46973489D01*
X159055585Y-47459670D01*
X159365069Y-47666461D01*
X158949268Y-48037964D01*
X158695291Y-48565209D01*
X158692642Y-48580974D01*
X158813783Y-48813000D01*
X160173000Y-48813000D01*
X160173000Y-48793000D01*
X160427000Y-48793000D01*
X160427000Y-48813000D01*
X160447000Y-48813000D01*
X160447000Y-49067000D01*
X160427000Y-49067000D01*
X160427000Y-50280924D01*
X160661913Y-50425184D01*
X161214320Y-50231954D01*
X161540000Y-49940971D01*
X161540000Y-93294321D01*
X161316000Y-93248960D01*
X159284000Y-93248960D01*
X159048683Y-93293238D01*
X158832559Y-93432310D01*
X158687569Y-93644510D01*
X158636560Y-93896400D01*
X158636560Y-95623600D01*
X158680838Y-95858917D01*
X158819910Y-96075041D01*
X159032110Y-96220031D01*
X159073439Y-96228400D01*
X159055585Y-96240330D01*
X158730729Y-96726511D01*
X158616655Y-97300000D01*
X158730729Y-97873489D01*
X159055585Y-98359670D01*
X159365069Y-98566461D01*
X158949268Y-98937964D01*
X158695291Y-99465209D01*
X158692642Y-99480974D01*
X158813783Y-99713000D01*
X160173000Y-99713000D01*
X160173000Y-99693000D01*
X160427000Y-99693000D01*
X160427000Y-99713000D01*
X160447000Y-99713000D01*
X160447000Y-99967000D01*
X160427000Y-99967000D01*
X160427000Y-101180924D01*
X160661913Y-101325184D01*
X161214320Y-101131954D01*
X161540000Y-100840971D01*
X161540000Y-103844321D01*
X161316000Y-103798960D01*
X159284000Y-103798960D01*
X159048683Y-103843238D01*
X158832559Y-103982310D01*
X158687569Y-104194510D01*
X158636560Y-104446400D01*
X158636560Y-106173600D01*
X158680838Y-106408917D01*
X158819910Y-106625041D01*
X159032110Y-106770031D01*
X159073439Y-106778400D01*
X159055585Y-106790330D01*
X158730729Y-107276511D01*
X158616655Y-107850000D01*
X158730729Y-108423489D01*
X159055585Y-108909670D01*
X159365069Y-109116461D01*
X158949268Y-109487964D01*
X158695291Y-110015209D01*
X158692642Y-110030974D01*
X158813783Y-110263000D01*
X160173000Y-110263000D01*
X160173000Y-110243000D01*
X160427000Y-110243000D01*
X160427000Y-110263000D01*
X160447000Y-110263000D01*
X160447000Y-110517000D01*
X160427000Y-110517000D01*
X160427000Y-111730924D01*
X160661913Y-111875184D01*
X161214320Y-111681954D01*
X161540000Y-111390971D01*
X161540000Y-124790000D01*
X88127000Y-124790000D01*
X88127000Y-108622844D01*
X88165000Y-108648808D01*
X88165000Y-122026835D01*
X88164999Y-122026840D01*
X88221190Y-122309324D01*
X88232367Y-122365515D01*
X88343839Y-122532345D01*
X88424210Y-122652630D01*
X88897368Y-123125787D01*
X88897370Y-123125790D01*
X89184485Y-123317633D01*
X89523160Y-123385001D01*
X89523165Y-123385000D01*
X89582239Y-123385000D01*
X89792567Y-123699778D01*
X90328190Y-124057670D01*
X90960000Y-124183345D01*
X91591810Y-124057670D01*
X91931792Y-123830501D01*
X92019910Y-123967441D01*
X92232110Y-124112431D01*
X92484000Y-124163440D01*
X94516000Y-124163440D01*
X94751317Y-124119162D01*
X94967441Y-123980090D01*
X95112431Y-123767890D01*
X95163440Y-123516000D01*
X95163440Y-122334836D01*
X135364100Y-122334836D01*
X135364100Y-122940084D01*
X135450497Y-123374430D01*
X135696534Y-123742650D01*
X136064754Y-123988687D01*
X136499100Y-124075084D01*
X136933446Y-123988687D01*
X137301666Y-123742650D01*
X137547703Y-123374430D01*
X137634100Y-122940084D01*
X137634100Y-122334836D01*
X142364100Y-122334836D01*
X142364100Y-122940084D01*
X142450497Y-123374430D01*
X142696534Y-123742650D01*
X143064754Y-123988687D01*
X143499100Y-124075084D01*
X143933446Y-123988687D01*
X144301666Y-123742650D01*
X144547703Y-123374430D01*
X144634100Y-122940084D01*
X144634100Y-122334836D01*
X144547703Y-121900490D01*
X144301666Y-121532270D01*
X143933446Y-121286233D01*
X143499100Y-121199836D01*
X143064754Y-121286233D01*
X142696534Y-121532270D01*
X142450497Y-121900490D01*
X142364100Y-122334836D01*
X137634100Y-122334836D01*
X137547703Y-121900490D01*
X137301666Y-121532270D01*
X136933446Y-121286233D01*
X136499100Y-121199836D01*
X136064754Y-121286233D01*
X135696534Y-121532270D01*
X135450497Y-121900490D01*
X135364100Y-122334836D01*
X95163440Y-122334836D01*
X95163440Y-121484000D01*
X95119162Y-121248683D01*
X94980090Y-121032559D01*
X94767890Y-120887569D01*
X94516000Y-120836560D01*
X92484000Y-120836560D01*
X92248683Y-120880838D01*
X92032559Y-121019910D01*
X91930802Y-121168837D01*
X91845000Y-121111506D01*
X91845000Y-120670580D01*
X97911579Y-114604000D01*
X104044995Y-114604000D01*
X104045000Y-114604001D01*
X104360142Y-114541314D01*
X104383675Y-114536633D01*
X104670790Y-114344790D01*
X106120787Y-112894792D01*
X106120790Y-112894790D01*
X106312633Y-112607675D01*
X106338515Y-112477560D01*
X106380001Y-112269000D01*
X106380000Y-112268995D01*
X106380000Y-111385580D01*
X108180579Y-109585000D01*
X108336065Y-109585000D01*
X108160445Y-109760314D01*
X108010172Y-110122212D01*
X108009830Y-110514069D01*
X108159471Y-110876229D01*
X108436314Y-111153555D01*
X108798212Y-111303828D01*
X109190069Y-111304170D01*
X109536306Y-111161108D01*
X110690000Y-112314802D01*
X110690000Y-112940116D01*
X110652560Y-113125000D01*
X110652560Y-114775000D01*
X110696838Y-115010317D01*
X110835910Y-115226441D01*
X110843604Y-115231698D01*
X110825964Y-115318810D01*
X110696788Y-115265172D01*
X110304931Y-115264830D01*
X109942771Y-115414471D01*
X109665445Y-115691314D01*
X109515172Y-116053212D01*
X109514830Y-116445069D01*
X109664471Y-116807229D01*
X109941314Y-117084555D01*
X110303212Y-117234828D01*
X110695069Y-117235170D01*
X110825065Y-117181457D01*
X110841860Y-117270715D01*
X110703569Y-117473110D01*
X110654408Y-117715877D01*
X110650000Y-117715000D01*
X108995868Y-117715000D01*
X108690434Y-117409566D01*
X108626565Y-117366890D01*
X108419541Y-117228561D01*
X108100000Y-117165000D01*
X106751170Y-117165000D01*
X106507433Y-116800222D01*
X105971810Y-116442330D01*
X105340000Y-116316655D01*
X104708190Y-116442330D01*
X104368208Y-116669499D01*
X104280090Y-116532559D01*
X104067890Y-116387569D01*
X103816000Y-116336560D01*
X101784000Y-116336560D01*
X101548683Y-116380838D01*
X101332559Y-116519910D01*
X101187569Y-116732110D01*
X101136560Y-116984000D01*
X101136560Y-119016000D01*
X101180838Y-119251317D01*
X101319910Y-119467441D01*
X101532110Y-119612431D01*
X101784000Y-119663440D01*
X102027347Y-119663440D01*
X102028561Y-119669541D01*
X102141850Y-119839090D01*
X102209566Y-119940434D01*
X102609566Y-120340434D01*
X102880459Y-120521439D01*
X103200000Y-120585000D01*
X110600000Y-120585000D01*
X110919541Y-120521439D01*
X110936661Y-120510000D01*
X111464948Y-120510000D01*
X111464830Y-120645069D01*
X111614471Y-121007229D01*
X111891314Y-121284555D01*
X112253212Y-121434828D01*
X112645069Y-121435170D01*
X113007229Y-121285529D01*
X113284555Y-121008686D01*
X113434828Y-120646788D01*
X113434860Y-120610000D01*
X114013339Y-120610000D01*
X114030459Y-120621439D01*
X114350000Y-120685000D01*
X122200000Y-120685000D01*
X122519541Y-120621439D01*
X122790434Y-120440434D01*
X123030434Y-120200434D01*
X123117894Y-120069541D01*
X123211439Y-119929541D01*
X123275000Y-119610000D01*
X123275000Y-119421903D01*
X123607433Y-119199778D01*
X123965325Y-118664155D01*
X124091000Y-118032345D01*
X124091000Y-117967655D01*
X123965325Y-117335845D01*
X123607433Y-116800222D01*
X123071810Y-116442330D01*
X122440000Y-116316655D01*
X121808190Y-116442330D01*
X121468208Y-116669499D01*
X121380090Y-116532559D01*
X121167890Y-116387569D01*
X120916000Y-116336560D01*
X118884000Y-116336560D01*
X118648683Y-116380838D01*
X118432559Y-116519910D01*
X118287569Y-116732110D01*
X118236560Y-116984000D01*
X118236560Y-117165000D01*
X116750000Y-117165000D01*
X116430459Y-117228561D01*
X116223435Y-117366890D01*
X116159566Y-117409566D01*
X115854132Y-117715000D01*
X114400000Y-117715000D01*
X114247440Y-117745346D01*
X114247440Y-117725000D01*
X114203162Y-117489683D01*
X114064090Y-117273559D01*
X114056396Y-117268302D01*
X114085671Y-117123735D01*
X114353212Y-117234828D01*
X114745069Y-117235170D01*
X115107229Y-117085529D01*
X115384555Y-116808686D01*
X115534828Y-116446788D01*
X115535170Y-116054931D01*
X115385529Y-115692771D01*
X115108686Y-115415445D01*
X114746788Y-115265172D01*
X114354931Y-115264830D01*
X114085756Y-115376050D01*
X114058140Y-115229285D01*
X114196431Y-115026890D01*
X114247440Y-114775000D01*
X114247440Y-113125000D01*
X114210000Y-112926024D01*
X114210000Y-112214802D01*
X114535000Y-111889802D01*
X114535000Y-112419000D01*
X114592852Y-112709839D01*
X114757599Y-112956401D01*
X115507599Y-113706401D01*
X115754160Y-113871148D01*
X116045000Y-113929000D01*
X117689895Y-113929000D01*
X117780910Y-114070441D01*
X117993110Y-114215431D01*
X118245000Y-114266440D01*
X119445000Y-114266440D01*
X119680317Y-114222162D01*
X119896441Y-114083090D01*
X119944134Y-114013289D01*
X119980910Y-114070441D01*
X120193110Y-114215431D01*
X120445000Y-114266440D01*
X121645000Y-114266440D01*
X121880317Y-114222162D01*
X122089152Y-114087780D01*
X122248212Y-114153828D01*
X122640069Y-114154170D01*
X123002229Y-114004529D01*
X123279555Y-113727686D01*
X123429828Y-113365788D01*
X123430170Y-112973931D01*
X123280529Y-112611771D01*
X123003686Y-112334445D01*
X122641788Y-112184172D01*
X122249931Y-112183830D01*
X122085802Y-112251647D01*
X121896890Y-112122569D01*
X121645000Y-112071560D01*
X120445000Y-112071560D01*
X120209683Y-112115838D01*
X119993559Y-112254910D01*
X119945866Y-112324711D01*
X119909090Y-112267559D01*
X119696890Y-112122569D01*
X119445000Y-112071560D01*
X118245000Y-112071560D01*
X118009683Y-112115838D01*
X117793559Y-112254910D01*
X117688274Y-112409000D01*
X116359802Y-112409000D01*
X116055000Y-112104198D01*
X116055000Y-111860000D01*
X116364000Y-111860000D01*
X116654839Y-111802148D01*
X116901401Y-111637401D01*
X117682401Y-110856401D01*
X117847148Y-110609839D01*
X117905000Y-110319000D01*
X117905000Y-105633802D01*
X118482401Y-105056401D01*
X118647148Y-104809839D01*
X118705000Y-104519000D01*
X118705000Y-103219000D01*
X118647148Y-102928161D01*
X118482401Y-102681599D01*
X118205000Y-102404198D01*
X118205000Y-101719000D01*
X118147148Y-101428161D01*
X117982401Y-101181599D01*
X117855000Y-101054198D01*
X117855000Y-97619000D01*
X117797148Y-97328161D01*
X117632401Y-97081599D01*
X117345871Y-96795069D01*
X125964830Y-96795069D01*
X126114471Y-97157229D01*
X126224260Y-97267210D01*
X126247852Y-97385813D01*
X126412599Y-97632375D01*
X127140000Y-98359776D01*
X127140000Y-107857500D01*
X127197852Y-108148339D01*
X127362599Y-108394901D01*
X128112599Y-109144901D01*
X128359160Y-109309648D01*
X128650000Y-109367500D01*
X135431380Y-109367500D01*
X135448110Y-109378931D01*
X135700000Y-109429940D01*
X137390000Y-109429940D01*
X137390000Y-109835198D01*
X135785198Y-111440000D01*
X132300000Y-111440000D01*
X132009160Y-111497852D01*
X131762599Y-111662599D01*
X130712599Y-112712599D01*
X130547852Y-112959161D01*
X130490000Y-113250000D01*
X130490000Y-116800000D01*
X130547852Y-117090839D01*
X130712599Y-117337401D01*
X131162599Y-117787401D01*
X131409161Y-117952148D01*
X131700000Y-118010000D01*
X132127962Y-118010000D01*
X132146838Y-118110317D01*
X132285910Y-118326441D01*
X132498110Y-118471431D01*
X132750000Y-118522440D01*
X134202758Y-118522440D01*
X133214355Y-119510843D01*
X133050000Y-119477560D01*
X131850000Y-119477560D01*
X131614683Y-119521838D01*
X131500022Y-119595620D01*
X131401890Y-119528569D01*
X131150000Y-119477560D01*
X129950000Y-119477560D01*
X129714683Y-119521838D01*
X129615909Y-119585397D01*
X129446788Y-119515172D01*
X129054931Y-119514830D01*
X128692771Y-119664471D01*
X128415445Y-119941314D01*
X128265172Y-120303212D01*
X128264830Y-120695069D01*
X128414471Y-121057229D01*
X128691314Y-121334555D01*
X129053212Y-121484828D01*
X129445069Y-121485170D01*
X129615284Y-121414839D01*
X129698110Y-121471431D01*
X129950000Y-121522440D01*
X131150000Y-121522440D01*
X131385317Y-121478162D01*
X131499978Y-121404380D01*
X131598110Y-121471431D01*
X131850000Y-121522440D01*
X133050000Y-121522440D01*
X133285317Y-121478162D01*
X133501441Y-121339090D01*
X133598513Y-121197020D01*
X133837401Y-121037401D01*
X135564802Y-119310000D01*
X135850000Y-119310000D01*
X136140839Y-119252148D01*
X136387401Y-119087401D01*
X136537401Y-118937401D01*
X136702148Y-118690839D01*
X136735645Y-118522440D01*
X136750000Y-118522440D01*
X136985317Y-118478162D01*
X137106530Y-118400164D01*
X137259160Y-118502148D01*
X137307414Y-118511746D01*
X137550000Y-118560000D01*
X137685198Y-118560000D01*
X137939100Y-118813902D01*
X137939100Y-118880235D01*
X137673785Y-118827460D01*
X137324415Y-118827460D01*
X136899636Y-118911954D01*
X136539526Y-119152571D01*
X136298909Y-119512681D01*
X136214415Y-119937460D01*
X136298909Y-120362239D01*
X136539526Y-120722349D01*
X136899636Y-120962966D01*
X137324415Y-121047460D01*
X137673785Y-121047460D01*
X137984642Y-120985627D01*
X138035010Y-121063901D01*
X138247210Y-121208891D01*
X138499100Y-121259900D01*
X138899100Y-121259900D01*
X139028689Y-121235516D01*
X139149100Y-121259900D01*
X139549100Y-121259900D01*
X139678689Y-121235516D01*
X139799100Y-121259900D01*
X140199100Y-121259900D01*
X140328689Y-121235516D01*
X140449100Y-121259900D01*
X140849100Y-121259900D01*
X140978689Y-121235516D01*
X141099100Y-121259900D01*
X141499100Y-121259900D01*
X141734417Y-121215622D01*
X141950541Y-121076550D01*
X142012773Y-120985470D01*
X142324415Y-121047460D01*
X142673785Y-121047460D01*
X143098564Y-120962966D01*
X143458674Y-120722349D01*
X143699291Y-120362239D01*
X143783785Y-119937460D01*
X143699291Y-119512681D01*
X143458674Y-119152571D01*
X143098564Y-118911954D01*
X142673785Y-118827460D01*
X142324415Y-118827460D01*
X142060000Y-118880056D01*
X142060000Y-118633111D01*
X142134555Y-118558686D01*
X142284828Y-118196788D01*
X142285170Y-117804931D01*
X142135529Y-117442771D01*
X141858686Y-117165445D01*
X141602947Y-117059253D01*
X141635317Y-117053162D01*
X141851441Y-116914090D01*
X141996431Y-116701890D01*
X142047440Y-116450000D01*
X142047440Y-115250000D01*
X142003162Y-115014683D01*
X141864090Y-114798559D01*
X141794289Y-114750866D01*
X141851441Y-114714090D01*
X141996431Y-114501890D01*
X142015039Y-114410000D01*
X142558203Y-114410000D01*
X142648110Y-114471431D01*
X142900000Y-114522440D01*
X144100000Y-114522440D01*
X144335317Y-114478162D01*
X144449978Y-114404380D01*
X144548110Y-114471431D01*
X144800000Y-114522440D01*
X146000000Y-114522440D01*
X146235317Y-114478162D01*
X146451441Y-114339090D01*
X146469482Y-114312685D01*
X146491314Y-114334555D01*
X146853212Y-114484828D01*
X147245069Y-114485170D01*
X147607229Y-114335529D01*
X147884555Y-114058686D01*
X148034828Y-113696788D01*
X148035170Y-113304931D01*
X147885529Y-112942771D01*
X147608686Y-112665445D01*
X147246788Y-112515172D01*
X146854931Y-112514830D01*
X146492771Y-112664471D01*
X146471747Y-112685458D01*
X146464090Y-112673559D01*
X146251890Y-112528569D01*
X146000000Y-112477560D01*
X144800000Y-112477560D01*
X144564683Y-112521838D01*
X144450022Y-112595620D01*
X144351890Y-112528569D01*
X144100000Y-112477560D01*
X142900000Y-112477560D01*
X142664683Y-112521838D01*
X142448559Y-112660910D01*
X142303569Y-112873110D01*
X142300149Y-112890000D01*
X142017334Y-112890000D01*
X142003162Y-112814683D01*
X141864090Y-112598559D01*
X141651890Y-112453569D01*
X141400000Y-112402560D01*
X140560000Y-112402560D01*
X140560000Y-109115974D01*
X140635910Y-109233941D01*
X140848110Y-109378931D01*
X141100000Y-109429940D01*
X142800000Y-109429940D01*
X143035317Y-109385662D01*
X143251441Y-109246590D01*
X143396431Y-109034390D01*
X143447440Y-108782500D01*
X143447440Y-108432500D01*
X143419642Y-108284769D01*
X143447440Y-108147500D01*
X143447440Y-108110000D01*
X144707666Y-108110000D01*
X144721838Y-108185317D01*
X144860910Y-108401441D01*
X145073110Y-108546431D01*
X145325000Y-108597440D01*
X146075000Y-108597440D01*
X146310317Y-108553162D01*
X146526441Y-108414090D01*
X146671431Y-108201890D01*
X146722440Y-107950000D01*
X146722440Y-106750000D01*
X146678162Y-106514683D01*
X146604380Y-106400022D01*
X146629799Y-106362821D01*
X146803212Y-106434828D01*
X147195069Y-106435170D01*
X147557229Y-106285529D01*
X147834555Y-106008686D01*
X147984828Y-105646788D01*
X147985170Y-105254931D01*
X147835529Y-104892771D01*
X147558686Y-104615445D01*
X147196788Y-104465172D01*
X146804931Y-104464830D01*
X146628614Y-104537683D01*
X146539090Y-104398559D01*
X146326890Y-104253569D01*
X146075000Y-104202560D01*
X145325000Y-104202560D01*
X145089683Y-104246838D01*
X144873559Y-104385910D01*
X144728569Y-104598110D01*
X144713505Y-104672500D01*
X143447440Y-104672500D01*
X143447440Y-104622500D01*
X143419642Y-104474769D01*
X143447440Y-104337500D01*
X143447440Y-103987500D01*
X143419642Y-103839769D01*
X143447440Y-103702500D01*
X143447440Y-103352500D01*
X143419642Y-103204769D01*
X143447440Y-103067500D01*
X143447440Y-102717500D01*
X143403162Y-102482183D01*
X143264090Y-102266059D01*
X143051890Y-102121069D01*
X142800000Y-102070060D01*
X141210000Y-102070060D01*
X141210000Y-100550000D01*
X141152148Y-100259161D01*
X140987401Y-100012599D01*
X140337401Y-99362599D01*
X140090839Y-99197852D01*
X139800000Y-99140000D01*
X130014802Y-99140000D01*
X129360000Y-98485198D01*
X129360000Y-98233111D01*
X129434555Y-98158686D01*
X129584828Y-97796788D01*
X129585170Y-97404931D01*
X129435529Y-97042771D01*
X129158686Y-96765445D01*
X128796788Y-96615172D01*
X128404931Y-96614830D01*
X128042771Y-96764471D01*
X127881326Y-96925635D01*
X127934828Y-96796788D01*
X127935170Y-96404931D01*
X127785529Y-96042771D01*
X127508686Y-95765445D01*
X127146788Y-95615172D01*
X126754931Y-95614830D01*
X126392771Y-95764471D01*
X126115445Y-96041314D01*
X125965172Y-96403212D01*
X125964830Y-96795069D01*
X117345871Y-96795069D01*
X116332401Y-95781599D01*
X116085839Y-95616852D01*
X115795000Y-95559000D01*
X112759802Y-95559000D01*
X112655000Y-95454198D01*
X112655000Y-93969000D01*
X112597148Y-93678161D01*
X112432401Y-93431599D01*
X111432401Y-92431599D01*
X111185839Y-92266852D01*
X110895000Y-92209000D01*
X106059802Y-92209000D01*
X105860000Y-92009198D01*
X105860000Y-81000000D01*
X105802148Y-80709161D01*
X105637401Y-80462599D01*
X103237401Y-78062599D01*
X102995517Y-77900978D01*
X103013885Y-77873489D01*
X103127959Y-77300000D01*
X103013885Y-76726511D01*
X102689029Y-76240330D01*
X102374248Y-76030000D01*
X102689029Y-75819670D01*
X103013885Y-75333489D01*
X103080054Y-75000834D01*
X107059543Y-75000834D01*
X107459853Y-75969658D01*
X108200443Y-76711542D01*
X109168567Y-77113542D01*
X110216834Y-77114457D01*
X111185658Y-76714147D01*
X111927542Y-75973557D01*
X112329542Y-75005433D01*
X112329546Y-75000834D01*
X137359543Y-75000834D01*
X137759853Y-75969658D01*
X138500443Y-76711542D01*
X139468567Y-77113542D01*
X140516834Y-77114457D01*
X141485658Y-76714147D01*
X142227542Y-75973557D01*
X142629542Y-75005433D01*
X142630457Y-73957166D01*
X142230147Y-72988342D01*
X141489557Y-72246458D01*
X140521433Y-71844458D01*
X139473166Y-71843543D01*
X138504342Y-72243853D01*
X137762458Y-72984443D01*
X137360458Y-73952567D01*
X137359543Y-75000834D01*
X112329546Y-75000834D01*
X112330457Y-73957166D01*
X111930147Y-72988342D01*
X111189557Y-72246458D01*
X110221433Y-71844458D01*
X109173166Y-71843543D01*
X108204342Y-72243853D01*
X107462458Y-72984443D01*
X107060458Y-73952567D01*
X107059543Y-75000834D01*
X103080054Y-75000834D01*
X103127959Y-74760000D01*
X103013885Y-74186511D01*
X102689029Y-73700330D01*
X102374248Y-73490000D01*
X102689029Y-73279670D01*
X103013885Y-72793489D01*
X103127959Y-72220000D01*
X103013885Y-71646511D01*
X102689029Y-71160330D01*
X102374248Y-70950000D01*
X102689029Y-70739670D01*
X103013885Y-70253489D01*
X103127959Y-69680000D01*
X103014579Y-69110000D01*
X103150000Y-69110000D01*
X103440839Y-69052148D01*
X103687401Y-68887401D01*
X104187401Y-68387401D01*
X104352148Y-68140839D01*
X104410000Y-67850000D01*
X104410000Y-62996123D01*
X104503212Y-63034828D01*
X104895069Y-63035170D01*
X105257229Y-62885529D01*
X105534555Y-62608686D01*
X105684828Y-62246788D01*
X105685170Y-61854931D01*
X105535529Y-61492771D01*
X105460000Y-61417110D01*
X105460000Y-50690834D01*
X107059543Y-50690834D01*
X107459853Y-51659658D01*
X108200443Y-52401542D01*
X109168567Y-52803542D01*
X110216834Y-52804457D01*
X111185658Y-52404147D01*
X111927542Y-51663557D01*
X112329542Y-50695433D01*
X112329546Y-50690834D01*
X137359543Y-50690834D01*
X137759853Y-51659658D01*
X138500443Y-52401542D01*
X139468567Y-52803542D01*
X140516834Y-52804457D01*
X141485658Y-52404147D01*
X142227542Y-51663557D01*
X142629542Y-50695433D01*
X142630457Y-49647166D01*
X142230147Y-48678342D01*
X141489557Y-47936458D01*
X140521433Y-47534458D01*
X139473166Y-47533543D01*
X138504342Y-47933853D01*
X137762458Y-48674443D01*
X137360458Y-49642567D01*
X137359543Y-50690834D01*
X112329546Y-50690834D01*
X112330457Y-49647166D01*
X111930147Y-48678342D01*
X111189557Y-47936458D01*
X110221433Y-47534458D01*
X109173166Y-47533543D01*
X108204342Y-47933853D01*
X107462458Y-48674443D01*
X107060458Y-49642567D01*
X107059543Y-50690834D01*
X105460000Y-50690834D01*
X105460000Y-47314802D01*
X106979733Y-45795069D01*
X136114830Y-45795069D01*
X136264471Y-46157229D01*
X136541314Y-46434555D01*
X136903212Y-46584828D01*
X137295069Y-46585170D01*
X137657229Y-46435529D01*
X137732890Y-46360000D01*
X144785198Y-46360000D01*
X145962599Y-47537401D01*
X146209161Y-47702148D01*
X146500000Y-47760000D01*
X147085198Y-47760000D01*
X147590000Y-48264802D01*
X147590000Y-84450000D01*
X147647852Y-84740839D01*
X147812599Y-84987401D01*
X147962599Y-85137401D01*
X148209161Y-85302148D01*
X148500000Y-85360000D01*
X148570738Y-85360000D01*
X148770971Y-85659670D01*
X149085752Y-85870000D01*
X148770971Y-86080330D01*
X148446115Y-86566511D01*
X148332041Y-87140000D01*
X148446115Y-87713489D01*
X148770971Y-88199670D01*
X149085752Y-88410000D01*
X148770971Y-88620330D01*
X148446115Y-89106511D01*
X148332041Y-89680000D01*
X148446115Y-90253489D01*
X148770971Y-90739670D01*
X149085752Y-90950000D01*
X148770971Y-91160330D01*
X148446115Y-91646511D01*
X148332041Y-92220000D01*
X148446115Y-92793489D01*
X148770971Y-93279670D01*
X149085752Y-93490000D01*
X148770971Y-93700330D01*
X148446115Y-94186511D01*
X148332041Y-94760000D01*
X148446115Y-95333489D01*
X148770971Y-95819670D01*
X149085752Y-96030000D01*
X148770971Y-96240330D01*
X148446115Y-96726511D01*
X148332041Y-97300000D01*
X148446115Y-97873489D01*
X148770971Y-98359670D01*
X149085752Y-98570000D01*
X148770971Y-98780330D01*
X148446115Y-99266511D01*
X148332041Y-99840000D01*
X148446115Y-100413489D01*
X148770971Y-100899670D01*
X149085752Y-101110000D01*
X148770971Y-101320330D01*
X148446115Y-101806511D01*
X148332041Y-102380000D01*
X148446115Y-102953489D01*
X148770971Y-103439670D01*
X149085752Y-103650000D01*
X148770971Y-103860330D01*
X148446115Y-104346511D01*
X148332041Y-104920000D01*
X148446115Y-105493489D01*
X148770971Y-105979670D01*
X149085752Y-106190000D01*
X148770971Y-106400330D01*
X148446115Y-106886511D01*
X148332041Y-107460000D01*
X148446115Y-108033489D01*
X148770971Y-108519670D01*
X149085752Y-108730000D01*
X148770971Y-108940330D01*
X148446115Y-109426511D01*
X148332041Y-110000000D01*
X148446115Y-110573489D01*
X148770971Y-111059670D01*
X149257152Y-111384526D01*
X149830641Y-111498600D01*
X149889359Y-111498600D01*
X150462848Y-111384526D01*
X150928442Y-111073426D01*
X150933238Y-111098917D01*
X151072310Y-111315041D01*
X151284510Y-111460031D01*
X151536400Y-111511040D01*
X153263600Y-111511040D01*
X153498917Y-111466762D01*
X153715041Y-111327690D01*
X153860031Y-111115490D01*
X153911040Y-110863600D01*
X153911040Y-110749026D01*
X158692642Y-110749026D01*
X158695291Y-110764791D01*
X158949268Y-111292036D01*
X159385680Y-111681954D01*
X159938087Y-111875184D01*
X160173000Y-111730924D01*
X160173000Y-110517000D01*
X158813783Y-110517000D01*
X158692642Y-110749026D01*
X153911040Y-110749026D01*
X153911040Y-109136400D01*
X153866762Y-108901083D01*
X153727690Y-108684959D01*
X153515490Y-108539969D01*
X153471869Y-108531136D01*
X153489029Y-108519670D01*
X153813885Y-108033489D01*
X153927959Y-107460000D01*
X153813885Y-106886511D01*
X153489029Y-106400330D01*
X153174248Y-106190000D01*
X153489029Y-105979670D01*
X153813885Y-105493489D01*
X153927959Y-104920000D01*
X153813885Y-104346511D01*
X153489029Y-103860330D01*
X153174248Y-103650000D01*
X153489029Y-103439670D01*
X153813885Y-102953489D01*
X153927959Y-102380000D01*
X153813885Y-101806511D01*
X153489029Y-101320330D01*
X153174248Y-101110000D01*
X153489029Y-100899670D01*
X153813885Y-100413489D01*
X153856544Y-100199026D01*
X158692642Y-100199026D01*
X158695291Y-100214791D01*
X158949268Y-100742036D01*
X159385680Y-101131954D01*
X159938087Y-101325184D01*
X160173000Y-101180924D01*
X160173000Y-99967000D01*
X158813783Y-99967000D01*
X158692642Y-100199026D01*
X153856544Y-100199026D01*
X153927959Y-99840000D01*
X153813885Y-99266511D01*
X153489029Y-98780330D01*
X153174248Y-98570000D01*
X153489029Y-98359670D01*
X153813885Y-97873489D01*
X153927959Y-97300000D01*
X153813885Y-96726511D01*
X153489029Y-96240330D01*
X153174248Y-96030000D01*
X153489029Y-95819670D01*
X153813885Y-95333489D01*
X153927959Y-94760000D01*
X153813885Y-94186511D01*
X153489029Y-93700330D01*
X153174248Y-93490000D01*
X153489029Y-93279670D01*
X153813885Y-92793489D01*
X153927959Y-92220000D01*
X153813885Y-91646511D01*
X153489029Y-91160330D01*
X153174248Y-90950000D01*
X153489029Y-90739670D01*
X153813885Y-90253489D01*
X153927959Y-89680000D01*
X153813885Y-89106511D01*
X153489029Y-88620330D01*
X153174248Y-88410000D01*
X153489029Y-88199670D01*
X153813885Y-87713489D01*
X153927959Y-87140000D01*
X153813885Y-86566511D01*
X153489029Y-86080330D01*
X153174248Y-85870000D01*
X153489029Y-85659670D01*
X153813885Y-85173489D01*
X153927959Y-84600000D01*
X153813885Y-84026511D01*
X153489029Y-83540330D01*
X153174248Y-83330000D01*
X153489029Y-83119670D01*
X153813885Y-82633489D01*
X153927959Y-82060000D01*
X153813885Y-81486511D01*
X153489029Y-81000330D01*
X153174248Y-80790000D01*
X153489029Y-80579670D01*
X153813885Y-80093489D01*
X153927959Y-79520000D01*
X153813885Y-78946511D01*
X153489029Y-78460330D01*
X153174248Y-78250000D01*
X153489029Y-78039670D01*
X153813885Y-77553489D01*
X153927959Y-76980000D01*
X153813885Y-76406511D01*
X153489029Y-75920330D01*
X153174248Y-75710000D01*
X153489029Y-75499670D01*
X153813885Y-75013489D01*
X153927959Y-74440000D01*
X153813885Y-73866511D01*
X153489029Y-73380330D01*
X153174248Y-73170000D01*
X153489029Y-72959670D01*
X153813885Y-72473489D01*
X153927959Y-71900000D01*
X153813885Y-71326511D01*
X153489029Y-70840330D01*
X153174248Y-70630000D01*
X153489029Y-70419670D01*
X153813885Y-69933489D01*
X153927959Y-69360000D01*
X153813885Y-68786511D01*
X153489029Y-68300330D01*
X153174248Y-68090000D01*
X153489029Y-67879670D01*
X153813885Y-67393489D01*
X153927959Y-66820000D01*
X153813885Y-66246511D01*
X153489029Y-65760330D01*
X153174248Y-65550000D01*
X153489029Y-65339670D01*
X153813885Y-64853489D01*
X153927959Y-64280000D01*
X153813885Y-63706511D01*
X153489029Y-63220330D01*
X153174248Y-63010000D01*
X153489029Y-62799670D01*
X153813885Y-62313489D01*
X153927959Y-61740000D01*
X153813885Y-61166511D01*
X153489029Y-60680330D01*
X153174248Y-60470000D01*
X153489029Y-60259670D01*
X153813885Y-59773489D01*
X153927959Y-59200000D01*
X153813885Y-58626511D01*
X153489029Y-58140330D01*
X153174248Y-57930000D01*
X153489029Y-57719670D01*
X153813885Y-57233489D01*
X153927959Y-56660000D01*
X153813885Y-56086511D01*
X153489029Y-55600330D01*
X153174248Y-55390000D01*
X153489029Y-55179670D01*
X153813885Y-54693489D01*
X153927959Y-54120000D01*
X153813885Y-53546511D01*
X153489029Y-53060330D01*
X153174248Y-52850000D01*
X153489029Y-52639670D01*
X153813885Y-52153489D01*
X153927959Y-51580000D01*
X153813885Y-51006511D01*
X153489029Y-50520330D01*
X153174248Y-50310000D01*
X153489029Y-50099670D01*
X153813885Y-49613489D01*
X153876435Y-49299026D01*
X158692642Y-49299026D01*
X158695291Y-49314791D01*
X158949268Y-49842036D01*
X159385680Y-50231954D01*
X159938087Y-50425184D01*
X160173000Y-50280924D01*
X160173000Y-49067000D01*
X158813783Y-49067000D01*
X158692642Y-49299026D01*
X153876435Y-49299026D01*
X153927959Y-49040000D01*
X153813885Y-48466511D01*
X153489029Y-47980330D01*
X153002848Y-47655474D01*
X152429359Y-47541400D01*
X152370641Y-47541400D01*
X151797152Y-47655474D01*
X151310971Y-47980330D01*
X151130000Y-48251172D01*
X150949029Y-47980330D01*
X150462848Y-47655474D01*
X149889359Y-47541400D01*
X149830641Y-47541400D01*
X149257152Y-47655474D01*
X149075551Y-47776816D01*
X149052148Y-47659161D01*
X148887401Y-47412599D01*
X147937401Y-46462599D01*
X147690839Y-46297852D01*
X147400000Y-46240000D01*
X146814802Y-46240000D01*
X145637401Y-45062599D01*
X145390839Y-44897852D01*
X145100000Y-44840000D01*
X137733111Y-44840000D01*
X137658686Y-44765445D01*
X137296788Y-44615172D01*
X136904931Y-44614830D01*
X136542771Y-44764471D01*
X136265445Y-45041314D01*
X136115172Y-45403212D01*
X136114830Y-45795069D01*
X106979733Y-45795069D01*
X109864802Y-42910000D01*
X119585198Y-42910000D01*
X120240000Y-43564802D01*
X120240000Y-43850000D01*
X120297852Y-44140839D01*
X120462599Y-44387401D01*
X121162598Y-45087401D01*
X121275141Y-45162599D01*
X121409161Y-45252148D01*
X121700000Y-45310000D01*
X123602400Y-45310000D01*
X123893239Y-45252148D01*
X124139801Y-45087401D01*
X125119536Y-44107666D01*
X125500000Y-44183345D01*
X126073489Y-44069271D01*
X126559670Y-43744415D01*
X126770000Y-43429634D01*
X126980330Y-43744415D01*
X127466511Y-44069271D01*
X128040000Y-44183345D01*
X128613489Y-44069271D01*
X129099670Y-43744415D01*
X129306461Y-43434931D01*
X129677964Y-43850732D01*
X130205209Y-44104709D01*
X130220974Y-44107358D01*
X130453000Y-43986217D01*
X130453000Y-42627000D01*
X130707000Y-42627000D01*
X130707000Y-43986217D01*
X130939026Y-44107358D01*
X130954791Y-44104709D01*
X131482036Y-43850732D01*
X131763460Y-43535750D01*
X154040000Y-43535750D01*
X154040000Y-43976309D01*
X154136673Y-44209698D01*
X154315301Y-44388327D01*
X154548690Y-44485000D01*
X154764250Y-44485000D01*
X154923000Y-44326250D01*
X154923000Y-43377000D01*
X155177000Y-43377000D01*
X155177000Y-44326250D01*
X155335750Y-44485000D01*
X155551310Y-44485000D01*
X155784699Y-44388327D01*
X155963327Y-44209698D01*
X156060000Y-43976309D01*
X156060000Y-43535750D01*
X155901250Y-43377000D01*
X155177000Y-43377000D01*
X154923000Y-43377000D01*
X154198750Y-43377000D01*
X154040000Y-43535750D01*
X131763460Y-43535750D01*
X131871954Y-43414320D01*
X132065184Y-42861913D01*
X131920924Y-42627000D01*
X130707000Y-42627000D01*
X130453000Y-42627000D01*
X130433000Y-42627000D01*
X130433000Y-42373000D01*
X130453000Y-42373000D01*
X130453000Y-41013783D01*
X130707000Y-41013783D01*
X130707000Y-42373000D01*
X131920924Y-42373000D01*
X132065184Y-42138087D01*
X131871954Y-41585680D01*
X131482036Y-41149268D01*
X130954791Y-40895291D01*
X130939026Y-40892642D01*
X130707000Y-41013783D01*
X130453000Y-41013783D01*
X130220974Y-40892642D01*
X130205209Y-40895291D01*
X129677964Y-41149268D01*
X129306461Y-41565069D01*
X129099670Y-41255585D01*
X128759017Y-41027968D01*
X128742148Y-40943161D01*
X128577401Y-40696599D01*
X128403242Y-40522440D01*
X129050000Y-40522440D01*
X129285317Y-40478162D01*
X129388646Y-40411671D01*
X129390302Y-40413327D01*
X129623691Y-40510000D01*
X130064250Y-40510000D01*
X130223000Y-40351250D01*
X130223000Y-39627000D01*
X130477000Y-39627000D01*
X130477000Y-40351250D01*
X130635750Y-40510000D01*
X131076309Y-40510000D01*
X131309698Y-40413327D01*
X131488327Y-40234699D01*
X131585000Y-40001310D01*
X131585000Y-39785750D01*
X131426250Y-39627000D01*
X130477000Y-39627000D01*
X130223000Y-39627000D01*
X130203000Y-39627000D01*
X130203000Y-39373000D01*
X130223000Y-39373000D01*
X130223000Y-38648750D01*
X130477000Y-38648750D01*
X130477000Y-39373000D01*
X131426250Y-39373000D01*
X131585000Y-39214250D01*
X131585000Y-38998690D01*
X131488327Y-38765301D01*
X131309698Y-38586673D01*
X131076309Y-38490000D01*
X130635750Y-38490000D01*
X130477000Y-38648750D01*
X130223000Y-38648750D01*
X130064250Y-38490000D01*
X129623691Y-38490000D01*
X129390302Y-38586673D01*
X129388932Y-38588043D01*
X129301890Y-38528569D01*
X129050000Y-38477560D01*
X127850000Y-38477560D01*
X127614683Y-38521838D01*
X127398559Y-38660910D01*
X127344519Y-38740000D01*
X127083111Y-38740000D01*
X127008686Y-38665445D01*
X126646788Y-38515172D01*
X126254931Y-38514830D01*
X125892771Y-38664471D01*
X125615445Y-38941314D01*
X125465172Y-39303212D01*
X125464830Y-39695069D01*
X125566033Y-39940000D01*
X121150000Y-39940000D01*
X120859160Y-39997852D01*
X120612599Y-40162599D01*
X119935198Y-40840000D01*
X108900000Y-40840000D01*
X108609160Y-40897852D01*
X108362599Y-41062599D01*
X103112599Y-46312599D01*
X102947852Y-46559161D01*
X102890000Y-46850000D01*
X102890000Y-48601104D01*
X102689029Y-48300330D01*
X102202848Y-47975474D01*
X101629359Y-47861400D01*
X101570641Y-47861400D01*
X100997152Y-47975474D01*
X100510971Y-48300330D01*
X100330000Y-48571172D01*
X100149029Y-48300330D01*
X99662848Y-47975474D01*
X99089359Y-47861400D01*
X99030641Y-47861400D01*
X98457152Y-47975474D01*
X98164458Y-48171046D01*
X98152148Y-48109161D01*
X97987401Y-47862599D01*
X96584802Y-46460000D01*
X100050000Y-46460000D01*
X100340839Y-46402148D01*
X100587401Y-46237401D01*
X104889855Y-41934947D01*
X105145069Y-41935170D01*
X105507229Y-41785529D01*
X105784555Y-41508686D01*
X105934828Y-41146788D01*
X105935170Y-40754931D01*
X105785529Y-40392771D01*
X105508686Y-40115445D01*
X105146788Y-39965172D01*
X104754931Y-39964830D01*
X104392771Y-40114471D01*
X104115445Y-40391314D01*
X103995838Y-40679360D01*
X99735198Y-44940000D01*
X92830802Y-44940000D01*
X91653401Y-43762599D01*
X91406839Y-43597852D01*
X91322032Y-43580983D01*
X91094415Y-43240330D01*
X90784931Y-43033539D01*
X91200732Y-42662036D01*
X91454709Y-42134791D01*
X91457358Y-42119026D01*
X91336217Y-41887000D01*
X89977000Y-41887000D01*
X89977000Y-41907000D01*
X89723000Y-41907000D01*
X89723000Y-41887000D01*
X88363783Y-41887000D01*
X88242642Y-42119026D01*
X88245291Y-42134791D01*
X88499268Y-42662036D01*
X88915069Y-43033539D01*
X88605585Y-43240330D01*
X88280729Y-43726511D01*
X88166655Y-44300000D01*
X88280729Y-44873489D01*
X88605585Y-45359670D01*
X88920366Y-45570000D01*
X88605585Y-45780330D01*
X88280729Y-46266511D01*
X88166655Y-46840000D01*
X88280729Y-47413489D01*
X88605585Y-47899670D01*
X88619913Y-47909243D01*
X88598683Y-47913238D01*
X88382559Y-48052310D01*
X88237569Y-48264510D01*
X88186560Y-48516400D01*
X88186560Y-50243600D01*
X88230838Y-50478917D01*
X88369910Y-50695041D01*
X88582110Y-50840031D01*
X88834000Y-50891040D01*
X90866000Y-50891040D01*
X91101317Y-50846762D01*
X91317441Y-50707690D01*
X91462431Y-50495490D01*
X91513440Y-50243600D01*
X91513440Y-48516400D01*
X91469162Y-48281083D01*
X91330090Y-48064959D01*
X91117890Y-47919969D01*
X91076561Y-47911600D01*
X91094415Y-47899670D01*
X91294648Y-47600000D01*
X95575198Y-47600000D01*
X96690000Y-48714802D01*
X96690000Y-75285198D01*
X96012599Y-75962599D01*
X95847852Y-76209161D01*
X95790000Y-76500000D01*
X95790000Y-78950000D01*
X95847852Y-79240839D01*
X96012599Y-79487401D01*
X96290000Y-79764802D01*
X96290000Y-83850000D01*
X96347852Y-84140839D01*
X96512599Y-84387401D01*
X96740000Y-84614802D01*
X96740000Y-106000000D01*
X96797852Y-106290839D01*
X96962599Y-106537401D01*
X97462599Y-107037401D01*
X97667590Y-107174371D01*
X97646115Y-107206511D01*
X97532041Y-107780000D01*
X97646115Y-108353489D01*
X97970971Y-108839670D01*
X98294228Y-109055664D01*
X98171510Y-109113179D01*
X97777312Y-109545053D01*
X97605042Y-109960974D01*
X97726183Y-110193000D01*
X98933000Y-110193000D01*
X98933000Y-110173000D01*
X99187000Y-110173000D01*
X99187000Y-110193000D01*
X101473000Y-110193000D01*
X101473000Y-110173000D01*
X101727000Y-110173000D01*
X101727000Y-110193000D01*
X102939850Y-110193000D01*
X103098600Y-110034250D01*
X103098600Y-109330090D01*
X103001927Y-109096701D01*
X102823298Y-108918073D01*
X102667977Y-108853737D01*
X102689029Y-108839670D01*
X103013885Y-108353489D01*
X103127959Y-107780000D01*
X103013885Y-107206511D01*
X102689029Y-106720330D01*
X102374248Y-106510000D01*
X102689029Y-106299670D01*
X103013885Y-105813489D01*
X103127959Y-105240000D01*
X103013885Y-104666511D01*
X102689029Y-104180330D01*
X102374248Y-103970000D01*
X102689029Y-103759670D01*
X103013885Y-103273489D01*
X103127959Y-102700000D01*
X103013885Y-102126511D01*
X102689029Y-101640330D01*
X102374248Y-101430000D01*
X102689029Y-101219670D01*
X103013885Y-100733489D01*
X103127959Y-100160000D01*
X103013885Y-99586511D01*
X102689029Y-99100330D01*
X102374248Y-98890000D01*
X102689029Y-98679670D01*
X103013885Y-98193489D01*
X103127959Y-97620000D01*
X103013885Y-97046511D01*
X102689029Y-96560330D01*
X102374248Y-96350000D01*
X102689029Y-96139670D01*
X102835000Y-95921209D01*
X102835000Y-96119000D01*
X102892852Y-96409839D01*
X103057599Y-96656401D01*
X104307599Y-97906401D01*
X104398556Y-97967176D01*
X104347560Y-98219000D01*
X104347560Y-99119000D01*
X104391838Y-99354317D01*
X104530910Y-99570441D01*
X104743110Y-99715431D01*
X104835000Y-99734039D01*
X104835000Y-99835889D01*
X104760445Y-99910314D01*
X104610172Y-100272212D01*
X104609830Y-100664069D01*
X104759471Y-101026229D01*
X105036314Y-101303555D01*
X105398212Y-101453828D01*
X105790069Y-101454170D01*
X106152229Y-101304529D01*
X106429555Y-101027686D01*
X106579828Y-100665788D01*
X106580170Y-100273931D01*
X106430529Y-99911771D01*
X106355000Y-99836110D01*
X106355000Y-99736334D01*
X106430317Y-99722162D01*
X106646441Y-99583090D01*
X106694134Y-99513289D01*
X106730910Y-99570441D01*
X106943110Y-99715431D01*
X107195000Y-99766440D01*
X108395000Y-99766440D01*
X108630317Y-99722162D01*
X108846441Y-99583090D01*
X108951726Y-99429000D01*
X109790000Y-99429000D01*
X109790000Y-101685198D01*
X109785198Y-101690000D01*
X107450000Y-101690000D01*
X107207414Y-101738254D01*
X107159160Y-101747852D01*
X106912599Y-101912599D01*
X105112599Y-103712599D01*
X104947852Y-103959161D01*
X104890000Y-104250000D01*
X104890000Y-107630898D01*
X104810445Y-107710314D01*
X104660172Y-108072212D01*
X104659830Y-108464069D01*
X104809471Y-108826229D01*
X105086314Y-109103555D01*
X105448212Y-109253828D01*
X105840069Y-109254170D01*
X106120242Y-109138405D01*
X106122908Y-109139512D01*
X104869210Y-110393210D01*
X104677367Y-110680325D01*
X104675443Y-110690000D01*
X104609999Y-111019000D01*
X104610000Y-111019005D01*
X104610000Y-111902421D01*
X103678420Y-112834000D01*
X97545000Y-112834000D01*
X97206325Y-112901367D01*
X96919210Y-113093210D01*
X96919208Y-113093213D01*
X90334210Y-119678210D01*
X90142367Y-119965325D01*
X90139814Y-119978162D01*
X90074999Y-120304000D01*
X90075000Y-120304005D01*
X90075000Y-121111506D01*
X89935000Y-121205051D01*
X89935000Y-115152079D01*
X90221155Y-115438735D01*
X90693276Y-115634777D01*
X91204481Y-115635223D01*
X91676943Y-115440005D01*
X92038735Y-115078845D01*
X92234777Y-114606724D01*
X92235223Y-114095519D01*
X92040005Y-113623057D01*
X91678845Y-113261265D01*
X91374765Y-113135000D01*
X91726310Y-113135000D01*
X91959699Y-113038327D01*
X92138327Y-112859698D01*
X92235000Y-112626309D01*
X92235000Y-112135750D01*
X92076250Y-111977000D01*
X91077000Y-111977000D01*
X91077000Y-111997000D01*
X90823000Y-111997000D01*
X90823000Y-111977000D01*
X90803000Y-111977000D01*
X90803000Y-111723000D01*
X90823000Y-111723000D01*
X90823000Y-110723750D01*
X91077000Y-110723750D01*
X91077000Y-111723000D01*
X92076250Y-111723000D01*
X92235000Y-111564250D01*
X92235000Y-111073691D01*
X92138327Y-110840302D01*
X91977052Y-110679026D01*
X97605042Y-110679026D01*
X97777312Y-111094947D01*
X98171510Y-111526821D01*
X98700973Y-111774968D01*
X98933000Y-111654469D01*
X98933000Y-110447000D01*
X99187000Y-110447000D01*
X99187000Y-111654469D01*
X99419027Y-111774968D01*
X99948490Y-111526821D01*
X100115471Y-111343881D01*
X100198073Y-111543299D01*
X100376702Y-111721927D01*
X100610091Y-111818600D01*
X101314250Y-111818600D01*
X101473000Y-111659850D01*
X101473000Y-110447000D01*
X101727000Y-110447000D01*
X101727000Y-111659850D01*
X101885750Y-111818600D01*
X102589909Y-111818600D01*
X102823298Y-111721927D01*
X103001927Y-111543299D01*
X103098600Y-111309910D01*
X103098600Y-110605750D01*
X102939850Y-110447000D01*
X101727000Y-110447000D01*
X101473000Y-110447000D01*
X99187000Y-110447000D01*
X98933000Y-110447000D01*
X97726183Y-110447000D01*
X97605042Y-110679026D01*
X91977052Y-110679026D01*
X91959699Y-110661673D01*
X91726310Y-110565000D01*
X91235750Y-110565000D01*
X91077000Y-110723750D01*
X90823000Y-110723750D01*
X90664250Y-110565000D01*
X90173690Y-110565000D01*
X89940301Y-110661673D01*
X89935000Y-110666974D01*
X89935000Y-108646192D01*
X89999978Y-108604380D01*
X90098110Y-108671431D01*
X90350000Y-108722440D01*
X91550000Y-108722440D01*
X91785317Y-108678162D01*
X92001441Y-108539090D01*
X92146431Y-108326890D01*
X92197440Y-108075000D01*
X92197440Y-107325000D01*
X92153162Y-107089683D01*
X92014090Y-106873559D01*
X91814301Y-106737049D01*
X91934828Y-106446788D01*
X91935170Y-106054931D01*
X91785529Y-105692771D01*
X91508686Y-105415445D01*
X91146788Y-105265172D01*
X90754931Y-105264830D01*
X90486940Y-105375561D01*
X90486940Y-104785750D01*
X92125500Y-104785750D01*
X92125500Y-106150310D01*
X92222173Y-106383699D01*
X92400802Y-106562327D01*
X92634191Y-106659000D01*
X93300250Y-106659000D01*
X93459000Y-106500250D01*
X93459000Y-104627000D01*
X93713000Y-104627000D01*
X93713000Y-106500250D01*
X93871750Y-106659000D01*
X94537809Y-106659000D01*
X94771198Y-106562327D01*
X94949827Y-106383699D01*
X95046500Y-106150310D01*
X95046500Y-104785750D01*
X94887750Y-104627000D01*
X93713000Y-104627000D01*
X93459000Y-104627000D01*
X92284250Y-104627000D01*
X92125500Y-104785750D01*
X90486940Y-104785750D01*
X90486940Y-102976000D01*
X90463174Y-102849690D01*
X92125500Y-102849690D01*
X92125500Y-104214250D01*
X92284250Y-104373000D01*
X93459000Y-104373000D01*
X93459000Y-102499750D01*
X93713000Y-102499750D01*
X93713000Y-104373000D01*
X94887750Y-104373000D01*
X95046500Y-104214250D01*
X95046500Y-102849690D01*
X94949827Y-102616301D01*
X94771198Y-102437673D01*
X94537809Y-102341000D01*
X93871750Y-102341000D01*
X93713000Y-102499750D01*
X93459000Y-102499750D01*
X93300250Y-102341000D01*
X92634191Y-102341000D01*
X92400802Y-102437673D01*
X92222173Y-102616301D01*
X92125500Y-102849690D01*
X90463174Y-102849690D01*
X90442662Y-102740683D01*
X90303590Y-102524559D01*
X90091390Y-102379569D01*
X89839500Y-102328560D01*
X88188500Y-102328560D01*
X88127000Y-102340132D01*
X88127000Y-101820127D01*
X88252000Y-101845440D01*
X94348000Y-101845440D01*
X94583317Y-101801162D01*
X94799441Y-101662090D01*
X94944431Y-101449890D01*
X94995440Y-101198000D01*
X94995440Y-99090077D01*
X95103212Y-99134828D01*
X95495069Y-99135170D01*
X95857229Y-98985529D01*
X96134555Y-98708686D01*
X96284828Y-98346788D01*
X96285170Y-97954931D01*
X96135529Y-97592771D01*
X95858686Y-97315445D01*
X95496788Y-97165172D01*
X95104931Y-97164830D01*
X94995440Y-97210071D01*
X94995440Y-95102000D01*
X94951162Y-94866683D01*
X94812090Y-94650559D01*
X94599890Y-94505569D01*
X94348000Y-94454560D01*
X88252000Y-94454560D01*
X88127000Y-94478080D01*
X88127000Y-41400974D01*
X88242642Y-41400974D01*
X88363783Y-41633000D01*
X89723000Y-41633000D01*
X89723000Y-40419076D01*
X89977000Y-40419076D01*
X89977000Y-41633000D01*
X91336217Y-41633000D01*
X91457358Y-41400974D01*
X91454709Y-41385209D01*
X91200732Y-40857964D01*
X90764320Y-40468046D01*
X90211913Y-40274816D01*
X89977000Y-40419076D01*
X89723000Y-40419076D01*
X89488087Y-40274816D01*
X88935680Y-40468046D01*
X88499268Y-40857964D01*
X88245291Y-41385209D01*
X88242642Y-41400974D01*
X88127000Y-41400974D01*
X88127000Y-39185750D01*
X88615000Y-39185750D01*
X88615000Y-39401310D01*
X88711673Y-39634699D01*
X88890302Y-39813327D01*
X89123691Y-39910000D01*
X89564250Y-39910000D01*
X89723000Y-39751250D01*
X89723000Y-39027000D01*
X88773750Y-39027000D01*
X88615000Y-39185750D01*
X88127000Y-39185750D01*
X88127000Y-38210000D01*
X88693158Y-38210000D01*
X88615000Y-38398690D01*
M02*
