<?xml version="1.0" standalone="no"?>
 <!DOCTYPE svg PUBLIC "-//W3C//DTD SVG 1.1//EN" 
 "http://www.w3.org/Graphics/SVG/1.1/DTD/svg11.dtd"> 
<svg xmlns="http://www.w3.org/2000/svg" version="1.1" 
    width="29.7002cm" height="21.0007cm" viewBox="0 0 116930 82680 ">
<title>SVG Picture created as MicroAHRS-F.Cu.svg date 2016/03/24 01:15:25 </title>
  <desc>Picture generated by PCBNEW </desc>
<g style="fill:#000000; fill-opacity:1;stroke:#000000; stroke-opacity:1;
stroke-linecap:round; stroke-linejoin:round; "
 transform="translate(0 0) scale(1 1)">
</g>
<g style="fill:#000000; fill-opacity:0.0; 
stroke:#000000; stroke-width:-0.000393701; stroke-opacity:1; 
stroke-linecap:round; stroke-linejoin:round;">
</g>
<g style="fill:#000000; fill-opacity:0.0; 
stroke:#000000; stroke-width:39.3701; stroke-opacity:1; 
stroke-linecap:round; stroke-linejoin:round;">
</g>
<g style="fill:#000000; fill-opacity:0.0; 
stroke:#000000; stroke-width:59.0551; stroke-opacity:1; 
stroke-linecap:round; stroke-linejoin:round;">
<rect x="69685.9" y="65357.2" width="42519.7" height="12598.4" rx="0" />
</g>
<g style="fill:#000000; fill-opacity:0.0; 
stroke:#000000; stroke-width:39.3701; stroke-opacity:1; 
stroke-linecap:round; stroke-linejoin:round;">
</g>
<g style="fill:#000000; fill-opacity:0.0; 
stroke:#000000; stroke-width:59.0551; stroke-opacity:1; 
stroke-linecap:round; stroke-linejoin:round;">
<rect x="3937.01" y="3937.01" width="109056" height="74806" rx="0" />
</g>
<g style="fill:#000000; fill-opacity:0.0; 
stroke:#000000; stroke-width:39.3701; stroke-opacity:1; 
stroke-linecap:round; stroke-linejoin:round;">
</g>
<g style="fill:#000000; fill-opacity:0.0; 
stroke:#000000; stroke-width:59.0551; stroke-opacity:1; 
stroke-linecap:round; stroke-linejoin:round;">
<rect x="4724.41" y="4724.41" width="107481" height="73231.2" rx="0" />
</g>
<g style="fill:#000000; fill-opacity:0.0; 
stroke:#000000; stroke-width:39.3701; stroke-opacity:1; 
stroke-linecap:round; stroke-linejoin:round;">
</g>
<g style="fill:#000000; fill-opacity:0.0; 
stroke:#000000; stroke-width:59.0551; stroke-opacity:1; 
stroke-linecap:round; stroke-linejoin:round;">
<path d="M23622 4724
L23622 3937
" />
</g>
<g style="fill:#000000; fill-opacity:0.0; 
stroke:#000000; stroke-width:39.3701; stroke-opacity:1; 
stroke-linecap:round; stroke-linejoin:round;">
</g>
<g style="fill:#000000; fill-opacity:0.0; 
stroke:#000000; stroke-width:59.0551; stroke-opacity:1; 
stroke-linecap:round; stroke-linejoin:round;">
<path d="M43307 4724
L43307 3937
" />
</g>
<g style="fill:#000000; fill-opacity:0.0; 
stroke:#000000; stroke-width:39.3701; stroke-opacity:1; 
stroke-linecap:round; stroke-linejoin:round;">
</g>
<g style="fill:#000000; fill-opacity:0.0; 
stroke:#000000; stroke-width:59.0551; stroke-opacity:1; 
stroke-linecap:round; stroke-linejoin:round;">
<path d="M62992 4724
L62992 3937
" />
</g>
<g style="fill:#000000; fill-opacity:0.0; 
stroke:#000000; stroke-width:39.3701; stroke-opacity:1; 
stroke-linecap:round; stroke-linejoin:round;">
</g>
<g style="fill:#000000; fill-opacity:0.0; 
stroke:#000000; stroke-width:59.0551; stroke-opacity:1; 
stroke-linecap:round; stroke-linejoin:round;">
<path d="M82677 4724
L82677 3937
" />
</g>
<g style="fill:#000000; fill-opacity:0.0; 
stroke:#000000; stroke-width:39.3701; stroke-opacity:1; 
stroke-linecap:round; stroke-linejoin:round;">
</g>
<g style="fill:#000000; fill-opacity:0.0; 
stroke:#000000; stroke-width:59.0551; stroke-opacity:1; 
stroke-linecap:round; stroke-linejoin:round;">
<path d="M102362 4724
L102362 3937
" />
</g>
<g style="fill:#000000; fill-opacity:0.0; 
stroke:#000000; stroke-width:39.3701; stroke-opacity:1; 
stroke-linecap:round; stroke-linejoin:round;">
</g>
<g style="fill:#000000; fill-opacity:0.0; 
stroke:#000000; stroke-width:59.0551; stroke-opacity:1; 
stroke-linecap:round; stroke-linejoin:round;">
<path d="M14169 4562
L13877 4562
" />
<path d="M14023 4562
L14023 4050
L13974 4123
L13925 4172
L13877 4196
" />
</g>
<g style="fill:#000000; fill-opacity:0.0; 
stroke:#000000; stroke-width:39.3701; stroke-opacity:1; 
stroke-linecap:round; stroke-linejoin:round;">
</g>
<g style="fill:#000000; fill-opacity:0.0; 
stroke:#000000; stroke-width:59.0551; stroke-opacity:1; 
stroke-linecap:round; stroke-linejoin:round;">
<path d="M33562 4099
L33586 4074
L33635 4050
L33757 4050
L33805 4074
L33830 4099
L33854 4147
L33854 4196
L33830 4269
L33537 4562
L33854 4562
" />
</g>
<g style="fill:#000000; fill-opacity:0.0; 
stroke:#000000; stroke-width:39.3701; stroke-opacity:1; 
stroke-linecap:round; stroke-linejoin:round;">
</g>
<g style="fill:#000000; fill-opacity:0.0; 
stroke:#000000; stroke-width:59.0551; stroke-opacity:1; 
stroke-linecap:round; stroke-linejoin:round;">
<path d="M53222 4050
L53539 4050
L53368 4245
L53442 4245
L53490 4269
L53515 4294
L53539 4342
L53539 4464
L53515 4513
L53490 4537
L53442 4562
L53295 4562
L53247 4537
L53222 4513
" />
</g>
<g style="fill:#000000; fill-opacity:0.0; 
stroke:#000000; stroke-width:39.3701; stroke-opacity:1; 
stroke-linecap:round; stroke-linejoin:round;">
</g>
<g style="fill:#000000; fill-opacity:0.0; 
stroke:#000000; stroke-width:59.0551; stroke-opacity:1; 
stroke-linecap:round; stroke-linejoin:round;">
<path d="M73175 4221
L73175 4562
" />
<path d="M73053 4026
L72932 4391
L73248 4391
" />
</g>
<g style="fill:#000000; fill-opacity:0.0; 
stroke:#000000; stroke-width:39.3701; stroke-opacity:1; 
stroke-linecap:round; stroke-linejoin:round;">
</g>
<g style="fill:#000000; fill-opacity:0.0; 
stroke:#000000; stroke-width:59.0551; stroke-opacity:1; 
stroke-linecap:round; stroke-linejoin:round;">
<path d="M92885 4050
L92641 4050
L92617 4294
L92641 4269
L92690 4245
L92812 4245
L92860 4269
L92885 4294
L92909 4342
L92909 4464
L92885 4513
L92860 4537
L92812 4562
L92690 4562
L92641 4537
L92617 4513
" />
</g>
<g style="fill:#000000; fill-opacity:0.0; 
stroke:#000000; stroke-width:39.3701; stroke-opacity:1; 
stroke-linecap:round; stroke-linejoin:round;">
</g>
<g style="fill:#000000; fill-opacity:0.0; 
stroke:#000000; stroke-width:59.0551; stroke-opacity:1; 
stroke-linecap:round; stroke-linejoin:round;">
<path d="M112545 4050
L112448 4050
L112399 4074
L112375 4099
L112326 4172
L112302 4269
L112302 4464
L112326 4513
L112350 4537
L112399 4562
L112497 4562
L112545 4537
L112570 4513
L112594 4464
L112594 4342
L112570 4294
L112545 4269
L112497 4245
L112399 4245
L112350 4269
L112326 4294
L112302 4342
" />
</g>
<g style="fill:#000000; fill-opacity:0.0; 
stroke:#000000; stroke-width:39.3701; stroke-opacity:1; 
stroke-linecap:round; stroke-linejoin:round;">
</g>
<g style="fill:#000000; fill-opacity:0.0; 
stroke:#000000; stroke-width:59.0551; stroke-opacity:1; 
stroke-linecap:round; stroke-linejoin:round;">
<path d="M23622 77955
L23622 78742
" />
</g>
<g style="fill:#000000; fill-opacity:0.0; 
stroke:#000000; stroke-width:39.3701; stroke-opacity:1; 
stroke-linecap:round; stroke-linejoin:round;">
</g>
<g style="fill:#000000; fill-opacity:0.0; 
stroke:#000000; stroke-width:59.0551; stroke-opacity:1; 
stroke-linecap:round; stroke-linejoin:round;">
<path d="M43307 77955
L43307 78742
" />
</g>
<g style="fill:#000000; fill-opacity:0.0; 
stroke:#000000; stroke-width:39.3701; stroke-opacity:1; 
stroke-linecap:round; stroke-linejoin:round;">
</g>
<g style="fill:#000000; fill-opacity:0.0; 
stroke:#000000; stroke-width:59.0551; stroke-opacity:1; 
stroke-linecap:round; stroke-linejoin:round;">
<path d="M62992 77955
L62992 78742
" />
</g>
<g style="fill:#000000; fill-opacity:0.0; 
stroke:#000000; stroke-width:39.3701; stroke-opacity:1; 
stroke-linecap:round; stroke-linejoin:round;">
</g>
<g style="fill:#000000; fill-opacity:0.0; 
stroke:#000000; stroke-width:59.0551; stroke-opacity:1; 
stroke-linecap:round; stroke-linejoin:round;">
<path d="M82677 77955
L82677 78742
" />
</g>
<g style="fill:#000000; fill-opacity:0.0; 
stroke:#000000; stroke-width:39.3701; stroke-opacity:1; 
stroke-linecap:round; stroke-linejoin:round;">
</g>
<g style="fill:#000000; fill-opacity:0.0; 
stroke:#000000; stroke-width:59.0551; stroke-opacity:1; 
stroke-linecap:round; stroke-linejoin:round;">
<path d="M102362 77955
L102362 78742
" />
</g>
<g style="fill:#000000; fill-opacity:0.0; 
stroke:#000000; stroke-width:39.3701; stroke-opacity:1; 
stroke-linecap:round; stroke-linejoin:round;">
</g>
<g style="fill:#000000; fill-opacity:0.0; 
stroke:#000000; stroke-width:59.0551; stroke-opacity:1; 
stroke-linecap:round; stroke-linejoin:round;">
<path d="M14169 78580
L13877 78580
" />
<path d="M14023 78580
L14023 78069
L13974 78142
L13925 78190
L13877 78215
" />
</g>
<g style="fill:#000000; fill-opacity:0.0; 
stroke:#000000; stroke-width:39.3701; stroke-opacity:1; 
stroke-linecap:round; stroke-linejoin:round;">
</g>
<g style="fill:#000000; fill-opacity:0.0; 
stroke:#000000; stroke-width:59.0551; stroke-opacity:1; 
stroke-linecap:round; stroke-linejoin:round;">
<path d="M33562 78117
L33586 78093
L33635 78069
L33757 78069
L33805 78093
L33830 78117
L33854 78166
L33854 78215
L33830 78288
L33537 78580
L33854 78580
" />
</g>
<g style="fill:#000000; fill-opacity:0.0; 
stroke:#000000; stroke-width:39.3701; stroke-opacity:1; 
stroke-linecap:round; stroke-linejoin:round;">
</g>
<g style="fill:#000000; fill-opacity:0.0; 
stroke:#000000; stroke-width:59.0551; stroke-opacity:1; 
stroke-linecap:round; stroke-linejoin:round;">
<path d="M53222 78069
L53539 78069
L53368 78263
L53442 78263
L53490 78288
L53515 78312
L53539 78361
L53539 78483
L53515 78532
L53490 78556
L53442 78580
L53295 78580
L53247 78556
L53222 78532
" />
</g>
<g style="fill:#000000; fill-opacity:0.0; 
stroke:#000000; stroke-width:39.3701; stroke-opacity:1; 
stroke-linecap:round; stroke-linejoin:round;">
</g>
<g style="fill:#000000; fill-opacity:0.0; 
stroke:#000000; stroke-width:59.0551; stroke-opacity:1; 
stroke-linecap:round; stroke-linejoin:round;">
<path d="M73175 78239
L73175 78580
" />
<path d="M73053 78044
L72932 78410
L73248 78410
" />
</g>
<g style="fill:#000000; fill-opacity:0.0; 
stroke:#000000; stroke-width:39.3701; stroke-opacity:1; 
stroke-linecap:round; stroke-linejoin:round;">
</g>
<g style="fill:#000000; fill-opacity:0.0; 
stroke:#000000; stroke-width:59.0551; stroke-opacity:1; 
stroke-linecap:round; stroke-linejoin:round;">
<path d="M92885 78069
L92641 78069
L92617 78312
L92641 78288
L92690 78263
L92812 78263
L92860 78288
L92885 78312
L92909 78361
L92909 78483
L92885 78532
L92860 78556
L92812 78580
L92690 78580
L92641 78556
L92617 78532
" />
</g>
<g style="fill:#000000; fill-opacity:0.0; 
stroke:#000000; stroke-width:39.3701; stroke-opacity:1; 
stroke-linecap:round; stroke-linejoin:round;">
</g>
<g style="fill:#000000; fill-opacity:0.0; 
stroke:#000000; stroke-width:59.0551; stroke-opacity:1; 
stroke-linecap:round; stroke-linejoin:round;">
<path d="M112545 78069
L112448 78069
L112399 78093
L112375 78117
L112326 78190
L112302 78288
L112302 78483
L112326 78532
L112350 78556
L112399 78580
L112497 78580
L112545 78556
L112570 78532
L112594 78483
L112594 78361
L112570 78312
L112545 78288
L112497 78263
L112399 78263
L112350 78288
L112326 78312
L112302 78361
" />
</g>
<g style="fill:#000000; fill-opacity:0.0; 
stroke:#000000; stroke-width:39.3701; stroke-opacity:1; 
stroke-linecap:round; stroke-linejoin:round;">
</g>
<g style="fill:#000000; fill-opacity:0.0; 
stroke:#000000; stroke-width:59.0551; stroke-opacity:1; 
stroke-linecap:round; stroke-linejoin:round;">
<path d="M3937 23622
L4724 23622
" />
</g>
<g style="fill:#000000; fill-opacity:0.0; 
stroke:#000000; stroke-width:39.3701; stroke-opacity:1; 
stroke-linecap:round; stroke-linejoin:round;">
</g>
<g style="fill:#000000; fill-opacity:0.0; 
stroke:#000000; stroke-width:59.0551; stroke-opacity:1; 
stroke-linecap:round; stroke-linejoin:round;">
<path d="M3937 43307
L4724 43307
" />
</g>
<g style="fill:#000000; fill-opacity:0.0; 
stroke:#000000; stroke-width:39.3701; stroke-opacity:1; 
stroke-linecap:round; stroke-linejoin:round;">
</g>
<g style="fill:#000000; fill-opacity:0.0; 
stroke:#000000; stroke-width:59.0551; stroke-opacity:1; 
stroke-linecap:round; stroke-linejoin:round;">
<path d="M3937 62992
L4724 62992
" />
</g>
<g style="fill:#000000; fill-opacity:0.0; 
stroke:#000000; stroke-width:39.3701; stroke-opacity:1; 
stroke-linecap:round; stroke-linejoin:round;">
</g>
<g style="fill:#000000; fill-opacity:0.0; 
stroke:#000000; stroke-width:59.0551; stroke-opacity:1; 
stroke-linecap:round; stroke-linejoin:round;">
<path d="M4208 13864
L4452 13864
" />
<path d="M4160 14011
L4330 13499
L4501 14011
" />
</g>
<g style="fill:#000000; fill-opacity:0.0; 
stroke:#000000; stroke-width:39.3701; stroke-opacity:1; 
stroke-linecap:round; stroke-linejoin:round;">
</g>
<g style="fill:#000000; fill-opacity:0.0; 
stroke:#000000; stroke-width:59.0551; stroke-opacity:1; 
stroke-linecap:round; stroke-linejoin:round;">
<path d="M4367 33428
L4440 33452
L4464 33476
L4489 33525
L4489 33598
L4464 33647
L4440 33671
L4391 33696
L4196 33696
L4196 33184
L4367 33184
L4416 33208
L4440 33233
L4464 33281
L4464 33330
L4440 33379
L4416 33403
L4367 33428
L4196 33428
" />
</g>
<g style="fill:#000000; fill-opacity:0.0; 
stroke:#000000; stroke-width:39.3701; stroke-opacity:1; 
stroke-linecap:round; stroke-linejoin:round;">
</g>
<g style="fill:#000000; fill-opacity:0.0; 
stroke:#000000; stroke-width:59.0551; stroke-opacity:1; 
stroke-linecap:round; stroke-linejoin:round;">
<path d="M4489 53332
L4464 53356
L4391 53381
L4342 53381
L4269 53356
L4221 53308
L4196 53259
L4172 53161
L4172 53088
L4196 52991
L4221 52942
L4269 52893
L4342 52869
L4391 52869
L4464 52893
L4489 52918
" />
</g>
<g style="fill:#000000; fill-opacity:0.0; 
stroke:#000000; stroke-width:39.3701; stroke-opacity:1; 
stroke-linecap:round; stroke-linejoin:round;">
</g>
<g style="fill:#000000; fill-opacity:0.0; 
stroke:#000000; stroke-width:59.0551; stroke-opacity:1; 
stroke-linecap:round; stroke-linejoin:round;">
<path d="M4196 73066
L4196 72554
L4318 72554
L4391 72578
L4440 72627
L4464 72676
L4489 72773
L4489 72846
L4464 72944
L4440 72993
L4391 73041
L4318 73066
L4196 73066
" />
</g>
<g style="fill:#000000; fill-opacity:0.0; 
stroke:#000000; stroke-width:39.3701; stroke-opacity:1; 
stroke-linecap:round; stroke-linejoin:round;">
</g>
<g style="fill:#000000; fill-opacity:0.0; 
stroke:#000000; stroke-width:59.0551; stroke-opacity:1; 
stroke-linecap:round; stroke-linejoin:round;">
<path d="M112992 23622
L112205 23622
" />
</g>
<g style="fill:#000000; fill-opacity:0.0; 
stroke:#000000; stroke-width:39.3701; stroke-opacity:1; 
stroke-linecap:round; stroke-linejoin:round;">
</g>
<g style="fill:#000000; fill-opacity:0.0; 
stroke:#000000; stroke-width:59.0551; stroke-opacity:1; 
stroke-linecap:round; stroke-linejoin:round;">
<path d="M112992 43307
L112205 43307
" />
</g>
<g style="fill:#000000; fill-opacity:0.0; 
stroke:#000000; stroke-width:39.3701; stroke-opacity:1; 
stroke-linecap:round; stroke-linejoin:round;">
</g>
<g style="fill:#000000; fill-opacity:0.0; 
stroke:#000000; stroke-width:59.0551; stroke-opacity:1; 
stroke-linecap:round; stroke-linejoin:round;">
<path d="M112992 62992
L112205 62992
" />
</g>
<g style="fill:#000000; fill-opacity:0.0; 
stroke:#000000; stroke-width:39.3701; stroke-opacity:1; 
stroke-linecap:round; stroke-linejoin:round;">
</g>
<g style="fill:#000000; fill-opacity:0.0; 
stroke:#000000; stroke-width:59.0551; stroke-opacity:1; 
stroke-linecap:round; stroke-linejoin:round;">
<path d="M112477 13864
L112721 13864
" />
<path d="M112428 14011
L112599 13499
L112769 14011
" />
</g>
<g style="fill:#000000; fill-opacity:0.0; 
stroke:#000000; stroke-width:39.3701; stroke-opacity:1; 
stroke-linecap:round; stroke-linejoin:round;">
</g>
<g style="fill:#000000; fill-opacity:0.0; 
stroke:#000000; stroke-width:59.0551; stroke-opacity:1; 
stroke-linecap:round; stroke-linejoin:round;">
<path d="M112635 33428
L112708 33452
L112733 33476
L112757 33525
L112757 33598
L112733 33647
L112708 33671
L112660 33696
L112465 33696
L112465 33184
L112635 33184
L112684 33208
L112708 33233
L112733 33281
L112733 33330
L112708 33379
L112684 33403
L112635 33428
L112465 33428
" />
</g>
<g style="fill:#000000; fill-opacity:0.0; 
stroke:#000000; stroke-width:39.3701; stroke-opacity:1; 
stroke-linecap:round; stroke-linejoin:round;">
</g>
<g style="fill:#000000; fill-opacity:0.0; 
stroke:#000000; stroke-width:59.0551; stroke-opacity:1; 
stroke-linecap:round; stroke-linejoin:round;">
<path d="M112757 53332
L112733 53356
L112660 53381
L112611 53381
L112538 53356
L112489 53308
L112465 53259
L112440 53161
L112440 53088
L112465 52991
L112489 52942
L112538 52893
L112611 52869
L112660 52869
L112733 52893
L112757 52918
" />
</g>
<g style="fill:#000000; fill-opacity:0.0; 
stroke:#000000; stroke-width:39.3701; stroke-opacity:1; 
stroke-linecap:round; stroke-linejoin:round;">
</g>
<g style="fill:#000000; fill-opacity:0.0; 
stroke:#000000; stroke-width:59.0551; stroke-opacity:1; 
stroke-linecap:round; stroke-linejoin:round;">
<path d="M112465 73066
L112465 72554
L112587 72554
L112660 72578
L112708 72627
L112733 72676
L112757 72773
L112757 72846
L112733 72944
L112708 72993
L112660 73041
L112587 73066
L112465 73066
" />
</g>
<g style="fill:#000000; fill-opacity:0.0; 
stroke:#000000; stroke-width:39.3701; stroke-opacity:1; 
stroke-linecap:round; stroke-linejoin:round;">
</g>
<g style="fill:#000000; fill-opacity:0.0; 
stroke:#000000; stroke-width:59.0551; stroke-opacity:1; 
stroke-linecap:round; stroke-linejoin:round;">
<path d="M78881 76293
L78881 75703
L79022 75703
L79106 75731
L79162 75787
L79190 75843
L79219 75956
L79219 76040
L79190 76153
L79162 76209
L79106 76265
L79022 76293
L78881 76293
" />
<path d="M79725 76293
L79725 75984
L79697 75928
L79640 75899
L79528 75899
L79472 75928
" />
<path d="M79725 76265
L79669 76293
L79528 76293
L79472 76265
L79444 76209
L79444 76153
L79472 76096
L79528 76068
L79669 76068
L79725 76040
" />
<path d="M79922 75899
L80147 75899
" />
<path d="M80006 75703
L80006 76209
L80034 76265
L80090 76293
L80147 76293
" />
<path d="M80568 76265
L80512 76293
L80400 76293
L80343 76265
L80315 76209
L80315 75984
L80343 75928
L80400 75899
L80512 75899
L80568 75928
L80597 75984
L80597 76040
L80315 76096
" />
<path d="M80850 76237
L80878 76265
L80850 76293
L80822 76265
L80850 76237
L80850 76293
" />
<path d="M80850 75928
L80878 75956
L80850 75984
L80822 75956
L80850 75928
L80850 75984
" />
</g>
<g style="fill:#000000; fill-opacity:0.0; 
stroke:#000000; stroke-width:39.3701; stroke-opacity:1; 
stroke-linecap:round; stroke-linejoin:round;">
</g>
<g style="fill:#000000; fill-opacity:0.0; 
stroke:#000000; stroke-width:59.0551; stroke-opacity:1; 
stroke-linecap:round; stroke-linejoin:round;">
<path d="M69685 76577
L112205 76577
" />
</g>
<g style="fill:#000000; fill-opacity:0.0; 
stroke:#000000; stroke-width:39.3701; stroke-opacity:1; 
stroke-linecap:round; stroke-linejoin:round;">
</g>
<g style="fill:#000000; fill-opacity:0.0; 
stroke:#000000; stroke-width:59.0551; stroke-opacity:1; 
stroke-linecap:round; stroke-linejoin:round;">
<path d="M70220 77395
L70220 76805
" />
<path d="M70557 77395
L70304 77058
" />
<path d="M70557 76805
L70220 77142
" />
<path d="M70810 77395
L70810 77002
" />
<path d="M70810 76805
L70782 76833
L70810 76861
L70838 76833
L70810 76805
L70810 76861
" />
<path d="M71429 77339
L71401 77367
L71316 77395
L71260 77395
L71176 77367
L71120 77311
L71091 77255
L71063 77142
L71063 77058
L71091 76946
L71120 76889
L71176 76833
L71260 76805
L71316 76805
L71401 76833
L71429 76861
" />
<path d="M71935 77395
L71935 77086
L71907 77030
L71851 77002
L71738 77002
L71682 77030
" />
<path d="M71935 77367
L71879 77395
L71738 77395
L71682 77367
L71654 77311
L71654 77255
L71682 77199
L71738 77171
L71879 77171
L71935 77142
" />
<path d="M72469 77395
L72469 76805
" />
<path d="M72469 77367
L72413 77395
L72301 77395
L72244 77367
L72216 77339
L72188 77283
L72188 77114
L72216 77058
L72244 77030
L72301 77002
L72413 77002
L72469 77030
" />
<path d="M73201 77086
L73397 77086
" />
<path d="M73482 77395
L73201 77395
L73201 76805
L73482 76805
" />
<path d="M73735 77339
L73763 77367
L73735 77395
L73707 77367
L73735 77339
L73735 77395
" />
<path d="M74016 77395
L74016 76805
L74157 76805
L74241 76833
L74297 76889
L74325 76946
L74354 77058
L74354 77142
L74325 77255
L74297 77311
L74241 77367
L74157 77395
L74016 77395
" />
<path d="M74607 77339
L74635 77367
L74607 77395
L74579 77367
L74607 77339
L74607 77395
" />
<path d="M74860 77227
L75141 77227
" />
<path d="M74804 77395
L75000 76805
L75197 77395
" />
<path d="M75394 77339
L75422 77367
L75394 77395
L75366 77367
L75394 77339
L75394 77395
" />
<path d="M76575 77395
L76575 76805
" />
<path d="M76631 77171
L76800 77395
" />
<path d="M76800 77002
L76575 77227
" />
<path d="M77053 77395
L77053 77002
" />
<path d="M77053 76805
L77025 76833
L77053 76861
L77081 76833
L77053 76805
L77053 76861
" />
<path d="M77588 77367
L77531 77395
L77419 77395
L77363 77367
L77334 77339
L77306 77283
L77306 77114
L77334 77058
L77363 77030
L77419 77002
L77531 77002
L77588 77030
" />
<path d="M78094 77395
L78094 77086
L78066 77030
L78009 77002
L77897 77002
L77841 77030
" />
<path d="M78094 77367
L78037 77395
L77897 77395
L77841 77367
L77813 77311
L77813 77255
L77841 77199
L77897 77171
L78037 77171
L78094 77142
" />
<path d="M78628 77395
L78628 76805
" />
<path d="M78628 77367
L78572 77395
L78459 77395
L78403 77367
L78375 77339
L78347 77283
L78347 77114
L78375 77058
L78403 77030
L78459 77002
L78572 77002
L78628 77030
" />
<path d="M79612 77002
L79612 77395
" />
<path d="M79472 76777
L79331 77199
L79697 77199
" />
<path d="M79922 77339
L79950 77367
L79922 77395
L79894 77367
L79922 77339
L79922 77395
" />
<path d="M80315 76805
L80372 76805
L80428 76833
L80456 76861
L80484 76917
L80512 77030
L80512 77171
L80484 77283
L80456 77339
L80428 77367
L80372 77395
L80315 77395
L80259 77367
L80231 77339
L80203 77283
L80175 77171
L80175 77030
L80203 76917
L80231 76861
L80259 76833
L80315 76805
" />
<path d="M80765 77339
L80793 77367
L80765 77395
L80737 77367
L80765 77339
L80765 77395
" />
<path d="M81018 76861
L81046 76833
L81103 76805
L81243 76805
L81300 76833
L81328 76861
L81356 76917
L81356 76974
L81328 77058
L80990 77395
L81356 77395
" />
<path d="M81609 77171
L82059 77171
" />
<path d="M82312 77367
L82368 77395
L82481 77395
L82537 77367
L82565 77311
L82565 77283
L82537 77227
L82481 77199
L82396 77199
L82340 77171
L82312 77114
L82312 77086
L82340 77030
L82396 77002
L82481 77002
L82537 77030
" />
<path d="M82734 77002
L82959 77002
" />
<path d="M82818 76805
L82818 77311
L82846 77367
L82903 77395
L82959 77395
" />
<path d="M83409 77395
L83409 77086
L83381 77030
L83324 77002
L83212 77002
L83156 77030
" />
<path d="M83409 77367
L83352 77395
L83212 77395
L83156 77367
L83127 77311
L83127 77255
L83156 77199
L83212 77171
L83352 77171
L83409 77142
" />
<path d="M83690 77395
L83690 76805
" />
<path d="M83690 77030
L83746 77002
L83859 77002
L83915 77030
L83943 77058
L83971 77114
L83971 77283
L83943 77339
L83915 77367
L83859 77395
L83746 77395
L83690 77367
" />
<path d="M84309 77395
L84252 77367
L84224 77311
L84224 76805
" />
<path d="M84759 77367
L84702 77395
L84590 77395
L84534 77367
L84505 77311
L84505 77086
L84534 77030
L84590 77002
L84702 77002
L84759 77030
L84787 77086
L84787 77142
L84505 77199
" />
</g>
<g style="fill:#000000; fill-opacity:0.0; 
stroke:#000000; stroke-width:39.3701; stroke-opacity:1; 
stroke-linecap:round; stroke-linejoin:round;">
</g>
<g style="fill:#000000; fill-opacity:0.0; 
stroke:#000000; stroke-width:59.0551; stroke-opacity:1; 
stroke-linecap:round; stroke-linejoin:round;">
<path d="M69685 75396
L112205 75396
" />
</g>
<g style="fill:#000000; fill-opacity:0.0; 
stroke:#000000; stroke-width:39.3701; stroke-opacity:1; 
stroke-linecap:round; stroke-linejoin:round;">
</g>
<g style="fill:#000000; fill-opacity:0.0; 
stroke:#000000; stroke-width:118.11; stroke-opacity:1; 
stroke-linecap:round; stroke-linejoin:round;">
<path d="M104022 76293
L103825 76012
" />
<path d="M103684 76293
L103684 75703
L103909 75703
L103965 75731
L103994 75759
L104022 75815
L104022 75899
L103994 75956
L103965 75984
L103909 76012
L103684 76012
" />
<path d="M104500 76265
L104444 76293
L104331 76293
L104275 76265
L104247 76209
L104247 75984
L104275 75928
L104331 75899
L104444 75899
L104500 75928
L104528 75984
L104528 76040
L104247 76096
" />
<path d="M104725 75899
L104865 76293
L105006 75899
" />
<path d="M105231 76237
L105259 76265
L105231 76293
L105203 76265
L105231 76237
L105231 76293
" />
<path d="M105231 75928
L105259 75956
L105231 75984
L105203 75956
L105231 75928
L105231 75984
" />
</g>
<g style="fill:#000000; fill-opacity:0.0; 
stroke:#000000; stroke-width:39.3701; stroke-opacity:1; 
stroke-linecap:round; stroke-linejoin:round;">
</g>
<g style="fill:#000000; fill-opacity:0.0; 
stroke:#000000; stroke-width:59.0551; stroke-opacity:1; 
stroke-linecap:round; stroke-linejoin:round;">
<path d="M70192 76265
L70276 76293
L70417 76293
L70473 76265
L70501 76237
L70529 76181
L70529 76124
L70501 76068
L70473 76040
L70417 76012
L70304 75984
L70248 75956
L70220 75928
L70192 75871
L70192 75815
L70220 75759
L70248 75731
L70304 75703
L70445 75703
L70529 75731
" />
<path d="M70782 76293
L70782 75899
" />
<path d="M70782 75703
L70754 75731
L70782 75759
L70810 75731
L70782 75703
L70782 75759
" />
<path d="M71007 75899
L71316 75899
L71007 76293
L71316 76293
" />
<path d="M71766 76265
L71710 76293
L71598 76293
L71541 76265
L71513 76209
L71513 75984
L71541 75928
L71598 75899
L71710 75899
L71766 75928
L71795 75984
L71795 76040
L71513 76096
" />
<path d="M72048 76237
L72076 76265
L72048 76293
L72019 76265
L72048 76237
L72048 76293
" />
<path d="M72048 75928
L72076 75956
L72048 75984
L72019 75956
L72048 75928
L72048 75984
" />
<path d="M72751 76124
L73032 76124
" />
<path d="M72694 76293
L72891 75703
L73088 76293
" />
<path d="M73538 75899
L73538 76293
" />
<path d="M73397 75674
L73257 76096
L73622 76096
" />
</g>
<g style="fill:#000000; fill-opacity:0.0; 
stroke:#000000; stroke-width:39.3701; stroke-opacity:1; 
stroke-linecap:round; stroke-linejoin:round;">
</g>
<g style="fill:#000000; fill-opacity:0.0; 
stroke:#000000; stroke-width:59.0551; stroke-opacity:1; 
stroke-linecap:round; stroke-linejoin:round;">
<path d="M103684 77395
L103684 76805
" />
<path d="M104219 77395
L104219 76805
" />
<path d="M104219 77367
L104162 77395
L104050 77395
L103994 77367
L103965 77339
L103937 77283
L103937 77114
L103965 77058
L103994 77030
L104050 77002
L104162 77002
L104219 77030
" />
<path d="M104500 77339
L104528 77367
L104500 77395
L104472 77367
L104500 77339
L104500 77395
" />
<path d="M104500 77030
L104528 77058
L104500 77086
L104472 77058
L104500 77030
L104500 77086
" />
<path d="M105540 77395
L105203 77395
" />
<path d="M105372 77395
L105372 76805
L105315 76889
L105259 76946
L105203 76974
" />
<path d="M106215 76777
L105709 77536
" />
<path d="M106721 77395
L106384 77395
" />
<path d="M106553 77395
L106553 76805
L106496 76889
L106440 76946
L106384 76974
" />
</g>
<g style="fill:#000000; fill-opacity:0.0; 
stroke:#000000; stroke-width:39.3701; stroke-opacity:1; 
stroke-linecap:round; stroke-linejoin:round;">
</g>
<g style="fill:#000000; fill-opacity:0.0; 
stroke:#000000; stroke-width:59.0551; stroke-opacity:1; 
stroke-linecap:round; stroke-linejoin:round;">
<path d="M69685 73821
L112205 73821
" />
</g>
<g style="fill:#000000; fill-opacity:0.0; 
stroke:#000000; stroke-width:39.3701; stroke-opacity:1; 
stroke-linecap:round; stroke-linejoin:round;">
</g>
<g style="fill:#000000; fill-opacity:0.0; 
stroke:#000000; stroke-width:157.48; stroke-opacity:1; 
stroke-linecap:round; stroke-linejoin:round;">
<path d="M70257 74099
L70707 74099
" />
<path d="M70384 74886
L70482 74099
" />
<path d="M70871 74886
L70937 74361
" />
<path d="M70970 74099
L70927 74136
L70960 74174
L71002 74136
L70970 74099
L70960 74174
" />
<path d="M71199 74361
L71499 74361
" />
<path d="M71345 74099
L71260 74774
L71288 74849
L71359 74886
L71434 74886
" />
<path d="M71809 74886
L71738 74849
L71710 74774
L71795 74099
" />
<path d="M72413 74849
L72334 74886
L72184 74886
L72113 74849
L72085 74774
L72123 74474
L72169 74399
L72249 74361
L72399 74361
L72469 74399
L72498 74474
L72488 74549
L72104 74624
" />
<path d="M72793 74811
L72826 74849
L72783 74886
L72751 74849
L72793 74811
L72783 74886
" />
<path d="M72844 74399
L72877 74436
L72835 74474
L72802 74436
L72844 74399
L72835 74474
" />
</g>
<g style="fill:#000000; fill-opacity:0.0; 
stroke:#000000; stroke-width:39.3701; stroke-opacity:1; 
stroke-linecap:round; stroke-linejoin:round;">
</g>
<g style="fill:#000000; fill-opacity:0.0; 
stroke:#000000; stroke-width:59.0551; stroke-opacity:1; 
stroke-linecap:round; stroke-linejoin:round;">
<path d="M70417 73070
L70220 73070
" />
<path d="M70220 73380
L70220 72789
L70501 72789
" />
<path d="M70726 73380
L70726 72986
" />
<path d="M70726 72789
L70698 72817
L70726 72845
L70754 72817
L70726 72789
L70726 72845
" />
<path d="M71091 73380
L71035 73352
L71007 73295
L71007 72789
" />
<path d="M71541 73352
L71485 73380
L71373 73380
L71316 73352
L71288 73295
L71288 73070
L71316 73014
L71373 72986
L71485 72986
L71541 73014
L71570 73070
L71570 73127
L71288 73183
" />
<path d="M71823 73323
L71851 73352
L71823 73380
L71795 73352
L71823 73323
L71823 73380
" />
<path d="M71823 73014
L71851 73042
L71823 73070
L71795 73042
L71823 73014
L71823 73070
" />
<path d="M72554 73380
L72554 72789
L72751 73211
L72947 72789
L72947 73380
" />
<path d="M73229 73380
L73229 72986
" />
<path d="M73229 72789
L73201 72817
L73229 72845
L73257 72817
L73229 72789
L73229 72845
" />
<path d="M73763 73352
L73707 73380
L73594 73380
L73538 73352
L73510 73323
L73482 73267
L73482 73099
L73510 73042
L73538 73014
L73594 72986
L73707 72986
L73763 73014
" />
<path d="M74016 73380
L74016 72986
" />
<path d="M74016 73099
L74044 73042
L74072 73014
L74129 72986
L74185 72986
" />
<path d="M74466 73380
L74410 73352
L74382 73323
L74354 73267
L74354 73099
L74382 73042
L74410 73014
L74466 72986
L74550 72986
L74607 73014
L74635 73042
L74663 73099
L74663 73267
L74635 73323
L74607 73352
L74550 73380
L74466 73380
" />
<path d="M74888 73211
L75169 73211
" />
<path d="M74832 73380
L75028 72789
L75225 73380
" />
<path d="M75422 73380
L75422 72789
" />
<path d="M75422 73070
L75760 73070
" />
<path d="M75760 73380
L75760 72789
" />
<path d="M76378 73380
L76181 73099
" />
<path d="M76041 73380
L76041 72789
L76266 72789
L76322 72817
L76350 72845
L76378 72902
L76378 72986
L76350 73042
L76322 73070
L76266 73099
L76041 73099
" />
<path d="M76603 73352
L76688 73380
L76828 73380
L76885 73352
L76913 73323
L76941 73267
L76941 73211
L76913 73155
L76885 73127
L76828 73099
L76716 73070
L76660 73042
L76631 73014
L76603 72958
L76603 72902
L76631 72845
L76660 72817
L76716 72789
L76856 72789
L76941 72817
" />
<path d="M77194 73323
L77222 73352
L77194 73380
L77166 73352
L77194 73323
L77194 73380
" />
<path d="M77475 73380
L77475 72789
" />
<path d="M77531 73155
L77700 73380
" />
<path d="M77700 72986
L77475 73211
" />
<path d="M77953 73380
L77953 72986
" />
<path d="M77953 72789
L77925 72817
L77953 72845
L77981 72817
L77953 72789
L77953 72845
" />
<path d="M78487 73352
L78431 73380
L78319 73380
L78262 73352
L78234 73323
L78206 73267
L78206 73099
L78234 73042
L78262 73014
L78319 72986
L78431 72986
L78487 73014
" />
<path d="M78994 73380
L78994 73070
L78965 73014
L78909 72986
L78797 72986
L78741 73014
" />
<path d="M78994 73352
L78937 73380
L78797 73380
L78741 73352
L78712 73295
L78712 73239
L78741 73183
L78797 73155
L78937 73155
L78994 73127
" />
<path d="M79528 73380
L79528 72789
" />
<path d="M79528 73352
L79472 73380
L79359 73380
L79303 73352
L79275 73323
L79247 73267
L79247 73099
L79275 73042
L79303 73014
L79359 72986
L79472 72986
L79528 73014
" />
<path d="M79669 73436
L80118 73436
" />
<path d="M80259 72986
L80259 73577
" />
<path d="M80259 73014
L80315 72986
L80428 72986
L80484 73014
L80512 73042
L80540 73099
L80540 73267
L80512 73323
L80484 73352
L80428 73380
L80315 73380
L80259 73352
" />
<path d="M81046 73352
L80990 73380
L80878 73380
L80822 73352
L80793 73323
L80765 73267
L80765 73099
L80793 73042
L80822 73014
L80878 72986
L80990 72986
L81046 73014
" />
<path d="M81300 73380
L81300 72789
" />
<path d="M81300 73014
L81356 72986
L81468 72986
L81525 73014
L81553 73042
L81581 73099
L81581 73267
L81553 73323
L81525 73352
L81468 73380
L81356 73380
L81300 73352
" />
</g>
<g style="fill:#000000; fill-opacity:0.0; 
stroke:#000000; stroke-width:39.3701; stroke-opacity:1; 
stroke-linecap:round; stroke-linejoin:round;">
</g>
<g style="fill:#000000; fill-opacity:0.0; 
stroke:#000000; stroke-width:59.0551; stroke-opacity:1; 
stroke-linecap:round; stroke-linejoin:round;">
<path d="M69685 71459
L112205 71459
" />
</g>
<g style="fill:#000000; fill-opacity:0.0; 
stroke:#000000; stroke-width:39.3701; stroke-opacity:1; 
stroke-linecap:round; stroke-linejoin:round;">
</g>
<g style="fill:#000000; fill-opacity:0.0; 
stroke:#000000; stroke-width:59.0551; stroke-opacity:1; 
stroke-linecap:round; stroke-linejoin:round;">
<path d="M70192 72289
L70276 72317
L70417 72317
L70473 72289
L70501 72260
L70529 72204
L70529 72148
L70501 72092
L70473 72064
L70417 72036
L70304 72007
L70248 71979
L70220 71951
L70192 71895
L70192 71839
L70220 71782
L70248 71754
L70304 71726
L70445 71726
L70529 71754
" />
<path d="M70782 72317
L70782 71726
" />
<path d="M71035 72317
L71035 72007
L71007 71951
L70951 71923
L70867 71923
L70810 71951
L70782 71979
" />
<path d="M71541 72289
L71485 72317
L71373 72317
L71316 72289
L71288 72232
L71288 72007
L71316 71951
L71373 71923
L71485 71923
L71541 71951
L71570 72007
L71570 72064
L71288 72120
" />
<path d="M72048 72289
L71991 72317
L71879 72317
L71823 72289
L71795 72232
L71795 72007
L71823 71951
L71879 71923
L71991 71923
L72048 71951
L72076 72007
L72076 72064
L71795 72120
" />
<path d="M72244 71923
L72469 71923
" />
<path d="M72329 71726
L72329 72232
L72357 72289
L72413 72317
L72469 72317
" />
<path d="M72666 72260
L72694 72289
L72666 72317
L72638 72289
L72666 72260
L72666 72317
" />
<path d="M72666 71951
L72694 71979
L72666 72007
L72638 71979
L72666 71951
L72666 72007
" />
</g>
<g style="fill:#000000; fill-opacity:0.0; 
stroke:#000000; stroke-width:39.3701; stroke-opacity:1; 
stroke-linecap:round; stroke-linejoin:round;">
</g>
<g style="fill:#000000; fill-opacity:0.0; 
stroke:#000000; stroke-width:59.0551; stroke-opacity:1; 
stroke-linecap:round; stroke-linejoin:round;">
<path d="M77559 75396
L77559 76577
" />
</g>
<g style="fill:#000000; fill-opacity:0.0; 
stroke:#000000; stroke-width:39.3701; stroke-opacity:1; 
stroke-linecap:round; stroke-linejoin:round;">
</g>
<g style="fill:#000000; fill-opacity:0.0; 
stroke:#000000; stroke-width:59.0551; stroke-opacity:1; 
stroke-linecap:round; stroke-linejoin:round;">
<path d="M102756 75396
L102756 77955
" />
</g>
<g style="fill:#C2C200; fill-opacity:0.0; 
stroke:#C2C200; stroke-width:59.0551; stroke-opacity:1; 
stroke-linecap:round; stroke-linejoin:round;">
<path d="M59055 33464
L45275 33464
" />
<path d="M59055 20472
L59055 33464
" />
<path d="M45275 20472
L59055 20472
" />
<path d="M45275 33464
L45275 20472
" />
</g>
<g style="fill:#840000; fill-opacity:0.0; 
stroke:#840000; stroke-width:59.0551; stroke-opacity:1; 
stroke-linecap:round; stroke-linejoin:round;">
</g>
<g style="fill:#840000; fill-opacity:0.0; 
stroke:#840000; stroke-width:0; stroke-opacity:1; 
stroke-linecap:round; stroke-linejoin:round;">
</g>
<g style="fill:#840000; fill-opacity:1.0; 
stroke:#840000; stroke-width:0; stroke-opacity:1; 
stroke-linecap:round; stroke-linejoin:round;">
<polyline style="fill-rule:evenodd;"
points="48877,21988
48877,21791
49114,21791
49114,21988
48877,21988
" /> 
<polyline style="fill-rule:evenodd;"
points="49311,21988
49311,21791
49547,21791
49547,21988
49311,21988
" /> 
<polyline style="fill-rule:evenodd;"
points="49320,25866
49812,25866
49812,26259
49320,26259
49320,25866
" /> 
<polyline style="fill-rule:evenodd;"
points="49320,26653
49812,26653
49812,27047
49320,27047
49320,26653
" /> 
<polyline style="fill-rule:evenodd;"
points="46496,26072
46102,26072
46102,25836
46496,25836
46496,26072
" /> 
<polyline style="fill-rule:evenodd;"
points="46496,25580
46102,25580
46102,25344
46496,25344
46496,25580
" /> 
<polyline style="fill-rule:evenodd;"
points="51397,23887
51397,23671
52027,23671
52027,23887
51397,23887
" /> 
<polyline style="fill-rule:evenodd;"
points="51397,24202
51397,23986
52027,23986
52027,24202
51397,24202
" /> 
<polyline style="fill-rule:evenodd;"
points="51397,24517
51397,24301
52027,24301
52027,24517
51397,24517
" /> 
<polyline style="fill-rule:evenodd;"
points="51397,24832
51397,24616
52027,24616
52027,24832
51397,24832
" /> 
<polyline style="fill-rule:evenodd;"
points="51397,25147
51397,24931
52027,24931
52027,25147
51397,25147
" /> 
<polyline style="fill-rule:evenodd;"
points="51397,25462
51397,25246
52027,25246
52027,25462
51397,25462
" /> 
<polyline style="fill-rule:evenodd;"
points="51397,25777
51397,25561
52027,25561
52027,25777
51397,25777
" /> 
<polyline style="fill-rule:evenodd;"
points="51397,26092
51397,25875
52027,25875
52027,26092
51397,26092
" /> 
<polyline style="fill-rule:evenodd;"
points="52391,26870
52175,26870
52175,26240
52391,26240
52391,26870
" /> 
<polyline style="fill-rule:evenodd;"
points="52706,26870
52490,26870
52490,26240
52706,26240
52706,26870
" /> 
<polyline style="fill-rule:evenodd;"
points="53021,26870
52805,26870
52805,26240
53021,26240
53021,26870
" /> 
<polyline style="fill-rule:evenodd;"
points="53336,26870
53120,26870
53120,26240
53336,26240
53336,26870
" /> 
<polyline style="fill-rule:evenodd;"
points="53651,26870
53435,26870
53435,26240
53651,26240
53651,26870
" /> 
<polyline style="fill-rule:evenodd;"
points="53966,26870
53750,26870
53750,26240
53966,26240
53966,26870
" /> 
<polyline style="fill-rule:evenodd;"
points="54281,26870
54064,26870
54064,26240
54281,26240
54281,26870
" /> 
<polyline style="fill-rule:evenodd;"
points="54596,26870
54379,26870
54379,26240
54596,26240
54596,26870
" /> 
<polyline style="fill-rule:evenodd;"
points="54744,26092
54744,25875
55374,25875
55374,26092
54744,26092
" /> 
<polyline style="fill-rule:evenodd;"
points="54744,25777
54744,25561
55374,25561
55374,25777
54744,25777
" /> 
<polyline style="fill-rule:evenodd;"
points="54744,25462
54744,25246
55374,25246
55374,25462
54744,25462
" /> 
<polyline style="fill-rule:evenodd;"
points="54744,25147
54744,24931
55374,24931
55374,25147
54744,25147
" /> 
<polyline style="fill-rule:evenodd;"
points="54744,24832
54744,24616
55374,24616
55374,24832
54744,24832
" /> 
<polyline style="fill-rule:evenodd;"
points="54744,24517
54744,24301
55374,24301
55374,24517
54744,24517
" /> 
<polyline style="fill-rule:evenodd;"
points="54744,24202
54744,23986
55374,23986
55374,24202
54744,24202
" /> 
<polyline style="fill-rule:evenodd;"
points="54744,23887
54744,23671
55374,23671
55374,23887
54744,23887
" /> 
<polyline style="fill-rule:evenodd;"
points="54596,23523
54379,23523
54379,22893
54596,22893
54596,23523
" /> 
<polyline style="fill-rule:evenodd;"
points="54281,23523
54064,23523
54064,22893
54281,22893
54281,23523
" /> 
<polyline style="fill-rule:evenodd;"
points="53966,23523
53750,23523
53750,22893
53966,22893
53966,23523
" /> 
<polyline style="fill-rule:evenodd;"
points="53651,23523
53435,23523
53435,22893
53651,22893
53651,23523
" /> 
<polyline style="fill-rule:evenodd;"
points="53336,23523
53120,23523
53120,22893
53336,22893
53336,23523
" /> 
<polyline style="fill-rule:evenodd;"
points="53021,23523
52805,23523
52805,22893
53021,22893
53021,23523
" /> 
<polyline style="fill-rule:evenodd;"
points="52706,23523
52490,23523
52490,22893
52706,22893
52706,23523
" /> 
<polyline style="fill-rule:evenodd;"
points="52391,23523
52175,23523
52175,22893
52391,22893
52391,23523
" /> 
<circle cx="48727.5" cy="27335.5" r="300" /> 
</g>
<g style="fill:#840000; fill-opacity:1.0; 
stroke:#840000; stroke-width:39.3701; stroke-opacity:1; 
stroke-linecap:round; stroke-linejoin:round;">
</g>
<g style="fill:#840000; fill-opacity:1.0; 
stroke:#840000; stroke-width:0; stroke-opacity:1; 
stroke-linecap:round; stroke-linejoin:round;">
<circle cx="47335.5" cy="27335.5" r="300" /> 
</g>
<g style="fill:#840000; fill-opacity:1.0; 
stroke:#840000; stroke-width:39.3701; stroke-opacity:1; 
stroke-linecap:round; stroke-linejoin:round;">
</g>
<g style="fill:#840000; fill-opacity:1.0; 
stroke:#840000; stroke-width:0; stroke-opacity:1; 
stroke-linecap:round; stroke-linejoin:round;">
<circle cx="47335.5" cy="28727.5" r="300" /> 
</g>
<g style="fill:#840000; fill-opacity:1.0; 
stroke:#840000; stroke-width:39.3701; stroke-opacity:1; 
stroke-linecap:round; stroke-linejoin:round;">
</g>
<g style="fill:#840000; fill-opacity:1.0; 
stroke:#840000; stroke-width:0; stroke-opacity:1; 
stroke-linecap:round; stroke-linejoin:round;">
<circle cx="48727.5" cy="28727.5" r="300" /> 
</g>
<g style="fill:#840000; fill-opacity:1.0; 
stroke:#840000; stroke-width:39.3701; stroke-opacity:1; 
stroke-linecap:round; stroke-linejoin:round;">
</g>
<g style="fill:#840000; fill-opacity:1.0; 
stroke:#840000; stroke-width:0; stroke-opacity:1; 
stroke-linecap:round; stroke-linejoin:round;">
<circle cx="46598.4" cy="31988.6" r="295.276" /> 
</g>
<g style="fill:#840000; fill-opacity:1.0; 
stroke:#840000; stroke-width:39.3701; stroke-opacity:1; 
stroke-linecap:round; stroke-linejoin:round;">
</g>
<g style="fill:#840000; fill-opacity:1.0; 
stroke:#840000; stroke-width:0; stroke-opacity:1; 
stroke-linecap:round; stroke-linejoin:round;">
<circle cx="46598.4" cy="31188.6" r="295.276" /> 
</g>
<g style="fill:#840000; fill-opacity:1.0; 
stroke:#840000; stroke-width:39.3701; stroke-opacity:1; 
stroke-linecap:round; stroke-linejoin:round;">
</g>
<g style="fill:#840000; fill-opacity:1.0; 
stroke:#840000; stroke-width:0; stroke-opacity:1; 
stroke-linecap:round; stroke-linejoin:round;">
<circle cx="48598.4" cy="31588.6" r="295.276" /> 
</g>
<g style="fill:#840000; fill-opacity:1.0; 
stroke:#840000; stroke-width:39.3701; stroke-opacity:1; 
stroke-linecap:round; stroke-linejoin:round;">
</g>
<g style="fill:#840000; fill-opacity:1.0; 
stroke:#840000; stroke-width:0; stroke-opacity:1; 
stroke-linecap:round; stroke-linejoin:round;">
<circle cx="48098.4" cy="31338.6" r="154.921" /> 
</g>
<g style="fill:#840000; fill-opacity:1.0; 
stroke:#840000; stroke-width:39.3701; stroke-opacity:1; 
stroke-linecap:round; stroke-linejoin:round;">
</g>
<g style="fill:#840000; fill-opacity:1.0; 
stroke:#840000; stroke-width:0; stroke-opacity:1; 
stroke-linecap:round; stroke-linejoin:round;">
<circle cx="48098.4" cy="31838.6" r="154.921" /> 
</g>
<g style="fill:#840000; fill-opacity:1.0; 
stroke:#840000; stroke-width:39.3701; stroke-opacity:1; 
stroke-linecap:round; stroke-linejoin:round;">
</g>
<g style="fill:#840000; fill-opacity:1.0; 
stroke:#840000; stroke-width:0; stroke-opacity:1; 
stroke-linecap:round; stroke-linejoin:round;">
<circle cx="47598.4" cy="31338.6" r="154.921" /> 
</g>
<g style="fill:#840000; fill-opacity:1.0; 
stroke:#840000; stroke-width:39.3701; stroke-opacity:1; 
stroke-linecap:round; stroke-linejoin:round;">
</g>
<g style="fill:#840000; fill-opacity:1.0; 
stroke:#840000; stroke-width:0; stroke-opacity:1; 
stroke-linecap:round; stroke-linejoin:round;">
<circle cx="47598.4" cy="31838.6" r="154.921" /> 
</g>
<g style="fill:#840000; fill-opacity:1.0; 
stroke:#840000; stroke-width:39.3701; stroke-opacity:1; 
stroke-linecap:round; stroke-linejoin:round;">
</g>
<g style="fill:#840000; fill-opacity:1.0; 
stroke:#840000; stroke-width:0; stroke-opacity:1; 
stroke-linecap:round; stroke-linejoin:round;">
<circle cx="47098.4" cy="31338.6" r="154.921" /> 
</g>
<g style="fill:#840000; fill-opacity:1.0; 
stroke:#840000; stroke-width:39.3701; stroke-opacity:1; 
stroke-linecap:round; stroke-linejoin:round;">
</g>
<g style="fill:#840000; fill-opacity:1.0; 
stroke:#840000; stroke-width:0; stroke-opacity:1; 
stroke-linecap:round; stroke-linejoin:round;">
<circle cx="47098.4" cy="31838.6" r="154.921" /> 
</g>
<g style="fill:#840000; fill-opacity:1.0; 
stroke:#840000; stroke-width:39.3701; stroke-opacity:1; 
stroke-linecap:round; stroke-linejoin:round;">
</g>
<g style="fill:#840000; fill-opacity:1.0; 
stroke:#840000; stroke-width:0; stroke-opacity:1; 
stroke-linecap:round; stroke-linejoin:round;">
<polyline style="fill-rule:evenodd;"
points="57814,27992
57460,27992
57460,27795
57814,27795
57814,27992
" /> 
<polyline style="fill-rule:evenodd;"
points="57814,27401
57460,27401
57460,27204
57814,27204
57814,27401
" /> 
<polyline style="fill-rule:evenodd;"
points="55629,27618
55629,27263
55826,27263
55826,27618
55629,27618
" /> 
<polyline style="fill-rule:evenodd;"
points="56220,27618
56220,27263
56417,27263
56417,27618
56220,27618
" /> 
<polyline style="fill-rule:evenodd;"
points="49251,24704
48562,24704
48562,24429
49251,24429
49251,24704
" /> 
<polyline style="fill-rule:evenodd;"
points="49251,23799
48562,23799
48562,23523
49251,23523
49251,23799
" /> 
<polyline style="fill-rule:evenodd;"
points="49251,22893
48562,22893
48562,22618
49251,22618
49251,22893
" /> 
<polyline style="fill-rule:evenodd;"
points="47185,24251
46496,24251
46496,23070
47185,23070
47185,24251
" /> 
</g>
<g style="fill:#C2C2C2; fill-opacity:1.0; 
stroke:#C2C2C2; stroke-width:0; stroke-opacity:1; 
stroke-linecap:round; stroke-linejoin:round;">
<circle cx="47098.4" cy="32389.8" r="118.11" /> 
</g>
<g style="fill:#C2C2C2; fill-opacity:1.0; 
stroke:#C2C2C2; stroke-width:39.3701; stroke-opacity:1; 
stroke-linecap:round; stroke-linejoin:round;">
</g>
<g style="fill:#C2C2C2; fill-opacity:1.0; 
stroke:#C2C2C2; stroke-width:0; stroke-opacity:1; 
stroke-linecap:round; stroke-linejoin:round;">
<circle cx="50000" cy="21889.8" r="118.11" /> 
</g>
<g style="fill:#C2C2C2; fill-opacity:1.0; 
stroke:#C2C2C2; stroke-width:39.3701; stroke-opacity:1; 
stroke-linecap:round; stroke-linejoin:round;">
</g>
<g style="fill:#C2C2C2; fill-opacity:1.0; 
stroke:#C2C2C2; stroke-width:0; stroke-opacity:1; 
stroke-linecap:round; stroke-linejoin:round;">
<circle cx="50561" cy="24409.4" r="118.11" /> 
</g>
<g style="fill:#C2C2C2; fill-opacity:1.0; 
stroke:#C2C2C2; stroke-width:39.3701; stroke-opacity:1; 
stroke-linecap:round; stroke-linejoin:round;">
</g>
<g style="fill:#C2C2C2; fill-opacity:1.0; 
stroke:#C2C2C2; stroke-width:0; stroke-opacity:1; 
stroke-linecap:round; stroke-linejoin:round;">
<circle cx="50561" cy="25040.5" r="118.11" /> 
</g>
<g style="fill:#C2C2C2; fill-opacity:1.0; 
stroke:#C2C2C2; stroke-width:39.3701; stroke-opacity:1; 
stroke-linecap:round; stroke-linejoin:round;">
</g>
<g style="fill:#C2C2C2; fill-opacity:1.0; 
stroke:#C2C2C2; stroke-width:0; stroke-opacity:1; 
stroke-linecap:round; stroke-linejoin:round;">
<circle cx="56378" cy="24724.4" r="118.11" /> 
</g>
<g style="fill:#C2C2C2; fill-opacity:1.0; 
stroke:#C2C2C2; stroke-width:39.3701; stroke-opacity:1; 
stroke-linecap:round; stroke-linejoin:round;">
</g>
<g style="fill:#C2C2C2; fill-opacity:1.0; 
stroke:#C2C2C2; stroke-width:0; stroke-opacity:1; 
stroke-linecap:round; stroke-linejoin:round;">
<circle cx="48907.5" cy="25423.2" r="118.11" /> 
</g>
<g style="fill:#C2C2C2; fill-opacity:1.0; 
stroke:#C2C2C2; stroke-width:39.3701; stroke-opacity:1; 
stroke-linecap:round; stroke-linejoin:round;">
</g>
<g style="fill:#C2C2C2; fill-opacity:1.0; 
stroke:#C2C2C2; stroke-width:0; stroke-opacity:1; 
stroke-linecap:round; stroke-linejoin:round;">
<circle cx="47076.8" cy="25462.6" r="118.11" /> 
</g>
<g style="fill:#C2C2C2; fill-opacity:1.0; 
stroke:#C2C2C2; stroke-width:39.3701; stroke-opacity:1; 
stroke-linecap:round; stroke-linejoin:round;">
</g>
<g style="fill:#C2C2C2; fill-opacity:1.0; 
stroke:#C2C2C2; stroke-width:0; stroke-opacity:1; 
stroke-linecap:round; stroke-linejoin:round;">
<circle cx="51692.9" cy="29960.6" r="118.11" /> 
</g>
<g style="fill:#C2C2C2; fill-opacity:1.0; 
stroke:#C2C2C2; stroke-width:39.3701; stroke-opacity:1; 
stroke-linecap:round; stroke-linejoin:round;">
</g>
<g style="fill:#C2C2C2; fill-opacity:1.0; 
stroke:#C2C2C2; stroke-width:0; stroke-opacity:1; 
stroke-linecap:round; stroke-linejoin:round;">
<circle cx="53149.6" cy="28070.9" r="118.11" /> 
</g>
<g style="fill:#C2C2C2; fill-opacity:1.0; 
stroke:#C2C2C2; stroke-width:39.3701; stroke-opacity:1; 
stroke-linecap:round; stroke-linejoin:round;">
</g>
<g style="fill:#C2C2C2; fill-opacity:1.0; 
stroke:#C2C2C2; stroke-width:0; stroke-opacity:1; 
stroke-linecap:round; stroke-linejoin:round;">
<circle cx="53582.7" cy="30157.5" r="118.11" /> 
</g>
<g style="fill:#C2C2C2; fill-opacity:1.0; 
stroke:#C2C2C2; stroke-width:39.3701; stroke-opacity:1; 
stroke-linecap:round; stroke-linejoin:round;">
</g>
<g style="fill:#C2C2C2; fill-opacity:1.0; 
stroke:#C2C2C2; stroke-width:0; stroke-opacity:1; 
stroke-linecap:round; stroke-linejoin:round;">
<circle cx="52283.5" cy="30157.5" r="118.11" /> 
</g>
<g style="fill:#C2C2C2; fill-opacity:1.0; 
stroke:#C2C2C2; stroke-width:39.3701; stroke-opacity:1; 
stroke-linecap:round; stroke-linejoin:round;">
</g>
<g style="fill:#C2C2C2; fill-opacity:1.0; 
stroke:#C2C2C2; stroke-width:0; stroke-opacity:1; 
stroke-linecap:round; stroke-linejoin:round;">
<circle cx="49645.7" cy="31338.6" r="118.11" /> 
</g>
<g style="fill:#C2C2C2; fill-opacity:1.0; 
stroke:#C2C2C2; stroke-width:39.3701; stroke-opacity:1; 
stroke-linecap:round; stroke-linejoin:round;">
</g>
<g style="fill:#C2C2C2; fill-opacity:1.0; 
stroke:#C2C2C2; stroke-width:0; stroke-opacity:1; 
stroke-linecap:round; stroke-linejoin:round;">
<circle cx="47992.1" cy="30708.7" r="118.11" /> 
</g>
<g style="fill:#C2C2C2; fill-opacity:1.0; 
stroke:#C2C2C2; stroke-width:39.3701; stroke-opacity:1; 
stroke-linecap:round; stroke-linejoin:round;">
</g>
<g style="fill:#C2C2C2; fill-opacity:1.0; 
stroke:#C2C2C2; stroke-width:0; stroke-opacity:1; 
stroke-linecap:round; stroke-linejoin:round;">
<circle cx="56732.3" cy="26574.8" r="118.11" /> 
</g>
<g style="fill:#C2C2C2; fill-opacity:1.0; 
stroke:#C2C2C2; stroke-width:39.3701; stroke-opacity:1; 
stroke-linecap:round; stroke-linejoin:round;">
</g>
<g style="fill:#C2C2C2; fill-opacity:1.0; 
stroke:#C2C2C2; stroke-width:0; stroke-opacity:1; 
stroke-linecap:round; stroke-linejoin:round;">
<circle cx="57480.3" cy="26574.8" r="118.11" /> 
</g>
<g style="fill:#C2C2C2; fill-opacity:1.0; 
stroke:#C2C2C2; stroke-width:39.3701; stroke-opacity:1; 
stroke-linecap:round; stroke-linejoin:round;">
</g>
<g style="fill:#C2C2C2; fill-opacity:1.0; 
stroke:#C2C2C2; stroke-width:0; stroke-opacity:1; 
stroke-linecap:round; stroke-linejoin:round;">
<circle cx="51574.8" cy="21496.1" r="118.11" /> 
</g>
<g style="fill:#C2C2C2; fill-opacity:1.0; 
stroke:#C2C2C2; stroke-width:39.3701; stroke-opacity:1; 
stroke-linecap:round; stroke-linejoin:round;">
</g>
<g style="fill:#C2C2C2; fill-opacity:1.0; 
stroke:#C2C2C2; stroke-width:0; stroke-opacity:1; 
stroke-linecap:round; stroke-linejoin:round;">
<circle cx="47204.7" cy="30708.7" r="118.11" /> 
</g>
<g style="fill:#C2C2C2; fill-opacity:1.0; 
stroke:#C2C2C2; stroke-width:39.3701; stroke-opacity:1; 
stroke-linecap:round; stroke-linejoin:round;">
</g>
<g style="fill:#C2C2C2; fill-opacity:1.0; 
stroke:#C2C2C2; stroke-width:0; stroke-opacity:1; 
stroke-linecap:round; stroke-linejoin:round;">
<circle cx="51653.5" cy="23110.2" r="118.11" /> 
</g>
<g style="fill:#C2C2C2; fill-opacity:1.0; 
stroke:#C2C2C2; stroke-width:39.3701; stroke-opacity:1; 
stroke-linecap:round; stroke-linejoin:round;">
</g>
<g style="fill:#840000; fill-opacity:1.0; 
stroke:#840000; stroke-width:39.3701; stroke-opacity:1; 
stroke-linecap:round; stroke-linejoin:round;">
</g>
<g style="fill:#840000; fill-opacity:1.0; 
stroke:#840000; stroke-width:98.4252; stroke-opacity:1; 
stroke-linecap:round; stroke-linejoin:round;">
</g>
<g style="fill:#840000; fill-opacity:0.0; 
stroke:#840000; stroke-width:98.4252; stroke-opacity:1; 
stroke-linecap:round; stroke-linejoin:round;">
<path d="M48907 22755
L48907 21978
" />
<path d="M48907 21978
L48996 21889
" />
<path d="M47913 23031
L47913 25944
" />
<path d="M47913 25944
L47913 26048
" />
<path d="M46299 25954
L47903 25954
" />
<path d="M47903 25954
L47913 25944
" />
<path d="M48907 22755
L48188 22755
" />
<path d="M48727 26863
L48727 27335
" />
<path d="M48188 22755
L47913 23031
" />
<path d="M47913 26048
L48727 26863
" />
<path d="M49566 26850
L49222 26850
" />
<path d="M49222 26850
L48907 26535
" />
<path d="M48907 26535
L48907 25590
" />
<path d="M48907 25590
L48907 25423
" />
<path d="M47098 31838
L47098 32389
" />
<path d="M49429 21889
L50000 21889
" />
<path d="M51712 25039
L50562 25039
" />
<path d="M51712 24409
L50561 24409
" />
<path d="M50562 25039
L50561 25040
" />
<path d="M55059 24724
L56377 24724
" />
<path d="M48907 24566
L48907 25423
" />
<path d="M46299 25462
L47076 25462
" />
<path d="M53503 30157
L53582 30157
" />
<path d="M52283 30157
L53503 30157
" />
<path d="M47598 32480
L47598 31838
" />
<path d="M47244 32834
L47598 32480
" />
<path d="M46614 32834
L47244 32834
" />
<path d="M46023 32244
L46614 32834
" />
<path d="M46023 30787
L46023 32244
" />
<path d="M46456 30354
L46023 30787
" />
<path d="M49803 30354
L46456 30354
" />
<path d="M51181 28976
L49803 30354
" />
<path d="M51181 28110
L51181 28976
" />
<path d="M52047 27244
L51181 28110
" />
<path d="M53937 27244
L52047 27244
" />
<path d="M54173 27007
L53937 27244
" />
<path d="M54173 26555
L54173 27007
" />
<path d="M48425 30787
L48425 31011
" />
<path d="M48425 31011
L48098 31338
" />
<path d="M49803 30787
L48425 30787
" />
<path d="M51417 29173
L49803 30787
" />
<path d="M51417 28228
L51417 29173
" />
<path d="M52204 27440
L51417 28228
" />
<path d="M54015 27440
L52204 27440
" />
<path d="M54488 26555
L54488 26968
" />
<path d="M54488 26968
L54015 27440
" />
<path d="M54448 27677
L55059 27066
" />
<path d="M55059 27066
L55059 25984
" />
<path d="M52401 27677
L54448 27677
" />
<path d="M51771 28307
L52401 27677
" />
<path d="M51771 29212
L51771 28307
" />
<path d="M49645 31338
L51771 29212
" />
<path d="M47598 30944
L47834 30708
" />
<path d="M47834 30708
L47992 30708
" />
<path d="M47598 31338
L47598 30944
" />
<path d="M56318 27440
L56318 26988
" />
<path d="M56318 26988
L56732 26574
" />
<path d="M53858 22795
L53858 23208
" />
<path d="M54271 22381
L53858 22795
" />
<path d="M56732 23818
L55295 22381
" />
<path d="M55295 22381
L54271 22381
" />
<path d="M56732 26574
L56732 23818
" />
<path d="M57637 27303
L57637 26732
" />
<path d="M57637 26732
L57480 26574
" />
<path d="M53858 22204
L53543 22519
" />
<path d="M53543 22519
L53543 23208
" />
<path d="M56377 22204
L53858 22204
" />
<path d="M57480 23307
L56377 22204
" />
<path d="M57480 26574
L57480 23307
" />
<path d="M52716 21496
L53228 22007
" />
<path d="M53228 22007
L53228 23208
" />
<path d="M51574 21496
L52716 21496
" />
<path d="M47086 30826
L47204 30708
" />
<path d="M47086 31107
L47086 30826
" />
<path d="M47098 31338
L47098 31119
" />
<path d="M47098 31119
L47086 31107
" />
<path d="M49027 28427
L48727 28727
" />
<path d="M50196 25801
L50196 27258
" />
<path d="M50019 23154
L50019 25624
" />
<path d="M51127 22047
L50019 23154
" />
<path d="M50196 27258
L49027 28427
" />
<path d="M52165 22047
L51127 22047
" />
<path d="M50019 25624
L50196 25801
" />
<path d="M52913 22795
L52165 22047
" />
<path d="M52913 23208
L52913 22795
" />
<path d="M49409 29448
L48056 29448
" />
<path d="M48056 29448
L47335 28727
" />
<path d="M50511 28346
L49409 29448
" />
<path d="M50511 25866
L50511 28346
" />
<path d="M50196 25551
L50511 25866
" />
<path d="M50196 23228
L50196 25551
" />
<path d="M51062 22362
L50196 23228
" />
<path d="M52165 22362
L51062 22362
" />
<path d="M52598 23208
L52598 22795
" />
<path d="M52598 22795
L52165 22362
" />
<path d="M51653 23110
L52185 23110
" />
<path d="M52185 23110
L52283 23208
" />
</g>
<g style="fill:#840000; fill-opacity:1.0; 
stroke:#840000; stroke-width:50; stroke-opacity:1; 
stroke-linecap:round; stroke-linejoin:round;">
<polyline style="fill-rule:evenodd;"
points="58597,33045
45694,33045
45694,30787
45849,30787
45849,32244
45862,32310
45900,32367
46490,32957
46547,32995
46614,33008
47244,33008
47310,32995
47367,32957
47721,32603
47726,32595
47759,32546
47772,32480
47772,32119
47923,32119
47935,32190
48082,32225
48231,32202
48261,32190
48273,32119
48098,31944
47923,32119
47772,32119
47772,32060
47835,31997
47837,31993
47992,31838
47837,31683
47835,31680
47757,31601
47726,31588
47756,31576
47835,31497
47848,31466
47860,31496
47939,31575
47943,31577
48098,31732
48103,31726
48210,31833
48204,31838
48379,32013
48449,32001
48454,31983
48514,32008
48681,32008
48836,31945
48954,31826
49018,31672
49018,31505
48954,31350
48836,31232
48682,31168
48515,31168
48515,31168
48548,31134
48586,31078
48586,31078
48599,31011
48599,30961
49776,30961
49642,31095
49597,31095
49508,31132
49439,31200
49402,31290
49402,31386
49439,31476
49507,31544
49597,31581
49693,31581
49748,31559
56331,31559
56440,31822
56641,32023
56904,32132
57188,32132
57452,32024
57653,31823
57762,31560
57762,31275
57654,31012
57453,30811
57190,30701
56905,30701
56642,30810
56440,31011
56331,31274
56331,31559
49748,31559
49783,31544
49851,31476
49888,31387
49888,31341
51025,30205
52040,30205
52077,30295
52145,30363
52234,30400
52331,30400
52420,30363
52453,30331
53413,30331
53444,30363
53534,30400
53630,30400
53720,30363
53788,30295
53825,30206
53825,30109
53788,30019
53720,29951
53631,29914
53534,29914
53445,29951
53413,29983
52453,29983
52421,29951
52332,29914
52235,29914
52145,29951
52077,30019
52040,30108
52040,30205
51025,30205
51894,29335
51901,29325
51932,29279
51945,29212
51945,28379
52325,27999
57235,27999
57235,28036
57269,28119
57333,28182
57415,28217
57506,28217
57562,28160
57562,27942
57712,27942
57712,28160
57769,28217
57859,28217
57942,28182
58005,28119
58039,28036
58039,27999
57983,27942
57712,27942
57562,27942
57291,27942
57235,27999
52325,27999
52473,27851
54448,27851
54515,27838
54572,27800
54800,27572
55404,27572
55404,27662
55439,27745
55502,27808
55585,27843
55622,27843
55679,27786
55679,27515
55777,27515
55777,27786
55833,27843
55871,27843
55954,27808
56012,27750
57235,27750
57235,27788
57291,27844
57562,27844
57562,27626
57712,27626
57712,27844
57983,27844
58039,27788
58039,27750
58005,27667
57942,27604
57859,27570
57769,27570
57712,27626
57562,27626
57506,27570
57415,27570
57333,27604
57269,27667
57235,27750
56012,27750
56017,27745
56051,27662
56051,27572
55995,27515
55777,27515
55679,27515
55461,27515
55404,27572
54800,27572
55153,27219
55404,27219
55404,27309
55461,27365
55679,27365
55679,27095
55777,27095
55777,27365
55995,27365
56051,27309
56051,27219
56017,27136
55954,27073
55871,27038
55833,27038
55777,27095
55679,27095
55622,27038
55585,27038
55502,27073
55439,27136
55404,27219
55153,27219
55182,27190
55220,27133
55233,27066
55233,26219
55374,26219
55420,26211
55462,26183
55491,26142
55501,26092
55501,25968
55501,25968
55564,25905
55599,25822
55599,25779
55542,25723
55134,25723
55134,25748
54984,25748
54984,25723
54575,25723
54519,25779
54519,25822
54553,25905
54616,25968
54616,25968
54616,26092
54621,26117
54596,26112
54379,26112
54333,26121
54331,26122
54331,26122
54281,26112
54064,26112
54018,26121
54016,26122
54016,26122
53966,26112
53750,26112
53703,26121
53701,26122
53701,26122
53651,26112
53435,26112
53388,26121
53386,26122
53386,26122
53336,26112
53120,26112
53073,26121
53071,26122
53071,26122
53021,26112
52805,26112
52758,26121
52756,26122
52756,26122
52706,26112
52490,26112
52443,26121
52441,26122
52441,26122
52391,26112
52175,26112
52149,26117
52155,26092
52155,25875
52146,25829
52144,25827
52144,25827
52155,25777
52155,25653
52155,25653
52218,25590
52252,25507
52252,25464
52196,25408
51787,25408
51787,25433
51637,25433
51637,25408
51228,25408
51172,25464
51172,25507
51206,25590
51270,25653
51270,25653
51270,25777
51278,25823
51280,25826
51280,25826
51270,25875
51270,26092
51278,26138
51306,26181
51348,26209
51397,26219
52027,26219
52052,26215
52047,26240
52047,26870
52056,26916
52083,26958
52125,26987
52175,26997
52391,26997
52438,26988
52440,26987
52440,26987
52490,26997
52706,26997
52753,26988
52755,26987
52755,26987
52805,26997
53021,26997
53067,26988
53070,26987
53070,26987
53120,26997
53336,26997
53382,26988
53385,26987
53385,26987
53435,26997
53651,26997
53697,26988
53700,26987
53700,26987
53750,26997
53937,26997
53864,27069
52047,27069
51980,27083
51924,27120
51057,27987
51020,28043
51020,28043
51006,28110
51006,28904
49730,30180
46456,30180
46390,30193
46333,30231
45900,30664
45862,30720
45862,30720
45849,30787
45694,30787
45694,28811
46910,28811
46975,28967
47094,29087
47250,29152
47419,29152
47486,29124
47933,29572
47990,29609
48056,29623
49409,29623
49476,29609
49532,29572
50634,28469
50672,28413
50686,28346
50686,25866
50678,25826
50672,25799
50634,25742
50371,25479
50371,25194
50423,25246
50512,25283
50609,25283
50698,25246
50731,25213
51172,25213
51172,25243
51228,25300
51637,25300
51637,25275
51787,25275
51787,25300
52196,25300
52252,25243
52252,25201
52218,25118
52155,25055
52155,25055
52155,25023
52155,25023
52218,24960
52252,24877
52252,24834
52196,24778
51787,24778
51787,24803
51637,24803
51637,24778
51228,24778
51172,24834
51172,24865
50729,24865
50698,24834
50609,24797
50512,24797
50423,24834
50371,24886
50371,24563
50423,24615
50512,24652
50609,24652
50698,24615
50730,24583
51172,24583
51172,24614
51228,24670
51637,24670
51637,24645
51787,24645
51787,24670
52196,24670
52252,24614
52252,24571
52218,24488
52155,24425
52155,24425
52155,24301
52146,24254
52144,24252
52144,24252
52155,24202
52155,23986
52146,23939
52144,23937
52144,23937
52155,23887
52155,23671
52150,23646
52175,23651
52391,23651
52438,23642
52440,23640
52440,23641
52490,23651
52706,23651
52753,23642
52755,23640
52755,23641
52805,23651
53021,23651
53067,23642
53070,23640
53070,23641
53120,23651
53336,23651
53382,23642
53385,23640
53385,23641
53435,23651
53651,23651
53697,23642
53700,23640
53700,23641
53750,23651
53966,23651
54012,23642
54015,23640
54015,23641
54064,23651
54281,23651
54327,23642
54330,23640
54330,23641
54379,23651
54596,23651
54621,23646
54616,23671
54616,23887
54625,23934
54626,23936
54626,23936
54616,23986
54616,24202
54625,24249
54626,24251
54626,24251
54616,24301
54616,24517
54625,24564
54626,24566
54626,24566
54616,24616
54616,24832
54625,24878
54626,24881
54626,24881
54616,24931
54616,25147
54625,25193
54626,25196
54626,25196
54616,25246
54616,25370
54616,25370
54553,25433
54519,25516
54519,25558
54575,25615
54984,25615
54984,25590
55134,25590
55134,25615
55542,25615
55599,25558
55599,25516
55564,25433
55501,25370
55501,25370
55501,25246
55492,25199
55491,25197
55491,25197
55501,25147
55501,24931
55495,24898
56208,24898
56240,24930
56329,24967
56426,24967
56515,24930
56558,24888
56558,26405
56526,26436
56489,26526
56489,26571
56195,26865
56157,26921
56147,26973
56144,26988
56144,27164
56131,27172
56103,27214
56093,27263
56093,27618
56101,27664
56129,27706
56170,27735
56220,27745
56417,27745
56463,27736
56506,27709
56534,27667
56544,27618
56544,27263
56536,27217
56508,27174
56493,27164
56493,27060
56735,26817
56780,26817
56869,26781
56938,26712
56975,26623
56975,26526
56938,26437
56906,26405
56906,23818
56893,23752
56855,23695
55538,22378
56305,22378
57306,23379
57306,26405
57274,26436
57237,26526
57237,26622
57274,26712
57342,26780
57431,26817
57463,26817
57463,27077
57460,27077
57414,27085
57371,27113
57343,27155
57333,27204
57333,27401
57341,27447
57369,27490
57411,27518
57460,27529
57814,27529
57861,27520
57903,27492
57932,27451
57942,27401
57942,27204
57933,27158
57906,27115
57864,27087
57814,27077
57812,27077
57812,26732
57798,26665
57760,26609
57760,26609
57723,26571
57723,26526
57686,26437
57654,26405
57654,23307
57648,23278
57641,23240
57603,23183
56501,22081
56444,22043
56377,22030
53858,22030
53791,22043
53735,22081
53420,22396
53402,22422
53402,22007
53402,22007
53389,21941
53352,21886
53351,21884
53351,21884
52839,21372
52783,21335
52716,21321
51744,21321
51712,21290
51623,21252
51526,21252
51437,21289
51368,21358
51331,21447
51331,21544
51368,21633
51436,21702
51526,21739
51622,21739
51712,21702
51744,21670
52644,21670
53054,22080
53054,22698
53036,22672
52288,21924
52232,21886
52165,21873
51127,21873
51060,21886
51004,21924
49896,23031
49858,23088
49858,23088
49845,23154
49845,25624
49848,25641
49698,25641
49641,25697
49641,25987
49649,25987
49649,26137
49641,26137
49641,26428
49698,26484
49857,26484
49940,26450
50003,26387
50022,26341
50022,27185
48904,28304
48878,28330
48812,28302
48643,28302
48487,28366
48367,28486
48302,28642
48302,28811
48366,28967
48486,29087
48642,29152
48811,29152
48967,29087
49087,28968
49152,28812
49152,28643
49124,28576
49150,28550
50320,27381
50320,27381
50337,27355
50337,28274
49337,29274
48129,29274
47732,28878
47760,28812
47760,28643
47696,28487
47576,28367
47420,28302
47251,28302
47095,28366
46975,28486
46910,28642
46910,28811
45694,28811
45694,27419
46910,27419
46975,27575
47094,27695
47250,27760
47419,27760
47575,27696
47695,27576
47760,27420
47760,27251
47696,27095
47576,26975
47420,26910
47251,26910
47095,26975
46975,27094
46910,27250
46910,27419
45694,27419
45694,25836
45974,25836
45974,26072
45983,26119
46011,26161
46052,26190
46102,26200
46496,26200
46542,26191
46584,26164
46609,26128
47761,26128
47790,26172
48553,26935
48553,26947
48487,26975
48367,27094
48302,27250
48302,27419
48366,27575
48486,27695
48642,27760
48811,27760
48967,27696
49087,27576
49152,27420
49152,27251
49087,27095
48968,26975
48901,26947
48901,26863
48891,26813
48888,26796
48850,26739
48087,25976
48087,24429
48435,24429
48435,24704
48444,24751
48471,24793
48513,24822
48562,24832
48733,24832
48733,25253
48701,25285
48664,25374
48664,25471
48701,25560
48733,25592
48733,26535
48746,26602
48784,26658
49099,26973
49155,27011
49193,27018
49193,27047
49202,27093
49229,27136
49271,27164
49320,27174
49812,27174
49859,27165
49901,27138
49930,27096
49940,27047
49940,26653
49931,26607
49904,26564
49862,26536
49812,26526
49320,26526
49274,26534
49231,26562
49211,26592
49081,26463
49081,26194
49095,26194
49095,26304
49130,26387
49193,26450
49276,26484
49435,26484
49491,26428
49491,26137
49152,26137
49095,26194
49081,26194
49081,25821
49095,25821
49095,25931
49152,25987
49491,25987
49491,25697
49435,25641
49276,25641
49193,25675
49130,25738
49095,25821
49081,25821
49081,25592
49113,25561
49150,25471
49150,25375
49113,25285
49081,25253
49081,24832
49251,24832
49298,24823
49340,24796
49369,24754
49379,24704
49379,24429
49370,24382
49343,24340
49301,24311
49251,24301
48562,24301
48516,24310
48474,24337
48445,24379
48435,24429
48087,24429
48087,23786
48337,23786
48337,23843
48372,23926
48435,23989
48518,24024
48776,24024
48832,23967
48832,23730
48982,23730
48982,23967
49038,24024
49296,24024
49379,23989
49442,23926
49476,23843
49476,23786
49420,23730
48982,23730
48832,23730
48394,23730
48337,23786
48087,23786
48087,23478
48337,23478
48337,23536
48394,23592
48832,23592
48832,23354
48982,23354
48982,23592
49420,23592
49476,23536
49476,23478
49442,23396
49379,23332
49296,23298
49038,23298
48982,23354
48832,23354
48776,23298
48518,23298
48435,23332
48372,23396
48337,23478
48087,23478
48087,23103
48261,22930
48442,22930
48444,22940
48471,22982
48513,23011
48562,23021
49251,23021
49298,23012
49340,22985
49369,22943
49379,22893
49379,22618
49370,22571
49343,22529
49301,22500
49251,22490
49081,22490
49081,22115
49114,22115
49160,22106
49203,22079
49212,22065
49219,22077
49261,22105
49311,22115
49547,22115
49593,22106
49636,22079
49646,22063
49830,22063
49862,22095
49951,22132
50048,22132
50137,22095
50205,22027
50243,21938
50243,21841
50206,21752
50137,21683
50048,21646
49951,21646
49862,21683
49830,21715
49647,21715
49638,21702
49596,21673
49547,21663
49311,21663
49264,21672
49222,21699
49212,21713
49205,21702
49163,21673
49114,21663
48877,21663
48831,21672
48789,21699
48760,21741
48750,21791
48750,21905
48746,21911
48746,21911
48733,21978
48733,22490
48562,22490
48516,22499
48474,22526
48445,22568
48442,22581
48188,22581
48122,22594
48065,22632
48065,22632
47790,22908
47752,22964
47748,22987
47739,23031
47739,25780
46608,25780
46587,25747
46545,25719
46496,25709
46102,25709
46056,25717
46013,25745
45984,25787
45974,25836
45694,25836
45694,25344
45974,25344
45974,25580
45983,25627
46011,25669
46052,25698
46102,25708
46496,25708
46542,25699
46584,25672
46609,25636
46907,25636
46938,25668
47028,25705
47124,25705
47214,25668
47282,25600
47319,25511
47319,25414
47282,25325
47214,25256
47125,25219
47028,25219
46939,25256
46907,25288
46608,25288
46587,25255
46545,25227
46496,25217
46102,25217
46056,25225
46013,25253
45984,25294
45974,25344
45694,25344
45694,23070
46368,23070
46368,24251
46377,24298
46404,24340
46446,24369
46496,24379
47185,24379
47231,24370
47273,24343
47302,24301
47312,24251
47312,23070
47303,23024
47276,22981
47234,22953
47185,22943
46496,22943
46449,22952
46407,22979
46378,23021
46368,23070
45694,23070
45694,20891
58597,20891
58597,33045
" /> 
</g>
<g style="fill:#FFFFFF; fill-opacity:1.0; 
stroke:#FFFFFF; stroke-width:50; stroke-opacity:1; 
stroke-linecap:round; stroke-linejoin:round;">
</g>
<g style="fill:#FFFFFF; fill-opacity:1.0; 
stroke:#FFFFFF; stroke-width:0; stroke-opacity:1; 
stroke-linecap:round; stroke-linejoin:round;">
<circle cx="47098.4" cy="32389.8" r="78.7402" /> 
</g>
<g style="fill:#FFFFFF; fill-opacity:1.0; 
stroke:#FFFFFF; stroke-width:39.3701; stroke-opacity:1; 
stroke-linecap:round; stroke-linejoin:round;">
</g>
<g style="fill:#FFFFFF; fill-opacity:1.0; 
stroke:#FFFFFF; stroke-width:0; stroke-opacity:1; 
stroke-linecap:round; stroke-linejoin:round;">
<circle cx="50000" cy="21889.8" r="78.7402" /> 
</g>
<g style="fill:#FFFFFF; fill-opacity:1.0; 
stroke:#FFFFFF; stroke-width:39.3701; stroke-opacity:1; 
stroke-linecap:round; stroke-linejoin:round;">
</g>
<g style="fill:#FFFFFF; fill-opacity:1.0; 
stroke:#FFFFFF; stroke-width:0; stroke-opacity:1; 
stroke-linecap:round; stroke-linejoin:round;">
<circle cx="50561" cy="24409.4" r="78.7402" /> 
</g>
<g style="fill:#FFFFFF; fill-opacity:1.0; 
stroke:#FFFFFF; stroke-width:39.3701; stroke-opacity:1; 
stroke-linecap:round; stroke-linejoin:round;">
</g>
<g style="fill:#FFFFFF; fill-opacity:1.0; 
stroke:#FFFFFF; stroke-width:0; stroke-opacity:1; 
stroke-linecap:round; stroke-linejoin:round;">
<circle cx="50561" cy="25040.5" r="78.7402" /> 
</g>
<g style="fill:#FFFFFF; fill-opacity:1.0; 
stroke:#FFFFFF; stroke-width:39.3701; stroke-opacity:1; 
stroke-linecap:round; stroke-linejoin:round;">
</g>
<g style="fill:#FFFFFF; fill-opacity:1.0; 
stroke:#FFFFFF; stroke-width:0; stroke-opacity:1; 
stroke-linecap:round; stroke-linejoin:round;">
<circle cx="56378" cy="24724.4" r="78.7402" /> 
</g>
<g style="fill:#FFFFFF; fill-opacity:1.0; 
stroke:#FFFFFF; stroke-width:39.3701; stroke-opacity:1; 
stroke-linecap:round; stroke-linejoin:round;">
</g>
<g style="fill:#FFFFFF; fill-opacity:1.0; 
stroke:#FFFFFF; stroke-width:0; stroke-opacity:1; 
stroke-linecap:round; stroke-linejoin:round;">
<circle cx="48907.5" cy="25423.2" r="78.7402" /> 
</g>
<g style="fill:#FFFFFF; fill-opacity:1.0; 
stroke:#FFFFFF; stroke-width:39.3701; stroke-opacity:1; 
stroke-linecap:round; stroke-linejoin:round;">
</g>
<g style="fill:#FFFFFF; fill-opacity:1.0; 
stroke:#FFFFFF; stroke-width:0; stroke-opacity:1; 
stroke-linecap:round; stroke-linejoin:round;">
<circle cx="47076.8" cy="25462.6" r="78.7402" /> 
</g>
<g style="fill:#FFFFFF; fill-opacity:1.0; 
stroke:#FFFFFF; stroke-width:39.3701; stroke-opacity:1; 
stroke-linecap:round; stroke-linejoin:round;">
</g>
<g style="fill:#FFFFFF; fill-opacity:1.0; 
stroke:#FFFFFF; stroke-width:0; stroke-opacity:1; 
stroke-linecap:round; stroke-linejoin:round;">
<circle cx="51692.9" cy="29960.6" r="78.7402" /> 
</g>
<g style="fill:#FFFFFF; fill-opacity:1.0; 
stroke:#FFFFFF; stroke-width:39.3701; stroke-opacity:1; 
stroke-linecap:round; stroke-linejoin:round;">
</g>
<g style="fill:#FFFFFF; fill-opacity:1.0; 
stroke:#FFFFFF; stroke-width:0; stroke-opacity:1; 
stroke-linecap:round; stroke-linejoin:round;">
<circle cx="53149.6" cy="28070.9" r="78.7402" /> 
</g>
<g style="fill:#FFFFFF; fill-opacity:1.0; 
stroke:#FFFFFF; stroke-width:39.3701; stroke-opacity:1; 
stroke-linecap:round; stroke-linejoin:round;">
</g>
<g style="fill:#FFFFFF; fill-opacity:1.0; 
stroke:#FFFFFF; stroke-width:0; stroke-opacity:1; 
stroke-linecap:round; stroke-linejoin:round;">
<circle cx="53582.7" cy="30157.5" r="78.7402" /> 
</g>
<g style="fill:#FFFFFF; fill-opacity:1.0; 
stroke:#FFFFFF; stroke-width:39.3701; stroke-opacity:1; 
stroke-linecap:round; stroke-linejoin:round;">
</g>
<g style="fill:#FFFFFF; fill-opacity:1.0; 
stroke:#FFFFFF; stroke-width:0; stroke-opacity:1; 
stroke-linecap:round; stroke-linejoin:round;">
<circle cx="52283.5" cy="30157.5" r="78.7402" /> 
</g>
<g style="fill:#FFFFFF; fill-opacity:1.0; 
stroke:#FFFFFF; stroke-width:39.3701; stroke-opacity:1; 
stroke-linecap:round; stroke-linejoin:round;">
</g>
<g style="fill:#FFFFFF; fill-opacity:1.0; 
stroke:#FFFFFF; stroke-width:0; stroke-opacity:1; 
stroke-linecap:round; stroke-linejoin:round;">
<circle cx="49645.7" cy="31338.6" r="78.7402" /> 
</g>
<g style="fill:#FFFFFF; fill-opacity:1.0; 
stroke:#FFFFFF; stroke-width:39.3701; stroke-opacity:1; 
stroke-linecap:round; stroke-linejoin:round;">
</g>
<g style="fill:#FFFFFF; fill-opacity:1.0; 
stroke:#FFFFFF; stroke-width:0; stroke-opacity:1; 
stroke-linecap:round; stroke-linejoin:round;">
<circle cx="47992.1" cy="30708.7" r="78.7402" /> 
</g>
<g style="fill:#FFFFFF; fill-opacity:1.0; 
stroke:#FFFFFF; stroke-width:39.3701; stroke-opacity:1; 
stroke-linecap:round; stroke-linejoin:round;">
</g>
<g style="fill:#FFFFFF; fill-opacity:1.0; 
stroke:#FFFFFF; stroke-width:0; stroke-opacity:1; 
stroke-linecap:round; stroke-linejoin:round;">
<circle cx="56732.3" cy="26574.8" r="78.7402" /> 
</g>
<g style="fill:#FFFFFF; fill-opacity:1.0; 
stroke:#FFFFFF; stroke-width:39.3701; stroke-opacity:1; 
stroke-linecap:round; stroke-linejoin:round;">
</g>
<g style="fill:#FFFFFF; fill-opacity:1.0; 
stroke:#FFFFFF; stroke-width:0; stroke-opacity:1; 
stroke-linecap:round; stroke-linejoin:round;">
<circle cx="57480.3" cy="26574.8" r="78.7402" /> 
</g>
<g style="fill:#FFFFFF; fill-opacity:1.0; 
stroke:#FFFFFF; stroke-width:39.3701; stroke-opacity:1; 
stroke-linecap:round; stroke-linejoin:round;">
</g>
<g style="fill:#FFFFFF; fill-opacity:1.0; 
stroke:#FFFFFF; stroke-width:0; stroke-opacity:1; 
stroke-linecap:round; stroke-linejoin:round;">
<circle cx="51574.8" cy="21496.1" r="78.7402" /> 
</g>
<g style="fill:#FFFFFF; fill-opacity:1.0; 
stroke:#FFFFFF; stroke-width:39.3701; stroke-opacity:1; 
stroke-linecap:round; stroke-linejoin:round;">
</g>
<g style="fill:#FFFFFF; fill-opacity:1.0; 
stroke:#FFFFFF; stroke-width:0; stroke-opacity:1; 
stroke-linecap:round; stroke-linejoin:round;">
<circle cx="47204.7" cy="30708.7" r="78.7402" /> 
</g>
<g style="fill:#FFFFFF; fill-opacity:1.0; 
stroke:#FFFFFF; stroke-width:39.3701; stroke-opacity:1; 
stroke-linecap:round; stroke-linejoin:round;">
</g>
<g style="fill:#FFFFFF; fill-opacity:1.0; 
stroke:#FFFFFF; stroke-width:0; stroke-opacity:1; 
stroke-linecap:round; stroke-linejoin:round;">
<circle cx="51653.5" cy="23110.2" r="78.7402" /> 
</g>
<g style="fill:#FFFFFF; fill-opacity:1.0; 
stroke:#FFFFFF; stroke-width:39.3701; stroke-opacity:1; 
stroke-linecap:round; stroke-linejoin:round;">
</g>
<g style="fill:#FFFFFF; fill-opacity:1.0; 
stroke:#FFFFFF; stroke-width:0; stroke-opacity:1; 
stroke-linecap:round; stroke-linejoin:round;">
<circle cx="48727.5" cy="27335.5" r="196.85" /> 
</g>
<g style="fill:#FFFFFF; fill-opacity:1.0; 
stroke:#FFFFFF; stroke-width:39.3701; stroke-opacity:1; 
stroke-linecap:round; stroke-linejoin:round;">
</g>
<g style="fill:#FFFFFF; fill-opacity:1.0; 
stroke:#FFFFFF; stroke-width:0; stroke-opacity:1; 
stroke-linecap:round; stroke-linejoin:round;">
<circle cx="47335.5" cy="27335.5" r="196.85" /> 
</g>
<g style="fill:#FFFFFF; fill-opacity:1.0; 
stroke:#FFFFFF; stroke-width:39.3701; stroke-opacity:1; 
stroke-linecap:round; stroke-linejoin:round;">
</g>
<g style="fill:#FFFFFF; fill-opacity:1.0; 
stroke:#FFFFFF; stroke-width:0; stroke-opacity:1; 
stroke-linecap:round; stroke-linejoin:round;">
<circle cx="47335.5" cy="28727.5" r="196.85" /> 
</g>
<g style="fill:#FFFFFF; fill-opacity:1.0; 
stroke:#FFFFFF; stroke-width:39.3701; stroke-opacity:1; 
stroke-linecap:round; stroke-linejoin:round;">
</g>
<g style="fill:#FFFFFF; fill-opacity:1.0; 
stroke:#FFFFFF; stroke-width:0; stroke-opacity:1; 
stroke-linecap:round; stroke-linejoin:round;">
<circle cx="48727.5" cy="28727.5" r="196.85" /> 
</g>
<g style="fill:#FFFFFF; fill-opacity:1.0; 
stroke:#FFFFFF; stroke-width:39.3701; stroke-opacity:1; 
stroke-linecap:round; stroke-linejoin:round;">
</g>
<g style="fill:#FFFFFF; fill-opacity:1.0; 
stroke:#FFFFFF; stroke-width:0; stroke-opacity:1; 
stroke-linecap:round; stroke-linejoin:round;">
<circle cx="46598.4" cy="31988.6" r="195.079" /> 
</g>
<g style="fill:#FFFFFF; fill-opacity:1.0; 
stroke:#FFFFFF; stroke-width:39.3701; stroke-opacity:1; 
stroke-linecap:round; stroke-linejoin:round;">
</g>
<g style="fill:#FFFFFF; fill-opacity:1.0; 
stroke:#FFFFFF; stroke-width:0; stroke-opacity:1; 
stroke-linecap:round; stroke-linejoin:round;">
<circle cx="46598.4" cy="31188.6" r="195.079" /> 
</g>
<g style="fill:#FFFFFF; fill-opacity:1.0; 
stroke:#FFFFFF; stroke-width:39.3701; stroke-opacity:1; 
stroke-linecap:round; stroke-linejoin:round;">
</g>
<g style="fill:#FFFFFF; fill-opacity:1.0; 
stroke:#FFFFFF; stroke-width:0; stroke-opacity:1; 
stroke-linecap:round; stroke-linejoin:round;">
<circle cx="48598.4" cy="31588.6" r="195.079" /> 
</g>
<g style="fill:#FFFFFF; fill-opacity:1.0; 
stroke:#FFFFFF; stroke-width:39.3701; stroke-opacity:1; 
stroke-linecap:round; stroke-linejoin:round;">
</g>
<g style="fill:#FFFFFF; fill-opacity:1.0; 
stroke:#FFFFFF; stroke-width:0; stroke-opacity:1; 
stroke-linecap:round; stroke-linejoin:round;">
<circle cx="57047.2" cy="31417.3" r="590.551" /> 
</g>
<g style="fill:#FFFFFF; fill-opacity:1.0; 
stroke:#FFFFFF; stroke-width:39.3701; stroke-opacity:1; 
stroke-linecap:round; stroke-linejoin:round;">
</g>
<g style="fill:#000000; fill-opacity:1.0; 
stroke:#000000; stroke-width:39.3701; stroke-opacity:1; 
stroke-linecap:round; stroke-linejoin:round;">
</g> 
</svg>
