G04 #@! TF.FileFunction,Legend,Bot*
%FSLAX46Y46*%
G04 Gerber Fmt 4.6, Leading zero omitted, Abs format (unit mm)*
G04 Created by KiCad (PCBNEW 4.0.2-stable) date Wed 04 May 2016 01:37:53 PM EDT*
%MOMM*%
G01*
G04 APERTURE LIST*
%ADD10C,0.100000*%
%ADD11C,0.150000*%
G04 APERTURE END LIST*
D10*
D11*
X133775000Y-70550000D02*
X133775000Y-71050000D01*
X132825000Y-71050000D02*
X132825000Y-70550000D01*
X129225000Y-75900000D02*
X129225000Y-75400000D01*
X130175000Y-75400000D02*
X130175000Y-75900000D01*
X136300000Y-80775000D02*
X134300000Y-80775000D01*
X134300000Y-77825000D02*
X136300000Y-77825000D01*
X138150000Y-75350000D02*
X138150000Y-75850000D01*
X137200000Y-75850000D02*
X137200000Y-75350000D01*
X135300000Y-72575000D02*
X131800000Y-72575000D01*
X135300000Y-76075000D02*
X135300000Y-72575000D01*
X131800000Y-76075000D02*
X135300000Y-76075000D01*
X131800000Y-72575000D02*
X131800000Y-76075000D01*
X135357143Y-70633334D02*
X135404762Y-70585715D01*
X135452381Y-70442858D01*
X135452381Y-70347620D01*
X135404762Y-70204762D01*
X135309524Y-70109524D01*
X135214286Y-70061905D01*
X135023810Y-70014286D01*
X134880952Y-70014286D01*
X134690476Y-70061905D01*
X134595238Y-70109524D01*
X134500000Y-70204762D01*
X134452381Y-70347620D01*
X134452381Y-70442858D01*
X134500000Y-70585715D01*
X134547619Y-70633334D01*
X134452381Y-70966667D02*
X134452381Y-71585715D01*
X134833333Y-71252381D01*
X134833333Y-71395239D01*
X134880952Y-71490477D01*
X134928571Y-71538096D01*
X135023810Y-71585715D01*
X135261905Y-71585715D01*
X135357143Y-71538096D01*
X135404762Y-71490477D01*
X135452381Y-71395239D01*
X135452381Y-71109524D01*
X135404762Y-71014286D01*
X135357143Y-70966667D01*
X128357143Y-75483334D02*
X128404762Y-75435715D01*
X128452381Y-75292858D01*
X128452381Y-75197620D01*
X128404762Y-75054762D01*
X128309524Y-74959524D01*
X128214286Y-74911905D01*
X128023810Y-74864286D01*
X127880952Y-74864286D01*
X127690476Y-74911905D01*
X127595238Y-74959524D01*
X127500000Y-75054762D01*
X127452381Y-75197620D01*
X127452381Y-75292858D01*
X127500000Y-75435715D01*
X127547619Y-75483334D01*
X127785714Y-76340477D02*
X128452381Y-76340477D01*
X127404762Y-76102381D02*
X128119048Y-75864286D01*
X128119048Y-76483334D01*
X135466666Y-82357143D02*
X135514285Y-82404762D01*
X135657142Y-82452381D01*
X135752380Y-82452381D01*
X135895238Y-82404762D01*
X135990476Y-82309524D01*
X136038095Y-82214286D01*
X136085714Y-82023810D01*
X136085714Y-81880952D01*
X136038095Y-81690476D01*
X135990476Y-81595238D01*
X135895238Y-81500000D01*
X135752380Y-81452381D01*
X135657142Y-81452381D01*
X135514285Y-81500000D01*
X135466666Y-81547619D01*
X134561904Y-81452381D02*
X135038095Y-81452381D01*
X135085714Y-81928571D01*
X135038095Y-81880952D01*
X134942857Y-81833333D01*
X134704761Y-81833333D01*
X134609523Y-81880952D01*
X134561904Y-81928571D01*
X134514285Y-82023810D01*
X134514285Y-82261905D01*
X134561904Y-82357143D01*
X134609523Y-82404762D01*
X134704761Y-82452381D01*
X134942857Y-82452381D01*
X135038095Y-82404762D01*
X135085714Y-82357143D01*
X138157143Y-73108334D02*
X138204762Y-73060715D01*
X138252381Y-72917858D01*
X138252381Y-72822620D01*
X138204762Y-72679762D01*
X138109524Y-72584524D01*
X138014286Y-72536905D01*
X137823810Y-72489286D01*
X137680952Y-72489286D01*
X137490476Y-72536905D01*
X137395238Y-72584524D01*
X137300000Y-72679762D01*
X137252381Y-72822620D01*
X137252381Y-72917858D01*
X137300000Y-73060715D01*
X137347619Y-73108334D01*
X137252381Y-73965477D02*
X137252381Y-73775000D01*
X137300000Y-73679762D01*
X137347619Y-73632143D01*
X137490476Y-73536905D01*
X137680952Y-73489286D01*
X138061905Y-73489286D01*
X138157143Y-73536905D01*
X138204762Y-73584524D01*
X138252381Y-73679762D01*
X138252381Y-73870239D01*
X138204762Y-73965477D01*
X138157143Y-74013096D01*
X138061905Y-74060715D01*
X137823810Y-74060715D01*
X137728571Y-74013096D01*
X137680952Y-73965477D01*
X137633333Y-73870239D01*
X137633333Y-73679762D01*
X137680952Y-73584524D01*
X137728571Y-73536905D01*
X137823810Y-73489286D01*
X135752381Y-73563095D02*
X136561905Y-73563095D01*
X136657143Y-73610714D01*
X136704762Y-73658333D01*
X136752381Y-73753571D01*
X136752381Y-73944048D01*
X136704762Y-74039286D01*
X136657143Y-74086905D01*
X136561905Y-74134524D01*
X135752381Y-74134524D01*
X135847619Y-74563095D02*
X135800000Y-74610714D01*
X135752381Y-74705952D01*
X135752381Y-74944048D01*
X135800000Y-75039286D01*
X135847619Y-75086905D01*
X135942857Y-75134524D01*
X136038095Y-75134524D01*
X136180952Y-75086905D01*
X136752381Y-74515476D01*
X136752381Y-75134524D01*
M02*
