M48
;DRILL file {KiCad 4.0.2-stable} date Wed 04 May 2016 01:37:58 PM EDT
;FORMAT={-:-/ absolute / inch / decimal}
FMAT,2
INCH,TZ
T1C0.016
T2C0.039
T3C0.040
T4C0.118
%
G90
G05
M72
T1
X4.7077Y-2.5463
X4.7098Y-3.239
X4.7205Y-3.0709
X4.7992Y-3.0709
X4.8907Y-2.5423
X4.9636Y-2.9951
X4.9646Y-3.1339
X5.Y-2.189
X5.0561Y-2.504
X5.0561Y-2.4409
X5.1575Y-2.1496
X5.1654Y-2.311
X5.1693Y-2.9961
X5.2283Y-3.0157
X5.315Y-2.8071
X5.3583Y-3.0157
X5.4085Y-2.565
X5.4488Y-2.7313
X5.5014Y-2.771
X5.6378Y-2.4724
X5.6732Y-2.6575
X5.748Y-2.6575
X5.8415Y-2.6565
T2
X4.7336Y-2.7336
X4.7336Y-2.8727
X4.8727Y-2.7336
X4.8727Y-2.8727
T3
X5.5254Y-2.9114
X5.5254Y-3.0114
X5.6254Y-2.9114
X5.6254Y-3.0114
X5.7254Y-2.9114
X5.7254Y-3.0114
X5.8254Y-2.9114
X5.8254Y-3.0114
T4
X5.7156Y-3.1929
T0
M30
