G04 #@! TF.FileFunction,Paste,Top*
%FSLAX46Y46*%
G04 Gerber Fmt 4.6, Leading zero omitted, Abs format (unit mm)*
G04 Created by KiCad (PCBNEW 4.0.5) date Tue Mar 21 18:47:35 2017*
%MOMM*%
%LPD*%
G01*
G04 APERTURE LIST*
%ADD10C,0.100000*%
%ADD11R,2.000000X1.600000*%
%ADD12R,1.200000X0.750000*%
%ADD13R,0.750000X1.200000*%
%ADD14R,1.500000X1.250000*%
%ADD15R,0.400000X1.350000*%
%ADD16R,1.200000X0.900000*%
%ADD17R,0.900000X1.200000*%
%ADD18R,0.300000X1.650000*%
%ADD19R,1.980000X1.730000*%
%ADD20R,1.700000X0.350000*%
%ADD21R,3.048000X1.651000*%
%ADD22R,6.096000X6.096000*%
G04 APERTURE END LIST*
D10*
D11*
X112450000Y-103500000D03*
X108450000Y-103500000D03*
D12*
X112450000Y-106800000D03*
X114350000Y-106800000D03*
D11*
X119500000Y-117800000D03*
X115500000Y-117800000D03*
X109550000Y-117950000D03*
X105550000Y-117950000D03*
D12*
X132450000Y-120500000D03*
X130550000Y-120500000D03*
X133050000Y-106900000D03*
X131150000Y-106900000D03*
X143500000Y-113500000D03*
X145400000Y-113500000D03*
X135200000Y-113750000D03*
X133300000Y-113750000D03*
D13*
X145700000Y-107350000D03*
X145700000Y-105450000D03*
X133100000Y-102850000D03*
X133100000Y-100950000D03*
D12*
X133150000Y-105000000D03*
X131250000Y-105000000D03*
D13*
X97850000Y-121900000D03*
X97850000Y-123800000D03*
X155050000Y-43250000D03*
X155050000Y-41350000D03*
D12*
X130350000Y-39500000D03*
X128450000Y-39500000D03*
X89850000Y-38900000D03*
X91750000Y-38900000D03*
D14*
X133500000Y-117250000D03*
X136000000Y-117250000D03*
D15*
X138699100Y-119937460D03*
X139349100Y-119937460D03*
X139999100Y-119937460D03*
X140649100Y-119937460D03*
X141299100Y-119937460D03*
D16*
X107800000Y-86800000D03*
X105600000Y-86800000D03*
X112600000Y-86800000D03*
X114800000Y-86800000D03*
X112650000Y-82150000D03*
X114850000Y-82150000D03*
X120200000Y-84200000D03*
X122400000Y-84200000D03*
D17*
X138250000Y-113650000D03*
X138250000Y-115850000D03*
X140950000Y-113650000D03*
X140950000Y-115850000D03*
D18*
X113450000Y-109800000D03*
X112950000Y-109800000D03*
X112450000Y-109800000D03*
X111950000Y-109800000D03*
X111450000Y-109800000D03*
X111450000Y-114400000D03*
X111950000Y-114400000D03*
X112450000Y-114400000D03*
X112950000Y-114400000D03*
X113450000Y-114400000D03*
D19*
X112450000Y-112100000D03*
D20*
X141950000Y-108607500D03*
X141950000Y-107972500D03*
X141950000Y-107337500D03*
X141950000Y-106702500D03*
X141950000Y-106067500D03*
X141950000Y-105432500D03*
X141950000Y-104797500D03*
X141950000Y-104162500D03*
X141950000Y-103527500D03*
X141950000Y-102892500D03*
X136550000Y-102892500D03*
X136550000Y-103527500D03*
X136550000Y-104162500D03*
X136550000Y-104797500D03*
X136550000Y-105432500D03*
X136550000Y-106067500D03*
X136550000Y-106702500D03*
X136550000Y-107337500D03*
X136550000Y-107972500D03*
X136550000Y-108607500D03*
D21*
X99500000Y-118536000D03*
D22*
X93150000Y-116250000D03*
D21*
X99500000Y-113964000D03*
M02*
