G04 #@! TF.FileFunction,Legend,Top*
%FSLAX46Y46*%
G04 Gerber Fmt 4.6, Leading zero omitted, Abs format (unit mm)*
G04 Created by KiCad (PCBNEW 4.0.5) date Thu Apr  6 07:48:10 2017*
%MOMM*%
%LPD*%
G01*
G04 APERTURE LIST*
%ADD10C,0.100000*%
%ADD11C,0.300000*%
%ADD12C,0.200000*%
%ADD13C,0.150000*%
G04 APERTURE END LIST*
D10*
D11*
X146384524Y-123565476D02*
X146384524Y-122315476D01*
X146682143Y-122315476D01*
X146860715Y-122375000D01*
X146979762Y-122494048D01*
X147039286Y-122613095D01*
X147098810Y-122851190D01*
X147098810Y-123029762D01*
X147039286Y-123267857D01*
X146979762Y-123386905D01*
X146860715Y-123505952D01*
X146682143Y-123565476D01*
X146384524Y-123565476D01*
X148110715Y-123505952D02*
X147991667Y-123565476D01*
X147753572Y-123565476D01*
X147634524Y-123505952D01*
X147575000Y-123386905D01*
X147575000Y-122910714D01*
X147634524Y-122791667D01*
X147753572Y-122732143D01*
X147991667Y-122732143D01*
X148110715Y-122791667D01*
X148170238Y-122910714D01*
X148170238Y-123029762D01*
X147575000Y-123148810D01*
X148705953Y-123565476D02*
X148705953Y-122315476D01*
X148705953Y-122791667D02*
X148825001Y-122732143D01*
X149063096Y-122732143D01*
X149182144Y-122791667D01*
X149241667Y-122851190D01*
X149301191Y-122970238D01*
X149301191Y-123327381D01*
X149241667Y-123446429D01*
X149182144Y-123505952D01*
X149063096Y-123565476D01*
X148825001Y-123565476D01*
X148705953Y-123505952D01*
X150372619Y-122732143D02*
X150372619Y-123565476D01*
X149836905Y-122732143D02*
X149836905Y-123386905D01*
X149896429Y-123505952D01*
X150015476Y-123565476D01*
X150194048Y-123565476D01*
X150313096Y-123505952D01*
X150372619Y-123446429D01*
X151503571Y-122732143D02*
X151503571Y-123744048D01*
X151444048Y-123863095D01*
X151384524Y-123922619D01*
X151265476Y-123982143D01*
X151086905Y-123982143D01*
X150967857Y-123922619D01*
X151503571Y-123505952D02*
X151384524Y-123565476D01*
X151146428Y-123565476D01*
X151027381Y-123505952D01*
X150967857Y-123446429D01*
X150908333Y-123327381D01*
X150908333Y-122970238D01*
X150967857Y-122851190D01*
X151027381Y-122791667D01*
X151146428Y-122732143D01*
X151384524Y-122732143D01*
X151503571Y-122791667D01*
X152098809Y-123089286D02*
X153051190Y-123089286D01*
X153646428Y-122315476D02*
X153646428Y-123327381D01*
X153705952Y-123446429D01*
X153765476Y-123505952D01*
X153884523Y-123565476D01*
X154122619Y-123565476D01*
X154241666Y-123505952D01*
X154301190Y-123446429D01*
X154360714Y-123327381D01*
X154360714Y-122315476D01*
X154896428Y-123505952D02*
X155075000Y-123565476D01*
X155372619Y-123565476D01*
X155491666Y-123505952D01*
X155551190Y-123446429D01*
X155610714Y-123327381D01*
X155610714Y-123208333D01*
X155551190Y-123089286D01*
X155491666Y-123029762D01*
X155372619Y-122970238D01*
X155134523Y-122910714D01*
X155015476Y-122851190D01*
X154955952Y-122791667D01*
X154896428Y-122672619D01*
X154896428Y-122553571D01*
X154955952Y-122434524D01*
X155015476Y-122375000D01*
X155134523Y-122315476D01*
X155432143Y-122315476D01*
X155610714Y-122375000D01*
X156086904Y-123208333D02*
X156682142Y-123208333D01*
X155967857Y-123565476D02*
X156384523Y-122315476D01*
X156801190Y-123565476D01*
X157932143Y-123565476D02*
X157515476Y-122970238D01*
X157217857Y-123565476D02*
X157217857Y-122315476D01*
X157694048Y-122315476D01*
X157813095Y-122375000D01*
X157872619Y-122434524D01*
X157932143Y-122553571D01*
X157932143Y-122732143D01*
X157872619Y-122851190D01*
X157813095Y-122910714D01*
X157694048Y-122970238D01*
X157217857Y-122970238D01*
X158289286Y-122315476D02*
X159003571Y-122315476D01*
X158646428Y-123565476D02*
X158646428Y-122315476D01*
X160075000Y-123565476D02*
X159360714Y-123565476D01*
X159717857Y-123565476D02*
X159717857Y-122315476D01*
X159598809Y-122494048D01*
X159479762Y-122613095D01*
X159360714Y-122672619D01*
X121135715Y-123728571D02*
X121135715Y-122228571D01*
X121635715Y-123300000D01*
X122135715Y-122228571D01*
X122135715Y-123728571D01*
X122778572Y-122371429D02*
X122850001Y-122300000D01*
X122992858Y-122228571D01*
X123350001Y-122228571D01*
X123492858Y-122300000D01*
X123564287Y-122371429D01*
X123635715Y-122514286D01*
X123635715Y-122657143D01*
X123564287Y-122871429D01*
X122707144Y-123728571D01*
X123635715Y-123728571D01*
X101435715Y-123528571D02*
X101435715Y-122028571D01*
X101935715Y-123100000D01*
X102435715Y-122028571D01*
X102435715Y-123528571D01*
X103935715Y-123528571D02*
X103078572Y-123528571D01*
X103507144Y-123528571D02*
X103507144Y-122028571D01*
X103364287Y-122242857D01*
X103221429Y-122385714D01*
X103078572Y-122457143D01*
D12*
X96300000Y-123850000D02*
X96450000Y-123850000D01*
X96200000Y-123450000D02*
X96550000Y-123450000D01*
X96000000Y-123100000D02*
X96700000Y-123100000D01*
X96350000Y-122500000D02*
X96350000Y-123050000D01*
X95400000Y-122500000D02*
X96350000Y-122500000D01*
D11*
X90771429Y-119292857D02*
X90985715Y-119364286D01*
X91057143Y-119435714D01*
X91128572Y-119578571D01*
X91128572Y-119792857D01*
X91057143Y-119935714D01*
X90985715Y-120007143D01*
X90842857Y-120078571D01*
X90271429Y-120078571D01*
X90271429Y-118578571D01*
X90771429Y-118578571D01*
X90914286Y-118650000D01*
X90985715Y-118721429D01*
X91057143Y-118864286D01*
X91057143Y-119007143D01*
X90985715Y-119150000D01*
X90914286Y-119221429D01*
X90771429Y-119292857D01*
X90271429Y-119292857D01*
X92414286Y-120078571D02*
X92414286Y-119292857D01*
X92342857Y-119150000D01*
X92200000Y-119078571D01*
X91914286Y-119078571D01*
X91771429Y-119150000D01*
X92414286Y-120007143D02*
X92271429Y-120078571D01*
X91914286Y-120078571D01*
X91771429Y-120007143D01*
X91700000Y-119864286D01*
X91700000Y-119721429D01*
X91771429Y-119578571D01*
X91914286Y-119507143D01*
X92271429Y-119507143D01*
X92414286Y-119435714D01*
X92914286Y-119078571D02*
X93485715Y-119078571D01*
X93128572Y-118578571D02*
X93128572Y-119864286D01*
X93200000Y-120007143D01*
X93342858Y-120078571D01*
X93485715Y-120078571D01*
X93771429Y-119078571D02*
X94342858Y-119078571D01*
X93985715Y-118578571D02*
X93985715Y-119864286D01*
X94057143Y-120007143D01*
X94200001Y-120078571D01*
X94342858Y-120078571D01*
X108471429Y-47232143D02*
X108685715Y-47303571D01*
X109042858Y-47303571D01*
X109185715Y-47232143D01*
X109257144Y-47160714D01*
X109328572Y-47017857D01*
X109328572Y-46875000D01*
X109257144Y-46732143D01*
X109185715Y-46660714D01*
X109042858Y-46589286D01*
X108757144Y-46517857D01*
X108614286Y-46446429D01*
X108542858Y-46375000D01*
X108471429Y-46232143D01*
X108471429Y-46089286D01*
X108542858Y-45946429D01*
X108614286Y-45875000D01*
X108757144Y-45803571D01*
X109114286Y-45803571D01*
X109328572Y-45875000D01*
X109757143Y-45803571D02*
X110614286Y-45803571D01*
X110185715Y-47303571D02*
X110185715Y-45803571D01*
X111114286Y-47303571D02*
X111114286Y-45803571D01*
X111614286Y-46875000D01*
X112114286Y-45803571D01*
X112114286Y-47303571D01*
X112685715Y-45803571D02*
X113614286Y-45803571D01*
X113114286Y-46375000D01*
X113328572Y-46375000D01*
X113471429Y-46446429D01*
X113542858Y-46517857D01*
X113614286Y-46660714D01*
X113614286Y-47017857D01*
X113542858Y-47160714D01*
X113471429Y-47232143D01*
X113328572Y-47303571D01*
X112900000Y-47303571D01*
X112757143Y-47232143D01*
X112685715Y-47160714D01*
X114185714Y-45946429D02*
X114257143Y-45875000D01*
X114400000Y-45803571D01*
X114757143Y-45803571D01*
X114900000Y-45875000D01*
X114971429Y-45946429D01*
X115042857Y-46089286D01*
X115042857Y-46232143D01*
X114971429Y-46446429D01*
X114114286Y-47303571D01*
X115042857Y-47303571D01*
X117685714Y-47303571D02*
X117185714Y-46589286D01*
X116828571Y-47303571D02*
X116828571Y-45803571D01*
X117399999Y-45803571D01*
X117542857Y-45875000D01*
X117614285Y-45946429D01*
X117685714Y-46089286D01*
X117685714Y-46303571D01*
X117614285Y-46446429D01*
X117542857Y-46517857D01*
X117399999Y-46589286D01*
X116828571Y-46589286D01*
X118542857Y-47303571D02*
X118399999Y-47232143D01*
X118328571Y-47160714D01*
X118257142Y-47017857D01*
X118257142Y-46589286D01*
X118328571Y-46446429D01*
X118399999Y-46375000D01*
X118542857Y-46303571D01*
X118757142Y-46303571D01*
X118899999Y-46375000D01*
X118971428Y-46446429D01*
X119042857Y-46589286D01*
X119042857Y-47017857D01*
X118971428Y-47160714D01*
X118899999Y-47232143D01*
X118757142Y-47303571D01*
X118542857Y-47303571D01*
X119685714Y-47303571D02*
X119685714Y-45803571D01*
X119685714Y-46375000D02*
X119828571Y-46303571D01*
X120114285Y-46303571D01*
X120257142Y-46375000D01*
X120328571Y-46446429D01*
X120400000Y-46589286D01*
X120400000Y-47017857D01*
X120328571Y-47160714D01*
X120257142Y-47232143D01*
X120114285Y-47303571D01*
X119828571Y-47303571D01*
X119685714Y-47232143D01*
X121257143Y-47303571D02*
X121114285Y-47232143D01*
X121042857Y-47160714D01*
X120971428Y-47017857D01*
X120971428Y-46589286D01*
X121042857Y-46446429D01*
X121114285Y-46375000D01*
X121257143Y-46303571D01*
X121471428Y-46303571D01*
X121614285Y-46375000D01*
X121685714Y-46446429D01*
X121757143Y-46589286D01*
X121757143Y-47017857D01*
X121685714Y-47160714D01*
X121614285Y-47232143D01*
X121471428Y-47303571D01*
X121257143Y-47303571D01*
X122185714Y-46303571D02*
X122757143Y-46303571D01*
X122400000Y-45803571D02*
X122400000Y-47089286D01*
X122471428Y-47232143D01*
X122614286Y-47303571D01*
X122757143Y-47303571D01*
X124400000Y-47303571D02*
X124400000Y-45803571D01*
X125114286Y-46303571D02*
X125114286Y-47303571D01*
X125114286Y-46446429D02*
X125185714Y-46375000D01*
X125328572Y-46303571D01*
X125542857Y-46303571D01*
X125685714Y-46375000D01*
X125757143Y-46517857D01*
X125757143Y-47303571D01*
X126257143Y-46303571D02*
X126828572Y-46303571D01*
X126471429Y-45803571D02*
X126471429Y-47089286D01*
X126542857Y-47232143D01*
X126685715Y-47303571D01*
X126828572Y-47303571D01*
X127900000Y-47232143D02*
X127757143Y-47303571D01*
X127471429Y-47303571D01*
X127328572Y-47232143D01*
X127257143Y-47089286D01*
X127257143Y-46517857D01*
X127328572Y-46375000D01*
X127471429Y-46303571D01*
X127757143Y-46303571D01*
X127900000Y-46375000D01*
X127971429Y-46517857D01*
X127971429Y-46660714D01*
X127257143Y-46803571D01*
X128614286Y-47303571D02*
X128614286Y-46303571D01*
X128614286Y-46589286D02*
X128685714Y-46446429D01*
X128757143Y-46375000D01*
X128900000Y-46303571D01*
X129042857Y-46303571D01*
X129328571Y-46303571D02*
X129900000Y-46303571D01*
X129542857Y-47303571D02*
X129542857Y-46017857D01*
X129614285Y-45875000D01*
X129757143Y-45803571D01*
X129900000Y-45803571D01*
X131042857Y-47303571D02*
X131042857Y-46517857D01*
X130971428Y-46375000D01*
X130828571Y-46303571D01*
X130542857Y-46303571D01*
X130400000Y-46375000D01*
X131042857Y-47232143D02*
X130900000Y-47303571D01*
X130542857Y-47303571D01*
X130400000Y-47232143D01*
X130328571Y-47089286D01*
X130328571Y-46946429D01*
X130400000Y-46803571D01*
X130542857Y-46732143D01*
X130900000Y-46732143D01*
X131042857Y-46660714D01*
X132400000Y-47232143D02*
X132257143Y-47303571D01*
X131971429Y-47303571D01*
X131828571Y-47232143D01*
X131757143Y-47160714D01*
X131685714Y-47017857D01*
X131685714Y-46589286D01*
X131757143Y-46446429D01*
X131828571Y-46375000D01*
X131971429Y-46303571D01*
X132257143Y-46303571D01*
X132400000Y-46375000D01*
X133614285Y-47232143D02*
X133471428Y-47303571D01*
X133185714Y-47303571D01*
X133042857Y-47232143D01*
X132971428Y-47089286D01*
X132971428Y-46517857D01*
X133042857Y-46375000D01*
X133185714Y-46303571D01*
X133471428Y-46303571D01*
X133614285Y-46375000D01*
X133685714Y-46517857D01*
X133685714Y-46660714D01*
X132971428Y-46803571D01*
X135971428Y-46517857D02*
X136185714Y-46589286D01*
X136257142Y-46660714D01*
X136328571Y-46803571D01*
X136328571Y-47017857D01*
X136257142Y-47160714D01*
X136185714Y-47232143D01*
X136042856Y-47303571D01*
X135471428Y-47303571D01*
X135471428Y-45803571D01*
X135971428Y-45803571D01*
X136114285Y-45875000D01*
X136185714Y-45946429D01*
X136257142Y-46089286D01*
X136257142Y-46232143D01*
X136185714Y-46375000D01*
X136114285Y-46446429D01*
X135971428Y-46517857D01*
X135471428Y-46517857D01*
X137185714Y-47303571D02*
X137042856Y-47232143D01*
X136971428Y-47160714D01*
X136899999Y-47017857D01*
X136899999Y-46589286D01*
X136971428Y-46446429D01*
X137042856Y-46375000D01*
X137185714Y-46303571D01*
X137399999Y-46303571D01*
X137542856Y-46375000D01*
X137614285Y-46446429D01*
X137685714Y-46589286D01*
X137685714Y-47017857D01*
X137614285Y-47160714D01*
X137542856Y-47232143D01*
X137399999Y-47303571D01*
X137185714Y-47303571D01*
X138971428Y-47303571D02*
X138971428Y-46517857D01*
X138899999Y-46375000D01*
X138757142Y-46303571D01*
X138471428Y-46303571D01*
X138328571Y-46375000D01*
X138971428Y-47232143D02*
X138828571Y-47303571D01*
X138471428Y-47303571D01*
X138328571Y-47232143D01*
X138257142Y-47089286D01*
X138257142Y-46946429D01*
X138328571Y-46803571D01*
X138471428Y-46732143D01*
X138828571Y-46732143D01*
X138971428Y-46660714D01*
X139685714Y-47303571D02*
X139685714Y-46303571D01*
X139685714Y-46589286D02*
X139757142Y-46446429D01*
X139828571Y-46375000D01*
X139971428Y-46303571D01*
X140114285Y-46303571D01*
X141257142Y-47303571D02*
X141257142Y-45803571D01*
X141257142Y-47232143D02*
X141114285Y-47303571D01*
X140828571Y-47303571D01*
X140685713Y-47232143D01*
X140614285Y-47160714D01*
X140542856Y-47017857D01*
X140542856Y-46589286D01*
X140614285Y-46446429D01*
X140685713Y-46375000D01*
X140828571Y-46303571D01*
X141114285Y-46303571D01*
X141257142Y-46375000D01*
X115257142Y-49425000D02*
X115971428Y-49425000D01*
X115114285Y-49853571D02*
X115614285Y-48353571D01*
X116114285Y-49853571D01*
X116614285Y-49853571D02*
X116614285Y-48353571D01*
X116614285Y-48925000D02*
X116757142Y-48853571D01*
X117042856Y-48853571D01*
X117185713Y-48925000D01*
X117257142Y-48996429D01*
X117328571Y-49139286D01*
X117328571Y-49567857D01*
X117257142Y-49710714D01*
X117185713Y-49782143D01*
X117042856Y-49853571D01*
X116757142Y-49853571D01*
X116614285Y-49782143D01*
X117971428Y-49853571D02*
X117971428Y-48353571D01*
X118614285Y-49853571D02*
X118614285Y-49067857D01*
X118542856Y-48925000D01*
X118399999Y-48853571D01*
X118185714Y-48853571D01*
X118042856Y-48925000D01*
X117971428Y-48996429D01*
X119328571Y-49853571D02*
X119328571Y-48853571D01*
X119328571Y-48353571D02*
X119257142Y-48425000D01*
X119328571Y-48496429D01*
X119399999Y-48425000D01*
X119328571Y-48353571D01*
X119328571Y-48496429D01*
X120042857Y-49853571D02*
X120042857Y-48853571D01*
X120042857Y-48996429D02*
X120114285Y-48925000D01*
X120257143Y-48853571D01*
X120471428Y-48853571D01*
X120614285Y-48925000D01*
X120685714Y-49067857D01*
X120685714Y-49853571D01*
X120685714Y-49067857D02*
X120757143Y-48925000D01*
X120900000Y-48853571D01*
X121114285Y-48853571D01*
X121257143Y-48925000D01*
X121328571Y-49067857D01*
X121328571Y-49853571D01*
X122685714Y-49853571D02*
X122685714Y-49067857D01*
X122614285Y-48925000D01*
X122471428Y-48853571D01*
X122185714Y-48853571D01*
X122042857Y-48925000D01*
X122685714Y-49782143D02*
X122542857Y-49853571D01*
X122185714Y-49853571D01*
X122042857Y-49782143D01*
X121971428Y-49639286D01*
X121971428Y-49496429D01*
X122042857Y-49353571D01*
X122185714Y-49282143D01*
X122542857Y-49282143D01*
X122685714Y-49210714D01*
X123400000Y-48853571D02*
X123400000Y-49853571D01*
X123400000Y-48996429D02*
X123471428Y-48925000D01*
X123614286Y-48853571D01*
X123828571Y-48853571D01*
X123971428Y-48925000D01*
X124042857Y-49067857D01*
X124042857Y-49853571D01*
X124614286Y-48853571D02*
X124971429Y-49853571D01*
X125328571Y-48853571D02*
X124971429Y-49853571D01*
X124828571Y-50210714D01*
X124757143Y-50282143D01*
X124614286Y-50353571D01*
X126542857Y-48853571D02*
X126542857Y-49853571D01*
X125900000Y-48853571D02*
X125900000Y-49639286D01*
X125971428Y-49782143D01*
X126114286Y-49853571D01*
X126328571Y-49853571D01*
X126471428Y-49782143D01*
X126542857Y-49710714D01*
X129185714Y-48425000D02*
X129042857Y-48353571D01*
X128828571Y-48353571D01*
X128614286Y-48425000D01*
X128471428Y-48567857D01*
X128400000Y-48710714D01*
X128328571Y-48996429D01*
X128328571Y-49210714D01*
X128400000Y-49496429D01*
X128471428Y-49639286D01*
X128614286Y-49782143D01*
X128828571Y-49853571D01*
X128971428Y-49853571D01*
X129185714Y-49782143D01*
X129257143Y-49710714D01*
X129257143Y-49210714D01*
X128971428Y-49210714D01*
X129900000Y-49853571D02*
X129900000Y-48353571D01*
X130542857Y-49853571D02*
X130542857Y-49067857D01*
X130471428Y-48925000D01*
X130328571Y-48853571D01*
X130114286Y-48853571D01*
X129971428Y-48925000D01*
X129900000Y-48996429D01*
X131471429Y-49853571D02*
X131328571Y-49782143D01*
X131257143Y-49710714D01*
X131185714Y-49567857D01*
X131185714Y-49139286D01*
X131257143Y-48996429D01*
X131328571Y-48925000D01*
X131471429Y-48853571D01*
X131685714Y-48853571D01*
X131828571Y-48925000D01*
X131900000Y-48996429D01*
X131971429Y-49139286D01*
X131971429Y-49567857D01*
X131900000Y-49710714D01*
X131828571Y-49782143D01*
X131685714Y-49853571D01*
X131471429Y-49853571D01*
X132542857Y-49782143D02*
X132685714Y-49853571D01*
X132971429Y-49853571D01*
X133114286Y-49782143D01*
X133185714Y-49639286D01*
X133185714Y-49567857D01*
X133114286Y-49425000D01*
X132971429Y-49353571D01*
X132757143Y-49353571D01*
X132614286Y-49282143D01*
X132542857Y-49139286D01*
X132542857Y-49067857D01*
X132614286Y-48925000D01*
X132757143Y-48853571D01*
X132971429Y-48853571D01*
X133114286Y-48925000D01*
X133828572Y-49853571D02*
X133828572Y-48353571D01*
X134471429Y-49853571D02*
X134471429Y-49067857D01*
X134400000Y-48925000D01*
X134257143Y-48853571D01*
X134042858Y-48853571D01*
X133900000Y-48925000D01*
X133828572Y-48996429D01*
X122328572Y-51046429D02*
X122400001Y-50975000D01*
X122542858Y-50903571D01*
X122900001Y-50903571D01*
X123042858Y-50975000D01*
X123114287Y-51046429D01*
X123185715Y-51189286D01*
X123185715Y-51332143D01*
X123114287Y-51546429D01*
X122257144Y-52403571D01*
X123185715Y-52403571D01*
X124114286Y-50903571D02*
X124257143Y-50903571D01*
X124400000Y-50975000D01*
X124471429Y-51046429D01*
X124542858Y-51189286D01*
X124614286Y-51475000D01*
X124614286Y-51832143D01*
X124542858Y-52117857D01*
X124471429Y-52260714D01*
X124400000Y-52332143D01*
X124257143Y-52403571D01*
X124114286Y-52403571D01*
X123971429Y-52332143D01*
X123900000Y-52260714D01*
X123828572Y-52117857D01*
X123757143Y-51832143D01*
X123757143Y-51475000D01*
X123828572Y-51189286D01*
X123900000Y-51046429D01*
X123971429Y-50975000D01*
X124114286Y-50903571D01*
X126042857Y-52403571D02*
X125185714Y-52403571D01*
X125614286Y-52403571D02*
X125614286Y-50903571D01*
X125471429Y-51117857D01*
X125328571Y-51260714D01*
X125185714Y-51332143D01*
X126542857Y-50903571D02*
X127542857Y-50903571D01*
X126900000Y-52403571D01*
X119042858Y-54953571D02*
X118542858Y-54239286D01*
X118185715Y-54953571D02*
X118185715Y-53453571D01*
X118757143Y-53453571D01*
X118900001Y-53525000D01*
X118971429Y-53596429D01*
X119042858Y-53739286D01*
X119042858Y-53953571D01*
X118971429Y-54096429D01*
X118900001Y-54167857D01*
X118757143Y-54239286D01*
X118185715Y-54239286D01*
X120257143Y-54882143D02*
X120114286Y-54953571D01*
X119828572Y-54953571D01*
X119685715Y-54882143D01*
X119614286Y-54739286D01*
X119614286Y-54167857D01*
X119685715Y-54025000D01*
X119828572Y-53953571D01*
X120114286Y-53953571D01*
X120257143Y-54025000D01*
X120328572Y-54167857D01*
X120328572Y-54310714D01*
X119614286Y-54453571D01*
X121185715Y-54953571D02*
X121042857Y-54882143D01*
X120971429Y-54739286D01*
X120971429Y-53453571D01*
X122328571Y-54882143D02*
X122185714Y-54953571D01*
X121900000Y-54953571D01*
X121757143Y-54882143D01*
X121685714Y-54739286D01*
X121685714Y-54167857D01*
X121757143Y-54025000D01*
X121900000Y-53953571D01*
X122185714Y-53953571D01*
X122328571Y-54025000D01*
X122400000Y-54167857D01*
X122400000Y-54310714D01*
X121685714Y-54453571D01*
X123685714Y-54953571D02*
X123685714Y-54167857D01*
X123614285Y-54025000D01*
X123471428Y-53953571D01*
X123185714Y-53953571D01*
X123042857Y-54025000D01*
X123685714Y-54882143D02*
X123542857Y-54953571D01*
X123185714Y-54953571D01*
X123042857Y-54882143D01*
X122971428Y-54739286D01*
X122971428Y-54596429D01*
X123042857Y-54453571D01*
X123185714Y-54382143D01*
X123542857Y-54382143D01*
X123685714Y-54310714D01*
X124328571Y-54882143D02*
X124471428Y-54953571D01*
X124757143Y-54953571D01*
X124900000Y-54882143D01*
X124971428Y-54739286D01*
X124971428Y-54667857D01*
X124900000Y-54525000D01*
X124757143Y-54453571D01*
X124542857Y-54453571D01*
X124400000Y-54382143D01*
X124328571Y-54239286D01*
X124328571Y-54167857D01*
X124400000Y-54025000D01*
X124542857Y-53953571D01*
X124757143Y-53953571D01*
X124900000Y-54025000D01*
X126185714Y-54882143D02*
X126042857Y-54953571D01*
X125757143Y-54953571D01*
X125614286Y-54882143D01*
X125542857Y-54739286D01*
X125542857Y-54167857D01*
X125614286Y-54025000D01*
X125757143Y-53953571D01*
X126042857Y-53953571D01*
X126185714Y-54025000D01*
X126257143Y-54167857D01*
X126257143Y-54310714D01*
X125542857Y-54453571D01*
X126900000Y-54382143D02*
X128042857Y-54382143D01*
X129042857Y-53453571D02*
X129185714Y-53453571D01*
X129328571Y-53525000D01*
X129400000Y-53596429D01*
X129471429Y-53739286D01*
X129542857Y-54025000D01*
X129542857Y-54382143D01*
X129471429Y-54667857D01*
X129400000Y-54810714D01*
X129328571Y-54882143D01*
X129185714Y-54953571D01*
X129042857Y-54953571D01*
X128900000Y-54882143D01*
X128828571Y-54810714D01*
X128757143Y-54667857D01*
X128685714Y-54382143D01*
X128685714Y-54025000D01*
X128757143Y-53739286D01*
X128828571Y-53596429D01*
X128900000Y-53525000D01*
X129042857Y-53453571D01*
X130185714Y-54810714D02*
X130257142Y-54882143D01*
X130185714Y-54953571D01*
X130114285Y-54882143D01*
X130185714Y-54810714D01*
X130185714Y-54953571D01*
X131685714Y-54953571D02*
X130828571Y-54953571D01*
X131257143Y-54953571D02*
X131257143Y-53453571D01*
X131114286Y-53667857D01*
X130971428Y-53810714D01*
X130828571Y-53882143D01*
D13*
X102870000Y-109050000D02*
X102870000Y-48090000D01*
X97790000Y-48090000D02*
X97790000Y-111590000D01*
X97790000Y-48090000D02*
X102870000Y-48090000D01*
X97790000Y-111590000D02*
X100330000Y-111590000D01*
X101600000Y-111870000D02*
X103150000Y-111870000D01*
X100330000Y-111590000D02*
X100330000Y-109050000D01*
X100330000Y-109050000D02*
X102870000Y-109050000D01*
X103150000Y-111870000D02*
X103150000Y-110320000D01*
X109450000Y-107725000D02*
X111450000Y-107725000D01*
X111450000Y-105675000D02*
X109450000Y-105675000D01*
X113050000Y-108850000D02*
X113750000Y-108850000D01*
X113750000Y-110050000D02*
X113050000Y-110050000D01*
X131850000Y-121100000D02*
X131150000Y-121100000D01*
X131150000Y-119900000D02*
X131850000Y-119900000D01*
X132450000Y-107500000D02*
X131750000Y-107500000D01*
X131750000Y-106300000D02*
X132450000Y-106300000D01*
X144100000Y-112900000D02*
X144800000Y-112900000D01*
X144800000Y-114100000D02*
X144100000Y-114100000D01*
X134600000Y-114350000D02*
X133900000Y-114350000D01*
X133900000Y-113150000D02*
X134600000Y-113150000D01*
X145100000Y-106750000D02*
X145100000Y-106050000D01*
X146300000Y-106050000D02*
X146300000Y-106750000D01*
X132500000Y-102250000D02*
X132500000Y-101550000D01*
X133700000Y-101550000D02*
X133700000Y-102250000D01*
X132550000Y-105600000D02*
X131850000Y-105600000D01*
X131850000Y-104400000D02*
X132550000Y-104400000D01*
X89650000Y-107100000D02*
X90350000Y-107100000D01*
X90350000Y-108300000D02*
X89650000Y-108300000D01*
X94099000Y-113175000D02*
X87801000Y-113175000D01*
X94093000Y-113315000D02*
X87807000Y-113315000D01*
X94080000Y-113455000D02*
X91396000Y-113455000D01*
X90504000Y-113455000D02*
X87820000Y-113455000D01*
X94061000Y-113595000D02*
X91606000Y-113595000D01*
X90294000Y-113595000D02*
X87839000Y-113595000D01*
X94035000Y-113735000D02*
X91739000Y-113735000D01*
X90161000Y-113735000D02*
X87865000Y-113735000D01*
X94003000Y-113875000D02*
X91830000Y-113875000D01*
X90070000Y-113875000D02*
X87897000Y-113875000D01*
X93964000Y-114015000D02*
X91892000Y-114015000D01*
X90008000Y-114015000D02*
X87936000Y-114015000D01*
X93918000Y-114155000D02*
X91931000Y-114155000D01*
X89969000Y-114155000D02*
X87982000Y-114155000D01*
X93865000Y-114295000D02*
X91948000Y-114295000D01*
X89952000Y-114295000D02*
X88035000Y-114295000D01*
X93803000Y-114435000D02*
X91946000Y-114435000D01*
X89954000Y-114435000D02*
X88097000Y-114435000D01*
X93733000Y-114575000D02*
X91924000Y-114575000D01*
X89976000Y-114575000D02*
X88167000Y-114575000D01*
X93654000Y-114715000D02*
X91881000Y-114715000D01*
X90019000Y-114715000D02*
X88246000Y-114715000D01*
X93566000Y-114855000D02*
X91813000Y-114855000D01*
X90087000Y-114855000D02*
X88334000Y-114855000D01*
X93466000Y-114995000D02*
X91714000Y-114995000D01*
X90186000Y-114995000D02*
X88434000Y-114995000D01*
X93354000Y-115135000D02*
X91569000Y-115135000D01*
X90331000Y-115135000D02*
X88546000Y-115135000D01*
X93229000Y-115275000D02*
X91330000Y-115275000D01*
X90570000Y-115275000D02*
X88671000Y-115275000D01*
X93086000Y-115415000D02*
X88814000Y-115415000D01*
X92924000Y-115555000D02*
X88976000Y-115555000D01*
X92736000Y-115695000D02*
X89164000Y-115695000D01*
X92513000Y-115835000D02*
X89387000Y-115835000D01*
X92237000Y-115975000D02*
X89663000Y-115975000D01*
X91862000Y-116115000D02*
X90038000Y-116115000D01*
X91950000Y-114350000D02*
G75*
G03X91950000Y-114350000I-1000000J0D01*
G01*
X94137500Y-113100000D02*
G75*
G03X94137500Y-113100000I-3187500J0D01*
G01*
X154450000Y-42650000D02*
X154450000Y-41950000D01*
X155650000Y-41950000D02*
X155650000Y-42650000D01*
X129750000Y-40100000D02*
X129050000Y-40100000D01*
X129050000Y-38900000D02*
X129750000Y-38900000D01*
X90450000Y-38300000D02*
X91150000Y-38300000D01*
X91150000Y-39500000D02*
X90450000Y-39500000D01*
X135250000Y-116400000D02*
X134250000Y-116400000D01*
X134250000Y-118100000D02*
X135250000Y-118100000D01*
X135649100Y-125317460D02*
X144349100Y-125317460D01*
X135649100Y-118912460D02*
X144349100Y-118912460D01*
X144349100Y-118912460D02*
X144349100Y-125317460D01*
X144349100Y-124087460D02*
X135649100Y-124087460D01*
X135649100Y-125317460D02*
X135649100Y-118912460D01*
X153670000Y-108730000D02*
X153670000Y-47770000D01*
X148590000Y-47770000D02*
X148590000Y-111270000D01*
X148590000Y-47770000D02*
X153670000Y-47770000D01*
X148590000Y-111270000D02*
X151130000Y-111270000D01*
X152400000Y-111550000D02*
X153950000Y-111550000D01*
X151130000Y-111270000D02*
X151130000Y-108730000D01*
X151130000Y-108730000D02*
X153670000Y-108730000D01*
X153950000Y-111550000D02*
X153950000Y-110000000D01*
X159030000Y-42590000D02*
X159030000Y-50210000D01*
X161570000Y-42590000D02*
X161570000Y-50210000D01*
X161850000Y-39770000D02*
X161850000Y-41320000D01*
X159030000Y-50210000D02*
X161570000Y-50210000D01*
X161570000Y-42590000D02*
X159030000Y-42590000D01*
X158750000Y-41320000D02*
X158750000Y-39770000D01*
X158750000Y-39770000D02*
X161850000Y-39770000D01*
X124230000Y-43770000D02*
X131850000Y-43770000D01*
X124230000Y-41230000D02*
X131850000Y-41230000D01*
X121410000Y-40950000D02*
X122960000Y-40950000D01*
X131850000Y-43770000D02*
X131850000Y-41230000D01*
X124230000Y-41230000D02*
X124230000Y-43770000D01*
X122960000Y-44050000D02*
X121410000Y-44050000D01*
X121410000Y-44050000D02*
X121410000Y-40950000D01*
X91120000Y-48110000D02*
X91120000Y-40490000D01*
X88580000Y-48110000D02*
X88580000Y-40490000D01*
X88300000Y-50930000D02*
X88300000Y-49380000D01*
X91120000Y-40490000D02*
X88580000Y-40490000D01*
X88580000Y-48110000D02*
X91120000Y-48110000D01*
X91400000Y-49380000D02*
X91400000Y-50930000D01*
X91400000Y-50930000D02*
X88300000Y-50930000D01*
X121170000Y-116730000D02*
X123710000Y-116730000D01*
X118350000Y-116450000D02*
X119900000Y-116450000D01*
X121170000Y-116730000D02*
X121170000Y-119270000D01*
X119900000Y-119550000D02*
X118350000Y-119550000D01*
X118350000Y-119550000D02*
X118350000Y-116450000D01*
X121170000Y-119270000D02*
X123710000Y-119270000D01*
X123710000Y-119270000D02*
X123710000Y-116730000D01*
X104070000Y-116730000D02*
X106610000Y-116730000D01*
X101250000Y-116450000D02*
X102800000Y-116450000D01*
X104070000Y-116730000D02*
X104070000Y-119270000D01*
X102800000Y-119550000D02*
X101250000Y-119550000D01*
X101250000Y-119550000D02*
X101250000Y-116450000D01*
X104070000Y-119270000D02*
X106610000Y-119270000D01*
X106610000Y-119270000D02*
X106610000Y-116730000D01*
X159030000Y-106580000D02*
X159030000Y-111660000D01*
X159030000Y-111660000D02*
X161570000Y-111660000D01*
X161570000Y-111660000D02*
X161570000Y-106580000D01*
X161850000Y-103760000D02*
X161850000Y-105310000D01*
X161570000Y-106580000D02*
X159030000Y-106580000D01*
X158750000Y-105310000D02*
X158750000Y-103760000D01*
X158750000Y-103760000D02*
X161850000Y-103760000D01*
X159030000Y-96030000D02*
X159030000Y-101110000D01*
X159030000Y-101110000D02*
X161570000Y-101110000D01*
X161570000Y-101110000D02*
X161570000Y-96030000D01*
X161850000Y-93210000D02*
X161850000Y-94760000D01*
X161570000Y-96030000D02*
X159030000Y-96030000D01*
X158750000Y-94760000D02*
X158750000Y-93210000D01*
X158750000Y-93210000D02*
X161850000Y-93210000D01*
X106195000Y-97994000D02*
X107195000Y-97994000D01*
X107195000Y-99344000D02*
X106195000Y-99344000D01*
X114195000Y-99244000D02*
X113195000Y-99244000D01*
X113195000Y-97894000D02*
X114195000Y-97894000D01*
X114945000Y-103144000D02*
X115945000Y-103144000D01*
X115945000Y-104494000D02*
X114945000Y-104494000D01*
X120445000Y-113844000D02*
X119445000Y-113844000D01*
X119445000Y-112494000D02*
X120445000Y-112494000D01*
X137575000Y-115250000D02*
X137575000Y-114250000D01*
X138925000Y-114250000D02*
X138925000Y-115250000D01*
X140275000Y-115250000D02*
X140275000Y-114250000D01*
X141625000Y-114250000D02*
X141625000Y-115250000D01*
X114391421Y-114250000D02*
G75*
G03X114391421Y-114250000I-141421J0D01*
G01*
X110950000Y-114750000D02*
X110950000Y-117750000D01*
X113950000Y-114750000D02*
X113950000Y-117750000D01*
X140532843Y-109450000D02*
G75*
G03X140532843Y-109450000I-282843J0D01*
G01*
X140850000Y-110080000D02*
X137650000Y-110080000D01*
X140850000Y-101420000D02*
X140850000Y-110080000D01*
X137650000Y-101420000D02*
X140850000Y-101420000D01*
X137650000Y-110080000D02*
X137650000Y-101420000D01*
X92697000Y-102976000D02*
X92697000Y-106151000D01*
X92697000Y-106151000D02*
X94475000Y-106151000D01*
X94475000Y-106151000D02*
X94475000Y-102976000D01*
X88125000Y-102976000D02*
X88125000Y-106151000D01*
X88125000Y-106151000D02*
X89903000Y-106151000D01*
X89903000Y-106151000D02*
X89903000Y-102976000D01*
X94729000Y-96880000D02*
X94729000Y-102976000D01*
X94729000Y-102976000D02*
X87871000Y-102976000D01*
X87871000Y-102976000D02*
X87871000Y-95102000D01*
X87871000Y-94975000D02*
X94729000Y-94975000D01*
X94729000Y-95102000D02*
X94729000Y-96880000D01*
X92230000Y-123770000D02*
X89690000Y-123770000D01*
X95050000Y-124050000D02*
X93500000Y-124050000D01*
X92230000Y-123770000D02*
X92230000Y-121230000D01*
X93500000Y-120950000D02*
X95050000Y-120950000D01*
X95050000Y-120950000D02*
X95050000Y-124050000D01*
X92230000Y-121230000D02*
X89690000Y-121230000D01*
X89690000Y-121230000D02*
X89690000Y-123770000D01*
X103611905Y-110802381D02*
X103611905Y-109802381D01*
X103992858Y-109802381D01*
X104088096Y-109850000D01*
X104135715Y-109897619D01*
X104183334Y-109992857D01*
X104183334Y-110135714D01*
X104135715Y-110230952D01*
X104088096Y-110278571D01*
X103992858Y-110326190D01*
X103611905Y-110326190D01*
X104516667Y-109802381D02*
X105135715Y-109802381D01*
X104802381Y-110183333D01*
X104945239Y-110183333D01*
X105040477Y-110230952D01*
X105088096Y-110278571D01*
X105135715Y-110373810D01*
X105135715Y-110611905D01*
X105088096Y-110707143D01*
X105040477Y-110754762D01*
X104945239Y-110802381D01*
X104659524Y-110802381D01*
X104564286Y-110754762D01*
X104516667Y-110707143D01*
X110283334Y-109357143D02*
X110235715Y-109404762D01*
X110092858Y-109452381D01*
X109997620Y-109452381D01*
X109854762Y-109404762D01*
X109759524Y-109309524D01*
X109711905Y-109214286D01*
X109664286Y-109023810D01*
X109664286Y-108880952D01*
X109711905Y-108690476D01*
X109759524Y-108595238D01*
X109854762Y-108500000D01*
X109997620Y-108452381D01*
X110092858Y-108452381D01*
X110235715Y-108500000D01*
X110283334Y-108547619D01*
X111235715Y-109452381D02*
X110664286Y-109452381D01*
X110950000Y-109452381D02*
X110950000Y-108452381D01*
X110854762Y-108595238D01*
X110759524Y-108690476D01*
X110664286Y-108738095D01*
X116883334Y-109857143D02*
X116835715Y-109904762D01*
X116692858Y-109952381D01*
X116597620Y-109952381D01*
X116454762Y-109904762D01*
X116359524Y-109809524D01*
X116311905Y-109714286D01*
X116264286Y-109523810D01*
X116264286Y-109380952D01*
X116311905Y-109190476D01*
X116359524Y-109095238D01*
X116454762Y-109000000D01*
X116597620Y-108952381D01*
X116692858Y-108952381D01*
X116835715Y-109000000D01*
X116883334Y-109047619D01*
X117264286Y-109047619D02*
X117311905Y-109000000D01*
X117407143Y-108952381D01*
X117645239Y-108952381D01*
X117740477Y-109000000D01*
X117788096Y-109047619D01*
X117835715Y-109142857D01*
X117835715Y-109238095D01*
X117788096Y-109380952D01*
X117216667Y-109952381D01*
X117835715Y-109952381D01*
X128083334Y-120857143D02*
X128035715Y-120904762D01*
X127892858Y-120952381D01*
X127797620Y-120952381D01*
X127654762Y-120904762D01*
X127559524Y-120809524D01*
X127511905Y-120714286D01*
X127464286Y-120523810D01*
X127464286Y-120380952D01*
X127511905Y-120190476D01*
X127559524Y-120095238D01*
X127654762Y-120000000D01*
X127797620Y-119952381D01*
X127892858Y-119952381D01*
X128035715Y-120000000D01*
X128083334Y-120047619D01*
X128988096Y-119952381D02*
X128511905Y-119952381D01*
X128464286Y-120428571D01*
X128511905Y-120380952D01*
X128607143Y-120333333D01*
X128845239Y-120333333D01*
X128940477Y-120380952D01*
X128988096Y-120428571D01*
X129035715Y-120523810D01*
X129035715Y-120761905D01*
X128988096Y-120857143D01*
X128940477Y-120904762D01*
X128845239Y-120952381D01*
X128607143Y-120952381D01*
X128511905Y-120904762D01*
X128464286Y-120857143D01*
X128533334Y-107257143D02*
X128485715Y-107304762D01*
X128342858Y-107352381D01*
X128247620Y-107352381D01*
X128104762Y-107304762D01*
X128009524Y-107209524D01*
X127961905Y-107114286D01*
X127914286Y-106923810D01*
X127914286Y-106780952D01*
X127961905Y-106590476D01*
X128009524Y-106495238D01*
X128104762Y-106400000D01*
X128247620Y-106352381D01*
X128342858Y-106352381D01*
X128485715Y-106400000D01*
X128533334Y-106447619D01*
X129390477Y-106352381D02*
X129200000Y-106352381D01*
X129104762Y-106400000D01*
X129057143Y-106447619D01*
X128961905Y-106590476D01*
X128914286Y-106780952D01*
X128914286Y-107161905D01*
X128961905Y-107257143D01*
X129009524Y-107304762D01*
X129104762Y-107352381D01*
X129295239Y-107352381D01*
X129390477Y-107304762D01*
X129438096Y-107257143D01*
X129485715Y-107161905D01*
X129485715Y-106923810D01*
X129438096Y-106828571D01*
X129390477Y-106780952D01*
X129295239Y-106733333D01*
X129104762Y-106733333D01*
X129009524Y-106780952D01*
X128961905Y-106828571D01*
X128914286Y-106923810D01*
X144283334Y-111957143D02*
X144235715Y-112004762D01*
X144092858Y-112052381D01*
X143997620Y-112052381D01*
X143854762Y-112004762D01*
X143759524Y-111909524D01*
X143711905Y-111814286D01*
X143664286Y-111623810D01*
X143664286Y-111480952D01*
X143711905Y-111290476D01*
X143759524Y-111195238D01*
X143854762Y-111100000D01*
X143997620Y-111052381D01*
X144092858Y-111052381D01*
X144235715Y-111100000D01*
X144283334Y-111147619D01*
X144616667Y-111052381D02*
X145283334Y-111052381D01*
X144854762Y-112052381D01*
X130833334Y-114107143D02*
X130785715Y-114154762D01*
X130642858Y-114202381D01*
X130547620Y-114202381D01*
X130404762Y-114154762D01*
X130309524Y-114059524D01*
X130261905Y-113964286D01*
X130214286Y-113773810D01*
X130214286Y-113630952D01*
X130261905Y-113440476D01*
X130309524Y-113345238D01*
X130404762Y-113250000D01*
X130547620Y-113202381D01*
X130642858Y-113202381D01*
X130785715Y-113250000D01*
X130833334Y-113297619D01*
X131404762Y-113630952D02*
X131309524Y-113583333D01*
X131261905Y-113535714D01*
X131214286Y-113440476D01*
X131214286Y-113392857D01*
X131261905Y-113297619D01*
X131309524Y-113250000D01*
X131404762Y-113202381D01*
X131595239Y-113202381D01*
X131690477Y-113250000D01*
X131738096Y-113297619D01*
X131785715Y-113392857D01*
X131785715Y-113440476D01*
X131738096Y-113535714D01*
X131690477Y-113583333D01*
X131595239Y-113630952D01*
X131404762Y-113630952D01*
X131309524Y-113678571D01*
X131261905Y-113726190D01*
X131214286Y-113821429D01*
X131214286Y-114011905D01*
X131261905Y-114107143D01*
X131309524Y-114154762D01*
X131404762Y-114202381D01*
X131595239Y-114202381D01*
X131690477Y-114154762D01*
X131738096Y-114107143D01*
X131785715Y-114011905D01*
X131785715Y-113821429D01*
X131738096Y-113726190D01*
X131690477Y-113678571D01*
X131595239Y-113630952D01*
X146057143Y-103266666D02*
X146104762Y-103314285D01*
X146152381Y-103457142D01*
X146152381Y-103552380D01*
X146104762Y-103695238D01*
X146009524Y-103790476D01*
X145914286Y-103838095D01*
X145723810Y-103885714D01*
X145580952Y-103885714D01*
X145390476Y-103838095D01*
X145295238Y-103790476D01*
X145200000Y-103695238D01*
X145152381Y-103552380D01*
X145152381Y-103457142D01*
X145200000Y-103314285D01*
X145247619Y-103266666D01*
X146152381Y-102790476D02*
X146152381Y-102600000D01*
X146104762Y-102504761D01*
X146057143Y-102457142D01*
X145914286Y-102361904D01*
X145723810Y-102314285D01*
X145342857Y-102314285D01*
X145247619Y-102361904D01*
X145200000Y-102409523D01*
X145152381Y-102504761D01*
X145152381Y-102695238D01*
X145200000Y-102790476D01*
X145247619Y-102838095D01*
X145342857Y-102885714D01*
X145580952Y-102885714D01*
X145676190Y-102838095D01*
X145723810Y-102790476D01*
X145771429Y-102695238D01*
X145771429Y-102504761D01*
X145723810Y-102409523D01*
X145676190Y-102361904D01*
X145580952Y-102314285D01*
X133357143Y-98942857D02*
X133404762Y-98990476D01*
X133452381Y-99133333D01*
X133452381Y-99228571D01*
X133404762Y-99371429D01*
X133309524Y-99466667D01*
X133214286Y-99514286D01*
X133023810Y-99561905D01*
X132880952Y-99561905D01*
X132690476Y-99514286D01*
X132595238Y-99466667D01*
X132500000Y-99371429D01*
X132452381Y-99228571D01*
X132452381Y-99133333D01*
X132500000Y-98990476D01*
X132547619Y-98942857D01*
X133452381Y-97990476D02*
X133452381Y-98561905D01*
X133452381Y-98276191D02*
X132452381Y-98276191D01*
X132595238Y-98371429D01*
X132690476Y-98466667D01*
X132738095Y-98561905D01*
X132452381Y-97371429D02*
X132452381Y-97276190D01*
X132500000Y-97180952D01*
X132547619Y-97133333D01*
X132642857Y-97085714D01*
X132833333Y-97038095D01*
X133071429Y-97038095D01*
X133261905Y-97085714D01*
X133357143Y-97133333D01*
X133404762Y-97180952D01*
X133452381Y-97276190D01*
X133452381Y-97371429D01*
X133404762Y-97466667D01*
X133357143Y-97514286D01*
X133261905Y-97561905D01*
X133071429Y-97609524D01*
X132833333Y-97609524D01*
X132642857Y-97561905D01*
X132547619Y-97514286D01*
X132500000Y-97466667D01*
X132452381Y-97371429D01*
X127957143Y-105357143D02*
X127909524Y-105404762D01*
X127766667Y-105452381D01*
X127671429Y-105452381D01*
X127528571Y-105404762D01*
X127433333Y-105309524D01*
X127385714Y-105214286D01*
X127338095Y-105023810D01*
X127338095Y-104880952D01*
X127385714Y-104690476D01*
X127433333Y-104595238D01*
X127528571Y-104500000D01*
X127671429Y-104452381D01*
X127766667Y-104452381D01*
X127909524Y-104500000D01*
X127957143Y-104547619D01*
X128909524Y-105452381D02*
X128338095Y-105452381D01*
X128623809Y-105452381D02*
X128623809Y-104452381D01*
X128528571Y-104595238D01*
X128433333Y-104690476D01*
X128338095Y-104738095D01*
X129861905Y-105452381D02*
X129290476Y-105452381D01*
X129576190Y-105452381D02*
X129576190Y-104452381D01*
X129480952Y-104595238D01*
X129385714Y-104690476D01*
X129290476Y-104738095D01*
X92857143Y-108057143D02*
X92809524Y-108104762D01*
X92666667Y-108152381D01*
X92571429Y-108152381D01*
X92428571Y-108104762D01*
X92333333Y-108009524D01*
X92285714Y-107914286D01*
X92238095Y-107723810D01*
X92238095Y-107580952D01*
X92285714Y-107390476D01*
X92333333Y-107295238D01*
X92428571Y-107200000D01*
X92571429Y-107152381D01*
X92666667Y-107152381D01*
X92809524Y-107200000D01*
X92857143Y-107247619D01*
X93809524Y-108152381D02*
X93238095Y-108152381D01*
X93523809Y-108152381D02*
X93523809Y-107152381D01*
X93428571Y-107295238D01*
X93333333Y-107390476D01*
X93238095Y-107438095D01*
X94190476Y-107247619D02*
X94238095Y-107200000D01*
X94333333Y-107152381D01*
X94571429Y-107152381D01*
X94666667Y-107200000D01*
X94714286Y-107247619D01*
X94761905Y-107342857D01*
X94761905Y-107438095D01*
X94714286Y-107580952D01*
X94142857Y-108152381D01*
X94761905Y-108152381D01*
X95707143Y-113742857D02*
X95754762Y-113790476D01*
X95802381Y-113933333D01*
X95802381Y-114028571D01*
X95754762Y-114171429D01*
X95659524Y-114266667D01*
X95564286Y-114314286D01*
X95373810Y-114361905D01*
X95230952Y-114361905D01*
X95040476Y-114314286D01*
X94945238Y-114266667D01*
X94850000Y-114171429D01*
X94802381Y-114028571D01*
X94802381Y-113933333D01*
X94850000Y-113790476D01*
X94897619Y-113742857D01*
X95802381Y-112790476D02*
X95802381Y-113361905D01*
X95802381Y-113076191D02*
X94802381Y-113076191D01*
X94945238Y-113171429D01*
X95040476Y-113266667D01*
X95088095Y-113361905D01*
X94802381Y-112457143D02*
X94802381Y-111838095D01*
X95183333Y-112171429D01*
X95183333Y-112028571D01*
X95230952Y-111933333D01*
X95278571Y-111885714D01*
X95373810Y-111838095D01*
X95611905Y-111838095D01*
X95707143Y-111885714D01*
X95754762Y-111933333D01*
X95802381Y-112028571D01*
X95802381Y-112314286D01*
X95754762Y-112409524D01*
X95707143Y-112457143D01*
X153157143Y-42942857D02*
X153204762Y-42990476D01*
X153252381Y-43133333D01*
X153252381Y-43228571D01*
X153204762Y-43371429D01*
X153109524Y-43466667D01*
X153014286Y-43514286D01*
X152823810Y-43561905D01*
X152680952Y-43561905D01*
X152490476Y-43514286D01*
X152395238Y-43466667D01*
X152300000Y-43371429D01*
X152252381Y-43228571D01*
X152252381Y-43133333D01*
X152300000Y-42990476D01*
X152347619Y-42942857D01*
X153252381Y-41990476D02*
X153252381Y-42561905D01*
X153252381Y-42276191D02*
X152252381Y-42276191D01*
X152395238Y-42371429D01*
X152490476Y-42466667D01*
X152538095Y-42561905D01*
X152585714Y-41133333D02*
X153252381Y-41133333D01*
X152204762Y-41371429D02*
X152919048Y-41609524D01*
X152919048Y-40990476D01*
X132357143Y-39857143D02*
X132309524Y-39904762D01*
X132166667Y-39952381D01*
X132071429Y-39952381D01*
X131928571Y-39904762D01*
X131833333Y-39809524D01*
X131785714Y-39714286D01*
X131738095Y-39523810D01*
X131738095Y-39380952D01*
X131785714Y-39190476D01*
X131833333Y-39095238D01*
X131928571Y-39000000D01*
X132071429Y-38952381D01*
X132166667Y-38952381D01*
X132309524Y-39000000D01*
X132357143Y-39047619D01*
X133309524Y-39952381D02*
X132738095Y-39952381D01*
X133023809Y-39952381D02*
X133023809Y-38952381D01*
X132928571Y-39095238D01*
X132833333Y-39190476D01*
X132738095Y-39238095D01*
X134214286Y-38952381D02*
X133738095Y-38952381D01*
X133690476Y-39428571D01*
X133738095Y-39380952D01*
X133833333Y-39333333D01*
X134071429Y-39333333D01*
X134166667Y-39380952D01*
X134214286Y-39428571D01*
X134261905Y-39523810D01*
X134261905Y-39761905D01*
X134214286Y-39857143D01*
X134166667Y-39904762D01*
X134071429Y-39952381D01*
X133833333Y-39952381D01*
X133738095Y-39904762D01*
X133690476Y-39857143D01*
X93807143Y-39257143D02*
X93759524Y-39304762D01*
X93616667Y-39352381D01*
X93521429Y-39352381D01*
X93378571Y-39304762D01*
X93283333Y-39209524D01*
X93235714Y-39114286D01*
X93188095Y-38923810D01*
X93188095Y-38780952D01*
X93235714Y-38590476D01*
X93283333Y-38495238D01*
X93378571Y-38400000D01*
X93521429Y-38352381D01*
X93616667Y-38352381D01*
X93759524Y-38400000D01*
X93807143Y-38447619D01*
X94759524Y-39352381D02*
X94188095Y-39352381D01*
X94473809Y-39352381D02*
X94473809Y-38352381D01*
X94378571Y-38495238D01*
X94283333Y-38590476D01*
X94188095Y-38638095D01*
X95616667Y-38352381D02*
X95426190Y-38352381D01*
X95330952Y-38400000D01*
X95283333Y-38447619D01*
X95188095Y-38590476D01*
X95140476Y-38780952D01*
X95140476Y-39161905D01*
X95188095Y-39257143D01*
X95235714Y-39304762D01*
X95330952Y-39352381D01*
X95521429Y-39352381D01*
X95616667Y-39304762D01*
X95664286Y-39257143D01*
X95711905Y-39161905D01*
X95711905Y-38923810D01*
X95664286Y-38828571D01*
X95616667Y-38780952D01*
X95521429Y-38733333D01*
X95330952Y-38733333D01*
X95235714Y-38780952D01*
X95188095Y-38828571D01*
X95140476Y-38923810D01*
X131083334Y-117702381D02*
X130607143Y-117702381D01*
X130607143Y-116702381D01*
X131940477Y-117702381D02*
X131369048Y-117702381D01*
X131654762Y-117702381D02*
X131654762Y-116702381D01*
X131559524Y-116845238D01*
X131464286Y-116940476D01*
X131369048Y-116988095D01*
X146152381Y-120138095D02*
X145152381Y-120138095D01*
X145152381Y-119757142D01*
X145200000Y-119661904D01*
X145247619Y-119614285D01*
X145342857Y-119566666D01*
X145485714Y-119566666D01*
X145580952Y-119614285D01*
X145628571Y-119661904D01*
X145676190Y-119757142D01*
X145676190Y-120138095D01*
X146152381Y-118614285D02*
X146152381Y-119185714D01*
X146152381Y-118900000D02*
X145152381Y-118900000D01*
X145295238Y-118995238D01*
X145390476Y-119090476D01*
X145438095Y-119185714D01*
X150261905Y-113202381D02*
X150261905Y-112202381D01*
X150642858Y-112202381D01*
X150738096Y-112250000D01*
X150785715Y-112297619D01*
X150833334Y-112392857D01*
X150833334Y-112535714D01*
X150785715Y-112630952D01*
X150738096Y-112678571D01*
X150642858Y-112726190D01*
X150261905Y-112726190D01*
X151214286Y-112297619D02*
X151261905Y-112250000D01*
X151357143Y-112202381D01*
X151595239Y-112202381D01*
X151690477Y-112250000D01*
X151738096Y-112297619D01*
X151785715Y-112392857D01*
X151785715Y-112488095D01*
X151738096Y-112630952D01*
X151166667Y-113202381D01*
X151785715Y-113202381D01*
X159561905Y-51952381D02*
X159561905Y-50952381D01*
X159942858Y-50952381D01*
X160038096Y-51000000D01*
X160085715Y-51047619D01*
X160133334Y-51142857D01*
X160133334Y-51285714D01*
X160085715Y-51380952D01*
X160038096Y-51428571D01*
X159942858Y-51476190D01*
X159561905Y-51476190D01*
X160990477Y-51285714D02*
X160990477Y-51952381D01*
X160752381Y-50904762D02*
X160514286Y-51619048D01*
X161133334Y-51619048D01*
X133702381Y-43238095D02*
X132702381Y-43238095D01*
X132702381Y-42857142D01*
X132750000Y-42761904D01*
X132797619Y-42714285D01*
X132892857Y-42666666D01*
X133035714Y-42666666D01*
X133130952Y-42714285D01*
X133178571Y-42761904D01*
X133226190Y-42857142D01*
X133226190Y-43238095D01*
X132702381Y-41761904D02*
X132702381Y-42238095D01*
X133178571Y-42285714D01*
X133130952Y-42238095D01*
X133083333Y-42142857D01*
X133083333Y-41904761D01*
X133130952Y-41809523D01*
X133178571Y-41761904D01*
X133273810Y-41714285D01*
X133511905Y-41714285D01*
X133607143Y-41761904D01*
X133654762Y-41809523D01*
X133702381Y-41904761D01*
X133702381Y-42142857D01*
X133654762Y-42238095D01*
X133607143Y-42285714D01*
X89111905Y-52402381D02*
X89111905Y-51402381D01*
X89492858Y-51402381D01*
X89588096Y-51450000D01*
X89635715Y-51497619D01*
X89683334Y-51592857D01*
X89683334Y-51735714D01*
X89635715Y-51830952D01*
X89588096Y-51878571D01*
X89492858Y-51926190D01*
X89111905Y-51926190D01*
X90540477Y-51402381D02*
X90350000Y-51402381D01*
X90254762Y-51450000D01*
X90207143Y-51497619D01*
X90111905Y-51640476D01*
X90064286Y-51830952D01*
X90064286Y-52211905D01*
X90111905Y-52307143D01*
X90159524Y-52354762D01*
X90254762Y-52402381D01*
X90445239Y-52402381D01*
X90540477Y-52354762D01*
X90588096Y-52307143D01*
X90635715Y-52211905D01*
X90635715Y-51973810D01*
X90588096Y-51878571D01*
X90540477Y-51830952D01*
X90445239Y-51783333D01*
X90254762Y-51783333D01*
X90159524Y-51830952D01*
X90111905Y-51878571D01*
X90064286Y-51973810D01*
X125102381Y-118738095D02*
X124102381Y-118738095D01*
X124102381Y-118357142D01*
X124150000Y-118261904D01*
X124197619Y-118214285D01*
X124292857Y-118166666D01*
X124435714Y-118166666D01*
X124530952Y-118214285D01*
X124578571Y-118261904D01*
X124626190Y-118357142D01*
X124626190Y-118738095D01*
X124102381Y-117833333D02*
X124102381Y-117166666D01*
X125102381Y-117595238D01*
X100642381Y-118488095D02*
X99642381Y-118488095D01*
X99642381Y-118107142D01*
X99690000Y-118011904D01*
X99737619Y-117964285D01*
X99832857Y-117916666D01*
X99975714Y-117916666D01*
X100070952Y-117964285D01*
X100118571Y-118011904D01*
X100166190Y-118107142D01*
X100166190Y-118488095D01*
X100070952Y-117345238D02*
X100023333Y-117440476D01*
X99975714Y-117488095D01*
X99880476Y-117535714D01*
X99832857Y-117535714D01*
X99737619Y-117488095D01*
X99690000Y-117440476D01*
X99642381Y-117345238D01*
X99642381Y-117154761D01*
X99690000Y-117059523D01*
X99737619Y-117011904D01*
X99832857Y-116964285D01*
X99880476Y-116964285D01*
X99975714Y-117011904D01*
X100023333Y-117059523D01*
X100070952Y-117154761D01*
X100070952Y-117345238D01*
X100118571Y-117440476D01*
X100166190Y-117488095D01*
X100261429Y-117535714D01*
X100451905Y-117535714D01*
X100547143Y-117488095D01*
X100594762Y-117440476D01*
X100642381Y-117345238D01*
X100642381Y-117154761D01*
X100594762Y-117059523D01*
X100547143Y-117011904D01*
X100451905Y-116964285D01*
X100261429Y-116964285D01*
X100166190Y-117011904D01*
X100118571Y-117059523D01*
X100070952Y-117154761D01*
X159511905Y-113252381D02*
X159511905Y-112252381D01*
X159892858Y-112252381D01*
X159988096Y-112300000D01*
X160035715Y-112347619D01*
X160083334Y-112442857D01*
X160083334Y-112585714D01*
X160035715Y-112680952D01*
X159988096Y-112728571D01*
X159892858Y-112776190D01*
X159511905Y-112776190D01*
X160559524Y-113252381D02*
X160750000Y-113252381D01*
X160845239Y-113204762D01*
X160892858Y-113157143D01*
X160988096Y-113014286D01*
X161035715Y-112823810D01*
X161035715Y-112442857D01*
X160988096Y-112347619D01*
X160940477Y-112300000D01*
X160845239Y-112252381D01*
X160654762Y-112252381D01*
X160559524Y-112300000D01*
X160511905Y-112347619D01*
X160464286Y-112442857D01*
X160464286Y-112680952D01*
X160511905Y-112776190D01*
X160559524Y-112823810D01*
X160654762Y-112871429D01*
X160845239Y-112871429D01*
X160940477Y-112823810D01*
X160988096Y-112776190D01*
X161035715Y-112680952D01*
X159085714Y-92502381D02*
X159085714Y-91502381D01*
X159466667Y-91502381D01*
X159561905Y-91550000D01*
X159609524Y-91597619D01*
X159657143Y-91692857D01*
X159657143Y-91835714D01*
X159609524Y-91930952D01*
X159561905Y-91978571D01*
X159466667Y-92026190D01*
X159085714Y-92026190D01*
X160609524Y-92502381D02*
X160038095Y-92502381D01*
X160323809Y-92502381D02*
X160323809Y-91502381D01*
X160228571Y-91645238D01*
X160133333Y-91740476D01*
X160038095Y-91788095D01*
X161228571Y-91502381D02*
X161323810Y-91502381D01*
X161419048Y-91550000D01*
X161466667Y-91597619D01*
X161514286Y-91692857D01*
X161561905Y-91883333D01*
X161561905Y-92121429D01*
X161514286Y-92311905D01*
X161466667Y-92407143D01*
X161419048Y-92454762D01*
X161323810Y-92502381D01*
X161228571Y-92502381D01*
X161133333Y-92454762D01*
X161085714Y-92407143D01*
X161038095Y-92311905D01*
X160990476Y-92121429D01*
X160990476Y-91883333D01*
X161038095Y-91692857D01*
X161085714Y-91597619D01*
X161133333Y-91550000D01*
X161228571Y-91502381D01*
X106478334Y-100971381D02*
X106145000Y-100495190D01*
X105906905Y-100971381D02*
X105906905Y-99971381D01*
X106287858Y-99971381D01*
X106383096Y-100019000D01*
X106430715Y-100066619D01*
X106478334Y-100161857D01*
X106478334Y-100304714D01*
X106430715Y-100399952D01*
X106383096Y-100447571D01*
X106287858Y-100495190D01*
X105906905Y-100495190D01*
X107430715Y-100971381D02*
X106859286Y-100971381D01*
X107145000Y-100971381D02*
X107145000Y-99971381D01*
X107049762Y-100114238D01*
X106954524Y-100209476D01*
X106859286Y-100257095D01*
X113378334Y-100821381D02*
X113045000Y-100345190D01*
X112806905Y-100821381D02*
X112806905Y-99821381D01*
X113187858Y-99821381D01*
X113283096Y-99869000D01*
X113330715Y-99916619D01*
X113378334Y-100011857D01*
X113378334Y-100154714D01*
X113330715Y-100249952D01*
X113283096Y-100297571D01*
X113187858Y-100345190D01*
X112806905Y-100345190D01*
X113759286Y-99916619D02*
X113806905Y-99869000D01*
X113902143Y-99821381D01*
X114140239Y-99821381D01*
X114235477Y-99869000D01*
X114283096Y-99916619D01*
X114330715Y-100011857D01*
X114330715Y-100107095D01*
X114283096Y-100249952D01*
X113711667Y-100821381D01*
X114330715Y-100821381D01*
X115228334Y-105871381D02*
X114895000Y-105395190D01*
X114656905Y-105871381D02*
X114656905Y-104871381D01*
X115037858Y-104871381D01*
X115133096Y-104919000D01*
X115180715Y-104966619D01*
X115228334Y-105061857D01*
X115228334Y-105204714D01*
X115180715Y-105299952D01*
X115133096Y-105347571D01*
X115037858Y-105395190D01*
X114656905Y-105395190D01*
X115561667Y-104871381D02*
X116180715Y-104871381D01*
X115847381Y-105252333D01*
X115990239Y-105252333D01*
X116085477Y-105299952D01*
X116133096Y-105347571D01*
X116180715Y-105442810D01*
X116180715Y-105680905D01*
X116133096Y-105776143D01*
X116085477Y-105823762D01*
X115990239Y-105871381D01*
X115704524Y-105871381D01*
X115609286Y-105823762D01*
X115561667Y-105776143D01*
X116428334Y-113621381D02*
X116095000Y-113145190D01*
X115856905Y-113621381D02*
X115856905Y-112621381D01*
X116237858Y-112621381D01*
X116333096Y-112669000D01*
X116380715Y-112716619D01*
X116428334Y-112811857D01*
X116428334Y-112954714D01*
X116380715Y-113049952D01*
X116333096Y-113097571D01*
X116237858Y-113145190D01*
X115856905Y-113145190D01*
X117285477Y-112954714D02*
X117285477Y-113621381D01*
X117047381Y-112573762D02*
X116809286Y-113288048D01*
X117428334Y-113288048D01*
X138702381Y-111666666D02*
X138226190Y-112000000D01*
X138702381Y-112238095D02*
X137702381Y-112238095D01*
X137702381Y-111857142D01*
X137750000Y-111761904D01*
X137797619Y-111714285D01*
X137892857Y-111666666D01*
X138035714Y-111666666D01*
X138130952Y-111714285D01*
X138178571Y-111761904D01*
X138226190Y-111857142D01*
X138226190Y-112238095D01*
X137702381Y-110761904D02*
X137702381Y-111238095D01*
X138178571Y-111285714D01*
X138130952Y-111238095D01*
X138083333Y-111142857D01*
X138083333Y-110904761D01*
X138130952Y-110809523D01*
X138178571Y-110761904D01*
X138273810Y-110714285D01*
X138511905Y-110714285D01*
X138607143Y-110761904D01*
X138654762Y-110809523D01*
X138702381Y-110904761D01*
X138702381Y-111142857D01*
X138654762Y-111238095D01*
X138607143Y-111285714D01*
X141402381Y-111666666D02*
X140926190Y-112000000D01*
X141402381Y-112238095D02*
X140402381Y-112238095D01*
X140402381Y-111857142D01*
X140450000Y-111761904D01*
X140497619Y-111714285D01*
X140592857Y-111666666D01*
X140735714Y-111666666D01*
X140830952Y-111714285D01*
X140878571Y-111761904D01*
X140926190Y-111857142D01*
X140926190Y-112238095D01*
X140402381Y-110809523D02*
X140402381Y-111000000D01*
X140450000Y-111095238D01*
X140497619Y-111142857D01*
X140640476Y-111238095D01*
X140830952Y-111285714D01*
X141211905Y-111285714D01*
X141307143Y-111238095D01*
X141354762Y-111190476D01*
X141402381Y-111095238D01*
X141402381Y-110904761D01*
X141354762Y-110809523D01*
X141307143Y-110761904D01*
X141211905Y-110714285D01*
X140973810Y-110714285D01*
X140878571Y-110761904D01*
X140830952Y-110809523D01*
X140783333Y-110904761D01*
X140783333Y-111095238D01*
X140830952Y-111190476D01*
X140878571Y-111238095D01*
X140973810Y-111285714D01*
X108802381Y-117011905D02*
X109611905Y-117011905D01*
X109707143Y-116964286D01*
X109754762Y-116916667D01*
X109802381Y-116821429D01*
X109802381Y-116630952D01*
X109754762Y-116535714D01*
X109707143Y-116488095D01*
X109611905Y-116440476D01*
X108802381Y-116440476D01*
X109802381Y-115440476D02*
X109802381Y-116011905D01*
X109802381Y-115726191D02*
X108802381Y-115726191D01*
X108945238Y-115821429D01*
X109040476Y-115916667D01*
X109088095Y-116011905D01*
X138538095Y-99652381D02*
X138538095Y-100461905D01*
X138585714Y-100557143D01*
X138633333Y-100604762D01*
X138728571Y-100652381D01*
X138919048Y-100652381D01*
X139014286Y-100604762D01*
X139061905Y-100557143D01*
X139109524Y-100461905D01*
X139109524Y-99652381D01*
X139538095Y-99747619D02*
X139585714Y-99700000D01*
X139680952Y-99652381D01*
X139919048Y-99652381D01*
X140014286Y-99700000D01*
X140061905Y-99747619D01*
X140109524Y-99842857D01*
X140109524Y-99938095D01*
X140061905Y-100080952D01*
X139490476Y-100652381D01*
X140109524Y-100652381D01*
X93138095Y-93602381D02*
X93138095Y-94411905D01*
X93185714Y-94507143D01*
X93233333Y-94554762D01*
X93328571Y-94602381D01*
X93519048Y-94602381D01*
X93614286Y-94554762D01*
X93661905Y-94507143D01*
X93709524Y-94411905D01*
X93709524Y-93602381D01*
X94090476Y-93602381D02*
X94709524Y-93602381D01*
X94376190Y-93983333D01*
X94519048Y-93983333D01*
X94614286Y-94030952D01*
X94661905Y-94078571D01*
X94709524Y-94173810D01*
X94709524Y-94411905D01*
X94661905Y-94507143D01*
X94614286Y-94554762D01*
X94519048Y-94602381D01*
X94233333Y-94602381D01*
X94138095Y-94554762D01*
X94090476Y-94507143D01*
X88802381Y-123764286D02*
X87802381Y-123764286D01*
X87802381Y-123383333D01*
X87850000Y-123288095D01*
X87897619Y-123240476D01*
X87992857Y-123192857D01*
X88135714Y-123192857D01*
X88230952Y-123240476D01*
X88278571Y-123288095D01*
X88326190Y-123383333D01*
X88326190Y-123764286D01*
X88802381Y-122240476D02*
X88802381Y-122811905D01*
X88802381Y-122526191D02*
X87802381Y-122526191D01*
X87945238Y-122621429D01*
X88040476Y-122716667D01*
X88088095Y-122811905D01*
X88802381Y-121288095D02*
X88802381Y-121859524D01*
X88802381Y-121573810D02*
X87802381Y-121573810D01*
X87945238Y-121669048D01*
X88040476Y-121764286D01*
X88088095Y-121859524D01*
X108409286Y-53721381D02*
X108980715Y-53721381D01*
X108695000Y-54721381D02*
X108695000Y-53721381D01*
X109314048Y-54721381D02*
X109314048Y-53721381D01*
X109314048Y-54197571D02*
X109885477Y-54197571D01*
X109885477Y-54721381D02*
X109885477Y-53721381D01*
X110885477Y-54721381D02*
X110314048Y-54721381D01*
X110599762Y-54721381D02*
X110599762Y-53721381D01*
X110504524Y-53864238D01*
X110409286Y-53959476D01*
X110314048Y-54007095D01*
X138809286Y-53771381D02*
X139380715Y-53771381D01*
X139095000Y-54771381D02*
X139095000Y-53771381D01*
X139714048Y-54771381D02*
X139714048Y-53771381D01*
X139714048Y-54247571D02*
X140285477Y-54247571D01*
X140285477Y-54771381D02*
X140285477Y-53771381D01*
X140714048Y-53866619D02*
X140761667Y-53819000D01*
X140856905Y-53771381D01*
X141095001Y-53771381D01*
X141190239Y-53819000D01*
X141237858Y-53866619D01*
X141285477Y-53961857D01*
X141285477Y-54057095D01*
X141237858Y-54199952D01*
X140666429Y-54771381D01*
X141285477Y-54771381D01*
X138809286Y-78081381D02*
X139380715Y-78081381D01*
X139095000Y-79081381D02*
X139095000Y-78081381D01*
X139714048Y-79081381D02*
X139714048Y-78081381D01*
X139714048Y-78557571D02*
X140285477Y-78557571D01*
X140285477Y-79081381D02*
X140285477Y-78081381D01*
X140666429Y-78081381D02*
X141285477Y-78081381D01*
X140952143Y-78462333D01*
X141095001Y-78462333D01*
X141190239Y-78509952D01*
X141237858Y-78557571D01*
X141285477Y-78652810D01*
X141285477Y-78890905D01*
X141237858Y-78986143D01*
X141190239Y-79033762D01*
X141095001Y-79081381D01*
X140809286Y-79081381D01*
X140714048Y-79033762D01*
X140666429Y-78986143D01*
X106909286Y-77431381D02*
X107480715Y-77431381D01*
X107195000Y-78431381D02*
X107195000Y-77431381D01*
X107814048Y-78431381D02*
X107814048Y-77431381D01*
X107814048Y-77907571D02*
X108385477Y-77907571D01*
X108385477Y-78431381D02*
X108385477Y-77431381D01*
X109290239Y-77764714D02*
X109290239Y-78431381D01*
X109052143Y-77383762D02*
X108814048Y-78098048D01*
X109433096Y-78098048D01*
M02*
